<?xml version="1.0" encoding="UTF-8" standalone="no"?>
<!DOCTYPE svg PUBLIC "-//W3C//DTD SVG 1.1//EN"
 "http://www.w3.org/Graphics/SVG/1.1/DTD/svg11.dtd">
<!-- Generated by graphviz version 8.1.0 (0)
 -->
<!-- Pages: 1 -->
<svg width="130pt" height="341pt"
 viewBox="0.00 0.00 130.00 340.63" xmlns="http://www.w3.org/2000/svg" xmlns:xlink="http://www.w3.org/1999/xlink">
<g id="graph0" class="graph" transform="scale(1 1) rotate(0) translate(4 336.63)">
<polygon fill="white" stroke="none" points="-4,4 -4,-336.63 126,-336.63 126,4 -4,4"/>
<g id="clust1" class="cluster">
<title>cluster100</title>
<path fill="none" stroke="black" d="M20,-8C20,-8 102,-8 102,-8 108,-8 114,-14 114,-20 114,-20 114,-211.32 114,-211.32 114,-217.32 108,-223.32 102,-223.32 102,-223.32 20,-223.32 20,-223.32 14,-223.32 8,-217.32 8,-211.32 8,-211.32 8,-20 8,-20 8,-14 14,-8 20,-8"/>
<text text-anchor="middle" x="95.88" y="-15.2" font-family="Times,serif" font-size="14.00">100</text>
</g>
<!-- y -->
<g id="node1" class="node">
<title>y</title>
<ellipse fill="lightgrey" stroke="black" cx="61" cy="-174.66" rx="41.01" ry="40.66"/>
<text text-anchor="middle" x="61" y="-186.11" font-family="Times,serif" font-size="14.00">y</text>
<text text-anchor="middle" x="61" y="-169.61" font-family="Times,serif" font-size="14.00">~</text>
<text text-anchor="middle" x="61" y="-153.11" font-family="Times,serif" font-size="14.00">Poisson</text>
</g>
<!-- data -->
<g id="node2" class="node">
<title>data</title>
<path fill="lightgrey" stroke="black" d="M93.75,-98C93.75,-98 28.25,-98 28.25,-98 22.25,-98 16.25,-92 16.25,-86 16.25,-86 16.25,-52.5 16.25,-52.5 16.25,-46.5 22.25,-40.5 28.25,-40.5 28.25,-40.5 93.75,-40.5 93.75,-40.5 99.75,-40.5 105.75,-46.5 105.75,-52.5 105.75,-52.5 105.75,-86 105.75,-86 105.75,-92 99.75,-98 93.75,-98"/>
<text text-anchor="middle" x="61" y="-80.7" font-family="Times,serif" font-size="14.00">data</text>
<text text-anchor="middle" x="61" y="-64.2" font-family="Times,serif" font-size="14.00">~</text>
<text text-anchor="middle" x="61" y="-47.7" font-family="Times,serif" font-size="14.00">ConstantData</text>
</g>
<!-- y&#45;&gt;data -->
<g id="edge1" class="edge">
<title>y&#45;&gt;data</title>
<path fill="none" stroke="black" d="M61,-133.68C61,-125.64 61,-117.21 61,-109.21"/>
<polygon fill="black" stroke="black" points="64.5,-109.28 61,-99.28 57.5,-109.28 64.5,-109.28"/>
</g>
<!-- lambda -->
<g id="node3" class="node">
<title>lambda</title>
<ellipse fill="none" stroke="black" cx="61" cy="-291.98" rx="42.6" ry="40.66"/>
<text text-anchor="middle" x="61" y="-303.43" font-family="Times,serif" font-size="14.00">lambda</text>
<text text-anchor="middle" x="61" y="-286.93" font-family="Times,serif" font-size="14.00">~</text>
<text text-anchor="middle" x="61" y="-270.43" font-family="Times,serif" font-size="14.00">Gamma</text>
</g>
<!-- lambda&#45;&gt;y -->
<g id="edge2" class="edge">
<title>lambda&#45;&gt;y</title>
<path fill="none" stroke="black" d="M61,-250.97C61,-243.1 61,-234.74 61,-226.57"/>
<polygon fill="black" stroke="black" points="64.5,-226.6 61,-216.6 57.5,-226.6 64.5,-226.6"/>
</g>
</g>
</svg>