<?xml version="1.0" encoding="utf-8" standalone="no"?>
<!DOCTYPE svg PUBLIC "-//W3C//DTD SVG 1.1//EN"
  "http://www.w3.org/Graphics/SVG/1.1/DTD/svg11.dtd">
<svg xmlns:xlink="http://www.w3.org/1999/xlink" width="609.710469pt" height="381.861094pt" viewBox="0 0 609.710469 381.861094" xmlns="http://www.w3.org/2000/svg" version="1.1">
 <metadata>
  <rdf:RDF xmlns:dc="http://purl.org/dc/elements/1.1/" xmlns:cc="http://creativecommons.org/ns#" xmlns:rdf="http://www.w3.org/1999/02/22-rdf-syntax-ns#">
   <cc:Work>
    <dc:type rdf:resource="http://purl.org/dc/dcmitype/StillImage"/>
    <dc:date>2023-09-17T11:25:44.673784</dc:date>
    <dc:format>image/svg+xml</dc:format>
    <dc:creator>
     <cc:Agent>
      <dc:title>Matplotlib v3.7.2, https://matplotlib.org/</dc:title>
     </cc:Agent>
    </dc:creator>
   </cc:Work>
  </rdf:RDF>
 </metadata>
 <defs>
  <style type="text/css">*{stroke-linejoin: round; stroke-linecap: butt}</style>
 </defs>
 <g id="figure_1">
  <g id="patch_1">
   <path d="M 0 381.861094 
L 609.710469 381.861094 
L 609.710469 0 
L 0 0 
z
" style="fill: #ffffff"/>
  </g>
  <g id="axes_1">
   <g id="patch_2">
    <path d="M 44.510469 339.84 
L 602.510469 339.84 
L 602.510469 7.2 
L 44.510469 7.2 
z
" style="fill: #eaeaf2"/>
   </g>
   <g id="matplotlib.axis_1">
    <g id="xtick_1">
     <g id="line2d_1">
      <path d="M 78.023203 339.84 
L 78.023203 7.2 
" clip-path="url(#p5d3b2ac69c)" style="fill: none; stroke: #ffffff; stroke-linecap: round"/>
     </g>
     <g id="text_1">
      <!-- −1.5 -->
      <g style="fill: #262626" transform="translate(67.165859 357.213594) scale(0.11 -0.11)">
       <defs>
        <path id="ArialMT-2212" d="M 3381 1997 
L 356 1997 
L 356 2522 
L 3381 2522 
L 3381 1997 
z
" transform="scale(0.015625)"/>
        <path id="ArialMT-31" d="M 2384 0 
L 1822 0 
L 1822 3584 
Q 1619 3391 1289 3197 
Q 959 3003 697 2906 
L 697 3450 
Q 1169 3672 1522 3987 
Q 1875 4303 2022 4600 
L 2384 4600 
L 2384 0 
z
" transform="scale(0.015625)"/>
        <path id="ArialMT-2e" d="M 581 0 
L 581 641 
L 1222 641 
L 1222 0 
L 581 0 
z
" transform="scale(0.015625)"/>
        <path id="ArialMT-35" d="M 266 1200 
L 856 1250 
Q 922 819 1161 601 
Q 1400 384 1738 384 
Q 2144 384 2425 690 
Q 2706 997 2706 1503 
Q 2706 1984 2436 2262 
Q 2166 2541 1728 2541 
Q 1456 2541 1237 2417 
Q 1019 2294 894 2097 
L 366 2166 
L 809 4519 
L 3088 4519 
L 3088 3981 
L 1259 3981 
L 1013 2750 
Q 1425 3038 1878 3038 
Q 2478 3038 2890 2622 
Q 3303 2206 3303 1553 
Q 3303 931 2941 478 
Q 2500 -78 1738 -78 
Q 1113 -78 717 272 
Q 322 622 266 1200 
z
" transform="scale(0.015625)"/>
       </defs>
       <use xlink:href="#ArialMT-2212"/>
       <use xlink:href="#ArialMT-31" x="58.398438"/>
       <use xlink:href="#ArialMT-2e" x="114.013672"/>
       <use xlink:href="#ArialMT-35" x="141.796875"/>
      </g>
     </g>
    </g>
    <g id="xtick_2">
     <g id="line2d_2">
      <path d="M 156.085094 339.84 
L 156.085094 7.2 
" clip-path="url(#p5d3b2ac69c)" style="fill: none; stroke: #ffffff; stroke-linecap: round"/>
     </g>
     <g id="text_2">
      <!-- −1.0 -->
      <g style="fill: #262626" transform="translate(145.227751 357.213594) scale(0.11 -0.11)">
       <defs>
        <path id="ArialMT-30" d="M 266 2259 
Q 266 3072 433 3567 
Q 600 4063 929 4331 
Q 1259 4600 1759 4600 
Q 2128 4600 2406 4451 
Q 2684 4303 2865 4023 
Q 3047 3744 3150 3342 
Q 3253 2941 3253 2259 
Q 3253 1453 3087 958 
Q 2922 463 2592 192 
Q 2263 -78 1759 -78 
Q 1097 -78 719 397 
Q 266 969 266 2259 
z
M 844 2259 
Q 844 1131 1108 757 
Q 1372 384 1759 384 
Q 2147 384 2411 759 
Q 2675 1134 2675 2259 
Q 2675 3391 2411 3762 
Q 2147 4134 1753 4134 
Q 1366 4134 1134 3806 
Q 844 3388 844 2259 
z
" transform="scale(0.015625)"/>
       </defs>
       <use xlink:href="#ArialMT-2212"/>
       <use xlink:href="#ArialMT-31" x="58.398438"/>
       <use xlink:href="#ArialMT-2e" x="114.013672"/>
       <use xlink:href="#ArialMT-30" x="141.796875"/>
      </g>
     </g>
    </g>
    <g id="xtick_3">
     <g id="line2d_3">
      <path d="M 234.146986 339.84 
L 234.146986 7.2 
" clip-path="url(#p5d3b2ac69c)" style="fill: none; stroke: #ffffff; stroke-linecap: round"/>
     </g>
     <g id="text_3">
      <!-- −0.5 -->
      <g style="fill: #262626" transform="translate(223.289642 357.213594) scale(0.11 -0.11)">
       <use xlink:href="#ArialMT-2212"/>
       <use xlink:href="#ArialMT-30" x="58.398438"/>
       <use xlink:href="#ArialMT-2e" x="114.013672"/>
       <use xlink:href="#ArialMT-35" x="141.796875"/>
      </g>
     </g>
    </g>
    <g id="xtick_4">
     <g id="line2d_4">
      <path d="M 312.208878 339.84 
L 312.208878 7.2 
" clip-path="url(#p5d3b2ac69c)" style="fill: none; stroke: #ffffff; stroke-linecap: round"/>
     </g>
     <g id="text_4">
      <!-- 0.0 -->
      <g style="fill: #262626" transform="translate(304.563878 357.213594) scale(0.11 -0.11)">
       <use xlink:href="#ArialMT-30"/>
       <use xlink:href="#ArialMT-2e" x="55.615234"/>
       <use xlink:href="#ArialMT-30" x="83.398438"/>
      </g>
     </g>
    </g>
    <g id="xtick_5">
     <g id="line2d_5">
      <path d="M 390.270769 339.84 
L 390.270769 7.2 
" clip-path="url(#p5d3b2ac69c)" style="fill: none; stroke: #ffffff; stroke-linecap: round"/>
     </g>
     <g id="text_5">
      <!-- 0.5 -->
      <g style="fill: #262626" transform="translate(382.625769 357.213594) scale(0.11 -0.11)">
       <use xlink:href="#ArialMT-30"/>
       <use xlink:href="#ArialMT-2e" x="55.615234"/>
       <use xlink:href="#ArialMT-35" x="83.398438"/>
      </g>
     </g>
    </g>
    <g id="xtick_6">
     <g id="line2d_6">
      <path d="M 468.332661 339.84 
L 468.332661 7.2 
" clip-path="url(#p5d3b2ac69c)" style="fill: none; stroke: #ffffff; stroke-linecap: round"/>
     </g>
     <g id="text_6">
      <!-- 1.0 -->
      <g style="fill: #262626" transform="translate(460.687661 357.213594) scale(0.11 -0.11)">
       <use xlink:href="#ArialMT-31"/>
       <use xlink:href="#ArialMT-2e" x="55.615234"/>
       <use xlink:href="#ArialMT-30" x="83.398438"/>
      </g>
     </g>
    </g>
    <g id="xtick_7">
     <g id="line2d_7">
      <path d="M 546.394553 339.84 
L 546.394553 7.2 
" clip-path="url(#p5d3b2ac69c)" style="fill: none; stroke: #ffffff; stroke-linecap: round"/>
     </g>
     <g id="text_7">
      <!-- 1.5 -->
      <g style="fill: #262626" transform="translate(538.749553 357.213594) scale(0.11 -0.11)">
       <use xlink:href="#ArialMT-31"/>
       <use xlink:href="#ArialMT-2e" x="55.615234"/>
       <use xlink:href="#ArialMT-35" x="83.398438"/>
      </g>
     </g>
    </g>
    <g id="text_8">
     <!-- Predictor (stdz) -->
     <g style="fill: #262626" transform="translate(282.837031 372.135469) scale(0.12 -0.12)">
      <defs>
       <path id="ArialMT-50" d="M 494 0 
L 494 4581 
L 2222 4581 
Q 2678 4581 2919 4538 
Q 3256 4481 3484 4323 
Q 3713 4166 3852 3881 
Q 3991 3597 3991 3256 
Q 3991 2672 3619 2267 
Q 3247 1863 2275 1863 
L 1100 1863 
L 1100 0 
L 494 0 
z
M 1100 2403 
L 2284 2403 
Q 2872 2403 3119 2622 
Q 3366 2841 3366 3238 
Q 3366 3525 3220 3729 
Q 3075 3934 2838 4000 
Q 2684 4041 2272 4041 
L 1100 4041 
L 1100 2403 
z
" transform="scale(0.015625)"/>
       <path id="ArialMT-72" d="M 416 0 
L 416 3319 
L 922 3319 
L 922 2816 
Q 1116 3169 1280 3281 
Q 1444 3394 1641 3394 
Q 1925 3394 2219 3213 
L 2025 2691 
Q 1819 2813 1613 2813 
Q 1428 2813 1281 2702 
Q 1134 2591 1072 2394 
Q 978 2094 978 1738 
L 978 0 
L 416 0 
z
" transform="scale(0.015625)"/>
       <path id="ArialMT-65" d="M 2694 1069 
L 3275 997 
Q 3138 488 2766 206 
Q 2394 -75 1816 -75 
Q 1088 -75 661 373 
Q 234 822 234 1631 
Q 234 2469 665 2931 
Q 1097 3394 1784 3394 
Q 2450 3394 2872 2941 
Q 3294 2488 3294 1666 
Q 3294 1616 3291 1516 
L 816 1516 
Q 847 969 1125 678 
Q 1403 388 1819 388 
Q 2128 388 2347 550 
Q 2566 713 2694 1069 
z
M 847 1978 
L 2700 1978 
Q 2663 2397 2488 2606 
Q 2219 2931 1791 2931 
Q 1403 2931 1139 2672 
Q 875 2413 847 1978 
z
" transform="scale(0.015625)"/>
       <path id="ArialMT-64" d="M 2575 0 
L 2575 419 
Q 2259 -75 1647 -75 
Q 1250 -75 917 144 
Q 584 363 401 755 
Q 219 1147 219 1656 
Q 219 2153 384 2558 
Q 550 2963 881 3178 
Q 1213 3394 1622 3394 
Q 1922 3394 2156 3267 
Q 2391 3141 2538 2938 
L 2538 4581 
L 3097 4581 
L 3097 0 
L 2575 0 
z
M 797 1656 
Q 797 1019 1065 703 
Q 1334 388 1700 388 
Q 2069 388 2326 689 
Q 2584 991 2584 1609 
Q 2584 2291 2321 2609 
Q 2059 2928 1675 2928 
Q 1300 2928 1048 2622 
Q 797 2316 797 1656 
z
" transform="scale(0.015625)"/>
       <path id="ArialMT-69" d="M 425 3934 
L 425 4581 
L 988 4581 
L 988 3934 
L 425 3934 
z
M 425 0 
L 425 3319 
L 988 3319 
L 988 0 
L 425 0 
z
" transform="scale(0.015625)"/>
       <path id="ArialMT-63" d="M 2588 1216 
L 3141 1144 
Q 3050 572 2676 248 
Q 2303 -75 1759 -75 
Q 1078 -75 664 370 
Q 250 816 250 1647 
Q 250 2184 428 2587 
Q 606 2991 970 3192 
Q 1334 3394 1763 3394 
Q 2303 3394 2647 3120 
Q 2991 2847 3088 2344 
L 2541 2259 
Q 2463 2594 2264 2762 
Q 2066 2931 1784 2931 
Q 1359 2931 1093 2626 
Q 828 2322 828 1663 
Q 828 994 1084 691 
Q 1341 388 1753 388 
Q 2084 388 2306 591 
Q 2528 794 2588 1216 
z
" transform="scale(0.015625)"/>
       <path id="ArialMT-74" d="M 1650 503 
L 1731 6 
Q 1494 -44 1306 -44 
Q 1000 -44 831 53 
Q 663 150 594 308 
Q 525 466 525 972 
L 525 2881 
L 113 2881 
L 113 3319 
L 525 3319 
L 525 4141 
L 1084 4478 
L 1084 3319 
L 1650 3319 
L 1650 2881 
L 1084 2881 
L 1084 941 
Q 1084 700 1114 631 
Q 1144 563 1211 522 
Q 1278 481 1403 481 
Q 1497 481 1650 503 
z
" transform="scale(0.015625)"/>
       <path id="ArialMT-6f" d="M 213 1659 
Q 213 2581 725 3025 
Q 1153 3394 1769 3394 
Q 2453 3394 2887 2945 
Q 3322 2497 3322 1706 
Q 3322 1066 3130 698 
Q 2938 331 2570 128 
Q 2203 -75 1769 -75 
Q 1072 -75 642 372 
Q 213 819 213 1659 
z
M 791 1659 
Q 791 1022 1069 705 
Q 1347 388 1769 388 
Q 2188 388 2466 706 
Q 2744 1025 2744 1678 
Q 2744 2294 2464 2611 
Q 2184 2928 1769 2928 
Q 1347 2928 1069 2612 
Q 791 2297 791 1659 
z
" transform="scale(0.015625)"/>
       <path id="ArialMT-20" transform="scale(0.015625)"/>
       <path id="ArialMT-28" d="M 1497 -1347 
Q 1031 -759 709 28 
Q 388 816 388 1659 
Q 388 2403 628 3084 
Q 909 3875 1497 4659 
L 1900 4659 
Q 1522 4009 1400 3731 
Q 1209 3300 1100 2831 
Q 966 2247 966 1656 
Q 966 153 1900 -1347 
L 1497 -1347 
z
" transform="scale(0.015625)"/>
       <path id="ArialMT-73" d="M 197 991 
L 753 1078 
Q 800 744 1014 566 
Q 1228 388 1613 388 
Q 2000 388 2187 545 
Q 2375 703 2375 916 
Q 2375 1106 2209 1216 
Q 2094 1291 1634 1406 
Q 1016 1563 777 1677 
Q 538 1791 414 1992 
Q 291 2194 291 2438 
Q 291 2659 392 2848 
Q 494 3038 669 3163 
Q 800 3259 1026 3326 
Q 1253 3394 1513 3394 
Q 1903 3394 2198 3281 
Q 2494 3169 2634 2976 
Q 2775 2784 2828 2463 
L 2278 2388 
Q 2241 2644 2061 2787 
Q 1881 2931 1553 2931 
Q 1166 2931 1000 2803 
Q 834 2675 834 2503 
Q 834 2394 903 2306 
Q 972 2216 1119 2156 
Q 1203 2125 1616 2013 
Q 2213 1853 2448 1751 
Q 2684 1650 2818 1456 
Q 2953 1263 2953 975 
Q 2953 694 2789 445 
Q 2625 197 2315 61 
Q 2006 -75 1616 -75 
Q 969 -75 630 194 
Q 291 463 197 991 
z
" transform="scale(0.015625)"/>
       <path id="ArialMT-7a" d="M 125 0 
L 125 456 
L 2238 2881 
Q 1878 2863 1603 2863 
L 250 2863 
L 250 3319 
L 2963 3319 
L 2963 2947 
L 1166 841 
L 819 456 
Q 1197 484 1528 484 
L 3063 484 
L 3063 0 
L 125 0 
z
" transform="scale(0.015625)"/>
       <path id="ArialMT-29" d="M 791 -1347 
L 388 -1347 
Q 1322 153 1322 1656 
Q 1322 2244 1188 2822 
Q 1081 3291 891 3722 
Q 769 4003 388 4659 
L 791 4659 
Q 1378 3875 1659 3084 
Q 1900 2403 1900 1659 
Q 1900 816 1576 28 
Q 1253 -759 791 -1347 
z
" transform="scale(0.015625)"/>
      </defs>
      <use xlink:href="#ArialMT-50"/>
      <use xlink:href="#ArialMT-72" x="66.699219"/>
      <use xlink:href="#ArialMT-65" x="100"/>
      <use xlink:href="#ArialMT-64" x="155.615234"/>
      <use xlink:href="#ArialMT-69" x="211.230469"/>
      <use xlink:href="#ArialMT-63" x="233.447266"/>
      <use xlink:href="#ArialMT-74" x="283.447266"/>
      <use xlink:href="#ArialMT-6f" x="311.230469"/>
      <use xlink:href="#ArialMT-72" x="366.845703"/>
      <use xlink:href="#ArialMT-20" x="400.146484"/>
      <use xlink:href="#ArialMT-28" x="427.929688"/>
      <use xlink:href="#ArialMT-73" x="461.230469"/>
      <use xlink:href="#ArialMT-74" x="511.230469"/>
      <use xlink:href="#ArialMT-64" x="539.013672"/>
      <use xlink:href="#ArialMT-7a" x="594.628906"/>
      <use xlink:href="#ArialMT-29" x="644.628906"/>
     </g>
    </g>
   </g>
   <g id="matplotlib.axis_2">
    <g id="ytick_1">
     <g id="line2d_8">
      <path d="M 44.510469 274.159488 
L 602.510469 274.159488 
" clip-path="url(#p5d3b2ac69c)" style="fill: none; stroke: #ffffff; stroke-linecap: round"/>
     </g>
     <g id="text_9">
      <!-- −2 -->
      <g style="fill: #262626" transform="translate(22.46875 278.096285) scale(0.11 -0.11)">
       <defs>
        <path id="ArialMT-32" d="M 3222 541 
L 3222 0 
L 194 0 
Q 188 203 259 391 
Q 375 700 629 1000 
Q 884 1300 1366 1694 
Q 2113 2306 2375 2664 
Q 2638 3022 2638 3341 
Q 2638 3675 2398 3904 
Q 2159 4134 1775 4134 
Q 1369 4134 1125 3890 
Q 881 3647 878 3216 
L 300 3275 
Q 359 3922 746 4261 
Q 1134 4600 1788 4600 
Q 2447 4600 2831 4234 
Q 3216 3869 3216 3328 
Q 3216 3053 3103 2787 
Q 2991 2522 2730 2228 
Q 2469 1934 1863 1422 
Q 1356 997 1212 845 
Q 1069 694 975 541 
L 3222 541 
z
" transform="scale(0.015625)"/>
       </defs>
       <use xlink:href="#ArialMT-2212"/>
       <use xlink:href="#ArialMT-32" x="58.398438"/>
      </g>
     </g>
    </g>
    <g id="ytick_2">
     <g id="line2d_9">
      <path d="M 44.510469 203.961319 
L 602.510469 203.961319 
" clip-path="url(#p5d3b2ac69c)" style="fill: none; stroke: #ffffff; stroke-linecap: round"/>
     </g>
     <g id="text_10">
      <!-- −1 -->
      <g style="fill: #262626" transform="translate(22.46875 207.898116) scale(0.11 -0.11)">
       <use xlink:href="#ArialMT-2212"/>
       <use xlink:href="#ArialMT-31" x="58.398438"/>
      </g>
     </g>
    </g>
    <g id="ytick_3">
     <g id="line2d_10">
      <path d="M 44.510469 133.76315 
L 602.510469 133.76315 
" clip-path="url(#p5d3b2ac69c)" style="fill: none; stroke: #ffffff; stroke-linecap: round"/>
     </g>
     <g id="text_11">
      <!-- 0 -->
      <g style="fill: #262626" transform="translate(28.893438 137.699947) scale(0.11 -0.11)">
       <use xlink:href="#ArialMT-30"/>
      </g>
     </g>
    </g>
    <g id="ytick_4">
     <g id="line2d_11">
      <path d="M 44.510469 63.56498 
L 602.510469 63.56498 
" clip-path="url(#p5d3b2ac69c)" style="fill: none; stroke: #ffffff; stroke-linecap: round"/>
     </g>
     <g id="text_12">
      <!-- 1 -->
      <g style="fill: #262626" transform="translate(28.893438 67.501777) scale(0.11 -0.11)">
       <use xlink:href="#ArialMT-31"/>
      </g>
     </g>
    </g>
    <g id="text_13">
     <!-- Outcome (stdz) -->
     <g style="fill: #262626" transform="translate(15.943125 214.527187) rotate(-90) scale(0.12 -0.12)">
      <defs>
       <path id="ArialMT-4f" d="M 309 2231 
Q 309 3372 921 4017 
Q 1534 4663 2503 4663 
Q 3138 4663 3647 4359 
Q 4156 4056 4423 3514 
Q 4691 2972 4691 2284 
Q 4691 1588 4409 1038 
Q 4128 488 3612 205 
Q 3097 -78 2500 -78 
Q 1853 -78 1343 234 
Q 834 547 571 1087 
Q 309 1628 309 2231 
z
M 934 2222 
Q 934 1394 1379 917 
Q 1825 441 2497 441 
Q 3181 441 3623 922 
Q 4066 1403 4066 2288 
Q 4066 2847 3877 3264 
Q 3688 3681 3323 3911 
Q 2959 4141 2506 4141 
Q 1863 4141 1398 3698 
Q 934 3256 934 2222 
z
" transform="scale(0.015625)"/>
       <path id="ArialMT-75" d="M 2597 0 
L 2597 488 
Q 2209 -75 1544 -75 
Q 1250 -75 995 37 
Q 741 150 617 320 
Q 494 491 444 738 
Q 409 903 409 1263 
L 409 3319 
L 972 3319 
L 972 1478 
Q 972 1038 1006 884 
Q 1059 663 1231 536 
Q 1403 409 1656 409 
Q 1909 409 2131 539 
Q 2353 669 2445 892 
Q 2538 1116 2538 1541 
L 2538 3319 
L 3100 3319 
L 3100 0 
L 2597 0 
z
" transform="scale(0.015625)"/>
       <path id="ArialMT-6d" d="M 422 0 
L 422 3319 
L 925 3319 
L 925 2853 
Q 1081 3097 1340 3245 
Q 1600 3394 1931 3394 
Q 2300 3394 2536 3241 
Q 2772 3088 2869 2813 
Q 3263 3394 3894 3394 
Q 4388 3394 4653 3120 
Q 4919 2847 4919 2278 
L 4919 0 
L 4359 0 
L 4359 2091 
Q 4359 2428 4304 2576 
Q 4250 2725 4106 2815 
Q 3963 2906 3769 2906 
Q 3419 2906 3187 2673 
Q 2956 2441 2956 1928 
L 2956 0 
L 2394 0 
L 2394 2156 
Q 2394 2531 2256 2718 
Q 2119 2906 1806 2906 
Q 1569 2906 1367 2781 
Q 1166 2656 1075 2415 
Q 984 2175 984 1722 
L 984 0 
L 422 0 
z
" transform="scale(0.015625)"/>
      </defs>
      <use xlink:href="#ArialMT-4f"/>
      <use xlink:href="#ArialMT-75" x="77.783203"/>
      <use xlink:href="#ArialMT-74" x="133.398438"/>
      <use xlink:href="#ArialMT-63" x="161.181641"/>
      <use xlink:href="#ArialMT-6f" x="211.181641"/>
      <use xlink:href="#ArialMT-6d" x="266.796875"/>
      <use xlink:href="#ArialMT-65" x="350.097656"/>
      <use xlink:href="#ArialMT-20" x="405.712891"/>
      <use xlink:href="#ArialMT-28" x="433.496094"/>
      <use xlink:href="#ArialMT-73" x="466.796875"/>
      <use xlink:href="#ArialMT-74" x="516.796875"/>
      <use xlink:href="#ArialMT-64" x="544.580078"/>
      <use xlink:href="#ArialMT-7a" x="600.195312"/>
      <use xlink:href="#ArialMT-29" x="650.195312"/>
     </g>
    </g>
   </g>
   <g id="PathCollection_1">
    <defs>
     <path id="m721c70c6f4" d="M 0 3 
C 0.795609 3 1.55874 2.683901 2.12132 2.12132 
C 2.683901 1.55874 3 0.795609 3 0 
C 3 -0.795609 2.683901 -1.55874 2.12132 -2.12132 
C 1.55874 -2.683901 0.795609 -3 0 -3 
C -0.795609 -3 -1.55874 -2.683901 -2.12132 -2.12132 
C -2.683901 -1.55874 -3 -0.795609 -3 0 
C -3 0.795609 -2.683901 1.55874 -2.12132 2.12132 
C -1.55874 2.683901 -0.795609 3 0 3 
z
" style="stroke: #0173b2"/>
    </defs>
    <g clip-path="url(#p5d3b2ac69c)">
     <use xlink:href="#m721c70c6f4" x="461.258332" y="156.871734" style="fill: #0173b2; stroke: #0173b2"/>
     <use xlink:href="#m721c70c6f4" x="173.57256" y="100.974489" style="fill: #0173b2; stroke: #0173b2"/>
     <use xlink:href="#m721c70c6f4" x="110.41709" y="203.739774" style="fill: #0173b2; stroke: #0173b2"/>
     <use xlink:href="#m721c70c6f4" x="369.66141" y="75.032382" style="fill: #0173b2; stroke: #0173b2"/>
     <use xlink:href="#m721c70c6f4" x="361.885481" y="86.035433" style="fill: #0173b2; stroke: #0173b2"/>
     <use xlink:href="#m721c70c6f4" x="328.682543" y="78.405434" style="fill: #0173b2; stroke: #0173b2"/>
     <use xlink:href="#m721c70c6f4" x="475.065908" y="176.250217" style="fill: #0173b2; stroke: #0173b2"/>
     <use xlink:href="#m721c70c6f4" x="237.829216" y="41.850989" style="fill: #0173b2; stroke: #0173b2"/>
     <use xlink:href="#m721c70c6f4" x="305.377304" y="88.700049" style="fill: #0173b2; stroke: #0173b2"/>
     <use xlink:href="#m721c70c6f4" x="84.791236" y="262.629238" style="fill: #0173b2; stroke: #0173b2"/>
     <use xlink:href="#m721c70c6f4" x="118.035652" y="189.031484" style="fill: #0173b2; stroke: #0173b2"/>
     <use xlink:href="#m721c70c6f4" x="69.874105" y="291.159061" style="fill: #0173b2; stroke: #0173b2"/>
     <use xlink:href="#m721c70c6f4" x="85.214529" y="257.54767" style="fill: #0173b2; stroke: #0173b2"/>
     <use xlink:href="#m721c70c6f4" x="296.048774" y="53.760956" style="fill: #0173b2; stroke: #0173b2"/>
     <use xlink:href="#m721c70c6f4" x="266.625466" y="41.411493" style="fill: #0173b2; stroke: #0173b2"/>
     <use xlink:href="#m721c70c6f4" x="306.110904" y="52.339711" style="fill: #0173b2; stroke: #0173b2"/>
     <use xlink:href="#m721c70c6f4" x="555.643102" y="213.94394" style="fill: #0173b2; stroke: #0173b2"/>
     <use xlink:href="#m721c70c6f4" x="444.633658" y="128.252095" style="fill: #0173b2; stroke: #0173b2"/>
     <use xlink:href="#m721c70c6f4" x="327.043014" y="42.190226" style="fill: #0173b2; stroke: #0173b2"/>
     <use xlink:href="#m721c70c6f4" x="485.192348" y="149.300224" style="fill: #0173b2; stroke: #0173b2"/>
     <use xlink:href="#m721c70c6f4" x="524.962545" y="182.096475" style="fill: #0173b2; stroke: #0173b2"/>
     <use xlink:href="#m721c70c6f4" x="519.572945" y="215.26296" style="fill: #0173b2; stroke: #0173b2"/>
     <use xlink:href="#m721c70c6f4" x="111.70276" y="160.319442" style="fill: #0173b2; stroke: #0173b2"/>
     <use xlink:href="#m721c70c6f4" x="266.264444" y="45.744974" style="fill: #0173b2; stroke: #0173b2"/>
     <use xlink:href="#m721c70c6f4" x="122.458821" y="176.499625" style="fill: #0173b2; stroke: #0173b2"/>
     <use xlink:href="#m721c70c6f4" x="519.987559" y="212.730234" style="fill: #0173b2; stroke: #0173b2"/>
     <use xlink:href="#m721c70c6f4" x="477.140466" y="141.973352" style="fill: #0173b2; stroke: #0173b2"/>
     <use xlink:href="#m721c70c6f4" x="267.421176" y="39.580169" style="fill: #0173b2; stroke: #0173b2"/>
     <use xlink:href="#m721c70c6f4" x="396.286689" y="81.726263" style="fill: #0173b2; stroke: #0173b2"/>
     <use xlink:href="#m721c70c6f4" x="554.196719" y="213.919157" style="fill: #0173b2; stroke: #0173b2"/>
     <use xlink:href="#m721c70c6f4" x="432.086205" y="110.879497" style="fill: #0173b2; stroke: #0173b2"/>
     <use xlink:href="#m721c70c6f4" x="163.238292" y="85.998366" style="fill: #0173b2; stroke: #0173b2"/>
     <use xlink:href="#m721c70c6f4" x="391.069865" y="102.887752" style="fill: #0173b2; stroke: #0173b2"/>
     <use xlink:href="#m721c70c6f4" x="505.797554" y="184.235776" style="fill: #0173b2; stroke: #0173b2"/>
     <use xlink:href="#m721c70c6f4" x="541.552769" y="195.810931" style="fill: #0173b2; stroke: #0173b2"/>
     <use xlink:href="#m721c70c6f4" x="99.081525" y="203.474802" style="fill: #0173b2; stroke: #0173b2"/>
     <use xlink:href="#m721c70c6f4" x="81.136318" y="245.29434" style="fill: #0173b2; stroke: #0173b2"/>
     <use xlink:href="#m721c70c6f4" x="552.829112" y="217.939542" style="fill: #0173b2; stroke: #0173b2"/>
     <use xlink:href="#m721c70c6f4" x="235.476557" y="52.367857" style="fill: #0173b2; stroke: #0173b2"/>
     <use xlink:href="#m721c70c6f4" x="146.337711" y="164.256139" style="fill: #0173b2; stroke: #0173b2"/>
     <use xlink:href="#m721c70c6f4" x="483.601213" y="180.254435" style="fill: #0173b2; stroke: #0173b2"/>
     <use xlink:href="#m721c70c6f4" x="355.020891" y="91.727409" style="fill: #0173b2; stroke: #0173b2"/>
     <use xlink:href="#m721c70c6f4" x="105.532241" y="197.966508" style="fill: #0173b2; stroke: #0173b2"/>
     <use xlink:href="#m721c70c6f4" x="390.347237" y="119.562978" style="fill: #0173b2; stroke: #0173b2"/>
     <use xlink:href="#m721c70c6f4" x="77.471807" y="295.99927" style="fill: #0173b2; stroke: #0173b2"/>
     <use xlink:href="#m721c70c6f4" x="233.891474" y="57.243544" style="fill: #0173b2; stroke: #0173b2"/>
     <use xlink:href="#m721c70c6f4" x="69.893147" y="300.318932" style="fill: #0173b2; stroke: #0173b2"/>
     <use xlink:href="#m721c70c6f4" x="566.135239" y="230.730329" style="fill: #0173b2; stroke: #0173b2"/>
     <use xlink:href="#m721c70c6f4" x="254.984927" y="61.125888" style="fill: #0173b2; stroke: #0173b2"/>
     <use xlink:href="#m721c70c6f4" x="160.528853" y="87.526138" style="fill: #0173b2; stroke: #0173b2"/>
     <use xlink:href="#m721c70c6f4" x="146.714368" y="109.638245" style="fill: #0173b2; stroke: #0173b2"/>
     <use xlink:href="#m721c70c6f4" x="367.733058" y="76.302923" style="fill: #0173b2; stroke: #0173b2"/>
     <use xlink:href="#m721c70c6f4" x="241.535647" y="34.637963" style="fill: #0173b2; stroke: #0173b2"/>
     <use xlink:href="#m721c70c6f4" x="82.386571" y="272.625125" style="fill: #0173b2; stroke: #0173b2"/>
     <use xlink:href="#m721c70c6f4" x="124.727595" y="172.950666" style="fill: #0173b2; stroke: #0173b2"/>
     <use xlink:href="#m721c70c6f4" x="338.247651" y="60.125098" style="fill: #0173b2; stroke: #0173b2"/>
     <use xlink:href="#m721c70c6f4" x="207.072132" y="46.087208" style="fill: #0173b2; stroke: #0173b2"/>
     <use xlink:href="#m721c70c6f4" x="353.873814" y="72.499366" style="fill: #0173b2; stroke: #0173b2"/>
     <use xlink:href="#m721c70c6f4" x="494.05608" y="162.63976" style="fill: #0173b2; stroke: #0173b2"/>
     <use xlink:href="#m721c70c6f4" x="377.786973" y="105.869395" style="fill: #0173b2; stroke: #0173b2"/>
     <use xlink:href="#m721c70c6f4" x="418.786669" y="135.879109" style="fill: #0173b2; stroke: #0173b2"/>
     <use xlink:href="#m721c70c6f4" x="511.050731" y="169.998678" style="fill: #0173b2; stroke: #0173b2"/>
     <use xlink:href="#m721c70c6f4" x="433.466272" y="116.182166" style="fill: #0173b2; stroke: #0173b2"/>
     <use xlink:href="#m721c70c6f4" x="156.983946" y="117.177895" style="fill: #0173b2; stroke: #0173b2"/>
     <use xlink:href="#m721c70c6f4" x="159.098129" y="80.606545" style="fill: #0173b2; stroke: #0173b2"/>
     <use xlink:href="#m721c70c6f4" x="577.146832" y="219.462988" style="fill: #0173b2; stroke: #0173b2"/>
     <use xlink:href="#m721c70c6f4" x="154.306993" y="111.541429" style="fill: #0173b2; stroke: #0173b2"/>
     <use xlink:href="#m721c70c6f4" x="310.779528" y="56.360565" style="fill: #0173b2; stroke: #0173b2"/>
     <use xlink:href="#m721c70c6f4" x="203.542955" y="64.03203" style="fill: #0173b2; stroke: #0173b2"/>
     <use xlink:href="#m721c70c6f4" x="204.022608" y="61.723191" style="fill: #0173b2; stroke: #0173b2"/>
     <use xlink:href="#m721c70c6f4" x="233.275758" y="71.135055" style="fill: #0173b2; stroke: #0173b2"/>
     <use xlink:href="#m721c70c6f4" x="113.50684" y="172.257375" style="fill: #0173b2; stroke: #0173b2"/>
     <use xlink:href="#m721c70c6f4" x="476.528789" y="145.069123" style="fill: #0173b2; stroke: #0173b2"/>
     <use xlink:href="#m721c70c6f4" x="103.517989" y="225.802702" style="fill: #0173b2; stroke: #0173b2"/>
     <use xlink:href="#m721c70c6f4" x="313.716522" y="69.723882" style="fill: #0173b2; stroke: #0173b2"/>
     <use xlink:href="#m721c70c6f4" x="455.942293" y="128.613344" style="fill: #0173b2; stroke: #0173b2"/>
     <use xlink:href="#m721c70c6f4" x="240.299163" y="60.575317" style="fill: #0173b2; stroke: #0173b2"/>
     <use xlink:href="#m721c70c6f4" x="475.468429" y="144.818228" style="fill: #0173b2; stroke: #0173b2"/>
     <use xlink:href="#m721c70c6f4" x="519.354671" y="172.045946" style="fill: #0173b2; stroke: #0173b2"/>
     <use xlink:href="#m721c70c6f4" x="355.397588" y="69.254411" style="fill: #0173b2; stroke: #0173b2"/>
     <use xlink:href="#m721c70c6f4" x="294.691732" y="53.829449" style="fill: #0173b2; stroke: #0173b2"/>
     <use xlink:href="#m721c70c6f4" x="196.446646" y="53.912326" style="fill: #0173b2; stroke: #0173b2"/>
     <use xlink:href="#m721c70c6f4" x="118.001151" y="179.434034" style="fill: #0173b2; stroke: #0173b2"/>
     <use xlink:href="#m721c70c6f4" x="481.812206" y="155.918451" style="fill: #0173b2; stroke: #0173b2"/>
     <use xlink:href="#m721c70c6f4" x="543.965778" y="225.62542" style="fill: #0173b2; stroke: #0173b2"/>
     <use xlink:href="#m721c70c6f4" x="301.314616" y="51.365417" style="fill: #0173b2; stroke: #0173b2"/>
     <use xlink:href="#m721c70c6f4" x="334.806355" y="56.624463" style="fill: #0173b2; stroke: #0173b2"/>
     <use xlink:href="#m721c70c6f4" x="122.734157" y="177.151485" style="fill: #0173b2; stroke: #0173b2"/>
     <use xlink:href="#m721c70c6f4" x="511.036829" y="168.174567" style="fill: #0173b2; stroke: #0173b2"/>
     <use xlink:href="#m721c70c6f4" x="190.337166" y="68.400432" style="fill: #0173b2; stroke: #0173b2"/>
     <use xlink:href="#m721c70c6f4" x="337.757046" y="76.136629" style="fill: #0173b2; stroke: #0173b2"/>
     <use xlink:href="#m721c70c6f4" x="490.587867" y="154.866429" style="fill: #0173b2; stroke: #0173b2"/>
     <use xlink:href="#m721c70c6f4" x="77.734917" y="251.87524" style="fill: #0173b2; stroke: #0173b2"/>
     <use xlink:href="#m721c70c6f4" x="248.226153" y="61.928492" style="fill: #0173b2; stroke: #0173b2"/>
     <use xlink:href="#m721c70c6f4" x="464.828801" y="135.270279" style="fill: #0173b2; stroke: #0173b2"/>
     <use xlink:href="#m721c70c6f4" x="327.760031" y="43.498885" style="fill: #0173b2; stroke: #0173b2"/>
     <use xlink:href="#m721c70c6f4" x="564.024076" y="223.751706" style="fill: #0173b2; stroke: #0173b2"/>
     <use xlink:href="#m721c70c6f4" x="140.960906" y="137.522865" style="fill: #0173b2; stroke: #0173b2"/>
     <use xlink:href="#m721c70c6f4" x="502.051449" y="170.858226" style="fill: #0173b2; stroke: #0173b2"/>
     <use xlink:href="#m721c70c6f4" x="352.5136" y="79.65476" style="fill: #0173b2; stroke: #0173b2"/>
    </g>
   </g>
   <g id="PolyCollection_1">
    <defs>
     <path id="m1811daeac4" d="M 71.14866 -113.423424 
L 71.14866 -57.141094 
L 72.423214 -64.67265 
L 74.972323 -72.083007 
L 77.521433 -79.372164 
L 80.070542 -86.540122 
L 82.619651 -93.58688 
L 85.16876 -100.512438 
L 87.717869 -107.316796 
L 90.266979 -113.999955 
L 92.816088 -120.561913 
L 95.365197 -127.002673 
L 97.914306 -133.322232 
L 100.463415 -139.520592 
L 103.012524 -145.597752 
L 105.561634 -151.553712 
L 108.110743 -157.388473 
L 110.659852 -163.102034 
L 113.208961 -168.694395 
L 115.75807 -174.165556 
L 118.30718 -179.515518 
L 120.856289 -184.74428 
L 123.405398 -189.851843 
L 125.954507 -194.838205 
L 128.503616 -199.703368 
L 131.052725 -204.447331 
L 133.601835 -209.070095 
L 136.150944 -213.571659 
L 138.700053 -217.952023 
L 141.249162 -222.250978 
L 143.798271 -226.312396 
L 146.347381 -230.22378 
L 148.89649 -233.992752 
L 151.445599 -237.658859 
L 153.994708 -241.179697 
L 156.543817 -244.62794 
L 159.092926 -247.950567 
L 161.642036 -251.144635 
L 164.191145 -254.214954 
L 166.740254 -257.220441 
L 169.289363 -260.13287 
L 171.838472 -262.915795 
L 174.387582 -265.585361 
L 176.936691 -268.121315 
L 179.4858 -270.567883 
L 182.034909 -272.975486 
L 184.584018 -275.310988 
L 187.133127 -277.595035 
L 189.682237 -279.788953 
L 192.231346 -281.850769 
L 194.780455 -283.785654 
L 197.329564 -285.607811 
L 199.878673 -287.323554 
L 202.427783 -288.943343 
L 204.976892 -290.46781 
L 207.526001 -291.898459 
L 210.07511 -293.237664 
L 212.624219 -294.493308 
L 215.173329 -295.706683 
L 217.722438 -296.889276 
L 220.271547 -297.967389 
L 222.820656 -298.952114 
L 225.369765 -299.845332 
L 227.918874 -300.653682 
L 230.467984 -301.364638 
L 233.017093 -302.061509 
L 235.566202 -302.65938 
L 238.115311 -303.151819 
L 240.66442 -303.621554 
L 243.21353 -304.046624 
L 245.762639 -304.410167 
L 248.311748 -304.718169 
L 250.860857 -304.97201 
L 253.409966 -305.17369 
L 255.959075 -305.325822 
L 258.508185 -305.414729 
L 261.057294 -305.50147 
L 263.606403 -305.523123 
L 266.155512 -305.488259 
L 268.704621 -305.41853 
L 271.253731 -305.295 
L 273.80284 -305.073847 
L 276.351949 -304.818872 
L 278.901058 -304.481458 
L 281.450167 -304.080103 
L 283.999276 -303.634987 
L 286.548386 -303.155675 
L 289.097495 -302.661552 
L 291.646604 -302.149222 
L 294.195713 -301.599647 
L 296.744822 -300.993505 
L 299.293932 -300.339109 
L 301.843041 -299.654508 
L 304.39215 -298.957475 
L 306.941259 -298.189054 
L 309.490368 -297.373467 
L 312.039477 -296.548624 
L 314.588587 -295.703398 
L 317.137696 -294.850732 
L 319.686805 -293.994566 
L 322.235914 -293.140039 
L 324.785023 -292.207874 
L 327.334133 -291.207942 
L 329.883242 -290.177264 
L 332.432351 -289.11908 
L 334.98146 -288.035722 
L 337.530569 -286.929843 
L 340.079678 -285.796603 
L 342.628788 -284.627251 
L 345.177897 -283.422163 
L 347.727006 -282.181924 
L 350.276115 -280.906978 
L 352.825224 -279.595922 
L 355.374334 -278.250508 
L 357.923443 -276.872674 
L 360.472552 -275.46455 
L 363.021661 -274.028453 
L 365.57077 -272.591532 
L 368.119879 -271.14526 
L 370.668989 -269.671451 
L 373.218098 -268.173638 
L 375.767207 -266.658264 
L 378.316316 -265.174876 
L 380.865425 -263.649836 
L 383.414535 -262.105092 
L 385.963644 -260.558361 
L 388.512753 -258.998871 
L 391.061862 -257.429539 
L 393.610971 -255.863126 
L 396.16008 -254.310798 
L 398.70919 -252.7681 
L 401.258299 -251.173954 
L 403.807408 -249.587657 
L 406.356517 -248.001511 
L 408.905626 -246.384312 
L 411.454736 -244.739802 
L 414.003845 -243.116176 
L 416.552954 -241.490241 
L 419.102063 -239.866477 
L 421.651172 -238.248747 
L 424.200281 -236.627661 
L 426.749391 -234.988807 
L 429.2985 -233.306034 
L 431.847609 -231.57776 
L 434.396718 -229.826919 
L 436.945827 -228.085247 
L 439.494937 -226.321919 
L 442.044046 -224.534614 
L 444.593155 -222.777803 
L 447.142264 -221.010498 
L 449.691373 -219.233488 
L 452.240482 -217.434961 
L 454.789592 -215.653702 
L 457.338701 -213.881255 
L 459.88781 -212.109704 
L 462.436919 -210.27875 
L 464.986028 -208.458012 
L 467.535138 -206.650517 
L 470.084247 -204.835475 
L 472.633356 -203.010568 
L 475.182465 -201.100144 
L 477.731574 -199.195779 
L 480.280683 -197.295253 
L 482.829793 -195.396494 
L 485.378902 -193.487106 
L 487.928011 -191.562181 
L 490.47712 -189.638188 
L 493.026229 -187.716659 
L 495.575339 -185.788184 
L 498.124448 -183.82629 
L 500.673557 -181.8846 
L 503.222666 -179.960369 
L 505.771775 -178.021525 
L 508.320884 -176.091564 
L 510.869994 -174.12275 
L 513.419103 -172.147699 
L 515.968212 -170.166412 
L 518.517321 -168.178888 
L 521.06643 -166.185128 
L 523.61554 -164.185132 
L 526.164649 -162.178899 
L 528.713758 -160.16643 
L 531.262867 -158.147724 
L 533.811976 -156.122781 
L 536.361085 -154.091603 
L 538.910195 -152.054188 
L 541.459304 -150.010536 
L 544.008413 -147.960648 
L 546.557522 -145.904523 
L 549.106631 -143.842162 
L 551.655741 -141.773565 
L 554.20485 -139.698731 
L 556.753959 -137.617661 
L 559.303068 -135.530354 
L 561.852177 -133.436811 
L 564.401286 -131.337031 
L 566.950396 -129.231015 
L 569.499505 -127.118763 
L 572.048614 -125.000274 
L 574.597723 -122.875548 
L 577.146832 -120.744586 
L 577.146832 -179.035055 
L 577.146832 -179.035055 
L 574.597723 -180.945771 
L 572.048614 -182.856107 
L 569.499505 -184.766064 
L 566.950396 -186.675642 
L 564.401286 -188.58484 
L 561.852177 -190.49366 
L 559.303068 -192.4021 
L 556.753959 -194.31016 
L 554.20485 -196.217842 
L 551.655741 -198.125144 
L 549.106631 -200.032067 
L 546.557522 -201.93861 
L 544.008413 -203.844775 
L 541.459304 -205.75056 
L 538.910195 -207.655965 
L 536.361085 -209.560992 
L 533.811976 -211.465639 
L 531.262867 -213.369907 
L 528.713758 -215.273796 
L 526.164649 -217.177305 
L 523.61554 -219.080435 
L 521.06643 -220.983186 
L 518.517321 -222.885557 
L 515.968212 -224.78755 
L 513.419103 -226.689163 
L 510.869994 -228.590396 
L 508.320884 -230.491251 
L 505.771775 -232.444329 
L 503.222666 -234.412968 
L 500.673557 -236.356415 
L 498.124448 -238.320246 
L 495.575339 -240.305343 
L 493.026229 -242.23049 
L 490.47712 -244.146555 
L 487.928011 -246.069006 
L 485.378902 -247.993274 
L 482.829793 -249.85938 
L 480.280683 -251.766074 
L 477.731574 -253.656999 
L 475.182465 -255.530959 
L 472.633356 -257.386734 
L 470.084247 -259.196621 
L 467.535138 -260.995721 
L 464.986028 -262.786591 
L 462.436919 -264.5989 
L 459.88781 -266.427519 
L 457.338701 -268.208109 
L 454.789592 -269.984668 
L 452.240482 -271.765957 
L 449.691373 -273.561392 
L 447.142264 -275.3444 
L 444.593155 -277.106991 
L 442.044046 -278.847024 
L 439.494937 -280.606611 
L 436.945827 -282.339287 
L 434.396718 -284.041439 
L 431.847609 -285.754342 
L 429.2985 -287.467621 
L 426.749391 -289.171685 
L 424.200281 -290.861679 
L 421.651172 -292.500987 
L 419.102063 -294.130315 
L 416.552954 -295.757842 
L 414.003845 -297.38056 
L 411.454736 -298.992396 
L 408.905626 -300.612561 
L 406.356517 -302.192333 
L 403.807408 -303.826587 
L 401.258299 -305.453506 
L 398.70919 -307.068467 
L 396.16008 -308.653085 
L 393.610971 -310.23201 
L 391.061862 -311.805736 
L 388.512753 -313.370462 
L 385.963644 -314.92187 
L 383.414535 -316.458652 
L 380.865425 -317.994966 
L 378.316316 -319.522711 
L 375.767207 -321.027014 
L 373.218098 -322.509358 
L 370.668989 -323.948098 
L 368.119879 -325.384958 
L 365.57077 -326.823557 
L 363.021661 -328.265939 
L 360.472552 -329.717503 
L 357.923443 -331.138001 
L 355.374334 -332.524772 
L 352.825224 -333.875357 
L 350.276115 -335.187499 
L 347.727006 -336.459145 
L 345.177897 -337.694844 
L 342.628788 -338.894956 
L 340.079678 -340.059333 
L 337.530569 -341.188076 
L 334.98146 -342.235788 
L 332.432351 -343.275313 
L 329.883242 -344.303754 
L 327.334133 -345.31859 
L 324.785023 -346.315864 
L 322.235914 -347.240122 
L 319.686805 -348.076257 
L 317.137696 -348.894603 
L 314.588587 -349.705797 
L 312.039477 -350.506432 
L 309.490368 -351.300882 
L 306.941259 -352.059015 
L 304.39215 -352.810959 
L 301.843041 -353.487276 
L 299.293932 -354.160968 
L 296.744822 -354.810092 
L 294.195713 -355.424239 
L 291.646604 -355.998594 
L 289.097495 -356.529838 
L 286.548386 -357.015003 
L 283.999276 -357.454201 
L 281.450167 -357.889416 
L 278.901058 -358.287531 
L 276.351949 -358.6306 
L 273.80284 -358.888789 
L 271.253731 -359.136878 
L 268.704621 -359.30612 
L 266.155512 -359.448456 
L 263.606403 -359.512604 
L 261.057294 -359.541094 
L 258.508185 -359.527231 
L 255.959075 -359.477833 
L 253.409966 -359.366819 
L 250.860857 -359.199313 
L 248.311748 -358.974268 
L 245.762639 -358.691198 
L 243.21353 -358.350169 
L 240.66442 -357.955481 
L 238.115311 -357.516752 
L 235.566202 -357.041985 
L 233.017093 -356.525752 
L 230.467984 -355.981051 
L 227.918874 -355.385116 
L 225.369765 -354.661005 
L 222.820656 -353.86215 
L 220.271547 -352.954483 
L 217.722438 -351.936471 
L 215.173329 -350.817152 
L 212.624219 -349.626864 
L 210.07511 -348.35772 
L 207.526001 -346.992886 
L 204.976892 -345.527091 
L 202.427783 -343.957433 
L 199.878673 -342.281852 
L 197.329564 -340.499127 
L 194.780455 -338.663754 
L 192.231346 -336.739671 
L 189.682237 -334.687599 
L 187.133127 -332.506444 
L 184.584018 -330.222377 
L 182.034909 -327.878608 
L 179.4858 -325.461171 
L 176.936691 -322.98734 
L 174.387582 -320.408786 
L 171.838472 -317.700161 
L 169.289363 -314.882602 
L 166.740254 -311.972035 
L 164.191145 -308.931235 
L 161.642036 -305.833239 
L 159.092926 -302.609339 
L 156.543817 -299.255667 
L 153.994708 -295.777546 
L 151.445599 -292.244526 
L 148.89649 -288.540264 
L 146.347381 -284.72376 
L 143.798271 -280.774803 
L 141.249162 -276.686585 
L 138.700053 -272.371587 
L 136.150944 -268.008388 
L 133.601835 -263.527976 
L 131.052725 -258.930351 
L 128.503616 -254.215513 
L 125.954507 -249.383461 
L 123.405398 -244.434197 
L 120.856289 -239.367719 
L 118.30718 -234.184029 
L 115.75807 -228.883125 
L 113.208961 -223.465008 
L 110.659852 -217.929679 
L 108.110743 -212.277136 
L 105.561634 -206.50738 
L 103.012524 -200.620411 
L 100.463415 -194.616229 
L 97.914306 -188.494834 
L 95.365197 -182.256225 
L 92.816088 -175.900404 
L 90.266979 -169.42737 
L 87.717869 -162.837122 
L 85.16876 -156.129662 
L 82.619651 -149.304988 
L 80.070542 -142.363101 
L 77.521433 -135.304001 
L 74.972323 -128.127689 
L 72.423214 -120.834163 
L 71.14866 -113.423424 
z
" style="stroke: #de8f05; stroke-opacity: 0.5"/>
    </defs>
    <g clip-path="url(#p5d3b2ac69c)">
     <use xlink:href="#m1811daeac4" x="0" y="381.861094" style="fill: #de8f05; fill-opacity: 0.5; stroke: #de8f05; stroke-opacity: 0.5"/>
    </g>
   </g>
   <g id="line2d_12">
    <defs>
     <path id="mdd74f64b9d" d="M 0 1.5 
C 0.397805 1.5 0.77937 1.341951 1.06066 1.06066 
C 1.341951 0.77937 1.5 0.397805 1.5 0 
C 1.5 -0.397805 1.341951 -0.77937 1.06066 -1.06066 
C 0.77937 -1.341951 0.397805 -1.5 0 -1.5 
C -0.397805 -1.5 -0.77937 -1.341951 -1.06066 -1.06066 
C -1.341951 -0.77937 -1.5 -0.397805 -1.5 0 
C -1.5 0.397805 -1.341951 0.77937 -1.06066 1.06066 
C -0.77937 1.341951 -0.397805 1.5 0 1.5 
z
" style="stroke: #de8f05; stroke-opacity: 0.6"/>
    </defs>
    <g clip-path="url(#p5d3b2ac69c)">
     <use xlink:href="#mdd74f64b9d" x="461.258332" y="143.888357" style="fill: #de8f05; fill-opacity: 0.6; stroke: #de8f05; stroke-opacity: 0.6"/>
     <use xlink:href="#mdd74f64b9d" x="173.57256" y="89.817263" style="fill: #de8f05; fill-opacity: 0.6; stroke: #de8f05; stroke-opacity: 0.6"/>
     <use xlink:href="#mdd74f64b9d" x="110.41709" y="190.377242" style="fill: #de8f05; fill-opacity: 0.6; stroke: #de8f05; stroke-opacity: 0.6"/>
     <use xlink:href="#mdd74f64b9d" x="369.66141" y="84.321872" style="fill: #de8f05; fill-opacity: 0.6; stroke: #de8f05; stroke-opacity: 0.6"/>
     <use xlink:href="#mdd74f64b9d" x="361.885481" y="80.042381" style="fill: #de8f05; fill-opacity: 0.6; stroke: #de8f05; stroke-opacity: 0.6"/>
     <use xlink:href="#mdd74f64b9d" x="328.682543" y="64.065904" style="fill: #de8f05; fill-opacity: 0.6; stroke: #de8f05; stroke-opacity: 0.6"/>
     <use xlink:href="#mdd74f64b9d" x="475.065908" y="153.800241" style="fill: #de8f05; fill-opacity: 0.6; stroke: #de8f05; stroke-opacity: 0.6"/>
     <use xlink:href="#mdd74f64b9d" x="237.829216" y="51.37448" style="fill: #de8f05; fill-opacity: 0.6; stroke: #de8f05; stroke-opacity: 0.6"/>
     <use xlink:href="#mdd74f64b9d" x="305.377304" y="55.683687" style="fill: #de8f05; fill-opacity: 0.6; stroke: #de8f05; stroke-opacity: 0.6"/>
     <use xlink:href="#mdd74f64b9d" x="84.791236" y="254.898208" style="fill: #de8f05; fill-opacity: 0.6; stroke: #de8f05; stroke-opacity: 0.6"/>
     <use xlink:href="#mdd74f64b9d" x="118.035652" y="174.098805" style="fill: #de8f05; fill-opacity: 0.6; stroke: #de8f05; stroke-opacity: 0.6"/>
     <use xlink:href="#mdd74f64b9d" x="69.874105" y="299.974872" style="fill: #de8f05; fill-opacity: 0.6; stroke: #de8f05; stroke-opacity: 0.6"/>
     <use xlink:href="#mdd74f64b9d" x="85.214529" y="253.703175" style="fill: #de8f05; fill-opacity: 0.6; stroke: #de8f05; stroke-opacity: 0.6"/>
     <use xlink:href="#mdd74f64b9d" x="296.048774" y="53.146517" style="fill: #de8f05; fill-opacity: 0.6; stroke: #de8f05; stroke-opacity: 0.6"/>
     <use xlink:href="#mdd74f64b9d" x="266.625466" y="48.873296" style="fill: #de8f05; fill-opacity: 0.6; stroke: #de8f05; stroke-opacity: 0.6"/>
     <use xlink:href="#mdd74f64b9d" x="306.110904" y="55.904527" style="fill: #de8f05; fill-opacity: 0.6; stroke: #de8f05; stroke-opacity: 0.6"/>
     <use xlink:href="#mdd74f64b9d" x="555.643102" y="215.548851" style="fill: #de8f05; fill-opacity: 0.6; stroke: #de8f05; stroke-opacity: 0.6"/>
     <use xlink:href="#mdd74f64b9d" x="444.633658" y="132.197229" style="fill: #de8f05; fill-opacity: 0.6; stroke: #de8f05; stroke-opacity: 0.6"/>
     <use xlink:href="#mdd74f64b9d" x="327.043014" y="63.390244" style="fill: #de8f05; fill-opacity: 0.6; stroke: #de8f05; stroke-opacity: 0.6"/>
     <use xlink:href="#mdd74f64b9d" x="485.192348" y="161.179871" style="fill: #de8f05; fill-opacity: 0.6; stroke: #de8f05; stroke-opacity: 0.6"/>
     <use xlink:href="#mdd74f64b9d" x="524.962545" y="191.119433" style="fill: #de8f05; fill-opacity: 0.6; stroke: #de8f05; stroke-opacity: 0.6"/>
     <use xlink:href="#mdd74f64b9d" x="519.572945" y="186.962858" style="fill: #de8f05; fill-opacity: 0.6; stroke: #de8f05; stroke-opacity: 0.6"/>
     <use xlink:href="#mdd74f64b9d" x="111.70276" y="187.541111" style="fill: #de8f05; fill-opacity: 0.6; stroke: #de8f05; stroke-opacity: 0.6"/>
     <use xlink:href="#mdd74f64b9d" x="266.264444" y="48.860333" style="fill: #de8f05; fill-opacity: 0.6; stroke: #de8f05; stroke-opacity: 0.6"/>
     <use xlink:href="#mdd74f64b9d" x="122.458821" y="165.219633" style="fill: #de8f05; fill-opacity: 0.6; stroke: #de8f05; stroke-opacity: 0.6"/>
     <use xlink:href="#mdd74f64b9d" x="519.987559" y="187.281385" style="fill: #de8f05; fill-opacity: 0.6; stroke: #de8f05; stroke-opacity: 0.6"/>
     <use xlink:href="#mdd74f64b9d" x="477.140466" y="155.304524" style="fill: #de8f05; fill-opacity: 0.6; stroke: #de8f05; stroke-opacity: 0.6"/>
     <use xlink:href="#mdd74f64b9d" x="267.421176" y="48.905528" style="fill: #de8f05; fill-opacity: 0.6; stroke: #de8f05; stroke-opacity: 0.6"/>
     <use xlink:href="#mdd74f64b9d" x="396.286689" y="100.149912" style="fill: #de8f05; fill-opacity: 0.6; stroke: #de8f05; stroke-opacity: 0.6"/>
     <use xlink:href="#mdd74f64b9d" x="554.196719" y="214.363207" style="fill: #de8f05; fill-opacity: 0.6; stroke: #de8f05; stroke-opacity: 0.6"/>
     <use xlink:href="#mdd74f64b9d" x="432.086205" y="123.569992" style="fill: #de8f05; fill-opacity: 0.6; stroke: #de8f05; stroke-opacity: 0.6"/>
     <use xlink:href="#mdd74f64b9d" x="163.238292" y="101.357437" style="fill: #de8f05; fill-opacity: 0.6; stroke: #de8f05; stroke-opacity: 0.6"/>
     <use xlink:href="#mdd74f64b9d" x="391.069865" y="96.92228" style="fill: #de8f05; fill-opacity: 0.6; stroke: #de8f05; stroke-opacity: 0.6"/>
     <use xlink:href="#mdd74f64b9d" x="505.797554" y="176.489012" style="fill: #de8f05; fill-opacity: 0.6; stroke: #de8f05; stroke-opacity: 0.6"/>
     <use xlink:href="#mdd74f64b9d" x="541.552769" y="204.151847" style="fill: #de8f05; fill-opacity: 0.6; stroke: #de8f05; stroke-opacity: 0.6"/>
     <use xlink:href="#mdd74f64b9d" x="99.081525" y="217.000454" style="fill: #de8f05; fill-opacity: 0.6; stroke: #de8f05; stroke-opacity: 0.6"/>
     <use xlink:href="#mdd74f64b9d" x="81.136318" y="265.406179" style="fill: #de8f05; fill-opacity: 0.6; stroke: #de8f05; stroke-opacity: 0.6"/>
     <use xlink:href="#mdd74f64b9d" x="552.829112" y="213.245616" style="fill: #de8f05; fill-opacity: 0.6; stroke: #de8f05; stroke-opacity: 0.6"/>
     <use xlink:href="#mdd74f64b9d" x="235.476557" y="51.92207" style="fill: #de8f05; fill-opacity: 0.6; stroke: #de8f05; stroke-opacity: 0.6"/>
     <use xlink:href="#mdd74f64b9d" x="146.337711" y="124.088" style="fill: #de8f05; fill-opacity: 0.6; stroke: #de8f05; stroke-opacity: 0.6"/>
     <use xlink:href="#mdd74f64b9d" x="483.601213" y="160.014189" style="fill: #de8f05; fill-opacity: 0.6; stroke: #de8f05; stroke-opacity: 0.6"/>
     <use xlink:href="#mdd74f64b9d" x="355.020891" y="76.41679" style="fill: #de8f05; fill-opacity: 0.6; stroke: #de8f05; stroke-opacity: 0.6"/>
     <use xlink:href="#mdd74f64b9d" x="105.532241" y="201.48998" style="fill: #de8f05; fill-opacity: 0.6; stroke: #de8f05; stroke-opacity: 0.6"/>
     <use xlink:href="#mdd74f64b9d" x="390.347237" y="96.479622" style="fill: #de8f05; fill-opacity: 0.6; stroke: #de8f05; stroke-opacity: 0.6"/>
     <use xlink:href="#mdd74f64b9d" x="77.471807" y="276.287033" style="fill: #de8f05; fill-opacity: 0.6; stroke: #de8f05; stroke-opacity: 0.6"/>
     <use xlink:href="#mdd74f64b9d" x="233.891474" y="52.322757" style="fill: #de8f05; fill-opacity: 0.6; stroke: #de8f05; stroke-opacity: 0.6"/>
     <use xlink:href="#mdd74f64b9d" x="69.893147" y="299.913567" style="fill: #de8f05; fill-opacity: 0.6; stroke: #de8f05; stroke-opacity: 0.6"/>
     <use xlink:href="#mdd74f64b9d" x="566.135239" y="224.269589" style="fill: #de8f05; fill-opacity: 0.6; stroke: #de8f05; stroke-opacity: 0.6"/>
     <use xlink:href="#mdd74f64b9d" x="254.984927" y="48.995954" style="fill: #de8f05; fill-opacity: 0.6; stroke: #de8f05; stroke-opacity: 0.6"/>
     <use xlink:href="#mdd74f64b9d" x="160.528853" y="104.670895" style="fill: #de8f05; fill-opacity: 0.6; stroke: #de8f05; stroke-opacity: 0.6"/>
     <use xlink:href="#mdd74f64b9d" x="146.714368" y="123.526434" style="fill: #de8f05; fill-opacity: 0.6; stroke: #de8f05; stroke-opacity: 0.6"/>
     <use xlink:href="#mdd74f64b9d" x="367.733058" y="83.244373" style="fill: #de8f05; fill-opacity: 0.6; stroke: #de8f05; stroke-opacity: 0.6"/>
     <use xlink:href="#mdd74f64b9d" x="241.535647" y="50.623872" style="fill: #de8f05; fill-opacity: 0.6; stroke: #de8f05; stroke-opacity: 0.6"/>
     <use xlink:href="#mdd74f64b9d" x="82.386571" y="261.773279" style="fill: #de8f05; fill-opacity: 0.6; stroke: #de8f05; stroke-opacity: 0.6"/>
     <use xlink:href="#mdd74f64b9d" x="124.727595" y="160.824118" style="fill: #de8f05; fill-opacity: 0.6; stroke: #de8f05; stroke-opacity: 0.6"/>
     <use xlink:href="#mdd74f64b9d" x="338.247651" y="68.238741" style="fill: #de8f05; fill-opacity: 0.6; stroke: #de8f05; stroke-opacity: 0.6"/>
     <use xlink:href="#mdd74f64b9d" x="207.072132" y="63.284944" style="fill: #de8f05; fill-opacity: 0.6; stroke: #de8f05; stroke-opacity: 0.6"/>
     <use xlink:href="#mdd74f64b9d" x="353.873814" y="75.825783" style="fill: #de8f05; fill-opacity: 0.6; stroke: #de8f05; stroke-opacity: 0.6"/>
     <use xlink:href="#mdd74f64b9d" x="494.05608" y="167.716022" style="fill: #de8f05; fill-opacity: 0.6; stroke: #de8f05; stroke-opacity: 0.6"/>
     <use xlink:href="#mdd74f64b9d" x="377.786973" y="88.972304" style="fill: #de8f05; fill-opacity: 0.6; stroke: #de8f05; stroke-opacity: 0.6"/>
     <use xlink:href="#mdd74f64b9d" x="418.786669" y="114.640373" style="fill: #de8f05; fill-opacity: 0.6; stroke: #de8f05; stroke-opacity: 0.6"/>
     <use xlink:href="#mdd74f64b9d" x="511.050731" y="180.458925" style="fill: #de8f05; fill-opacity: 0.6; stroke: #de8f05; stroke-opacity: 0.6"/>
     <use xlink:href="#mdd74f64b9d" x="433.466272" y="124.509804" style="fill: #de8f05; fill-opacity: 0.6; stroke: #de8f05; stroke-opacity: 0.6"/>
     <use xlink:href="#mdd74f64b9d" x="156.983946" y="109.192735" style="fill: #de8f05; fill-opacity: 0.6; stroke: #de8f05; stroke-opacity: 0.6"/>
     <use xlink:href="#mdd74f64b9d" x="159.098129" y="106.470233" style="fill: #de8f05; fill-opacity: 0.6; stroke: #de8f05; stroke-opacity: 0.6"/>
     <use xlink:href="#mdd74f64b9d" x="577.146832" y="233.673151" style="fill: #de8f05; fill-opacity: 0.6; stroke: #de8f05; stroke-opacity: 0.6"/>
     <use xlink:href="#mdd74f64b9d" x="154.306993" y="112.750142" style="fill: #de8f05; fill-opacity: 0.6; stroke: #de8f05; stroke-opacity: 0.6"/>
     <use xlink:href="#mdd74f64b9d" x="310.779528" y="57.379395" style="fill: #de8f05; fill-opacity: 0.6; stroke: #de8f05; stroke-opacity: 0.6"/>
     <use xlink:href="#mdd74f64b9d" x="203.542955" y="65.361905" style="fill: #de8f05; fill-opacity: 0.6; stroke: #de8f05; stroke-opacity: 0.6"/>
     <use xlink:href="#mdd74f64b9d" x="204.022608" y="65.070349" style="fill: #de8f05; fill-opacity: 0.6; stroke: #de8f05; stroke-opacity: 0.6"/>
     <use xlink:href="#mdd74f64b9d" x="233.275758" y="52.485374" style="fill: #de8f05; fill-opacity: 0.6; stroke: #de8f05; stroke-opacity: 0.6"/>
     <use xlink:href="#mdd74f64b9d" x="113.50684" y="183.622847" style="fill: #de8f05; fill-opacity: 0.6; stroke: #de8f05; stroke-opacity: 0.6"/>
     <use xlink:href="#mdd74f64b9d" x="476.528789" y="154.860586" style="fill: #de8f05; fill-opacity: 0.6; stroke: #de8f05; stroke-opacity: 0.6"/>
     <use xlink:href="#mdd74f64b9d" x="103.517989" y="206.229853" style="fill: #de8f05; fill-opacity: 0.6; stroke: #de8f05; stroke-opacity: 0.6"/>
     <use xlink:href="#mdd74f64b9d" x="313.716522" y="58.367069" style="fill: #de8f05; fill-opacity: 0.6; stroke: #de8f05; stroke-opacity: 0.6"/>
     <use xlink:href="#mdd74f64b9d" x="455.942293" y="140.11987" style="fill: #de8f05; fill-opacity: 0.6; stroke: #de8f05; stroke-opacity: 0.6"/>
     <use xlink:href="#mdd74f64b9d" x="240.299163" y="50.859222" style="fill: #de8f05; fill-opacity: 0.6; stroke: #de8f05; stroke-opacity: 0.6"/>
     <use xlink:href="#mdd74f64b9d" x="475.468429" y="154.091808" style="fill: #de8f05; fill-opacity: 0.6; stroke: #de8f05; stroke-opacity: 0.6"/>
     <use xlink:href="#mdd74f64b9d" x="519.354671" y="186.79525" style="fill: #de8f05; fill-opacity: 0.6; stroke: #de8f05; stroke-opacity: 0.6"/>
     <use xlink:href="#mdd74f64b9d" x="355.397588" y="76.611826" style="fill: #de8f05; fill-opacity: 0.6; stroke: #de8f05; stroke-opacity: 0.6"/>
     <use xlink:href="#mdd74f64b9d" x="294.691732" y="52.820848" style="fill: #de8f05; fill-opacity: 0.6; stroke: #de8f05; stroke-opacity: 0.6"/>
     <use xlink:href="#mdd74f64b9d" x="196.446646" y="70.024533" style="fill: #de8f05; fill-opacity: 0.6; stroke: #de8f05; stroke-opacity: 0.6"/>
     <use xlink:href="#mdd74f64b9d" x="118.001151" y="174.169692" style="fill: #de8f05; fill-opacity: 0.6; stroke: #de8f05; stroke-opacity: 0.6"/>
     <use xlink:href="#mdd74f64b9d" x="481.812206" y="158.706285" style="fill: #de8f05; fill-opacity: 0.6; stroke: #de8f05; stroke-opacity: 0.6"/>
     <use xlink:href="#mdd74f64b9d" x="543.965778" y="206.08044" style="fill: #de8f05; fill-opacity: 0.6; stroke: #de8f05; stroke-opacity: 0.6"/>
     <use xlink:href="#mdd74f64b9d" x="301.314616" y="54.515992" style="fill: #de8f05; fill-opacity: 0.6; stroke: #de8f05; stroke-opacity: 0.6"/>
     <use xlink:href="#mdd74f64b9d" x="334.806355" y="66.693289" style="fill: #de8f05; fill-opacity: 0.6; stroke: #de8f05; stroke-opacity: 0.6"/>
     <use xlink:href="#mdd74f64b9d" x="122.734157" y="164.680502" style="fill: #de8f05; fill-opacity: 0.6; stroke: #de8f05; stroke-opacity: 0.6"/>
     <use xlink:href="#mdd74f64b9d" x="511.036829" y="180.44838" style="fill: #de8f05; fill-opacity: 0.6; stroke: #de8f05; stroke-opacity: 0.6"/>
     <use xlink:href="#mdd74f64b9d" x="190.337166" y="74.578953" style="fill: #de8f05; fill-opacity: 0.6; stroke: #de8f05; stroke-opacity: 0.6"/>
     <use xlink:href="#mdd74f64b9d" x="337.757046" y="68.015481" style="fill: #de8f05; fill-opacity: 0.6; stroke: #de8f05; stroke-opacity: 0.6"/>
     <use xlink:href="#mdd74f64b9d" x="490.587867" y="165.149901" style="fill: #de8f05; fill-opacity: 0.6; stroke: #de8f05; stroke-opacity: 0.6"/>
     <use xlink:href="#mdd74f64b9d" x="77.734917" y="275.494142" style="fill: #de8f05; fill-opacity: 0.6; stroke: #de8f05; stroke-opacity: 0.6"/>
     <use xlink:href="#mdd74f64b9d" x="248.226153" y="49.605035" style="fill: #de8f05; fill-opacity: 0.6; stroke: #de8f05; stroke-opacity: 0.6"/>
     <use xlink:href="#mdd74f64b9d" x="464.828801" y="146.434548" style="fill: #de8f05; fill-opacity: 0.6; stroke: #de8f05; stroke-opacity: 0.6"/>
     <use xlink:href="#mdd74f64b9d" x="327.760031" y="63.684252" style="fill: #de8f05; fill-opacity: 0.6; stroke: #de8f05; stroke-opacity: 0.6"/>
     <use xlink:href="#mdd74f64b9d" x="564.024076" y="222.497159" style="fill: #de8f05; fill-opacity: 0.6; stroke: #de8f05; stroke-opacity: 0.6"/>
     <use xlink:href="#mdd74f64b9d" x="140.960906" y="132.389587" style="fill: #de8f05; fill-opacity: 0.6; stroke: #de8f05; stroke-opacity: 0.6"/>
     <use xlink:href="#mdd74f64b9d" x="502.051449" y="173.675304" style="fill: #de8f05; fill-opacity: 0.6; stroke: #de8f05; stroke-opacity: 0.6"/>
     <use xlink:href="#mdd74f64b9d" x="352.5136" y="75.130671" style="fill: #de8f05; fill-opacity: 0.6; stroke: #de8f05; stroke-opacity: 0.6"/>
    </g>
   </g>
   <g id="line2d_13">
    <path d="M 71.14866 324.72 
L 72.423214 317.188443 
L 77.521433 302.488929 
L 82.619651 288.274214 
L 87.717869 274.544298 
L 92.816088 261.29918 
L 97.914306 248.538862 
L 103.012524 236.263342 
L 108.110743 224.472621 
L 113.208961 213.166699 
L 118.30718 202.345576 
L 123.405398 192.009251 
L 128.503616 182.157726 
L 133.601835 172.790999 
L 138.700053 163.909071 
L 141.249162 159.610116 
L 146.347381 151.637314 
L 151.445599 144.202235 
L 156.543817 137.233154 
L 161.642036 130.716459 
L 166.740254 124.640652 
L 171.838472 118.945299 
L 176.936691 113.739778 
L 184.584018 106.550106 
L 189.682237 102.072141 
L 194.780455 98.075439 
L 199.878673 94.537539 
L 204.976892 91.393283 
L 210.07511 88.62343 
L 217.722438 84.971818 
L 222.820656 82.90898 
L 227.918874 81.207412 
L 233.017093 79.799585 
L 238.115311 78.709275 
L 243.21353 77.81447 
L 248.311748 77.142925 
L 253.409966 76.687404 
L 258.508185 76.446365 
L 263.606403 76.337971 
L 268.704621 76.442564 
L 273.80284 76.787247 
L 278.901058 77.379635 
L 283.999276 78.226106 
L 291.646604 79.711872 
L 296.744822 80.867588 
L 304.39215 82.903619 
L 312.039477 85.31247 
L 324.785023 89.653219 
L 332.432351 92.742014 
L 340.079678 96.06449 
L 347.727006 99.67917 
L 355.374334 103.610586 
L 363.021661 107.832641 
L 373.218098 113.687456 
L 388.512753 122.862223 
L 408.905626 135.476782 
L 434.396718 152.034174 
L 447.142264 160.850596 
L 464.986028 173.403081 
L 475.182465 180.76095 
L 498.124448 198.034804 
L 518.517321 213.682205 
L 536.361085 227.769491 
L 554.20485 242.162363 
L 572.048614 256.86082 
L 577.146832 261.116507 
L 577.146832 261.116507 
" clip-path="url(#p5d3b2ac69c)" style="fill: none; stroke: #de8f05; stroke-opacity: 0; stroke-width: 1.5; stroke-linecap: round"/>
   </g>
   <g id="line2d_14">
    <path d="M 71.14866 268.43767 
L 72.423214 261.026931 
L 77.521433 246.557092 
L 82.619651 232.556106 
L 87.717869 219.023972 
L 92.816088 205.96069 
L 97.914306 193.36626 
L 103.012524 181.240683 
L 108.110743 169.583958 
L 113.208961 158.396085 
L 118.30718 147.677065 
L 123.405398 137.426897 
L 128.503616 127.645581 
L 133.601835 118.333118 
L 138.700053 109.489507 
L 141.249162 105.174509 
L 146.347381 97.137333 
L 151.445599 89.616568 
L 156.543817 82.605426 
L 161.642036 76.027855 
L 166.740254 69.889058 
L 171.838472 64.160933 
L 176.936691 58.873754 
L 182.034909 53.982486 
L 187.133127 49.35465 
L 192.231346 45.121423 
L 197.329564 41.361966 
L 202.427783 37.90366 
L 207.526001 34.868207 
L 212.624219 32.234229 
L 217.722438 29.924623 
L 222.820656 27.998943 
L 227.918874 26.475978 
L 233.017093 25.335342 
L 238.115311 24.344342 
L 243.21353 23.510924 
L 248.311748 22.886825 
L 253.409966 22.494275 
L 258.508185 22.333863 
L 263.606403 22.34849 
L 268.704621 22.554974 
L 273.80284 22.972305 
L 278.901058 23.573563 
L 286.548386 24.84609 
L 291.646604 25.862499 
L 296.744822 27.051001 
L 304.39215 29.050135 
L 314.588587 32.155297 
L 322.235914 34.620972 
L 327.334133 36.542504 
L 337.530569 40.673018 
L 345.177897 44.16625 
L 352.825224 47.985737 
L 360.472552 52.143591 
L 380.865425 63.866128 
L 396.16008 73.208008 
L 408.905626 81.248532 
L 426.749391 92.689409 
L 442.044046 103.014069 
L 452.240482 110.095137 
L 472.633356 124.474359 
L 485.378902 133.86782 
L 503.222666 147.448126 
L 510.869994 153.270697 
L 577.146832 202.826039 
L 577.146832 202.826039 
" clip-path="url(#p5d3b2ac69c)" style="fill: none; stroke: #de8f05; stroke-opacity: 0; stroke-width: 1.5; stroke-linecap: round"/>
   </g>
   <g id="patch_3">
    <path d="M 44.510469 339.84 
L 44.510469 7.2 
" style="fill: none; stroke: #ffffff; stroke-width: 1.25; stroke-linejoin: miter; stroke-linecap: square"/>
   </g>
   <g id="patch_4">
    <path d="M 602.510469 339.84 
L 602.510469 7.2 
" style="fill: none; stroke: #ffffff; stroke-width: 1.25; stroke-linejoin: miter; stroke-linecap: square"/>
   </g>
   <g id="patch_5">
    <path d="M 44.510469 339.84 
L 602.510469 339.84 
" style="fill: none; stroke: #ffffff; stroke-width: 1.25; stroke-linejoin: miter; stroke-linecap: square"/>
   </g>
   <g id="patch_6">
    <path d="M 44.510469 7.2 
L 602.510469 7.2 
" style="fill: none; stroke: #ffffff; stroke-width: 1.25; stroke-linejoin: miter; stroke-linecap: square"/>
   </g>
  </g>
 </g>
 <defs>
  <clipPath id="p5d3b2ac69c">
   <rect x="44.510469" y="7.2" width="558" height="332.64"/>
  </clipPath>
 </defs>
</svg>