<?xml version="1.0" encoding="UTF-8" standalone="no"?>
<!DOCTYPE svg PUBLIC "-//W3C//DTD SVG 1.1//EN"
 "http://www.w3.org/Graphics/SVG/1.1/DTD/svg11.dtd">
<!-- Generated by graphviz version 9.0.0 (0)
 -->
<!-- Pages: 1 -->
<svg width="566pt" height="591pt"
 viewBox="0.00 0.00 566.01 591.27" xmlns="http://www.w3.org/2000/svg" xmlns:xlink="http://www.w3.org/1999/xlink">
<g id="graph0" class="graph" transform="scale(1 1) rotate(0) translate(4 587.27)">
<polygon fill="white" stroke="none" points="-4,4 -4,-587.27 562.01,-587.27 562.01,4 -4,4"/>
<g id="clust1" class="cluster">
<title>cluster5000</title>
<path fill="none" stroke="black" d="M20,-8C20,-8 220,-8 220,-8 226,-8 232,-14 232,-20 232,-20 232,-563.27 232,-563.27 232,-569.27 226,-575.27 220,-575.27 220,-575.27 20,-575.27 20,-575.27 14,-575.27 8,-569.27 8,-563.27 8,-563.27 8,-20 8,-20 8,-14 14,-8 20,-8"/>
<text text-anchor="middle" x="210.5" y="-15.2" font-family="Times,serif" font-size="14.00">5000</text>
</g>
<!-- P -->
<g id="node1" class="node">
<title>P</title>
<ellipse fill="lightgrey" stroke="black" cx="183" cy="-174.66" rx="41.01" ry="40.66"/>
<text text-anchor="middle" x="183" y="-186.11" font-family="Times,serif" font-size="14.00">P</text>
<text text-anchor="middle" x="183" y="-169.61" font-family="Times,serif" font-size="14.00">~</text>
<text text-anchor="middle" x="183" y="-153.11" font-family="Times,serif" font-size="14.00">Normal</text>
</g>
<!-- _P -->
<g id="node5" class="node">
<title>_P</title>
<path fill="lightgrey" stroke="black" d="M211.62,-98C211.62,-98 148.38,-98 148.38,-98 142.38,-98 136.38,-92 136.38,-86 136.38,-86 136.38,-52.5 136.38,-52.5 136.38,-46.5 142.38,-40.5 148.38,-40.5 148.38,-40.5 211.62,-40.5 211.62,-40.5 217.62,-40.5 223.62,-46.5 223.62,-52.5 223.62,-52.5 223.62,-86 223.62,-86 223.62,-92 217.62,-98 211.62,-98"/>
<text text-anchor="middle" x="180" y="-80.7" font-family="Times,serif" font-size="14.00">_P</text>
<text text-anchor="middle" x="180" y="-64.2" font-family="Times,serif" font-size="14.00">~</text>
<text text-anchor="middle" x="180" y="-47.7" font-family="Times,serif" font-size="14.00">MutableData</text>
</g>
<!-- P&#45;&gt;_P -->
<g id="edge4" class="edge">
<title>P&#45;&gt;_P</title>
<path fill="none" stroke="black" d="M181.84,-133.68C181.61,-125.83 181.37,-117.6 181.15,-109.76"/>
<polygon fill="black" stroke="black" points="184.65,-109.68 180.86,-99.79 177.65,-109.89 184.65,-109.68"/>
</g>
<!-- Y -->
<g id="node2" class="node">
<title>Y</title>
<ellipse fill="lightgrey" stroke="black" cx="183" cy="-291.98" rx="41.01" ry="40.66"/>
<text text-anchor="middle" x="183" y="-303.43" font-family="Times,serif" font-size="14.00">Y</text>
<text text-anchor="middle" x="183" y="-286.93" font-family="Times,serif" font-size="14.00">~</text>
<text text-anchor="middle" x="183" y="-270.43" font-family="Times,serif" font-size="14.00">Normal</text>
</g>
<!-- Y&#45;&gt;P -->
<g id="edge14" class="edge">
<title>Y&#45;&gt;P</title>
<path fill="none" stroke="black" d="M183,-250.97C183,-243.19 183,-234.93 183,-226.84"/>
<polygon fill="black" stroke="black" points="186.5,-227.11 183,-217.11 179.5,-227.11 186.5,-227.11"/>
</g>
<!-- _Y -->
<g id="node7" class="node">
<title>_Y</title>
<path fill="lightgrey" stroke="black" d="M111.62,-203.41C111.62,-203.41 48.38,-203.41 48.38,-203.41 42.38,-203.41 36.38,-197.41 36.38,-191.41 36.38,-191.41 36.38,-157.91 36.38,-157.91 36.38,-151.91 42.38,-145.91 48.38,-145.91 48.38,-145.91 111.62,-145.91 111.62,-145.91 117.62,-145.91 123.62,-151.91 123.62,-157.91 123.62,-157.91 123.62,-191.41 123.62,-191.41 123.62,-197.41 117.62,-203.41 111.62,-203.41"/>
<text text-anchor="middle" x="80" y="-186.11" font-family="Times,serif" font-size="14.00">_Y</text>
<text text-anchor="middle" x="80" y="-169.61" font-family="Times,serif" font-size="14.00">~</text>
<text text-anchor="middle" x="80" y="-153.11" font-family="Times,serif" font-size="14.00">MutableData</text>
</g>
<!-- Y&#45;&gt;_Y -->
<g id="edge3" class="edge">
<title>Y&#45;&gt;_Y</title>
<path fill="none" stroke="black" d="M156.21,-260.98C142.83,-246 126.54,-227.76 112.45,-211.99"/>
<polygon fill="black" stroke="black" points="115.17,-209.78 105.9,-204.66 109.95,-214.45 115.17,-209.78"/>
</g>
<!-- _X -->
<g id="node3" class="node">
<title>_X</title>
<path fill="lightgrey" stroke="black" d="M111.62,-320.73C111.62,-320.73 48.38,-320.73 48.38,-320.73 42.38,-320.73 36.38,-314.73 36.38,-308.73 36.38,-308.73 36.38,-275.23 36.38,-275.23 36.38,-269.23 42.38,-263.23 48.38,-263.23 48.38,-263.23 111.62,-263.23 111.62,-263.23 117.62,-263.23 123.62,-269.23 123.62,-275.23 123.62,-275.23 123.62,-308.73 123.62,-308.73 123.62,-314.73 117.62,-320.73 111.62,-320.73"/>
<text text-anchor="middle" x="80" y="-303.43" font-family="Times,serif" font-size="14.00">_X</text>
<text text-anchor="middle" x="80" y="-286.93" font-family="Times,serif" font-size="14.00">~</text>
<text text-anchor="middle" x="80" y="-270.43" font-family="Times,serif" font-size="14.00">MutableData</text>
</g>
<!-- X -->
<g id="node4" class="node">
<title>X</title>
<ellipse fill="lightgrey" stroke="black" cx="183" cy="-409.29" rx="41.01" ry="40.66"/>
<text text-anchor="middle" x="183" y="-420.74" font-family="Times,serif" font-size="14.00">X</text>
<text text-anchor="middle" x="183" y="-404.24" font-family="Times,serif" font-size="14.00">~</text>
<text text-anchor="middle" x="183" y="-387.74" font-family="Times,serif" font-size="14.00">Normal</text>
</g>
<!-- X&#45;&gt;P -->
<g id="edge15" class="edge">
<title>X&#45;&gt;P</title>
<path fill="none" stroke="black" d="M148.19,-387.49C137.09,-381.15 124.66,-374.35 113,-368.63 75.8,-350.39 49.96,-367.13 27,-332.63 6.98,-302.55 5.95,-280.7 27,-251.32 55.98,-210.87 89.31,-239.13 133,-215.32 136.46,-213.43 139.93,-211.3 143.33,-209.04"/>
<polygon fill="black" stroke="black" points="145.34,-211.9 151.45,-203.25 141.28,-206.2 145.34,-211.9"/>
</g>
<!-- X&#45;&gt;Y -->
<g id="edge8" class="edge">
<title>X&#45;&gt;Y</title>
<path fill="none" stroke="black" d="M183,-368.28C183,-360.5 183,-352.25 183,-344.16"/>
<polygon fill="black" stroke="black" points="186.5,-344.43 183,-334.43 179.5,-344.43 186.5,-344.43"/>
</g>
<!-- X&#45;&gt;_X -->
<g id="edge2" class="edge">
<title>X&#45;&gt;_X</title>
<path fill="none" stroke="black" d="M156.21,-378.3C142.83,-363.32 126.54,-345.08 112.45,-329.31"/>
<polygon fill="black" stroke="black" points="115.17,-327.1 105.9,-321.97 109.95,-331.76 115.17,-327.1"/>
</g>
<!-- Q -->
<g id="node6" class="node">
<title>Q</title>
<ellipse fill="lightgrey" stroke="black" cx="123" cy="-526.61" rx="41.01" ry="40.66"/>
<text text-anchor="middle" x="123" y="-538.06" font-family="Times,serif" font-size="14.00">Q</text>
<text text-anchor="middle" x="123" y="-521.56" font-family="Times,serif" font-size="14.00">~</text>
<text text-anchor="middle" x="123" y="-505.06" font-family="Times,serif" font-size="14.00">Normal</text>
</g>
<!-- Q&#45;&gt;Y -->
<g id="edge11" class="edge">
<title>Q&#45;&gt;Y</title>
<path fill="none" stroke="black" d="M119.97,-485.83C118.81,-453.43 120.14,-406.95 133,-368.63 137.15,-356.28 143.84,-344.01 150.99,-333.06"/>
<polygon fill="black" stroke="black" points="153.72,-335.27 156.49,-325.05 147.95,-331.31 153.72,-335.27"/>
</g>
<!-- Q&#45;&gt;X -->
<g id="edge5" class="edge">
<title>Q&#45;&gt;X</title>
<path fill="none" stroke="black" d="M141.49,-490.07C147.08,-479.33 153.3,-467.38 159.18,-456.07"/>
<polygon fill="black" stroke="black" points="162.26,-457.74 163.77,-447.26 156.05,-454.51 162.26,-457.74"/>
</g>
<!-- _Q -->
<g id="node8" class="node">
<title>_Q</title>
<path fill="lightgrey" stroke="black" d="M91.62,-438.04C91.62,-438.04 28.38,-438.04 28.38,-438.04 22.38,-438.04 16.38,-432.04 16.38,-426.04 16.38,-426.04 16.38,-392.54 16.38,-392.54 16.38,-386.54 22.38,-380.54 28.38,-380.54 28.38,-380.54 91.62,-380.54 91.62,-380.54 97.62,-380.54 103.62,-386.54 103.62,-392.54 103.62,-392.54 103.62,-426.04 103.62,-426.04 103.62,-432.04 97.62,-438.04 91.62,-438.04"/>
<text text-anchor="middle" x="60" y="-420.74" font-family="Times,serif" font-size="14.00">_Q</text>
<text text-anchor="middle" x="60" y="-404.24" font-family="Times,serif" font-size="14.00">~</text>
<text text-anchor="middle" x="60" y="-387.74" font-family="Times,serif" font-size="14.00">MutableData</text>
</g>
<!-- Q&#45;&gt;_Q -->
<g id="edge1" class="edge">
<title>Q&#45;&gt;_Q</title>
<path fill="none" stroke="black" d="M103.76,-490.38C96.49,-477.08 88.19,-461.9 80.79,-448.35"/>
<polygon fill="black" stroke="black" points="83.93,-446.79 76.06,-439.69 77.78,-450.15 83.93,-446.79"/>
</g>
<!-- yp -->
<g id="node9" class="node">
<title>yp</title>
<ellipse fill="none" stroke="black" cx="283" cy="-291.98" rx="41.01" ry="40.66"/>
<text text-anchor="middle" x="283" y="-303.43" font-family="Times,serif" font-size="14.00">yp</text>
<text text-anchor="middle" x="283" y="-286.93" font-family="Times,serif" font-size="14.00">~</text>
<text text-anchor="middle" x="283" y="-270.43" font-family="Times,serif" font-size="14.00">Normal</text>
</g>
<!-- yp&#45;&gt;P -->
<g id="edge13" class="edge">
<title>yp&#45;&gt;P</title>
<path fill="none" stroke="black" d="M256.46,-260.38C244.28,-246.32 229.68,-229.49 216.72,-214.55"/>
<polygon fill="black" stroke="black" points="219.5,-212.41 210.3,-207.15 214.21,-216.99 219.5,-212.41"/>
</g>
<!-- qx -->
<g id="node10" class="node">
<title>qx</title>
<ellipse fill="none" stroke="black" cx="281" cy="-526.61" rx="41.01" ry="40.66"/>
<text text-anchor="middle" x="281" y="-538.06" font-family="Times,serif" font-size="14.00">qx</text>
<text text-anchor="middle" x="281" y="-521.56" font-family="Times,serif" font-size="14.00">~</text>
<text text-anchor="middle" x="281" y="-505.06" font-family="Times,serif" font-size="14.00">Normal</text>
</g>
<!-- qx&#45;&gt;X -->
<g id="edge6" class="edge">
<title>qx&#45;&gt;X</title>
<path fill="none" stroke="black" d="M255,-495.01C243.14,-481.07 228.97,-464.39 216.35,-449.54"/>
<polygon fill="black" stroke="black" points="219.25,-447.54 210.11,-442.19 213.92,-452.08 219.25,-447.54"/>
</g>
<!-- sigma_x -->
<g id="node11" class="node">
<title>sigma_x</title>
<ellipse fill="none" stroke="black" cx="398" cy="-526.61" rx="57.98" ry="40.66"/>
<text text-anchor="middle" x="398" y="-538.06" font-family="Times,serif" font-size="14.00">sigma_x</text>
<text text-anchor="middle" x="398" y="-521.56" font-family="Times,serif" font-size="14.00">~</text>
<text text-anchor="middle" x="398" y="-505.06" font-family="Times,serif" font-size="14.00">HalfNormal</text>
</g>
<!-- sigma_x&#45;&gt;X -->
<g id="edge7" class="edge">
<title>sigma_x&#45;&gt;X</title>
<path fill="none" stroke="black" d="M355.38,-498.82C347.42,-494.27 339.06,-489.78 331,-485.95 289.08,-466.05 273.47,-472.66 233,-449.95 229.56,-448.02 226.11,-445.86 222.73,-443.58"/>
<polygon fill="black" stroke="black" points="224.78,-440.75 214.62,-437.76 220.7,-446.43 224.78,-440.75"/>
</g>
<!-- sigma_p -->
<g id="node12" class="node">
<title>sigma_p</title>
<ellipse fill="none" stroke="black" cx="400" cy="-291.98" rx="57.98" ry="40.66"/>
<text text-anchor="middle" x="400" y="-303.43" font-family="Times,serif" font-size="14.00">sigma_p</text>
<text text-anchor="middle" x="400" y="-286.93" font-family="Times,serif" font-size="14.00">~</text>
<text text-anchor="middle" x="400" y="-270.43" font-family="Times,serif" font-size="14.00">HalfNormal</text>
</g>
<!-- sigma_p&#45;&gt;P -->
<g id="edge16" class="edge">
<title>sigma_p&#45;&gt;P</title>
<path fill="none" stroke="black" d="M356.64,-264.73C348.82,-260.17 340.71,-255.54 333,-251.32 298.9,-232.65 259.65,-212.91 229.85,-198.28"/>
<polygon fill="black" stroke="black" points="231.61,-195.24 221.09,-193.99 228.53,-201.53 231.61,-195.24"/>
</g>
<!-- sigma_y -->
<g id="node13" class="node">
<title>sigma_y</title>
<ellipse fill="none" stroke="black" cx="300" cy="-409.29" rx="57.98" ry="40.66"/>
<text text-anchor="middle" x="300" y="-420.74" font-family="Times,serif" font-size="14.00">sigma_y</text>
<text text-anchor="middle" x="300" y="-404.24" font-family="Times,serif" font-size="14.00">~</text>
<text text-anchor="middle" x="300" y="-387.74" font-family="Times,serif" font-size="14.00">HalfNormal</text>
</g>
<!-- sigma_y&#45;&gt;Y -->
<g id="edge9" class="edge">
<title>sigma_y&#45;&gt;Y</title>
<path fill="none" stroke="black" d="M266.79,-375.56C252.19,-361.17 235,-344.23 220,-329.44"/>
<polygon fill="black" stroke="black" points="222.58,-327.07 213,-322.54 217.66,-332.06 222.58,-327.07"/>
</g>
<!-- qy -->
<g id="node14" class="node">
<title>qy</title>
<ellipse fill="none" stroke="black" cx="417" cy="-409.29" rx="41.01" ry="40.66"/>
<text text-anchor="middle" x="417" y="-420.74" font-family="Times,serif" font-size="14.00">qy</text>
<text text-anchor="middle" x="417" y="-404.24" font-family="Times,serif" font-size="14.00">~</text>
<text text-anchor="middle" x="417" y="-387.74" font-family="Times,serif" font-size="14.00">Normal</text>
</g>
<!-- qy&#45;&gt;Y -->
<g id="edge10" class="edge">
<title>qy&#45;&gt;Y</title>
<path fill="none" stroke="black" d="M386.87,-381.23C380.61,-376.54 373.83,-372.07 367,-368.63 311.92,-340.9 288.08,-360.37 233,-332.63 229.48,-330.86 225.97,-328.82 222.54,-326.61"/>
<polygon fill="black" stroke="black" points="224.58,-323.76 214.37,-320.91 220.57,-329.5 224.58,-323.76"/>
</g>
<!-- xy -->
<g id="node15" class="node">
<title>xy</title>
<ellipse fill="none" stroke="black" cx="517" cy="-409.29" rx="41.01" ry="40.66"/>
<text text-anchor="middle" x="517" y="-420.74" font-family="Times,serif" font-size="14.00">xy</text>
<text text-anchor="middle" x="517" y="-404.24" font-family="Times,serif" font-size="14.00">~</text>
<text text-anchor="middle" x="517" y="-387.74" font-family="Times,serif" font-size="14.00">Normal</text>
</g>
<!-- xy&#45;&gt;Y -->
<g id="edge12" class="edge">
<title>xy&#45;&gt;Y</title>
<path fill="none" stroke="black" d="M487.43,-380.82C481.07,-376.11 474.11,-371.74 467,-368.63 370.56,-326.54 329.44,-374.73 233,-332.63 229.22,-330.99 225.49,-328.98 221.87,-326.75"/>
<polygon fill="black" stroke="black" points="224.06,-324.02 213.82,-321.3 220.13,-329.81 224.06,-324.02"/>
</g>
<!-- xp -->
<g id="node16" class="node">
<title>xp</title>
<ellipse fill="none" stroke="black" cx="517" cy="-291.98" rx="41.01" ry="40.66"/>
<text text-anchor="middle" x="517" y="-303.43" font-family="Times,serif" font-size="14.00">xp</text>
<text text-anchor="middle" x="517" y="-286.93" font-family="Times,serif" font-size="14.00">~</text>
<text text-anchor="middle" x="517" y="-270.43" font-family="Times,serif" font-size="14.00">Normal</text>
</g>
<!-- xp&#45;&gt;P -->
<g id="edge17" class="edge">
<title>xp&#45;&gt;P</title>
<path fill="none" stroke="black" d="M486.87,-263.9C480.61,-259.21 473.83,-254.75 467,-251.32 391.12,-213.21 293.89,-192.67 235.13,-182.97"/>
<polygon fill="black" stroke="black" points="235.83,-179.54 225.4,-181.41 234.72,-186.45 235.83,-179.54"/>
</g>
</g>
</svg>