<?xml version="1.0" encoding="UTF-8" standalone="no"?>
<!DOCTYPE svg PUBLIC "-//W3C//DTD SVG 1.1//EN"
 "http://www.w3.org/Graphics/SVG/1.1/DTD/svg11.dtd">
<!-- Generated by graphviz version 9.0.0 (0)
 -->
<!-- Pages: 1 -->
<svg width="206pt" height="116pt"
 viewBox="0.00 0.00 206.00 116.00" xmlns="http://www.w3.org/2000/svg" xmlns:xlink="http://www.w3.org/1999/xlink">
<g id="graph0" class="graph" transform="scale(1 1) rotate(0) translate(4 112)">
<polygon fill="white" stroke="none" points="-4,4 -4,-112 202,-112 202,4 -4,4"/>
<!-- X -->
<g id="node1" class="node">
<title>X</title>
<ellipse fill="none" stroke="black" cx="27" cy="-90" rx="27" ry="18"/>
<text text-anchor="middle" x="27" y="-84.95" font-family="Times,serif" font-size="14.00">X</text>
</g>
<!-- Z -->
<g id="node2" class="node">
<title>Z</title>
<ellipse fill="none" stroke="black" cx="99" cy="-90" rx="27" ry="18"/>
<text text-anchor="middle" x="99" y="-84.95" font-family="Times,serif" font-size="14.00">Z</text>
</g>
<!-- X&#45;&gt;Z -->
<g id="edge1" class="edge">
<title>X&#45;&gt;Z</title>
<path fill="none" stroke="black" d="M54.28,-90C56.28,-90 58.28,-90 60.29,-90"/>
<polygon fill="black" stroke="black" points="60.24,-93.5 70.24,-90 60.24,-86.5 60.24,-93.5"/>
</g>
<!-- Y -->
<g id="node3" class="node">
<title>Y</title>
<ellipse fill="none" stroke="black" cx="171" cy="-90" rx="27" ry="18"/>
<text text-anchor="middle" x="171" y="-84.95" font-family="Times,serif" font-size="14.00">Y</text>
</g>
<!-- Z&#45;&gt;Y -->
<g id="edge2" class="edge">
<title>Z&#45;&gt;Y</title>
<path fill="none" stroke="black" d="M126.28,-90C128.28,-90 130.28,-90 132.29,-90"/>
<polygon fill="black" stroke="black" points="132.24,-93.5 142.24,-90 132.24,-86.5 132.24,-93.5"/>
</g>
<!-- A -->
<g id="node4" class="node">
<title>A</title>
<ellipse fill="none" stroke="black" cx="99" cy="-18" rx="27" ry="18"/>
<text text-anchor="middle" x="99" y="-12.95" font-family="Times,serif" font-size="14.00">A</text>
</g>
<!-- Z&#45;&gt;A -->
<g id="edge3" class="edge">
<title>Z&#45;&gt;A</title>
<path fill="none" stroke="black" d="M99,-71.7C99,-64.41 99,-55.73 99,-47.54"/>
<polygon fill="black" stroke="black" points="102.5,-47.62 99,-37.62 95.5,-47.62 102.5,-47.62"/>
</g>
</g>
</svg>