<?xml version="1.0" encoding="UTF-8" standalone="no"?>
<!DOCTYPE svg PUBLIC "-//W3C//DTD SVG 1.1//EN"
 "http://www.w3.org/Graphics/SVG/1.1/DTD/svg11.dtd">
<!-- Generated by graphviz version 8.1.0 (0)
 -->
<!-- Pages: 1 -->
<svg width="258pt" height="470pt"
 viewBox="0.00 0.00 257.97 470.45" xmlns="http://www.w3.org/2000/svg" xmlns:xlink="http://www.w3.org/1999/xlink">
<g id="graph0" class="graph" transform="scale(1 1) rotate(0) translate(4 466.45)">
<polygon fill="white" stroke="none" points="-4,4 -4,-466.45 253.97,-466.45 253.97,4 -4,4"/>
<g id="clust1" class="cluster">
<title>clusterobs (30) x location (5)</title>
<path fill="none" stroke="black" d="M67.98,-8C67.98,-8 181.98,-8 181.98,-8 187.98,-8 193.98,-14 193.98,-20 193.98,-20 193.98,-211.32 193.98,-211.32 193.98,-217.32 187.98,-223.32 181.98,-223.32 181.98,-223.32 67.98,-223.32 67.98,-223.32 61.98,-223.32 55.98,-217.32 55.98,-211.32 55.98,-211.32 55.98,-20 55.98,-20 55.98,-14 61.98,-8 67.98,-8"/>
<text text-anchor="middle" x="124.86" y="-15.2" font-family="Times,serif" font-size="14.00">obs (30) x location (5)</text>
</g>
<g id="clust2" class="cluster">
<title>clusterlocation (5)</title>
<path fill="none" stroke="black" d="M85.98,-231.32C85.98,-231.32 163.98,-231.32 163.98,-231.32 169.98,-231.32 175.98,-237.32 175.98,-243.32 175.98,-243.32 175.98,-341.13 175.98,-341.13 175.98,-347.13 169.98,-353.13 163.98,-353.13 163.98,-353.13 85.98,-353.13 85.98,-353.13 79.98,-353.13 73.98,-347.13 73.98,-341.13 73.98,-341.13 73.98,-243.32 73.98,-243.32 73.98,-237.32 79.98,-231.32 85.98,-231.32"/>
<text text-anchor="middle" x="136.48" y="-238.52" font-family="Times,serif" font-size="14.00">location (5)</text>
</g>
<!-- observed_score -->
<g id="node1" class="node">
<title>observed_score</title>
<path fill="lightgrey" stroke="black" d="M162.98,-98C162.98,-98 86.98,-98 86.98,-98 80.98,-98 74.98,-92 74.98,-86 74.98,-86 74.98,-52.5 74.98,-52.5 74.98,-46.5 80.98,-40.5 86.98,-40.5 86.98,-40.5 162.98,-40.5 162.98,-40.5 168.98,-40.5 174.98,-46.5 174.98,-52.5 174.98,-52.5 174.98,-86 174.98,-86 174.98,-92 168.98,-98 162.98,-98"/>
<text text-anchor="middle" x="124.98" y="-80.7" font-family="Times,serif" font-size="14.00">observed_score</text>
<text text-anchor="middle" x="124.98" y="-64.2" font-family="Times,serif" font-size="14.00">~</text>
<text text-anchor="middle" x="124.98" y="-47.7" font-family="Times,serif" font-size="14.00">ConstantData</text>
</g>
<!-- score -->
<g id="node2" class="node">
<title>score</title>
<ellipse fill="lightgrey" stroke="black" cx="124.98" cy="-174.66" rx="41.01" ry="40.66"/>
<text text-anchor="middle" x="124.98" y="-186.11" font-family="Times,serif" font-size="14.00">score</text>
<text text-anchor="middle" x="124.98" y="-169.61" font-family="Times,serif" font-size="14.00">~</text>
<text text-anchor="middle" x="124.98" y="-153.11" font-family="Times,serif" font-size="14.00">Poisson</text>
</g>
<!-- score&#45;&gt;observed_score -->
<g id="edge1" class="edge">
<title>score&#45;&gt;observed_score</title>
<path fill="none" stroke="black" d="M124.98,-133.68C124.98,-125.64 124.98,-117.21 124.98,-109.21"/>
<polygon fill="black" stroke="black" points="128.48,-109.28 124.98,-99.28 121.48,-109.28 128.48,-109.28"/>
</g>
<!-- h_mu -->
<g id="node3" class="node">
<title>h_mu</title>
<ellipse fill="none" stroke="black" cx="57.98" cy="-421.79" rx="57.98" ry="40.66"/>
<text text-anchor="middle" x="57.98" y="-433.24" font-family="Times,serif" font-size="14.00">h_mu</text>
<text text-anchor="middle" x="57.98" y="-416.74" font-family="Times,serif" font-size="14.00">~</text>
<text text-anchor="middle" x="57.98" y="-400.24" font-family="Times,serif" font-size="14.00">HalfNormal</text>
</g>
<!-- lam -->
<g id="node5" class="node">
<title>lam</title>
<ellipse fill="none" stroke="black" cx="124.98" cy="-304.48" rx="42.6" ry="40.66"/>
<text text-anchor="middle" x="124.98" y="-315.93" font-family="Times,serif" font-size="14.00">lam</text>
<text text-anchor="middle" x="124.98" y="-299.43" font-family="Times,serif" font-size="14.00">~</text>
<text text-anchor="middle" x="124.98" y="-282.93" font-family="Times,serif" font-size="14.00">Gamma</text>
</g>
<!-- h_mu&#45;&gt;lam -->
<g id="edge2" class="edge">
<title>h_mu&#45;&gt;lam</title>
<path fill="none" stroke="black" d="M79.55,-383.67C85.83,-372.87 92.75,-360.96 99.25,-349.76"/>
<polygon fill="black" stroke="black" points="102.6,-351.97 104.59,-341.57 96.54,-348.45 102.6,-351.97"/>
</g>
<!-- h_sigma -->
<g id="node4" class="node">
<title>h_sigma</title>
<ellipse fill="none" stroke="black" cx="191.98" cy="-421.79" rx="57.98" ry="40.66"/>
<text text-anchor="middle" x="191.98" y="-433.24" font-family="Times,serif" font-size="14.00">h_sigma</text>
<text text-anchor="middle" x="191.98" y="-416.74" font-family="Times,serif" font-size="14.00">~</text>
<text text-anchor="middle" x="191.98" y="-400.24" font-family="Times,serif" font-size="14.00">HalfNormal</text>
</g>
<!-- h_sigma&#45;&gt;lam -->
<g id="edge3" class="edge">
<title>h_sigma&#45;&gt;lam</title>
<path fill="none" stroke="black" d="M170.41,-383.67C164.14,-372.87 157.22,-360.96 150.71,-349.76"/>
<polygon fill="black" stroke="black" points="153.42,-348.45 145.37,-341.57 147.37,-351.97 153.42,-348.45"/>
</g>
<!-- lam&#45;&gt;score -->
<g id="edge4" class="edge">
<title>lam&#45;&gt;score</title>
<path fill="none" stroke="black" d="M124.98,-263.38C124.98,-251.73 124.98,-238.83 124.98,-226.6"/>
<polygon fill="black" stroke="black" points="128.48,-226.61 124.98,-216.61 121.48,-226.61 128.48,-226.61"/>
</g>
</g>
</svg>