<?xml version="1.0" encoding="UTF-8" standalone="no"?>
<!DOCTYPE svg PUBLIC "-//W3C//DTD SVG 1.1//EN"
 "http://www.w3.org/Graphics/SVG/1.1/DTD/svg11.dtd">
<!-- Generated by graphviz version 9.0.0 (0)
 -->
<!-- Pages: 1 -->
<svg width="422pt" height="247pt"
 viewBox="0.00 0.00 422.46 247.13" xmlns="http://www.w3.org/2000/svg" xmlns:xlink="http://www.w3.org/1999/xlink">
<g id="graph0" class="graph" transform="scale(1 1) rotate(0) translate(4 243.13)">
<polygon fill="white" stroke="none" points="-4,4 -4,-243.13 418.46,-243.13 418.46,4 -4,4"/>
<g id="clust1" class="cluster">
<title>cluster50</title>
<path fill="none" stroke="black" d="M154.01,-8C154.01,-8 228.01,-8 228.01,-8 234.01,-8 240.01,-14 240.01,-20 240.01,-20 240.01,-117.82 240.01,-117.82 240.01,-123.82 234.01,-129.82 228.01,-129.82 228.01,-129.82 154.01,-129.82 154.01,-129.82 148.01,-129.82 142.01,-123.82 142.01,-117.82 142.01,-117.82 142.01,-20 142.01,-20 142.01,-14 148.01,-8 154.01,-8"/>
<text text-anchor="middle" x="225.26" y="-15.2" font-family="Times,serif" font-size="14.00">50</text>
</g>
<!-- bA -->
<g id="node1" class="node">
<title>bA</title>
<ellipse fill="none" stroke="black" cx="41.01" cy="-198.48" rx="41.01" ry="40.66"/>
<text text-anchor="middle" x="41.01" y="-209.93" font-family="Times,serif" font-size="14.00">bA</text>
<text text-anchor="middle" x="41.01" y="-193.43" font-family="Times,serif" font-size="14.00">~</text>
<text text-anchor="middle" x="41.01" y="-176.93" font-family="Times,serif" font-size="14.00">Normal</text>
</g>
<!-- D -->
<g id="node5" class="node">
<title>D</title>
<ellipse fill="lightgrey" stroke="black" cx="191.01" cy="-81.16" rx="41.01" ry="40.66"/>
<text text-anchor="middle" x="191.01" y="-92.61" font-family="Times,serif" font-size="14.00">D</text>
<text text-anchor="middle" x="191.01" y="-76.11" font-family="Times,serif" font-size="14.00">~</text>
<text text-anchor="middle" x="191.01" y="-59.61" font-family="Times,serif" font-size="14.00">Normal</text>
</g>
<!-- bA&#45;&gt;D -->
<g id="edge1" class="edge">
<title>bA&#45;&gt;D</title>
<path fill="none" stroke="black" d="M72.67,-172.19C78.74,-167.39 85.06,-162.43 91.01,-157.82 110.06,-143.06 131.34,-126.91 149.35,-113.35"/>
<polygon fill="black" stroke="black" points="151.35,-116.22 157.23,-107.41 147.14,-110.63 151.35,-116.22"/>
</g>
<!-- a -->
<g id="node2" class="node">
<title>a</title>
<ellipse fill="none" stroke="black" cx="141.01" cy="-198.48" rx="41.01" ry="40.66"/>
<text text-anchor="middle" x="141.01" y="-209.93" font-family="Times,serif" font-size="14.00">a</text>
<text text-anchor="middle" x="141.01" y="-193.43" font-family="Times,serif" font-size="14.00">~</text>
<text text-anchor="middle" x="141.01" y="-176.93" font-family="Times,serif" font-size="14.00">Normal</text>
</g>
<!-- a&#45;&gt;D -->
<g id="edge2" class="edge">
<title>a&#45;&gt;D</title>
<path fill="none" stroke="black" d="M156.97,-160.67C161.3,-150.69 166.05,-139.74 170.59,-129.26"/>
<polygon fill="black" stroke="black" points="173.67,-130.96 174.43,-120.4 167.24,-128.18 173.67,-130.96"/>
</g>
<!-- bM -->
<g id="node3" class="node">
<title>bM</title>
<ellipse fill="none" stroke="black" cx="241.01" cy="-198.48" rx="41.01" ry="40.66"/>
<text text-anchor="middle" x="241.01" y="-209.93" font-family="Times,serif" font-size="14.00">bM</text>
<text text-anchor="middle" x="241.01" y="-193.43" font-family="Times,serif" font-size="14.00">~</text>
<text text-anchor="middle" x="241.01" y="-176.93" font-family="Times,serif" font-size="14.00">Normal</text>
</g>
<!-- bM&#45;&gt;D -->
<g id="edge3" class="edge">
<title>bM&#45;&gt;D</title>
<path fill="none" stroke="black" d="M225.05,-160.67C220.72,-150.69 215.98,-139.74 211.44,-129.26"/>
<polygon fill="black" stroke="black" points="214.78,-128.18 207.59,-120.4 208.36,-130.96 214.78,-128.18"/>
</g>
<!-- sigma -->
<g id="node4" class="node">
<title>sigma</title>
<ellipse fill="none" stroke="black" cx="357.01" cy="-198.48" rx="57.45" ry="40.66"/>
<text text-anchor="middle" x="357.01" y="-209.93" font-family="Times,serif" font-size="14.00">sigma</text>
<text text-anchor="middle" x="357.01" y="-193.43" font-family="Times,serif" font-size="14.00">~</text>
<text text-anchor="middle" x="357.01" y="-176.93" font-family="Times,serif" font-size="14.00">Exponential</text>
</g>
<!-- sigma&#45;&gt;D -->
<g id="edge4" class="edge">
<title>sigma&#45;&gt;D</title>
<path fill="none" stroke="black" d="M316.4,-169.27C291.38,-151.88 259.33,-129.62 233.9,-111.95"/>
<polygon fill="black" stroke="black" points="235.96,-109.12 225.75,-106.29 231.96,-114.87 235.96,-109.12"/>
</g>
</g>
</svg>