<?xml version="1.0" encoding="UTF-8" standalone="no"?>
<!DOCTYPE svg PUBLIC "-//W3C//DTD SVG 1.1//EN"
 "http://www.w3.org/Graphics/SVG/1.1/DTD/svg11.dtd">
<!-- Generated by graphviz version 8.1.0 (0)
 -->
<!-- Pages: 1 -->
<svg width="370pt" height="268pt"
 viewBox="0.00 0.00 370.00 267.63" xmlns="http://www.w3.org/2000/svg" xmlns:xlink="http://www.w3.org/1999/xlink">
<g id="graph0" class="graph" transform="scale(1 1) rotate(0) translate(4 263.63)">
<polygon fill="white" stroke="none" points="-4,4 -4,-263.63 366,-263.63 366,4 -4,4"/>
<g id="clust1" class="cluster">
<title>cluster333</title>
<path fill="none" stroke="black" d="M20,-8C20,-8 102,-8 102,-8 108,-8 114,-14 114,-20 114,-20 114,-227.73 114,-227.73 114,-233.73 108,-239.73 102,-239.73 102,-239.73 20,-239.73 20,-239.73 14,-239.73 8,-233.73 8,-227.73 8,-227.73 8,-20 8,-20 8,-14 14,-8 20,-8"/>
<text text-anchor="middle" x="95.88" y="-15.2" font-family="Times,serif" font-size="14.00">333</text>
</g>
<g id="clust2" class="cluster">
<title>clusterspecies (3)</title>
<path fill="none" stroke="black" d="M134,-129.82C134,-129.82 342,-129.82 342,-129.82 348,-129.82 354,-135.82 354,-141.82 354,-141.82 354,-239.63 354,-239.63 354,-245.63 348,-251.63 342,-251.63 342,-251.63 134,-251.63 134,-251.63 128,-251.63 122,-245.63 122,-239.63 122,-239.63 122,-141.82 122,-141.82 122,-135.82 128,-129.82 134,-129.82"/>
<text text-anchor="middle" x="316.75" y="-137.02" font-family="Times,serif" font-size="14.00">species (3)</text>
</g>
<!-- species_idx -->
<g id="node1" class="node">
<title>species_idx</title>
<path fill="lightgrey" stroke="black" d="M93.75,-231.73C93.75,-231.73 28.25,-231.73 28.25,-231.73 22.25,-231.73 16.25,-225.73 16.25,-219.73 16.25,-219.73 16.25,-186.23 16.25,-186.23 16.25,-180.23 22.25,-174.23 28.25,-174.23 28.25,-174.23 93.75,-174.23 93.75,-174.23 99.75,-174.23 105.75,-180.23 105.75,-186.23 105.75,-186.23 105.75,-219.73 105.75,-219.73 105.75,-225.73 99.75,-231.73 93.75,-231.73"/>
<text text-anchor="middle" x="61" y="-214.43" font-family="Times,serif" font-size="14.00">species_idx</text>
<text text-anchor="middle" x="61" y="-197.93" font-family="Times,serif" font-size="14.00">~</text>
<text text-anchor="middle" x="61" y="-181.43" font-family="Times,serif" font-size="14.00">ConstantData</text>
</g>
<!-- y -->
<g id="node2" class="node">
<title>y</title>
<ellipse fill="lightgrey" stroke="black" cx="65" cy="-81.16" rx="41.01" ry="40.66"/>
<text text-anchor="middle" x="65" y="-92.61" font-family="Times,serif" font-size="14.00">y</text>
<text text-anchor="middle" x="65" y="-76.11" font-family="Times,serif" font-size="14.00">~</text>
<text text-anchor="middle" x="65" y="-59.61" font-family="Times,serif" font-size="14.00">Normal</text>
</g>
<!-- species_idx&#45;&gt;y -->
<g id="edge2" class="edge">
<title>species_idx&#45;&gt;y</title>
<path fill="none" stroke="black" d="M61.94,-173.88C62.35,-161.54 62.85,-146.65 63.32,-132.5"/>
<polygon fill="black" stroke="black" points="66.84,-132.98 63.67,-122.87 59.84,-132.75 66.84,-132.98"/>
</g>
<!-- mu -->
<g id="node3" class="node">
<title>mu</title>
<ellipse fill="none" stroke="black" cx="305" cy="-202.98" rx="41.01" ry="40.66"/>
<text text-anchor="middle" x="305" y="-214.43" font-family="Times,serif" font-size="14.00">mu</text>
<text text-anchor="middle" x="305" y="-197.93" font-family="Times,serif" font-size="14.00">~</text>
<text text-anchor="middle" x="305" y="-181.43" font-family="Times,serif" font-size="14.00">Normal</text>
</g>
<!-- mu&#45;&gt;y -->
<g id="edge1" class="edge">
<title>mu&#45;&gt;y</title>
<path fill="none" stroke="black" d="M287.3,-166.15C279.14,-152.96 268.29,-139.01 255,-129.82 214.01,-101.46 157.68,-89.95 117.01,-85.29"/>
<polygon fill="black" stroke="black" points="117.55,-81.73 107.24,-84.18 116.83,-88.69 117.55,-81.73"/>
</g>
<!-- sigma -->
<g id="node4" class="node">
<title>sigma</title>
<ellipse fill="none" stroke="black" cx="188" cy="-202.98" rx="57.98" ry="40.66"/>
<text text-anchor="middle" x="188" y="-214.43" font-family="Times,serif" font-size="14.00">sigma</text>
<text text-anchor="middle" x="188" y="-197.93" font-family="Times,serif" font-size="14.00">~</text>
<text text-anchor="middle" x="188" y="-181.43" font-family="Times,serif" font-size="14.00">HalfNormal</text>
</g>
<!-- sigma&#45;&gt;y -->
<g id="edge3" class="edge">
<title>sigma&#45;&gt;y</title>
<path fill="none" stroke="black" d="M156.41,-168.46C144.54,-156.13 130.82,-142.17 118,-129.82 113.26,-125.25 108.21,-120.53 103.17,-115.91"/>
<polygon fill="black" stroke="black" points="106.07,-113.91 96.32,-109.78 101.36,-119.09 106.07,-113.91"/>
</g>
</g>
</svg>