<?xml version="1.0" encoding="UTF-8" standalone="no"?>
<!DOCTYPE svg PUBLIC "-//W3C//DTD SVG 1.1//EN"
 "http://www.w3.org/Graphics/SVG/1.1/DTD/svg11.dtd">
<!-- Generated by graphviz version 9.0.0 (0)
 -->
<!-- Pages: 1 -->
<svg width="222pt" height="188pt"
 viewBox="0.00 0.00 222.19 188.00" xmlns="http://www.w3.org/2000/svg" xmlns:xlink="http://www.w3.org/1999/xlink">
<g id="graph0" class="graph" transform="scale(1 1) rotate(0) translate(4 184)">
<polygon fill="white" stroke="none" points="-4,4 -4,-184 218.19,-184 218.19,4 -4,4"/>
<!-- U1 -->
<g id="node1" class="node">
<title>U1</title>
<ellipse fill="none" stroke="black" cx="98.19" cy="-162" rx="27" ry="18"/>
<text text-anchor="middle" x="98.19" y="-156.95" font-family="Times,serif" font-size="14.00">U1</text>
</g>
<!-- covariate -->
<g id="node2" class="node">
<title>covariate</title>
<ellipse fill="none" stroke="black" cx="151.19" cy="-90" rx="44.7" ry="18"/>
<text text-anchor="middle" x="151.19" y="-84.95" font-family="Times,serif" font-size="14.00">covariate</text>
</g>
<!-- U1&#45;&gt;covariate -->
<g id="edge1" class="edge">
<title>U1&#45;&gt;covariate</title>
<path fill="none" stroke="black" d="M109.95,-145.46C116.42,-136.92 124.61,-126.1 131.98,-116.36"/>
<polygon fill="black" stroke="black" points="134.56,-118.76 137.8,-108.67 128.98,-114.53 134.56,-118.76"/>
</g>
<!-- exposure -->
<g id="node3" class="node">
<title>exposure</title>
<ellipse fill="none" stroke="black" cx="44.19" cy="-90" rx="44.19" ry="18"/>
<text text-anchor="middle" x="44.19" y="-84.95" font-family="Times,serif" font-size="14.00">exposure</text>
</g>
<!-- U1&#45;&gt;exposure -->
<g id="edge2" class="edge">
<title>U1&#45;&gt;exposure</title>
<path fill="none" stroke="black" d="M86.2,-145.46C79.61,-136.92 71.26,-126.1 63.75,-116.36"/>
<polygon fill="black" stroke="black" points="66.69,-114.45 57.81,-108.67 61.15,-118.72 66.69,-114.45"/>
</g>
<!-- outcome -->
<g id="node5" class="node">
<title>outcome</title>
<ellipse fill="none" stroke="black" cx="134.19" cy="-18" rx="43.16" ry="18"/>
<text text-anchor="middle" x="134.19" y="-12.95" font-family="Times,serif" font-size="14.00">outcome</text>
</g>
<!-- exposure&#45;&gt;outcome -->
<g id="edge5" class="edge">
<title>exposure&#45;&gt;outcome</title>
<path fill="none" stroke="black" d="M64.16,-73.46C76.36,-63.97 92.16,-51.68 105.67,-41.18"/>
<polygon fill="black" stroke="black" points="107.64,-44.08 113.38,-35.18 103.34,-38.56 107.64,-44.08"/>
</g>
<!-- U2 -->
<g id="node4" class="node">
<title>U2</title>
<ellipse fill="none" stroke="black" cx="187.19" cy="-162" rx="27" ry="18"/>
<text text-anchor="middle" x="187.19" y="-156.95" font-family="Times,serif" font-size="14.00">U2</text>
</g>
<!-- U2&#45;&gt;covariate -->
<g id="edge3" class="edge">
<title>U2&#45;&gt;covariate</title>
<path fill="none" stroke="black" d="M178.84,-144.76C174.78,-136.87 169.78,-127.16 165.17,-118.18"/>
<polygon fill="black" stroke="black" points="168.37,-116.76 160.68,-109.47 162.15,-119.96 168.37,-116.76"/>
</g>
<!-- U2&#45;&gt;outcome -->
<g id="edge4" class="edge">
<title>U2&#45;&gt;outcome</title>
<path fill="none" stroke="black" d="M196.48,-144.74C205.73,-126.24 216.99,-95.53 205.19,-72 198.04,-57.76 185.06,-46.36 172.12,-37.84"/>
<polygon fill="black" stroke="black" points="174,-34.88 163.63,-32.68 170.36,-40.86 174,-34.88"/>
</g>
</g>
</svg>