<?xml version="1.0" encoding="utf-8" standalone="no"?>
<!DOCTYPE svg PUBLIC "-//W3C//DTD SVG 1.1//EN"
  "http://www.w3.org/Graphics/SVG/1.1/DTD/svg11.dtd">
<svg xmlns:xlink="http://www.w3.org/1999/xlink" width="572.4pt" height="378.189219pt" viewBox="0 0 572.4 378.189219" xmlns="http://www.w3.org/2000/svg" version="1.1">
 <metadata>
  <rdf:RDF xmlns:dc="http://purl.org/dc/elements/1.1/" xmlns:cc="http://creativecommons.org/ns#" xmlns:rdf="http://www.w3.org/1999/02/22-rdf-syntax-ns#">
   <cc:Work>
    <dc:type rdf:resource="http://purl.org/dc/dcmitype/StillImage"/>
    <dc:date>2023-09-17T11:24:41.185300</dc:date>
    <dc:format>image/svg+xml</dc:format>
    <dc:creator>
     <cc:Agent>
      <dc:title>Matplotlib v3.7.2, https://matplotlib.org/</dc:title>
     </cc:Agent>
    </dc:creator>
   </cc:Work>
  </rdf:RDF>
 </metadata>
 <defs>
  <style type="text/css">*{stroke-linejoin: round; stroke-linecap: butt}</style>
 </defs>
 <g id="figure_1">
  <g id="patch_1">
   <path d="M 0 378.189219 
L 572.4 378.189219 
L 572.4 0 
L 0 0 
z
" style="fill: #ffffff"/>
  </g>
  <g id="axes_1">
   <g id="patch_2">
    <path d="M 7.2 354.429375 
L 565.2 354.429375 
L 565.2 21.789375 
L 7.2 21.789375 
z
" style="fill: #eaeaf2"/>
   </g>
   <g id="matplotlib.axis_1">
    <g id="xtick_1">
     <g id="line2d_1">
      <path d="M 51.828893 354.429375 
L 51.828893 21.789375 
" clip-path="url(#p8b645887e3)" style="fill: none; stroke: #ffffff; stroke-linecap: round"/>
     </g>
     <g id="line2d_2">
      <defs>
       <path id="ma29859b0ec" d="M 0 0 
L 0 3 
" style="stroke: #808080"/>
      </defs>
      <g>
       <use xlink:href="#ma29859b0ec" x="51.828893" y="354.429375" style="fill: #808080; stroke: #808080"/>
      </g>
     </g>
     <g id="text_1">
      <!-- 5 -->
      <g style="fill: #262626" transform="translate(48.770377 368.802969) scale(0.11 -0.11)">
       <defs>
        <path id="ArialMT-35" d="M 266 1200 
L 856 1250 
Q 922 819 1161 601 
Q 1400 384 1738 384 
Q 2144 384 2425 690 
Q 2706 997 2706 1503 
Q 2706 1984 2436 2262 
Q 2166 2541 1728 2541 
Q 1456 2541 1237 2417 
Q 1019 2294 894 2097 
L 366 2166 
L 809 4519 
L 3088 4519 
L 3088 3981 
L 1259 3981 
L 1013 2750 
Q 1425 3038 1878 3038 
Q 2478 3038 2890 2622 
Q 3303 2206 3303 1553 
Q 3303 931 2941 478 
Q 2500 -78 1738 -78 
Q 1113 -78 717 272 
Q 322 622 266 1200 
z
" transform="scale(0.015625)"/>
       </defs>
       <use xlink:href="#ArialMT-35"/>
      </g>
     </g>
    </g>
    <g id="xtick_2">
     <g id="line2d_3">
      <path d="M 157.366844 354.429375 
L 157.366844 21.789375 
" clip-path="url(#p8b645887e3)" style="fill: none; stroke: #ffffff; stroke-linecap: round"/>
     </g>
     <g id="line2d_4">
      <g>
       <use xlink:href="#ma29859b0ec" x="157.366844" y="354.429375" style="fill: #808080; stroke: #808080"/>
      </g>
     </g>
     <g id="text_2">
      <!-- 10 -->
      <g style="fill: #262626" transform="translate(151.249813 368.802969) scale(0.11 -0.11)">
       <defs>
        <path id="ArialMT-31" d="M 2384 0 
L 1822 0 
L 1822 3584 
Q 1619 3391 1289 3197 
Q 959 3003 697 2906 
L 697 3450 
Q 1169 3672 1522 3987 
Q 1875 4303 2022 4600 
L 2384 4600 
L 2384 0 
z
" transform="scale(0.015625)"/>
        <path id="ArialMT-30" d="M 266 2259 
Q 266 3072 433 3567 
Q 600 4063 929 4331 
Q 1259 4600 1759 4600 
Q 2128 4600 2406 4451 
Q 2684 4303 2865 4023 
Q 3047 3744 3150 3342 
Q 3253 2941 3253 2259 
Q 3253 1453 3087 958 
Q 2922 463 2592 192 
Q 2263 -78 1759 -78 
Q 1097 -78 719 397 
Q 266 969 266 2259 
z
M 844 2259 
Q 844 1131 1108 757 
Q 1372 384 1759 384 
Q 2147 384 2411 759 
Q 2675 1134 2675 2259 
Q 2675 3391 2411 3762 
Q 2147 4134 1753 4134 
Q 1366 4134 1134 3806 
Q 844 3388 844 2259 
z
" transform="scale(0.015625)"/>
       </defs>
       <use xlink:href="#ArialMT-31"/>
       <use xlink:href="#ArialMT-30" x="55.615234"/>
      </g>
     </g>
    </g>
    <g id="xtick_3">
     <g id="line2d_5">
      <path d="M 262.904795 354.429375 
L 262.904795 21.789375 
" clip-path="url(#p8b645887e3)" style="fill: none; stroke: #ffffff; stroke-linecap: round"/>
     </g>
     <g id="line2d_6">
      <g>
       <use xlink:href="#ma29859b0ec" x="262.904795" y="354.429375" style="fill: #808080; stroke: #808080"/>
      </g>
     </g>
     <g id="text_3">
      <!-- 15 -->
      <g style="fill: #262626" transform="translate(256.787764 368.802969) scale(0.11 -0.11)">
       <use xlink:href="#ArialMT-31"/>
       <use xlink:href="#ArialMT-35" x="55.615234"/>
      </g>
     </g>
    </g>
    <g id="xtick_4">
     <g id="line2d_7">
      <path d="M 368.442747 354.429375 
L 368.442747 21.789375 
" clip-path="url(#p8b645887e3)" style="fill: none; stroke: #ffffff; stroke-linecap: round"/>
     </g>
     <g id="line2d_8">
      <g>
       <use xlink:href="#ma29859b0ec" x="368.442747" y="354.429375" style="fill: #808080; stroke: #808080"/>
      </g>
     </g>
     <g id="text_4">
      <!-- 20 -->
      <g style="fill: #262626" transform="translate(362.325716 368.802969) scale(0.11 -0.11)">
       <defs>
        <path id="ArialMT-32" d="M 3222 541 
L 3222 0 
L 194 0 
Q 188 203 259 391 
Q 375 700 629 1000 
Q 884 1300 1366 1694 
Q 2113 2306 2375 2664 
Q 2638 3022 2638 3341 
Q 2638 3675 2398 3904 
Q 2159 4134 1775 4134 
Q 1369 4134 1125 3890 
Q 881 3647 878 3216 
L 300 3275 
Q 359 3922 746 4261 
Q 1134 4600 1788 4600 
Q 2447 4600 2831 4234 
Q 3216 3869 3216 3328 
Q 3216 3053 3103 2787 
Q 2991 2522 2730 2228 
Q 2469 1934 1863 1422 
Q 1356 997 1212 845 
Q 1069 694 975 541 
L 3222 541 
z
" transform="scale(0.015625)"/>
       </defs>
       <use xlink:href="#ArialMT-32"/>
       <use xlink:href="#ArialMT-30" x="55.615234"/>
      </g>
     </g>
    </g>
    <g id="xtick_5">
     <g id="line2d_9">
      <path d="M 473.980698 354.429375 
L 473.980698 21.789375 
" clip-path="url(#p8b645887e3)" style="fill: none; stroke: #ffffff; stroke-linecap: round"/>
     </g>
     <g id="line2d_10">
      <g>
       <use xlink:href="#ma29859b0ec" x="473.980698" y="354.429375" style="fill: #808080; stroke: #808080"/>
      </g>
     </g>
     <g id="text_5">
      <!-- 25 -->
      <g style="fill: #262626" transform="translate(467.863667 368.802969) scale(0.11 -0.11)">
       <use xlink:href="#ArialMT-32"/>
       <use xlink:href="#ArialMT-35" x="55.615234"/>
      </g>
     </g>
    </g>
   </g>
   <g id="matplotlib.axis_2"/>
   <g id="PolyCollection_1">
    <defs>
     <path id="mb6ec6fc80a" d="M 32.563636 -38.879844 
L 32.563636 -48.090047 
L 33.556342 -48.143061 
L 34.549048 -48.245036 
L 35.541754 -48.379109 
L 36.53446 -48.547529 
L 37.527166 -48.777218 
L 38.519872 -49.059169 
L 39.512578 -49.386809 
L 40.505284 -49.777689 
L 41.49799 -50.208619 
L 42.490696 -50.707988 
L 43.483402 -51.273789 
L 44.476107 -51.894547 
L 45.468813 -52.580926 
L 46.461519 -53.341424 
L 47.454225 -54.160435 
L 48.446931 -55.049458 
L 49.439637 -56.013531 
L 50.432343 -57.04108 
L 51.425049 -58.132773 
L 52.417755 -59.305058 
L 53.410461 -60.542852 
L 54.403167 -61.83135 
L 55.395873 -63.185924 
L 56.388579 -64.610429 
L 57.381284 -66.075555 
L 58.37399 -67.590517 
L 59.366696 -69.155548 
L 60.359402 -70.763871 
L 61.352108 -72.387268 
L 62.344814 -74.058748 
L 63.33752 -75.766734 
L 64.330226 -77.481861 
L 65.322932 -79.227986 
L 66.315638 -81.001798 
L 67.308344 -82.780189 
L 68.30105 -84.581132 
L 69.293756 -86.403524 
L 70.286461 -88.226152 
L 71.279167 -90.108736 
L 72.271873 -91.987914 
L 73.264579 -93.894203 
L 74.257285 -95.817688 
L 75.249991 -97.780607 
L 76.242697 -99.742643 
L 77.235403 -101.753572 
L 78.228109 -103.799015 
L 79.220815 -105.865179 
L 80.213521 -107.992637 
L 81.206227 -110.144636 
L 82.198933 -112.342972 
L 83.191638 -114.600765 
L 84.184344 -116.918062 
L 85.17705 -119.31209 
L 86.169756 -121.766875 
L 87.162462 -124.297453 
L 88.155168 -126.881449 
L 89.147874 -129.558553 
L 90.14058 -132.339149 
L 91.133286 -135.210558 
L 92.125992 -138.167892 
L 93.118698 -141.216822 
L 94.111404 -144.348498 
L 95.10411 -147.580536 
L 96.096816 -150.905371 
L 97.089521 -154.288001 
L 98.082227 -157.783438 
L 99.074933 -161.340507 
L 100.067639 -164.91844 
L 101.060345 -168.547814 
L 102.053051 -172.214848 
L 103.045757 -175.904248 
L 104.038463 -179.627568 
L 105.031169 -183.343929 
L 106.023875 -187.046488 
L 107.016581 -190.700559 
L 108.009287 -194.320956 
L 109.001993 -197.898606 
L 109.994698 -201.430943 
L 110.987404 -204.92821 
L 111.98011 -208.320356 
L 112.972816 -211.683704 
L 113.965522 -214.976223 
L 114.958228 -218.25053 
L 115.950934 -221.46594 
L 116.94364 -224.596636 
L 117.936346 -227.707033 
L 118.929052 -230.767978 
L 119.921758 -233.791433 
L 120.914464 -236.770684 
L 121.90717 -239.715553 
L 122.899875 -242.661606 
L 123.892581 -245.559843 
L 124.885287 -248.443981 
L 125.877993 -251.307367 
L 126.870699 -254.122919 
L 127.863405 -256.918662 
L 128.856111 -259.684382 
L 129.848817 -262.425389 
L 130.841523 -265.111745 
L 131.834229 -267.735607 
L 132.826935 -270.349387 
L 133.819641 -272.888555 
L 134.812347 -275.375156 
L 135.805052 -277.788398 
L 136.797758 -280.150719 
L 137.790464 -282.445828 
L 138.78317 -284.669765 
L 139.775876 -286.802288 
L 140.768582 -288.891168 
L 141.761288 -290.940513 
L 142.753994 -292.93516 
L 143.7467 -294.857693 
L 144.739406 -296.741472 
L 145.732112 -298.540419 
L 146.724818 -300.297536 
L 147.717524 -302.014988 
L 148.710229 -303.622422 
L 149.702935 -305.248515 
L 150.695641 -306.798448 
L 151.688347 -308.275362 
L 152.681053 -309.688377 
L 153.673759 -311.080626 
L 154.666465 -312.440244 
L 155.659171 -313.73077 
L 156.651877 -314.987626 
L 157.644583 -316.180258 
L 158.637289 -317.315353 
L 159.629995 -318.443977 
L 160.622701 -319.547834 
L 161.615407 -320.609842 
L 162.608112 -321.654447 
L 163.600818 -322.695737 
L 164.593524 -323.736845 
L 165.58623 -324.761627 
L 166.578936 -325.766607 
L 167.571642 -326.779115 
L 168.564348 -327.850603 
L 169.557054 -328.869804 
L 170.54976 -329.898777 
L 171.542466 -330.903868 
L 172.535172 -331.883613 
L 173.527878 -332.861742 
L 174.520584 -333.819732 
L 175.513289 -334.741939 
L 176.505995 -335.613847 
L 177.498701 -336.465537 
L 178.491407 -337.256713 
L 179.484113 -337.95726 
L 180.476819 -338.647316 
L 181.469525 -339.237427 
L 182.462231 -339.741549 
L 183.454937 -340.165559 
L 184.447643 -340.525077 
L 185.440349 -340.861443 
L 186.433055 -341.064433 
L 187.425761 -341.21859 
L 188.418466 -341.279348 
L 189.411172 -341.279844 
L 190.403878 -341.183448 
L 191.396584 -340.967388 
L 192.38929 -340.704548 
L 193.381996 -340.348398 
L 194.374702 -339.92591 
L 195.367408 -339.421496 
L 196.360114 -338.776906 
L 197.35282 -338.029414 
L 198.345526 -337.176835 
L 199.338232 -336.198321 
L 200.330938 -335.144573 
L 201.323643 -333.935083 
L 202.316349 -332.670795 
L 203.309055 -331.291244 
L 204.301761 -329.796587 
L 205.294467 -328.190581 
L 206.287173 -326.495622 
L 207.279879 -324.72692 
L 208.272585 -322.899088 
L 209.265291 -320.995951 
L 210.257997 -319.012405 
L 211.250703 -317.010942 
L 212.243409 -314.981873 
L 213.236115 -312.941317 
L 214.22882 -310.892777 
L 215.221526 -308.817143 
L 216.214232 -306.736551 
L 217.206938 -304.722429 
L 218.199644 -302.663653 
L 219.19235 -300.675682 
L 220.185056 -298.683279 
L 221.177762 -296.707051 
L 222.170468 -294.716684 
L 223.163174 -292.758365 
L 224.15588 -290.808732 
L 225.148586 -288.854937 
L 226.141292 -286.908133 
L 227.133998 -284.939504 
L 228.126703 -282.941767 
L 229.119409 -280.920903 
L 230.112115 -278.890427 
L 231.104821 -276.80271 
L 232.097527 -274.679141 
L 233.090233 -272.494335 
L 234.082939 -270.276092 
L 235.075645 -267.994855 
L 236.068351 -265.651738 
L 237.061057 -263.204474 
L 238.053763 -260.732631 
L 239.046469 -258.19792 
L 240.039175 -255.628241 
L 241.03188 -253.001871 
L 242.024586 -250.306372 
L 243.017292 -247.572323 
L 244.009998 -244.824834 
L 245.002704 -242.030616 
L 245.99541 -239.214739 
L 246.988116 -236.391242 
L 247.980822 -233.569316 
L 248.973528 -230.731331 
L 249.966234 -227.924599 
L 250.95894 -225.14419 
L 251.951646 -222.370146 
L 252.944352 -219.645362 
L 253.937057 -216.917111 
L 254.929763 -214.254557 
L 255.922469 -211.629915 
L 256.915175 -209.043283 
L 257.907881 -206.503208 
L 258.900587 -204.021855 
L 259.893293 -201.573871 
L 260.885999 -199.140221 
L 261.878705 -196.745651 
L 262.871411 -194.382845 
L 263.864117 -192.06369 
L 264.856823 -189.80801 
L 265.849529 -187.560982 
L 266.842234 -185.351553 
L 267.83494 -183.183193 
L 268.827646 -181.019397 
L 269.820352 -178.890757 
L 270.813058 -176.733079 
L 271.805764 -174.630725 
L 272.79847 -172.58834 
L 273.791176 -170.544614 
L 274.783882 -168.526968 
L 275.776588 -166.531541 
L 276.769294 -164.530244 
L 277.762 -162.589656 
L 278.754706 -160.675973 
L 279.747411 -158.763057 
L 280.740117 -156.871638 
L 281.732823 -155.015762 
L 282.725529 -153.175076 
L 283.718235 -151.356869 
L 284.710941 -149.575327 
L 285.703647 -147.784675 
L 286.696353 -146.02966 
L 287.689059 -144.272291 
L 288.681765 -142.55635 
L 289.674471 -140.859463 
L 290.667177 -139.168942 
L 291.659883 -137.491866 
L 292.652589 -135.857667 
L 293.645294 -134.235524 
L 294.638 -132.625301 
L 295.630706 -131.036173 
L 296.623412 -129.454937 
L 297.616118 -127.895953 
L 298.608824 -126.34997 
L 299.60153 -124.849716 
L 300.594236 -123.360969 
L 301.586942 -121.908273 
L 302.579648 -120.494655 
L 303.572354 -119.117485 
L 304.56506 -117.768101 
L 305.557766 -116.468728 
L 306.550471 -115.200589 
L 307.543177 -113.946098 
L 308.535883 -112.727236 
L 309.528589 -111.551676 
L 310.521295 -110.403083 
L 311.514001 -109.285762 
L 312.506707 -108.191986 
L 313.499413 -107.129531 
L 314.492119 -106.057548 
L 315.484825 -105.022283 
L 316.477531 -103.996647 
L 317.470237 -102.990157 
L 318.462943 -101.982471 
L 319.455648 -100.991617 
L 320.448354 -99.98624 
L 321.44106 -98.986633 
L 322.433766 -98.002901 
L 323.426472 -97.001558 
L 324.419178 -95.992876 
L 325.411884 -95.00636 
L 326.40459 -93.987693 
L 327.397296 -92.985636 
L 328.390002 -91.994849 
L 329.382708 -91.001054 
L 330.375414 -89.992277 
L 331.36812 -88.987652 
L 332.360825 -87.988148 
L 333.353531 -86.98648 
L 334.346237 -86.012173 
L 335.338943 -85.031011 
L 336.331649 -84.05059 
L 337.324355 -83.07419 
L 338.317061 -82.122811 
L 339.309767 -81.184614 
L 340.302473 -80.239262 
L 341.295179 -79.30844 
L 342.287885 -78.3914 
L 343.280591 -77.482136 
L 344.273297 -76.595106 
L 345.266002 -75.725476 
L 346.258708 -74.858483 
L 347.251414 -74.01875 
L 348.24412 -73.215867 
L 349.236826 -72.440946 
L 350.229532 -71.678173 
L 351.222238 -70.949109 
L 352.214944 -70.261551 
L 353.20765 -69.582189 
L 354.200356 -68.938742 
L 355.193062 -68.317296 
L 356.185768 -67.724301 
L 357.178474 -67.167815 
L 358.17118 -66.630965 
L 359.163885 -66.117542 
L 360.156591 -65.61235 
L 361.149297 -65.120553 
L 362.142003 -64.651039 
L 363.134709 -64.179725 
L 364.127415 -63.71809 
L 365.120121 -63.254861 
L 366.112827 -62.794706 
L 367.105533 -62.345005 
L 368.098239 -61.874471 
L 369.090945 -61.397331 
L 370.083651 -60.920895 
L 371.076357 -60.434722 
L 372.069062 -59.944529 
L 373.061768 -59.459614 
L 374.054474 -58.966073 
L 375.04718 -58.471667 
L 376.039886 -57.983791 
L 377.032592 -57.499778 
L 378.025298 -57.021747 
L 379.018004 -56.566865 
L 380.01071 -56.11572 
L 381.003416 -55.679572 
L 381.996122 -55.263269 
L 382.988828 -54.867423 
L 383.981534 -54.48438 
L 384.974239 -54.124901 
L 385.966945 -53.777805 
L 386.959651 -53.445442 
L 387.952357 -53.129622 
L 388.945063 -52.831448 
L 389.937769 -52.544174 
L 390.930475 -52.264355 
L 391.923181 -51.997307 
L 392.915887 -51.72699 
L 393.908593 -51.456723 
L 394.901299 -51.189816 
L 395.894005 -50.919095 
L 396.886711 -50.651348 
L 397.879416 -50.381192 
L 398.872122 -50.106638 
L 399.864828 -49.827033 
L 400.857534 -49.545999 
L 401.85024 -49.25977 
L 402.842946 -48.961312 
L 403.835652 -48.66849 
L 404.828358 -48.371697 
L 405.821064 -48.074176 
L 406.81377 -47.777725 
L 407.806476 -47.493089 
L 408.799182 -47.209318 
L 409.791888 -46.933958 
L 410.784593 -46.671118 
L 411.777299 -46.414663 
L 412.770005 -46.166455 
L 413.762711 -45.929922 
L 414.755417 -45.709212 
L 415.748123 -45.502982 
L 416.740829 -45.306735 
L 417.733535 -45.123886 
L 418.726241 -44.954134 
L 419.718947 -44.797959 
L 420.711653 -44.644824 
L 421.704359 -44.507722 
L 422.697065 -44.3816 
L 423.689771 -44.260464 
L 424.682476 -44.147996 
L 425.675182 -44.041087 
L 426.667888 -43.938668 
L 427.660594 -43.83876 
L 428.6533 -43.743888 
L 429.646006 -43.653913 
L 430.638712 -43.56359 
L 431.631418 -43.471648 
L 432.624124 -43.382695 
L 433.61683 -43.297635 
L 434.609536 -43.212731 
L 435.602242 -43.122267 
L 436.594948 -43.038428 
L 437.587653 -42.953963 
L 438.580359 -42.867894 
L 439.573065 -42.788401 
L 440.565771 -42.708099 
L 441.558477 -42.628787 
L 442.551183 -42.551671 
L 443.543889 -42.475989 
L 444.536595 -42.397997 
L 445.529301 -42.320672 
L 446.522007 -42.238612 
L 447.514713 -42.156556 
L 448.507419 -42.073446 
L 449.500125 -41.986887 
L 450.49283 -41.895028 
L 451.485536 -41.799457 
L 452.478242 -41.699914 
L 453.470948 -41.594794 
L 454.463654 -41.488987 
L 455.45636 -41.378862 
L 456.449066 -41.264872 
L 457.441772 -41.146094 
L 458.434478 -41.023573 
L 459.427184 -40.901327 
L 460.41989 -40.778133 
L 461.412596 -40.65629 
L 462.405302 -40.531775 
L 463.398007 -40.412221 
L 464.390713 -40.293087 
L 465.383419 -40.178576 
L 466.376125 -40.065997 
L 467.368831 -39.957906 
L 468.361537 -39.856286 
L 469.354243 -39.756694 
L 470.346949 -39.663274 
L 471.339655 -39.579124 
L 472.332361 -39.499068 
L 473.325067 -39.426628 
L 474.317773 -39.359909 
L 475.310479 -39.2989 
L 476.303184 -39.243511 
L 477.29589 -39.193577 
L 478.288596 -39.147387 
L 479.281302 -39.108034 
L 480.274008 -39.073254 
L 481.266714 -39.042739 
L 482.25942 -39.014669 
L 483.252126 -38.990573 
L 484.244832 -38.968533 
L 485.237538 -38.9515 
L 486.230244 -38.937135 
L 487.22295 -38.925105 
L 488.215656 -38.916593 
L 489.208362 -38.909449 
L 490.201067 -38.903506 
L 491.193773 -38.897118 
L 492.186479 -38.893495 
L 493.179185 -38.890545 
L 494.171891 -38.888165 
L 495.164597 -38.886261 
L 496.157303 -38.883263 
L 497.150009 -38.882458 
L 498.142715 -38.881826 
L 499.135421 -38.879844 
L 500.128127 -38.879844 
L 501.120833 -38.879844 
L 502.113539 -38.879844 
L 503.106244 -38.879844 
L 504.09895 -38.879844 
L 505.091656 -38.879844 
L 506.084362 -38.881826 
L 507.077068 -38.88444 
L 508.069774 -38.885877 
L 509.06248 -38.887699 
L 510.055186 -38.889986 
L 511.047892 -38.892833 
L 512.040598 -38.896342 
L 513.033304 -38.900626 
L 514.02601 -38.905809 
L 515.018716 -38.912017 
L 516.011421 -38.919382 
L 517.004127 -38.928035 
L 517.996833 -38.938098 
L 518.989539 -38.949685 
L 519.982245 -38.962889 
L 520.974951 -38.977778 
L 521.967657 -38.994388 
L 522.960363 -39.012715 
L 523.953069 -39.032708 
L 524.945775 -39.054267 
L 525.938481 -39.077231 
L 526.931187 -39.101384 
L 527.923893 -39.126451 
L 528.916598 -39.1521 
L 529.909304 -39.177948 
L 530.90201 -39.20357 
L 531.894716 -39.228508 
L 532.887422 -39.252283 
L 533.880128 -39.274412 
L 534.872834 -39.294424 
L 535.86554 -39.311873 
L 536.858246 -39.32636 
L 537.850952 -39.337543 
L 538.843658 -39.345154 
L 539.836364 -39.349006 
L 539.836364 -38.879844 
L 539.836364 -38.879844 
L 538.843658 -38.879844 
L 537.850952 -38.879844 
L 536.858246 -38.879844 
L 535.86554 -38.879844 
L 534.872834 -38.879844 
L 533.880128 -38.879844 
L 532.887422 -38.879844 
L 531.894716 -38.879844 
L 530.90201 -38.879844 
L 529.909304 -38.879844 
L 528.916598 -38.879844 
L 527.923893 -38.879844 
L 526.931187 -38.879844 
L 525.938481 -38.879844 
L 524.945775 -38.879844 
L 523.953069 -38.879844 
L 522.960363 -38.879844 
L 521.967657 -38.879844 
L 520.974951 -38.879844 
L 519.982245 -38.879844 
L 518.989539 -38.879844 
L 517.996833 -38.879844 
L 517.004127 -38.879844 
L 516.011421 -38.879844 
L 515.018716 -38.879844 
L 514.02601 -38.879844 
L 513.033304 -38.879844 
L 512.040598 -38.879844 
L 511.047892 -38.879844 
L 510.055186 -38.879844 
L 509.06248 -38.879844 
L 508.069774 -38.879844 
L 507.077068 -38.879844 
L 506.084362 -38.879844 
L 505.091656 -38.879844 
L 504.09895 -38.879844 
L 503.106244 -38.879844 
L 502.113539 -38.879844 
L 501.120833 -38.879844 
L 500.128127 -38.879844 
L 499.135421 -38.879844 
L 498.142715 -38.879844 
L 497.150009 -38.879844 
L 496.157303 -38.879844 
L 495.164597 -38.879844 
L 494.171891 -38.879844 
L 493.179185 -38.879844 
L 492.186479 -38.879844 
L 491.193773 -38.879844 
L 490.201067 -38.879844 
L 489.208362 -38.879844 
L 488.215656 -38.879844 
L 487.22295 -38.879844 
L 486.230244 -38.879844 
L 485.237538 -38.879844 
L 484.244832 -38.879844 
L 483.252126 -38.879844 
L 482.25942 -38.879844 
L 481.266714 -38.879844 
L 480.274008 -38.879844 
L 479.281302 -38.879844 
L 478.288596 -38.879844 
L 477.29589 -38.879844 
L 476.303184 -38.879844 
L 475.310479 -38.879844 
L 474.317773 -38.879844 
L 473.325067 -38.879844 
L 472.332361 -38.879844 
L 471.339655 -38.879844 
L 470.346949 -38.879844 
L 469.354243 -38.879844 
L 468.361537 -38.879844 
L 467.368831 -38.879844 
L 466.376125 -38.879844 
L 465.383419 -38.879844 
L 464.390713 -38.879844 
L 463.398007 -38.879844 
L 462.405302 -38.879844 
L 461.412596 -38.879844 
L 460.41989 -38.879844 
L 459.427184 -38.879844 
L 458.434478 -38.879844 
L 457.441772 -38.879844 
L 456.449066 -38.879844 
L 455.45636 -38.879844 
L 454.463654 -38.879844 
L 453.470948 -38.879844 
L 452.478242 -38.879844 
L 451.485536 -38.879844 
L 450.49283 -38.879844 
L 449.500125 -38.879844 
L 448.507419 -38.879844 
L 447.514713 -38.879844 
L 446.522007 -38.879844 
L 445.529301 -38.879844 
L 444.536595 -38.879844 
L 443.543889 -38.879844 
L 442.551183 -38.879844 
L 441.558477 -38.879844 
L 440.565771 -38.879844 
L 439.573065 -38.879844 
L 438.580359 -38.879844 
L 437.587653 -38.879844 
L 436.594948 -38.879844 
L 435.602242 -38.879844 
L 434.609536 -38.879844 
L 433.61683 -38.879844 
L 432.624124 -38.879844 
L 431.631418 -38.879844 
L 430.638712 -38.879844 
L 429.646006 -38.879844 
L 428.6533 -38.879844 
L 427.660594 -38.879844 
L 426.667888 -38.879844 
L 425.675182 -38.879844 
L 424.682476 -38.879844 
L 423.689771 -38.879844 
L 422.697065 -38.879844 
L 421.704359 -38.879844 
L 420.711653 -38.879844 
L 419.718947 -38.879844 
L 418.726241 -38.879844 
L 417.733535 -38.879844 
L 416.740829 -38.879844 
L 415.748123 -38.879844 
L 414.755417 -38.879844 
L 413.762711 -38.879844 
L 412.770005 -38.879844 
L 411.777299 -38.879844 
L 410.784593 -38.879844 
L 409.791888 -38.879844 
L 408.799182 -38.879844 
L 407.806476 -38.879844 
L 406.81377 -38.879844 
L 405.821064 -38.879844 
L 404.828358 -38.879844 
L 403.835652 -38.879844 
L 402.842946 -38.879844 
L 401.85024 -38.879844 
L 400.857534 -38.879844 
L 399.864828 -38.879844 
L 398.872122 -38.879844 
L 397.879416 -38.879844 
L 396.886711 -38.879844 
L 395.894005 -38.879844 
L 394.901299 -38.879844 
L 393.908593 -38.879844 
L 392.915887 -38.879844 
L 391.923181 -38.879844 
L 390.930475 -38.879844 
L 389.937769 -38.879844 
L 388.945063 -38.879844 
L 387.952357 -38.879844 
L 386.959651 -38.879844 
L 385.966945 -38.879844 
L 384.974239 -38.879844 
L 383.981534 -38.879844 
L 382.988828 -38.879844 
L 381.996122 -38.879844 
L 381.003416 -38.879844 
L 380.01071 -38.879844 
L 379.018004 -38.879844 
L 378.025298 -38.879844 
L 377.032592 -38.879844 
L 376.039886 -38.879844 
L 375.04718 -38.879844 
L 374.054474 -38.879844 
L 373.061768 -38.879844 
L 372.069062 -38.879844 
L 371.076357 -38.879844 
L 370.083651 -38.879844 
L 369.090945 -38.879844 
L 368.098239 -38.879844 
L 367.105533 -38.879844 
L 366.112827 -38.879844 
L 365.120121 -38.879844 
L 364.127415 -38.879844 
L 363.134709 -38.879844 
L 362.142003 -38.879844 
L 361.149297 -38.879844 
L 360.156591 -38.879844 
L 359.163885 -38.879844 
L 358.17118 -38.879844 
L 357.178474 -38.879844 
L 356.185768 -38.879844 
L 355.193062 -38.879844 
L 354.200356 -38.879844 
L 353.20765 -38.879844 
L 352.214944 -38.879844 
L 351.222238 -38.879844 
L 350.229532 -38.879844 
L 349.236826 -38.879844 
L 348.24412 -38.879844 
L 347.251414 -38.879844 
L 346.258708 -38.879844 
L 345.266002 -38.879844 
L 344.273297 -38.879844 
L 343.280591 -38.879844 
L 342.287885 -38.879844 
L 341.295179 -38.879844 
L 340.302473 -38.879844 
L 339.309767 -38.879844 
L 338.317061 -38.879844 
L 337.324355 -38.879844 
L 336.331649 -38.879844 
L 335.338943 -38.879844 
L 334.346237 -38.879844 
L 333.353531 -38.879844 
L 332.360825 -38.879844 
L 331.36812 -38.879844 
L 330.375414 -38.879844 
L 329.382708 -38.879844 
L 328.390002 -38.879844 
L 327.397296 -38.879844 
L 326.40459 -38.879844 
L 325.411884 -38.879844 
L 324.419178 -38.879844 
L 323.426472 -38.879844 
L 322.433766 -38.879844 
L 321.44106 -38.879844 
L 320.448354 -38.879844 
L 319.455648 -38.879844 
L 318.462943 -38.879844 
L 317.470237 -38.879844 
L 316.477531 -38.879844 
L 315.484825 -38.879844 
L 314.492119 -38.879844 
L 313.499413 -38.879844 
L 312.506707 -38.879844 
L 311.514001 -38.879844 
L 310.521295 -38.879844 
L 309.528589 -38.879844 
L 308.535883 -38.879844 
L 307.543177 -38.879844 
L 306.550471 -38.879844 
L 305.557766 -38.879844 
L 304.56506 -38.879844 
L 303.572354 -38.879844 
L 302.579648 -38.879844 
L 301.586942 -38.879844 
L 300.594236 -38.879844 
L 299.60153 -38.879844 
L 298.608824 -38.879844 
L 297.616118 -38.879844 
L 296.623412 -38.879844 
L 295.630706 -38.879844 
L 294.638 -38.879844 
L 293.645294 -38.879844 
L 292.652589 -38.879844 
L 291.659883 -38.879844 
L 290.667177 -38.879844 
L 289.674471 -38.879844 
L 288.681765 -38.879844 
L 287.689059 -38.879844 
L 286.696353 -38.879844 
L 285.703647 -38.879844 
L 284.710941 -38.879844 
L 283.718235 -38.879844 
L 282.725529 -38.879844 
L 281.732823 -38.879844 
L 280.740117 -38.879844 
L 279.747411 -38.879844 
L 278.754706 -38.879844 
L 277.762 -38.879844 
L 276.769294 -38.879844 
L 275.776588 -38.879844 
L 274.783882 -38.879844 
L 273.791176 -38.879844 
L 272.79847 -38.879844 
L 271.805764 -38.879844 
L 270.813058 -38.879844 
L 269.820352 -38.879844 
L 268.827646 -38.879844 
L 267.83494 -38.879844 
L 266.842234 -38.879844 
L 265.849529 -38.879844 
L 264.856823 -38.879844 
L 263.864117 -38.879844 
L 262.871411 -38.879844 
L 261.878705 -38.879844 
L 260.885999 -38.879844 
L 259.893293 -38.879844 
L 258.900587 -38.879844 
L 257.907881 -38.879844 
L 256.915175 -38.879844 
L 255.922469 -38.879844 
L 254.929763 -38.879844 
L 253.937057 -38.879844 
L 252.944352 -38.879844 
L 251.951646 -38.879844 
L 250.95894 -38.879844 
L 249.966234 -38.879844 
L 248.973528 -38.879844 
L 247.980822 -38.879844 
L 246.988116 -38.879844 
L 245.99541 -38.879844 
L 245.002704 -38.879844 
L 244.009998 -38.879844 
L 243.017292 -38.879844 
L 242.024586 -38.879844 
L 241.03188 -38.879844 
L 240.039175 -38.879844 
L 239.046469 -38.879844 
L 238.053763 -38.879844 
L 237.061057 -38.879844 
L 236.068351 -38.879844 
L 235.075645 -38.879844 
L 234.082939 -38.879844 
L 233.090233 -38.879844 
L 232.097527 -38.879844 
L 231.104821 -38.879844 
L 230.112115 -38.879844 
L 229.119409 -38.879844 
L 228.126703 -38.879844 
L 227.133998 -38.879844 
L 226.141292 -38.879844 
L 225.148586 -38.879844 
L 224.15588 -38.879844 
L 223.163174 -38.879844 
L 222.170468 -38.879844 
L 221.177762 -38.879844 
L 220.185056 -38.879844 
L 219.19235 -38.879844 
L 218.199644 -38.879844 
L 217.206938 -38.879844 
L 216.214232 -38.879844 
L 215.221526 -38.879844 
L 214.22882 -38.879844 
L 213.236115 -38.879844 
L 212.243409 -38.879844 
L 211.250703 -38.879844 
L 210.257997 -38.879844 
L 209.265291 -38.879844 
L 208.272585 -38.879844 
L 207.279879 -38.879844 
L 206.287173 -38.879844 
L 205.294467 -38.879844 
L 204.301761 -38.879844 
L 203.309055 -38.879844 
L 202.316349 -38.879844 
L 201.323643 -38.879844 
L 200.330938 -38.879844 
L 199.338232 -38.879844 
L 198.345526 -38.879844 
L 197.35282 -38.879844 
L 196.360114 -38.879844 
L 195.367408 -38.879844 
L 194.374702 -38.879844 
L 193.381996 -38.879844 
L 192.38929 -38.879844 
L 191.396584 -38.879844 
L 190.403878 -38.879844 
L 189.411172 -38.879844 
L 188.418466 -38.879844 
L 187.425761 -38.879844 
L 186.433055 -38.879844 
L 185.440349 -38.879844 
L 184.447643 -38.879844 
L 183.454937 -38.879844 
L 182.462231 -38.879844 
L 181.469525 -38.879844 
L 180.476819 -38.879844 
L 179.484113 -38.879844 
L 178.491407 -38.879844 
L 177.498701 -38.879844 
L 176.505995 -38.879844 
L 175.513289 -38.879844 
L 174.520584 -38.879844 
L 173.527878 -38.879844 
L 172.535172 -38.879844 
L 171.542466 -38.879844 
L 170.54976 -38.879844 
L 169.557054 -38.879844 
L 168.564348 -38.879844 
L 167.571642 -38.879844 
L 166.578936 -38.879844 
L 165.58623 -38.879844 
L 164.593524 -38.879844 
L 163.600818 -38.879844 
L 162.608112 -38.879844 
L 161.615407 -38.879844 
L 160.622701 -38.879844 
L 159.629995 -38.879844 
L 158.637289 -38.879844 
L 157.644583 -38.879844 
L 156.651877 -38.879844 
L 155.659171 -38.879844 
L 154.666465 -38.879844 
L 153.673759 -38.879844 
L 152.681053 -38.879844 
L 151.688347 -38.879844 
L 150.695641 -38.879844 
L 149.702935 -38.879844 
L 148.710229 -38.879844 
L 147.717524 -38.879844 
L 146.724818 -38.879844 
L 145.732112 -38.879844 
L 144.739406 -38.879844 
L 143.7467 -38.879844 
L 142.753994 -38.879844 
L 141.761288 -38.879844 
L 140.768582 -38.879844 
L 139.775876 -38.879844 
L 138.78317 -38.879844 
L 137.790464 -38.879844 
L 136.797758 -38.879844 
L 135.805052 -38.879844 
L 134.812347 -38.879844 
L 133.819641 -38.879844 
L 132.826935 -38.879844 
L 131.834229 -38.879844 
L 130.841523 -38.879844 
L 129.848817 -38.879844 
L 128.856111 -38.879844 
L 127.863405 -38.879844 
L 126.870699 -38.879844 
L 125.877993 -38.879844 
L 124.885287 -38.879844 
L 123.892581 -38.879844 
L 122.899875 -38.879844 
L 121.90717 -38.879844 
L 120.914464 -38.879844 
L 119.921758 -38.879844 
L 118.929052 -38.879844 
L 117.936346 -38.879844 
L 116.94364 -38.879844 
L 115.950934 -38.879844 
L 114.958228 -38.879844 
L 113.965522 -38.879844 
L 112.972816 -38.879844 
L 111.98011 -38.879844 
L 110.987404 -38.879844 
L 109.994698 -38.879844 
L 109.001993 -38.879844 
L 108.009287 -38.879844 
L 107.016581 -38.879844 
L 106.023875 -38.879844 
L 105.031169 -38.879844 
L 104.038463 -38.879844 
L 103.045757 -38.879844 
L 102.053051 -38.879844 
L 101.060345 -38.879844 
L 100.067639 -38.879844 
L 99.074933 -38.879844 
L 98.082227 -38.879844 
L 97.089521 -38.879844 
L 96.096816 -38.879844 
L 95.10411 -38.879844 
L 94.111404 -38.879844 
L 93.118698 -38.879844 
L 92.125992 -38.879844 
L 91.133286 -38.879844 
L 90.14058 -38.879844 
L 89.147874 -38.879844 
L 88.155168 -38.879844 
L 87.162462 -38.879844 
L 86.169756 -38.879844 
L 85.17705 -38.879844 
L 84.184344 -38.879844 
L 83.191638 -38.879844 
L 82.198933 -38.879844 
L 81.206227 -38.879844 
L 80.213521 -38.879844 
L 79.220815 -38.879844 
L 78.228109 -38.879844 
L 77.235403 -38.879844 
L 76.242697 -38.879844 
L 75.249991 -38.879844 
L 74.257285 -38.879844 
L 73.264579 -38.879844 
L 72.271873 -38.879844 
L 71.279167 -38.879844 
L 70.286461 -38.879844 
L 69.293756 -38.879844 
L 68.30105 -38.879844 
L 67.308344 -38.879844 
L 66.315638 -38.879844 
L 65.322932 -38.879844 
L 64.330226 -38.879844 
L 63.33752 -38.879844 
L 62.344814 -38.879844 
L 61.352108 -38.879844 
L 60.359402 -38.879844 
L 59.366696 -38.879844 
L 58.37399 -38.879844 
L 57.381284 -38.879844 
L 56.388579 -38.879844 
L 55.395873 -38.879844 
L 54.403167 -38.879844 
L 53.410461 -38.879844 
L 52.417755 -38.879844 
L 51.425049 -38.879844 
L 50.432343 -38.879844 
L 49.439637 -38.879844 
L 48.446931 -38.879844 
L 47.454225 -38.879844 
L 46.461519 -38.879844 
L 45.468813 -38.879844 
L 44.476107 -38.879844 
L 43.483402 -38.879844 
L 42.490696 -38.879844 
L 41.49799 -38.879844 
L 40.505284 -38.879844 
L 39.512578 -38.879844 
L 38.519872 -38.879844 
L 37.527166 -38.879844 
L 36.53446 -38.879844 
L 35.541754 -38.879844 
L 34.549048 -38.879844 
L 33.556342 -38.879844 
L 32.563636 -38.879844 
z
" style="stroke: #0173b2; stroke-opacity: 0"/>
    </defs>
    <g clip-path="url(#p8b645887e3)">
     <use xlink:href="#mb6ec6fc80a" x="0" y="378.189219" style="fill: #0173b2; fill-opacity: 0; stroke: #0173b2; stroke-opacity: 0"/>
    </g>
   </g>
   <g id="line2d_11">
    <path d="M 32.563636 330.099172 
L 34.549048 329.944183 
L 36.53446 329.64169 
L 38.519872 329.130049 
L 40.505284 328.41153 
L 42.490696 327.481231 
L 44.476107 326.294672 
L 46.461519 324.847794 
L 48.446931 323.139761 
L 50.432343 321.148139 
L 52.417755 318.884161 
L 55.395873 315.003295 
L 58.37399 310.598702 
L 61.352108 305.80195 
L 65.322932 298.961233 
L 70.286461 289.963066 
L 76.242697 278.446576 
L 80.213521 270.196582 
L 83.191638 263.588454 
L 86.169756 256.422344 
L 89.147874 248.630665 
L 92.125992 240.021326 
L 95.10411 230.608683 
L 98.082227 220.405781 
L 103.045757 202.284971 
L 109.001993 180.290613 
L 112.972816 166.505515 
L 116.94364 153.592583 
L 120.914464 141.418535 
L 126.870699 124.0663 
L 130.841523 113.077474 
L 134.812347 102.814062 
L 137.790464 95.743391 
L 140.768582 89.29805 
L 143.7467 83.331525 
L 146.724818 77.891683 
L 149.702935 72.940704 
L 151.688347 69.913857 
L 154.666465 65.748975 
L 157.644583 62.008961 
L 161.615407 57.579377 
L 171.542466 47.285351 
L 175.513289 43.44728 
L 178.491407 40.932505 
L 181.469525 38.951791 
L 183.454937 38.02366 
L 185.440349 37.327775 
L 187.425761 36.970629 
L 189.411172 36.909375 
L 190.403878 37.005771 
L 192.38929 37.484671 
L 194.374702 38.263309 
L 195.367408 38.767722 
L 197.35282 40.159805 
L 199.338232 41.990898 
L 201.323643 44.254136 
L 203.309055 46.897975 
L 205.294467 49.998637 
L 208.272585 55.290131 
L 211.250703 61.178277 
L 225.148586 89.334282 
L 230.112115 99.298791 
L 233.090233 105.694884 
L 236.068351 112.53748 
L 240.039175 122.560978 
L 244.009998 133.364385 
L 254.929763 163.934661 
L 258.900587 174.167363 
L 263.864117 186.125529 
L 268.827646 197.169821 
L 273.791176 207.644605 
L 278.754706 217.513245 
L 282.725529 225.014143 
L 287.689059 233.916928 
L 292.652589 242.331551 
L 297.616118 250.293265 
L 301.586942 256.280946 
L 304.56506 260.421118 
L 308.535883 265.461983 
L 312.506707 269.997233 
L 317.470237 275.199062 
L 334.346237 292.177046 
L 340.302473 297.949957 
L 345.266002 302.463742 
L 348.24412 304.973352 
L 351.222238 307.24011 
L 355.193062 309.871922 
L 358.17118 311.558254 
L 363.134709 314.009494 
L 373.061768 318.729605 
L 380.01071 322.073499 
L 383.981534 323.704839 
L 387.952357 325.059597 
L 392.915887 326.462228 
L 404.828358 329.817522 
L 410.784593 331.518101 
L 415.748123 332.686237 
L 419.718947 333.39126 
L 423.689771 333.928755 
L 431.631418 334.717571 
L 447.514713 336.032663 
L 454.463654 336.700232 
L 474.317773 338.82931 
L 481.266714 339.14648 
L 489.208362 339.27977 
L 510.055186 339.299232 
L 523.953069 339.15651 
L 539.836364 338.840212 
L 539.836364 338.840212 
" clip-path="url(#p8b645887e3)" style="fill: none; stroke: #0173b2; stroke-width: 1.5; stroke-linecap: round"/>
   </g>
   <g id="line2d_12">
    <path d="M 75.972136 332.958975 
L 330.516547 332.958975 
" clip-path="url(#p8b645887e3)" style="fill: none; stroke: #1a1a1a; stroke-width: 3"/>
   </g>
   <g id="patch_3">
    <path d="M 7.2 354.429375 
L 565.2 354.429375 
" style="fill: none; stroke: #808080; stroke-width: 1.25; stroke-linejoin: miter; stroke-linecap: square"/>
   </g>
   <g id="text_6">
    <!-- 6.1  -->
    <g style="fill: #262626" transform="translate(55.958386 317.082975) scale(0.12 -0.12)">
     <defs>
      <path id="ArialMT-36" d="M 3184 3459 
L 2625 3416 
Q 2550 3747 2413 3897 
Q 2184 4138 1850 4138 
Q 1581 4138 1378 3988 
Q 1113 3794 959 3422 
Q 806 3050 800 2363 
Q 1003 2672 1297 2822 
Q 1591 2972 1913 2972 
Q 2475 2972 2870 2558 
Q 3266 2144 3266 1488 
Q 3266 1056 3080 686 
Q 2894 316 2569 119 
Q 2244 -78 1831 -78 
Q 1128 -78 684 439 
Q 241 956 241 2144 
Q 241 3472 731 4075 
Q 1159 4600 1884 4600 
Q 2425 4600 2770 4297 
Q 3116 3994 3184 3459 
z
M 888 1484 
Q 888 1194 1011 928 
Q 1134 663 1356 523 
Q 1578 384 1822 384 
Q 2178 384 2434 671 
Q 2691 959 2691 1453 
Q 2691 1928 2437 2201 
Q 2184 2475 1800 2475 
Q 1419 2475 1153 2201 
Q 888 1928 888 1484 
z
" transform="scale(0.015625)"/>
      <path id="ArialMT-2e" d="M 581 0 
L 581 641 
L 1222 641 
L 1222 0 
L 581 0 
z
" transform="scale(0.015625)"/>
      <path id="ArialMT-20" transform="scale(0.015625)"/>
     </defs>
     <use xlink:href="#ArialMT-36"/>
     <use xlink:href="#ArialMT-2e" x="55.615234"/>
     <use xlink:href="#ArialMT-31" x="83.398438"/>
     <use xlink:href="#ArialMT-20" x="139.013672"/>
    </g>
   </g>
   <g id="text_7">
    <!--  18 -->
    <g style="fill: #262626" transform="translate(330.516547 317.082975) scale(0.12 -0.12)">
     <defs>
      <path id="ArialMT-38" d="M 1131 2484 
Q 781 2613 612 2850 
Q 444 3088 444 3419 
Q 444 3919 803 4259 
Q 1163 4600 1759 4600 
Q 2359 4600 2725 4251 
Q 3091 3903 3091 3403 
Q 3091 3084 2923 2848 
Q 2756 2613 2416 2484 
Q 2838 2347 3058 2040 
Q 3278 1734 3278 1309 
Q 3278 722 2862 322 
Q 2447 -78 1769 -78 
Q 1091 -78 675 323 
Q 259 725 259 1325 
Q 259 1772 486 2073 
Q 713 2375 1131 2484 
z
M 1019 3438 
Q 1019 3113 1228 2906 
Q 1438 2700 1772 2700 
Q 2097 2700 2305 2904 
Q 2513 3109 2513 3406 
Q 2513 3716 2298 3927 
Q 2084 4138 1766 4138 
Q 1444 4138 1231 3931 
Q 1019 3725 1019 3438 
z
M 838 1322 
Q 838 1081 952 856 
Q 1066 631 1291 507 
Q 1516 384 1775 384 
Q 2178 384 2440 643 
Q 2703 903 2703 1303 
Q 2703 1709 2433 1975 
Q 2163 2241 1756 2241 
Q 1359 2241 1098 1978 
Q 838 1716 838 1322 
z
" transform="scale(0.015625)"/>
     </defs>
     <use xlink:href="#ArialMT-20"/>
     <use xlink:href="#ArialMT-31" x="27.783203"/>
     <use xlink:href="#ArialMT-38" x="83.398438"/>
    </g>
   </g>
   <g id="text_8">
    <!-- 94% HDI -->
    <g style="fill: #262626" transform="translate(179.235904 244.053375) scale(0.12 -0.12)">
     <defs>
      <path id="ArialMT-39" d="M 350 1059 
L 891 1109 
Q 959 728 1153 556 
Q 1347 384 1650 384 
Q 1909 384 2104 503 
Q 2300 622 2425 820 
Q 2550 1019 2634 1356 
Q 2719 1694 2719 2044 
Q 2719 2081 2716 2156 
Q 2547 1888 2255 1720 
Q 1963 1553 1622 1553 
Q 1053 1553 659 1965 
Q 266 2378 266 3053 
Q 266 3750 677 4175 
Q 1088 4600 1706 4600 
Q 2153 4600 2523 4359 
Q 2894 4119 3086 3673 
Q 3278 3228 3278 2384 
Q 3278 1506 3087 986 
Q 2897 466 2520 194 
Q 2144 -78 1638 -78 
Q 1100 -78 759 220 
Q 419 519 350 1059 
z
M 2653 3081 
Q 2653 3566 2395 3850 
Q 2138 4134 1775 4134 
Q 1400 4134 1122 3828 
Q 844 3522 844 3034 
Q 844 2597 1108 2323 
Q 1372 2050 1759 2050 
Q 2150 2050 2401 2323 
Q 2653 2597 2653 3081 
z
" transform="scale(0.015625)"/>
      <path id="ArialMT-34" d="M 2069 0 
L 2069 1097 
L 81 1097 
L 81 1613 
L 2172 4581 
L 2631 4581 
L 2631 1613 
L 3250 1613 
L 3250 1097 
L 2631 1097 
L 2631 0 
L 2069 0 
z
M 2069 1613 
L 2069 3678 
L 634 1613 
L 2069 1613 
z
" transform="scale(0.015625)"/>
      <path id="ArialMT-25" d="M 372 3481 
Q 372 3972 619 4315 
Q 866 4659 1334 4659 
Q 1766 4659 2048 4351 
Q 2331 4044 2331 3447 
Q 2331 2866 2045 2552 
Q 1759 2238 1341 2238 
Q 925 2238 648 2547 
Q 372 2856 372 3481 
z
M 1350 4272 
Q 1141 4272 1002 4090 
Q 863 3909 863 3425 
Q 863 2984 1003 2804 
Q 1144 2625 1350 2625 
Q 1563 2625 1702 2806 
Q 1841 2988 1841 3469 
Q 1841 3913 1700 4092 
Q 1559 4272 1350 4272 
z
M 1353 -169 
L 3859 4659 
L 4316 4659 
L 1819 -169 
L 1353 -169 
z
M 3334 1075 
Q 3334 1569 3581 1911 
Q 3828 2253 4300 2253 
Q 4731 2253 5014 1945 
Q 5297 1638 5297 1041 
Q 5297 459 5011 145 
Q 4725 -169 4303 -169 
Q 3888 -169 3611 142 
Q 3334 453 3334 1075 
z
M 4316 1866 
Q 4103 1866 3964 1684 
Q 3825 1503 3825 1019 
Q 3825 581 3965 400 
Q 4106 219 4313 219 
Q 4528 219 4667 400 
Q 4806 581 4806 1063 
Q 4806 1506 4665 1686 
Q 4525 1866 4316 1866 
z
" transform="scale(0.015625)"/>
      <path id="ArialMT-48" d="M 513 0 
L 513 4581 
L 1119 4581 
L 1119 2700 
L 3500 2700 
L 3500 4581 
L 4106 4581 
L 4106 0 
L 3500 0 
L 3500 2159 
L 1119 2159 
L 1119 0 
L 513 0 
z
" transform="scale(0.015625)"/>
      <path id="ArialMT-44" d="M 494 0 
L 494 4581 
L 2072 4581 
Q 2606 4581 2888 4516 
Q 3281 4425 3559 4188 
Q 3922 3881 4101 3404 
Q 4281 2928 4281 2316 
Q 4281 1794 4159 1391 
Q 4038 988 3847 723 
Q 3656 459 3429 307 
Q 3203 156 2883 78 
Q 2563 0 2147 0 
L 494 0 
z
M 1100 541 
L 2078 541 
Q 2531 541 2789 625 
Q 3047 709 3200 863 
Q 3416 1078 3536 1442 
Q 3656 1806 3656 2325 
Q 3656 3044 3420 3430 
Q 3184 3816 2847 3947 
Q 2603 4041 2063 4041 
L 1100 4041 
L 1100 541 
z
" transform="scale(0.015625)"/>
      <path id="ArialMT-49" d="M 597 0 
L 597 4581 
L 1203 4581 
L 1203 0 
L 597 0 
z
" transform="scale(0.015625)"/>
     </defs>
     <use xlink:href="#ArialMT-39"/>
     <use xlink:href="#ArialMT-34" x="55.615234"/>
     <use xlink:href="#ArialMT-25" x="111.230469"/>
     <use xlink:href="#ArialMT-20" x="200.146484"/>
     <use xlink:href="#ArialMT-48" x="227.929688"/>
     <use xlink:href="#ArialMT-44" x="300.146484"/>
     <use xlink:href="#ArialMT-49" x="372.363281"/>
    </g>
   </g>
   <g id="text_9">
    <!-- mean=12 -->
    <g style="fill: #262626" transform="translate(172.054456 85.293375) scale(0.12 -0.12)">
     <defs>
      <path id="ArialMT-6d" d="M 422 0 
L 422 3319 
L 925 3319 
L 925 2853 
Q 1081 3097 1340 3245 
Q 1600 3394 1931 3394 
Q 2300 3394 2536 3241 
Q 2772 3088 2869 2813 
Q 3263 3394 3894 3394 
Q 4388 3394 4653 3120 
Q 4919 2847 4919 2278 
L 4919 0 
L 4359 0 
L 4359 2091 
Q 4359 2428 4304 2576 
Q 4250 2725 4106 2815 
Q 3963 2906 3769 2906 
Q 3419 2906 3187 2673 
Q 2956 2441 2956 1928 
L 2956 0 
L 2394 0 
L 2394 2156 
Q 2394 2531 2256 2718 
Q 2119 2906 1806 2906 
Q 1569 2906 1367 2781 
Q 1166 2656 1075 2415 
Q 984 2175 984 1722 
L 984 0 
L 422 0 
z
" transform="scale(0.015625)"/>
      <path id="ArialMT-65" d="M 2694 1069 
L 3275 997 
Q 3138 488 2766 206 
Q 2394 -75 1816 -75 
Q 1088 -75 661 373 
Q 234 822 234 1631 
Q 234 2469 665 2931 
Q 1097 3394 1784 3394 
Q 2450 3394 2872 2941 
Q 3294 2488 3294 1666 
Q 3294 1616 3291 1516 
L 816 1516 
Q 847 969 1125 678 
Q 1403 388 1819 388 
Q 2128 388 2347 550 
Q 2566 713 2694 1069 
z
M 847 1978 
L 2700 1978 
Q 2663 2397 2488 2606 
Q 2219 2931 1791 2931 
Q 1403 2931 1139 2672 
Q 875 2413 847 1978 
z
" transform="scale(0.015625)"/>
      <path id="ArialMT-61" d="M 2588 409 
Q 2275 144 1986 34 
Q 1697 -75 1366 -75 
Q 819 -75 525 192 
Q 231 459 231 875 
Q 231 1119 342 1320 
Q 453 1522 633 1644 
Q 813 1766 1038 1828 
Q 1203 1872 1538 1913 
Q 2219 1994 2541 2106 
Q 2544 2222 2544 2253 
Q 2544 2597 2384 2738 
Q 2169 2928 1744 2928 
Q 1347 2928 1158 2789 
Q 969 2650 878 2297 
L 328 2372 
Q 403 2725 575 2942 
Q 747 3159 1072 3276 
Q 1397 3394 1825 3394 
Q 2250 3394 2515 3294 
Q 2781 3194 2906 3042 
Q 3031 2891 3081 2659 
Q 3109 2516 3109 2141 
L 3109 1391 
Q 3109 606 3145 398 
Q 3181 191 3288 0 
L 2700 0 
Q 2613 175 2588 409 
z
M 2541 1666 
Q 2234 1541 1622 1453 
Q 1275 1403 1131 1340 
Q 988 1278 909 1158 
Q 831 1038 831 891 
Q 831 666 1001 516 
Q 1172 366 1500 366 
Q 1825 366 2078 508 
Q 2331 650 2450 897 
Q 2541 1088 2541 1459 
L 2541 1666 
z
" transform="scale(0.015625)"/>
      <path id="ArialMT-6e" d="M 422 0 
L 422 3319 
L 928 3319 
L 928 2847 
Q 1294 3394 1984 3394 
Q 2284 3394 2536 3286 
Q 2788 3178 2913 3003 
Q 3038 2828 3088 2588 
Q 3119 2431 3119 2041 
L 3119 0 
L 2556 0 
L 2556 2019 
Q 2556 2363 2490 2533 
Q 2425 2703 2258 2804 
Q 2091 2906 1866 2906 
Q 1506 2906 1245 2678 
Q 984 2450 984 1813 
L 984 0 
L 422 0 
z
" transform="scale(0.015625)"/>
      <path id="ArialMT-3d" d="M 3381 2694 
L 356 2694 
L 356 3219 
L 3381 3219 
L 3381 2694 
z
M 3381 1303 
L 356 1303 
L 356 1828 
L 3381 1828 
L 3381 1303 
z
" transform="scale(0.015625)"/>
     </defs>
     <use xlink:href="#ArialMT-6d"/>
     <use xlink:href="#ArialMT-65" x="83.300781"/>
     <use xlink:href="#ArialMT-61" x="138.916016"/>
     <use xlink:href="#ArialMT-6e" x="194.53125"/>
     <use xlink:href="#ArialMT-3d" x="250.146484"/>
     <use xlink:href="#ArialMT-31" x="308.544922"/>
     <use xlink:href="#ArialMT-32" x="364.160156"/>
    </g>
   </g>
   <g id="text_10">
    <!-- mu_B -->
    <g style="fill: #262626" transform="translate(270.526875 15.789375) scale(0.12 -0.12)">
     <defs>
      <path id="ArialMT-75" d="M 2597 0 
L 2597 488 
Q 2209 -75 1544 -75 
Q 1250 -75 995 37 
Q 741 150 617 320 
Q 494 491 444 738 
Q 409 903 409 1263 
L 409 3319 
L 972 3319 
L 972 1478 
Q 972 1038 1006 884 
Q 1059 663 1231 536 
Q 1403 409 1656 409 
Q 1909 409 2131 539 
Q 2353 669 2445 892 
Q 2538 1116 2538 1541 
L 2538 3319 
L 3100 3319 
L 3100 0 
L 2597 0 
z
" transform="scale(0.015625)"/>
      <path id="ArialMT-5f" d="M -97 -1272 
L -97 -866 
L 3631 -866 
L 3631 -1272 
L -97 -1272 
z
" transform="scale(0.015625)"/>
      <path id="ArialMT-42" d="M 469 0 
L 469 4581 
L 2188 4581 
Q 2713 4581 3030 4442 
Q 3347 4303 3526 4014 
Q 3706 3725 3706 3409 
Q 3706 3116 3547 2856 
Q 3388 2597 3066 2438 
Q 3481 2316 3704 2022 
Q 3928 1728 3928 1328 
Q 3928 1006 3792 729 
Q 3656 453 3456 303 
Q 3256 153 2954 76 
Q 2653 0 2216 0 
L 469 0 
z
M 1075 2656 
L 2066 2656 
Q 2469 2656 2644 2709 
Q 2875 2778 2992 2937 
Q 3109 3097 3109 3338 
Q 3109 3566 3000 3739 
Q 2891 3913 2687 3977 
Q 2484 4041 1991 4041 
L 1075 4041 
L 1075 2656 
z
M 1075 541 
L 2216 541 
Q 2509 541 2628 563 
Q 2838 600 2978 687 
Q 3119 775 3209 942 
Q 3300 1109 3300 1328 
Q 3300 1584 3169 1773 
Q 3038 1963 2805 2039 
Q 2572 2116 2134 2116 
L 1075 2116 
L 1075 541 
z
" transform="scale(0.015625)"/>
     </defs>
     <use xlink:href="#ArialMT-6d"/>
     <use xlink:href="#ArialMT-75" x="83.300781"/>
     <use xlink:href="#ArialMT-5f" x="138.916016"/>
     <use xlink:href="#ArialMT-42" x="194.53125"/>
    </g>
   </g>
  </g>
 </g>
 <defs>
  <clipPath id="p8b645887e3">
   <rect x="7.2" y="21.789375" width="558" height="332.64"/>
  </clipPath>
 </defs>
</svg>