<?xml version="1.0" encoding="UTF-8" standalone="no"?>
<!DOCTYPE svg PUBLIC "-//W3C//DTD SVG 1.1//EN"
 "http://www.w3.org/Graphics/SVG/1.1/DTD/svg11.dtd">
<!-- Generated by graphviz version 9.0.0 (0)
 -->
<!-- Pages: 1 -->
<svg width="456pt" height="260pt"
 viewBox="0.00 0.00 455.80 260.00" xmlns="http://www.w3.org/2000/svg" xmlns:xlink="http://www.w3.org/1999/xlink">
<g id="graph0" class="graph" transform="scale(1 1) rotate(0) translate(4 256)">
<polygon fill="white" stroke="none" points="-4,4 -4,-256 451.8,-256 451.8,4 -4,4"/>
<!-- I_C -->
<g id="node1" class="node">
<title>I_C</title>
<ellipse fill="none" stroke="black" cx="102.53" cy="-234" rx="102.53" ry="18"/>
<text text-anchor="middle" x="102.53" y="-228.95" font-family="Times,serif" font-size="14.00">Intelligenza nell&#39;Infanzia</text>
</g>
<!-- EA -->
<g id="node2" class="node">
<title>EA</title>
<ellipse fill="none" stroke="black" cx="160.53" cy="-162" rx="86.67" ry="18"/>
<text text-anchor="middle" x="160.53" y="-156.95" font-family="Times,serif" font-size="14.00">Livello di Istruzione</text>
</g>
<!-- I_C&#45;&gt;EA -->
<g id="edge1" class="edge">
<title>I_C&#45;&gt;EA</title>
<path fill="none" stroke="black" d="M116.87,-215.7C123.61,-207.56 131.79,-197.69 139.24,-188.7"/>
<polygon fill="black" stroke="black" points="141.71,-191.2 145.39,-181.27 136.32,-186.74 141.71,-191.2"/>
</g>
<!-- Inc -->
<g id="node4" class="node">
<title>Inc</title>
<ellipse fill="none" stroke="black" cx="200.53" cy="-18" rx="40.09" ry="18"/>
<text text-anchor="middle" x="200.53" y="-12.95" font-family="Times,serif" font-size="14.00">Reddito</text>
</g>
<!-- I_C&#45;&gt;Inc -->
<g id="edge4" class="edge">
<title>I_C&#45;&gt;Inc</title>
<path fill="none" stroke="black" d="M86.07,-215.92C77.88,-206.22 68.83,-193.37 64.53,-180 49.7,-133.86 49,-109.63 79.53,-72 97.78,-49.51 127.48,-36.31 152.89,-28.71"/>
<polygon fill="black" stroke="black" points="153.66,-32.12 162.37,-26.09 151.8,-25.37 153.66,-32.12"/>
</g>
<!-- I_A -->
<g id="node3" class="node">
<title>I_A</title>
<ellipse fill="none" stroke="black" cx="200.53" cy="-90" rx="111.74" ry="18"/>
<text text-anchor="middle" x="200.53" y="-84.95" font-family="Times,serif" font-size="14.00">Intelligenza nell&#39;Età Adulta</text>
</g>
<!-- EA&#45;&gt;I_A -->
<g id="edge2" class="edge">
<title>EA&#45;&gt;I_A</title>
<path fill="none" stroke="black" d="M170.42,-143.7C174.88,-135.9 180.24,-126.51 185.2,-117.83"/>
<polygon fill="black" stroke="black" points="188.08,-119.84 190.01,-109.42 182.01,-116.36 188.08,-119.84"/>
</g>
<!-- I_A&#45;&gt;Inc -->
<g id="edge3" class="edge">
<title>I_A&#45;&gt;Inc</title>
<path fill="none" stroke="black" d="M200.53,-71.7C200.53,-64.41 200.53,-55.73 200.53,-47.54"/>
<polygon fill="black" stroke="black" points="204.03,-47.62 200.53,-37.62 197.03,-47.62 204.03,-47.62"/>
</g>
<!-- U -->
<g id="node5" class="node">
<title>U</title>
<ellipse fill="none" stroke="black" cx="356.53" cy="-162" rx="91.27" ry="18"/>
<text text-anchor="middle" x="356.53" y="-156.95" font-family="Times,serif" font-size="14.00">Variabile Sconosciuta</text>
</g>
<!-- U&#45;&gt;I_A -->
<g id="edge5" class="edge">
<title>U&#45;&gt;I_A</title>
<path fill="none" stroke="black" d="M321.13,-145.12C299.38,-135.36 271.26,-122.74 247.64,-112.14"/>
<polygon fill="black" stroke="black" points="249.08,-108.95 238.53,-108.05 246.22,-115.34 249.08,-108.95"/>
</g>
<!-- U&#45;&gt;Inc -->
<g id="edge6" class="edge">
<title>U&#45;&gt;Inc</title>
<path fill="none" stroke="black" d="M353.83,-143.8C349.9,-124.15 340.88,-92.1 321.53,-72 301.44,-51.13 271.72,-37.95 246.76,-29.96"/>
<polygon fill="black" stroke="black" points="248.08,-26.7 237.49,-27.17 246.07,-33.4 248.08,-26.7"/>
</g>
</g>
</svg>