<?xml version="1.0" encoding="UTF-8" standalone="no"?>
<!DOCTYPE svg PUBLIC "-//W3C//DTD SVG 1.1//EN"
 "http://www.w3.org/Graphics/SVG/1.1/DTD/svg11.dtd">
<!-- Generated by graphviz version 9.0.0 (0)
 -->
<!-- Pages: 1 -->
<svg width="200pt" height="116pt"
 viewBox="0.00 0.00 200.35 116.00" xmlns="http://www.w3.org/2000/svg" xmlns:xlink="http://www.w3.org/1999/xlink">
<g id="graph0" class="graph" transform="scale(1 1) rotate(0) translate(4 112)">
<polygon fill="white" stroke="none" points="-4,4 -4,-112 196.35,-112 196.35,4 -4,4"/>
<!-- exposure -->
<g id="node1" class="node">
<title>exposure</title>
<ellipse fill="none" stroke="black" cx="44.19" cy="-18" rx="44.19" ry="18"/>
<text text-anchor="middle" x="44.19" y="-12.95" font-family="Times,serif" font-size="14.00">exposure</text>
</g>
<!-- outcome -->
<g id="node2" class="node">
<title>outcome</title>
<ellipse fill="none" stroke="black" cx="149.19" cy="-18" rx="43.16" ry="18"/>
<text text-anchor="middle" x="149.19" y="-12.95" font-family="Times,serif" font-size="14.00">outcome</text>
</g>
<!-- exposure&#45;&gt;outcome -->
<g id="edge3" class="edge">
<title>exposure&#45;&gt;outcome</title>
<path fill="none" stroke="black" d="M88.48,-18C90.35,-18 92.22,-18 94.08,-18"/>
<polygon fill="black" stroke="black" points="94.04,-21.5 104.04,-18 94.04,-14.5 94.04,-21.5"/>
</g>
<!-- covariate -->
<g id="node3" class="node">
<title>covariate</title>
<ellipse fill="none" stroke="black" cx="96.19" cy="-90" rx="44.7" ry="18"/>
<text text-anchor="middle" x="96.19" y="-84.95" font-family="Times,serif" font-size="14.00">covariate</text>
</g>
<!-- covariate&#45;&gt;exposure -->
<g id="edge1" class="edge">
<title>covariate&#45;&gt;exposure</title>
<path fill="none" stroke="black" d="M83.86,-72.41C77.71,-64.13 70.13,-53.92 63.25,-44.66"/>
<polygon fill="black" stroke="black" points="66.1,-42.63 57.32,-36.68 60.48,-46.8 66.1,-42.63"/>
</g>
<!-- covariate&#45;&gt;outcome -->
<g id="edge2" class="edge">
<title>covariate&#45;&gt;outcome</title>
<path fill="none" stroke="black" d="M108.75,-72.41C115.08,-64.04 122.91,-53.71 129.98,-44.37"/>
<polygon fill="black" stroke="black" points="132.56,-46.76 135.8,-36.68 126.98,-42.54 132.56,-46.76"/>
</g>
</g>
</svg>