<?xml version="1.0" encoding="utf-8" standalone="no"?>
<!DOCTYPE svg PUBLIC "-//W3C//DTD SVG 1.1//EN"
  "http://www.w3.org/Graphics/SVG/1.1/DTD/svg11.dtd">
<svg xmlns:xlink="http://www.w3.org/1999/xlink" width="572.4pt" height="378.189219pt" viewBox="0 0 572.4 378.189219" xmlns="http://www.w3.org/2000/svg" version="1.1">
 <metadata>
  <rdf:RDF xmlns:dc="http://purl.org/dc/elements/1.1/" xmlns:cc="http://creativecommons.org/ns#" xmlns:rdf="http://www.w3.org/1999/02/22-rdf-syntax-ns#">
   <cc:Work>
    <dc:type rdf:resource="http://purl.org/dc/dcmitype/StillImage"/>
    <dc:date>2023-09-17T11:24:41.159379</dc:date>
    <dc:format>image/svg+xml</dc:format>
    <dc:creator>
     <cc:Agent>
      <dc:title>Matplotlib v3.7.2, https://matplotlib.org/</dc:title>
     </cc:Agent>
    </dc:creator>
   </cc:Work>
  </rdf:RDF>
 </metadata>
 <defs>
  <style type="text/css">*{stroke-linejoin: round; stroke-linecap: butt}</style>
 </defs>
 <g id="figure_1">
  <g id="patch_1">
   <path d="M 0 378.189219 
L 572.4 378.189219 
L 572.4 0 
L 0 0 
z
" style="fill: #ffffff"/>
  </g>
  <g id="axes_1">
   <g id="patch_2">
    <path d="M 7.2 354.429375 
L 565.2 354.429375 
L 565.2 21.789375 
L 7.2 21.789375 
z
" style="fill: #eaeaf2"/>
   </g>
   <g id="matplotlib.axis_1">
    <g id="xtick_1">
     <g id="line2d_1">
      <path d="M 48.734031 354.429375 
L 48.734031 21.789375 
" clip-path="url(#p3816eedac8)" style="fill: none; stroke: #ffffff; stroke-linecap: round"/>
     </g>
     <g id="line2d_2">
      <defs>
       <path id="m5b504caa3f" d="M 0 0 
L 0 3 
" style="stroke: #808080"/>
      </defs>
      <g>
       <use xlink:href="#m5b504caa3f" x="48.734031" y="354.429375" style="fill: #808080; stroke: #808080"/>
      </g>
     </g>
     <g id="text_1">
      <!-- 2.5 -->
      <g style="fill: #262626" transform="translate(41.089031 368.802969) scale(0.11 -0.11)">
       <defs>
        <path id="ArialMT-32" d="M 3222 541 
L 3222 0 
L 194 0 
Q 188 203 259 391 
Q 375 700 629 1000 
Q 884 1300 1366 1694 
Q 2113 2306 2375 2664 
Q 2638 3022 2638 3341 
Q 2638 3675 2398 3904 
Q 2159 4134 1775 4134 
Q 1369 4134 1125 3890 
Q 881 3647 878 3216 
L 300 3275 
Q 359 3922 746 4261 
Q 1134 4600 1788 4600 
Q 2447 4600 2831 4234 
Q 3216 3869 3216 3328 
Q 3216 3053 3103 2787 
Q 2991 2522 2730 2228 
Q 2469 1934 1863 1422 
Q 1356 997 1212 845 
Q 1069 694 975 541 
L 3222 541 
z
" transform="scale(0.015625)"/>
        <path id="ArialMT-2e" d="M 581 0 
L 581 641 
L 1222 641 
L 1222 0 
L 581 0 
z
" transform="scale(0.015625)"/>
        <path id="ArialMT-35" d="M 266 1200 
L 856 1250 
Q 922 819 1161 601 
Q 1400 384 1738 384 
Q 2144 384 2425 690 
Q 2706 997 2706 1503 
Q 2706 1984 2436 2262 
Q 2166 2541 1728 2541 
Q 1456 2541 1237 2417 
Q 1019 2294 894 2097 
L 366 2166 
L 809 4519 
L 3088 4519 
L 3088 3981 
L 1259 3981 
L 1013 2750 
Q 1425 3038 1878 3038 
Q 2478 3038 2890 2622 
Q 3303 2206 3303 1553 
Q 3303 931 2941 478 
Q 2500 -78 1738 -78 
Q 1113 -78 717 272 
Q 322 622 266 1200 
z
" transform="scale(0.015625)"/>
       </defs>
       <use xlink:href="#ArialMT-32"/>
       <use xlink:href="#ArialMT-2e" x="55.615234"/>
       <use xlink:href="#ArialMT-35" x="83.398438"/>
      </g>
     </g>
    </g>
    <g id="xtick_2">
     <g id="line2d_3">
      <path d="M 114.877483 354.429375 
L 114.877483 21.789375 
" clip-path="url(#p3816eedac8)" style="fill: none; stroke: #ffffff; stroke-linecap: round"/>
     </g>
     <g id="line2d_4">
      <g>
       <use xlink:href="#m5b504caa3f" x="114.877483" y="354.429375" style="fill: #808080; stroke: #808080"/>
      </g>
     </g>
     <g id="text_2">
      <!-- 5.0 -->
      <g style="fill: #262626" transform="translate(107.232483 368.802969) scale(0.11 -0.11)">
       <defs>
        <path id="ArialMT-30" d="M 266 2259 
Q 266 3072 433 3567 
Q 600 4063 929 4331 
Q 1259 4600 1759 4600 
Q 2128 4600 2406 4451 
Q 2684 4303 2865 4023 
Q 3047 3744 3150 3342 
Q 3253 2941 3253 2259 
Q 3253 1453 3087 958 
Q 2922 463 2592 192 
Q 2263 -78 1759 -78 
Q 1097 -78 719 397 
Q 266 969 266 2259 
z
M 844 2259 
Q 844 1131 1108 757 
Q 1372 384 1759 384 
Q 2147 384 2411 759 
Q 2675 1134 2675 2259 
Q 2675 3391 2411 3762 
Q 2147 4134 1753 4134 
Q 1366 4134 1134 3806 
Q 844 3388 844 2259 
z
" transform="scale(0.015625)"/>
       </defs>
       <use xlink:href="#ArialMT-35"/>
       <use xlink:href="#ArialMT-2e" x="55.615234"/>
       <use xlink:href="#ArialMT-30" x="83.398438"/>
      </g>
     </g>
    </g>
    <g id="xtick_3">
     <g id="line2d_5">
      <path d="M 181.020935 354.429375 
L 181.020935 21.789375 
" clip-path="url(#p3816eedac8)" style="fill: none; stroke: #ffffff; stroke-linecap: round"/>
     </g>
     <g id="line2d_6">
      <g>
       <use xlink:href="#m5b504caa3f" x="181.020935" y="354.429375" style="fill: #808080; stroke: #808080"/>
      </g>
     </g>
     <g id="text_3">
      <!-- 7.5 -->
      <g style="fill: #262626" transform="translate(173.375935 368.802969) scale(0.11 -0.11)">
       <defs>
        <path id="ArialMT-37" d="M 303 3981 
L 303 4522 
L 3269 4522 
L 3269 4084 
Q 2831 3619 2401 2847 
Q 1972 2075 1738 1259 
Q 1569 684 1522 0 
L 944 0 
Q 953 541 1156 1306 
Q 1359 2072 1739 2783 
Q 2119 3494 2547 3981 
L 303 3981 
z
" transform="scale(0.015625)"/>
       </defs>
       <use xlink:href="#ArialMT-37"/>
       <use xlink:href="#ArialMT-2e" x="55.615234"/>
       <use xlink:href="#ArialMT-35" x="83.398438"/>
      </g>
     </g>
    </g>
    <g id="xtick_4">
     <g id="line2d_7">
      <path d="M 247.164386 354.429375 
L 247.164386 21.789375 
" clip-path="url(#p3816eedac8)" style="fill: none; stroke: #ffffff; stroke-linecap: round"/>
     </g>
     <g id="line2d_8">
      <g>
       <use xlink:href="#m5b504caa3f" x="247.164386" y="354.429375" style="fill: #808080; stroke: #808080"/>
      </g>
     </g>
     <g id="text_4">
      <!-- 10.0 -->
      <g style="fill: #262626" transform="translate(236.460871 368.802969) scale(0.11 -0.11)">
       <defs>
        <path id="ArialMT-31" d="M 2384 0 
L 1822 0 
L 1822 3584 
Q 1619 3391 1289 3197 
Q 959 3003 697 2906 
L 697 3450 
Q 1169 3672 1522 3987 
Q 1875 4303 2022 4600 
L 2384 4600 
L 2384 0 
z
" transform="scale(0.015625)"/>
       </defs>
       <use xlink:href="#ArialMT-31"/>
       <use xlink:href="#ArialMT-30" x="55.615234"/>
       <use xlink:href="#ArialMT-2e" x="111.230469"/>
       <use xlink:href="#ArialMT-30" x="139.013672"/>
      </g>
     </g>
    </g>
    <g id="xtick_5">
     <g id="line2d_9">
      <path d="M 313.307838 354.429375 
L 313.307838 21.789375 
" clip-path="url(#p3816eedac8)" style="fill: none; stroke: #ffffff; stroke-linecap: round"/>
     </g>
     <g id="line2d_10">
      <g>
       <use xlink:href="#m5b504caa3f" x="313.307838" y="354.429375" style="fill: #808080; stroke: #808080"/>
      </g>
     </g>
     <g id="text_5">
      <!-- 12.5 -->
      <g style="fill: #262626" transform="translate(302.604323 368.802969) scale(0.11 -0.11)">
       <use xlink:href="#ArialMT-31"/>
       <use xlink:href="#ArialMT-32" x="55.615234"/>
       <use xlink:href="#ArialMT-2e" x="111.230469"/>
       <use xlink:href="#ArialMT-35" x="139.013672"/>
      </g>
     </g>
    </g>
    <g id="xtick_6">
     <g id="line2d_11">
      <path d="M 379.45129 354.429375 
L 379.45129 21.789375 
" clip-path="url(#p3816eedac8)" style="fill: none; stroke: #ffffff; stroke-linecap: round"/>
     </g>
     <g id="line2d_12">
      <g>
       <use xlink:href="#m5b504caa3f" x="379.45129" y="354.429375" style="fill: #808080; stroke: #808080"/>
      </g>
     </g>
     <g id="text_6">
      <!-- 15.0 -->
      <g style="fill: #262626" transform="translate(368.747774 368.802969) scale(0.11 -0.11)">
       <use xlink:href="#ArialMT-31"/>
       <use xlink:href="#ArialMT-35" x="55.615234"/>
       <use xlink:href="#ArialMT-2e" x="111.230469"/>
       <use xlink:href="#ArialMT-30" x="139.013672"/>
      </g>
     </g>
    </g>
    <g id="xtick_7">
     <g id="line2d_13">
      <path d="M 445.594742 354.429375 
L 445.594742 21.789375 
" clip-path="url(#p3816eedac8)" style="fill: none; stroke: #ffffff; stroke-linecap: round"/>
     </g>
     <g id="line2d_14">
      <g>
       <use xlink:href="#m5b504caa3f" x="445.594742" y="354.429375" style="fill: #808080; stroke: #808080"/>
      </g>
     </g>
     <g id="text_7">
      <!-- 17.5 -->
      <g style="fill: #262626" transform="translate(434.891226 368.802969) scale(0.11 -0.11)">
       <use xlink:href="#ArialMT-31"/>
       <use xlink:href="#ArialMT-37" x="55.615234"/>
       <use xlink:href="#ArialMT-2e" x="111.230469"/>
       <use xlink:href="#ArialMT-35" x="139.013672"/>
      </g>
     </g>
    </g>
    <g id="xtick_8">
     <g id="line2d_15">
      <path d="M 511.738193 354.429375 
L 511.738193 21.789375 
" clip-path="url(#p3816eedac8)" style="fill: none; stroke: #ffffff; stroke-linecap: round"/>
     </g>
     <g id="line2d_16">
      <g>
       <use xlink:href="#m5b504caa3f" x="511.738193" y="354.429375" style="fill: #808080; stroke: #808080"/>
      </g>
     </g>
     <g id="text_8">
      <!-- 20.0 -->
      <g style="fill: #262626" transform="translate(501.034678 368.802969) scale(0.11 -0.11)">
       <use xlink:href="#ArialMT-32"/>
       <use xlink:href="#ArialMT-30" x="55.615234"/>
       <use xlink:href="#ArialMT-2e" x="111.230469"/>
       <use xlink:href="#ArialMT-30" x="139.013672"/>
      </g>
     </g>
    </g>
   </g>
   <g id="matplotlib.axis_2"/>
   <g id="PolyCollection_1">
    <defs>
     <path id="m03d54008e6" d="M 32.563636 -38.879844 
L 32.563636 -48.357955 
L 33.556342 -48.408684 
L 34.549048 -48.504542 
L 35.541754 -48.670652 
L 36.53446 -48.866541 
L 37.527166 -49.121839 
L 38.519872 -49.426221 
L 39.512578 -49.805735 
L 40.505284 -50.213751 
L 41.49799 -50.678614 
L 42.490696 -51.198414 
L 43.483402 -51.779135 
L 44.476107 -52.391226 
L 45.468813 -53.072649 
L 46.461519 -53.802639 
L 47.454225 -54.582453 
L 48.446931 -55.424173 
L 49.439637 -56.304884 
L 50.432343 -57.247715 
L 51.425049 -58.240236 
L 52.417755 -59.275994 
L 53.410461 -60.37763 
L 54.403167 -61.511902 
L 55.395873 -62.687758 
L 56.388579 -63.924328 
L 57.381284 -65.206941 
L 58.37399 -66.524001 
L 59.366696 -67.870323 
L 60.359402 -69.248103 
L 61.352108 -70.656602 
L 62.344814 -72.10472 
L 63.33752 -73.576416 
L 64.330226 -75.084405 
L 65.322932 -76.595832 
L 66.315638 -78.141999 
L 67.308344 -79.731562 
L 68.30105 -81.364822 
L 69.293756 -83.009463 
L 70.286461 -84.694217 
L 71.279167 -86.421603 
L 72.271873 -88.189269 
L 73.264579 -90.009614 
L 74.257285 -91.879811 
L 75.249991 -93.828345 
L 76.242697 -95.811916 
L 77.235403 -97.864434 
L 78.228109 -99.981636 
L 79.220815 -102.180285 
L 80.213521 -104.463474 
L 81.206227 -106.815009 
L 82.198933 -109.238634 
L 83.191638 -111.750852 
L 84.184344 -114.335485 
L 85.17705 -116.995612 
L 86.169756 -119.72515 
L 87.162462 -122.523484 
L 88.155168 -125.396292 
L 89.147874 -128.333705 
L 90.14058 -131.334339 
L 91.133286 -134.385755 
L 92.125992 -137.498807 
L 93.118698 -140.63448 
L 94.111404 -143.833154 
L 95.10411 -147.062272 
L 96.096816 -150.336471 
L 97.089521 -153.674697 
L 98.082227 -157.012514 
L 99.074933 -160.400759 
L 100.067639 -163.806361 
L 101.060345 -167.248446 
L 102.053051 -170.712232 
L 103.045757 -174.197851 
L 104.038463 -177.696872 
L 105.031169 -181.239139 
L 106.023875 -184.770264 
L 107.016581 -188.31624 
L 108.009287 -191.834014 
L 109.001993 -195.409818 
L 109.994698 -198.970043 
L 110.987404 -202.537478 
L 111.98011 -206.077744 
L 112.972816 -209.634091 
L 113.965522 -213.156487 
L 114.958228 -216.684762 
L 115.950934 -220.182735 
L 116.94364 -223.661907 
L 117.936346 -227.135591 
L 118.929052 -230.595616 
L 119.921758 -234.02263 
L 120.914464 -237.462983 
L 121.90717 -240.853281 
L 122.899875 -244.233949 
L 123.892581 -247.574578 
L 124.885287 -250.901544 
L 125.877993 -254.20086 
L 126.870699 -257.491569 
L 127.863405 -260.769523 
L 128.856111 -264.017289 
L 129.848817 -267.232781 
L 130.841523 -270.414503 
L 131.834229 -273.597082 
L 132.826935 -276.721798 
L 133.819641 -279.816432 
L 134.812347 -282.89576 
L 135.805052 -285.883825 
L 136.797758 -288.787357 
L 137.790464 -291.666609 
L 138.78317 -294.462873 
L 139.775876 -297.186483 
L 140.768582 -299.818563 
L 141.761288 -302.382774 
L 142.753994 -304.842883 
L 143.7467 -307.197504 
L 144.739406 -309.48772 
L 145.732112 -311.679752 
L 146.724818 -313.740978 
L 147.717524 -315.742276 
L 148.710229 -317.629201 
L 149.702935 -319.410868 
L 150.695641 -321.104153 
L 151.688347 -322.714069 
L 152.681053 -324.258001 
L 153.673759 -325.71411 
L 154.666465 -327.084969 
L 155.659171 -328.371924 
L 156.651877 -329.618423 
L 157.644583 -330.823672 
L 158.637289 -331.96457 
L 159.629995 -333.070146 
L 160.622701 -334.068172 
L 161.615407 -335.050922 
L 162.608112 -335.933168 
L 163.600818 -336.816391 
L 164.593524 -337.599397 
L 165.58623 -338.260576 
L 166.578936 -338.923647 
L 167.571642 -339.470429 
L 168.564348 -339.987853 
L 169.557054 -340.40189 
L 170.54976 -340.731483 
L 171.542466 -340.981852 
L 172.535172 -341.159568 
L 173.527878 -341.240778 
L 174.520584 -341.279844 
L 175.513289 -341.231433 
L 176.505995 -341.141733 
L 177.498701 -340.946737 
L 178.491407 -340.694415 
L 179.484113 -340.359476 
L 180.476819 -339.990857 
L 181.469525 -339.567383 
L 182.462231 -339.099697 
L 183.454937 -338.572968 
L 184.447643 -337.985355 
L 185.440349 -337.331195 
L 186.433055 -336.652941 
L 187.425761 -335.845669 
L 188.418466 -334.988262 
L 189.411172 -334.057401 
L 190.403878 -333.041362 
L 191.396584 -331.964068 
L 192.38929 -330.81174 
L 193.381996 -329.549929 
L 194.374702 -328.199662 
L 195.367408 -326.755153 
L 196.360114 -325.230459 
L 197.35282 -323.675836 
L 198.345526 -322.068604 
L 199.338232 -320.410831 
L 200.330938 -318.701543 
L 201.323643 -317.006879 
L 202.316349 -315.305007 
L 203.309055 -313.582629 
L 204.301761 -311.96473 
L 205.294467 -310.412839 
L 206.287173 -308.902117 
L 207.279879 -307.472104 
L 208.272585 -306.135914 
L 209.265291 -304.874066 
L 210.257997 -303.681863 
L 211.250703 -302.61827 
L 212.243409 -301.647107 
L 213.236115 -300.727461 
L 214.22882 -299.890431 
L 215.221526 -299.097037 
L 216.214232 -298.291601 
L 217.206938 -297.513397 
L 218.199644 -296.755007 
L 219.19235 -295.974967 
L 220.185056 -295.100114 
L 221.177762 -294.14033 
L 222.170468 -293.088264 
L 223.163174 -291.943802 
L 224.15588 -290.716734 
L 225.148586 -289.308238 
L 226.141292 -287.714931 
L 227.133998 -286.03241 
L 228.126703 -284.196731 
L 229.119409 -282.261075 
L 230.112115 -280.199544 
L 231.104821 -278.0586 
L 232.097527 -275.754131 
L 233.090233 -273.424132 
L 234.082939 -271.074146 
L 235.075645 -268.6362 
L 236.068351 -266.210362 
L 237.061057 -263.74146 
L 238.053763 -261.331489 
L 239.046469 -258.953864 
L 240.039175 -256.620579 
L 241.03188 -254.345059 
L 242.024586 -252.1371 
L 243.017292 -249.974787 
L 244.009998 -247.888654 
L 245.002704 -245.878181 
L 245.99541 -243.924141 
L 246.988116 -242.044897 
L 247.980822 -240.216174 
L 248.973528 -238.40885 
L 249.966234 -236.609628 
L 250.95894 -234.810364 
L 251.951646 -233.016289 
L 252.944352 -231.201871 
L 253.937057 -229.357787 
L 254.929763 -227.422026 
L 255.922469 -225.481655 
L 256.915175 -223.480306 
L 257.907881 -221.371286 
L 258.900587 -219.227227 
L 259.893293 -216.976185 
L 260.885999 -214.671343 
L 261.878705 -212.292493 
L 262.871411 -209.870832 
L 263.864117 -207.372766 
L 264.856823 -204.841869 
L 265.849529 -202.237458 
L 266.842234 -199.62165 
L 267.83494 -197.000924 
L 268.827646 -194.387199 
L 269.820352 -191.778314 
L 270.813058 -189.218711 
L 271.805764 -186.694985 
L 272.79847 -184.17112 
L 273.791176 -181.706437 
L 274.783882 -179.306574 
L 275.776588 -176.952259 
L 276.769294 -174.624898 
L 277.762 -172.380848 
L 278.754706 -170.16481 
L 279.747411 -167.967881 
L 280.740117 -165.812332 
L 281.732823 -163.706873 
L 282.725529 -161.59995 
L 283.718235 -159.562643 
L 284.710941 -157.537167 
L 285.703647 -155.503933 
L 286.696353 -153.468207 
L 287.689059 -151.442044 
L 288.681765 -149.457468 
L 289.674471 -147.490895 
L 290.667177 -145.539962 
L 291.659883 -143.586977 
L 292.652589 -141.647672 
L 293.645294 -139.774727 
L 294.638 -137.959136 
L 295.630706 -136.144801 
L 296.623412 -134.380992 
L 297.616118 -132.680817 
L 298.608824 -131.011175 
L 299.60153 -129.387574 
L 300.594236 -127.852024 
L 301.586942 -126.360222 
L 302.579648 -124.915873 
L 303.572354 -123.548204 
L 304.56506 -122.218963 
L 305.557766 -120.956364 
L 306.550471 -119.716771 
L 307.543177 -118.518246 
L 308.535883 -117.37199 
L 309.528589 -116.236843 
L 310.521295 -115.142973 
L 311.514001 -114.07847 
L 312.506707 -113.020372 
L 313.499413 -111.960808 
L 314.492119 -110.92439 
L 315.484825 -109.893043 
L 316.477531 -108.866708 
L 317.470237 -107.83894 
L 318.462943 -106.816817 
L 319.455648 -105.798496 
L 320.448354 -104.761403 
L 321.44106 -103.733477 
L 322.433766 -102.700607 
L 323.426472 -101.658637 
L 324.419178 -100.626108 
L 325.411884 -99.569514 
L 326.40459 -98.523876 
L 327.397296 -97.462061 
L 328.390002 -96.435162 
L 329.382708 -95.380128 
L 330.375414 -94.338611 
L 331.36812 -93.296218 
L 332.360825 -92.275363 
L 333.353531 -91.262075 
L 334.346237 -90.26943 
L 335.338943 -89.287579 
L 336.331649 -88.329864 
L 337.324355 -87.399736 
L 338.317061 -86.498673 
L 339.309767 -85.623177 
L 340.302473 -84.764925 
L 341.295179 -83.954155 
L 342.287885 -83.163197 
L 343.280591 -82.400184 
L 344.273297 -81.673826 
L 345.266002 -80.984718 
L 346.258708 -80.302905 
L 347.251414 -79.648863 
L 348.24412 -79.006865 
L 349.236826 -78.370212 
L 350.229532 -77.756934 
L 351.222238 -77.151182 
L 352.214944 -76.52929 
L 353.20765 -75.914717 
L 354.200356 -75.31815 
L 355.193062 -74.711947 
L 356.185768 -74.095235 
L 357.178474 -73.478907 
L 358.17118 -72.848246 
L 359.163885 -72.221012 
L 360.156591 -71.592392 
L 361.149297 -70.950345 
L 362.142003 -70.288204 
L 363.134709 -69.636886 
L 364.127415 -68.980796 
L 365.120121 -68.324088 
L 366.112827 -67.668871 
L 367.105533 -67.014106 
L 368.098239 -66.367316 
L 369.090945 -65.712177 
L 370.083651 -65.063525 
L 371.076357 -64.425011 
L 372.069062 -63.78585 
L 373.061768 -63.158792 
L 374.054474 -62.542609 
L 375.04718 -61.941205 
L 376.039886 -61.346314 
L 377.032592 -60.760413 
L 378.025298 -60.193607 
L 379.018004 -59.6361 
L 380.01071 -59.090643 
L 381.003416 -58.574989 
L 381.996122 -58.058881 
L 382.988828 -57.567763 
L 383.981534 -57.087083 
L 384.974239 -56.619813 
L 385.966945 -56.1771 
L 386.959651 -55.745211 
L 387.952357 -55.334654 
L 388.945063 -54.9427 
L 389.937769 -54.56558 
L 390.930475 -54.201538 
L 391.923181 -53.856425 
L 392.915887 -53.511448 
L 393.908593 -53.191745 
L 394.901299 -52.891111 
L 395.894005 -52.600814 
L 396.886711 -52.31176 
L 397.879416 -52.047891 
L 398.872122 -51.79752 
L 399.864828 -51.554638 
L 400.857534 -51.327698 
L 401.85024 -51.095149 
L 402.842946 -50.880563 
L 403.835652 -50.675016 
L 404.828358 -50.471943 
L 405.821064 -50.273473 
L 406.81377 -50.080556 
L 407.806476 -49.888556 
L 408.799182 -49.706691 
L 409.791888 -49.522176 
L 410.784593 -49.349475 
L 411.777299 -49.168852 
L 412.770005 -48.992029 
L 413.762711 -48.820833 
L 414.755417 -48.650735 
L 415.748123 -48.485172 
L 416.740829 -48.322805 
L 417.733535 -48.154077 
L 418.726241 -47.983554 
L 419.718947 -47.818996 
L 420.711653 -47.661205 
L 421.704359 -47.506788 
L 422.697065 -47.351274 
L 423.689771 -47.200087 
L 424.682476 -47.04403 
L 425.675182 -46.891845 
L 426.667888 -46.746664 
L 427.660594 -46.608413 
L 428.6533 -46.465931 
L 429.646006 -46.328328 
L 430.638712 -46.194667 
L 431.631418 -46.064066 
L 432.624124 -45.93569 
L 433.61683 -45.809282 
L 434.609536 -45.677861 
L 435.602242 -45.545332 
L 436.594948 -45.41614 
L 437.587653 -45.28545 
L 438.580359 -45.151242 
L 439.573065 -45.013652 
L 440.565771 -44.879561 
L 441.558477 -44.73885 
L 442.551183 -44.5924 
L 443.543889 -44.449415 
L 444.536595 -44.303281 
L 445.529301 -44.15469 
L 446.522007 -44.003855 
L 447.514713 -43.850501 
L 448.507419 -43.698867 
L 449.500125 -43.536572 
L 450.49283 -43.383308 
L 451.485536 -43.225732 
L 452.478242 -43.071075 
L 453.470948 -42.915579 
L 454.463654 -42.763843 
L 455.45636 -42.61727 
L 456.449066 -42.466825 
L 457.441772 -42.324418 
L 458.434478 -42.18821 
L 459.427184 -42.055341 
L 460.41989 -41.931229 
L 461.412596 -41.814706 
L 462.405302 -41.704578 
L 463.398007 -41.60395 
L 464.390713 -41.515861 
L 465.383419 -41.433831 
L 466.376125 -41.369516 
L 467.368831 -41.315135 
L 468.361537 -41.273248 
L 469.354243 -41.246212 
L 470.346949 -41.23406 
L 471.339655 -41.228848 
L 472.332361 -41.236057 
L 473.325067 -41.256447 
L 474.317773 -41.285031 
L 475.310479 -41.326029 
L 476.303184 -41.374122 
L 477.29589 -41.426035 
L 478.288596 -41.483319 
L 479.281302 -41.542446 
L 480.274008 -41.603784 
L 481.266714 -41.661139 
L 482.25942 -41.713283 
L 483.252126 -41.762402 
L 484.244832 -41.800906 
L 485.237538 -41.831847 
L 486.230244 -41.857491 
L 487.22295 -41.872788 
L 488.215656 -41.877459 
L 489.208362 -41.87151 
L 490.201067 -41.851828 
L 491.193773 -41.824889 
L 492.186479 -41.790833 
L 493.179185 -41.748417 
L 494.171891 -41.698761 
L 495.164597 -41.643053 
L 496.157303 -41.5791 
L 497.150009 -41.515711 
L 498.142715 -41.449541 
L 499.135421 -41.381604 
L 500.128127 -41.31276 
L 501.120833 -41.243694 
L 502.113539 -41.173208 
L 503.106244 -41.103738 
L 504.09895 -41.037022 
L 505.091656 -40.970844 
L 506.084362 -40.909574 
L 507.077068 -40.849895 
L 508.069774 -40.787389 
L 509.06248 -40.725258 
L 510.055186 -40.663321 
L 511.047892 -40.601449 
L 512.040598 -40.539586 
L 513.033304 -40.477775 
L 514.02601 -40.414473 
L 515.018716 -40.353768 
L 516.011421 -40.293828 
L 517.004127 -40.233464 
L 517.996833 -40.177087 
L 518.989539 -40.121428 
L 519.982245 -40.069303 
L 520.974951 -40.019604 
L 521.967657 -39.978412 
L 522.960363 -39.938493 
L 523.953069 -39.904608 
L 524.945775 -39.880326 
L 525.938481 -39.861437 
L 526.931187 -39.848015 
L 527.923893 -39.839918 
L 528.916598 -39.835097 
L 529.909304 -39.836826 
L 530.90201 -39.844402 
L 531.894716 -39.853179 
L 532.887422 -39.864462 
L 533.880128 -39.879506 
L 534.872834 -39.892987 
L 535.86554 -39.905665 
L 536.858246 -39.918904 
L 537.850952 -39.926443 
L 538.843658 -39.9315 
L 539.836364 -39.935247 
L 539.836364 -38.879844 
L 539.836364 -38.879844 
L 538.843658 -38.879844 
L 537.850952 -38.879844 
L 536.858246 -38.879844 
L 535.86554 -38.879844 
L 534.872834 -38.879844 
L 533.880128 -38.879844 
L 532.887422 -38.879844 
L 531.894716 -38.879844 
L 530.90201 -38.879844 
L 529.909304 -38.879844 
L 528.916598 -38.879844 
L 527.923893 -38.879844 
L 526.931187 -38.879844 
L 525.938481 -38.879844 
L 524.945775 -38.879844 
L 523.953069 -38.879844 
L 522.960363 -38.879844 
L 521.967657 -38.879844 
L 520.974951 -38.879844 
L 519.982245 -38.879844 
L 518.989539 -38.879844 
L 517.996833 -38.879844 
L 517.004127 -38.879844 
L 516.011421 -38.879844 
L 515.018716 -38.879844 
L 514.02601 -38.879844 
L 513.033304 -38.879844 
L 512.040598 -38.879844 
L 511.047892 -38.879844 
L 510.055186 -38.879844 
L 509.06248 -38.879844 
L 508.069774 -38.879844 
L 507.077068 -38.879844 
L 506.084362 -38.879844 
L 505.091656 -38.879844 
L 504.09895 -38.879844 
L 503.106244 -38.879844 
L 502.113539 -38.879844 
L 501.120833 -38.879844 
L 500.128127 -38.879844 
L 499.135421 -38.879844 
L 498.142715 -38.879844 
L 497.150009 -38.879844 
L 496.157303 -38.879844 
L 495.164597 -38.879844 
L 494.171891 -38.879844 
L 493.179185 -38.879844 
L 492.186479 -38.879844 
L 491.193773 -38.879844 
L 490.201067 -38.879844 
L 489.208362 -38.879844 
L 488.215656 -38.879844 
L 487.22295 -38.879844 
L 486.230244 -38.879844 
L 485.237538 -38.879844 
L 484.244832 -38.879844 
L 483.252126 -38.879844 
L 482.25942 -38.879844 
L 481.266714 -38.879844 
L 480.274008 -38.879844 
L 479.281302 -38.879844 
L 478.288596 -38.879844 
L 477.29589 -38.879844 
L 476.303184 -38.879844 
L 475.310479 -38.879844 
L 474.317773 -38.879844 
L 473.325067 -38.879844 
L 472.332361 -38.879844 
L 471.339655 -38.879844 
L 470.346949 -38.879844 
L 469.354243 -38.879844 
L 468.361537 -38.879844 
L 467.368831 -38.879844 
L 466.376125 -38.879844 
L 465.383419 -38.879844 
L 464.390713 -38.879844 
L 463.398007 -38.879844 
L 462.405302 -38.879844 
L 461.412596 -38.879844 
L 460.41989 -38.879844 
L 459.427184 -38.879844 
L 458.434478 -38.879844 
L 457.441772 -38.879844 
L 456.449066 -38.879844 
L 455.45636 -38.879844 
L 454.463654 -38.879844 
L 453.470948 -38.879844 
L 452.478242 -38.879844 
L 451.485536 -38.879844 
L 450.49283 -38.879844 
L 449.500125 -38.879844 
L 448.507419 -38.879844 
L 447.514713 -38.879844 
L 446.522007 -38.879844 
L 445.529301 -38.879844 
L 444.536595 -38.879844 
L 443.543889 -38.879844 
L 442.551183 -38.879844 
L 441.558477 -38.879844 
L 440.565771 -38.879844 
L 439.573065 -38.879844 
L 438.580359 -38.879844 
L 437.587653 -38.879844 
L 436.594948 -38.879844 
L 435.602242 -38.879844 
L 434.609536 -38.879844 
L 433.61683 -38.879844 
L 432.624124 -38.879844 
L 431.631418 -38.879844 
L 430.638712 -38.879844 
L 429.646006 -38.879844 
L 428.6533 -38.879844 
L 427.660594 -38.879844 
L 426.667888 -38.879844 
L 425.675182 -38.879844 
L 424.682476 -38.879844 
L 423.689771 -38.879844 
L 422.697065 -38.879844 
L 421.704359 -38.879844 
L 420.711653 -38.879844 
L 419.718947 -38.879844 
L 418.726241 -38.879844 
L 417.733535 -38.879844 
L 416.740829 -38.879844 
L 415.748123 -38.879844 
L 414.755417 -38.879844 
L 413.762711 -38.879844 
L 412.770005 -38.879844 
L 411.777299 -38.879844 
L 410.784593 -38.879844 
L 409.791888 -38.879844 
L 408.799182 -38.879844 
L 407.806476 -38.879844 
L 406.81377 -38.879844 
L 405.821064 -38.879844 
L 404.828358 -38.879844 
L 403.835652 -38.879844 
L 402.842946 -38.879844 
L 401.85024 -38.879844 
L 400.857534 -38.879844 
L 399.864828 -38.879844 
L 398.872122 -38.879844 
L 397.879416 -38.879844 
L 396.886711 -38.879844 
L 395.894005 -38.879844 
L 394.901299 -38.879844 
L 393.908593 -38.879844 
L 392.915887 -38.879844 
L 391.923181 -38.879844 
L 390.930475 -38.879844 
L 389.937769 -38.879844 
L 388.945063 -38.879844 
L 387.952357 -38.879844 
L 386.959651 -38.879844 
L 385.966945 -38.879844 
L 384.974239 -38.879844 
L 383.981534 -38.879844 
L 382.988828 -38.879844 
L 381.996122 -38.879844 
L 381.003416 -38.879844 
L 380.01071 -38.879844 
L 379.018004 -38.879844 
L 378.025298 -38.879844 
L 377.032592 -38.879844 
L 376.039886 -38.879844 
L 375.04718 -38.879844 
L 374.054474 -38.879844 
L 373.061768 -38.879844 
L 372.069062 -38.879844 
L 371.076357 -38.879844 
L 370.083651 -38.879844 
L 369.090945 -38.879844 
L 368.098239 -38.879844 
L 367.105533 -38.879844 
L 366.112827 -38.879844 
L 365.120121 -38.879844 
L 364.127415 -38.879844 
L 363.134709 -38.879844 
L 362.142003 -38.879844 
L 361.149297 -38.879844 
L 360.156591 -38.879844 
L 359.163885 -38.879844 
L 358.17118 -38.879844 
L 357.178474 -38.879844 
L 356.185768 -38.879844 
L 355.193062 -38.879844 
L 354.200356 -38.879844 
L 353.20765 -38.879844 
L 352.214944 -38.879844 
L 351.222238 -38.879844 
L 350.229532 -38.879844 
L 349.236826 -38.879844 
L 348.24412 -38.879844 
L 347.251414 -38.879844 
L 346.258708 -38.879844 
L 345.266002 -38.879844 
L 344.273297 -38.879844 
L 343.280591 -38.879844 
L 342.287885 -38.879844 
L 341.295179 -38.879844 
L 340.302473 -38.879844 
L 339.309767 -38.879844 
L 338.317061 -38.879844 
L 337.324355 -38.879844 
L 336.331649 -38.879844 
L 335.338943 -38.879844 
L 334.346237 -38.879844 
L 333.353531 -38.879844 
L 332.360825 -38.879844 
L 331.36812 -38.879844 
L 330.375414 -38.879844 
L 329.382708 -38.879844 
L 328.390002 -38.879844 
L 327.397296 -38.879844 
L 326.40459 -38.879844 
L 325.411884 -38.879844 
L 324.419178 -38.879844 
L 323.426472 -38.879844 
L 322.433766 -38.879844 
L 321.44106 -38.879844 
L 320.448354 -38.879844 
L 319.455648 -38.879844 
L 318.462943 -38.879844 
L 317.470237 -38.879844 
L 316.477531 -38.879844 
L 315.484825 -38.879844 
L 314.492119 -38.879844 
L 313.499413 -38.879844 
L 312.506707 -38.879844 
L 311.514001 -38.879844 
L 310.521295 -38.879844 
L 309.528589 -38.879844 
L 308.535883 -38.879844 
L 307.543177 -38.879844 
L 306.550471 -38.879844 
L 305.557766 -38.879844 
L 304.56506 -38.879844 
L 303.572354 -38.879844 
L 302.579648 -38.879844 
L 301.586942 -38.879844 
L 300.594236 -38.879844 
L 299.60153 -38.879844 
L 298.608824 -38.879844 
L 297.616118 -38.879844 
L 296.623412 -38.879844 
L 295.630706 -38.879844 
L 294.638 -38.879844 
L 293.645294 -38.879844 
L 292.652589 -38.879844 
L 291.659883 -38.879844 
L 290.667177 -38.879844 
L 289.674471 -38.879844 
L 288.681765 -38.879844 
L 287.689059 -38.879844 
L 286.696353 -38.879844 
L 285.703647 -38.879844 
L 284.710941 -38.879844 
L 283.718235 -38.879844 
L 282.725529 -38.879844 
L 281.732823 -38.879844 
L 280.740117 -38.879844 
L 279.747411 -38.879844 
L 278.754706 -38.879844 
L 277.762 -38.879844 
L 276.769294 -38.879844 
L 275.776588 -38.879844 
L 274.783882 -38.879844 
L 273.791176 -38.879844 
L 272.79847 -38.879844 
L 271.805764 -38.879844 
L 270.813058 -38.879844 
L 269.820352 -38.879844 
L 268.827646 -38.879844 
L 267.83494 -38.879844 
L 266.842234 -38.879844 
L 265.849529 -38.879844 
L 264.856823 -38.879844 
L 263.864117 -38.879844 
L 262.871411 -38.879844 
L 261.878705 -38.879844 
L 260.885999 -38.879844 
L 259.893293 -38.879844 
L 258.900587 -38.879844 
L 257.907881 -38.879844 
L 256.915175 -38.879844 
L 255.922469 -38.879844 
L 254.929763 -38.879844 
L 253.937057 -38.879844 
L 252.944352 -38.879844 
L 251.951646 -38.879844 
L 250.95894 -38.879844 
L 249.966234 -38.879844 
L 248.973528 -38.879844 
L 247.980822 -38.879844 
L 246.988116 -38.879844 
L 245.99541 -38.879844 
L 245.002704 -38.879844 
L 244.009998 -38.879844 
L 243.017292 -38.879844 
L 242.024586 -38.879844 
L 241.03188 -38.879844 
L 240.039175 -38.879844 
L 239.046469 -38.879844 
L 238.053763 -38.879844 
L 237.061057 -38.879844 
L 236.068351 -38.879844 
L 235.075645 -38.879844 
L 234.082939 -38.879844 
L 233.090233 -38.879844 
L 232.097527 -38.879844 
L 231.104821 -38.879844 
L 230.112115 -38.879844 
L 229.119409 -38.879844 
L 228.126703 -38.879844 
L 227.133998 -38.879844 
L 226.141292 -38.879844 
L 225.148586 -38.879844 
L 224.15588 -38.879844 
L 223.163174 -38.879844 
L 222.170468 -38.879844 
L 221.177762 -38.879844 
L 220.185056 -38.879844 
L 219.19235 -38.879844 
L 218.199644 -38.879844 
L 217.206938 -38.879844 
L 216.214232 -38.879844 
L 215.221526 -38.879844 
L 214.22882 -38.879844 
L 213.236115 -38.879844 
L 212.243409 -38.879844 
L 211.250703 -38.879844 
L 210.257997 -38.879844 
L 209.265291 -38.879844 
L 208.272585 -38.879844 
L 207.279879 -38.879844 
L 206.287173 -38.879844 
L 205.294467 -38.879844 
L 204.301761 -38.879844 
L 203.309055 -38.879844 
L 202.316349 -38.879844 
L 201.323643 -38.879844 
L 200.330938 -38.879844 
L 199.338232 -38.879844 
L 198.345526 -38.879844 
L 197.35282 -38.879844 
L 196.360114 -38.879844 
L 195.367408 -38.879844 
L 194.374702 -38.879844 
L 193.381996 -38.879844 
L 192.38929 -38.879844 
L 191.396584 -38.879844 
L 190.403878 -38.879844 
L 189.411172 -38.879844 
L 188.418466 -38.879844 
L 187.425761 -38.879844 
L 186.433055 -38.879844 
L 185.440349 -38.879844 
L 184.447643 -38.879844 
L 183.454937 -38.879844 
L 182.462231 -38.879844 
L 181.469525 -38.879844 
L 180.476819 -38.879844 
L 179.484113 -38.879844 
L 178.491407 -38.879844 
L 177.498701 -38.879844 
L 176.505995 -38.879844 
L 175.513289 -38.879844 
L 174.520584 -38.879844 
L 173.527878 -38.879844 
L 172.535172 -38.879844 
L 171.542466 -38.879844 
L 170.54976 -38.879844 
L 169.557054 -38.879844 
L 168.564348 -38.879844 
L 167.571642 -38.879844 
L 166.578936 -38.879844 
L 165.58623 -38.879844 
L 164.593524 -38.879844 
L 163.600818 -38.879844 
L 162.608112 -38.879844 
L 161.615407 -38.879844 
L 160.622701 -38.879844 
L 159.629995 -38.879844 
L 158.637289 -38.879844 
L 157.644583 -38.879844 
L 156.651877 -38.879844 
L 155.659171 -38.879844 
L 154.666465 -38.879844 
L 153.673759 -38.879844 
L 152.681053 -38.879844 
L 151.688347 -38.879844 
L 150.695641 -38.879844 
L 149.702935 -38.879844 
L 148.710229 -38.879844 
L 147.717524 -38.879844 
L 146.724818 -38.879844 
L 145.732112 -38.879844 
L 144.739406 -38.879844 
L 143.7467 -38.879844 
L 142.753994 -38.879844 
L 141.761288 -38.879844 
L 140.768582 -38.879844 
L 139.775876 -38.879844 
L 138.78317 -38.879844 
L 137.790464 -38.879844 
L 136.797758 -38.879844 
L 135.805052 -38.879844 
L 134.812347 -38.879844 
L 133.819641 -38.879844 
L 132.826935 -38.879844 
L 131.834229 -38.879844 
L 130.841523 -38.879844 
L 129.848817 -38.879844 
L 128.856111 -38.879844 
L 127.863405 -38.879844 
L 126.870699 -38.879844 
L 125.877993 -38.879844 
L 124.885287 -38.879844 
L 123.892581 -38.879844 
L 122.899875 -38.879844 
L 121.90717 -38.879844 
L 120.914464 -38.879844 
L 119.921758 -38.879844 
L 118.929052 -38.879844 
L 117.936346 -38.879844 
L 116.94364 -38.879844 
L 115.950934 -38.879844 
L 114.958228 -38.879844 
L 113.965522 -38.879844 
L 112.972816 -38.879844 
L 111.98011 -38.879844 
L 110.987404 -38.879844 
L 109.994698 -38.879844 
L 109.001993 -38.879844 
L 108.009287 -38.879844 
L 107.016581 -38.879844 
L 106.023875 -38.879844 
L 105.031169 -38.879844 
L 104.038463 -38.879844 
L 103.045757 -38.879844 
L 102.053051 -38.879844 
L 101.060345 -38.879844 
L 100.067639 -38.879844 
L 99.074933 -38.879844 
L 98.082227 -38.879844 
L 97.089521 -38.879844 
L 96.096816 -38.879844 
L 95.10411 -38.879844 
L 94.111404 -38.879844 
L 93.118698 -38.879844 
L 92.125992 -38.879844 
L 91.133286 -38.879844 
L 90.14058 -38.879844 
L 89.147874 -38.879844 
L 88.155168 -38.879844 
L 87.162462 -38.879844 
L 86.169756 -38.879844 
L 85.17705 -38.879844 
L 84.184344 -38.879844 
L 83.191638 -38.879844 
L 82.198933 -38.879844 
L 81.206227 -38.879844 
L 80.213521 -38.879844 
L 79.220815 -38.879844 
L 78.228109 -38.879844 
L 77.235403 -38.879844 
L 76.242697 -38.879844 
L 75.249991 -38.879844 
L 74.257285 -38.879844 
L 73.264579 -38.879844 
L 72.271873 -38.879844 
L 71.279167 -38.879844 
L 70.286461 -38.879844 
L 69.293756 -38.879844 
L 68.30105 -38.879844 
L 67.308344 -38.879844 
L 66.315638 -38.879844 
L 65.322932 -38.879844 
L 64.330226 -38.879844 
L 63.33752 -38.879844 
L 62.344814 -38.879844 
L 61.352108 -38.879844 
L 60.359402 -38.879844 
L 59.366696 -38.879844 
L 58.37399 -38.879844 
L 57.381284 -38.879844 
L 56.388579 -38.879844 
L 55.395873 -38.879844 
L 54.403167 -38.879844 
L 53.410461 -38.879844 
L 52.417755 -38.879844 
L 51.425049 -38.879844 
L 50.432343 -38.879844 
L 49.439637 -38.879844 
L 48.446931 -38.879844 
L 47.454225 -38.879844 
L 46.461519 -38.879844 
L 45.468813 -38.879844 
L 44.476107 -38.879844 
L 43.483402 -38.879844 
L 42.490696 -38.879844 
L 41.49799 -38.879844 
L 40.505284 -38.879844 
L 39.512578 -38.879844 
L 38.519872 -38.879844 
L 37.527166 -38.879844 
L 36.53446 -38.879844 
L 35.541754 -38.879844 
L 34.549048 -38.879844 
L 33.556342 -38.879844 
L 32.563636 -38.879844 
z
" style="stroke: #0173b2; stroke-opacity: 0"/>
    </defs>
    <g clip-path="url(#p3816eedac8)">
     <use xlink:href="#m03d54008e6" x="0" y="378.189219" style="fill: #0173b2; fill-opacity: 0; stroke: #0173b2; stroke-opacity: 0"/>
    </g>
   </g>
   <g id="line2d_17">
    <path d="M 32.563636 329.831264 
L 34.549048 329.684676 
L 36.53446 329.322678 
L 38.519872 328.762997 
L 41.49799 327.510605 
L 43.483402 326.410083 
L 45.468813 325.11657 
L 47.454225 323.606766 
L 50.432343 320.941504 
L 53.410461 317.811588 
L 56.388579 314.264891 
L 59.366696 310.318896 
L 62.344814 306.084499 
L 66.315638 300.047219 
L 70.286461 293.495001 
L 73.264579 288.179605 
L 76.242697 282.377303 
L 79.220815 276.008933 
L 82.198933 268.950585 
L 85.17705 261.193607 
L 88.155168 252.792927 
L 91.133286 243.803464 
L 95.10411 231.126947 
L 100.067639 214.382858 
L 106.023875 193.418955 
L 119.921758 144.166589 
L 124.885287 127.287674 
L 130.841523 107.774716 
L 134.812347 95.293459 
L 137.790464 86.52261 
L 140.768582 78.370656 
L 142.753994 73.346336 
L 145.732112 66.509467 
L 148.710229 60.560017 
L 150.695641 57.085065 
L 152.681053 53.931218 
L 154.666465 51.10425 
L 157.644583 47.365547 
L 159.629995 45.119073 
L 162.608112 42.25605 
L 164.593524 40.589822 
L 167.571642 38.71879 
L 169.557054 37.787329 
L 171.542466 37.207367 
L 173.527878 36.948441 
L 175.513289 36.957786 
L 177.498701 37.242482 
L 179.484113 37.829742 
L 181.469525 38.621836 
L 183.454937 39.61625 
L 185.440349 40.858023 
L 187.425761 42.34355 
L 189.411172 44.131818 
L 191.396584 46.225151 
L 193.381996 48.63929 
L 195.367408 51.434066 
L 198.345526 56.120615 
L 206.287173 69.287102 
L 208.272585 72.053304 
L 210.257997 74.507355 
L 212.243409 76.542111 
L 214.22882 78.298788 
L 220.185056 83.089105 
L 222.170468 85.100954 
L 224.15588 87.472485 
L 226.141292 90.474287 
L 228.126703 93.992488 
L 230.112115 97.989675 
L 232.097527 102.435088 
L 236.068351 111.978857 
L 240.039175 121.56864 
L 243.017292 128.214431 
L 245.99541 134.265078 
L 249.966234 141.579591 
L 254.929763 150.767193 
L 257.907881 156.817933 
L 259.893293 161.213033 
L 262.871411 168.318387 
L 266.842234 178.567568 
L 272.79847 194.018099 
L 275.776588 201.23696 
L 278.754706 208.024408 
L 282.725529 216.589269 
L 290.667177 232.649257 
L 294.638 240.230083 
L 297.616118 245.508401 
L 300.594236 250.337195 
L 303.572354 254.641015 
L 306.550471 258.472448 
L 309.528589 261.952376 
L 314.492119 267.264828 
L 336.331649 289.859355 
L 339.309767 292.566041 
L 342.287885 295.026022 
L 345.266002 297.2045 
L 349.236826 299.819007 
L 362.142003 307.901014 
L 375.04718 316.248014 
L 380.01071 319.098576 
L 384.974239 321.569406 
L 388.945063 323.246519 
L 392.915887 324.67777 
L 396.886711 325.877458 
L 401.85024 327.094069 
L 408.799182 328.482527 
L 417.733535 330.035142 
L 425.675182 331.297373 
L 435.602242 332.643886 
L 445.529301 334.034529 
L 461.412596 336.374513 
L 466.376125 336.819703 
L 470.346949 336.955159 
L 474.317773 336.904187 
L 490.201067 336.337391 
L 496.157303 336.610119 
L 523.953069 338.284611 
L 530.90201 338.344817 
L 539.836364 338.253972 
L 539.836364 338.253972 
" clip-path="url(#p3816eedac8)" style="fill: none; stroke: #0173b2; stroke-width: 1.5; stroke-linecap: round"/>
   </g>
   <g id="line2d_18">
    <path d="M 68.550766 332.958975 
L 332.823973 332.958975 
" clip-path="url(#p3816eedac8)" style="fill: none; stroke: #1a1a1a; stroke-width: 3"/>
   </g>
   <g id="patch_3">
    <path d="M 7.2 354.429375 
L 565.2 354.429375 
" style="fill: none; stroke: #808080; stroke-width: 1.25; stroke-linejoin: miter; stroke-linecap: square"/>
   </g>
   <g id="text_9">
    <!-- 3.2  -->
    <g style="fill: #262626" transform="translate(48.537016 317.082975) scale(0.12 -0.12)">
     <defs>
      <path id="ArialMT-33" d="M 269 1209 
L 831 1284 
Q 928 806 1161 595 
Q 1394 384 1728 384 
Q 2125 384 2398 659 
Q 2672 934 2672 1341 
Q 2672 1728 2419 1979 
Q 2166 2231 1775 2231 
Q 1616 2231 1378 2169 
L 1441 2663 
Q 1497 2656 1531 2656 
Q 1891 2656 2178 2843 
Q 2466 3031 2466 3422 
Q 2466 3731 2256 3934 
Q 2047 4138 1716 4138 
Q 1388 4138 1169 3931 
Q 950 3725 888 3313 
L 325 3413 
Q 428 3978 793 4289 
Q 1159 4600 1703 4600 
Q 2078 4600 2393 4439 
Q 2709 4278 2876 4000 
Q 3044 3722 3044 3409 
Q 3044 3113 2884 2869 
Q 2725 2625 2413 2481 
Q 2819 2388 3044 2092 
Q 3269 1797 3269 1353 
Q 3269 753 2831 336 
Q 2394 -81 1725 -81 
Q 1122 -81 723 278 
Q 325 638 269 1209 
z
" transform="scale(0.015625)"/>
      <path id="ArialMT-20" transform="scale(0.015625)"/>
     </defs>
     <use xlink:href="#ArialMT-33"/>
     <use xlink:href="#ArialMT-2e" x="55.615234"/>
     <use xlink:href="#ArialMT-32" x="83.398438"/>
     <use xlink:href="#ArialMT-20" x="139.013672"/>
    </g>
   </g>
   <g id="text_10">
    <!--  13 -->
    <g style="fill: #262626" transform="translate(332.823973 317.082975) scale(0.12 -0.12)">
     <use xlink:href="#ArialMT-20"/>
     <use xlink:href="#ArialMT-31" x="27.783203"/>
     <use xlink:href="#ArialMT-33" x="83.398438"/>
    </g>
   </g>
   <g id="text_11">
    <!-- 94% HDI -->
    <g style="fill: #262626" transform="translate(176.678932 244.053375) scale(0.12 -0.12)">
     <defs>
      <path id="ArialMT-39" d="M 350 1059 
L 891 1109 
Q 959 728 1153 556 
Q 1347 384 1650 384 
Q 1909 384 2104 503 
Q 2300 622 2425 820 
Q 2550 1019 2634 1356 
Q 2719 1694 2719 2044 
Q 2719 2081 2716 2156 
Q 2547 1888 2255 1720 
Q 1963 1553 1622 1553 
Q 1053 1553 659 1965 
Q 266 2378 266 3053 
Q 266 3750 677 4175 
Q 1088 4600 1706 4600 
Q 2153 4600 2523 4359 
Q 2894 4119 3086 3673 
Q 3278 3228 3278 2384 
Q 3278 1506 3087 986 
Q 2897 466 2520 194 
Q 2144 -78 1638 -78 
Q 1100 -78 759 220 
Q 419 519 350 1059 
z
M 2653 3081 
Q 2653 3566 2395 3850 
Q 2138 4134 1775 4134 
Q 1400 4134 1122 3828 
Q 844 3522 844 3034 
Q 844 2597 1108 2323 
Q 1372 2050 1759 2050 
Q 2150 2050 2401 2323 
Q 2653 2597 2653 3081 
z
" transform="scale(0.015625)"/>
      <path id="ArialMT-34" d="M 2069 0 
L 2069 1097 
L 81 1097 
L 81 1613 
L 2172 4581 
L 2631 4581 
L 2631 1613 
L 3250 1613 
L 3250 1097 
L 2631 1097 
L 2631 0 
L 2069 0 
z
M 2069 1613 
L 2069 3678 
L 634 1613 
L 2069 1613 
z
" transform="scale(0.015625)"/>
      <path id="ArialMT-25" d="M 372 3481 
Q 372 3972 619 4315 
Q 866 4659 1334 4659 
Q 1766 4659 2048 4351 
Q 2331 4044 2331 3447 
Q 2331 2866 2045 2552 
Q 1759 2238 1341 2238 
Q 925 2238 648 2547 
Q 372 2856 372 3481 
z
M 1350 4272 
Q 1141 4272 1002 4090 
Q 863 3909 863 3425 
Q 863 2984 1003 2804 
Q 1144 2625 1350 2625 
Q 1563 2625 1702 2806 
Q 1841 2988 1841 3469 
Q 1841 3913 1700 4092 
Q 1559 4272 1350 4272 
z
M 1353 -169 
L 3859 4659 
L 4316 4659 
L 1819 -169 
L 1353 -169 
z
M 3334 1075 
Q 3334 1569 3581 1911 
Q 3828 2253 4300 2253 
Q 4731 2253 5014 1945 
Q 5297 1638 5297 1041 
Q 5297 459 5011 145 
Q 4725 -169 4303 -169 
Q 3888 -169 3611 142 
Q 3334 453 3334 1075 
z
M 4316 1866 
Q 4103 1866 3964 1684 
Q 3825 1503 3825 1019 
Q 3825 581 3965 400 
Q 4106 219 4313 219 
Q 4528 219 4667 400 
Q 4806 581 4806 1063 
Q 4806 1506 4665 1686 
Q 4525 1866 4316 1866 
z
" transform="scale(0.015625)"/>
      <path id="ArialMT-48" d="M 513 0 
L 513 4581 
L 1119 4581 
L 1119 2700 
L 3500 2700 
L 3500 4581 
L 4106 4581 
L 4106 0 
L 3500 0 
L 3500 2159 
L 1119 2159 
L 1119 0 
L 513 0 
z
" transform="scale(0.015625)"/>
      <path id="ArialMT-44" d="M 494 0 
L 494 4581 
L 2072 4581 
Q 2606 4581 2888 4516 
Q 3281 4425 3559 4188 
Q 3922 3881 4101 3404 
Q 4281 2928 4281 2316 
Q 4281 1794 4159 1391 
Q 4038 988 3847 723 
Q 3656 459 3429 307 
Q 3203 156 2883 78 
Q 2563 0 2147 0 
L 494 0 
z
M 1100 541 
L 2078 541 
Q 2531 541 2789 625 
Q 3047 709 3200 863 
Q 3416 1078 3536 1442 
Q 3656 1806 3656 2325 
Q 3656 3044 3420 3430 
Q 3184 3816 2847 3947 
Q 2603 4041 2063 4041 
L 1100 4041 
L 1100 541 
z
" transform="scale(0.015625)"/>
      <path id="ArialMT-49" d="M 597 0 
L 597 4581 
L 1203 4581 
L 1203 0 
L 597 0 
z
" transform="scale(0.015625)"/>
     </defs>
     <use xlink:href="#ArialMT-39"/>
     <use xlink:href="#ArialMT-34" x="55.615234"/>
     <use xlink:href="#ArialMT-25" x="111.230469"/>
     <use xlink:href="#ArialMT-20" x="200.146484"/>
     <use xlink:href="#ArialMT-48" x="227.929688"/>
     <use xlink:href="#ArialMT-44" x="300.146484"/>
     <use xlink:href="#ArialMT-49" x="372.363281"/>
    </g>
   </g>
   <g id="text_12">
    <!-- mean=8.2 -->
    <g style="fill: #262626" transform="translate(173.460537 85.293375) scale(0.12 -0.12)">
     <defs>
      <path id="ArialMT-6d" d="M 422 0 
L 422 3319 
L 925 3319 
L 925 2853 
Q 1081 3097 1340 3245 
Q 1600 3394 1931 3394 
Q 2300 3394 2536 3241 
Q 2772 3088 2869 2813 
Q 3263 3394 3894 3394 
Q 4388 3394 4653 3120 
Q 4919 2847 4919 2278 
L 4919 0 
L 4359 0 
L 4359 2091 
Q 4359 2428 4304 2576 
Q 4250 2725 4106 2815 
Q 3963 2906 3769 2906 
Q 3419 2906 3187 2673 
Q 2956 2441 2956 1928 
L 2956 0 
L 2394 0 
L 2394 2156 
Q 2394 2531 2256 2718 
Q 2119 2906 1806 2906 
Q 1569 2906 1367 2781 
Q 1166 2656 1075 2415 
Q 984 2175 984 1722 
L 984 0 
L 422 0 
z
" transform="scale(0.015625)"/>
      <path id="ArialMT-65" d="M 2694 1069 
L 3275 997 
Q 3138 488 2766 206 
Q 2394 -75 1816 -75 
Q 1088 -75 661 373 
Q 234 822 234 1631 
Q 234 2469 665 2931 
Q 1097 3394 1784 3394 
Q 2450 3394 2872 2941 
Q 3294 2488 3294 1666 
Q 3294 1616 3291 1516 
L 816 1516 
Q 847 969 1125 678 
Q 1403 388 1819 388 
Q 2128 388 2347 550 
Q 2566 713 2694 1069 
z
M 847 1978 
L 2700 1978 
Q 2663 2397 2488 2606 
Q 2219 2931 1791 2931 
Q 1403 2931 1139 2672 
Q 875 2413 847 1978 
z
" transform="scale(0.015625)"/>
      <path id="ArialMT-61" d="M 2588 409 
Q 2275 144 1986 34 
Q 1697 -75 1366 -75 
Q 819 -75 525 192 
Q 231 459 231 875 
Q 231 1119 342 1320 
Q 453 1522 633 1644 
Q 813 1766 1038 1828 
Q 1203 1872 1538 1913 
Q 2219 1994 2541 2106 
Q 2544 2222 2544 2253 
Q 2544 2597 2384 2738 
Q 2169 2928 1744 2928 
Q 1347 2928 1158 2789 
Q 969 2650 878 2297 
L 328 2372 
Q 403 2725 575 2942 
Q 747 3159 1072 3276 
Q 1397 3394 1825 3394 
Q 2250 3394 2515 3294 
Q 2781 3194 2906 3042 
Q 3031 2891 3081 2659 
Q 3109 2516 3109 2141 
L 3109 1391 
Q 3109 606 3145 398 
Q 3181 191 3288 0 
L 2700 0 
Q 2613 175 2588 409 
z
M 2541 1666 
Q 2234 1541 1622 1453 
Q 1275 1403 1131 1340 
Q 988 1278 909 1158 
Q 831 1038 831 891 
Q 831 666 1001 516 
Q 1172 366 1500 366 
Q 1825 366 2078 508 
Q 2331 650 2450 897 
Q 2541 1088 2541 1459 
L 2541 1666 
z
" transform="scale(0.015625)"/>
      <path id="ArialMT-6e" d="M 422 0 
L 422 3319 
L 928 3319 
L 928 2847 
Q 1294 3394 1984 3394 
Q 2284 3394 2536 3286 
Q 2788 3178 2913 3003 
Q 3038 2828 3088 2588 
Q 3119 2431 3119 2041 
L 3119 0 
L 2556 0 
L 2556 2019 
Q 2556 2363 2490 2533 
Q 2425 2703 2258 2804 
Q 2091 2906 1866 2906 
Q 1506 2906 1245 2678 
Q 984 2450 984 1813 
L 984 0 
L 422 0 
z
" transform="scale(0.015625)"/>
      <path id="ArialMT-3d" d="M 3381 2694 
L 356 2694 
L 356 3219 
L 3381 3219 
L 3381 2694 
z
M 3381 1303 
L 356 1303 
L 356 1828 
L 3381 1828 
L 3381 1303 
z
" transform="scale(0.015625)"/>
      <path id="ArialMT-38" d="M 1131 2484 
Q 781 2613 612 2850 
Q 444 3088 444 3419 
Q 444 3919 803 4259 
Q 1163 4600 1759 4600 
Q 2359 4600 2725 4251 
Q 3091 3903 3091 3403 
Q 3091 3084 2923 2848 
Q 2756 2613 2416 2484 
Q 2838 2347 3058 2040 
Q 3278 1734 3278 1309 
Q 3278 722 2862 322 
Q 2447 -78 1769 -78 
Q 1091 -78 675 323 
Q 259 725 259 1325 
Q 259 1772 486 2073 
Q 713 2375 1131 2484 
z
M 1019 3438 
Q 1019 3113 1228 2906 
Q 1438 2700 1772 2700 
Q 2097 2700 2305 2904 
Q 2513 3109 2513 3406 
Q 2513 3716 2298 3927 
Q 2084 4138 1766 4138 
Q 1444 4138 1231 3931 
Q 1019 3725 1019 3438 
z
M 838 1322 
Q 838 1081 952 856 
Q 1066 631 1291 507 
Q 1516 384 1775 384 
Q 2178 384 2440 643 
Q 2703 903 2703 1303 
Q 2703 1709 2433 1975 
Q 2163 2241 1756 2241 
Q 1359 2241 1098 1978 
Q 838 1716 838 1322 
z
" transform="scale(0.015625)"/>
     </defs>
     <use xlink:href="#ArialMT-6d"/>
     <use xlink:href="#ArialMT-65" x="83.300781"/>
     <use xlink:href="#ArialMT-61" x="138.916016"/>
     <use xlink:href="#ArialMT-6e" x="194.53125"/>
     <use xlink:href="#ArialMT-3d" x="250.146484"/>
     <use xlink:href="#ArialMT-38" x="308.544922"/>
     <use xlink:href="#ArialMT-2e" x="364.160156"/>
     <use xlink:href="#ArialMT-32" x="391.943359"/>
    </g>
   </g>
   <g id="text_13">
    <!-- mu_A -->
    <g style="fill: #262626" transform="translate(270.526875 15.789375) scale(0.12 -0.12)">
     <defs>
      <path id="ArialMT-75" d="M 2597 0 
L 2597 488 
Q 2209 -75 1544 -75 
Q 1250 -75 995 37 
Q 741 150 617 320 
Q 494 491 444 738 
Q 409 903 409 1263 
L 409 3319 
L 972 3319 
L 972 1478 
Q 972 1038 1006 884 
Q 1059 663 1231 536 
Q 1403 409 1656 409 
Q 1909 409 2131 539 
Q 2353 669 2445 892 
Q 2538 1116 2538 1541 
L 2538 3319 
L 3100 3319 
L 3100 0 
L 2597 0 
z
" transform="scale(0.015625)"/>
      <path id="ArialMT-5f" d="M -97 -1272 
L -97 -866 
L 3631 -866 
L 3631 -1272 
L -97 -1272 
z
" transform="scale(0.015625)"/>
      <path id="ArialMT-41" d="M -9 0 
L 1750 4581 
L 2403 4581 
L 4278 0 
L 3588 0 
L 3053 1388 
L 1138 1388 
L 634 0 
L -9 0 
z
M 1313 1881 
L 2866 1881 
L 2388 3150 
Q 2169 3728 2063 4100 
Q 1975 3659 1816 3225 
L 1313 1881 
z
" transform="scale(0.015625)"/>
     </defs>
     <use xlink:href="#ArialMT-6d"/>
     <use xlink:href="#ArialMT-75" x="83.300781"/>
     <use xlink:href="#ArialMT-5f" x="138.916016"/>
     <use xlink:href="#ArialMT-41" x="194.53125"/>
    </g>
   </g>
  </g>
 </g>
 <defs>
  <clipPath id="p3816eedac8">
   <rect x="7.2" y="21.789375" width="558" height="332.64"/>
  </clipPath>
 </defs>
</svg>