<?xml version="1.0" encoding="UTF-8" standalone="no"?>
<!DOCTYPE svg PUBLIC "-//W3C//DTD SVG 1.1//EN"
 "http://www.w3.org/Graphics/SVG/1.1/DTD/svg11.dtd">
<!-- Generated by graphviz version 9.0.0 (0)
 -->
<!-- Pages: 1 -->
<svg width="304pt" height="116pt"
 viewBox="0.00 0.00 304.04 116.00" xmlns="http://www.w3.org/2000/svg" xmlns:xlink="http://www.w3.org/1999/xlink">
<g id="graph0" class="graph" transform="scale(1 1) rotate(0) translate(4 112)">
<polygon fill="white" stroke="none" points="-4,4 -4,-112 300.04,-112 300.04,4 -4,4"/>
<!-- Competence -->
<g id="node1" class="node">
<title>Competence</title>
<ellipse fill="none" stroke="black" cx="57.49" cy="-90" rx="57.49" ry="18"/>
<text text-anchor="middle" x="57.49" y="-84.95" font-family="Times,serif" font-size="14.00">Competence</text>
</g>
<!-- Promotion -->
<g id="node2" class="node">
<title>Promotion</title>
<ellipse fill="none" stroke="black" cx="135.49" cy="-18" rx="50.33" ry="18"/>
<text text-anchor="middle" x="135.49" y="-12.95" font-family="Times,serif" font-size="14.00">Promotion</text>
</g>
<!-- Competence&#45;&gt;Promotion -->
<g id="edge1" class="edge">
<title>Competence&#45;&gt;Promotion</title>
<path fill="none" stroke="black" d="M75.58,-72.76C85.53,-63.84 98.04,-52.61 109.06,-42.72"/>
<polygon fill="black" stroke="black" points="111.27,-45.44 116.37,-36.16 106.59,-40.23 111.27,-45.44"/>
</g>
<!-- Ability to Network -->
<g id="node3" class="node">
<title>Ability to Network</title>
<ellipse fill="none" stroke="black" cx="214.49" cy="-90" rx="81.55" ry="18"/>
<text text-anchor="middle" x="214.49" y="-84.95" font-family="Times,serif" font-size="14.00">Ability to Network</text>
</g>
<!-- Ability to Network&#45;&gt;Promotion -->
<g id="edge2" class="edge">
<title>Ability to Network&#45;&gt;Promotion</title>
<path fill="none" stroke="black" d="M195.37,-72.05C185.35,-63.18 172.93,-52.17 162,-42.49"/>
<polygon fill="black" stroke="black" points="164.57,-40.08 154.76,-36.07 159.92,-45.32 164.57,-40.08"/>
</g>
</g>
</svg>