<?xml version="1.0" encoding="UTF-8" standalone="no"?>
<!DOCTYPE svg PUBLIC "-//W3C//DTD SVG 1.1//EN"
 "http://www.w3.org/Graphics/SVG/1.1/DTD/svg11.dtd">
<!-- Generated by graphviz version 8.1.0 (0)
 -->
<!-- Pages: 1 -->
<svg width="786pt" height="462pt"
 viewBox="0.00 0.00 785.73 462.45" xmlns="http://www.w3.org/2000/svg" xmlns:xlink="http://www.w3.org/1999/xlink">
<g id="graph0" class="graph" transform="scale(1 1) rotate(0) translate(4 458.45)">
<polygon fill="white" stroke="none" points="-4,4 -4,-458.45 781.73,-458.45 781.73,4 -4,4"/>
<g id="clust1" class="cluster">
<title>clustergroup (5)</title>
<path fill="none" stroke="black" d="M232.73,-223.32C232.73,-223.32 540.73,-223.32 540.73,-223.32 546.73,-223.32 552.73,-229.32 552.73,-235.32 552.73,-235.32 552.73,-333.13 552.73,-333.13 552.73,-339.13 546.73,-345.13 540.73,-345.13 540.73,-345.13 232.73,-345.13 232.73,-345.13 226.73,-345.13 220.73,-339.13 220.73,-333.13 220.73,-333.13 220.73,-235.32 220.73,-235.32 220.73,-229.32 226.73,-223.32 232.73,-223.32"/>
<text text-anchor="middle" x="519.23" y="-230.52" font-family="Times,serif" font-size="14.00">group (5)</text>
</g>
<g id="clust2" class="cluster">
<title>clusterobs_id (100)</title>
<path fill="none" stroke="black" d="M572.73,-8C572.73,-8 757.73,-8 757.73,-8 763.73,-8 769.73,-14 769.73,-20 769.73,-20 769.73,-321.23 769.73,-321.23 769.73,-327.23 763.73,-333.23 757.73,-333.23 757.73,-333.23 572.73,-333.23 572.73,-333.23 566.73,-333.23 560.73,-327.23 560.73,-321.23 560.73,-321.23 560.73,-20 560.73,-20 560.73,-14 566.73,-8 572.73,-8"/>
<text text-anchor="middle" x="727.23" y="-15.2" font-family="Times,serif" font-size="14.00">obs_id (100)</text>
</g>
<!-- sigma_hyperprior -->
<g id="node1" class="node">
<title>sigma_hyperprior</title>
<ellipse fill="none" stroke="black" cx="79.73" cy="-413.79" rx="79.73" ry="40.66"/>
<text text-anchor="middle" x="79.73" y="-425.24" font-family="Times,serif" font-size="14.00">sigma_hyperprior</text>
<text text-anchor="middle" x="79.73" y="-408.74" font-family="Times,serif" font-size="14.00">~</text>
<text text-anchor="middle" x="79.73" y="-392.24" font-family="Times,serif" font-size="14.00">HalfNormal</text>
</g>
<!-- sigma -->
<g id="node6" class="node">
<title>sigma</title>
<ellipse fill="none" stroke="black" cx="286.73" cy="-296.48" rx="57.98" ry="40.66"/>
<text text-anchor="middle" x="286.73" y="-307.93" font-family="Times,serif" font-size="14.00">sigma</text>
<text text-anchor="middle" x="286.73" y="-291.43" font-family="Times,serif" font-size="14.00">~</text>
<text text-anchor="middle" x="286.73" y="-274.93" font-family="Times,serif" font-size="14.00">HalfNormal</text>
</g>
<!-- sigma_hyperprior&#45;&gt;sigma -->
<g id="edge1" class="edge">
<title>sigma_hyperprior&#45;&gt;sigma</title>
<path fill="none" stroke="black" d="M133.03,-383.1C163.54,-366.1 201.72,-344.83 232.39,-327.74"/>
<polygon fill="black" stroke="black" points="233.62,-330.51 240.66,-322.58 230.22,-324.39 233.62,-330.51"/>
</g>
<!-- intercept_sigma -->
<g id="node2" class="node">
<title>intercept_sigma</title>
<ellipse fill="none" stroke="black" cx="250.73" cy="-413.79" rx="72.83" ry="40.66"/>
<text text-anchor="middle" x="250.73" y="-425.24" font-family="Times,serif" font-size="14.00">intercept_sigma</text>
<text text-anchor="middle" x="250.73" y="-408.74" font-family="Times,serif" font-size="14.00">~</text>
<text text-anchor="middle" x="250.73" y="-392.24" font-family="Times,serif" font-size="14.00">HalfNormal</text>
</g>
<!-- β0 -->
<g id="node8" class="node">
<title>β0</title>
<ellipse fill="none" stroke="black" cx="403.73" cy="-296.48" rx="41.01" ry="40.66"/>
<text text-anchor="middle" x="403.73" y="-307.93" font-family="Times,serif" font-size="14.00">β0</text>
<text text-anchor="middle" x="403.73" y="-291.43" font-family="Times,serif" font-size="14.00">~</text>
<text text-anchor="middle" x="403.73" y="-274.93" font-family="Times,serif" font-size="14.00">Normal</text>
</g>
<!-- intercept_sigma&#45;&gt;β0 -->
<g id="edge2" class="edge">
<title>intercept_sigma&#45;&gt;β0</title>
<path fill="none" stroke="black" d="M299.67,-383.2C317.2,-371.94 336.81,-358.58 353.73,-345.13 358.3,-341.5 362.95,-337.52 367.48,-333.46"/>
<polygon fill="black" stroke="black" points="369.46,-336.47 374.45,-327.12 364.72,-331.32 369.46,-336.47"/>
</g>
<!-- intercept_mu -->
<g id="node3" class="node">
<title>intercept_mu</title>
<ellipse fill="none" stroke="black" cx="403.73" cy="-413.79" rx="62.23" ry="40.66"/>
<text text-anchor="middle" x="403.73" y="-425.24" font-family="Times,serif" font-size="14.00">intercept_mu</text>
<text text-anchor="middle" x="403.73" y="-408.74" font-family="Times,serif" font-size="14.00">~</text>
<text text-anchor="middle" x="403.73" y="-392.24" font-family="Times,serif" font-size="14.00">Normal</text>
</g>
<!-- intercept_mu&#45;&gt;β0 -->
<g id="edge3" class="edge">
<title>intercept_mu&#45;&gt;β0</title>
<path fill="none" stroke="black" d="M403.73,-372.78C403.73,-364.91 403.73,-356.56 403.73,-348.38"/>
<polygon fill="black" stroke="black" points="407.23,-348.41 403.73,-338.41 400.23,-348.41 407.23,-348.41"/>
</g>
<!-- slope_mu -->
<g id="node4" class="node">
<title>slope_mu</title>
<ellipse fill="none" stroke="black" cx="532.73" cy="-413.79" rx="48.97" ry="40.66"/>
<text text-anchor="middle" x="532.73" y="-425.24" font-family="Times,serif" font-size="14.00">slope_mu</text>
<text text-anchor="middle" x="532.73" y="-408.74" font-family="Times,serif" font-size="14.00">~</text>
<text text-anchor="middle" x="532.73" y="-392.24" font-family="Times,serif" font-size="14.00">Normal</text>
</g>
<!-- β1 -->
<g id="node7" class="node">
<title>β1</title>
<ellipse fill="none" stroke="black" cx="503.73" cy="-296.48" rx="41.01" ry="40.66"/>
<text text-anchor="middle" x="503.73" y="-307.93" font-family="Times,serif" font-size="14.00">β1</text>
<text text-anchor="middle" x="503.73" y="-291.43" font-family="Times,serif" font-size="14.00">~</text>
<text text-anchor="middle" x="503.73" y="-274.93" font-family="Times,serif" font-size="14.00">Normal</text>
</g>
<!-- slope_mu&#45;&gt;β1 -->
<g id="edge4" class="edge">
<title>slope_mu&#45;&gt;β1</title>
<path fill="none" stroke="black" d="M522.91,-373.75C520.71,-365.02 518.35,-355.64 516.07,-346.56"/>
<polygon fill="black" stroke="black" points="519.27,-345.93 513.44,-337.09 512.48,-347.64 519.27,-345.93"/>
</g>
<!-- slope_sigma -->
<g id="node5" class="node">
<title>slope_sigma</title>
<ellipse fill="none" stroke="black" cx="659.73" cy="-413.79" rx="59.57" ry="40.66"/>
<text text-anchor="middle" x="659.73" y="-425.24" font-family="Times,serif" font-size="14.00">slope_sigma</text>
<text text-anchor="middle" x="659.73" y="-408.74" font-family="Times,serif" font-size="14.00">~</text>
<text text-anchor="middle" x="659.73" y="-392.24" font-family="Times,serif" font-size="14.00">HalfNormal</text>
</g>
<!-- slope_sigma&#45;&gt;β1 -->
<g id="edge5" class="edge">
<title>slope_sigma&#45;&gt;β1</title>
<path fill="none" stroke="black" d="M615.62,-385.9C597,-374.02 575.36,-359.5 556.73,-345.13 551.52,-341.12 546.19,-336.72 541.01,-332.26"/>
<polygon fill="black" stroke="black" points="543.86,-329.23 534.04,-325.26 539.24,-334.49 543.86,-329.23"/>
</g>
<!-- y -->
<g id="node9" class="node">
<title>y</title>
<ellipse fill="lightgrey" stroke="black" cx="613.73" cy="-81.16" rx="41.01" ry="40.66"/>
<text text-anchor="middle" x="613.73" y="-92.61" font-family="Times,serif" font-size="14.00">y</text>
<text text-anchor="middle" x="613.73" y="-76.11" font-family="Times,serif" font-size="14.00">~</text>
<text text-anchor="middle" x="613.73" y="-59.61" font-family="Times,serif" font-size="14.00">Normal</text>
</g>
<!-- sigma&#45;&gt;y -->
<g id="edge10" class="edge">
<title>sigma&#45;&gt;y</title>
<path fill="none" stroke="black" d="M315.01,-260.53C326.25,-247.9 339.82,-234.11 353.73,-223.32 421.58,-170.66 511.73,-126.57 566.09,-102.32"/>
<polygon fill="black" stroke="black" points="567.41,-105.12 575.14,-97.88 564.58,-98.72 567.41,-105.12"/>
</g>
<!-- μ -->
<g id="node11" class="node">
<title>μ</title>
<polygon fill="none" stroke="black" points="658.85,-215.32 568.6,-215.32 568.6,-157.82 658.85,-157.82 658.85,-215.32"/>
<text text-anchor="middle" x="613.73" y="-198.02" font-family="Times,serif" font-size="14.00">μ</text>
<text text-anchor="middle" x="613.73" y="-181.52" font-family="Times,serif" font-size="14.00">~</text>
<text text-anchor="middle" x="613.73" y="-165.02" font-family="Times,serif" font-size="14.00">Deterministic</text>
</g>
<!-- β1&#45;&gt;μ -->
<g id="edge6" class="edge">
<title>β1&#45;&gt;μ</title>
<path fill="none" stroke="black" d="M524.81,-261.37C533.71,-248.56 544.77,-234.43 556.73,-223.32 557.74,-222.38 558.78,-221.45 559.84,-220.53"/>
<polygon fill="black" stroke="black" points="561.72,-222.71 567.36,-213.75 557.36,-217.24 561.72,-222.71"/>
</g>
<!-- β0&#45;&gt;μ -->
<g id="edge8" class="edge">
<title>β0&#45;&gt;μ</title>
<path fill="none" stroke="black" d="M421.3,-259.48C429.45,-246.26 440.32,-232.34 453.73,-223.32 484.28,-202.76 524.81,-193.85 557.44,-190.06"/>
<polygon fill="black" stroke="black" points="557.58,-193.47 567.17,-188.97 556.87,-186.5 557.58,-193.47"/>
</g>
<!-- x -->
<g id="node10" class="node">
<title>x</title>
<path fill="lightgrey" stroke="black" d="M644.35,-325.23C644.35,-325.23 581.1,-325.23 581.1,-325.23 575.1,-325.23 569.1,-319.23 569.1,-313.23 569.1,-313.23 569.1,-279.73 569.1,-279.73 569.1,-273.73 575.1,-267.73 581.1,-267.73 581.1,-267.73 644.35,-267.73 644.35,-267.73 650.35,-267.73 656.35,-273.73 656.35,-279.73 656.35,-279.73 656.35,-313.23 656.35,-313.23 656.35,-319.23 650.35,-325.23 644.35,-325.23"/>
<text text-anchor="middle" x="612.73" y="-307.93" font-family="Times,serif" font-size="14.00">x</text>
<text text-anchor="middle" x="612.73" y="-291.43" font-family="Times,serif" font-size="14.00">~</text>
<text text-anchor="middle" x="612.73" y="-274.93" font-family="Times,serif" font-size="14.00">MutableData</text>
</g>
<!-- x&#45;&gt;μ -->
<g id="edge7" class="edge">
<title>x&#45;&gt;μ</title>
<path fill="none" stroke="black" d="M612.99,-267.41C613.1,-254.92 613.24,-240 613.37,-226.46"/>
<polygon fill="black" stroke="black" points="616.87,-226.53 613.47,-216.5 609.87,-226.46 616.87,-226.53"/>
</g>
<!-- μ&#45;&gt;y -->
<g id="edge11" class="edge">
<title>μ&#45;&gt;y</title>
<path fill="none" stroke="black" d="M613.73,-157.58C613.73,-150.01 613.73,-141.58 613.73,-133.17"/>
<polygon fill="black" stroke="black" points="617.23,-133.2 613.73,-123.2 610.23,-133.2 617.23,-133.2"/>
</g>
<!-- g -->
<g id="node12" class="node">
<title>g</title>
<path fill="lightgrey" stroke="black" d="M749.35,-325.23C749.35,-325.23 686.1,-325.23 686.1,-325.23 680.1,-325.23 674.1,-319.23 674.1,-313.23 674.1,-313.23 674.1,-279.73 674.1,-279.73 674.1,-273.73 680.1,-267.73 686.1,-267.73 686.1,-267.73 749.35,-267.73 749.35,-267.73 755.35,-267.73 761.35,-273.73 761.35,-279.73 761.35,-279.73 761.35,-313.23 761.35,-313.23 761.35,-319.23 755.35,-325.23 749.35,-325.23"/>
<text text-anchor="middle" x="717.73" y="-307.93" font-family="Times,serif" font-size="14.00">g</text>
<text text-anchor="middle" x="717.73" y="-291.43" font-family="Times,serif" font-size="14.00">~</text>
<text text-anchor="middle" x="717.73" y="-274.93" font-family="Times,serif" font-size="14.00">MutableData</text>
</g>
<!-- g&#45;&gt;y -->
<g id="edge12" class="edge">
<title>g&#45;&gt;y</title>
<path fill="none" stroke="black" d="M709.97,-267.38C701.55,-238.88 686.72,-193.94 667.73,-157.82 661.38,-145.76 653.35,-133.42 645.43,-122.31"/>
<polygon fill="black" stroke="black" points="647.86,-120.7 639.14,-114.68 642.21,-124.82 647.86,-120.7"/>
</g>
<!-- g&#45;&gt;μ -->
<g id="edge9" class="edge">
<title>g&#45;&gt;μ</title>
<path fill="none" stroke="black" d="M700.74,-267.34C691.43,-253.22 679.08,-236.38 665.73,-223.32 665.56,-223.15 665.39,-222.99 665.22,-222.83"/>
<polygon fill="black" stroke="black" points="668.01,-220.74 658.21,-216.72 663.37,-225.97 668.01,-220.74"/>
</g>
</g>
</svg>