<?xml version="1.0" encoding="utf-8" standalone="no"?>
<!DOCTYPE svg PUBLIC "-//W3C//DTD SVG 1.1//EN"
  "http://www.w3.org/Graphics/SVG/1.1/DTD/svg11.dtd">
<svg xmlns:xlink="http://www.w3.org/1999/xlink" width="578.623088pt" height="378.189219pt" viewBox="0 0 578.623088 378.189219" xmlns="http://www.w3.org/2000/svg" version="1.1">
 <metadata>
  <rdf:RDF xmlns:dc="http://purl.org/dc/elements/1.1/" xmlns:cc="http://creativecommons.org/ns#" xmlns:rdf="http://www.w3.org/1999/02/22-rdf-syntax-ns#">
   <cc:Work>
    <dc:type rdf:resource="http://purl.org/dc/dcmitype/StillImage"/>
    <dc:date>2023-09-17T11:24:17.097652</dc:date>
    <dc:format>image/svg+xml</dc:format>
    <dc:creator>
     <cc:Agent>
      <dc:title>Matplotlib v3.7.2, https://matplotlib.org/</dc:title>
     </cc:Agent>
    </dc:creator>
   </cc:Work>
  </rdf:RDF>
 </metadata>
 <defs>
  <style type="text/css">*{stroke-linejoin: round; stroke-linecap: butt}</style>
 </defs>
 <g id="figure_1">
  <g id="patch_1">
   <path d="M 0 378.189219 
L 578.623088 378.189219 
L 578.623088 0 
L 0 0 
z
" style="fill: #ffffff"/>
  </g>
  <g id="axes_1">
   <g id="patch_2">
    <path d="M 7.2 354.429375 
L 565.2 354.429375 
L 565.2 21.789375 
L 7.2 21.789375 
z
" style="fill: #eaeaf2"/>
   </g>
   <g id="matplotlib.axis_1">
    <g id="xtick_1">
     <g id="line2d_1">
      <path d="M 49.696444 354.429375 
L 49.696444 21.789375 
" clip-path="url(#p0fb012904a)" style="fill: none; stroke: #ffffff; stroke-linecap: round"/>
     </g>
     <g id="line2d_2">
      <defs>
       <path id="mcc1681da1b" d="M 0 0 
L 0 3 
" style="stroke: #808080"/>
      </defs>
      <g>
       <use xlink:href="#mcc1681da1b" x="49.696444" y="354.429375" style="fill: #808080; stroke: #808080"/>
      </g>
     </g>
     <g id="text_1">
      <!-- 2.5 -->
      <g style="fill: #262626" transform="translate(42.051444 368.802969) scale(0.11 -0.11)">
       <defs>
        <path id="ArialMT-32" d="M 3222 541 
L 3222 0 
L 194 0 
Q 188 203 259 391 
Q 375 700 629 1000 
Q 884 1300 1366 1694 
Q 2113 2306 2375 2664 
Q 2638 3022 2638 3341 
Q 2638 3675 2398 3904 
Q 2159 4134 1775 4134 
Q 1369 4134 1125 3890 
Q 881 3647 878 3216 
L 300 3275 
Q 359 3922 746 4261 
Q 1134 4600 1788 4600 
Q 2447 4600 2831 4234 
Q 3216 3869 3216 3328 
Q 3216 3053 3103 2787 
Q 2991 2522 2730 2228 
Q 2469 1934 1863 1422 
Q 1356 997 1212 845 
Q 1069 694 975 541 
L 3222 541 
z
" transform="scale(0.015625)"/>
        <path id="ArialMT-2e" d="M 581 0 
L 581 641 
L 1222 641 
L 1222 0 
L 581 0 
z
" transform="scale(0.015625)"/>
        <path id="ArialMT-35" d="M 266 1200 
L 856 1250 
Q 922 819 1161 601 
Q 1400 384 1738 384 
Q 2144 384 2425 690 
Q 2706 997 2706 1503 
Q 2706 1984 2436 2262 
Q 2166 2541 1728 2541 
Q 1456 2541 1237 2417 
Q 1019 2294 894 2097 
L 366 2166 
L 809 4519 
L 3088 4519 
L 3088 3981 
L 1259 3981 
L 1013 2750 
Q 1425 3038 1878 3038 
Q 2478 3038 2890 2622 
Q 3303 2206 3303 1553 
Q 3303 931 2941 478 
Q 2500 -78 1738 -78 
Q 1113 -78 717 272 
Q 322 622 266 1200 
z
" transform="scale(0.015625)"/>
       </defs>
       <use xlink:href="#ArialMT-32"/>
       <use xlink:href="#ArialMT-2e" x="55.615234"/>
       <use xlink:href="#ArialMT-35" x="83.398438"/>
      </g>
     </g>
    </g>
    <g id="xtick_2">
     <g id="line2d_3">
      <path d="M 113.574335 354.429375 
L 113.574335 21.789375 
" clip-path="url(#p0fb012904a)" style="fill: none; stroke: #ffffff; stroke-linecap: round"/>
     </g>
     <g id="line2d_4">
      <g>
       <use xlink:href="#mcc1681da1b" x="113.574335" y="354.429375" style="fill: #808080; stroke: #808080"/>
      </g>
     </g>
     <g id="text_2">
      <!-- 5.0 -->
      <g style="fill: #262626" transform="translate(105.929335 368.802969) scale(0.11 -0.11)">
       <defs>
        <path id="ArialMT-30" d="M 266 2259 
Q 266 3072 433 3567 
Q 600 4063 929 4331 
Q 1259 4600 1759 4600 
Q 2128 4600 2406 4451 
Q 2684 4303 2865 4023 
Q 3047 3744 3150 3342 
Q 3253 2941 3253 2259 
Q 3253 1453 3087 958 
Q 2922 463 2592 192 
Q 2263 -78 1759 -78 
Q 1097 -78 719 397 
Q 266 969 266 2259 
z
M 844 2259 
Q 844 1131 1108 757 
Q 1372 384 1759 384 
Q 2147 384 2411 759 
Q 2675 1134 2675 2259 
Q 2675 3391 2411 3762 
Q 2147 4134 1753 4134 
Q 1366 4134 1134 3806 
Q 844 3388 844 2259 
z
" transform="scale(0.015625)"/>
       </defs>
       <use xlink:href="#ArialMT-35"/>
       <use xlink:href="#ArialMT-2e" x="55.615234"/>
       <use xlink:href="#ArialMT-30" x="83.398438"/>
      </g>
     </g>
    </g>
    <g id="xtick_3">
     <g id="line2d_5">
      <path d="M 177.452226 354.429375 
L 177.452226 21.789375 
" clip-path="url(#p0fb012904a)" style="fill: none; stroke: #ffffff; stroke-linecap: round"/>
     </g>
     <g id="line2d_6">
      <g>
       <use xlink:href="#mcc1681da1b" x="177.452226" y="354.429375" style="fill: #808080; stroke: #808080"/>
      </g>
     </g>
     <g id="text_3">
      <!-- 7.5 -->
      <g style="fill: #262626" transform="translate(169.807226 368.802969) scale(0.11 -0.11)">
       <defs>
        <path id="ArialMT-37" d="M 303 3981 
L 303 4522 
L 3269 4522 
L 3269 4084 
Q 2831 3619 2401 2847 
Q 1972 2075 1738 1259 
Q 1569 684 1522 0 
L 944 0 
Q 953 541 1156 1306 
Q 1359 2072 1739 2783 
Q 2119 3494 2547 3981 
L 303 3981 
z
" transform="scale(0.015625)"/>
       </defs>
       <use xlink:href="#ArialMT-37"/>
       <use xlink:href="#ArialMT-2e" x="55.615234"/>
       <use xlink:href="#ArialMT-35" x="83.398438"/>
      </g>
     </g>
    </g>
    <g id="xtick_4">
     <g id="line2d_7">
      <path d="M 241.330117 354.429375 
L 241.330117 21.789375 
" clip-path="url(#p0fb012904a)" style="fill: none; stroke: #ffffff; stroke-linecap: round"/>
     </g>
     <g id="line2d_8">
      <g>
       <use xlink:href="#mcc1681da1b" x="241.330117" y="354.429375" style="fill: #808080; stroke: #808080"/>
      </g>
     </g>
     <g id="text_4">
      <!-- 10.0 -->
      <g style="fill: #262626" transform="translate(230.626602 368.802969) scale(0.11 -0.11)">
       <defs>
        <path id="ArialMT-31" d="M 2384 0 
L 1822 0 
L 1822 3584 
Q 1619 3391 1289 3197 
Q 959 3003 697 2906 
L 697 3450 
Q 1169 3672 1522 3987 
Q 1875 4303 2022 4600 
L 2384 4600 
L 2384 0 
z
" transform="scale(0.015625)"/>
       </defs>
       <use xlink:href="#ArialMT-31"/>
       <use xlink:href="#ArialMT-30" x="55.615234"/>
       <use xlink:href="#ArialMT-2e" x="111.230469"/>
       <use xlink:href="#ArialMT-30" x="139.013672"/>
      </g>
     </g>
    </g>
    <g id="xtick_5">
     <g id="line2d_9">
      <path d="M 305.208008 354.429375 
L 305.208008 21.789375 
" clip-path="url(#p0fb012904a)" style="fill: none; stroke: #ffffff; stroke-linecap: round"/>
     </g>
     <g id="line2d_10">
      <g>
       <use xlink:href="#mcc1681da1b" x="305.208008" y="354.429375" style="fill: #808080; stroke: #808080"/>
      </g>
     </g>
     <g id="text_5">
      <!-- 12.5 -->
      <g style="fill: #262626" transform="translate(294.504493 368.802969) scale(0.11 -0.11)">
       <use xlink:href="#ArialMT-31"/>
       <use xlink:href="#ArialMT-32" x="55.615234"/>
       <use xlink:href="#ArialMT-2e" x="111.230469"/>
       <use xlink:href="#ArialMT-35" x="139.013672"/>
      </g>
     </g>
    </g>
    <g id="xtick_6">
     <g id="line2d_11">
      <path d="M 369.085899 354.429375 
L 369.085899 21.789375 
" clip-path="url(#p0fb012904a)" style="fill: none; stroke: #ffffff; stroke-linecap: round"/>
     </g>
     <g id="line2d_12">
      <g>
       <use xlink:href="#mcc1681da1b" x="369.085899" y="354.429375" style="fill: #808080; stroke: #808080"/>
      </g>
     </g>
     <g id="text_6">
      <!-- 15.0 -->
      <g style="fill: #262626" transform="translate(358.382384 368.802969) scale(0.11 -0.11)">
       <use xlink:href="#ArialMT-31"/>
       <use xlink:href="#ArialMT-35" x="55.615234"/>
       <use xlink:href="#ArialMT-2e" x="111.230469"/>
       <use xlink:href="#ArialMT-30" x="139.013672"/>
      </g>
     </g>
    </g>
    <g id="xtick_7">
     <g id="line2d_13">
      <path d="M 432.96379 354.429375 
L 432.96379 21.789375 
" clip-path="url(#p0fb012904a)" style="fill: none; stroke: #ffffff; stroke-linecap: round"/>
     </g>
     <g id="line2d_14">
      <g>
       <use xlink:href="#mcc1681da1b" x="432.96379" y="354.429375" style="fill: #808080; stroke: #808080"/>
      </g>
     </g>
     <g id="text_7">
      <!-- 17.5 -->
      <g style="fill: #262626" transform="translate(422.260275 368.802969) scale(0.11 -0.11)">
       <use xlink:href="#ArialMT-31"/>
       <use xlink:href="#ArialMT-37" x="55.615234"/>
       <use xlink:href="#ArialMT-2e" x="111.230469"/>
       <use xlink:href="#ArialMT-35" x="139.013672"/>
      </g>
     </g>
    </g>
    <g id="xtick_8">
     <g id="line2d_15">
      <path d="M 496.841681 354.429375 
L 496.841681 21.789375 
" clip-path="url(#p0fb012904a)" style="fill: none; stroke: #ffffff; stroke-linecap: round"/>
     </g>
     <g id="line2d_16">
      <g>
       <use xlink:href="#mcc1681da1b" x="496.841681" y="354.429375" style="fill: #808080; stroke: #808080"/>
      </g>
     </g>
     <g id="text_8">
      <!-- 20.0 -->
      <g style="fill: #262626" transform="translate(486.138166 368.802969) scale(0.11 -0.11)">
       <use xlink:href="#ArialMT-32"/>
       <use xlink:href="#ArialMT-30" x="55.615234"/>
       <use xlink:href="#ArialMT-2e" x="111.230469"/>
       <use xlink:href="#ArialMT-30" x="139.013672"/>
      </g>
     </g>
    </g>
    <g id="xtick_9">
     <g id="line2d_17">
      <path d="M 560.719572 354.429375 
L 560.719572 21.789375 
" clip-path="url(#p0fb012904a)" style="fill: none; stroke: #ffffff; stroke-linecap: round"/>
     </g>
     <g id="line2d_18">
      <g>
       <use xlink:href="#mcc1681da1b" x="560.719572" y="354.429375" style="fill: #808080; stroke: #808080"/>
      </g>
     </g>
     <g id="text_9">
      <!-- 22.5 -->
      <g style="fill: #262626" transform="translate(550.016057 368.802969) scale(0.11 -0.11)">
       <use xlink:href="#ArialMT-32"/>
       <use xlink:href="#ArialMT-32" x="55.615234"/>
       <use xlink:href="#ArialMT-2e" x="111.230469"/>
       <use xlink:href="#ArialMT-35" x="139.013672"/>
      </g>
     </g>
    </g>
   </g>
   <g id="matplotlib.axis_2"/>
   <g id="PolyCollection_1">
    <defs>
     <path id="m10edf9fd68" d="M 32.563636 -38.879844 
L 32.563636 -44.619373 
L 33.556342 -44.642508 
L 34.549048 -44.720872 
L 35.541754 -44.82459 
L 36.53446 -44.983847 
L 37.527166 -45.178375 
L 38.519872 -45.420692 
L 39.512578 -45.707605 
L 40.505284 -46.054003 
L 41.49799 -46.43607 
L 42.490696 -46.865984 
L 43.483402 -47.345624 
L 44.476107 -47.875208 
L 45.468813 -48.454796 
L 46.461519 -49.090454 
L 47.454225 -49.770018 
L 48.446931 -50.514322 
L 49.439637 -51.291723 
L 50.432343 -52.127828 
L 51.425049 -53.005715 
L 52.417755 -53.939624 
L 53.410461 -54.935466 
L 54.403167 -55.98503 
L 55.395873 -57.104795 
L 56.388579 -58.2794 
L 57.381284 -59.500534 
L 58.37399 -60.8015 
L 59.366696 -62.160493 
L 60.359402 -63.568544 
L 61.352108 -65.052035 
L 62.344814 -66.606323 
L 63.33752 -68.21918 
L 64.330226 -69.905479 
L 65.322932 -71.649292 
L 66.315638 -73.459172 
L 67.308344 -75.332807 
L 68.30105 -77.272752 
L 69.293756 -79.273119 
L 70.286461 -81.350419 
L 71.279167 -83.471218 
L 72.271873 -85.655862 
L 73.264579 -87.918458 
L 74.257285 -90.256656 
L 75.249991 -92.638407 
L 76.242697 -95.096018 
L 77.235403 -97.618686 
L 78.228109 -100.186091 
L 79.220815 -102.80638 
L 80.213521 -105.501585 
L 81.206227 -108.258857 
L 82.198933 -111.061196 
L 83.191638 -113.910251 
L 84.184344 -116.784056 
L 85.17705 -119.691319 
L 86.169756 -122.634113 
L 87.162462 -125.613575 
L 88.155168 -128.581665 
L 89.147874 -131.561058 
L 90.14058 -134.562905 
L 91.133286 -137.583687 
L 92.125992 -140.587539 
L 93.118698 -143.618897 
L 94.111404 -146.611622 
L 95.10411 -149.615311 
L 96.096816 -152.622691 
L 97.089521 -155.649654 
L 98.082227 -158.670402 
L 99.074933 -161.705809 
L 100.067639 -164.770207 
L 101.060345 -167.870167 
L 102.053051 -170.996299 
L 103.045757 -174.171831 
L 104.038463 -177.363327 
L 105.031169 -180.647178 
L 106.023875 -183.98947 
L 107.016581 -187.373026 
L 108.009287 -190.791616 
L 109.001993 -194.283024 
L 109.994698 -197.820815 
L 110.987404 -201.423189 
L 111.98011 -205.077229 
L 112.972816 -208.783362 
L 113.965522 -212.528028 
L 114.958228 -216.316969 
L 115.950934 -220.093884 
L 116.94364 -223.87688 
L 117.936346 -227.668046 
L 118.929052 -231.424952 
L 119.921758 -235.193942 
L 120.914464 -238.916258 
L 121.90717 -242.571609 
L 122.899875 -246.168113 
L 123.892581 -249.716316 
L 124.885287 -253.17321 
L 125.877993 -256.530323 
L 126.870699 -259.821926 
L 127.863405 -263.002208 
L 128.856111 -266.102464 
L 129.848817 -269.107462 
L 130.841523 -271.987322 
L 131.834229 -274.757713 
L 132.826935 -277.430499 
L 133.819641 -279.996353 
L 134.812347 -282.515784 
L 135.805052 -284.941179 
L 136.797758 -287.25452 
L 137.790464 -289.423025 
L 138.78317 -291.557389 
L 139.775876 -293.586621 
L 140.768582 -295.543709 
L 141.761288 -297.44774 
L 142.753994 -299.302515 
L 143.7467 -301.091272 
L 144.739406 -302.783019 
L 145.732112 -304.480475 
L 146.724818 -306.142892 
L 147.717524 -307.79086 
L 148.710229 -309.434654 
L 149.702935 -311.059154 
L 150.695641 -312.687552 
L 151.688347 -314.335727 
L 152.681053 -316.022383 
L 153.673759 -317.697318 
L 154.666465 -319.394598 
L 155.659171 -321.131897 
L 156.651877 -322.875848 
L 157.644583 -324.651264 
L 158.637289 -326.429956 
L 159.629995 -328.207479 
L 160.622701 -329.927693 
L 161.615407 -331.607357 
L 162.608112 -333.220692 
L 163.600818 -334.726276 
L 164.593524 -336.145066 
L 165.58623 -337.417553 
L 166.578936 -338.508771 
L 167.571642 -339.485895 
L 168.564348 -340.212891 
L 169.557054 -340.751125 
L 170.54976 -341.112328 
L 171.542466 -341.279844 
L 172.535172 -341.188811 
L 173.527878 -340.902727 
L 174.520584 -340.386076 
L 175.513289 -339.703792 
L 176.505995 -338.845075 
L 177.498701 -337.799825 
L 178.491407 -336.590504 
L 179.484113 -335.296029 
L 180.476819 -333.913729 
L 181.469525 -332.407389 
L 182.462231 -330.869716 
L 183.454937 -329.28219 
L 184.447643 -327.655467 
L 185.440349 -326.031038 
L 186.433055 -324.417572 
L 187.425761 -322.812753 
L 188.418466 -321.224852 
L 189.411172 -319.681315 
L 190.403878 -318.146381 
L 191.396584 -316.669505 
L 192.38929 -315.240965 
L 193.381996 -313.829312 
L 194.374702 -312.482354 
L 195.367408 -311.162117 
L 196.360114 -309.829996 
L 197.35282 -308.548769 
L 198.345526 -307.235562 
L 199.338232 -305.981168 
L 200.330938 -304.709201 
L 201.323643 -303.455542 
L 202.316349 -302.124538 
L 203.309055 -300.758956 
L 204.301761 -299.325863 
L 205.294467 -297.856485 
L 206.287173 -296.29672 
L 207.279879 -294.68365 
L 208.272585 -293.02676 
L 209.265291 -291.226198 
L 210.257997 -289.338105 
L 211.250703 -287.39226 
L 212.243409 -285.34776 
L 213.236115 -283.212228 
L 214.22882 -281.041438 
L 215.221526 -278.840241 
L 216.214232 -276.542356 
L 217.206938 -274.25895 
L 218.199644 -271.971837 
L 219.19235 -269.691318 
L 220.185056 -267.434333 
L 221.177762 -265.227489 
L 222.170468 -263.107367 
L 223.163174 -261.048972 
L 224.15588 -259.116774 
L 225.148586 -257.286798 
L 226.141292 -255.554252 
L 227.133998 -253.923879 
L 228.126703 -252.368757 
L 229.119409 -250.964233 
L 230.112115 -249.635663 
L 231.104821 -248.321609 
L 232.097527 -247.110826 
L 233.090233 -245.925897 
L 234.082939 -244.712457 
L 235.075645 -243.518141 
L 236.068351 -242.293202 
L 237.061057 -240.984615 
L 238.053763 -239.605869 
L 239.046469 -238.093077 
L 240.039175 -236.479719 
L 241.03188 -234.759725 
L 242.024586 -232.895427 
L 243.017292 -230.870295 
L 244.009998 -228.665632 
L 245.002704 -226.35234 
L 245.99541 -223.852521 
L 246.988116 -221.236805 
L 247.980822 -218.517577 
L 248.973528 -215.667278 
L 249.966234 -212.725184 
L 250.95894 -209.695569 
L 251.951646 -206.603034 
L 252.944352 -203.441298 
L 253.937057 -200.263064 
L 254.929763 -197.08498 
L 255.922469 -193.888478 
L 256.915175 -190.754804 
L 257.907881 -187.650926 
L 258.900587 -184.598548 
L 259.893293 -181.63385 
L 260.885999 -178.710596 
L 261.878705 -175.901551 
L 262.871411 -173.159528 
L 263.864117 -170.567393 
L 264.856823 -168.102794 
L 265.849529 -165.771508 
L 266.842234 -163.560668 
L 267.83494 -161.484451 
L 268.827646 -159.510086 
L 269.820352 -157.669241 
L 270.813058 -155.938088 
L 271.805764 -154.336848 
L 272.79847 -152.86632 
L 273.791176 -151.505749 
L 274.783882 -150.252295 
L 275.776588 -149.075969 
L 276.769294 -148.012727 
L 277.762 -146.976073 
L 278.754706 -145.991906 
L 279.747411 -145.084116 
L 280.740117 -144.206303 
L 281.732823 -143.329212 
L 282.725529 -142.476967 
L 283.718235 -141.620372 
L 284.710941 -140.765601 
L 285.703647 -139.865872 
L 286.696353 -138.95706 
L 287.689059 -138.015 
L 288.681765 -137.063105 
L 289.674471 -136.099727 
L 290.667177 -135.123542 
L 291.659883 -134.124528 
L 292.652589 -133.097491 
L 293.645294 -132.085816 
L 294.638 -131.089774 
L 295.630706 -130.084456 
L 296.623412 -129.081284 
L 297.616118 -128.124578 
L 298.608824 -127.164997 
L 299.60153 -126.246082 
L 300.594236 -125.345049 
L 301.586942 -124.483454 
L 302.579648 -123.620916 
L 303.572354 -122.767082 
L 304.56506 -121.909756 
L 305.557766 -121.062293 
L 306.550471 -120.208881 
L 307.543177 -119.350657 
L 308.535883 -118.46621 
L 309.528589 -117.555101 
L 310.521295 -116.578688 
L 311.514001 -115.579833 
L 312.506707 -114.528382 
L 313.499413 -113.424475 
L 314.492119 -112.269321 
L 315.484825 -111.070746 
L 316.477531 -109.841331 
L 317.470237 -108.557089 
L 318.462943 -107.222 
L 319.455648 -105.8717 
L 320.448354 -104.476537 
L 321.44106 -103.064559 
L 322.433766 -101.651232 
L 323.426472 -100.234712 
L 324.419178 -98.817242 
L 325.411884 -97.408382 
L 326.40459 -96.009696 
L 327.397296 -94.632207 
L 328.390002 -93.280861 
L 329.382708 -91.95611 
L 330.375414 -90.678561 
L 331.36812 -89.435346 
L 332.360825 -88.242315 
L 333.353531 -87.104477 
L 334.346237 -85.997621 
L 335.338943 -84.949009 
L 336.331649 -83.942642 
L 337.324355 -82.978843 
L 338.317061 -82.030227 
L 339.309767 -81.150092 
L 340.302473 -80.291931 
L 341.295179 -79.473499 
L 342.287885 -78.684742 
L 343.280591 -77.912419 
L 344.273297 -77.145197 
L 345.266002 -76.403257 
L 346.258708 -75.653985 
L 347.251414 -74.914923 
L 348.24412 -74.162539 
L 349.236826 -73.401373 
L 350.229532 -72.630281 
L 351.222238 -71.858586 
L 352.214944 -71.067592 
L 353.20765 -70.253476 
L 354.200356 -69.426832 
L 355.193062 -68.603871 
L 356.185768 -67.768995 
L 357.178474 -66.948721 
L 358.17118 -66.126639 
L 359.163885 -65.327565 
L 360.156591 -64.543082 
L 361.149297 -63.770264 
L 362.142003 -63.030084 
L 363.134709 -62.322307 
L 364.127415 -61.65735 
L 365.120121 -61.002256 
L 366.112827 -60.39932 
L 367.105533 -59.829091 
L 368.098239 -59.292397 
L 369.090945 -58.787194 
L 370.083651 -58.293992 
L 371.076357 -57.822735 
L 372.069062 -57.365432 
L 373.061768 -56.939933 
L 374.054474 -56.522927 
L 375.04718 -56.109956 
L 376.039886 -55.70018 
L 377.032592 -55.286457 
L 378.025298 -54.87622 
L 379.018004 -54.465412 
L 380.01071 -54.041693 
L 381.003416 -53.617805 
L 381.996122 -53.185856 
L 382.988828 -52.755415 
L 383.981534 -52.335338 
L 384.974239 -51.921557 
L 385.966945 -51.508199 
L 386.959651 -51.098316 
L 387.952357 -50.70098 
L 388.945063 -50.31378 
L 389.937769 -49.941076 
L 390.930475 -49.582744 
L 391.923181 -49.235281 
L 392.915887 -48.899183 
L 393.908593 -48.569716 
L 394.901299 -48.258459 
L 395.894005 -47.953191 
L 396.886711 -47.659316 
L 397.879416 -47.387177 
L 398.872122 -47.119052 
L 399.864828 -46.858808 
L 400.857534 -46.609705 
L 401.85024 -46.3698 
L 402.842946 -46.136185 
L 403.835652 -45.911792 
L 404.828358 -45.697309 
L 405.821064 -45.494988 
L 406.81377 -45.308748 
L 407.806476 -45.1329 
L 408.799182 -44.971359 
L 409.791888 -44.826871 
L 410.784593 -44.685953 
L 411.777299 -44.558355 
L 412.770005 -44.442661 
L 413.762711 -44.337869 
L 414.755417 -44.242361 
L 415.748123 -44.151001 
L 416.740829 -44.069661 
L 417.733535 -43.997525 
L 418.726241 -43.918864 
L 419.718947 -43.844051 
L 420.711653 -43.76421 
L 421.704359 -43.685699 
L 422.697065 -43.599035 
L 423.689771 -43.513248 
L 424.682476 -43.424844 
L 425.675182 -43.327075 
L 426.667888 -43.228437 
L 427.660594 -43.125843 
L 428.6533 -43.027282 
L 429.646006 -42.924407 
L 430.638712 -42.824566 
L 431.631418 -42.728645 
L 432.624124 -42.633244 
L 433.61683 -42.545428 
L 434.609536 -42.464996 
L 435.602242 -42.390492 
L 436.594948 -42.317353 
L 437.587653 -42.251682 
L 438.580359 -42.197517 
L 439.573065 -42.147482 
L 440.565771 -42.098821 
L 441.558477 -42.053818 
L 442.551183 -42.00705 
L 443.543889 -41.962737 
L 444.536595 -41.911724 
L 445.529301 -41.85783 
L 446.522007 -41.795933 
L 447.514713 -41.725459 
L 448.507419 -41.653156 
L 449.500125 -41.569089 
L 450.49283 -41.478773 
L 451.485536 -41.378955 
L 452.478242 -41.274831 
L 453.470948 -41.163841 
L 454.463654 -41.049017 
L 455.45636 -40.931947 
L 456.449066 -40.814329 
L 457.441772 -40.697887 
L 458.434478 -40.582666 
L 459.427184 -40.475552 
L 460.41989 -40.374261 
L 461.412596 -40.279069 
L 462.405302 -40.192587 
L 463.398007 -40.11883 
L 464.390713 -40.052549 
L 465.383419 -39.995744 
L 466.376125 -39.948518 
L 467.368831 -39.910735 
L 468.361537 -39.882049 
L 469.354243 -39.861942 
L 470.346949 -39.848125 
L 471.339655 -39.843533 
L 472.332361 -39.843515 
L 473.325067 -39.850907 
L 474.317773 -39.862635 
L 475.310479 -39.87782 
L 476.303184 -39.895583 
L 477.29589 -39.913429 
L 478.288596 -39.931529 
L 479.281302 -39.954333 
L 480.274008 -39.976233 
L 481.266714 -39.990117 
L 482.25942 -40.01022 
L 483.252126 -40.027314 
L 484.244832 -40.041019 
L 485.237538 -40.050987 
L 486.230244 -40.055284 
L 487.22295 -40.057354 
L 488.215656 -40.057038 
L 489.208362 -40.050581 
L 490.201067 -40.039642 
L 491.193773 -40.024337 
L 492.186479 -40.004876 
L 493.179185 -39.981564 
L 494.171891 -39.954792 
L 495.164597 -39.925035 
L 496.157303 -39.893406 
L 497.150009 -39.860529 
L 498.142715 -39.826514 
L 499.135421 -39.792055 
L 500.128127 -39.757828 
L 501.120833 -39.72447 
L 502.113539 -39.692556 
L 503.106244 -39.662585 
L 504.09895 -39.634957 
L 505.091656 -39.609973 
L 506.084362 -39.587819 
L 507.077068 -39.566942 
L 508.069774 -39.551009 
L 509.06248 -39.539918 
L 510.055186 -39.532014 
L 511.047892 -39.525032 
L 512.040598 -39.518718 
L 513.033304 -39.516485 
L 514.02601 -39.515853 
L 515.018716 -39.516537 
L 516.011421 -39.516632 
L 517.004127 -39.519578 
L 517.996833 -39.522969 
L 518.989539 -39.526632 
L 519.982245 -39.530429 
L 520.974951 -39.534252 
L 521.967657 -39.538026 
L 522.960363 -39.543907 
L 523.953069 -39.54657 
L 524.945775 -39.549736 
L 525.938481 -39.554955 
L 526.931187 -39.558472 
L 527.923893 -39.564042 
L 528.916598 -39.569516 
L 529.909304 -39.574909 
L 530.90201 -39.582397 
L 531.894716 -39.58824 
L 532.887422 -39.59399 
L 533.880128 -39.599533 
L 534.872834 -39.604729 
L 535.86554 -39.609423 
L 536.858246 -39.613451 
L 537.850952 -39.616654 
L 538.843658 -39.618886 
L 539.836364 -39.620026 
L 539.836364 -38.879844 
L 539.836364 -38.879844 
L 538.843658 -38.879844 
L 537.850952 -38.879844 
L 536.858246 -38.879844 
L 535.86554 -38.879844 
L 534.872834 -38.879844 
L 533.880128 -38.879844 
L 532.887422 -38.879844 
L 531.894716 -38.879844 
L 530.90201 -38.879844 
L 529.909304 -38.879844 
L 528.916598 -38.879844 
L 527.923893 -38.879844 
L 526.931187 -38.879844 
L 525.938481 -38.879844 
L 524.945775 -38.879844 
L 523.953069 -38.879844 
L 522.960363 -38.879844 
L 521.967657 -38.879844 
L 520.974951 -38.879844 
L 519.982245 -38.879844 
L 518.989539 -38.879844 
L 517.996833 -38.879844 
L 517.004127 -38.879844 
L 516.011421 -38.879844 
L 515.018716 -38.879844 
L 514.02601 -38.879844 
L 513.033304 -38.879844 
L 512.040598 -38.879844 
L 511.047892 -38.879844 
L 510.055186 -38.879844 
L 509.06248 -38.879844 
L 508.069774 -38.879844 
L 507.077068 -38.879844 
L 506.084362 -38.879844 
L 505.091656 -38.879844 
L 504.09895 -38.879844 
L 503.106244 -38.879844 
L 502.113539 -38.879844 
L 501.120833 -38.879844 
L 500.128127 -38.879844 
L 499.135421 -38.879844 
L 498.142715 -38.879844 
L 497.150009 -38.879844 
L 496.157303 -38.879844 
L 495.164597 -38.879844 
L 494.171891 -38.879844 
L 493.179185 -38.879844 
L 492.186479 -38.879844 
L 491.193773 -38.879844 
L 490.201067 -38.879844 
L 489.208362 -38.879844 
L 488.215656 -38.879844 
L 487.22295 -38.879844 
L 486.230244 -38.879844 
L 485.237538 -38.879844 
L 484.244832 -38.879844 
L 483.252126 -38.879844 
L 482.25942 -38.879844 
L 481.266714 -38.879844 
L 480.274008 -38.879844 
L 479.281302 -38.879844 
L 478.288596 -38.879844 
L 477.29589 -38.879844 
L 476.303184 -38.879844 
L 475.310479 -38.879844 
L 474.317773 -38.879844 
L 473.325067 -38.879844 
L 472.332361 -38.879844 
L 471.339655 -38.879844 
L 470.346949 -38.879844 
L 469.354243 -38.879844 
L 468.361537 -38.879844 
L 467.368831 -38.879844 
L 466.376125 -38.879844 
L 465.383419 -38.879844 
L 464.390713 -38.879844 
L 463.398007 -38.879844 
L 462.405302 -38.879844 
L 461.412596 -38.879844 
L 460.41989 -38.879844 
L 459.427184 -38.879844 
L 458.434478 -38.879844 
L 457.441772 -38.879844 
L 456.449066 -38.879844 
L 455.45636 -38.879844 
L 454.463654 -38.879844 
L 453.470948 -38.879844 
L 452.478242 -38.879844 
L 451.485536 -38.879844 
L 450.49283 -38.879844 
L 449.500125 -38.879844 
L 448.507419 -38.879844 
L 447.514713 -38.879844 
L 446.522007 -38.879844 
L 445.529301 -38.879844 
L 444.536595 -38.879844 
L 443.543889 -38.879844 
L 442.551183 -38.879844 
L 441.558477 -38.879844 
L 440.565771 -38.879844 
L 439.573065 -38.879844 
L 438.580359 -38.879844 
L 437.587653 -38.879844 
L 436.594948 -38.879844 
L 435.602242 -38.879844 
L 434.609536 -38.879844 
L 433.61683 -38.879844 
L 432.624124 -38.879844 
L 431.631418 -38.879844 
L 430.638712 -38.879844 
L 429.646006 -38.879844 
L 428.6533 -38.879844 
L 427.660594 -38.879844 
L 426.667888 -38.879844 
L 425.675182 -38.879844 
L 424.682476 -38.879844 
L 423.689771 -38.879844 
L 422.697065 -38.879844 
L 421.704359 -38.879844 
L 420.711653 -38.879844 
L 419.718947 -38.879844 
L 418.726241 -38.879844 
L 417.733535 -38.879844 
L 416.740829 -38.879844 
L 415.748123 -38.879844 
L 414.755417 -38.879844 
L 413.762711 -38.879844 
L 412.770005 -38.879844 
L 411.777299 -38.879844 
L 410.784593 -38.879844 
L 409.791888 -38.879844 
L 408.799182 -38.879844 
L 407.806476 -38.879844 
L 406.81377 -38.879844 
L 405.821064 -38.879844 
L 404.828358 -38.879844 
L 403.835652 -38.879844 
L 402.842946 -38.879844 
L 401.85024 -38.879844 
L 400.857534 -38.879844 
L 399.864828 -38.879844 
L 398.872122 -38.879844 
L 397.879416 -38.879844 
L 396.886711 -38.879844 
L 395.894005 -38.879844 
L 394.901299 -38.879844 
L 393.908593 -38.879844 
L 392.915887 -38.879844 
L 391.923181 -38.879844 
L 390.930475 -38.879844 
L 389.937769 -38.879844 
L 388.945063 -38.879844 
L 387.952357 -38.879844 
L 386.959651 -38.879844 
L 385.966945 -38.879844 
L 384.974239 -38.879844 
L 383.981534 -38.879844 
L 382.988828 -38.879844 
L 381.996122 -38.879844 
L 381.003416 -38.879844 
L 380.01071 -38.879844 
L 379.018004 -38.879844 
L 378.025298 -38.879844 
L 377.032592 -38.879844 
L 376.039886 -38.879844 
L 375.04718 -38.879844 
L 374.054474 -38.879844 
L 373.061768 -38.879844 
L 372.069062 -38.879844 
L 371.076357 -38.879844 
L 370.083651 -38.879844 
L 369.090945 -38.879844 
L 368.098239 -38.879844 
L 367.105533 -38.879844 
L 366.112827 -38.879844 
L 365.120121 -38.879844 
L 364.127415 -38.879844 
L 363.134709 -38.879844 
L 362.142003 -38.879844 
L 361.149297 -38.879844 
L 360.156591 -38.879844 
L 359.163885 -38.879844 
L 358.17118 -38.879844 
L 357.178474 -38.879844 
L 356.185768 -38.879844 
L 355.193062 -38.879844 
L 354.200356 -38.879844 
L 353.20765 -38.879844 
L 352.214944 -38.879844 
L 351.222238 -38.879844 
L 350.229532 -38.879844 
L 349.236826 -38.879844 
L 348.24412 -38.879844 
L 347.251414 -38.879844 
L 346.258708 -38.879844 
L 345.266002 -38.879844 
L 344.273297 -38.879844 
L 343.280591 -38.879844 
L 342.287885 -38.879844 
L 341.295179 -38.879844 
L 340.302473 -38.879844 
L 339.309767 -38.879844 
L 338.317061 -38.879844 
L 337.324355 -38.879844 
L 336.331649 -38.879844 
L 335.338943 -38.879844 
L 334.346237 -38.879844 
L 333.353531 -38.879844 
L 332.360825 -38.879844 
L 331.36812 -38.879844 
L 330.375414 -38.879844 
L 329.382708 -38.879844 
L 328.390002 -38.879844 
L 327.397296 -38.879844 
L 326.40459 -38.879844 
L 325.411884 -38.879844 
L 324.419178 -38.879844 
L 323.426472 -38.879844 
L 322.433766 -38.879844 
L 321.44106 -38.879844 
L 320.448354 -38.879844 
L 319.455648 -38.879844 
L 318.462943 -38.879844 
L 317.470237 -38.879844 
L 316.477531 -38.879844 
L 315.484825 -38.879844 
L 314.492119 -38.879844 
L 313.499413 -38.879844 
L 312.506707 -38.879844 
L 311.514001 -38.879844 
L 310.521295 -38.879844 
L 309.528589 -38.879844 
L 308.535883 -38.879844 
L 307.543177 -38.879844 
L 306.550471 -38.879844 
L 305.557766 -38.879844 
L 304.56506 -38.879844 
L 303.572354 -38.879844 
L 302.579648 -38.879844 
L 301.586942 -38.879844 
L 300.594236 -38.879844 
L 299.60153 -38.879844 
L 298.608824 -38.879844 
L 297.616118 -38.879844 
L 296.623412 -38.879844 
L 295.630706 -38.879844 
L 294.638 -38.879844 
L 293.645294 -38.879844 
L 292.652589 -38.879844 
L 291.659883 -38.879844 
L 290.667177 -38.879844 
L 289.674471 -38.879844 
L 288.681765 -38.879844 
L 287.689059 -38.879844 
L 286.696353 -38.879844 
L 285.703647 -38.879844 
L 284.710941 -38.879844 
L 283.718235 -38.879844 
L 282.725529 -38.879844 
L 281.732823 -38.879844 
L 280.740117 -38.879844 
L 279.747411 -38.879844 
L 278.754706 -38.879844 
L 277.762 -38.879844 
L 276.769294 -38.879844 
L 275.776588 -38.879844 
L 274.783882 -38.879844 
L 273.791176 -38.879844 
L 272.79847 -38.879844 
L 271.805764 -38.879844 
L 270.813058 -38.879844 
L 269.820352 -38.879844 
L 268.827646 -38.879844 
L 267.83494 -38.879844 
L 266.842234 -38.879844 
L 265.849529 -38.879844 
L 264.856823 -38.879844 
L 263.864117 -38.879844 
L 262.871411 -38.879844 
L 261.878705 -38.879844 
L 260.885999 -38.879844 
L 259.893293 -38.879844 
L 258.900587 -38.879844 
L 257.907881 -38.879844 
L 256.915175 -38.879844 
L 255.922469 -38.879844 
L 254.929763 -38.879844 
L 253.937057 -38.879844 
L 252.944352 -38.879844 
L 251.951646 -38.879844 
L 250.95894 -38.879844 
L 249.966234 -38.879844 
L 248.973528 -38.879844 
L 247.980822 -38.879844 
L 246.988116 -38.879844 
L 245.99541 -38.879844 
L 245.002704 -38.879844 
L 244.009998 -38.879844 
L 243.017292 -38.879844 
L 242.024586 -38.879844 
L 241.03188 -38.879844 
L 240.039175 -38.879844 
L 239.046469 -38.879844 
L 238.053763 -38.879844 
L 237.061057 -38.879844 
L 236.068351 -38.879844 
L 235.075645 -38.879844 
L 234.082939 -38.879844 
L 233.090233 -38.879844 
L 232.097527 -38.879844 
L 231.104821 -38.879844 
L 230.112115 -38.879844 
L 229.119409 -38.879844 
L 228.126703 -38.879844 
L 227.133998 -38.879844 
L 226.141292 -38.879844 
L 225.148586 -38.879844 
L 224.15588 -38.879844 
L 223.163174 -38.879844 
L 222.170468 -38.879844 
L 221.177762 -38.879844 
L 220.185056 -38.879844 
L 219.19235 -38.879844 
L 218.199644 -38.879844 
L 217.206938 -38.879844 
L 216.214232 -38.879844 
L 215.221526 -38.879844 
L 214.22882 -38.879844 
L 213.236115 -38.879844 
L 212.243409 -38.879844 
L 211.250703 -38.879844 
L 210.257997 -38.879844 
L 209.265291 -38.879844 
L 208.272585 -38.879844 
L 207.279879 -38.879844 
L 206.287173 -38.879844 
L 205.294467 -38.879844 
L 204.301761 -38.879844 
L 203.309055 -38.879844 
L 202.316349 -38.879844 
L 201.323643 -38.879844 
L 200.330938 -38.879844 
L 199.338232 -38.879844 
L 198.345526 -38.879844 
L 197.35282 -38.879844 
L 196.360114 -38.879844 
L 195.367408 -38.879844 
L 194.374702 -38.879844 
L 193.381996 -38.879844 
L 192.38929 -38.879844 
L 191.396584 -38.879844 
L 190.403878 -38.879844 
L 189.411172 -38.879844 
L 188.418466 -38.879844 
L 187.425761 -38.879844 
L 186.433055 -38.879844 
L 185.440349 -38.879844 
L 184.447643 -38.879844 
L 183.454937 -38.879844 
L 182.462231 -38.879844 
L 181.469525 -38.879844 
L 180.476819 -38.879844 
L 179.484113 -38.879844 
L 178.491407 -38.879844 
L 177.498701 -38.879844 
L 176.505995 -38.879844 
L 175.513289 -38.879844 
L 174.520584 -38.879844 
L 173.527878 -38.879844 
L 172.535172 -38.879844 
L 171.542466 -38.879844 
L 170.54976 -38.879844 
L 169.557054 -38.879844 
L 168.564348 -38.879844 
L 167.571642 -38.879844 
L 166.578936 -38.879844 
L 165.58623 -38.879844 
L 164.593524 -38.879844 
L 163.600818 -38.879844 
L 162.608112 -38.879844 
L 161.615407 -38.879844 
L 160.622701 -38.879844 
L 159.629995 -38.879844 
L 158.637289 -38.879844 
L 157.644583 -38.879844 
L 156.651877 -38.879844 
L 155.659171 -38.879844 
L 154.666465 -38.879844 
L 153.673759 -38.879844 
L 152.681053 -38.879844 
L 151.688347 -38.879844 
L 150.695641 -38.879844 
L 149.702935 -38.879844 
L 148.710229 -38.879844 
L 147.717524 -38.879844 
L 146.724818 -38.879844 
L 145.732112 -38.879844 
L 144.739406 -38.879844 
L 143.7467 -38.879844 
L 142.753994 -38.879844 
L 141.761288 -38.879844 
L 140.768582 -38.879844 
L 139.775876 -38.879844 
L 138.78317 -38.879844 
L 137.790464 -38.879844 
L 136.797758 -38.879844 
L 135.805052 -38.879844 
L 134.812347 -38.879844 
L 133.819641 -38.879844 
L 132.826935 -38.879844 
L 131.834229 -38.879844 
L 130.841523 -38.879844 
L 129.848817 -38.879844 
L 128.856111 -38.879844 
L 127.863405 -38.879844 
L 126.870699 -38.879844 
L 125.877993 -38.879844 
L 124.885287 -38.879844 
L 123.892581 -38.879844 
L 122.899875 -38.879844 
L 121.90717 -38.879844 
L 120.914464 -38.879844 
L 119.921758 -38.879844 
L 118.929052 -38.879844 
L 117.936346 -38.879844 
L 116.94364 -38.879844 
L 115.950934 -38.879844 
L 114.958228 -38.879844 
L 113.965522 -38.879844 
L 112.972816 -38.879844 
L 111.98011 -38.879844 
L 110.987404 -38.879844 
L 109.994698 -38.879844 
L 109.001993 -38.879844 
L 108.009287 -38.879844 
L 107.016581 -38.879844 
L 106.023875 -38.879844 
L 105.031169 -38.879844 
L 104.038463 -38.879844 
L 103.045757 -38.879844 
L 102.053051 -38.879844 
L 101.060345 -38.879844 
L 100.067639 -38.879844 
L 99.074933 -38.879844 
L 98.082227 -38.879844 
L 97.089521 -38.879844 
L 96.096816 -38.879844 
L 95.10411 -38.879844 
L 94.111404 -38.879844 
L 93.118698 -38.879844 
L 92.125992 -38.879844 
L 91.133286 -38.879844 
L 90.14058 -38.879844 
L 89.147874 -38.879844 
L 88.155168 -38.879844 
L 87.162462 -38.879844 
L 86.169756 -38.879844 
L 85.17705 -38.879844 
L 84.184344 -38.879844 
L 83.191638 -38.879844 
L 82.198933 -38.879844 
L 81.206227 -38.879844 
L 80.213521 -38.879844 
L 79.220815 -38.879844 
L 78.228109 -38.879844 
L 77.235403 -38.879844 
L 76.242697 -38.879844 
L 75.249991 -38.879844 
L 74.257285 -38.879844 
L 73.264579 -38.879844 
L 72.271873 -38.879844 
L 71.279167 -38.879844 
L 70.286461 -38.879844 
L 69.293756 -38.879844 
L 68.30105 -38.879844 
L 67.308344 -38.879844 
L 66.315638 -38.879844 
L 65.322932 -38.879844 
L 64.330226 -38.879844 
L 63.33752 -38.879844 
L 62.344814 -38.879844 
L 61.352108 -38.879844 
L 60.359402 -38.879844 
L 59.366696 -38.879844 
L 58.37399 -38.879844 
L 57.381284 -38.879844 
L 56.388579 -38.879844 
L 55.395873 -38.879844 
L 54.403167 -38.879844 
L 53.410461 -38.879844 
L 52.417755 -38.879844 
L 51.425049 -38.879844 
L 50.432343 -38.879844 
L 49.439637 -38.879844 
L 48.446931 -38.879844 
L 47.454225 -38.879844 
L 46.461519 -38.879844 
L 45.468813 -38.879844 
L 44.476107 -38.879844 
L 43.483402 -38.879844 
L 42.490696 -38.879844 
L 41.49799 -38.879844 
L 40.505284 -38.879844 
L 39.512578 -38.879844 
L 38.519872 -38.879844 
L 37.527166 -38.879844 
L 36.53446 -38.879844 
L 35.541754 -38.879844 
L 34.549048 -38.879844 
L 33.556342 -38.879844 
L 32.563636 -38.879844 
z
" style="stroke: #0173b2; stroke-opacity: 0"/>
    </defs>
    <g clip-path="url(#p0fb012904a)">
     <use xlink:href="#m10edf9fd68" x="0" y="378.189219" style="fill: #0173b2; fill-opacity: 0; stroke: #0173b2; stroke-opacity: 0"/>
    </g>
   </g>
   <g id="line2d_19">
    <path d="M 32.563636 333.569846 
L 34.549048 333.468347 
L 36.53446 333.205372 
L 38.519872 332.768526 
L 40.505284 332.135216 
L 42.490696 331.323235 
L 44.476107 330.314011 
L 46.461519 329.098765 
L 48.446931 327.674897 
L 50.432343 326.061391 
L 52.417755 324.249594 
L 54.403167 322.204188 
L 57.381284 318.688685 
L 60.359402 314.620675 
L 62.344814 311.582896 
L 65.322932 306.539927 
L 68.30105 300.916466 
L 71.279167 294.718001 
L 74.257285 287.932563 
L 77.235403 280.570533 
L 80.213521 272.687634 
L 84.184344 261.405163 
L 90.14058 243.626314 
L 103.045757 204.017388 
L 106.023875 194.199749 
L 109.994698 180.368403 
L 113.965522 165.66119 
L 121.90717 135.61761 
L 124.885287 125.016009 
L 127.863405 115.18701 
L 130.841523 106.201897 
L 133.819641 98.192865 
L 136.797758 90.934699 
L 139.775876 84.602597 
L 142.753994 78.886703 
L 145.732112 73.708743 
L 156.651877 55.313371 
L 161.615407 46.581862 
L 163.600818 43.462943 
L 165.58623 40.771666 
L 167.571642 38.703324 
L 168.564348 37.976328 
L 169.557054 37.438094 
L 170.54976 37.076891 
L 171.542466 36.909375 
L 172.535172 37.000407 
L 173.527878 37.286492 
L 174.520584 37.803142 
L 175.513289 38.485427 
L 176.505995 39.344144 
L 177.498701 40.389394 
L 179.484113 42.89319 
L 181.469525 45.78183 
L 184.447643 50.533752 
L 189.411172 58.507904 
L 192.38929 62.948254 
L 195.367408 67.027102 
L 199.338232 72.20805 
L 203.309055 77.430262 
L 206.287173 81.892499 
L 208.272585 85.162458 
L 210.257997 88.851113 
L 212.243409 92.841459 
L 216.214232 101.646863 
L 222.170468 115.081852 
L 224.15588 119.072445 
L 226.141292 122.634967 
L 228.126703 125.820461 
L 231.104821 129.86761 
L 237.061057 137.204603 
L 239.046469 140.096142 
L 241.03188 143.429494 
L 243.017292 147.318924 
L 245.002704 151.836879 
L 246.988116 156.952414 
L 248.973528 162.52194 
L 251.951646 171.586185 
L 259.893293 196.555369 
L 262.871411 205.029691 
L 264.856823 210.086425 
L 266.842234 214.628551 
L 268.827646 218.679133 
L 270.813058 222.25113 
L 272.79847 225.322899 
L 274.783882 227.936924 
L 276.769294 230.176492 
L 278.754706 232.197313 
L 282.725529 235.712252 
L 286.696353 239.232159 
L 291.659883 244.064691 
L 296.623412 249.107935 
L 300.594236 252.844169 
L 309.528589 260.634118 
L 312.506707 263.660837 
L 315.484825 267.118472 
L 318.462943 270.967219 
L 322.433766 276.537986 
L 328.390002 284.908357 
L 331.36812 288.753872 
L 334.346237 292.191598 
L 337.324355 295.210376 
L 339.309767 297.039127 
L 342.287885 299.504477 
L 356.185768 310.420223 
L 361.149297 314.418955 
L 364.127415 316.531869 
L 366.112827 317.789899 
L 369.090945 319.402024 
L 372.069062 320.823787 
L 386.959651 327.090902 
L 390.930475 328.606474 
L 395.894005 330.236028 
L 399.864828 331.330411 
L 404.828358 332.49191 
L 408.799182 333.217859 
L 413.762711 333.85135 
L 420.711653 334.425009 
L 428.6533 335.161937 
L 435.602242 335.798727 
L 441.558477 336.135401 
L 449.500125 336.62013 
L 455.45636 337.257271 
L 462.405302 337.996632 
L 467.368831 338.278484 
L 472.332361 338.345704 
L 484.244832 338.1482 
L 491.193773 338.164882 
L 501.120833 338.464749 
L 510.055186 338.657204 
L 522.960363 338.645312 
L 539.836364 338.569193 
L 539.836364 338.569193 
" clip-path="url(#p0fb012904a)" style="fill: none; stroke: #0173b2; stroke-width: 1.5; stroke-linecap: round"/>
   </g>
   <g id="line2d_20">
    <path d="M 75.178969 332.958975 
L 326.544517 332.958975 
" clip-path="url(#p0fb012904a)" style="fill: none; stroke: #1a1a1a; stroke-width: 3"/>
   </g>
   <g id="patch_3">
    <path d="M 7.2 354.429375 
L 565.2 354.429375 
" style="fill: none; stroke: #808080; stroke-width: 1.25; stroke-linejoin: miter; stroke-linecap: square"/>
   </g>
   <g id="text_10">
    <!-- 3.5  -->
    <g style="fill: #262626" transform="translate(55.165219 317.082975) scale(0.12 -0.12)">
     <defs>
      <path id="ArialMT-33" d="M 269 1209 
L 831 1284 
Q 928 806 1161 595 
Q 1394 384 1728 384 
Q 2125 384 2398 659 
Q 2672 934 2672 1341 
Q 2672 1728 2419 1979 
Q 2166 2231 1775 2231 
Q 1616 2231 1378 2169 
L 1441 2663 
Q 1497 2656 1531 2656 
Q 1891 2656 2178 2843 
Q 2466 3031 2466 3422 
Q 2466 3731 2256 3934 
Q 2047 4138 1716 4138 
Q 1388 4138 1169 3931 
Q 950 3725 888 3313 
L 325 3413 
Q 428 3978 793 4289 
Q 1159 4600 1703 4600 
Q 2078 4600 2393 4439 
Q 2709 4278 2876 4000 
Q 3044 3722 3044 3409 
Q 3044 3113 2884 2869 
Q 2725 2625 2413 2481 
Q 2819 2388 3044 2092 
Q 3269 1797 3269 1353 
Q 3269 753 2831 336 
Q 2394 -81 1725 -81 
Q 1122 -81 723 278 
Q 325 638 269 1209 
z
" transform="scale(0.015625)"/>
      <path id="ArialMT-20" transform="scale(0.015625)"/>
     </defs>
     <use xlink:href="#ArialMT-33"/>
     <use xlink:href="#ArialMT-2e" x="55.615234"/>
     <use xlink:href="#ArialMT-35" x="83.398438"/>
     <use xlink:href="#ArialMT-20" x="139.013672"/>
    </g>
   </g>
   <g id="text_11">
    <!--  13 -->
    <g style="fill: #262626" transform="translate(326.544517 317.082975) scale(0.12 -0.12)">
     <use xlink:href="#ArialMT-20"/>
     <use xlink:href="#ArialMT-31" x="27.783203"/>
     <use xlink:href="#ArialMT-33" x="83.398438"/>
    </g>
   </g>
   <g id="text_12">
    <!-- 94% HDI -->
    <g style="fill: #262626" transform="translate(176.853305 244.053375) scale(0.12 -0.12)">
     <defs>
      <path id="ArialMT-39" d="M 350 1059 
L 891 1109 
Q 959 728 1153 556 
Q 1347 384 1650 384 
Q 1909 384 2104 503 
Q 2300 622 2425 820 
Q 2550 1019 2634 1356 
Q 2719 1694 2719 2044 
Q 2719 2081 2716 2156 
Q 2547 1888 2255 1720 
Q 1963 1553 1622 1553 
Q 1053 1553 659 1965 
Q 266 2378 266 3053 
Q 266 3750 677 4175 
Q 1088 4600 1706 4600 
Q 2153 4600 2523 4359 
Q 2894 4119 3086 3673 
Q 3278 3228 3278 2384 
Q 3278 1506 3087 986 
Q 2897 466 2520 194 
Q 2144 -78 1638 -78 
Q 1100 -78 759 220 
Q 419 519 350 1059 
z
M 2653 3081 
Q 2653 3566 2395 3850 
Q 2138 4134 1775 4134 
Q 1400 4134 1122 3828 
Q 844 3522 844 3034 
Q 844 2597 1108 2323 
Q 1372 2050 1759 2050 
Q 2150 2050 2401 2323 
Q 2653 2597 2653 3081 
z
" transform="scale(0.015625)"/>
      <path id="ArialMT-34" d="M 2069 0 
L 2069 1097 
L 81 1097 
L 81 1613 
L 2172 4581 
L 2631 4581 
L 2631 1613 
L 3250 1613 
L 3250 1097 
L 2631 1097 
L 2631 0 
L 2069 0 
z
M 2069 1613 
L 2069 3678 
L 634 1613 
L 2069 1613 
z
" transform="scale(0.015625)"/>
      <path id="ArialMT-25" d="M 372 3481 
Q 372 3972 619 4315 
Q 866 4659 1334 4659 
Q 1766 4659 2048 4351 
Q 2331 4044 2331 3447 
Q 2331 2866 2045 2552 
Q 1759 2238 1341 2238 
Q 925 2238 648 2547 
Q 372 2856 372 3481 
z
M 1350 4272 
Q 1141 4272 1002 4090 
Q 863 3909 863 3425 
Q 863 2984 1003 2804 
Q 1144 2625 1350 2625 
Q 1563 2625 1702 2806 
Q 1841 2988 1841 3469 
Q 1841 3913 1700 4092 
Q 1559 4272 1350 4272 
z
M 1353 -169 
L 3859 4659 
L 4316 4659 
L 1819 -169 
L 1353 -169 
z
M 3334 1075 
Q 3334 1569 3581 1911 
Q 3828 2253 4300 2253 
Q 4731 2253 5014 1945 
Q 5297 1638 5297 1041 
Q 5297 459 5011 145 
Q 4725 -169 4303 -169 
Q 3888 -169 3611 142 
Q 3334 453 3334 1075 
z
M 4316 1866 
Q 4103 1866 3964 1684 
Q 3825 1503 3825 1019 
Q 3825 581 3965 400 
Q 4106 219 4313 219 
Q 4528 219 4667 400 
Q 4806 581 4806 1063 
Q 4806 1506 4665 1686 
Q 4525 1866 4316 1866 
z
" transform="scale(0.015625)"/>
      <path id="ArialMT-48" d="M 513 0 
L 513 4581 
L 1119 4581 
L 1119 2700 
L 3500 2700 
L 3500 4581 
L 4106 4581 
L 4106 0 
L 3500 0 
L 3500 2159 
L 1119 2159 
L 1119 0 
L 513 0 
z
" transform="scale(0.015625)"/>
      <path id="ArialMT-44" d="M 494 0 
L 494 4581 
L 2072 4581 
Q 2606 4581 2888 4516 
Q 3281 4425 3559 4188 
Q 3922 3881 4101 3404 
Q 4281 2928 4281 2316 
Q 4281 1794 4159 1391 
Q 4038 988 3847 723 
Q 3656 459 3429 307 
Q 3203 156 2883 78 
Q 2563 0 2147 0 
L 494 0 
z
M 1100 541 
L 2078 541 
Q 2531 541 2789 625 
Q 3047 709 3200 863 
Q 3416 1078 3536 1442 
Q 3656 1806 3656 2325 
Q 3656 3044 3420 3430 
Q 3184 3816 2847 3947 
Q 2603 4041 2063 4041 
L 1100 4041 
L 1100 541 
z
" transform="scale(0.015625)"/>
      <path id="ArialMT-49" d="M 597 0 
L 597 4581 
L 1203 4581 
L 1203 0 
L 597 0 
z
" transform="scale(0.015625)"/>
     </defs>
     <use xlink:href="#ArialMT-39"/>
     <use xlink:href="#ArialMT-34" x="55.615234"/>
     <use xlink:href="#ArialMT-25" x="111.230469"/>
     <use xlink:href="#ArialMT-20" x="200.146484"/>
     <use xlink:href="#ArialMT-48" x="227.929688"/>
     <use xlink:href="#ArialMT-44" x="300.146484"/>
     <use xlink:href="#ArialMT-49" x="372.363281"/>
    </g>
   </g>
   <g id="text_13">
    <!-- mean=8.2 -->
    <g style="fill: #262626" transform="translate(168.647491 85.293375) scale(0.12 -0.12)">
     <defs>
      <path id="ArialMT-6d" d="M 422 0 
L 422 3319 
L 925 3319 
L 925 2853 
Q 1081 3097 1340 3245 
Q 1600 3394 1931 3394 
Q 2300 3394 2536 3241 
Q 2772 3088 2869 2813 
Q 3263 3394 3894 3394 
Q 4388 3394 4653 3120 
Q 4919 2847 4919 2278 
L 4919 0 
L 4359 0 
L 4359 2091 
Q 4359 2428 4304 2576 
Q 4250 2725 4106 2815 
Q 3963 2906 3769 2906 
Q 3419 2906 3187 2673 
Q 2956 2441 2956 1928 
L 2956 0 
L 2394 0 
L 2394 2156 
Q 2394 2531 2256 2718 
Q 2119 2906 1806 2906 
Q 1569 2906 1367 2781 
Q 1166 2656 1075 2415 
Q 984 2175 984 1722 
L 984 0 
L 422 0 
z
" transform="scale(0.015625)"/>
      <path id="ArialMT-65" d="M 2694 1069 
L 3275 997 
Q 3138 488 2766 206 
Q 2394 -75 1816 -75 
Q 1088 -75 661 373 
Q 234 822 234 1631 
Q 234 2469 665 2931 
Q 1097 3394 1784 3394 
Q 2450 3394 2872 2941 
Q 3294 2488 3294 1666 
Q 3294 1616 3291 1516 
L 816 1516 
Q 847 969 1125 678 
Q 1403 388 1819 388 
Q 2128 388 2347 550 
Q 2566 713 2694 1069 
z
M 847 1978 
L 2700 1978 
Q 2663 2397 2488 2606 
Q 2219 2931 1791 2931 
Q 1403 2931 1139 2672 
Q 875 2413 847 1978 
z
" transform="scale(0.015625)"/>
      <path id="ArialMT-61" d="M 2588 409 
Q 2275 144 1986 34 
Q 1697 -75 1366 -75 
Q 819 -75 525 192 
Q 231 459 231 875 
Q 231 1119 342 1320 
Q 453 1522 633 1644 
Q 813 1766 1038 1828 
Q 1203 1872 1538 1913 
Q 2219 1994 2541 2106 
Q 2544 2222 2544 2253 
Q 2544 2597 2384 2738 
Q 2169 2928 1744 2928 
Q 1347 2928 1158 2789 
Q 969 2650 878 2297 
L 328 2372 
Q 403 2725 575 2942 
Q 747 3159 1072 3276 
Q 1397 3394 1825 3394 
Q 2250 3394 2515 3294 
Q 2781 3194 2906 3042 
Q 3031 2891 3081 2659 
Q 3109 2516 3109 2141 
L 3109 1391 
Q 3109 606 3145 398 
Q 3181 191 3288 0 
L 2700 0 
Q 2613 175 2588 409 
z
M 2541 1666 
Q 2234 1541 1622 1453 
Q 1275 1403 1131 1340 
Q 988 1278 909 1158 
Q 831 1038 831 891 
Q 831 666 1001 516 
Q 1172 366 1500 366 
Q 1825 366 2078 508 
Q 2331 650 2450 897 
Q 2541 1088 2541 1459 
L 2541 1666 
z
" transform="scale(0.015625)"/>
      <path id="ArialMT-6e" d="M 422 0 
L 422 3319 
L 928 3319 
L 928 2847 
Q 1294 3394 1984 3394 
Q 2284 3394 2536 3286 
Q 2788 3178 2913 3003 
Q 3038 2828 3088 2588 
Q 3119 2431 3119 2041 
L 3119 0 
L 2556 0 
L 2556 2019 
Q 2556 2363 2490 2533 
Q 2425 2703 2258 2804 
Q 2091 2906 1866 2906 
Q 1506 2906 1245 2678 
Q 984 2450 984 1813 
L 984 0 
L 422 0 
z
" transform="scale(0.015625)"/>
      <path id="ArialMT-3d" d="M 3381 2694 
L 356 2694 
L 356 3219 
L 3381 3219 
L 3381 2694 
z
M 3381 1303 
L 356 1303 
L 356 1828 
L 3381 1828 
L 3381 1303 
z
" transform="scale(0.015625)"/>
      <path id="ArialMT-38" d="M 1131 2484 
Q 781 2613 612 2850 
Q 444 3088 444 3419 
Q 444 3919 803 4259 
Q 1163 4600 1759 4600 
Q 2359 4600 2725 4251 
Q 3091 3903 3091 3403 
Q 3091 3084 2923 2848 
Q 2756 2613 2416 2484 
Q 2838 2347 3058 2040 
Q 3278 1734 3278 1309 
Q 3278 722 2862 322 
Q 2447 -78 1769 -78 
Q 1091 -78 675 323 
Q 259 725 259 1325 
Q 259 1772 486 2073 
Q 713 2375 1131 2484 
z
M 1019 3438 
Q 1019 3113 1228 2906 
Q 1438 2700 1772 2700 
Q 2097 2700 2305 2904 
Q 2513 3109 2513 3406 
Q 2513 3716 2298 3927 
Q 2084 4138 1766 4138 
Q 1444 4138 1231 3931 
Q 1019 3725 1019 3438 
z
M 838 1322 
Q 838 1081 952 856 
Q 1066 631 1291 507 
Q 1516 384 1775 384 
Q 2178 384 2440 643 
Q 2703 903 2703 1303 
Q 2703 1709 2433 1975 
Q 2163 2241 1756 2241 
Q 1359 2241 1098 1978 
Q 838 1716 838 1322 
z
" transform="scale(0.015625)"/>
     </defs>
     <use xlink:href="#ArialMT-6d"/>
     <use xlink:href="#ArialMT-65" x="83.300781"/>
     <use xlink:href="#ArialMT-61" x="138.916016"/>
     <use xlink:href="#ArialMT-6e" x="194.53125"/>
     <use xlink:href="#ArialMT-3d" x="250.146484"/>
     <use xlink:href="#ArialMT-38" x="308.544922"/>
     <use xlink:href="#ArialMT-2e" x="364.160156"/>
     <use xlink:href="#ArialMT-32" x="391.943359"/>
    </g>
   </g>
   <g id="text_14">
    <!-- mu -->
    <g style="fill: #262626" transform="translate(277.865625 15.789375) scale(0.12 -0.12)">
     <defs>
      <path id="ArialMT-75" d="M 2597 0 
L 2597 488 
Q 2209 -75 1544 -75 
Q 1250 -75 995 37 
Q 741 150 617 320 
Q 494 491 444 738 
Q 409 903 409 1263 
L 409 3319 
L 972 3319 
L 972 1478 
Q 972 1038 1006 884 
Q 1059 663 1231 536 
Q 1403 409 1656 409 
Q 1909 409 2131 539 
Q 2353 669 2445 892 
Q 2538 1116 2538 1541 
L 2538 3319 
L 3100 3319 
L 3100 0 
L 2597 0 
z
" transform="scale(0.015625)"/>
     </defs>
     <use xlink:href="#ArialMT-6d"/>
     <use xlink:href="#ArialMT-75" x="83.300781"/>
    </g>
   </g>
  </g>
 </g>
 <defs>
  <clipPath id="p0fb012904a">
   <rect x="7.2" y="21.789375" width="558" height="332.64"/>
  </clipPath>
 </defs>
</svg>