<?xml version="1.0" encoding="UTF-8" standalone="no"?>
<!DOCTYPE svg PUBLIC "-//W3C//DTD SVG 1.1//EN"
 "http://www.w3.org/Graphics/SVG/1.1/DTD/svg11.dtd">
<!-- Generated by graphviz version 8.1.0 (0)
 -->
<!-- Pages: 1 -->
<svg width="424pt" height="498pt"
 viewBox="0.00 0.00 423.55 497.77" xmlns="http://www.w3.org/2000/svg" xmlns:xlink="http://www.w3.org/1999/xlink">
<g id="graph0" class="graph" transform="scale(1 1) rotate(0) translate(4 493.77)">
<polygon fill="white" stroke="none" points="-4,4 -4,-493.77 419.55,-493.77 419.55,4 -4,4"/>
<g id="clust1" class="cluster">
<title>clusteri (1)</title>
<path fill="none" stroke="black" d="M104.01,-8C104.01,-8 210.01,-8 210.01,-8 216.01,-8 222.01,-14 222.01,-20 222.01,-20 222.01,-469.77 222.01,-469.77 222.01,-475.77 216.01,-481.77 210.01,-481.77 210.01,-481.77 104.01,-481.77 104.01,-481.77 98.01,-481.77 92.01,-475.77 92.01,-469.77 92.01,-469.77 92.01,-20 92.01,-20 92.01,-14 98.01,-8 104.01,-8"/>
<text text-anchor="middle" x="202.39" y="-15.2" font-family="Times,serif" font-size="14.00">i (1)</text>
</g>
<!-- beta_cy -->
<g id="node1" class="node">
<title>beta_cy</title>
<ellipse fill="none" stroke="black" cx="41.01" cy="-315.79" rx="41.01" ry="40.66"/>
<text text-anchor="middle" x="41.01" y="-327.24" font-family="Times,serif" font-size="14.00">beta_cy</text>
<text text-anchor="middle" x="41.01" y="-310.74" font-family="Times,serif" font-size="14.00">~</text>
<text text-anchor="middle" x="41.01" y="-294.24" font-family="Times,serif" font-size="14.00">Normal</text>
</g>
<!-- y_mu -->
<g id="node8" class="node">
<title>y_mu</title>
<polygon fill="none" stroke="black" points="212.14,-227.23 121.89,-227.23 121.89,-169.73 212.14,-169.73 212.14,-227.23"/>
<text text-anchor="middle" x="167.01" y="-209.93" font-family="Times,serif" font-size="14.00">y_mu</text>
<text text-anchor="middle" x="167.01" y="-193.43" font-family="Times,serif" font-size="14.00">~</text>
<text text-anchor="middle" x="167.01" y="-176.93" font-family="Times,serif" font-size="14.00">Deterministic</text>
</g>
<!-- beta_cy&#45;&gt;y_mu -->
<g id="edge5" class="edge">
<title>beta_cy&#45;&gt;y_mu</title>
<path fill="none" stroke="black" d="M70.87,-287.46C88.12,-271.68 109.99,-251.67 128.51,-234.71"/>
<polygon fill="black" stroke="black" points="130.48,-237.74 135.49,-228.41 125.75,-232.58 130.48,-237.74"/>
</g>
<!-- beta_zy -->
<g id="node2" class="node">
<title>beta_zy</title>
<ellipse fill="none" stroke="black" cx="273.01" cy="-315.79" rx="41.01" ry="40.66"/>
<text text-anchor="middle" x="273.01" y="-327.24" font-family="Times,serif" font-size="14.00">beta_zy</text>
<text text-anchor="middle" x="273.01" y="-310.74" font-family="Times,serif" font-size="14.00">~</text>
<text text-anchor="middle" x="273.01" y="-294.24" font-family="Times,serif" font-size="14.00">Normal</text>
</g>
<!-- beta_zy&#45;&gt;y_mu -->
<g id="edge6" class="edge">
<title>beta_zy&#45;&gt;y_mu</title>
<path fill="none" stroke="black" d="M245.71,-285.1C231.82,-269.98 214.81,-251.48 200.17,-235.55"/>
<polygon fill="black" stroke="black" points="203.1,-233.48 193.76,-228.49 197.95,-238.22 203.1,-233.48"/>
</g>
<!-- beta_cz -->
<g id="node3" class="node">
<title>beta_cz</title>
<ellipse fill="none" stroke="black" cx="271.01" cy="-433.11" rx="41.01" ry="40.66"/>
<text text-anchor="middle" x="271.01" y="-444.56" font-family="Times,serif" font-size="14.00">beta_cz</text>
<text text-anchor="middle" x="271.01" y="-428.06" font-family="Times,serif" font-size="14.00">~</text>
<text text-anchor="middle" x="271.01" y="-411.56" font-family="Times,serif" font-size="14.00">Normal</text>
</g>
<!-- z -->
<g id="node7" class="node">
<title>z</title>
<ellipse fill="none" stroke="black" cx="167.01" cy="-315.79" rx="47.38" ry="40.66"/>
<text text-anchor="middle" x="167.01" y="-327.24" font-family="Times,serif" font-size="14.00">z</text>
<text text-anchor="middle" x="167.01" y="-310.74" font-family="Times,serif" font-size="14.00">~</text>
<text text-anchor="middle" x="167.01" y="-294.24" font-family="Times,serif" font-size="14.00">Bernoulli</text>
</g>
<!-- beta_cz&#45;&gt;z -->
<g id="edge3" class="edge">
<title>beta_cz&#45;&gt;z</title>
<path fill="none" stroke="black" d="M243.96,-402.11C231.47,-388.26 216.46,-371.62 203.02,-356.72"/>
<polygon fill="black" stroke="black" points="206.05,-354.74 196.75,-349.66 200.85,-359.43 206.05,-354.74"/>
</g>
<!-- beta_y0 -->
<g id="node4" class="node">
<title>beta_y0</title>
<ellipse fill="none" stroke="black" cx="374.01" cy="-315.79" rx="41.54" ry="40.66"/>
<text text-anchor="middle" x="374.01" y="-327.24" font-family="Times,serif" font-size="14.00">beta_y0</text>
<text text-anchor="middle" x="374.01" y="-310.74" font-family="Times,serif" font-size="14.00">~</text>
<text text-anchor="middle" x="374.01" y="-294.24" font-family="Times,serif" font-size="14.00">Normal</text>
</g>
<!-- beta_y0&#45;&gt;y_mu -->
<g id="edge7" class="edge">
<title>beta_y0&#45;&gt;y_mu</title>
<path fill="none" stroke="black" d="M343,-288.17C336.64,-283.44 329.8,-278.85 323.01,-275.13 280.83,-252.08 263.51,-261.61 221.01,-239.13 217.78,-237.42 214.52,-235.54 211.3,-233.54"/>
<polygon fill="black" stroke="black" points="213.64,-230.23 203.36,-227.68 209.8,-236.09 213.64,-230.23"/>
</g>
<!-- sigma_y -->
<g id="node5" class="node">
<title>sigma_y</title>
<ellipse fill="none" stroke="black" cx="288.01" cy="-198.48" rx="57.98" ry="40.66"/>
<text text-anchor="middle" x="288.01" y="-209.93" font-family="Times,serif" font-size="14.00">sigma_y</text>
<text text-anchor="middle" x="288.01" y="-193.43" font-family="Times,serif" font-size="14.00">~</text>
<text text-anchor="middle" x="288.01" y="-176.93" font-family="Times,serif" font-size="14.00">HalfNormal</text>
</g>
<!-- y -->
<g id="node10" class="node">
<title>y</title>
<ellipse fill="none" stroke="black" cx="170.01" cy="-81.16" rx="41.01" ry="40.66"/>
<text text-anchor="middle" x="170.01" y="-92.61" font-family="Times,serif" font-size="14.00">y</text>
<text text-anchor="middle" x="170.01" y="-76.11" font-family="Times,serif" font-size="14.00">~</text>
<text text-anchor="middle" x="170.01" y="-59.61" font-family="Times,serif" font-size="14.00">Normal</text>
</g>
<!-- sigma_y&#45;&gt;y -->
<g id="edge10" class="edge">
<title>sigma_y&#45;&gt;y</title>
<path fill="none" stroke="black" d="M254.51,-164.74C239.54,-150.11 221.86,-132.83 206.55,-117.87"/>
<polygon fill="black" stroke="black" points="209.39,-115.77 199.79,-111.28 204.49,-120.77 209.39,-115.77"/>
</g>
<!-- beta_z0 -->
<g id="node6" class="node">
<title>beta_z0</title>
<ellipse fill="none" stroke="black" cx="371.01" cy="-433.11" rx="41.01" ry="40.66"/>
<text text-anchor="middle" x="371.01" y="-444.56" font-family="Times,serif" font-size="14.00">beta_z0</text>
<text text-anchor="middle" x="371.01" y="-428.06" font-family="Times,serif" font-size="14.00">~</text>
<text text-anchor="middle" x="371.01" y="-411.56" font-family="Times,serif" font-size="14.00">Normal</text>
</g>
<!-- beta_z0&#45;&gt;z -->
<g id="edge2" class="edge">
<title>beta_z0&#45;&gt;z</title>
<path fill="none" stroke="black" d="M340.62,-405.53C334.38,-400.8 327.68,-396.19 321.01,-392.45 280.55,-369.75 264.08,-378.05 223.01,-356.45 219.04,-354.36 215.02,-352.03 211.06,-349.57"/>
<polygon fill="black" stroke="black" points="213.25,-346.17 202.96,-343.65 209.43,-352.04 213.25,-346.17"/>
</g>
<!-- z&#45;&gt;y_mu -->
<g id="edge4" class="edge">
<title>z&#45;&gt;y_mu</title>
<path fill="none" stroke="black" d="M167.01,-274.78C167.01,-262.95 167.01,-250.02 167.01,-238.27"/>
<polygon fill="black" stroke="black" points="170.51,-238.44 167.01,-228.44 163.51,-238.44 170.51,-238.44"/>
</g>
<!-- y_mu&#45;&gt;y -->
<g id="edge9" class="edge">
<title>y_mu&#45;&gt;y</title>
<path fill="none" stroke="black" d="M167.75,-169.27C168.03,-158.33 168.37,-145.47 168.69,-133.03"/>
<polygon fill="black" stroke="black" points="172.21,-133.36 168.97,-123.27 165.21,-133.18 172.21,-133.36"/>
</g>
<!-- c -->
<g id="node9" class="node">
<title>c</title>
<ellipse fill="none" stroke="black" cx="154.01" cy="-433.11" rx="41.01" ry="40.66"/>
<text text-anchor="middle" x="154.01" y="-444.56" font-family="Times,serif" font-size="14.00">c</text>
<text text-anchor="middle" x="154.01" y="-428.06" font-family="Times,serif" font-size="14.00">~</text>
<text text-anchor="middle" x="154.01" y="-411.56" font-family="Times,serif" font-size="14.00">Normal</text>
</g>
<!-- c&#45;&gt;z -->
<g id="edge1" class="edge">
<title>c&#45;&gt;z</title>
<path fill="none" stroke="black" d="M158.49,-392.42C159.4,-384.36 160.36,-375.78 161.31,-367.39"/>
<polygon fill="black" stroke="black" points="164.89,-367.88 162.53,-357.55 157.93,-367.1 164.89,-367.88"/>
</g>
<!-- c&#45;&gt;y_mu -->
<g id="edge8" class="edge">
<title>c&#45;&gt;y_mu</title>
<path fill="none" stroke="black" d="M130.55,-399.46C122.73,-386.68 114.99,-371.5 111.01,-356.45 101.78,-321.51 99.69,-309.46 111.01,-275.13 115.62,-261.16 123.92,-247.66 132.73,-236.02"/>
<polygon fill="black" stroke="black" points="136.02,-238.51 139.53,-228.51 130.55,-234.14 136.02,-238.51"/>
</g>
</g>
</svg>