<?xml version="1.0" encoding="UTF-8" standalone="no"?>
<!DOCTYPE svg PUBLIC "-//W3C//DTD SVG 1.1//EN"
 "http://www.w3.org/Graphics/SVG/1.1/DTD/svg11.dtd">
<!-- Generated by graphviz version 8.1.0 (0)
 -->
<!-- Pages: 1 -->
<svg width="238pt" height="470pt"
 viewBox="0.00 0.00 238.00 470.45" xmlns="http://www.w3.org/2000/svg" xmlns:xlink="http://www.w3.org/1999/xlink">
<g id="graph0" class="graph" transform="scale(1 1) rotate(0) translate(4 466.45)">
<polygon fill="white" stroke="none" points="-4,4 -4,-466.45 234,-466.45 234,4 -4,4"/>
<g id="clust2" class="cluster">
<title>clusteroperators_idx (28)</title>
<path fill="none" stroke="black" d="M68,-114C68,-114 160,-114 160,-114 166,-114 172,-120 172,-126 172,-126 172,-341.13 172,-341.13 172,-347.13 166,-353.13 160,-353.13 160,-353.13 68,-353.13 68,-353.13 62,-353.13 56,-347.13 56,-341.13 56,-341.13 56,-126 56,-126 56,-120 62,-114 68,-114"/>
<text text-anchor="middle" x="113.75" y="-121.2" font-family="Times,serif" font-size="14.00">operators_idx (28)</text>
</g>
<g id="clust1" class="cluster">
<title>cluster28</title>
<path fill="none" stroke="black" d="M20,-8C20,-8 210,-8 210,-8 216,-8 222,-14 222,-20 222,-20 222,-94 222,-94 222,-100 216,-106 210,-106 210,-106 20,-106 20,-106 14,-106 8,-100 8,-94 8,-94 8,-20 8,-20 8,-14 14,-8 20,-8"/>
<text text-anchor="middle" x="207.25" y="-15.2" font-family="Times,serif" font-size="14.00">28</text>
</g>
<!-- n_trials -->
<g id="node1" class="node">
<title>n_trials</title>
<path fill="lightgrey" stroke="black" d="M201.75,-98C201.75,-98 136.25,-98 136.25,-98 130.25,-98 124.25,-92 124.25,-86 124.25,-86 124.25,-52.5 124.25,-52.5 124.25,-46.5 130.25,-40.5 136.25,-40.5 136.25,-40.5 201.75,-40.5 201.75,-40.5 207.75,-40.5 213.75,-46.5 213.75,-52.5 213.75,-52.5 213.75,-86 213.75,-86 213.75,-92 207.75,-98 201.75,-98"/>
<text text-anchor="middle" x="169" y="-80.7" font-family="Times,serif" font-size="14.00">n_trials</text>
<text text-anchor="middle" x="169" y="-64.2" font-family="Times,serif" font-size="14.00">~</text>
<text text-anchor="middle" x="169" y="-47.7" font-family="Times,serif" font-size="14.00">ConstantData</text>
</g>
<!-- Y_obs -->
<g id="node6" class="node">
<title>Y_obs</title>
<ellipse fill="lightgrey" stroke="black" cx="114" cy="-187.16" rx="47.38" ry="40.66"/>
<text text-anchor="middle" x="114" y="-198.61" font-family="Times,serif" font-size="14.00">Y_obs</text>
<text text-anchor="middle" x="114" y="-182.11" font-family="Times,serif" font-size="14.00">~</text>
<text text-anchor="middle" x="114" y="-165.61" font-family="Times,serif" font-size="14.00">Binomial</text>
</g>
<!-- n_trials&#45;&gt;Y_obs -->
<g id="edge4" class="edge">
<title>n_trials&#45;&gt;Y_obs</title>
<path fill="none" stroke="black" d="M155.62,-98.45C149.79,-110.73 142.81,-125.45 136.24,-139.29"/>
<polygon fill="black" stroke="black" points="132.68,-137.63 131.55,-148.17 139,-140.63 132.68,-137.63"/>
</g>
<!-- y_data -->
<g id="node2" class="node">
<title>y_data</title>
<path fill="lightgrey" stroke="black" d="M93.75,-98C93.75,-98 28.25,-98 28.25,-98 22.25,-98 16.25,-92 16.25,-86 16.25,-86 16.25,-52.5 16.25,-52.5 16.25,-46.5 22.25,-40.5 28.25,-40.5 28.25,-40.5 93.75,-40.5 93.75,-40.5 99.75,-40.5 105.75,-46.5 105.75,-52.5 105.75,-52.5 105.75,-86 105.75,-86 105.75,-92 99.75,-98 93.75,-98"/>
<text text-anchor="middle" x="61" y="-80.7" font-family="Times,serif" font-size="14.00">y_data</text>
<text text-anchor="middle" x="61" y="-64.2" font-family="Times,serif" font-size="14.00">~</text>
<text text-anchor="middle" x="61" y="-47.7" font-family="Times,serif" font-size="14.00">ConstantData</text>
</g>
<!-- beta -->
<g id="node3" class="node">
<title>beta</title>
<ellipse fill="none" stroke="black" cx="63" cy="-421.79" rx="42.6" ry="40.66"/>
<text text-anchor="middle" x="63" y="-433.24" font-family="Times,serif" font-size="14.00">beta</text>
<text text-anchor="middle" x="63" y="-416.74" font-family="Times,serif" font-size="14.00">~</text>
<text text-anchor="middle" x="63" y="-400.24" font-family="Times,serif" font-size="14.00">Gamma</text>
</g>
<!-- p -->
<g id="node5" class="node">
<title>p</title>
<ellipse fill="none" stroke="black" cx="114" cy="-304.48" rx="28.81" ry="40.66"/>
<text text-anchor="middle" x="114" y="-315.93" font-family="Times,serif" font-size="14.00">p</text>
<text text-anchor="middle" x="114" y="-299.43" font-family="Times,serif" font-size="14.00">~</text>
<text text-anchor="middle" x="114" y="-282.93" font-family="Times,serif" font-size="14.00">Beta</text>
</g>
<!-- beta&#45;&gt;p -->
<g id="edge2" class="edge">
<title>beta&#45;&gt;p</title>
<path fill="none" stroke="black" d="M79.28,-383.99C84.15,-372.98 89.54,-360.79 94.59,-349.37"/>
<polygon fill="black" stroke="black" points="98.07,-351.14 98.92,-340.58 91.67,-348.31 98.07,-351.14"/>
</g>
<!-- alpha -->
<g id="node4" class="node">
<title>alpha</title>
<ellipse fill="none" stroke="black" cx="166" cy="-421.79" rx="42.6" ry="40.66"/>
<text text-anchor="middle" x="166" y="-433.24" font-family="Times,serif" font-size="14.00">alpha</text>
<text text-anchor="middle" x="166" y="-416.74" font-family="Times,serif" font-size="14.00">~</text>
<text text-anchor="middle" x="166" y="-400.24" font-family="Times,serif" font-size="14.00">Gamma</text>
</g>
<!-- alpha&#45;&gt;p -->
<g id="edge3" class="edge">
<title>alpha&#45;&gt;p</title>
<path fill="none" stroke="black" d="M149.4,-383.99C144.39,-372.88 138.84,-360.57 133.65,-349.06"/>
<polygon fill="black" stroke="black" points="136.51,-347.87 129.2,-340.2 130.13,-350.75 136.51,-347.87"/>
</g>
<!-- p&#45;&gt;Y_obs -->
<g id="edge5" class="edge">
<title>p&#45;&gt;Y_obs</title>
<path fill="none" stroke="black" d="M114,-263.47C114,-255.6 114,-247.24 114,-239.07"/>
<polygon fill="black" stroke="black" points="117.5,-239.1 114,-229.1 110.5,-239.1 117.5,-239.1"/>
</g>
<!-- Y_obs&#45;&gt;y_data -->
<g id="edge1" class="edge">
<title>Y_obs&#45;&gt;y_data</title>
<path fill="none" stroke="black" d="M96.94,-148.85C90.96,-135.77 84.24,-121.08 78.25,-107.96"/>
<polygon fill="black" stroke="black" points="81.17,-106.94 73.83,-99.3 74.8,-109.85 81.17,-106.94"/>
</g>
</g>
</svg>