<?xml version="1.0" encoding="UTF-8" standalone="no"?>
<!DOCTYPE svg PUBLIC "-//W3C//DTD SVG 1.1//EN"
 "http://www.w3.org/Graphics/SVG/1.1/DTD/svg11.dtd">
<!-- Generated by graphviz version 8.1.0 (0)
 -->
<!-- Pages: 1 -->
<svg width="684pt" height="591pt"
 viewBox="0.00 0.00 683.99 591.27" xmlns="http://www.w3.org/2000/svg" xmlns:xlink="http://www.w3.org/1999/xlink">
<g id="graph0" class="graph" transform="scale(1 1) rotate(0) translate(4 587.27)">
<polygon fill="white" stroke="none" points="-4,4 -4,-587.27 679.99,-587.27 679.99,4 -4,4"/>
<g id="clust1" class="cluster">
<title>cluster5000</title>
<path fill="none" stroke="black" d="M137.98,-8C137.98,-8 337.98,-8 337.98,-8 343.98,-8 349.98,-14 349.98,-20 349.98,-20 349.98,-563.27 349.98,-563.27 349.98,-569.27 343.98,-575.27 337.98,-575.27 337.98,-575.27 137.98,-575.27 137.98,-575.27 131.98,-575.27 125.98,-569.27 125.98,-563.27 125.98,-563.27 125.98,-20 125.98,-20 125.98,-14 131.98,-8 137.98,-8"/>
<text text-anchor="middle" x="328.48" y="-15.2" font-family="Times,serif" font-size="14.00">5000</text>
</g>
<!-- _Q -->
<g id="node1" class="node">
<title>_Q</title>
<path fill="lightgrey" stroke="black" d="M229.61,-438.04C229.61,-438.04 166.36,-438.04 166.36,-438.04 160.36,-438.04 154.36,-432.04 154.36,-426.04 154.36,-426.04 154.36,-392.54 154.36,-392.54 154.36,-386.54 160.36,-380.54 166.36,-380.54 166.36,-380.54 229.61,-380.54 229.61,-380.54 235.61,-380.54 241.61,-386.54 241.61,-392.54 241.61,-392.54 241.61,-426.04 241.61,-426.04 241.61,-432.04 235.61,-438.04 229.61,-438.04"/>
<text text-anchor="middle" x="197.98" y="-420.74" font-family="Times,serif" font-size="14.00">_Q</text>
<text text-anchor="middle" x="197.98" y="-404.24" font-family="Times,serif" font-size="14.00">~</text>
<text text-anchor="middle" x="197.98" y="-387.74" font-family="Times,serif" font-size="14.00">MutableData</text>
</g>
<!-- _X -->
<g id="node2" class="node">
<title>_X</title>
<path fill="lightgrey" stroke="black" d="M229.61,-320.73C229.61,-320.73 166.36,-320.73 166.36,-320.73 160.36,-320.73 154.36,-314.73 154.36,-308.73 154.36,-308.73 154.36,-275.23 154.36,-275.23 154.36,-269.23 160.36,-263.23 166.36,-263.23 166.36,-263.23 229.61,-263.23 229.61,-263.23 235.61,-263.23 241.61,-269.23 241.61,-275.23 241.61,-275.23 241.61,-308.73 241.61,-308.73 241.61,-314.73 235.61,-320.73 229.61,-320.73"/>
<text text-anchor="middle" x="197.98" y="-303.43" font-family="Times,serif" font-size="14.00">_X</text>
<text text-anchor="middle" x="197.98" y="-286.93" font-family="Times,serif" font-size="14.00">~</text>
<text text-anchor="middle" x="197.98" y="-270.43" font-family="Times,serif" font-size="14.00">MutableData</text>
</g>
<!-- Q -->
<g id="node3" class="node">
<title>Q</title>
<ellipse fill="lightgrey" stroke="black" cx="197.98" cy="-526.61" rx="41.01" ry="40.66"/>
<text text-anchor="middle" x="197.98" y="-538.06" font-family="Times,serif" font-size="14.00">Q</text>
<text text-anchor="middle" x="197.98" y="-521.56" font-family="Times,serif" font-size="14.00">~</text>
<text text-anchor="middle" x="197.98" y="-505.06" font-family="Times,serif" font-size="14.00">Normal</text>
</g>
<!-- Q&#45;&gt;_Q -->
<g id="edge1" class="edge">
<title>Q&#45;&gt;_Q</title>
<path fill="none" stroke="black" d="M197.98,-485.6C197.98,-473.77 197.98,-460.84 197.98,-449.09"/>
<polygon fill="black" stroke="black" points="201.48,-449.25 197.98,-439.25 194.48,-449.25 201.48,-449.25"/>
</g>
<!-- Y -->
<g id="node4" class="node">
<title>Y</title>
<ellipse fill="lightgrey" stroke="black" cx="300.98" cy="-291.98" rx="41.01" ry="40.66"/>
<text text-anchor="middle" x="300.98" y="-303.43" font-family="Times,serif" font-size="14.00">Y</text>
<text text-anchor="middle" x="300.98" y="-286.93" font-family="Times,serif" font-size="14.00">~</text>
<text text-anchor="middle" x="300.98" y="-270.43" font-family="Times,serif" font-size="14.00">Normal</text>
</g>
<!-- Q&#45;&gt;Y -->
<g id="edge9" class="edge">
<title>Q&#45;&gt;Y</title>
<path fill="none" stroke="black" d="M170.83,-495.91C160.63,-482.81 150.24,-466.62 144.98,-449.95 134.11,-415.48 123.93,-398.01 144.98,-368.63 173.96,-328.19 207.3,-356.44 250.98,-332.63 254.65,-330.63 258.33,-328.36 261.93,-325.94"/>
<polygon fill="black" stroke="black" points="263.57,-328.35 269.67,-319.69 259.5,-322.66 263.57,-328.35"/>
</g>
<!-- X -->
<g id="node8" class="node">
<title>X</title>
<ellipse fill="lightgrey" stroke="black" cx="300.98" cy="-409.29" rx="41.01" ry="40.66"/>
<text text-anchor="middle" x="300.98" y="-420.74" font-family="Times,serif" font-size="14.00">X</text>
<text text-anchor="middle" x="300.98" y="-404.24" font-family="Times,serif" font-size="14.00">~</text>
<text text-anchor="middle" x="300.98" y="-387.74" font-family="Times,serif" font-size="14.00">Normal</text>
</g>
<!-- Q&#45;&gt;X -->
<g id="edge6" class="edge">
<title>Q&#45;&gt;X</title>
<path fill="none" stroke="black" d="M224.78,-495.61C237.67,-481.18 253.27,-463.71 266.99,-448.35"/>
<polygon fill="black" stroke="black" points="268.91,-451.33 272.97,-441.54 263.69,-446.67 268.91,-451.33"/>
</g>
<!-- P -->
<g id="node6" class="node">
<title>P</title>
<ellipse fill="lightgrey" stroke="black" cx="300.98" cy="-174.66" rx="41.01" ry="40.66"/>
<text text-anchor="middle" x="300.98" y="-186.11" font-family="Times,serif" font-size="14.00">P</text>
<text text-anchor="middle" x="300.98" y="-169.61" font-family="Times,serif" font-size="14.00">~</text>
<text text-anchor="middle" x="300.98" y="-153.11" font-family="Times,serif" font-size="14.00">Normal</text>
</g>
<!-- Y&#45;&gt;P -->
<g id="edge14" class="edge">
<title>Y&#45;&gt;P</title>
<path fill="none" stroke="black" d="M300.98,-250.97C300.98,-243.1 300.98,-234.74 300.98,-226.57"/>
<polygon fill="black" stroke="black" points="304.48,-226.6 300.98,-216.6 297.48,-226.6 304.48,-226.6"/>
</g>
<!-- _Y -->
<g id="node7" class="node">
<title>_Y</title>
<path fill="lightgrey" stroke="black" d="M229.61,-203.41C229.61,-203.41 166.36,-203.41 166.36,-203.41 160.36,-203.41 154.36,-197.41 154.36,-191.41 154.36,-191.41 154.36,-157.91 154.36,-157.91 154.36,-151.91 160.36,-145.91 166.36,-145.91 166.36,-145.91 229.61,-145.91 229.61,-145.91 235.61,-145.91 241.61,-151.91 241.61,-157.91 241.61,-157.91 241.61,-191.41 241.61,-191.41 241.61,-197.41 235.61,-203.41 229.61,-203.41"/>
<text text-anchor="middle" x="197.98" y="-186.11" font-family="Times,serif" font-size="14.00">_Y</text>
<text text-anchor="middle" x="197.98" y="-169.61" font-family="Times,serif" font-size="14.00">~</text>
<text text-anchor="middle" x="197.98" y="-153.11" font-family="Times,serif" font-size="14.00">MutableData</text>
</g>
<!-- Y&#45;&gt;_Y -->
<g id="edge3" class="edge">
<title>Y&#45;&gt;_Y</title>
<path fill="none" stroke="black" d="M274.19,-260.98C260.69,-245.86 244.22,-227.42 230.05,-211.56"/>
<polygon fill="black" stroke="black" points="233.15,-209.65 223.87,-204.53 227.93,-214.32 233.15,-209.65"/>
</g>
<!-- _P -->
<g id="node5" class="node">
<title>_P</title>
<path fill="lightgrey" stroke="black" d="M329.61,-98C329.61,-98 266.36,-98 266.36,-98 260.36,-98 254.36,-92 254.36,-86 254.36,-86 254.36,-52.5 254.36,-52.5 254.36,-46.5 260.36,-40.5 266.36,-40.5 266.36,-40.5 329.61,-40.5 329.61,-40.5 335.61,-40.5 341.61,-46.5 341.61,-52.5 341.61,-52.5 341.61,-86 341.61,-86 341.61,-92 335.61,-98 329.61,-98"/>
<text text-anchor="middle" x="297.98" y="-80.7" font-family="Times,serif" font-size="14.00">_P</text>
<text text-anchor="middle" x="297.98" y="-64.2" font-family="Times,serif" font-size="14.00">~</text>
<text text-anchor="middle" x="297.98" y="-47.7" font-family="Times,serif" font-size="14.00">MutableData</text>
</g>
<!-- P&#45;&gt;_P -->
<g id="edge4" class="edge">
<title>P&#45;&gt;_P</title>
<path fill="none" stroke="black" d="M299.82,-133.68C299.59,-125.64 299.35,-117.21 299.11,-109.21"/>
<polygon fill="black" stroke="black" points="302.58,-109.17 298.8,-99.28 295.59,-109.37 302.58,-109.17"/>
</g>
<!-- X&#45;&gt;_X -->
<g id="edge2" class="edge">
<title>X&#45;&gt;_X</title>
<path fill="none" stroke="black" d="M274.19,-378.3C260.69,-363.18 244.22,-344.74 230.05,-328.87"/>
<polygon fill="black" stroke="black" points="233.15,-326.97 223.87,-321.84 227.93,-331.63 233.15,-326.97"/>
</g>
<!-- X&#45;&gt;Y -->
<g id="edge11" class="edge">
<title>X&#45;&gt;Y</title>
<path fill="none" stroke="black" d="M300.98,-368.28C300.98,-360.41 300.98,-352.06 300.98,-343.88"/>
<polygon fill="black" stroke="black" points="304.48,-343.91 300.98,-333.91 297.48,-343.91 304.48,-343.91"/>
</g>
<!-- X&#45;&gt;P -->
<g id="edge15" class="edge">
<title>X&#45;&gt;P</title>
<path fill="none" stroke="black" d="M270.67,-381.58C264.42,-376.86 257.7,-372.29 250.98,-368.63 207.3,-344.83 173.96,-373.08 144.98,-332.63 123.93,-303.26 123.93,-280.7 144.98,-251.32 173.96,-210.87 207.3,-239.13 250.98,-215.32 254.65,-213.32 258.33,-211.04 261.93,-208.62"/>
<polygon fill="black" stroke="black" points="263.57,-211.04 269.67,-202.37 259.5,-205.34 263.57,-211.04"/>
</g>
<!-- qy -->
<g id="node9" class="node">
<title>qy</title>
<ellipse fill="none" stroke="black" cx="400.98" cy="-409.29" rx="41.01" ry="40.66"/>
<text text-anchor="middle" x="400.98" y="-420.74" font-family="Times,serif" font-size="14.00">qy</text>
<text text-anchor="middle" x="400.98" y="-404.24" font-family="Times,serif" font-size="14.00">~</text>
<text text-anchor="middle" x="400.98" y="-387.74" font-family="Times,serif" font-size="14.00">Normal</text>
</g>
<!-- qy&#45;&gt;Y -->
<g id="edge8" class="edge">
<title>qy&#45;&gt;Y</title>
<path fill="none" stroke="black" d="M374.45,-377.69C362.14,-363.51 347.39,-346.49 334.34,-331.45"/>
<polygon fill="black" stroke="black" points="336.49,-329.58 327.3,-324.32 331.2,-334.17 336.49,-329.58"/>
</g>
<!-- sigma_p -->
<g id="node10" class="node">
<title>sigma_p</title>
<ellipse fill="none" stroke="black" cx="57.98" cy="-291.98" rx="57.98" ry="40.66"/>
<text text-anchor="middle" x="57.98" y="-303.43" font-family="Times,serif" font-size="14.00">sigma_p</text>
<text text-anchor="middle" x="57.98" y="-286.93" font-family="Times,serif" font-size="14.00">~</text>
<text text-anchor="middle" x="57.98" y="-270.43" font-family="Times,serif" font-size="14.00">HalfNormal</text>
</g>
<!-- sigma_p&#45;&gt;P -->
<g id="edge17" class="edge">
<title>sigma_p&#45;&gt;P</title>
<path fill="none" stroke="black" d="M99.4,-262.98C106.74,-258.71 114.44,-254.63 121.98,-251.32 176.49,-227.4 197.95,-242.35 250.98,-215.32 254.71,-213.42 258.42,-211.22 262.04,-208.85"/>
<polygon fill="black" stroke="black" points="263.66,-211.29 269.82,-202.67 259.63,-205.56 263.66,-211.29"/>
</g>
<!-- sigma_x -->
<g id="node11" class="node">
<title>sigma_x</title>
<ellipse fill="none" stroke="black" cx="415.98" cy="-526.61" rx="57.98" ry="40.66"/>
<text text-anchor="middle" x="415.98" y="-538.06" font-family="Times,serif" font-size="14.00">sigma_x</text>
<text text-anchor="middle" x="415.98" y="-521.56" font-family="Times,serif" font-size="14.00">~</text>
<text text-anchor="middle" x="415.98" y="-505.06" font-family="Times,serif" font-size="14.00">HalfNormal</text>
</g>
<!-- sigma_x&#45;&gt;X -->
<g id="edge5" class="edge">
<title>sigma_x&#45;&gt;X</title>
<path fill="none" stroke="black" d="M383.34,-492.87C368.86,-478.36 351.78,-461.23 336.94,-446.35"/>
<polygon fill="black" stroke="black" points="339.95,-444.41 330.41,-439.8 334.99,-449.35 339.95,-444.41"/>
</g>
<!-- xp -->
<g id="node12" class="node">
<title>xp</title>
<ellipse fill="none" stroke="black" cx="400.98" cy="-291.98" rx="41.01" ry="40.66"/>
<text text-anchor="middle" x="400.98" y="-303.43" font-family="Times,serif" font-size="14.00">xp</text>
<text text-anchor="middle" x="400.98" y="-286.93" font-family="Times,serif" font-size="14.00">~</text>
<text text-anchor="middle" x="400.98" y="-270.43" font-family="Times,serif" font-size="14.00">Normal</text>
</g>
<!-- xp&#45;&gt;P -->
<g id="edge13" class="edge">
<title>xp&#45;&gt;P</title>
<path fill="none" stroke="black" d="M374.45,-260.38C362.14,-246.19 347.39,-229.17 334.34,-214.13"/>
<polygon fill="black" stroke="black" points="336.49,-212.26 327.3,-207 331.2,-216.85 336.49,-212.26"/>
</g>
<!-- sigma_y -->
<g id="node13" class="node">
<title>sigma_y</title>
<ellipse fill="none" stroke="black" cx="517.98" cy="-409.29" rx="57.98" ry="40.66"/>
<text text-anchor="middle" x="517.98" y="-420.74" font-family="Times,serif" font-size="14.00">sigma_y</text>
<text text-anchor="middle" x="517.98" y="-404.24" font-family="Times,serif" font-size="14.00">~</text>
<text text-anchor="middle" x="517.98" y="-387.74" font-family="Times,serif" font-size="14.00">HalfNormal</text>
</g>
<!-- sigma_y&#45;&gt;Y -->
<g id="edge10" class="edge">
<title>sigma_y&#45;&gt;Y</title>
<path fill="none" stroke="black" d="M475.38,-381.46C467.42,-376.91 459.05,-372.43 450.98,-368.63 408.25,-348.51 392.25,-355.61 350.98,-332.63 347.33,-330.6 343.67,-328.3 340.08,-325.87"/>
<polygon fill="black" stroke="black" points="342.51,-322.59 332.35,-319.59 338.43,-328.27 342.51,-322.59"/>
</g>
<!-- qx -->
<g id="node14" class="node">
<title>qx</title>
<ellipse fill="none" stroke="black" cx="532.98" cy="-526.61" rx="41.01" ry="40.66"/>
<text text-anchor="middle" x="532.98" y="-538.06" font-family="Times,serif" font-size="14.00">qx</text>
<text text-anchor="middle" x="532.98" y="-521.56" font-family="Times,serif" font-size="14.00">~</text>
<text text-anchor="middle" x="532.98" y="-505.06" font-family="Times,serif" font-size="14.00">Normal</text>
</g>
<!-- qx&#45;&gt;X -->
<g id="edge7" class="edge">
<title>qx&#45;&gt;X</title>
<path fill="none" stroke="black" d="M502.84,-498.57C496.58,-493.88 489.8,-489.4 482.98,-485.95 428.72,-458.5 405.24,-477.41 350.98,-449.95 347.25,-448.06 343.54,-445.87 339.91,-443.5"/>
<polygon fill="black" stroke="black" points="342.32,-440.22 332.12,-437.34 338.3,-445.95 342.32,-440.22"/>
</g>
<!-- xy -->
<g id="node15" class="node">
<title>xy</title>
<ellipse fill="none" stroke="black" cx="634.98" cy="-409.29" rx="41.01" ry="40.66"/>
<text text-anchor="middle" x="634.98" y="-420.74" font-family="Times,serif" font-size="14.00">xy</text>
<text text-anchor="middle" x="634.98" y="-404.24" font-family="Times,serif" font-size="14.00">~</text>
<text text-anchor="middle" x="634.98" y="-387.74" font-family="Times,serif" font-size="14.00">Normal</text>
</g>
<!-- xy&#45;&gt;Y -->
<g id="edge12" class="edge">
<title>xy&#45;&gt;Y</title>
<path fill="none" stroke="black" d="M605.41,-380.82C599.05,-376.11 592.09,-371.74 584.98,-368.63 488.55,-326.54 447.42,-374.73 350.98,-332.63 347.1,-330.94 343.25,-328.86 339.53,-326.56"/>
<polygon fill="black" stroke="black" points="341.79,-323.18 331.56,-320.45 337.85,-328.97 341.79,-323.18"/>
</g>
<!-- yp -->
<g id="node16" class="node">
<title>yp</title>
<ellipse fill="none" stroke="black" cx="500.98" cy="-291.98" rx="41.01" ry="40.66"/>
<text text-anchor="middle" x="500.98" y="-303.43" font-family="Times,serif" font-size="14.00">yp</text>
<text text-anchor="middle" x="500.98" y="-286.93" font-family="Times,serif" font-size="14.00">~</text>
<text text-anchor="middle" x="500.98" y="-270.43" font-family="Times,serif" font-size="14.00">Normal</text>
</g>
<!-- yp&#45;&gt;P -->
<g id="edge16" class="edge">
<title>yp&#45;&gt;P</title>
<path fill="none" stroke="black" d="M469.96,-264.79C463.83,-260.08 457.33,-255.38 450.98,-251.32 418.09,-230.28 378.58,-210.56 348.37,-196.53"/>
<polygon fill="black" stroke="black" points="350.05,-192.99 339.5,-191.99 347.13,-199.35 350.05,-192.99"/>
</g>
</g>
</svg>