<?xml version="1.0" encoding="UTF-8" standalone="no"?>
<!DOCTYPE svg PUBLIC "-//W3C//DTD SVG 1.1//EN"
 "http://www.w3.org/Graphics/SVG/1.1/DTD/svg11.dtd">
<!-- Generated by graphviz version 2.43.0 (0)
 -->
<!-- Title: %3 Pages: 1 -->
<svg width="821pt" height="347pt"
 viewBox="0.00 0.00 821.12 346.86" xmlns="http://www.w3.org/2000/svg" xmlns:xlink="http://www.w3.org/1999/xlink">
<g id="graph0" class="graph" transform="scale(1 1) rotate(0) translate(4 342.86)">
<title>%3</title>
<polygon fill="white" stroke="transparent" points="-4,4 -4,-342.86 817.12,-342.86 817.12,4 -4,4"/>
<g id="clust1" class="cluster">
<title>clusterobs_id (919)</title>
<path fill="none" stroke="black" d="M20,-8C20,-8 250,-8 250,-8 256,-8 262,-14 262,-20 262,-20 262,-212.93 262,-212.93 262,-218.93 256,-224.93 250,-224.93 250,-224.93 20,-224.93 20,-224.93 14,-224.93 8,-218.93 8,-212.93 8,-212.93 8,-20 8,-20 8,-14 14,-8 20,-8"/>
<text text-anchor="middle" x="210" y="-15.8" font-family="Times,serif" font-size="14.00">obs_id (919)</text>
</g>
<g id="clust2" class="cluster">
<title>clustercounty (85)</title>
<path fill="none" stroke="black" d="M439,-121.95C439,-121.95 646,-121.95 646,-121.95 652,-121.95 658,-127.95 658,-133.95 658,-133.95 658,-223.91 658,-223.91 658,-229.91 652,-235.91 646,-235.91 646,-235.91 439,-235.91 439,-235.91 433,-235.91 427,-229.91 427,-223.91 427,-223.91 427,-133.95 427,-133.95 427,-127.95 433,-121.95 439,-121.95"/>
<text text-anchor="middle" x="609" y="-129.75" font-family="Times,serif" font-size="14.00">county (85)</text>
</g>
<!-- floor_idx -->
<g id="node1" class="node">
<title>floor_idx</title>
<path fill="lightgrey" stroke="black" d="M242,-216.93C242,-216.93 156,-216.93 156,-216.93 150,-216.93 144,-210.93 144,-204.93 144,-204.93 144,-175.93 144,-175.93 144,-169.93 150,-163.93 156,-163.93 156,-163.93 242,-163.93 242,-163.93 248,-163.93 254,-169.93 254,-175.93 254,-175.93 254,-204.93 254,-204.93 254,-210.93 248,-216.93 242,-216.93"/>
<text text-anchor="middle" x="199" y="-201.73" font-family="Times,serif" font-size="14.00">floor_idx</text>
<text text-anchor="middle" x="199" y="-186.73" font-family="Times,serif" font-size="14.00">~</text>
<text text-anchor="middle" x="199" y="-171.73" font-family="Times,serif" font-size="14.00">MutableData</text>
</g>
<!-- y_like -->
<g id="node3" class="node">
<title>y_like</title>
<ellipse fill="lightgrey" stroke="black" cx="205" cy="-76.48" rx="49.49" ry="37.45"/>
<text text-anchor="middle" x="205" y="-87.78" font-family="Times,serif" font-size="14.00">y_like</text>
<text text-anchor="middle" x="205" y="-72.78" font-family="Times,serif" font-size="14.00">~</text>
<text text-anchor="middle" x="205" y="-57.78" font-family="Times,serif" font-size="14.00">Normal</text>
</g>
<!-- floor_idx&#45;&gt;y_like -->
<g id="edge7" class="edge">
<title>floor_idx&#45;&gt;y_like</title>
<path fill="none" stroke="black" d="M200.38,-163.75C201.01,-152.02 201.77,-137.75 202.49,-124.22"/>
<polygon fill="black" stroke="black" points="206,-124.25 203.04,-114.07 199.01,-123.87 206,-124.25"/>
</g>
<!-- county_idx -->
<g id="node2" class="node">
<title>county_idx</title>
<path fill="lightgrey" stroke="black" d="M114,-216.93C114,-216.93 28,-216.93 28,-216.93 22,-216.93 16,-210.93 16,-204.93 16,-204.93 16,-175.93 16,-175.93 16,-169.93 22,-163.93 28,-163.93 28,-163.93 114,-163.93 114,-163.93 120,-163.93 126,-169.93 126,-175.93 126,-175.93 126,-204.93 126,-204.93 126,-210.93 120,-216.93 114,-216.93"/>
<text text-anchor="middle" x="71" y="-201.73" font-family="Times,serif" font-size="14.00">county_idx</text>
<text text-anchor="middle" x="71" y="-186.73" font-family="Times,serif" font-size="14.00">~</text>
<text text-anchor="middle" x="71" y="-171.73" font-family="Times,serif" font-size="14.00">MutableData</text>
</g>
<!-- county_idx&#45;&gt;y_like -->
<g id="edge8" class="edge">
<title>county_idx&#45;&gt;y_like</title>
<path fill="none" stroke="black" d="M92.75,-163.61C104.55,-150.39 119.79,-134.48 135,-121.95 142.02,-116.17 149.84,-110.54 157.63,-105.33"/>
<polygon fill="black" stroke="black" points="159.57,-108.24 166.04,-99.85 155.75,-102.38 159.57,-108.24"/>
</g>
<!-- sigma_b -->
<g id="node4" class="node">
<title>sigma_b</title>
<ellipse fill="none" stroke="black" cx="344" cy="-301.38" rx="72.25" ry="37.45"/>
<text text-anchor="middle" x="344" y="-312.68" font-family="Times,serif" font-size="14.00">sigma_b</text>
<text text-anchor="middle" x="344" y="-297.68" font-family="Times,serif" font-size="14.00">~</text>
<text text-anchor="middle" x="344" y="-282.68" font-family="Times,serif" font-size="14.00">Exponential</text>
</g>
<!-- beta -->
<g id="node9" class="node">
<title>beta</title>
<ellipse fill="none" stroke="black" cx="484" cy="-190.43" rx="49.49" ry="37.45"/>
<text text-anchor="middle" x="484" y="-201.73" font-family="Times,serif" font-size="14.00">beta</text>
<text text-anchor="middle" x="484" y="-186.73" font-family="Times,serif" font-size="14.00">~</text>
<text text-anchor="middle" x="484" y="-171.73" font-family="Times,serif" font-size="14.00">Normal</text>
</g>
<!-- sigma_b&#45;&gt;beta -->
<g id="edge3" class="edge">
<title>sigma_b&#45;&gt;beta</title>
<path fill="none" stroke="black" d="M383.37,-269.74C401.69,-255.49 423.49,-238.52 442.11,-224.03"/>
<polygon fill="black" stroke="black" points="444.4,-226.68 450.15,-217.78 440.1,-221.16 444.4,-226.68"/>
</g>
<!-- mu_a -->
<g id="node5" class="node">
<title>mu_a</title>
<ellipse fill="none" stroke="black" cx="601" cy="-301.38" rx="49.49" ry="37.45"/>
<text text-anchor="middle" x="601" y="-312.68" font-family="Times,serif" font-size="14.00">mu_a</text>
<text text-anchor="middle" x="601" y="-297.68" font-family="Times,serif" font-size="14.00">~</text>
<text text-anchor="middle" x="601" y="-282.68" font-family="Times,serif" font-size="14.00">Normal</text>
</g>
<!-- alpha -->
<g id="node10" class="node">
<title>alpha</title>
<ellipse fill="none" stroke="black" cx="601" cy="-190.43" rx="49.49" ry="37.45"/>
<text text-anchor="middle" x="601" y="-201.73" font-family="Times,serif" font-size="14.00">alpha</text>
<text text-anchor="middle" x="601" y="-186.73" font-family="Times,serif" font-size="14.00">~</text>
<text text-anchor="middle" x="601" y="-171.73" font-family="Times,serif" font-size="14.00">Normal</text>
</g>
<!-- mu_a&#45;&gt;alpha -->
<g id="edge1" class="edge">
<title>mu_a&#45;&gt;alpha</title>
<path fill="none" stroke="black" d="M601,-263.8C601,-255.63 601,-246.85 601,-238.32"/>
<polygon fill="black" stroke="black" points="604.5,-238.1 601,-228.1 597.5,-238.1 604.5,-238.1"/>
</g>
<!-- sigma_a -->
<g id="node6" class="node">
<title>sigma_a</title>
<ellipse fill="none" stroke="black" cx="741" cy="-301.38" rx="72.25" ry="37.45"/>
<text text-anchor="middle" x="741" y="-312.68" font-family="Times,serif" font-size="14.00">sigma_a</text>
<text text-anchor="middle" x="741" y="-297.68" font-family="Times,serif" font-size="14.00">~</text>
<text text-anchor="middle" x="741" y="-282.68" font-family="Times,serif" font-size="14.00">Exponential</text>
</g>
<!-- sigma_a&#45;&gt;alpha -->
<g id="edge2" class="edge">
<title>sigma_a&#45;&gt;alpha</title>
<path fill="none" stroke="black" d="M701.63,-269.74C683.31,-255.49 661.51,-238.52 642.89,-224.03"/>
<polygon fill="black" stroke="black" points="644.9,-221.16 634.85,-217.78 640.6,-226.68 644.9,-221.16"/>
</g>
<!-- mu_b -->
<g id="node7" class="node">
<title>mu_b</title>
<ellipse fill="none" stroke="black" cx="484" cy="-301.38" rx="49.49" ry="37.45"/>
<text text-anchor="middle" x="484" y="-312.68" font-family="Times,serif" font-size="14.00">mu_b</text>
<text text-anchor="middle" x="484" y="-297.68" font-family="Times,serif" font-size="14.00">~</text>
<text text-anchor="middle" x="484" y="-282.68" font-family="Times,serif" font-size="14.00">Normal</text>
</g>
<!-- mu_b&#45;&gt;beta -->
<g id="edge4" class="edge">
<title>mu_b&#45;&gt;beta</title>
<path fill="none" stroke="black" d="M484,-263.8C484,-255.63 484,-246.85 484,-238.32"/>
<polygon fill="black" stroke="black" points="487.5,-238.1 484,-228.1 480.5,-238.1 487.5,-238.1"/>
</g>
<!-- sigma_y -->
<g id="node8" class="node">
<title>sigma_y</title>
<ellipse fill="none" stroke="black" cx="344" cy="-190.43" rx="72.25" ry="37.45"/>
<text text-anchor="middle" x="344" y="-201.73" font-family="Times,serif" font-size="14.00">sigma_y</text>
<text text-anchor="middle" x="344" y="-186.73" font-family="Times,serif" font-size="14.00">~</text>
<text text-anchor="middle" x="344" y="-171.73" font-family="Times,serif" font-size="14.00">Exponential</text>
</g>
<!-- sigma_y&#45;&gt;y_like -->
<g id="edge5" class="edge">
<title>sigma_y&#45;&gt;y_like</title>
<path fill="none" stroke="black" d="M308.41,-157.55C295.28,-146.08 280.16,-133.21 266,-121.95 260.55,-117.62 254.74,-113.18 248.96,-108.85"/>
<polygon fill="black" stroke="black" points="250.65,-105.75 240.53,-102.62 246.49,-111.38 250.65,-105.75"/>
</g>
<!-- beta&#45;&gt;y_like -->
<g id="edge6" class="edge">
<title>beta&#45;&gt;y_like</title>
<path fill="none" stroke="black" d="M462.49,-156.66C452.54,-143.96 439.67,-130.47 425,-121.95 375.81,-93.4 311.19,-82.95 264.73,-79.24"/>
<polygon fill="black" stroke="black" points="264.74,-75.73 254.52,-78.51 264.24,-82.71 264.74,-75.73"/>
</g>
<!-- alpha&#45;&gt;y_like -->
<g id="edge9" class="edge">
<title>alpha&#45;&gt;y_like</title>
<path fill="none" stroke="black" d="M579.77,-156.16C569.87,-143.38 556.95,-129.96 542,-121.95 495.25,-96.91 348,-85.11 264.43,-80.3"/>
<polygon fill="black" stroke="black" points="264.5,-76.8 254.32,-79.73 264.11,-83.79 264.5,-76.8"/>
</g>
</g>
</svg>