<?xml version="1.0" encoding="UTF-8" standalone="no"?>
<!DOCTYPE svg PUBLIC "-//W3C//DTD SVG 1.1//EN"
 "http://www.w3.org/Graphics/SVG/1.1/DTD/svg11.dtd">
<!-- Generated by graphviz version 9.0.0 (0)
 -->
<!-- Pages: 1 -->
<svg width="422pt" height="247pt"
 viewBox="0.00 0.00 422.46 247.13" xmlns="http://www.w3.org/2000/svg" xmlns:xlink="http://www.w3.org/1999/xlink">
<g id="graph0" class="graph" transform="scale(1 1) rotate(0) translate(4 243.13)">
<polygon fill="white" stroke="none" points="-4,4 -4,-243.13 418.46,-243.13 418.46,4 -4,4"/>
<g id="clust1" class="cluster">
<title>cluster50</title>
<path fill="none" stroke="black" d="M186.45,-8C186.45,-8 260.45,-8 260.45,-8 266.45,-8 272.45,-14 272.45,-20 272.45,-20 272.45,-117.82 272.45,-117.82 272.45,-123.82 266.45,-129.82 260.45,-129.82 260.45,-129.82 186.45,-129.82 186.45,-129.82 180.45,-129.82 174.45,-123.82 174.45,-117.82 174.45,-117.82 174.45,-20 174.45,-20 174.45,-14 180.45,-8 186.45,-8"/>
<text text-anchor="middle" x="257.7" y="-15.2" font-family="Times,serif" font-size="14.00">50</text>
</g>
<!-- sigma -->
<g id="node1" class="node">
<title>sigma</title>
<ellipse fill="none" stroke="black" cx="57.45" cy="-198.48" rx="57.45" ry="40.66"/>
<text text-anchor="middle" x="57.45" y="-209.93" font-family="Times,serif" font-size="14.00">sigma</text>
<text text-anchor="middle" x="57.45" y="-193.43" font-family="Times,serif" font-size="14.00">~</text>
<text text-anchor="middle" x="57.45" y="-176.93" font-family="Times,serif" font-size="14.00">Exponential</text>
</g>
<!-- D -->
<g id="node5" class="node">
<title>D</title>
<ellipse fill="lightgrey" stroke="black" cx="223.45" cy="-81.16" rx="41.01" ry="40.66"/>
<text text-anchor="middle" x="223.45" y="-92.61" font-family="Times,serif" font-size="14.00">D</text>
<text text-anchor="middle" x="223.45" y="-76.11" font-family="Times,serif" font-size="14.00">~</text>
<text text-anchor="middle" x="223.45" y="-59.61" font-family="Times,serif" font-size="14.00">Normal</text>
</g>
<!-- sigma&#45;&gt;D -->
<g id="edge1" class="edge">
<title>sigma&#45;&gt;D</title>
<path fill="none" stroke="black" d="M98.06,-169.27C123.08,-151.88 155.13,-129.62 180.57,-111.95"/>
<polygon fill="black" stroke="black" points="182.5,-114.87 188.72,-106.29 178.51,-109.12 182.5,-114.87"/>
</g>
<!-- bA -->
<g id="node2" class="node">
<title>bA</title>
<ellipse fill="none" stroke="black" cx="173.45" cy="-198.48" rx="41.01" ry="40.66"/>
<text text-anchor="middle" x="173.45" y="-209.93" font-family="Times,serif" font-size="14.00">bA</text>
<text text-anchor="middle" x="173.45" y="-193.43" font-family="Times,serif" font-size="14.00">~</text>
<text text-anchor="middle" x="173.45" y="-176.93" font-family="Times,serif" font-size="14.00">Normal</text>
</g>
<!-- bA&#45;&gt;D -->
<g id="edge2" class="edge">
<title>bA&#45;&gt;D</title>
<path fill="none" stroke="black" d="M189.41,-160.67C193.74,-150.69 198.49,-139.74 203.03,-129.26"/>
<polygon fill="black" stroke="black" points="206.11,-130.96 206.87,-120.4 199.68,-128.18 206.11,-130.96"/>
</g>
<!-- bM -->
<g id="node3" class="node">
<title>bM</title>
<ellipse fill="none" stroke="black" cx="273.45" cy="-198.48" rx="41.01" ry="40.66"/>
<text text-anchor="middle" x="273.45" y="-209.93" font-family="Times,serif" font-size="14.00">bM</text>
<text text-anchor="middle" x="273.45" y="-193.43" font-family="Times,serif" font-size="14.00">~</text>
<text text-anchor="middle" x="273.45" y="-176.93" font-family="Times,serif" font-size="14.00">Normal</text>
</g>
<!-- bM&#45;&gt;D -->
<g id="edge3" class="edge">
<title>bM&#45;&gt;D</title>
<path fill="none" stroke="black" d="M257.49,-160.67C253.16,-150.69 248.42,-139.74 243.88,-129.26"/>
<polygon fill="black" stroke="black" points="247.22,-128.18 240.03,-120.4 240.8,-130.96 247.22,-128.18"/>
</g>
<!-- a -->
<g id="node4" class="node">
<title>a</title>
<ellipse fill="none" stroke="black" cx="373.45" cy="-198.48" rx="41.01" ry="40.66"/>
<text text-anchor="middle" x="373.45" y="-209.93" font-family="Times,serif" font-size="14.00">a</text>
<text text-anchor="middle" x="373.45" y="-193.43" font-family="Times,serif" font-size="14.00">~</text>
<text text-anchor="middle" x="373.45" y="-176.93" font-family="Times,serif" font-size="14.00">Normal</text>
</g>
<!-- a&#45;&gt;D -->
<g id="edge4" class="edge">
<title>a&#45;&gt;D</title>
<path fill="none" stroke="black" d="M341.8,-172.19C335.73,-167.39 329.41,-162.43 323.45,-157.82 304.4,-143.06 283.13,-126.91 265.11,-113.35"/>
<polygon fill="black" stroke="black" points="267.33,-110.63 257.23,-107.41 263.12,-116.22 267.33,-110.63"/>
</g>
</g>
</svg>