<?xml version="1.0" encoding="utf-8" standalone="no"?>
<!DOCTYPE svg PUBLIC "-//W3C//DTD SVG 1.1//EN"
  "http://www.w3.org/Graphics/SVG/1.1/DTD/svg11.dtd">
<svg xmlns:xlink="http://www.w3.org/1999/xlink" width="572.4pt" height="387.468375pt" viewBox="0 0 572.4 387.468375" xmlns="http://www.w3.org/2000/svg" version="1.1">
 <metadata>
  <rdf:RDF xmlns:dc="http://purl.org/dc/elements/1.1/" xmlns:cc="http://creativecommons.org/ns#" xmlns:rdf="http://www.w3.org/1999/02/22-rdf-syntax-ns#">
   <cc:Work>
    <dc:type rdf:resource="http://purl.org/dc/dcmitype/StillImage"/>
    <dc:date>2023-07-22T14:00:46.290519</dc:date>
    <dc:format>image/svg+xml</dc:format>
    <dc:creator>
     <cc:Agent>
      <dc:title>Matplotlib v3.7.1, https://matplotlib.org/</dc:title>
     </cc:Agent>
    </dc:creator>
   </cc:Work>
  </rdf:RDF>
 </metadata>
 <defs>
  <style type="text/css">*{stroke-linejoin: round; stroke-linecap: butt}</style>
 </defs>
 <g id="figure_1">
  <g id="patch_1">
   <path d="M 0 387.468375 
L 572.4 387.468375 
L 572.4 0 
L 0 0 
z
" style="fill: #ffffff"/>
  </g>
  <g id="axes_1">
   <g id="patch_2">
    <path d="M 7.2 352.7115 
L 565.2 352.7115 
L 565.2 20.0715 
L 7.2 20.0715 
z
" style="fill: #eaeaf2"/>
   </g>
   <g id="matplotlib.axis_1">
    <g id="xtick_1">
     <g id="line2d_1">
      <path d="M 45.867564 352.7115 
L 45.867564 20.0715 
" clip-path="url(#p0e54b3c80f)" style="fill: none; stroke: #ffffff; stroke-width: 0.8; stroke-linecap: round"/>
     </g>
     <g id="line2d_2">
      <defs>
       <path id="m7bf273800e" d="M 0 0 
L 0 3 
" style="stroke: #808080"/>
      </defs>
      <g>
       <use xlink:href="#m7bf273800e" x="45.867564" y="352.7115" style="fill: #808080; stroke: #808080"/>
      </g>
     </g>
     <g id="text_1">
      <!-- 0.030 -->
      <g style="fill: #262626" transform="translate(34.857939 365.510375) scale(0.088 -0.088)">
       <defs>
        <path id="ArialMT-30" d="M 266 2259 
Q 266 3072 433 3567 
Q 600 4063 929 4331 
Q 1259 4600 1759 4600 
Q 2128 4600 2406 4451 
Q 2684 4303 2865 4023 
Q 3047 3744 3150 3342 
Q 3253 2941 3253 2259 
Q 3253 1453 3087 958 
Q 2922 463 2592 192 
Q 2263 -78 1759 -78 
Q 1097 -78 719 397 
Q 266 969 266 2259 
z
M 844 2259 
Q 844 1131 1108 757 
Q 1372 384 1759 384 
Q 2147 384 2411 759 
Q 2675 1134 2675 2259 
Q 2675 3391 2411 3762 
Q 2147 4134 1753 4134 
Q 1366 4134 1134 3806 
Q 844 3388 844 2259 
z
" transform="scale(0.015625)"/>
        <path id="ArialMT-2e" d="M 581 0 
L 581 641 
L 1222 641 
L 1222 0 
L 581 0 
z
" transform="scale(0.015625)"/>
        <path id="ArialMT-33" d="M 269 1209 
L 831 1284 
Q 928 806 1161 595 
Q 1394 384 1728 384 
Q 2125 384 2398 659 
Q 2672 934 2672 1341 
Q 2672 1728 2419 1979 
Q 2166 2231 1775 2231 
Q 1616 2231 1378 2169 
L 1441 2663 
Q 1497 2656 1531 2656 
Q 1891 2656 2178 2843 
Q 2466 3031 2466 3422 
Q 2466 3731 2256 3934 
Q 2047 4138 1716 4138 
Q 1388 4138 1169 3931 
Q 950 3725 888 3313 
L 325 3413 
Q 428 3978 793 4289 
Q 1159 4600 1703 4600 
Q 2078 4600 2393 4439 
Q 2709 4278 2876 4000 
Q 3044 3722 3044 3409 
Q 3044 3113 2884 2869 
Q 2725 2625 2413 2481 
Q 2819 2388 3044 2092 
Q 3269 1797 3269 1353 
Q 3269 753 2831 336 
Q 2394 -81 1725 -81 
Q 1122 -81 723 278 
Q 325 638 269 1209 
z
" transform="scale(0.015625)"/>
       </defs>
       <use xlink:href="#ArialMT-30"/>
       <use xlink:href="#ArialMT-2e" x="55.615234"/>
       <use xlink:href="#ArialMT-30" x="83.398438"/>
       <use xlink:href="#ArialMT-33" x="139.013672"/>
       <use xlink:href="#ArialMT-30" x="194.628906"/>
      </g>
     </g>
    </g>
    <g id="xtick_2">
     <g id="line2d_3">
      <path d="M 111.838069 352.7115 
L 111.838069 20.0715 
" clip-path="url(#p0e54b3c80f)" style="fill: none; stroke: #ffffff; stroke-width: 0.8; stroke-linecap: round"/>
     </g>
     <g id="line2d_4">
      <g>
       <use xlink:href="#m7bf273800e" x="111.838069" y="352.7115" style="fill: #808080; stroke: #808080"/>
      </g>
     </g>
     <g id="text_2">
      <!-- 0.035 -->
      <g style="fill: #262626" transform="translate(100.828444 365.510375) scale(0.088 -0.088)">
       <defs>
        <path id="ArialMT-35" d="M 266 1200 
L 856 1250 
Q 922 819 1161 601 
Q 1400 384 1738 384 
Q 2144 384 2425 690 
Q 2706 997 2706 1503 
Q 2706 1984 2436 2262 
Q 2166 2541 1728 2541 
Q 1456 2541 1237 2417 
Q 1019 2294 894 2097 
L 366 2166 
L 809 4519 
L 3088 4519 
L 3088 3981 
L 1259 3981 
L 1013 2750 
Q 1425 3038 1878 3038 
Q 2478 3038 2890 2622 
Q 3303 2206 3303 1553 
Q 3303 931 2941 478 
Q 2500 -78 1738 -78 
Q 1113 -78 717 272 
Q 322 622 266 1200 
z
" transform="scale(0.015625)"/>
       </defs>
       <use xlink:href="#ArialMT-30"/>
       <use xlink:href="#ArialMT-2e" x="55.615234"/>
       <use xlink:href="#ArialMT-30" x="83.398438"/>
       <use xlink:href="#ArialMT-33" x="139.013672"/>
       <use xlink:href="#ArialMT-35" x="194.628906"/>
      </g>
     </g>
    </g>
    <g id="xtick_3">
     <g id="line2d_5">
      <path d="M 177.808575 352.7115 
L 177.808575 20.0715 
" clip-path="url(#p0e54b3c80f)" style="fill: none; stroke: #ffffff; stroke-width: 0.8; stroke-linecap: round"/>
     </g>
     <g id="line2d_6">
      <g>
       <use xlink:href="#m7bf273800e" x="177.808575" y="352.7115" style="fill: #808080; stroke: #808080"/>
      </g>
     </g>
     <g id="text_3">
      <!-- 0.040 -->
      <g style="fill: #262626" transform="translate(166.79895 365.510375) scale(0.088 -0.088)">
       <defs>
        <path id="ArialMT-34" d="M 2069 0 
L 2069 1097 
L 81 1097 
L 81 1613 
L 2172 4581 
L 2631 4581 
L 2631 1613 
L 3250 1613 
L 3250 1097 
L 2631 1097 
L 2631 0 
L 2069 0 
z
M 2069 1613 
L 2069 3678 
L 634 1613 
L 2069 1613 
z
" transform="scale(0.015625)"/>
       </defs>
       <use xlink:href="#ArialMT-30"/>
       <use xlink:href="#ArialMT-2e" x="55.615234"/>
       <use xlink:href="#ArialMT-30" x="83.398438"/>
       <use xlink:href="#ArialMT-34" x="139.013672"/>
       <use xlink:href="#ArialMT-30" x="194.628906"/>
      </g>
     </g>
    </g>
    <g id="xtick_4">
     <g id="line2d_7">
      <path d="M 243.77908 352.7115 
L 243.77908 20.0715 
" clip-path="url(#p0e54b3c80f)" style="fill: none; stroke: #ffffff; stroke-width: 0.8; stroke-linecap: round"/>
     </g>
     <g id="line2d_8">
      <g>
       <use xlink:href="#m7bf273800e" x="243.77908" y="352.7115" style="fill: #808080; stroke: #808080"/>
      </g>
     </g>
     <g id="text_4">
      <!-- 0.045 -->
      <g style="fill: #262626" transform="translate(232.769455 365.510375) scale(0.088 -0.088)">
       <use xlink:href="#ArialMT-30"/>
       <use xlink:href="#ArialMT-2e" x="55.615234"/>
       <use xlink:href="#ArialMT-30" x="83.398438"/>
       <use xlink:href="#ArialMT-34" x="139.013672"/>
       <use xlink:href="#ArialMT-35" x="194.628906"/>
      </g>
     </g>
    </g>
    <g id="xtick_5">
     <g id="line2d_9">
      <path d="M 309.749585 352.7115 
L 309.749585 20.0715 
" clip-path="url(#p0e54b3c80f)" style="fill: none; stroke: #ffffff; stroke-width: 0.8; stroke-linecap: round"/>
     </g>
     <g id="line2d_10">
      <g>
       <use xlink:href="#m7bf273800e" x="309.749585" y="352.7115" style="fill: #808080; stroke: #808080"/>
      </g>
     </g>
     <g id="text_5">
      <!-- 0.050 -->
      <g style="fill: #262626" transform="translate(298.73996 365.510375) scale(0.088 -0.088)">
       <use xlink:href="#ArialMT-30"/>
       <use xlink:href="#ArialMT-2e" x="55.615234"/>
       <use xlink:href="#ArialMT-30" x="83.398438"/>
       <use xlink:href="#ArialMT-35" x="139.013672"/>
       <use xlink:href="#ArialMT-30" x="194.628906"/>
      </g>
     </g>
    </g>
    <g id="xtick_6">
     <g id="line2d_11">
      <path d="M 375.720091 352.7115 
L 375.720091 20.0715 
" clip-path="url(#p0e54b3c80f)" style="fill: none; stroke: #ffffff; stroke-width: 0.8; stroke-linecap: round"/>
     </g>
     <g id="line2d_12">
      <g>
       <use xlink:href="#m7bf273800e" x="375.720091" y="352.7115" style="fill: #808080; stroke: #808080"/>
      </g>
     </g>
     <g id="text_6">
      <!-- 0.055 -->
      <g style="fill: #262626" transform="translate(364.710466 365.510375) scale(0.088 -0.088)">
       <use xlink:href="#ArialMT-30"/>
       <use xlink:href="#ArialMT-2e" x="55.615234"/>
       <use xlink:href="#ArialMT-30" x="83.398438"/>
       <use xlink:href="#ArialMT-35" x="139.013672"/>
       <use xlink:href="#ArialMT-35" x="194.628906"/>
      </g>
     </g>
    </g>
    <g id="xtick_7">
     <g id="line2d_13">
      <path d="M 441.690596 352.7115 
L 441.690596 20.0715 
" clip-path="url(#p0e54b3c80f)" style="fill: none; stroke: #ffffff; stroke-width: 0.8; stroke-linecap: round"/>
     </g>
     <g id="line2d_14">
      <g>
       <use xlink:href="#m7bf273800e" x="441.690596" y="352.7115" style="fill: #808080; stroke: #808080"/>
      </g>
     </g>
     <g id="text_7">
      <!-- 0.060 -->
      <g style="fill: #262626" transform="translate(430.680971 365.510375) scale(0.088 -0.088)">
       <defs>
        <path id="ArialMT-36" d="M 3184 3459 
L 2625 3416 
Q 2550 3747 2413 3897 
Q 2184 4138 1850 4138 
Q 1581 4138 1378 3988 
Q 1113 3794 959 3422 
Q 806 3050 800 2363 
Q 1003 2672 1297 2822 
Q 1591 2972 1913 2972 
Q 2475 2972 2870 2558 
Q 3266 2144 3266 1488 
Q 3266 1056 3080 686 
Q 2894 316 2569 119 
Q 2244 -78 1831 -78 
Q 1128 -78 684 439 
Q 241 956 241 2144 
Q 241 3472 731 4075 
Q 1159 4600 1884 4600 
Q 2425 4600 2770 4297 
Q 3116 3994 3184 3459 
z
M 888 1484 
Q 888 1194 1011 928 
Q 1134 663 1356 523 
Q 1578 384 1822 384 
Q 2178 384 2434 671 
Q 2691 959 2691 1453 
Q 2691 1928 2437 2201 
Q 2184 2475 1800 2475 
Q 1419 2475 1153 2201 
Q 888 1928 888 1484 
z
" transform="scale(0.015625)"/>
       </defs>
       <use xlink:href="#ArialMT-30"/>
       <use xlink:href="#ArialMT-2e" x="55.615234"/>
       <use xlink:href="#ArialMT-30" x="83.398438"/>
       <use xlink:href="#ArialMT-36" x="139.013672"/>
       <use xlink:href="#ArialMT-30" x="194.628906"/>
      </g>
     </g>
    </g>
    <g id="xtick_8">
     <g id="line2d_15">
      <path d="M 507.661101 352.7115 
L 507.661101 20.0715 
" clip-path="url(#p0e54b3c80f)" style="fill: none; stroke: #ffffff; stroke-width: 0.8; stroke-linecap: round"/>
     </g>
     <g id="line2d_16">
      <g>
       <use xlink:href="#m7bf273800e" x="507.661101" y="352.7115" style="fill: #808080; stroke: #808080"/>
      </g>
     </g>
     <g id="text_8">
      <!-- 0.065 -->
      <g style="fill: #262626" transform="translate(496.651476 365.510375) scale(0.088 -0.088)">
       <use xlink:href="#ArialMT-30"/>
       <use xlink:href="#ArialMT-2e" x="55.615234"/>
       <use xlink:href="#ArialMT-30" x="83.398438"/>
       <use xlink:href="#ArialMT-36" x="139.013672"/>
       <use xlink:href="#ArialMT-35" x="194.628906"/>
      </g>
     </g>
    </g>
    <g id="text_9">
     <!-- Flanker Effect (s) -->
     <g style="fill: #262626" transform="translate(249.74475 378.247875) scale(0.096 -0.096)">
      <defs>
       <path id="ArialMT-46" d="M 525 0 
L 525 4581 
L 3616 4581 
L 3616 4041 
L 1131 4041 
L 1131 2622 
L 3281 2622 
L 3281 2081 
L 1131 2081 
L 1131 0 
L 525 0 
z
" transform="scale(0.015625)"/>
       <path id="ArialMT-6c" d="M 409 0 
L 409 4581 
L 972 4581 
L 972 0 
L 409 0 
z
" transform="scale(0.015625)"/>
       <path id="ArialMT-61" d="M 2588 409 
Q 2275 144 1986 34 
Q 1697 -75 1366 -75 
Q 819 -75 525 192 
Q 231 459 231 875 
Q 231 1119 342 1320 
Q 453 1522 633 1644 
Q 813 1766 1038 1828 
Q 1203 1872 1538 1913 
Q 2219 1994 2541 2106 
Q 2544 2222 2544 2253 
Q 2544 2597 2384 2738 
Q 2169 2928 1744 2928 
Q 1347 2928 1158 2789 
Q 969 2650 878 2297 
L 328 2372 
Q 403 2725 575 2942 
Q 747 3159 1072 3276 
Q 1397 3394 1825 3394 
Q 2250 3394 2515 3294 
Q 2781 3194 2906 3042 
Q 3031 2891 3081 2659 
Q 3109 2516 3109 2141 
L 3109 1391 
Q 3109 606 3145 398 
Q 3181 191 3288 0 
L 2700 0 
Q 2613 175 2588 409 
z
M 2541 1666 
Q 2234 1541 1622 1453 
Q 1275 1403 1131 1340 
Q 988 1278 909 1158 
Q 831 1038 831 891 
Q 831 666 1001 516 
Q 1172 366 1500 366 
Q 1825 366 2078 508 
Q 2331 650 2450 897 
Q 2541 1088 2541 1459 
L 2541 1666 
z
" transform="scale(0.015625)"/>
       <path id="ArialMT-6e" d="M 422 0 
L 422 3319 
L 928 3319 
L 928 2847 
Q 1294 3394 1984 3394 
Q 2284 3394 2536 3286 
Q 2788 3178 2913 3003 
Q 3038 2828 3088 2588 
Q 3119 2431 3119 2041 
L 3119 0 
L 2556 0 
L 2556 2019 
Q 2556 2363 2490 2533 
Q 2425 2703 2258 2804 
Q 2091 2906 1866 2906 
Q 1506 2906 1245 2678 
Q 984 2450 984 1813 
L 984 0 
L 422 0 
z
" transform="scale(0.015625)"/>
       <path id="ArialMT-6b" d="M 425 0 
L 425 4581 
L 988 4581 
L 988 1969 
L 2319 3319 
L 3047 3319 
L 1778 2088 
L 3175 0 
L 2481 0 
L 1384 1697 
L 988 1316 
L 988 0 
L 425 0 
z
" transform="scale(0.015625)"/>
       <path id="ArialMT-65" d="M 2694 1069 
L 3275 997 
Q 3138 488 2766 206 
Q 2394 -75 1816 -75 
Q 1088 -75 661 373 
Q 234 822 234 1631 
Q 234 2469 665 2931 
Q 1097 3394 1784 3394 
Q 2450 3394 2872 2941 
Q 3294 2488 3294 1666 
Q 3294 1616 3291 1516 
L 816 1516 
Q 847 969 1125 678 
Q 1403 388 1819 388 
Q 2128 388 2347 550 
Q 2566 713 2694 1069 
z
M 847 1978 
L 2700 1978 
Q 2663 2397 2488 2606 
Q 2219 2931 1791 2931 
Q 1403 2931 1139 2672 
Q 875 2413 847 1978 
z
" transform="scale(0.015625)"/>
       <path id="ArialMT-72" d="M 416 0 
L 416 3319 
L 922 3319 
L 922 2816 
Q 1116 3169 1280 3281 
Q 1444 3394 1641 3394 
Q 1925 3394 2219 3213 
L 2025 2691 
Q 1819 2813 1613 2813 
Q 1428 2813 1281 2702 
Q 1134 2591 1072 2394 
Q 978 2094 978 1738 
L 978 0 
L 416 0 
z
" transform="scale(0.015625)"/>
       <path id="ArialMT-20" transform="scale(0.015625)"/>
       <path id="ArialMT-45" d="M 506 0 
L 506 4581 
L 3819 4581 
L 3819 4041 
L 1113 4041 
L 1113 2638 
L 3647 2638 
L 3647 2100 
L 1113 2100 
L 1113 541 
L 3925 541 
L 3925 0 
L 506 0 
z
" transform="scale(0.015625)"/>
       <path id="ArialMT-66" d="M 556 0 
L 556 2881 
L 59 2881 
L 59 3319 
L 556 3319 
L 556 3672 
Q 556 4006 616 4169 
Q 697 4388 901 4523 
Q 1106 4659 1475 4659 
Q 1713 4659 2000 4603 
L 1916 4113 
Q 1741 4144 1584 4144 
Q 1328 4144 1222 4034 
Q 1116 3925 1116 3625 
L 1116 3319 
L 1763 3319 
L 1763 2881 
L 1116 2881 
L 1116 0 
L 556 0 
z
" transform="scale(0.015625)"/>
       <path id="ArialMT-63" d="M 2588 1216 
L 3141 1144 
Q 3050 572 2676 248 
Q 2303 -75 1759 -75 
Q 1078 -75 664 370 
Q 250 816 250 1647 
Q 250 2184 428 2587 
Q 606 2991 970 3192 
Q 1334 3394 1763 3394 
Q 2303 3394 2647 3120 
Q 2991 2847 3088 2344 
L 2541 2259 
Q 2463 2594 2264 2762 
Q 2066 2931 1784 2931 
Q 1359 2931 1093 2626 
Q 828 2322 828 1663 
Q 828 994 1084 691 
Q 1341 388 1753 388 
Q 2084 388 2306 591 
Q 2528 794 2588 1216 
z
" transform="scale(0.015625)"/>
       <path id="ArialMT-74" d="M 1650 503 
L 1731 6 
Q 1494 -44 1306 -44 
Q 1000 -44 831 53 
Q 663 150 594 308 
Q 525 466 525 972 
L 525 2881 
L 113 2881 
L 113 3319 
L 525 3319 
L 525 4141 
L 1084 4478 
L 1084 3319 
L 1650 3319 
L 1650 2881 
L 1084 2881 
L 1084 941 
Q 1084 700 1114 631 
Q 1144 563 1211 522 
Q 1278 481 1403 481 
Q 1497 481 1650 503 
z
" transform="scale(0.015625)"/>
       <path id="ArialMT-28" d="M 1497 -1347 
Q 1031 -759 709 28 
Q 388 816 388 1659 
Q 388 2403 628 3084 
Q 909 3875 1497 4659 
L 1900 4659 
Q 1522 4009 1400 3731 
Q 1209 3300 1100 2831 
Q 966 2247 966 1656 
Q 966 153 1900 -1347 
L 1497 -1347 
z
" transform="scale(0.015625)"/>
       <path id="ArialMT-73" d="M 197 991 
L 753 1078 
Q 800 744 1014 566 
Q 1228 388 1613 388 
Q 2000 388 2187 545 
Q 2375 703 2375 916 
Q 2375 1106 2209 1216 
Q 2094 1291 1634 1406 
Q 1016 1563 777 1677 
Q 538 1791 414 1992 
Q 291 2194 291 2438 
Q 291 2659 392 2848 
Q 494 3038 669 3163 
Q 800 3259 1026 3326 
Q 1253 3394 1513 3394 
Q 1903 3394 2198 3281 
Q 2494 3169 2634 2976 
Q 2775 2784 2828 2463 
L 2278 2388 
Q 2241 2644 2061 2787 
Q 1881 2931 1553 2931 
Q 1166 2931 1000 2803 
Q 834 2675 834 2503 
Q 834 2394 903 2306 
Q 972 2216 1119 2156 
Q 1203 2125 1616 2013 
Q 2213 1853 2448 1751 
Q 2684 1650 2818 1456 
Q 2953 1263 2953 975 
Q 2953 694 2789 445 
Q 2625 197 2315 61 
Q 2006 -75 1616 -75 
Q 969 -75 630 194 
Q 291 463 197 991 
z
" transform="scale(0.015625)"/>
       <path id="ArialMT-29" d="M 791 -1347 
L 388 -1347 
Q 1322 153 1322 1656 
Q 1322 2244 1188 2822 
Q 1081 3291 891 3722 
Q 769 4003 388 4659 
L 791 4659 
Q 1378 3875 1659 3084 
Q 1900 2403 1900 1659 
Q 1900 816 1576 28 
Q 1253 -759 791 -1347 
z
" transform="scale(0.015625)"/>
      </defs>
      <use xlink:href="#ArialMT-46"/>
      <use xlink:href="#ArialMT-6c" x="61.083984"/>
      <use xlink:href="#ArialMT-61" x="83.300781"/>
      <use xlink:href="#ArialMT-6e" x="138.916016"/>
      <use xlink:href="#ArialMT-6b" x="194.53125"/>
      <use xlink:href="#ArialMT-65" x="244.53125"/>
      <use xlink:href="#ArialMT-72" x="300.146484"/>
      <use xlink:href="#ArialMT-20" x="333.447266"/>
      <use xlink:href="#ArialMT-45" x="361.230469"/>
      <use xlink:href="#ArialMT-66" x="427.929688"/>
      <use xlink:href="#ArialMT-66" x="453.962891"/>
      <use xlink:href="#ArialMT-65" x="481.746094"/>
      <use xlink:href="#ArialMT-63" x="537.361328"/>
      <use xlink:href="#ArialMT-74" x="587.361328"/>
      <use xlink:href="#ArialMT-20" x="615.144531"/>
      <use xlink:href="#ArialMT-28" x="642.927734"/>
      <use xlink:href="#ArialMT-73" x="676.228516"/>
      <use xlink:href="#ArialMT-29" x="726.228516"/>
     </g>
    </g>
   </g>
   <g id="matplotlib.axis_2"/>
   <g id="PolyCollection_1">
    <defs>
     <path id="m408222c1a3" d="M 32.563636 -49.876875 
L 32.563636 -51.94654 
L 33.556342 -51.944579 
L 34.549048 -51.93878 
L 35.541754 -51.929395 
L 36.53446 -51.916828 
L 37.527166 -51.898723 
L 38.519872 -51.879311 
L 39.512578 -51.862076 
L 40.505284 -51.841207 
L 41.49799 -51.824026 
L 42.490696 -51.804722 
L 43.483402 -51.805575 
L 44.476107 -51.801537 
L 45.468813 -51.798507 
L 46.461519 -51.80379 
L 47.454225 -51.818964 
L 48.446931 -51.834444 
L 49.439637 -51.863865 
L 50.432343 -51.894536 
L 51.425049 -51.932392 
L 52.417755 -51.981224 
L 53.410461 -52.038288 
L 54.403167 -52.097055 
L 55.395873 -52.170559 
L 56.388579 -52.252267 
L 57.381284 -52.342329 
L 58.37399 -52.440936 
L 59.366696 -52.555845 
L 60.359402 -52.678239 
L 61.352108 -52.80416 
L 62.344814 -52.947245 
L 63.33752 -53.09494 
L 64.330226 -53.257182 
L 65.322932 -53.42786 
L 66.315638 -53.611012 
L 67.308344 -53.818103 
L 68.30105 -54.032778 
L 69.293756 -54.25814 
L 70.286461 -54.5053 
L 71.279167 -54.763948 
L 72.271873 -55.039621 
L 73.264579 -55.326251 
L 74.257285 -55.633615 
L 75.249991 -55.958444 
L 76.242697 -56.282549 
L 77.235403 -56.62388 
L 78.228109 -56.975765 
L 79.220815 -57.333529 
L 80.213521 -57.702691 
L 81.206227 -58.07943 
L 82.198933 -58.459125 
L 83.191638 -58.847445 
L 84.184344 -59.244545 
L 85.17705 -59.640505 
L 86.169756 -60.051796 
L 87.162462 -60.457763 
L 88.155168 -60.878086 
L 89.147874 -61.308243 
L 90.14058 -61.73861 
L 91.133286 -62.171752 
L 92.125992 -62.610949 
L 93.118698 -63.052818 
L 94.111404 -63.511651 
L 95.10411 -63.975655 
L 96.096816 -64.455668 
L 97.089521 -64.940017 
L 98.082227 -65.442394 
L 99.074933 -65.954003 
L 100.067639 -66.478316 
L 101.060345 -67.01214 
L 102.053051 -67.563348 
L 103.045757 -68.121246 
L 104.038463 -68.702215 
L 105.031169 -69.302049 
L 106.023875 -69.918836 
L 107.016581 -70.568691 
L 108.009287 -71.223292 
L 109.001993 -71.924699 
L 109.994698 -72.625438 
L 110.987404 -73.365249 
L 111.98011 -74.127465 
L 112.972816 -74.927598 
L 113.965522 -75.773844 
L 114.958228 -76.634707 
L 115.950934 -77.540183 
L 116.94364 -78.467874 
L 117.936346 -79.45982 
L 118.929052 -80.501252 
L 119.921758 -81.595302 
L 120.914464 -82.739243 
L 121.90717 -83.936865 
L 122.899875 -85.185777 
L 123.892581 -86.504602 
L 124.885287 -87.873515 
L 125.877993 -89.29921 
L 126.870699 -90.778211 
L 127.863405 -92.296117 
L 128.856111 -93.884066 
L 129.848817 -95.511652 
L 130.841523 -97.183678 
L 131.834229 -98.899268 
L 132.826935 -100.652114 
L 133.819641 -102.441157 
L 134.812347 -104.255021 
L 135.805052 -106.068587 
L 136.797758 -107.918663 
L 137.790464 -109.778539 
L 138.78317 -111.665421 
L 139.775876 -113.528233 
L 140.768582 -115.388254 
L 141.761288 -117.22685 
L 142.753994 -119.050498 
L 143.7467 -120.854775 
L 144.739406 -122.618667 
L 145.732112 -124.372376 
L 146.724818 -126.120839 
L 147.717524 -127.83366 
L 148.710229 -129.529388 
L 149.702935 -131.227813 
L 150.695641 -132.895894 
L 151.688347 -134.573246 
L 152.681053 -136.262042 
L 153.673759 -137.976018 
L 154.666465 -139.6868 
L 155.659171 -141.425062 
L 156.651877 -143.214161 
L 157.644583 -145.053147 
L 158.637289 -146.950649 
L 159.629995 -148.915635 
L 160.622701 -150.977182 
L 161.615407 -153.110609 
L 162.608112 -155.314381 
L 163.600818 -157.616181 
L 164.593524 -160.032808 
L 165.58623 -162.559651 
L 166.578936 -165.154943 
L 167.571642 -167.84858 
L 168.564348 -170.636376 
L 169.557054 -173.514798 
L 170.54976 -176.494092 
L 171.542466 -179.556788 
L 172.535172 -182.693326 
L 173.527878 -185.860695 
L 174.520584 -189.080626 
L 175.513289 -192.340333 
L 176.505995 -195.6568 
L 177.498701 -198.970312 
L 178.491407 -202.330262 
L 179.484113 -205.668512 
L 180.476819 -209.019099 
L 181.469525 -212.367877 
L 182.462231 -215.683863 
L 183.454937 -218.979927 
L 184.447643 -222.217231 
L 185.440349 -225.388542 
L 186.433055 -228.504203 
L 187.425761 -231.532225 
L 188.418466 -234.504319 
L 189.411172 -237.453104 
L 190.403878 -240.270454 
L 191.396584 -242.981198 
L 192.38929 -245.617527 
L 193.381996 -248.187708 
L 194.374702 -250.643505 
L 195.367408 -253.010475 
L 196.360114 -255.286741 
L 197.35282 -257.493147 
L 198.345526 -259.619898 
L 199.338232 -261.645883 
L 200.330938 -263.623418 
L 201.323643 -265.542554 
L 202.316349 -267.408195 
L 203.309055 -269.244516 
L 204.301761 -271.054479 
L 205.294467 -272.873125 
L 206.287173 -274.657321 
L 207.279879 -276.436425 
L 208.272585 -278.24479 
L 209.265291 -280.135984 
L 210.257997 -282.028894 
L 211.250703 -283.976066 
L 212.243409 -285.953704 
L 213.236115 -288.005878 
L 214.22882 -290.124333 
L 215.221526 -292.331376 
L 216.214232 -294.577228 
L 217.206938 -296.896717 
L 218.199644 -299.296078 
L 219.19235 -301.757039 
L 220.185056 -304.273619 
L 221.177762 -306.801064 
L 222.170468 -309.365655 
L 223.163174 -311.9405 
L 224.15588 -314.574685 
L 225.148586 -317.156861 
L 226.141292 -319.790768 
L 227.133998 -322.37579 
L 228.126703 -324.975747 
L 229.119409 -327.493145 
L 230.112115 -329.905314 
L 231.104821 -332.304472 
L 232.097527 -334.581923 
L 233.090233 -336.76015 
L 234.082939 -338.81208 
L 235.075645 -340.759923 
L 236.068351 -342.595737 
L 237.061057 -344.270429 
L 238.053763 -345.794162 
L 239.046469 -347.166358 
L 240.039175 -348.393899 
L 241.03188 -349.449941 
L 242.024586 -350.360265 
L 243.017292 -351.048817 
L 244.009998 -351.599079 
L 245.002704 -351.949441 
L 245.99541 -352.175012 
L 246.988116 -352.276875 
L 247.980822 -352.196585 
L 248.973528 -351.990335 
L 249.966234 -351.611813 
L 250.95894 -351.143981 
L 251.951646 -350.512678 
L 252.944352 -349.810077 
L 253.937057 -348.977497 
L 254.929763 -348.125306 
L 255.922469 -347.194517 
L 256.915175 -346.204035 
L 257.907881 -345.179285 
L 258.900587 -344.183482 
L 259.893293 -343.122917 
L 260.885999 -342.089114 
L 261.878705 -341.042009 
L 262.871411 -339.963894 
L 263.864117 -338.948688 
L 264.856823 -337.962056 
L 265.849529 -336.961669 
L 266.842234 -335.954106 
L 267.83494 -335.021298 
L 268.827646 -334.105409 
L 269.820352 -333.200961 
L 270.813058 -332.291797 
L 271.805764 -331.409122 
L 272.79847 -330.54148 
L 273.791176 -329.643453 
L 274.783882 -328.736484 
L 275.776588 -327.768641 
L 276.769294 -326.768038 
L 277.762 -325.741793 
L 278.754706 -324.611864 
L 279.747411 -323.467221 
L 280.740117 -322.255886 
L 281.732823 -320.933424 
L 282.725529 -319.493863 
L 283.718235 -318.007527 
L 284.710941 -316.429198 
L 285.703647 -314.792382 
L 286.696353 -313.058642 
L 287.689059 -311.250047 
L 288.681765 -309.405699 
L 289.674471 -307.505422 
L 290.667177 -305.541295 
L 291.659883 -303.525358 
L 292.652589 -301.449079 
L 293.645294 -299.350073 
L 294.638 -297.26779 
L 295.630706 -295.136228 
L 296.623412 -292.975411 
L 297.616118 -290.766703 
L 298.608824 -288.568514 
L 299.60153 -286.27499 
L 300.594236 -283.995597 
L 301.586942 -281.661929 
L 302.579648 -279.325435 
L 303.572354 -276.947421 
L 304.56506 -274.453567 
L 305.557766 -271.95609 
L 306.550471 -269.346159 
L 307.543177 -266.678243 
L 308.535883 -263.903343 
L 309.528589 -261.01583 
L 310.521295 -258.07798 
L 311.514001 -255.008265 
L 312.506707 -251.838275 
L 313.499413 -248.589347 
L 314.492119 -245.234611 
L 315.484825 -241.790436 
L 316.477531 -238.314315 
L 317.470237 -234.737375 
L 318.462943 -231.145537 
L 319.455648 -227.472281 
L 320.448354 -223.775356 
L 321.44106 -220.090706 
L 322.433766 -216.390613 
L 323.426472 -212.713758 
L 324.419178 -209.048381 
L 325.411884 -205.450944 
L 326.40459 -201.886904 
L 327.397296 -198.404061 
L 328.390002 -194.936479 
L 329.382708 -191.561318 
L 330.375414 -188.298237 
L 331.36812 -185.110288 
L 332.360825 -181.961978 
L 333.353531 -178.938954 
L 334.346237 -175.977971 
L 335.338943 -173.122517 
L 336.331649 -170.334922 
L 337.324355 -167.637887 
L 338.317061 -165.006746 
L 339.309767 -162.470761 
L 340.302473 -159.99861 
L 341.295179 -157.569423 
L 342.287885 -155.222474 
L 343.280591 -152.938593 
L 344.273297 -150.700901 
L 345.266002 -148.513682 
L 346.258708 -146.388664 
L 347.251414 -144.320439 
L 348.24412 -142.289155 
L 349.236826 -140.312679 
L 350.229532 -138.382632 
L 351.222238 -136.481858 
L 352.214944 -134.646278 
L 353.20765 -132.836255 
L 354.200356 -131.070836 
L 355.193062 -129.367096 
L 356.185768 -127.692888 
L 357.178474 -126.050347 
L 358.17118 -124.43505 
L 359.163885 -122.845107 
L 360.156591 -121.295699 
L 361.149297 -119.749566 
L 362.142003 -118.201413 
L 363.134709 -116.697222 
L 364.127415 -115.203225 
L 365.120121 -113.732821 
L 366.112827 -112.295168 
L 367.105533 -110.845492 
L 368.098239 -109.428324 
L 369.090945 -108.034658 
L 370.083651 -106.673473 
L 371.076357 -105.303613 
L 372.069062 -103.955921 
L 373.061768 -102.631357 
L 374.054474 -101.313886 
L 375.04718 -100.022866 
L 376.039886 -98.751528 
L 377.032592 -97.509791 
L 378.025298 -96.289397 
L 379.018004 -95.077437 
L 380.01071 -93.920923 
L 381.003416 -92.772981 
L 381.996122 -91.658154 
L 382.988828 -90.582517 
L 383.981534 -89.504554 
L 384.974239 -88.466501 
L 385.966945 -87.444279 
L 386.959651 -86.43882 
L 387.952357 -85.452942 
L 388.945063 -84.475238 
L 389.937769 -83.511176 
L 390.930475 -82.548636 
L 391.923181 -81.589494 
L 392.915887 -80.648197 
L 393.908593 -79.709099 
L 394.901299 -78.768161 
L 395.894005 -77.823211 
L 396.886711 -76.897007 
L 397.879416 -75.963341 
L 398.872122 -75.024951 
L 399.864828 -74.113025 
L 400.857534 -73.189958 
L 401.85024 -72.286706 
L 402.842946 -71.394218 
L 403.835652 -70.508981 
L 404.828358 -69.640433 
L 405.821064 -68.802944 
L 406.81377 -67.978289 
L 407.806476 -67.175135 
L 408.799182 -66.392352 
L 409.791888 -65.63791 
L 410.784593 -64.915078 
L 411.777299 -64.220507 
L 412.770005 -63.5457 
L 413.762711 -62.908018 
L 414.755417 -62.297601 
L 415.748123 -61.702238 
L 416.740829 -61.135321 
L 417.733535 -60.604603 
L 418.726241 -60.099143 
L 419.718947 -59.616216 
L 420.711653 -59.155746 
L 421.704359 -58.72822 
L 422.697065 -58.324738 
L 423.689771 -57.932471 
L 424.682476 -57.561755 
L 425.675182 -57.214659 
L 426.667888 -56.883148 
L 427.660594 -56.573242 
L 428.6533 -56.27793 
L 429.646006 -55.997599 
L 430.638712 -55.729646 
L 431.631418 -55.489461 
L 432.624124 -55.262736 
L 433.61683 -55.061612 
L 434.609536 -54.877952 
L 435.602242 -54.702498 
L 436.594948 -54.542532 
L 437.587653 -54.400601 
L 438.580359 -54.275542 
L 439.573065 -54.152558 
L 440.565771 -54.057065 
L 441.558477 -53.966838 
L 442.551183 -53.891166 
L 443.543889 -53.816501 
L 444.536595 -53.763909 
L 445.529301 -53.714329 
L 446.522007 -53.670049 
L 447.514713 -53.630366 
L 448.507419 -53.597467 
L 449.500125 -53.565414 
L 450.49283 -53.532076 
L 451.485536 -53.493337 
L 452.478242 -53.454563 
L 453.470948 -53.411067 
L 454.463654 -53.362962 
L 455.45636 -53.306848 
L 456.449066 -53.245217 
L 457.441772 -53.175036 
L 458.434478 -53.102918 
L 459.427184 -53.025533 
L 460.41989 -52.946432 
L 461.412596 -52.862886 
L 462.405302 -52.773148 
L 463.398007 -52.682026 
L 464.390713 -52.593541 
L 465.383419 -52.505259 
L 466.376125 -52.415539 
L 467.368831 -52.332012 
L 468.361537 -52.251962 
L 469.354243 -52.176252 
L 470.346949 -52.102638 
L 471.339655 -52.038029 
L 472.332361 -51.978907 
L 473.325067 -51.91948 
L 474.317773 -51.872485 
L 475.310479 -51.830055 
L 476.303184 -51.791652 
L 477.29589 -51.756587 
L 478.288596 -51.72405 
L 479.281302 -51.690257 
L 480.274008 -51.66452 
L 481.266714 -51.635756 
L 482.25942 -51.606058 
L 483.252126 -51.574694 
L 484.244832 -51.541038 
L 485.237538 -51.504593 
L 486.230244 -51.465006 
L 487.22295 -51.419183 
L 488.215656 -51.370668 
L 489.208362 -51.322334 
L 490.201067 -51.270754 
L 491.193773 -51.216384 
L 492.186479 -51.156883 
L 493.179185 -51.096471 
L 494.171891 -51.035699 
L 495.164597 -50.978078 
L 496.157303 -50.917772 
L 497.150009 -50.86204 
L 498.142715 -50.804986 
L 499.135421 -50.753763 
L 500.128127 -50.70522 
L 501.120833 -50.659849 
L 502.113539 -50.618013 
L 503.106244 -50.579946 
L 504.09895 -50.549513 
L 505.091656 -50.524015 
L 506.084362 -50.499825 
L 507.077068 -50.479704 
L 508.069774 -50.463437 
L 509.06248 -50.450754 
L 510.055186 -50.441345 
L 511.047892 -50.434882 
L 512.040598 -50.431033 
L 513.033304 -50.426584 
L 514.02601 -50.427722 
L 515.018716 -50.430474 
L 516.011421 -50.434666 
L 517.004127 -50.440171 
L 517.996833 -50.446907 
L 518.989539 -50.454835 
L 519.982245 -50.463951 
L 520.974951 -50.47138 
L 521.967657 -50.480734 
L 522.960363 -50.494799 
L 523.953069 -50.509899 
L 524.945775 -50.526075 
L 525.938481 -50.543315 
L 526.931187 -50.561544 
L 527.923893 -50.577719 
L 528.916598 -50.601856 
L 529.909304 -50.623502 
L 530.90201 -50.645266 
L 531.894716 -50.6668 
L 532.887422 -50.687708 
L 533.880128 -50.707562 
L 534.872834 -50.725919 
L 535.86554 -50.742344 
L 536.858246 -50.756425 
L 537.850952 -50.767794 
L 538.843658 -50.776147 
L 539.836364 -50.781254 
L 539.836364 -49.876875 
L 539.836364 -49.876875 
L 538.843658 -49.876875 
L 537.850952 -49.876875 
L 536.858246 -49.876875 
L 535.86554 -49.876875 
L 534.872834 -49.876875 
L 533.880128 -49.876875 
L 532.887422 -49.876875 
L 531.894716 -49.876875 
L 530.90201 -49.876875 
L 529.909304 -49.876875 
L 528.916598 -49.876875 
L 527.923893 -49.876875 
L 526.931187 -49.876875 
L 525.938481 -49.876875 
L 524.945775 -49.876875 
L 523.953069 -49.876875 
L 522.960363 -49.876875 
L 521.967657 -49.876875 
L 520.974951 -49.876875 
L 519.982245 -49.876875 
L 518.989539 -49.876875 
L 517.996833 -49.876875 
L 517.004127 -49.876875 
L 516.011421 -49.876875 
L 515.018716 -49.876875 
L 514.02601 -49.876875 
L 513.033304 -49.876875 
L 512.040598 -49.876875 
L 511.047892 -49.876875 
L 510.055186 -49.876875 
L 509.06248 -49.876875 
L 508.069774 -49.876875 
L 507.077068 -49.876875 
L 506.084362 -49.876875 
L 505.091656 -49.876875 
L 504.09895 -49.876875 
L 503.106244 -49.876875 
L 502.113539 -49.876875 
L 501.120833 -49.876875 
L 500.128127 -49.876875 
L 499.135421 -49.876875 
L 498.142715 -49.876875 
L 497.150009 -49.876875 
L 496.157303 -49.876875 
L 495.164597 -49.876875 
L 494.171891 -49.876875 
L 493.179185 -49.876875 
L 492.186479 -49.876875 
L 491.193773 -49.876875 
L 490.201067 -49.876875 
L 489.208362 -49.876875 
L 488.215656 -49.876875 
L 487.22295 -49.876875 
L 486.230244 -49.876875 
L 485.237538 -49.876875 
L 484.244832 -49.876875 
L 483.252126 -49.876875 
L 482.25942 -49.876875 
L 481.266714 -49.876875 
L 480.274008 -49.876875 
L 479.281302 -49.876875 
L 478.288596 -49.876875 
L 477.29589 -49.876875 
L 476.303184 -49.876875 
L 475.310479 -49.876875 
L 474.317773 -49.876875 
L 473.325067 -49.876875 
L 472.332361 -49.876875 
L 471.339655 -49.876875 
L 470.346949 -49.876875 
L 469.354243 -49.876875 
L 468.361537 -49.876875 
L 467.368831 -49.876875 
L 466.376125 -49.876875 
L 465.383419 -49.876875 
L 464.390713 -49.876875 
L 463.398007 -49.876875 
L 462.405302 -49.876875 
L 461.412596 -49.876875 
L 460.41989 -49.876875 
L 459.427184 -49.876875 
L 458.434478 -49.876875 
L 457.441772 -49.876875 
L 456.449066 -49.876875 
L 455.45636 -49.876875 
L 454.463654 -49.876875 
L 453.470948 -49.876875 
L 452.478242 -49.876875 
L 451.485536 -49.876875 
L 450.49283 -49.876875 
L 449.500125 -49.876875 
L 448.507419 -49.876875 
L 447.514713 -49.876875 
L 446.522007 -49.876875 
L 445.529301 -49.876875 
L 444.536595 -49.876875 
L 443.543889 -49.876875 
L 442.551183 -49.876875 
L 441.558477 -49.876875 
L 440.565771 -49.876875 
L 439.573065 -49.876875 
L 438.580359 -49.876875 
L 437.587653 -49.876875 
L 436.594948 -49.876875 
L 435.602242 -49.876875 
L 434.609536 -49.876875 
L 433.61683 -49.876875 
L 432.624124 -49.876875 
L 431.631418 -49.876875 
L 430.638712 -49.876875 
L 429.646006 -49.876875 
L 428.6533 -49.876875 
L 427.660594 -49.876875 
L 426.667888 -49.876875 
L 425.675182 -49.876875 
L 424.682476 -49.876875 
L 423.689771 -49.876875 
L 422.697065 -49.876875 
L 421.704359 -49.876875 
L 420.711653 -49.876875 
L 419.718947 -49.876875 
L 418.726241 -49.876875 
L 417.733535 -49.876875 
L 416.740829 -49.876875 
L 415.748123 -49.876875 
L 414.755417 -49.876875 
L 413.762711 -49.876875 
L 412.770005 -49.876875 
L 411.777299 -49.876875 
L 410.784593 -49.876875 
L 409.791888 -49.876875 
L 408.799182 -49.876875 
L 407.806476 -49.876875 
L 406.81377 -49.876875 
L 405.821064 -49.876875 
L 404.828358 -49.876875 
L 403.835652 -49.876875 
L 402.842946 -49.876875 
L 401.85024 -49.876875 
L 400.857534 -49.876875 
L 399.864828 -49.876875 
L 398.872122 -49.876875 
L 397.879416 -49.876875 
L 396.886711 -49.876875 
L 395.894005 -49.876875 
L 394.901299 -49.876875 
L 393.908593 -49.876875 
L 392.915887 -49.876875 
L 391.923181 -49.876875 
L 390.930475 -49.876875 
L 389.937769 -49.876875 
L 388.945063 -49.876875 
L 387.952357 -49.876875 
L 386.959651 -49.876875 
L 385.966945 -49.876875 
L 384.974239 -49.876875 
L 383.981534 -49.876875 
L 382.988828 -49.876875 
L 381.996122 -49.876875 
L 381.003416 -49.876875 
L 380.01071 -49.876875 
L 379.018004 -49.876875 
L 378.025298 -49.876875 
L 377.032592 -49.876875 
L 376.039886 -49.876875 
L 375.04718 -49.876875 
L 374.054474 -49.876875 
L 373.061768 -49.876875 
L 372.069062 -49.876875 
L 371.076357 -49.876875 
L 370.083651 -49.876875 
L 369.090945 -49.876875 
L 368.098239 -49.876875 
L 367.105533 -49.876875 
L 366.112827 -49.876875 
L 365.120121 -49.876875 
L 364.127415 -49.876875 
L 363.134709 -49.876875 
L 362.142003 -49.876875 
L 361.149297 -49.876875 
L 360.156591 -49.876875 
L 359.163885 -49.876875 
L 358.17118 -49.876875 
L 357.178474 -49.876875 
L 356.185768 -49.876875 
L 355.193062 -49.876875 
L 354.200356 -49.876875 
L 353.20765 -49.876875 
L 352.214944 -49.876875 
L 351.222238 -49.876875 
L 350.229532 -49.876875 
L 349.236826 -49.876875 
L 348.24412 -49.876875 
L 347.251414 -49.876875 
L 346.258708 -49.876875 
L 345.266002 -49.876875 
L 344.273297 -49.876875 
L 343.280591 -49.876875 
L 342.287885 -49.876875 
L 341.295179 -49.876875 
L 340.302473 -49.876875 
L 339.309767 -49.876875 
L 338.317061 -49.876875 
L 337.324355 -49.876875 
L 336.331649 -49.876875 
L 335.338943 -49.876875 
L 334.346237 -49.876875 
L 333.353531 -49.876875 
L 332.360825 -49.876875 
L 331.36812 -49.876875 
L 330.375414 -49.876875 
L 329.382708 -49.876875 
L 328.390002 -49.876875 
L 327.397296 -49.876875 
L 326.40459 -49.876875 
L 325.411884 -49.876875 
L 324.419178 -49.876875 
L 323.426472 -49.876875 
L 322.433766 -49.876875 
L 321.44106 -49.876875 
L 320.448354 -49.876875 
L 319.455648 -49.876875 
L 318.462943 -49.876875 
L 317.470237 -49.876875 
L 316.477531 -49.876875 
L 315.484825 -49.876875 
L 314.492119 -49.876875 
L 313.499413 -49.876875 
L 312.506707 -49.876875 
L 311.514001 -49.876875 
L 310.521295 -49.876875 
L 309.528589 -49.876875 
L 308.535883 -49.876875 
L 307.543177 -49.876875 
L 306.550471 -49.876875 
L 305.557766 -49.876875 
L 304.56506 -49.876875 
L 303.572354 -49.876875 
L 302.579648 -49.876875 
L 301.586942 -49.876875 
L 300.594236 -49.876875 
L 299.60153 -49.876875 
L 298.608824 -49.876875 
L 297.616118 -49.876875 
L 296.623412 -49.876875 
L 295.630706 -49.876875 
L 294.638 -49.876875 
L 293.645294 -49.876875 
L 292.652589 -49.876875 
L 291.659883 -49.876875 
L 290.667177 -49.876875 
L 289.674471 -49.876875 
L 288.681765 -49.876875 
L 287.689059 -49.876875 
L 286.696353 -49.876875 
L 285.703647 -49.876875 
L 284.710941 -49.876875 
L 283.718235 -49.876875 
L 282.725529 -49.876875 
L 281.732823 -49.876875 
L 280.740117 -49.876875 
L 279.747411 -49.876875 
L 278.754706 -49.876875 
L 277.762 -49.876875 
L 276.769294 -49.876875 
L 275.776588 -49.876875 
L 274.783882 -49.876875 
L 273.791176 -49.876875 
L 272.79847 -49.876875 
L 271.805764 -49.876875 
L 270.813058 -49.876875 
L 269.820352 -49.876875 
L 268.827646 -49.876875 
L 267.83494 -49.876875 
L 266.842234 -49.876875 
L 265.849529 -49.876875 
L 264.856823 -49.876875 
L 263.864117 -49.876875 
L 262.871411 -49.876875 
L 261.878705 -49.876875 
L 260.885999 -49.876875 
L 259.893293 -49.876875 
L 258.900587 -49.876875 
L 257.907881 -49.876875 
L 256.915175 -49.876875 
L 255.922469 -49.876875 
L 254.929763 -49.876875 
L 253.937057 -49.876875 
L 252.944352 -49.876875 
L 251.951646 -49.876875 
L 250.95894 -49.876875 
L 249.966234 -49.876875 
L 248.973528 -49.876875 
L 247.980822 -49.876875 
L 246.988116 -49.876875 
L 245.99541 -49.876875 
L 245.002704 -49.876875 
L 244.009998 -49.876875 
L 243.017292 -49.876875 
L 242.024586 -49.876875 
L 241.03188 -49.876875 
L 240.039175 -49.876875 
L 239.046469 -49.876875 
L 238.053763 -49.876875 
L 237.061057 -49.876875 
L 236.068351 -49.876875 
L 235.075645 -49.876875 
L 234.082939 -49.876875 
L 233.090233 -49.876875 
L 232.097527 -49.876875 
L 231.104821 -49.876875 
L 230.112115 -49.876875 
L 229.119409 -49.876875 
L 228.126703 -49.876875 
L 227.133998 -49.876875 
L 226.141292 -49.876875 
L 225.148586 -49.876875 
L 224.15588 -49.876875 
L 223.163174 -49.876875 
L 222.170468 -49.876875 
L 221.177762 -49.876875 
L 220.185056 -49.876875 
L 219.19235 -49.876875 
L 218.199644 -49.876875 
L 217.206938 -49.876875 
L 216.214232 -49.876875 
L 215.221526 -49.876875 
L 214.22882 -49.876875 
L 213.236115 -49.876875 
L 212.243409 -49.876875 
L 211.250703 -49.876875 
L 210.257997 -49.876875 
L 209.265291 -49.876875 
L 208.272585 -49.876875 
L 207.279879 -49.876875 
L 206.287173 -49.876875 
L 205.294467 -49.876875 
L 204.301761 -49.876875 
L 203.309055 -49.876875 
L 202.316349 -49.876875 
L 201.323643 -49.876875 
L 200.330938 -49.876875 
L 199.338232 -49.876875 
L 198.345526 -49.876875 
L 197.35282 -49.876875 
L 196.360114 -49.876875 
L 195.367408 -49.876875 
L 194.374702 -49.876875 
L 193.381996 -49.876875 
L 192.38929 -49.876875 
L 191.396584 -49.876875 
L 190.403878 -49.876875 
L 189.411172 -49.876875 
L 188.418466 -49.876875 
L 187.425761 -49.876875 
L 186.433055 -49.876875 
L 185.440349 -49.876875 
L 184.447643 -49.876875 
L 183.454937 -49.876875 
L 182.462231 -49.876875 
L 181.469525 -49.876875 
L 180.476819 -49.876875 
L 179.484113 -49.876875 
L 178.491407 -49.876875 
L 177.498701 -49.876875 
L 176.505995 -49.876875 
L 175.513289 -49.876875 
L 174.520584 -49.876875 
L 173.527878 -49.876875 
L 172.535172 -49.876875 
L 171.542466 -49.876875 
L 170.54976 -49.876875 
L 169.557054 -49.876875 
L 168.564348 -49.876875 
L 167.571642 -49.876875 
L 166.578936 -49.876875 
L 165.58623 -49.876875 
L 164.593524 -49.876875 
L 163.600818 -49.876875 
L 162.608112 -49.876875 
L 161.615407 -49.876875 
L 160.622701 -49.876875 
L 159.629995 -49.876875 
L 158.637289 -49.876875 
L 157.644583 -49.876875 
L 156.651877 -49.876875 
L 155.659171 -49.876875 
L 154.666465 -49.876875 
L 153.673759 -49.876875 
L 152.681053 -49.876875 
L 151.688347 -49.876875 
L 150.695641 -49.876875 
L 149.702935 -49.876875 
L 148.710229 -49.876875 
L 147.717524 -49.876875 
L 146.724818 -49.876875 
L 145.732112 -49.876875 
L 144.739406 -49.876875 
L 143.7467 -49.876875 
L 142.753994 -49.876875 
L 141.761288 -49.876875 
L 140.768582 -49.876875 
L 139.775876 -49.876875 
L 138.78317 -49.876875 
L 137.790464 -49.876875 
L 136.797758 -49.876875 
L 135.805052 -49.876875 
L 134.812347 -49.876875 
L 133.819641 -49.876875 
L 132.826935 -49.876875 
L 131.834229 -49.876875 
L 130.841523 -49.876875 
L 129.848817 -49.876875 
L 128.856111 -49.876875 
L 127.863405 -49.876875 
L 126.870699 -49.876875 
L 125.877993 -49.876875 
L 124.885287 -49.876875 
L 123.892581 -49.876875 
L 122.899875 -49.876875 
L 121.90717 -49.876875 
L 120.914464 -49.876875 
L 119.921758 -49.876875 
L 118.929052 -49.876875 
L 117.936346 -49.876875 
L 116.94364 -49.876875 
L 115.950934 -49.876875 
L 114.958228 -49.876875 
L 113.965522 -49.876875 
L 112.972816 -49.876875 
L 111.98011 -49.876875 
L 110.987404 -49.876875 
L 109.994698 -49.876875 
L 109.001993 -49.876875 
L 108.009287 -49.876875 
L 107.016581 -49.876875 
L 106.023875 -49.876875 
L 105.031169 -49.876875 
L 104.038463 -49.876875 
L 103.045757 -49.876875 
L 102.053051 -49.876875 
L 101.060345 -49.876875 
L 100.067639 -49.876875 
L 99.074933 -49.876875 
L 98.082227 -49.876875 
L 97.089521 -49.876875 
L 96.096816 -49.876875 
L 95.10411 -49.876875 
L 94.111404 -49.876875 
L 93.118698 -49.876875 
L 92.125992 -49.876875 
L 91.133286 -49.876875 
L 90.14058 -49.876875 
L 89.147874 -49.876875 
L 88.155168 -49.876875 
L 87.162462 -49.876875 
L 86.169756 -49.876875 
L 85.17705 -49.876875 
L 84.184344 -49.876875 
L 83.191638 -49.876875 
L 82.198933 -49.876875 
L 81.206227 -49.876875 
L 80.213521 -49.876875 
L 79.220815 -49.876875 
L 78.228109 -49.876875 
L 77.235403 -49.876875 
L 76.242697 -49.876875 
L 75.249991 -49.876875 
L 74.257285 -49.876875 
L 73.264579 -49.876875 
L 72.271873 -49.876875 
L 71.279167 -49.876875 
L 70.286461 -49.876875 
L 69.293756 -49.876875 
L 68.30105 -49.876875 
L 67.308344 -49.876875 
L 66.315638 -49.876875 
L 65.322932 -49.876875 
L 64.330226 -49.876875 
L 63.33752 -49.876875 
L 62.344814 -49.876875 
L 61.352108 -49.876875 
L 60.359402 -49.876875 
L 59.366696 -49.876875 
L 58.37399 -49.876875 
L 57.381284 -49.876875 
L 56.388579 -49.876875 
L 55.395873 -49.876875 
L 54.403167 -49.876875 
L 53.410461 -49.876875 
L 52.417755 -49.876875 
L 51.425049 -49.876875 
L 50.432343 -49.876875 
L 49.439637 -49.876875 
L 48.446931 -49.876875 
L 47.454225 -49.876875 
L 46.461519 -49.876875 
L 45.468813 -49.876875 
L 44.476107 -49.876875 
L 43.483402 -49.876875 
L 42.490696 -49.876875 
L 41.49799 -49.876875 
L 40.505284 -49.876875 
L 39.512578 -49.876875 
L 38.519872 -49.876875 
L 37.527166 -49.876875 
L 36.53446 -49.876875 
L 35.541754 -49.876875 
L 34.549048 -49.876875 
L 33.556342 -49.876875 
L 32.563636 -49.876875 
z
" style="stroke: #0173b2; stroke-opacity: 0; stroke-width: 0.8"/>
    </defs>
    <g clip-path="url(#p0e54b3c80f)">
     <use xlink:href="#m408222c1a3" x="0" y="387.468375" style="fill: #0173b2; fill-opacity: 0; stroke: #0173b2; stroke-opacity: 0; stroke-width: 0.8"/>
    </g>
   </g>
   <g id="line2d_17">
    <path d="M 32.563636 335.521835 
L 41.49799 335.644349 
L 47.454225 335.649411 
L 52.417755 335.487151 
L 57.381284 335.126046 
L 61.352108 334.664215 
L 66.315638 333.857363 
L 70.286461 332.963075 
L 74.257285 331.83476 
L 79.220815 330.134846 
L 85.17705 327.82787 
L 92.125992 324.857426 
L 97.089521 322.528358 
L 102.053051 319.905027 
L 106.023875 317.549539 
L 109.994698 314.842937 
L 112.972816 312.540777 
L 115.950934 309.928192 
L 117.936346 308.008555 
L 120.914464 304.729132 
L 123.892581 300.963773 
L 126.870699 296.690164 
L 129.848817 291.956723 
L 132.826935 286.816261 
L 137.790464 277.689836 
L 142.753994 268.417877 
L 146.724818 261.347536 
L 157.644583 242.415228 
L 160.622701 236.491193 
L 163.600818 229.852194 
L 166.578936 222.313432 
L 169.557054 213.953577 
L 172.535172 204.775049 
L 176.505995 191.811575 
L 186.433055 158.964172 
L 190.403878 147.197921 
L 193.381996 139.280667 
L 196.360114 132.181634 
L 199.338232 125.822492 
L 202.316349 120.06018 
L 212.243409 101.514671 
L 215.221526 95.136999 
L 218.199644 88.172297 
L 222.170468 78.10272 
L 231.104821 55.163903 
L 233.090233 50.708225 
L 235.075645 46.708452 
L 237.061057 43.197946 
L 239.046469 40.302017 
L 241.03188 38.018434 
L 242.024586 37.10811 
L 243.017292 36.419558 
L 244.009998 35.869296 
L 245.002704 35.518934 
L 245.99541 35.293363 
L 246.988116 35.1915 
L 247.980822 35.27179 
L 248.973528 35.47804 
L 250.95894 36.324394 
L 252.944352 37.658298 
L 255.922469 40.273858 
L 260.885999 45.379261 
L 266.842234 51.514269 
L 271.805764 56.059253 
L 274.783882 58.731891 
L 277.762 61.726582 
L 280.740117 65.212489 
L 282.725529 67.974512 
L 284.710941 71.039177 
L 286.696353 74.409733 
L 289.674471 79.962953 
L 292.652589 86.019296 
L 297.616118 96.701672 
L 300.594236 103.472778 
L 304.56506 113.014808 
L 307.543177 120.790132 
L 310.521295 129.390395 
L 313.499413 138.879028 
L 316.477531 149.15406 
L 321.44106 167.377669 
L 326.40459 185.581471 
L 330.375414 199.170138 
L 333.353531 208.529421 
L 336.331649 217.133453 
L 339.309767 224.997614 
L 342.287885 232.245901 
L 345.266002 238.954693 
L 348.24412 245.17922 
L 351.222238 250.986517 
L 355.193062 258.101279 
L 359.163885 264.623268 
L 365.120121 273.735554 
L 370.083651 280.794902 
L 374.054474 286.154489 
L 378.025298 291.178978 
L 381.003416 294.695394 
L 384.974239 299.001874 
L 389.937769 303.957199 
L 397.879416 311.505034 
L 402.842946 316.074157 
L 406.81377 319.490086 
L 409.791888 321.830465 
L 412.770005 323.922675 
L 415.748123 325.766137 
L 418.726241 327.369232 
L 421.704359 328.740155 
L 425.675182 330.253716 
L 429.646006 331.470776 
L 432.624124 332.205639 
L 436.594948 332.925843 
L 440.565771 333.41131 
L 445.529301 333.754046 
L 460.41989 334.521943 
L 474.317773 335.59589 
L 510.055186 337.02703 
L 520.974951 336.996995 
L 532.887422 336.780667 
L 539.836364 336.687121 
L 539.836364 336.687121 
" clip-path="url(#p0e54b3c80f)" style="fill: none; stroke: #0173b2; stroke-width: 1.2; stroke-linecap: round"/>
   </g>
   <g id="line2d_18">
    <path d="M 134.80619 331.2411 
L 372.055086 331.2411 
" clip-path="url(#p0e54b3c80f)" style="fill: none; stroke: #1a1a1a; stroke-width: 2.4"/>
   </g>
   <g id="patch_3">
    <path d="M 7.2 352.7115 
L 565.2 352.7115 
" style="fill: none; stroke: #808080; stroke-linejoin: miter; stroke-linecap: square"/>
   </g>
   <g id="text_10">
    <!-- 0.037  -->
    <g style="fill: #262626" transform="translate(108.11819 315.3651) scale(0.096 -0.096)">
     <defs>
      <path id="ArialMT-37" d="M 303 3981 
L 303 4522 
L 3269 4522 
L 3269 4084 
Q 2831 3619 2401 2847 
Q 1972 2075 1738 1259 
Q 1569 684 1522 0 
L 944 0 
Q 953 541 1156 1306 
Q 1359 2072 1739 2783 
Q 2119 3494 2547 3981 
L 303 3981 
z
" transform="scale(0.015625)"/>
     </defs>
     <use xlink:href="#ArialMT-30"/>
     <use xlink:href="#ArialMT-2e" x="55.615234"/>
     <use xlink:href="#ArialMT-30" x="83.398438"/>
     <use xlink:href="#ArialMT-33" x="139.013672"/>
     <use xlink:href="#ArialMT-37" x="194.628906"/>
     <use xlink:href="#ArialMT-20" x="250.244141"/>
    </g>
   </g>
   <g id="text_11">
    <!--  0.055 -->
    <g style="fill: #262626" transform="translate(372.055086 315.3651) scale(0.096 -0.096)">
     <use xlink:href="#ArialMT-20"/>
     <use xlink:href="#ArialMT-30" x="27.783203"/>
     <use xlink:href="#ArialMT-2e" x="83.398438"/>
     <use xlink:href="#ArialMT-30" x="111.181641"/>
     <use xlink:href="#ArialMT-35" x="166.796875"/>
     <use xlink:href="#ArialMT-35" x="222.412109"/>
    </g>
   </g>
   <g id="text_12">
    <!-- 94% HDI -->
    <g style="fill: #262626" transform="translate(234.223888 242.3355) scale(0.096 -0.096)">
     <defs>
      <path id="ArialMT-39" d="M 350 1059 
L 891 1109 
Q 959 728 1153 556 
Q 1347 384 1650 384 
Q 1909 384 2104 503 
Q 2300 622 2425 820 
Q 2550 1019 2634 1356 
Q 2719 1694 2719 2044 
Q 2719 2081 2716 2156 
Q 2547 1888 2255 1720 
Q 1963 1553 1622 1553 
Q 1053 1553 659 1965 
Q 266 2378 266 3053 
Q 266 3750 677 4175 
Q 1088 4600 1706 4600 
Q 2153 4600 2523 4359 
Q 2894 4119 3086 3673 
Q 3278 3228 3278 2384 
Q 3278 1506 3087 986 
Q 2897 466 2520 194 
Q 2144 -78 1638 -78 
Q 1100 -78 759 220 
Q 419 519 350 1059 
z
M 2653 3081 
Q 2653 3566 2395 3850 
Q 2138 4134 1775 4134 
Q 1400 4134 1122 3828 
Q 844 3522 844 3034 
Q 844 2597 1108 2323 
Q 1372 2050 1759 2050 
Q 2150 2050 2401 2323 
Q 2653 2597 2653 3081 
z
" transform="scale(0.015625)"/>
      <path id="ArialMT-25" d="M 372 3481 
Q 372 3972 619 4315 
Q 866 4659 1334 4659 
Q 1766 4659 2048 4351 
Q 2331 4044 2331 3447 
Q 2331 2866 2045 2552 
Q 1759 2238 1341 2238 
Q 925 2238 648 2547 
Q 372 2856 372 3481 
z
M 1350 4272 
Q 1141 4272 1002 4090 
Q 863 3909 863 3425 
Q 863 2984 1003 2804 
Q 1144 2625 1350 2625 
Q 1563 2625 1702 2806 
Q 1841 2988 1841 3469 
Q 1841 3913 1700 4092 
Q 1559 4272 1350 4272 
z
M 1353 -169 
L 3859 4659 
L 4316 4659 
L 1819 -169 
L 1353 -169 
z
M 3334 1075 
Q 3334 1569 3581 1911 
Q 3828 2253 4300 2253 
Q 4731 2253 5014 1945 
Q 5297 1638 5297 1041 
Q 5297 459 5011 145 
Q 4725 -169 4303 -169 
Q 3888 -169 3611 142 
Q 3334 453 3334 1075 
z
M 4316 1866 
Q 4103 1866 3964 1684 
Q 3825 1503 3825 1019 
Q 3825 581 3965 400 
Q 4106 219 4313 219 
Q 4528 219 4667 400 
Q 4806 581 4806 1063 
Q 4806 1506 4665 1686 
Q 4525 1866 4316 1866 
z
" transform="scale(0.015625)"/>
      <path id="ArialMT-48" d="M 513 0 
L 513 4581 
L 1119 4581 
L 1119 2700 
L 3500 2700 
L 3500 4581 
L 4106 4581 
L 4106 0 
L 3500 0 
L 3500 2159 
L 1119 2159 
L 1119 0 
L 513 0 
z
" transform="scale(0.015625)"/>
      <path id="ArialMT-44" d="M 494 0 
L 494 4581 
L 2072 4581 
Q 2606 4581 2888 4516 
Q 3281 4425 3559 4188 
Q 3922 3881 4101 3404 
Q 4281 2928 4281 2316 
Q 4281 1794 4159 1391 
Q 4038 988 3847 723 
Q 3656 459 3429 307 
Q 3203 156 2883 78 
Q 2563 0 2147 0 
L 494 0 
z
M 1100 541 
L 2078 541 
Q 2531 541 2789 625 
Q 3047 709 3200 863 
Q 3416 1078 3536 1442 
Q 3656 1806 3656 2325 
Q 3656 3044 3420 3430 
Q 3184 3816 2847 3947 
Q 2603 4041 2063 4041 
L 1100 4041 
L 1100 541 
z
" transform="scale(0.015625)"/>
      <path id="ArialMT-49" d="M 597 0 
L 597 4581 
L 1203 4581 
L 1203 0 
L 597 0 
z
" transform="scale(0.015625)"/>
     </defs>
     <use xlink:href="#ArialMT-39"/>
     <use xlink:href="#ArialMT-34" x="55.615234"/>
     <use xlink:href="#ArialMT-25" x="111.230469"/>
     <use xlink:href="#ArialMT-20" x="200.146484"/>
     <use xlink:href="#ArialMT-48" x="227.929688"/>
     <use xlink:href="#ArialMT-44" x="300.146484"/>
     <use xlink:href="#ArialMT-49" x="372.363281"/>
    </g>
   </g>
   <g id="text_13">
    <!-- mean=0.046 -->
    <g style="fill: #262626" transform="translate(226.548581 83.5755) scale(0.096 -0.096)">
     <defs>
      <path id="ArialMT-6d" d="M 422 0 
L 422 3319 
L 925 3319 
L 925 2853 
Q 1081 3097 1340 3245 
Q 1600 3394 1931 3394 
Q 2300 3394 2536 3241 
Q 2772 3088 2869 2813 
Q 3263 3394 3894 3394 
Q 4388 3394 4653 3120 
Q 4919 2847 4919 2278 
L 4919 0 
L 4359 0 
L 4359 2091 
Q 4359 2428 4304 2576 
Q 4250 2725 4106 2815 
Q 3963 2906 3769 2906 
Q 3419 2906 3187 2673 
Q 2956 2441 2956 1928 
L 2956 0 
L 2394 0 
L 2394 2156 
Q 2394 2531 2256 2718 
Q 2119 2906 1806 2906 
Q 1569 2906 1367 2781 
Q 1166 2656 1075 2415 
Q 984 2175 984 1722 
L 984 0 
L 422 0 
z
" transform="scale(0.015625)"/>
      <path id="ArialMT-3d" d="M 3381 2694 
L 356 2694 
L 356 3219 
L 3381 3219 
L 3381 2694 
z
M 3381 1303 
L 356 1303 
L 356 1828 
L 3381 1828 
L 3381 1303 
z
" transform="scale(0.015625)"/>
     </defs>
     <use xlink:href="#ArialMT-6d"/>
     <use xlink:href="#ArialMT-65" x="83.300781"/>
     <use xlink:href="#ArialMT-61" x="138.916016"/>
     <use xlink:href="#ArialMT-6e" x="194.53125"/>
     <use xlink:href="#ArialMT-3d" x="250.146484"/>
     <use xlink:href="#ArialMT-30" x="308.544922"/>
     <use xlink:href="#ArialMT-2e" x="364.160156"/>
     <use xlink:href="#ArialMT-30" x="391.943359"/>
     <use xlink:href="#ArialMT-34" x="447.558594"/>
     <use xlink:href="#ArialMT-36" x="503.173828"/>
    </g>
   </g>
   <g id="text_14">
    <!-- Posterior Distribution of the Flanker Effect -->
    <g style="fill: #262626" transform="translate(197.45175 14.0715) scale(0.096 -0.096)">
     <defs>
      <path id="ArialMT-50" d="M 494 0 
L 494 4581 
L 2222 4581 
Q 2678 4581 2919 4538 
Q 3256 4481 3484 4323 
Q 3713 4166 3852 3881 
Q 3991 3597 3991 3256 
Q 3991 2672 3619 2267 
Q 3247 1863 2275 1863 
L 1100 1863 
L 1100 0 
L 494 0 
z
M 1100 2403 
L 2284 2403 
Q 2872 2403 3119 2622 
Q 3366 2841 3366 3238 
Q 3366 3525 3220 3729 
Q 3075 3934 2838 4000 
Q 2684 4041 2272 4041 
L 1100 4041 
L 1100 2403 
z
" transform="scale(0.015625)"/>
      <path id="ArialMT-6f" d="M 213 1659 
Q 213 2581 725 3025 
Q 1153 3394 1769 3394 
Q 2453 3394 2887 2945 
Q 3322 2497 3322 1706 
Q 3322 1066 3130 698 
Q 2938 331 2570 128 
Q 2203 -75 1769 -75 
Q 1072 -75 642 372 
Q 213 819 213 1659 
z
M 791 1659 
Q 791 1022 1069 705 
Q 1347 388 1769 388 
Q 2188 388 2466 706 
Q 2744 1025 2744 1678 
Q 2744 2294 2464 2611 
Q 2184 2928 1769 2928 
Q 1347 2928 1069 2612 
Q 791 2297 791 1659 
z
" transform="scale(0.015625)"/>
      <path id="ArialMT-69" d="M 425 3934 
L 425 4581 
L 988 4581 
L 988 3934 
L 425 3934 
z
M 425 0 
L 425 3319 
L 988 3319 
L 988 0 
L 425 0 
z
" transform="scale(0.015625)"/>
      <path id="ArialMT-62" d="M 941 0 
L 419 0 
L 419 4581 
L 981 4581 
L 981 2947 
Q 1338 3394 1891 3394 
Q 2197 3394 2470 3270 
Q 2744 3147 2920 2923 
Q 3097 2700 3197 2384 
Q 3297 2069 3297 1709 
Q 3297 856 2875 390 
Q 2453 -75 1863 -75 
Q 1275 -75 941 416 
L 941 0 
z
M 934 1684 
Q 934 1088 1097 822 
Q 1363 388 1816 388 
Q 2184 388 2453 708 
Q 2722 1028 2722 1663 
Q 2722 2313 2464 2622 
Q 2206 2931 1841 2931 
Q 1472 2931 1203 2611 
Q 934 2291 934 1684 
z
" transform="scale(0.015625)"/>
      <path id="ArialMT-75" d="M 2597 0 
L 2597 488 
Q 2209 -75 1544 -75 
Q 1250 -75 995 37 
Q 741 150 617 320 
Q 494 491 444 738 
Q 409 903 409 1263 
L 409 3319 
L 972 3319 
L 972 1478 
Q 972 1038 1006 884 
Q 1059 663 1231 536 
Q 1403 409 1656 409 
Q 1909 409 2131 539 
Q 2353 669 2445 892 
Q 2538 1116 2538 1541 
L 2538 3319 
L 3100 3319 
L 3100 0 
L 2597 0 
z
" transform="scale(0.015625)"/>
      <path id="ArialMT-68" d="M 422 0 
L 422 4581 
L 984 4581 
L 984 2938 
Q 1378 3394 1978 3394 
Q 2347 3394 2619 3248 
Q 2891 3103 3008 2847 
Q 3125 2591 3125 2103 
L 3125 0 
L 2563 0 
L 2563 2103 
Q 2563 2525 2380 2717 
Q 2197 2909 1863 2909 
Q 1613 2909 1392 2779 
Q 1172 2650 1078 2428 
Q 984 2206 984 1816 
L 984 0 
L 422 0 
z
" transform="scale(0.015625)"/>
     </defs>
     <use xlink:href="#ArialMT-50"/>
     <use xlink:href="#ArialMT-6f" x="66.699219"/>
     <use xlink:href="#ArialMT-73" x="122.314453"/>
     <use xlink:href="#ArialMT-74" x="172.314453"/>
     <use xlink:href="#ArialMT-65" x="200.097656"/>
     <use xlink:href="#ArialMT-72" x="255.712891"/>
     <use xlink:href="#ArialMT-69" x="289.013672"/>
     <use xlink:href="#ArialMT-6f" x="311.230469"/>
     <use xlink:href="#ArialMT-72" x="366.845703"/>
     <use xlink:href="#ArialMT-20" x="400.146484"/>
     <use xlink:href="#ArialMT-44" x="427.929688"/>
     <use xlink:href="#ArialMT-69" x="500.146484"/>
     <use xlink:href="#ArialMT-73" x="522.363281"/>
     <use xlink:href="#ArialMT-74" x="572.363281"/>
     <use xlink:href="#ArialMT-72" x="600.146484"/>
     <use xlink:href="#ArialMT-69" x="633.447266"/>
     <use xlink:href="#ArialMT-62" x="655.664062"/>
     <use xlink:href="#ArialMT-75" x="711.279297"/>
     <use xlink:href="#ArialMT-74" x="766.894531"/>
     <use xlink:href="#ArialMT-69" x="794.677734"/>
     <use xlink:href="#ArialMT-6f" x="816.894531"/>
     <use xlink:href="#ArialMT-6e" x="872.509766"/>
     <use xlink:href="#ArialMT-20" x="928.125"/>
     <use xlink:href="#ArialMT-6f" x="955.908203"/>
     <use xlink:href="#ArialMT-66" x="1011.523438"/>
     <use xlink:href="#ArialMT-20" x="1039.306641"/>
     <use xlink:href="#ArialMT-74" x="1067.089844"/>
     <use xlink:href="#ArialMT-68" x="1094.873047"/>
     <use xlink:href="#ArialMT-65" x="1150.488281"/>
     <use xlink:href="#ArialMT-20" x="1206.103516"/>
     <use xlink:href="#ArialMT-46" x="1233.886719"/>
     <use xlink:href="#ArialMT-6c" x="1294.970703"/>
     <use xlink:href="#ArialMT-61" x="1317.1875"/>
     <use xlink:href="#ArialMT-6e" x="1372.802734"/>
     <use xlink:href="#ArialMT-6b" x="1428.417969"/>
     <use xlink:href="#ArialMT-65" x="1478.417969"/>
     <use xlink:href="#ArialMT-72" x="1534.033203"/>
     <use xlink:href="#ArialMT-20" x="1567.333984"/>
     <use xlink:href="#ArialMT-45" x="1595.117188"/>
     <use xlink:href="#ArialMT-66" x="1661.816406"/>
     <use xlink:href="#ArialMT-66" x="1687.849609"/>
     <use xlink:href="#ArialMT-65" x="1715.632812"/>
     <use xlink:href="#ArialMT-63" x="1771.248047"/>
     <use xlink:href="#ArialMT-74" x="1821.248047"/>
    </g>
   </g>
  </g>
 </g>
 <defs>
  <clipPath id="p0e54b3c80f">
   <rect x="7.2" y="20.0715" width="558" height="332.64"/>
  </clipPath>
 </defs>
</svg>