<?xml version="1.0" encoding="UTF-8" standalone="no"?>
<!DOCTYPE svg PUBLIC "-//W3C//DTD SVG 1.1//EN"
 "http://www.w3.org/Graphics/SVG/1.1/DTD/svg11.dtd">
<!-- Generated by graphviz version 8.1.0 (0)
 -->
<!-- Pages: 1 -->
<svg width="402pt" height="369pt"
 viewBox="0.00 0.00 402.01 368.95" xmlns="http://www.w3.org/2000/svg" xmlns:xlink="http://www.w3.org/1999/xlink">
<g id="graph0" class="graph" transform="scale(1 1) rotate(0) translate(4 364.95)">
<polygon fill="white" stroke="none" points="-4,4 -4,-364.95 398.01,-364.95 398.01,4 -4,4"/>
<g id="clust1" class="cluster">
<title>clusterobs_id (919)</title>
<path fill="none" stroke="black" d="M20,-8C20,-8 100,-8 100,-8 106,-8 112,-14 112,-20 112,-20 112,-227.73 112,-227.73 112,-233.73 106,-239.73 100,-239.73 100,-239.73 20,-239.73 20,-239.73 14,-239.73 8,-233.73 8,-227.73 8,-227.73 8,-20 8,-20 8,-14 14,-8 20,-8"/>
<text text-anchor="middle" x="69.5" y="-15.2" font-family="Times,serif" font-size="14.00">obs_id (919)</text>
</g>
<g id="clust2" class="cluster">
<title>clustercounty (85)</title>
<path fill="none" stroke="black" d="M258,-129.82C258,-129.82 332,-129.82 332,-129.82 338,-129.82 344,-135.82 344,-141.82 344,-141.82 344,-239.63 344,-239.63 344,-245.63 338,-251.63 332,-251.63 332,-251.63 258,-251.63 258,-251.63 252,-251.63 246,-245.63 246,-239.63 246,-239.63 246,-141.82 246,-141.82 246,-135.82 252,-129.82 258,-129.82"/>
<text text-anchor="middle" x="304.5" y="-137.02" font-family="Times,serif" font-size="14.00">county (85)</text>
</g>
<!-- y_like -->
<g id="node1" class="node">
<title>y_like</title>
<ellipse fill="lightgrey" stroke="black" cx="63" cy="-81.16" rx="41.01" ry="40.66"/>
<text text-anchor="middle" x="63" y="-92.61" font-family="Times,serif" font-size="14.00">y_like</text>
<text text-anchor="middle" x="63" y="-76.11" font-family="Times,serif" font-size="14.00">~</text>
<text text-anchor="middle" x="63" y="-59.61" font-family="Times,serif" font-size="14.00">Normal</text>
</g>
<!-- county_idx -->
<g id="node2" class="node">
<title>county_idx</title>
<path fill="lightgrey" stroke="black" d="M91.62,-231.73C91.62,-231.73 28.38,-231.73 28.38,-231.73 22.38,-231.73 16.38,-225.73 16.38,-219.73 16.38,-219.73 16.38,-186.23 16.38,-186.23 16.38,-180.23 22.38,-174.23 28.38,-174.23 28.38,-174.23 91.62,-174.23 91.62,-174.23 97.62,-174.23 103.62,-180.23 103.62,-186.23 103.62,-186.23 103.62,-219.73 103.62,-219.73 103.62,-225.73 97.62,-231.73 91.62,-231.73"/>
<text text-anchor="middle" x="60" y="-214.43" font-family="Times,serif" font-size="14.00">county_idx</text>
<text text-anchor="middle" x="60" y="-197.93" font-family="Times,serif" font-size="14.00">~</text>
<text text-anchor="middle" x="60" y="-181.43" font-family="Times,serif" font-size="14.00">MutableData</text>
</g>
<!-- county_idx&#45;&gt;y_like -->
<g id="edge5" class="edge">
<title>county_idx&#45;&gt;y_like</title>
<path fill="none" stroke="black" d="M60.7,-173.88C61.01,-161.54 61.39,-146.65 61.74,-132.5"/>
<polygon fill="black" stroke="black" points="65.25,-132.95 62.01,-122.87 58.26,-132.78 65.25,-132.95"/>
</g>
<!-- sigma_a -->
<g id="node3" class="node">
<title>sigma_a</title>
<ellipse fill="none" stroke="black" cx="237" cy="-320.29" rx="57.45" ry="40.66"/>
<text text-anchor="middle" x="237" y="-331.74" font-family="Times,serif" font-size="14.00">sigma_a</text>
<text text-anchor="middle" x="237" y="-315.24" font-family="Times,serif" font-size="14.00">~</text>
<text text-anchor="middle" x="237" y="-298.74" font-family="Times,serif" font-size="14.00">Exponential</text>
</g>
<!-- alpha -->
<g id="node6" class="node">
<title>alpha</title>
<ellipse fill="none" stroke="black" cx="295" cy="-202.98" rx="41.01" ry="40.66"/>
<text text-anchor="middle" x="295" y="-214.43" font-family="Times,serif" font-size="14.00">alpha</text>
<text text-anchor="middle" x="295" y="-197.93" font-family="Times,serif" font-size="14.00">~</text>
<text text-anchor="middle" x="295" y="-181.43" font-family="Times,serif" font-size="14.00">Normal</text>
</g>
<!-- sigma_a&#45;&gt;alpha -->
<g id="edge1" class="edge">
<title>sigma_a&#45;&gt;alpha</title>
<path fill="none" stroke="black" d="M255.99,-281.53C261.15,-271.27 266.79,-260.06 272.14,-249.42"/>
<polygon fill="black" stroke="black" points="275.58,-251.37 276.95,-240.86 269.33,-248.22 275.58,-251.37"/>
</g>
<!-- sigma_y -->
<g id="node4" class="node">
<title>sigma_y</title>
<ellipse fill="none" stroke="black" cx="179" cy="-202.98" rx="57.45" ry="40.66"/>
<text text-anchor="middle" x="179" y="-214.43" font-family="Times,serif" font-size="14.00">sigma_y</text>
<text text-anchor="middle" x="179" y="-197.93" font-family="Times,serif" font-size="14.00">~</text>
<text text-anchor="middle" x="179" y="-181.43" font-family="Times,serif" font-size="14.00">Exponential</text>
</g>
<!-- sigma_y&#45;&gt;y_like -->
<g id="edge3" class="edge">
<title>sigma_y&#45;&gt;y_like</title>
<path fill="none" stroke="black" d="M150.33,-167.44C139.84,-155.26 127.67,-141.66 116,-129.82 111.38,-125.13 106.4,-120.34 101.4,-115.68"/>
<polygon fill="black" stroke="black" points="104.31,-113.69 94.58,-109.51 99.58,-118.85 104.31,-113.69"/>
</g>
<!-- mu_a -->
<g id="node5" class="node">
<title>mu_a</title>
<ellipse fill="none" stroke="black" cx="353" cy="-320.29" rx="41.01" ry="40.66"/>
<text text-anchor="middle" x="353" y="-331.74" font-family="Times,serif" font-size="14.00">mu_a</text>
<text text-anchor="middle" x="353" y="-315.24" font-family="Times,serif" font-size="14.00">~</text>
<text text-anchor="middle" x="353" y="-298.74" font-family="Times,serif" font-size="14.00">Normal</text>
</g>
<!-- mu_a&#45;&gt;alpha -->
<g id="edge2" class="edge">
<title>mu_a&#45;&gt;alpha</title>
<path fill="none" stroke="black" d="M334.97,-283.44C329.57,-272.7 323.57,-260.78 317.9,-249.5"/>
<polygon fill="black" stroke="black" points="320.64,-248.17 313.02,-240.81 314.39,-251.32 320.64,-248.17"/>
</g>
<!-- alpha&#45;&gt;y_like -->
<g id="edge4" class="edge">
<title>alpha&#45;&gt;y_like</title>
<path fill="none" stroke="black" d="M277.25,-166.23C269.09,-153.04 258.24,-139.08 245,-129.82 206.35,-102.78 153.38,-91.08 114.56,-86.02"/>
<polygon fill="black" stroke="black" points="115.35,-82.47 105,-84.76 114.52,-89.42 115.35,-82.47"/>
</g>
</g>
</svg>