<?xml version="1.0" encoding="UTF-8" standalone="no"?>
<!DOCTYPE svg PUBLIC "-//W3C//DTD SVG 1.1//EN"
 "http://www.w3.org/Graphics/SVG/1.1/DTD/svg11.dtd">
<!-- Generated by graphviz version 9.0.0 (0)
 -->
<!-- Pages: 1 -->
<svg width="324pt" height="247pt"
 viewBox="0.00 0.00 323.99 247.13" xmlns="http://www.w3.org/2000/svg" xmlns:xlink="http://www.w3.org/1999/xlink">
<g id="graph0" class="graph" transform="scale(1 1) rotate(0) translate(4 243.13)">
<polygon fill="white" stroke="none" points="-4,4 -4,-243.13 319.99,-243.13 319.99,4 -4,4"/>
<g id="clust1" class="cluster">
<title>cluster434</title>
<path fill="none" stroke="black" d="M104.01,-8C104.01,-8 178.01,-8 178.01,-8 184.01,-8 190.01,-14 190.01,-20 190.01,-20 190.01,-117.82 190.01,-117.82 190.01,-123.82 184.01,-129.82 178.01,-129.82 178.01,-129.82 104.01,-129.82 104.01,-129.82 98.01,-129.82 92.01,-123.82 92.01,-117.82 92.01,-117.82 92.01,-20 92.01,-20 92.01,-14 98.01,-8 104.01,-8"/>
<text text-anchor="middle" x="171.89" y="-15.2" font-family="Times,serif" font-size="14.00">434</text>
</g>
<!-- beta -->
<g id="node1" class="node">
<title>beta</title>
<ellipse fill="none" stroke="black" cx="41.01" cy="-198.48" rx="41.01" ry="40.66"/>
<text text-anchor="middle" x="41.01" y="-209.93" font-family="Times,serif" font-size="14.00">beta</text>
<text text-anchor="middle" x="41.01" y="-193.43" font-family="Times,serif" font-size="14.00">~</text>
<text text-anchor="middle" x="41.01" y="-176.93" font-family="Times,serif" font-size="14.00">Normal</text>
</g>
<!-- Y_obs -->
<g id="node4" class="node">
<title>Y_obs</title>
<ellipse fill="lightgrey" stroke="black" cx="141.01" cy="-81.16" rx="41.01" ry="40.66"/>
<text text-anchor="middle" x="141.01" y="-92.61" font-family="Times,serif" font-size="14.00">Y_obs</text>
<text text-anchor="middle" x="141.01" y="-76.11" font-family="Times,serif" font-size="14.00">~</text>
<text text-anchor="middle" x="141.01" y="-59.61" font-family="Times,serif" font-size="14.00">Normal</text>
</g>
<!-- beta&#45;&gt;Y_obs -->
<g id="edge1" class="edge">
<title>beta&#45;&gt;Y_obs</title>
<path fill="none" stroke="black" d="M67.55,-166.88C79.74,-152.82 94.33,-135.99 107.29,-121.05"/>
<polygon fill="black" stroke="black" points="109.8,-123.49 113.71,-113.65 104.51,-118.91 109.8,-123.49"/>
</g>
<!-- alpha -->
<g id="node2" class="node">
<title>alpha</title>
<ellipse fill="none" stroke="black" cx="141.01" cy="-198.48" rx="41.01" ry="40.66"/>
<text text-anchor="middle" x="141.01" y="-209.93" font-family="Times,serif" font-size="14.00">alpha</text>
<text text-anchor="middle" x="141.01" y="-193.43" font-family="Times,serif" font-size="14.00">~</text>
<text text-anchor="middle" x="141.01" y="-176.93" font-family="Times,serif" font-size="14.00">Normal</text>
</g>
<!-- alpha&#45;&gt;Y_obs -->
<g id="edge2" class="edge">
<title>alpha&#45;&gt;Y_obs</title>
<path fill="none" stroke="black" d="M141.01,-157.47C141.01,-149.69 141.01,-141.43 141.01,-133.34"/>
<polygon fill="black" stroke="black" points="144.51,-133.61 141.01,-123.61 137.51,-133.61 144.51,-133.61"/>
</g>
<!-- sigma -->
<g id="node3" class="node">
<title>sigma</title>
<ellipse fill="none" stroke="black" cx="258.01" cy="-198.48" rx="57.98" ry="40.66"/>
<text text-anchor="middle" x="258.01" y="-209.93" font-family="Times,serif" font-size="14.00">sigma</text>
<text text-anchor="middle" x="258.01" y="-193.43" font-family="Times,serif" font-size="14.00">~</text>
<text text-anchor="middle" x="258.01" y="-176.93" font-family="Times,serif" font-size="14.00">HalfNormal</text>
</g>
<!-- sigma&#45;&gt;Y_obs -->
<g id="edge3" class="edge">
<title>sigma&#45;&gt;Y_obs</title>
<path fill="none" stroke="black" d="M224.8,-164.74C210.2,-150.36 193.01,-133.41 178.01,-118.63"/>
<polygon fill="black" stroke="black" points="180.59,-116.25 171.01,-111.73 175.68,-121.24 180.59,-116.25"/>
</g>
</g>
</svg>