<?xml version="1.0" encoding="UTF-8" standalone="no"?>
<!DOCTYPE svg PUBLIC "-//W3C//DTD SVG 1.1//EN"
 "http://www.w3.org/Graphics/SVG/1.1/DTD/svg11.dtd">
<!-- Generated by graphviz version 9.0.0 (0)
 -->
<!-- Pages: 1 -->
<svg width="256pt" height="116pt"
 viewBox="0.00 0.00 255.86 116.00" xmlns="http://www.w3.org/2000/svg" xmlns:xlink="http://www.w3.org/1999/xlink">
<g id="graph0" class="graph" transform="scale(1 1) rotate(0) translate(4 112)">
<polygon fill="white" stroke="none" points="-4,4 -4,-112 251.86,-112 251.86,4 -4,4"/>
<!-- Istruzione -->
<g id="node1" class="node">
<title>Istruzione</title>
<ellipse fill="none" stroke="black" cx="47.77" cy="-18" rx="47.77" ry="18"/>
<text text-anchor="middle" x="47.77" y="-12.95" font-family="Times,serif" font-size="14.00">Istruzione</text>
</g>
<!-- Reddito -->
<g id="node2" class="node">
<title>Reddito</title>
<ellipse fill="none" stroke="black" cx="207.77" cy="-18" rx="40.09" ry="18"/>
<text text-anchor="middle" x="207.77" y="-12.95" font-family="Times,serif" font-size="14.00">Reddito</text>
</g>
<!-- Istruzione&#45;&gt;Reddito -->
<g id="edge3" class="edge">
<title>Istruzione&#45;&gt;Reddito</title>
<path fill="none" stroke="black" d="M95.89,-18C115.96,-18 136.02,-18 156.09,-18"/>
<polygon fill="black" stroke="black" points="156.05,-21.5 166.05,-18 156.05,-14.5 156.05,-21.5"/>
</g>
<!-- Intelligenza -->
<g id="node3" class="node">
<title>Intelligenza</title>
<ellipse fill="none" stroke="black" cx="127.77" cy="-90" rx="54.42" ry="18"/>
<text text-anchor="middle" x="127.77" y="-84.95" font-family="Times,serif" font-size="14.00">Intelligenza</text>
</g>
<!-- Intelligenza&#45;&gt;Istruzione -->
<g id="edge1" class="edge">
<title>Intelligenza&#45;&gt;Istruzione</title>
<path fill="none" stroke="black" d="M109.21,-72.76C98.84,-63.69 85.74,-52.22 74.3,-42.21"/>
<polygon fill="black" stroke="black" points="76.92,-39.85 67.09,-35.9 72.31,-45.12 76.92,-39.85"/>
</g>
<!-- Intelligenza&#45;&gt;Reddito -->
<g id="edge2" class="edge">
<title>Intelligenza&#45;&gt;Reddito</title>
<path fill="none" stroke="black" d="M146.32,-72.76C156.84,-63.56 170.17,-51.9 181.73,-41.79"/>
<polygon fill="black" stroke="black" points="183.78,-44.64 189,-35.42 179.17,-39.37 183.78,-44.64"/>
</g>
</g>
</svg>