<?xml version="1.0" encoding="UTF-8" standalone="no"?>
<!DOCTYPE svg PUBLIC "-//W3C//DTD SVG 1.1//EN"
 "http://www.w3.org/Graphics/SVG/1.1/DTD/svg11.dtd">
<!-- Generated by graphviz version 9.0.0 (0)
 -->
<!-- Pages: 1 -->
<svg width="324pt" height="247pt"
 viewBox="0.00 0.00 323.99 247.13" xmlns="http://www.w3.org/2000/svg" xmlns:xlink="http://www.w3.org/1999/xlink">
<g id="graph0" class="graph" transform="scale(1 1) rotate(0) translate(4 243.13)">
<polygon fill="white" stroke="none" points="-4,4 -4,-243.13 319.99,-243.13 319.99,4 -4,4"/>
<g id="clust1" class="cluster">
<title>cluster200</title>
<path fill="none" stroke="black" d="M137.98,-8C137.98,-8 211.98,-8 211.98,-8 217.98,-8 223.98,-14 223.98,-20 223.98,-20 223.98,-117.82 223.98,-117.82 223.98,-123.82 217.98,-129.82 211.98,-129.82 211.98,-129.82 137.98,-129.82 137.98,-129.82 131.98,-129.82 125.98,-123.82 125.98,-117.82 125.98,-117.82 125.98,-20 125.98,-20 125.98,-14 131.98,-8 137.98,-8"/>
<text text-anchor="middle" x="205.86" y="-15.2" font-family="Times,serif" font-size="14.00">200</text>
</g>
<!-- sigma -->
<g id="node1" class="node">
<title>sigma</title>
<ellipse fill="none" stroke="black" cx="57.98" cy="-198.48" rx="57.98" ry="40.66"/>
<text text-anchor="middle" x="57.98" y="-209.93" font-family="Times,serif" font-size="14.00">sigma</text>
<text text-anchor="middle" x="57.98" y="-193.43" font-family="Times,serif" font-size="14.00">~</text>
<text text-anchor="middle" x="57.98" y="-176.93" font-family="Times,serif" font-size="14.00">HalfNormal</text>
</g>
<!-- y_obs -->
<g id="node4" class="node">
<title>y_obs</title>
<ellipse fill="lightgrey" stroke="black" cx="174.98" cy="-81.16" rx="41.01" ry="40.66"/>
<text text-anchor="middle" x="174.98" y="-92.61" font-family="Times,serif" font-size="14.00">y_obs</text>
<text text-anchor="middle" x="174.98" y="-76.11" font-family="Times,serif" font-size="14.00">~</text>
<text text-anchor="middle" x="174.98" y="-59.61" font-family="Times,serif" font-size="14.00">Normal</text>
</g>
<!-- sigma&#45;&gt;y_obs -->
<g id="edge1" class="edge">
<title>sigma&#45;&gt;y_obs</title>
<path fill="none" stroke="black" d="M91.2,-164.74C105.79,-150.36 122.98,-133.41 137.98,-118.63"/>
<polygon fill="black" stroke="black" points="140.32,-121.24 144.98,-111.73 135.4,-116.25 140.32,-121.24"/>
</g>
<!-- alpha -->
<g id="node2" class="node">
<title>alpha</title>
<ellipse fill="none" stroke="black" cx="174.98" cy="-198.48" rx="41.01" ry="40.66"/>
<text text-anchor="middle" x="174.98" y="-209.93" font-family="Times,serif" font-size="14.00">alpha</text>
<text text-anchor="middle" x="174.98" y="-193.43" font-family="Times,serif" font-size="14.00">~</text>
<text text-anchor="middle" x="174.98" y="-176.93" font-family="Times,serif" font-size="14.00">Normal</text>
</g>
<!-- alpha&#45;&gt;y_obs -->
<g id="edge2" class="edge">
<title>alpha&#45;&gt;y_obs</title>
<path fill="none" stroke="black" d="M174.98,-157.47C174.98,-149.69 174.98,-141.43 174.98,-133.34"/>
<polygon fill="black" stroke="black" points="178.48,-133.61 174.98,-123.61 171.48,-133.61 178.48,-133.61"/>
</g>
<!-- beta -->
<g id="node3" class="node">
<title>beta</title>
<ellipse fill="none" stroke="black" cx="274.98" cy="-198.48" rx="41.01" ry="40.66"/>
<text text-anchor="middle" x="274.98" y="-209.93" font-family="Times,serif" font-size="14.00">beta</text>
<text text-anchor="middle" x="274.98" y="-193.43" font-family="Times,serif" font-size="14.00">~</text>
<text text-anchor="middle" x="274.98" y="-176.93" font-family="Times,serif" font-size="14.00">Normal</text>
</g>
<!-- beta&#45;&gt;y_obs -->
<g id="edge3" class="edge">
<title>beta&#45;&gt;y_obs</title>
<path fill="none" stroke="black" d="M248.45,-166.88C236.26,-152.82 221.66,-135.99 208.71,-121.05"/>
<polygon fill="black" stroke="black" points="211.48,-118.91 202.29,-113.65 206.19,-123.49 211.48,-118.91"/>
</g>
</g>
</svg>