<?xml version="1.0" encoding="UTF-8" standalone="no"?>
<!DOCTYPE svg PUBLIC "-//W3C//DTD SVG 1.1//EN"
 "http://www.w3.org/Graphics/SVG/1.1/DTD/svg11.dtd">
<!-- Generated by graphviz version 9.0.0 (0)
 -->
<!-- Pages: 1 -->
<svg width="571pt" height="361pt"
 viewBox="0.00 0.00 571.00 361.13" xmlns="http://www.w3.org/2000/svg" xmlns:xlink="http://www.w3.org/1999/xlink">
<g id="graph0" class="graph" transform="scale(1 1) rotate(0) translate(4 357.13)">
<polygon fill="white" stroke="none" points="-4,4 -4,-357.13 567,-357.13 567,4 -4,4"/>
<g id="clust1" class="cluster">
<title>clustergroup (5)</title>
<path fill="none" stroke="black" d="M237,-223.32C237,-223.32 543,-223.32 543,-223.32 549,-223.32 555,-229.32 555,-235.32 555,-235.32 555,-333.13 555,-333.13 555,-339.13 549,-345.13 543,-345.13 543,-345.13 237,-345.13 237,-345.13 231,-345.13 225,-339.13 225,-333.13 225,-333.13 225,-235.32 225,-235.32 225,-229.32 231,-223.32 237,-223.32"/>
<text text-anchor="middle" x="521.5" y="-230.52" font-family="Times,serif" font-size="14.00">group (5)</text>
</g>
<g id="clust2" class="cluster">
<title>clusterobs_id (100)</title>
<path fill="none" stroke="black" d="M20,-8C20,-8 205,-8 205,-8 211,-8 217,-14 217,-20 217,-20 217,-321.23 217,-321.23 217,-327.23 211,-333.23 205,-333.23 205,-333.23 20,-333.23 20,-333.23 14,-333.23 8,-327.23 8,-321.23 8,-321.23 8,-20 8,-20 8,-14 14,-8 20,-8"/>
<text text-anchor="middle" x="174.5" y="-15.2" font-family="Times,serif" font-size="14.00">obs_id (100)</text>
</g>
<!-- β1 -->
<g id="node1" class="node">
<title>β1</title>
<ellipse fill="none" stroke="black" cx="374" cy="-296.48" rx="41.01" ry="40.66"/>
<text text-anchor="middle" x="374" y="-307.93" font-family="Times,serif" font-size="14.00">β1</text>
<text text-anchor="middle" x="374" y="-291.43" font-family="Times,serif" font-size="14.00">~</text>
<text text-anchor="middle" x="374" y="-274.93" font-family="Times,serif" font-size="14.00">Normal</text>
</g>
<!-- μ -->
<g id="node7" class="node">
<title>μ</title>
<polygon fill="none" stroke="black" points="209.12,-215.32 118.88,-215.32 118.88,-157.82 209.12,-157.82 209.12,-215.32"/>
<text text-anchor="middle" x="164" y="-198.02" font-family="Times,serif" font-size="14.00">μ</text>
<text text-anchor="middle" x="164" y="-181.52" font-family="Times,serif" font-size="14.00">~</text>
<text text-anchor="middle" x="164" y="-165.02" font-family="Times,serif" font-size="14.00">Deterministic</text>
</g>
<!-- β1&#45;&gt;μ -->
<g id="edge2" class="edge">
<title>β1&#45;&gt;μ</title>
<path fill="none" stroke="black" d="M356.42,-259.48C348.28,-246.26 337.4,-232.34 324,-223.32 293.58,-202.85 253.27,-193.93 220.71,-190.11"/>
<polygon fill="black" stroke="black" points="221.36,-186.66 211.06,-189.12 220.65,-193.63 221.36,-186.66"/>
</g>
<!-- sigma -->
<g id="node2" class="node">
<title>sigma</title>
<ellipse fill="none" stroke="black" cx="490" cy="-296.48" rx="57.45" ry="40.66"/>
<text text-anchor="middle" x="490" y="-307.93" font-family="Times,serif" font-size="14.00">sigma</text>
<text text-anchor="middle" x="490" y="-291.43" font-family="Times,serif" font-size="14.00">~</text>
<text text-anchor="middle" x="490" y="-274.93" font-family="Times,serif" font-size="14.00">HalfCauchy</text>
</g>
<!-- y -->
<g id="node4" class="node">
<title>y</title>
<ellipse fill="lightgrey" stroke="black" cx="164" cy="-81.16" rx="41.01" ry="40.66"/>
<text text-anchor="middle" x="164" y="-92.61" font-family="Times,serif" font-size="14.00">y</text>
<text text-anchor="middle" x="164" y="-76.11" font-family="Times,serif" font-size="14.00">~</text>
<text text-anchor="middle" x="164" y="-59.61" font-family="Times,serif" font-size="14.00">Normal</text>
</g>
<!-- sigma&#45;&gt;y -->
<g id="edge5" class="edge">
<title>sigma&#45;&gt;y</title>
<path fill="none" stroke="black" d="M462.22,-260.5C451.15,-247.87 437.77,-234.09 424,-223.32 356.48,-170.52 266.51,-126.57 212.05,-102.37"/>
<polygon fill="black" stroke="black" points="213.59,-99.23 203.03,-98.41 210.78,-105.64 213.59,-99.23"/>
</g>
<!-- β0 -->
<g id="node3" class="node">
<title>β0</title>
<ellipse fill="none" stroke="black" cx="274" cy="-296.48" rx="41.01" ry="40.66"/>
<text text-anchor="middle" x="274" y="-307.93" font-family="Times,serif" font-size="14.00">β0</text>
<text text-anchor="middle" x="274" y="-291.43" font-family="Times,serif" font-size="14.00">~</text>
<text text-anchor="middle" x="274" y="-274.93" font-family="Times,serif" font-size="14.00">Normal</text>
</g>
<!-- β0&#45;&gt;μ -->
<g id="edge1" class="edge">
<title>β0&#45;&gt;μ</title>
<path fill="none" stroke="black" d="M252.91,-261.37C244.02,-248.56 232.96,-234.43 221,-223.32 220.1,-222.48 219.18,-221.66 218.24,-220.84"/>
<polygon fill="black" stroke="black" points="220.55,-218.2 210.55,-214.69 216.18,-223.67 220.55,-218.2"/>
</g>
<!-- x -->
<g id="node5" class="node">
<title>x</title>
<path fill="lightgrey" stroke="black" d="M196.62,-325.23C196.62,-325.23 133.38,-325.23 133.38,-325.23 127.38,-325.23 121.38,-319.23 121.38,-313.23 121.38,-313.23 121.38,-279.73 121.38,-279.73 121.38,-273.73 127.38,-267.73 133.38,-267.73 133.38,-267.73 196.62,-267.73 196.62,-267.73 202.62,-267.73 208.62,-273.73 208.62,-279.73 208.62,-279.73 208.62,-313.23 208.62,-313.23 208.62,-319.23 202.62,-325.23 196.62,-325.23"/>
<text text-anchor="middle" x="165" y="-307.93" font-family="Times,serif" font-size="14.00">x</text>
<text text-anchor="middle" x="165" y="-291.43" font-family="Times,serif" font-size="14.00">~</text>
<text text-anchor="middle" x="165" y="-274.93" font-family="Times,serif" font-size="14.00">MutableData</text>
</g>
<!-- x&#45;&gt;μ -->
<g id="edge3" class="edge">
<title>x&#45;&gt;μ</title>
<path fill="none" stroke="black" d="M164.74,-267.41C164.63,-255.04 164.49,-240.3 164.36,-226.87"/>
<polygon fill="black" stroke="black" points="167.87,-226.98 164.27,-217.01 160.87,-227.04 167.87,-226.98"/>
</g>
<!-- g -->
<g id="node6" class="node">
<title>g</title>
<path fill="lightgrey" stroke="black" d="M91.62,-325.23C91.62,-325.23 28.38,-325.23 28.38,-325.23 22.38,-325.23 16.38,-319.23 16.38,-313.23 16.38,-313.23 16.38,-279.73 16.38,-279.73 16.38,-273.73 22.38,-267.73 28.38,-267.73 28.38,-267.73 91.62,-267.73 91.62,-267.73 97.62,-267.73 103.62,-273.73 103.62,-279.73 103.62,-279.73 103.62,-313.23 103.62,-313.23 103.62,-319.23 97.62,-325.23 91.62,-325.23"/>
<text text-anchor="middle" x="60" y="-307.93" font-family="Times,serif" font-size="14.00">g</text>
<text text-anchor="middle" x="60" y="-291.43" font-family="Times,serif" font-size="14.00">~</text>
<text text-anchor="middle" x="60" y="-274.93" font-family="Times,serif" font-size="14.00">MutableData</text>
</g>
<!-- g&#45;&gt;y -->
<g id="edge6" class="edge">
<title>g&#45;&gt;y</title>
<path fill="none" stroke="black" d="M67.75,-267.38C76.17,-238.88 91.01,-193.94 110,-157.82 116.22,-146 124.06,-133.91 131.82,-122.97"/>
<polygon fill="black" stroke="black" points="134.64,-125.05 137.69,-114.91 128.98,-120.93 134.64,-125.05"/>
</g>
<!-- g&#45;&gt;μ -->
<g id="edge4" class="edge">
<title>g&#45;&gt;μ</title>
<path fill="none" stroke="black" d="M76.99,-267.34C85.06,-255.09 95.42,-240.81 112.29,-223.75"/>
<polygon fill="black" stroke="black" points="114.72,-226.27 119.43,-216.77 109.83,-221.26 114.72,-226.27"/>
</g>
<!-- μ&#45;&gt;y -->
<g id="edge7" class="edge">
<title>μ&#45;&gt;y</title>
<path fill="none" stroke="black" d="M164,-157.58C164,-150.1 164,-141.77 164,-133.45"/>
<polygon fill="black" stroke="black" points="167.5,-133.71 164,-123.71 160.5,-133.71 167.5,-133.71"/>
</g>
</g>
</svg>