<?xml version="1.0" encoding="utf-8" standalone="no"?>
<!DOCTYPE svg PUBLIC "-//W3C//DTD SVG 1.1//EN"
  "http://www.w3.org/Graphics/SVG/1.1/DTD/svg11.dtd">
<svg xmlns:xlink="http://www.w3.org/1999/xlink" width="1298.583463pt" height="424.355375pt" viewBox="0 0 1298.583463 424.355375" xmlns="http://www.w3.org/2000/svg" version="1.1">
 <metadata>
  <rdf:RDF xmlns:dc="http://purl.org/dc/elements/1.1/" xmlns:cc="http://creativecommons.org/ns#" xmlns:rdf="http://www.w3.org/1999/02/22-rdf-syntax-ns#">
   <cc:Work>
    <dc:type rdf:resource="http://purl.org/dc/dcmitype/StillImage"/>
    <dc:date>2023-07-22T13:17:22.701391</dc:date>
    <dc:format>image/svg+xml</dc:format>
    <dc:creator>
     <cc:Agent>
      <dc:title>Matplotlib v3.7.1, https://matplotlib.org/</dc:title>
     </cc:Agent>
    </dc:creator>
   </cc:Work>
  </rdf:RDF>
 </metadata>
 <defs>
  <style type="text/css">*{stroke-linejoin: round; stroke-linecap: butt}</style>
 </defs>
 <g id="figure_1">
  <g id="patch_1">
   <path d="M 0 424.355375 
L 1298.583463 424.355375 
L 1298.583463 0 
L 0 0 
z
" style="fill: #ffffff"/>
  </g>
  <g id="axes_1">
   <g id="patch_2">
    <path d="M 7.983463 402.6075 
L 591.3471 402.6075 
L 591.3471 20.0715 
L 7.983463 20.0715 
z
" style="fill: #eaeaf2"/>
   </g>
   <g id="matplotlib.axis_1">
    <g id="xtick_1">
     <g id="line2d_1">
      <path d="M 18.209625 402.6075 
L 18.209625 20.0715 
" clip-path="url(#p2375f36c2f)" style="fill: none; stroke: #ffffff; stroke-width: 0.8; stroke-linecap: round"/>
     </g>
     <g id="line2d_2">
      <defs>
       <path id="mab956385c6" d="M 0 0 
L 0 3 
" style="stroke: #808080"/>
      </defs>
      <g>
       <use xlink:href="#mab956385c6" x="18.209625" y="402.6075" style="fill: #808080; stroke: #808080"/>
      </g>
     </g>
     <g id="text_1">
      <!-- 0.030 -->
      <g style="fill: #262626" transform="translate(7.2 415.406375) scale(0.088 -0.088)">
       <defs>
        <path id="ArialMT-30" d="M 266 2259 
Q 266 3072 433 3567 
Q 600 4063 929 4331 
Q 1259 4600 1759 4600 
Q 2128 4600 2406 4451 
Q 2684 4303 2865 4023 
Q 3047 3744 3150 3342 
Q 3253 2941 3253 2259 
Q 3253 1453 3087 958 
Q 2922 463 2592 192 
Q 2263 -78 1759 -78 
Q 1097 -78 719 397 
Q 266 969 266 2259 
z
M 844 2259 
Q 844 1131 1108 757 
Q 1372 384 1759 384 
Q 2147 384 2411 759 
Q 2675 1134 2675 2259 
Q 2675 3391 2411 3762 
Q 2147 4134 1753 4134 
Q 1366 4134 1134 3806 
Q 844 3388 844 2259 
z
" transform="scale(0.015625)"/>
        <path id="ArialMT-2e" d="M 581 0 
L 581 641 
L 1222 641 
L 1222 0 
L 581 0 
z
" transform="scale(0.015625)"/>
        <path id="ArialMT-33" d="M 269 1209 
L 831 1284 
Q 928 806 1161 595 
Q 1394 384 1728 384 
Q 2125 384 2398 659 
Q 2672 934 2672 1341 
Q 2672 1728 2419 1979 
Q 2166 2231 1775 2231 
Q 1616 2231 1378 2169 
L 1441 2663 
Q 1497 2656 1531 2656 
Q 1891 2656 2178 2843 
Q 2466 3031 2466 3422 
Q 2466 3731 2256 3934 
Q 2047 4138 1716 4138 
Q 1388 4138 1169 3931 
Q 950 3725 888 3313 
L 325 3413 
Q 428 3978 793 4289 
Q 1159 4600 1703 4600 
Q 2078 4600 2393 4439 
Q 2709 4278 2876 4000 
Q 3044 3722 3044 3409 
Q 3044 3113 2884 2869 
Q 2725 2625 2413 2481 
Q 2819 2388 3044 2092 
Q 3269 1797 3269 1353 
Q 3269 753 2831 336 
Q 2394 -81 1725 -81 
Q 1122 -81 723 278 
Q 325 638 269 1209 
z
" transform="scale(0.015625)"/>
       </defs>
       <use xlink:href="#ArialMT-30"/>
       <use xlink:href="#ArialMT-2e" x="55.615234"/>
       <use xlink:href="#ArialMT-30" x="83.398438"/>
       <use xlink:href="#ArialMT-33" x="139.013672"/>
       <use xlink:href="#ArialMT-30" x="194.628906"/>
      </g>
     </g>
    </g>
    <g id="xtick_2">
     <g id="line2d_3">
      <path d="M 93.031645 402.6075 
L 93.031645 20.0715 
" clip-path="url(#p2375f36c2f)" style="fill: none; stroke: #ffffff; stroke-width: 0.8; stroke-linecap: round"/>
     </g>
     <g id="line2d_4">
      <g>
       <use xlink:href="#mab956385c6" x="93.031645" y="402.6075" style="fill: #808080; stroke: #808080"/>
      </g>
     </g>
     <g id="text_2">
      <!-- 0.035 -->
      <g style="fill: #262626" transform="translate(82.02202 415.406375) scale(0.088 -0.088)">
       <defs>
        <path id="ArialMT-35" d="M 266 1200 
L 856 1250 
Q 922 819 1161 601 
Q 1400 384 1738 384 
Q 2144 384 2425 690 
Q 2706 997 2706 1503 
Q 2706 1984 2436 2262 
Q 2166 2541 1728 2541 
Q 1456 2541 1237 2417 
Q 1019 2294 894 2097 
L 366 2166 
L 809 4519 
L 3088 4519 
L 3088 3981 
L 1259 3981 
L 1013 2750 
Q 1425 3038 1878 3038 
Q 2478 3038 2890 2622 
Q 3303 2206 3303 1553 
Q 3303 931 2941 478 
Q 2500 -78 1738 -78 
Q 1113 -78 717 272 
Q 322 622 266 1200 
z
" transform="scale(0.015625)"/>
       </defs>
       <use xlink:href="#ArialMT-30"/>
       <use xlink:href="#ArialMT-2e" x="55.615234"/>
       <use xlink:href="#ArialMT-30" x="83.398438"/>
       <use xlink:href="#ArialMT-33" x="139.013672"/>
       <use xlink:href="#ArialMT-35" x="194.628906"/>
      </g>
     </g>
    </g>
    <g id="xtick_3">
     <g id="line2d_5">
      <path d="M 167.853665 402.6075 
L 167.853665 20.0715 
" clip-path="url(#p2375f36c2f)" style="fill: none; stroke: #ffffff; stroke-width: 0.8; stroke-linecap: round"/>
     </g>
     <g id="line2d_6">
      <g>
       <use xlink:href="#mab956385c6" x="167.853665" y="402.6075" style="fill: #808080; stroke: #808080"/>
      </g>
     </g>
     <g id="text_3">
      <!-- 0.040 -->
      <g style="fill: #262626" transform="translate(156.84404 415.406375) scale(0.088 -0.088)">
       <defs>
        <path id="ArialMT-34" d="M 2069 0 
L 2069 1097 
L 81 1097 
L 81 1613 
L 2172 4581 
L 2631 4581 
L 2631 1613 
L 3250 1613 
L 3250 1097 
L 2631 1097 
L 2631 0 
L 2069 0 
z
M 2069 1613 
L 2069 3678 
L 634 1613 
L 2069 1613 
z
" transform="scale(0.015625)"/>
       </defs>
       <use xlink:href="#ArialMT-30"/>
       <use xlink:href="#ArialMT-2e" x="55.615234"/>
       <use xlink:href="#ArialMT-30" x="83.398438"/>
       <use xlink:href="#ArialMT-34" x="139.013672"/>
       <use xlink:href="#ArialMT-30" x="194.628906"/>
      </g>
     </g>
    </g>
    <g id="xtick_4">
     <g id="line2d_7">
      <path d="M 242.675684 402.6075 
L 242.675684 20.0715 
" clip-path="url(#p2375f36c2f)" style="fill: none; stroke: #ffffff; stroke-width: 0.8; stroke-linecap: round"/>
     </g>
     <g id="line2d_8">
      <g>
       <use xlink:href="#mab956385c6" x="242.675684" y="402.6075" style="fill: #808080; stroke: #808080"/>
      </g>
     </g>
     <g id="text_4">
      <!-- 0.045 -->
      <g style="fill: #262626" transform="translate(231.666059 415.406375) scale(0.088 -0.088)">
       <use xlink:href="#ArialMT-30"/>
       <use xlink:href="#ArialMT-2e" x="55.615234"/>
       <use xlink:href="#ArialMT-30" x="83.398438"/>
       <use xlink:href="#ArialMT-34" x="139.013672"/>
       <use xlink:href="#ArialMT-35" x="194.628906"/>
      </g>
     </g>
    </g>
    <g id="xtick_5">
     <g id="line2d_9">
      <path d="M 317.497704 402.6075 
L 317.497704 20.0715 
" clip-path="url(#p2375f36c2f)" style="fill: none; stroke: #ffffff; stroke-width: 0.8; stroke-linecap: round"/>
     </g>
     <g id="line2d_10">
      <g>
       <use xlink:href="#mab956385c6" x="317.497704" y="402.6075" style="fill: #808080; stroke: #808080"/>
      </g>
     </g>
     <g id="text_5">
      <!-- 0.050 -->
      <g style="fill: #262626" transform="translate(306.488079 415.406375) scale(0.088 -0.088)">
       <use xlink:href="#ArialMT-30"/>
       <use xlink:href="#ArialMT-2e" x="55.615234"/>
       <use xlink:href="#ArialMT-30" x="83.398438"/>
       <use xlink:href="#ArialMT-35" x="139.013672"/>
       <use xlink:href="#ArialMT-30" x="194.628906"/>
      </g>
     </g>
    </g>
    <g id="xtick_6">
     <g id="line2d_11">
      <path d="M 392.319724 402.6075 
L 392.319724 20.0715 
" clip-path="url(#p2375f36c2f)" style="fill: none; stroke: #ffffff; stroke-width: 0.8; stroke-linecap: round"/>
     </g>
     <g id="line2d_12">
      <g>
       <use xlink:href="#mab956385c6" x="392.319724" y="402.6075" style="fill: #808080; stroke: #808080"/>
      </g>
     </g>
     <g id="text_6">
      <!-- 0.055 -->
      <g style="fill: #262626" transform="translate(381.310099 415.406375) scale(0.088 -0.088)">
       <use xlink:href="#ArialMT-30"/>
       <use xlink:href="#ArialMT-2e" x="55.615234"/>
       <use xlink:href="#ArialMT-30" x="83.398438"/>
       <use xlink:href="#ArialMT-35" x="139.013672"/>
       <use xlink:href="#ArialMT-35" x="194.628906"/>
      </g>
     </g>
    </g>
    <g id="xtick_7">
     <g id="line2d_13">
      <path d="M 467.141744 402.6075 
L 467.141744 20.0715 
" clip-path="url(#p2375f36c2f)" style="fill: none; stroke: #ffffff; stroke-width: 0.8; stroke-linecap: round"/>
     </g>
     <g id="line2d_14">
      <g>
       <use xlink:href="#mab956385c6" x="467.141744" y="402.6075" style="fill: #808080; stroke: #808080"/>
      </g>
     </g>
     <g id="text_7">
      <!-- 0.060 -->
      <g style="fill: #262626" transform="translate(456.132119 415.406375) scale(0.088 -0.088)">
       <defs>
        <path id="ArialMT-36" d="M 3184 3459 
L 2625 3416 
Q 2550 3747 2413 3897 
Q 2184 4138 1850 4138 
Q 1581 4138 1378 3988 
Q 1113 3794 959 3422 
Q 806 3050 800 2363 
Q 1003 2672 1297 2822 
Q 1591 2972 1913 2972 
Q 2475 2972 2870 2558 
Q 3266 2144 3266 1488 
Q 3266 1056 3080 686 
Q 2894 316 2569 119 
Q 2244 -78 1831 -78 
Q 1128 -78 684 439 
Q 241 956 241 2144 
Q 241 3472 731 4075 
Q 1159 4600 1884 4600 
Q 2425 4600 2770 4297 
Q 3116 3994 3184 3459 
z
M 888 1484 
Q 888 1194 1011 928 
Q 1134 663 1356 523 
Q 1578 384 1822 384 
Q 2178 384 2434 671 
Q 2691 959 2691 1453 
Q 2691 1928 2437 2201 
Q 2184 2475 1800 2475 
Q 1419 2475 1153 2201 
Q 888 1928 888 1484 
z
" transform="scale(0.015625)"/>
       </defs>
       <use xlink:href="#ArialMT-30"/>
       <use xlink:href="#ArialMT-2e" x="55.615234"/>
       <use xlink:href="#ArialMT-30" x="83.398438"/>
       <use xlink:href="#ArialMT-36" x="139.013672"/>
       <use xlink:href="#ArialMT-30" x="194.628906"/>
      </g>
     </g>
    </g>
    <g id="xtick_8">
     <g id="line2d_15">
      <path d="M 541.963764 402.6075 
L 541.963764 20.0715 
" clip-path="url(#p2375f36c2f)" style="fill: none; stroke: #ffffff; stroke-width: 0.8; stroke-linecap: round"/>
     </g>
     <g id="line2d_16">
      <g>
       <use xlink:href="#mab956385c6" x="541.963764" y="402.6075" style="fill: #808080; stroke: #808080"/>
      </g>
     </g>
     <g id="text_8">
      <!-- 0.065 -->
      <g style="fill: #262626" transform="translate(530.954139 415.406375) scale(0.088 -0.088)">
       <use xlink:href="#ArialMT-30"/>
       <use xlink:href="#ArialMT-2e" x="55.615234"/>
       <use xlink:href="#ArialMT-30" x="83.398438"/>
       <use xlink:href="#ArialMT-36" x="139.013672"/>
       <use xlink:href="#ArialMT-35" x="194.628906"/>
      </g>
     </g>
    </g>
   </g>
   <g id="matplotlib.axis_2"/>
   <g id="PolyCollection_1">
    <defs>
     <path id="mc69ba20ed5" d="M 34.499992 -39.135875 
L 34.499992 -42.000857 
L 35.537821 -41.99827 
L 36.57565 -41.99235 
L 37.613479 -41.983366 
L 38.651308 -41.971688 
L 39.689137 -41.957771 
L 40.726966 -41.946158 
L 41.764795 -41.931381 
L 42.802624 -41.921246 
L 43.840453 -41.905479 
L 44.878281 -41.898893 
L 45.91611 -41.895237 
L 46.953939 -41.888226 
L 47.991768 -41.892575 
L 49.029597 -41.897863 
L 50.067426 -41.907678 
L 51.105255 -41.922374 
L 52.143084 -41.942192 
L 53.180913 -41.967262 
L 54.218742 -41.998512 
L 55.256571 -42.035908 
L 56.2944 -42.082487 
L 57.332228 -42.131156 
L 58.370057 -42.188871 
L 59.407886 -42.256507 
L 60.445715 -42.323978 
L 61.483544 -42.397356 
L 62.521373 -42.479599 
L 63.559202 -42.563586 
L 64.597031 -42.664347 
L 65.63486 -42.760895 
L 66.672689 -42.862494 
L 67.710518 -42.97304 
L 68.748347 -43.089471 
L 69.786176 -43.215881 
L 70.824004 -43.341386 
L 71.861833 -43.484208 
L 72.899662 -43.620296 
L 73.937491 -43.762805 
L 74.97532 -43.923572 
L 76.013149 -44.085596 
L 77.050978 -44.258338 
L 78.088807 -44.44211 
L 79.126636 -44.626264 
L 80.164465 -44.825226 
L 81.202294 -45.033275 
L 82.240123 -45.246944 
L 83.277951 -45.473752 
L 84.31578 -45.703092 
L 85.353609 -45.941344 
L 86.391438 -46.188549 
L 87.429267 -46.456718 
L 88.467096 -46.729791 
L 89.504925 -47.014035 
L 90.542754 -47.316529 
L 91.580583 -47.619173 
L 92.618412 -47.942901 
L 93.656241 -48.270238 
L 94.69407 -48.603719 
L 95.731899 -48.949558 
L 96.769727 -49.314929 
L 97.807556 -49.68607 
L 98.845385 -50.073562 
L 99.883214 -50.450852 
L 100.921043 -50.840421 
L 101.958872 -51.252219 
L 102.996701 -51.657802 
L 104.03453 -52.068304 
L 105.072359 -52.472204 
L 106.110188 -52.898175 
L 107.148017 -53.314841 
L 108.185846 -53.746521 
L 109.223675 -54.183474 
L 110.261503 -54.642553 
L 111.299332 -55.092965 
L 112.337161 -55.571542 
L 113.37499 -56.048893 
L 114.412819 -56.528091 
L 115.450648 -57.035861 
L 116.488477 -57.577038 
L 117.526306 -58.109978 
L 118.564135 -58.681252 
L 119.601964 -59.269527 
L 120.639793 -59.883771 
L 121.677622 -60.530545 
L 122.71545 -61.216435 
L 123.753279 -61.94424 
L 124.791108 -62.689714 
L 125.828937 -63.478311 
L 126.866766 -64.311939 
L 127.904595 -65.181484 
L 128.942424 -66.114974 
L 129.980253 -67.07449 
L 131.018082 -68.060303 
L 132.055911 -69.104776 
L 133.09374 -70.184811 
L 134.131569 -71.311673 
L 135.169398 -72.478471 
L 136.207226 -73.704497 
L 137.245055 -74.962097 
L 138.282884 -76.27206 
L 139.320713 -77.618572 
L 140.358542 -79.027329 
L 141.396371 -80.4892 
L 142.4342 -81.986404 
L 143.472029 -83.528049 
L 144.509858 -85.14755 
L 145.547687 -86.796544 
L 146.585516 -88.514506 
L 147.623345 -90.283575 
L 148.661174 -92.112208 
L 149.699002 -93.974323 
L 150.736831 -95.910568 
L 151.77466 -97.878268 
L 152.812489 -99.889673 
L 153.850318 -101.982048 
L 154.888147 -104.088496 
L 155.925976 -106.249572 
L 156.963805 -108.450573 
L 158.001634 -110.72471 
L 159.039463 -113.01257 
L 160.077292 -115.320341 
L 161.115121 -117.630825 
L 162.152949 -119.968546 
L 163.190778 -122.303323 
L 164.228607 -124.649497 
L 165.266436 -127.006484 
L 166.304265 -129.365398 
L 167.342094 -131.682915 
L 168.379923 -134.01639 
L 169.417752 -136.332587 
L 170.455581 -138.609629 
L 171.49341 -140.899481 
L 172.531239 -143.150467 
L 173.569068 -145.414799 
L 174.606897 -147.648558 
L 175.644725 -149.854242 
L 176.682554 -152.049985 
L 177.720383 -154.297613 
L 178.758212 -156.497285 
L 179.796041 -158.725426 
L 180.83387 -160.999383 
L 181.871699 -163.228511 
L 182.909528 -165.524311 
L 183.947357 -167.846658 
L 184.985186 -170.262415 
L 186.023015 -172.726081 
L 187.060844 -175.231425 
L 188.098672 -177.802226 
L 189.136501 -180.45351 
L 190.17433 -183.191471 
L 191.212159 -186.012413 
L 192.249988 -188.902733 
L 193.287817 -191.884459 
L 194.325646 -195.006132 
L 195.363475 -198.203397 
L 196.401304 -201.429558 
L 197.439133 -204.769696 
L 198.476962 -208.189881 
L 199.514791 -211.700728 
L 200.55262 -215.299605 
L 201.590448 -218.954248 
L 202.628277 -222.688845 
L 203.666106 -226.450325 
L 204.703935 -230.322977 
L 205.741764 -234.241073 
L 206.779593 -238.211084 
L 207.817422 -242.180106 
L 208.855251 -246.174195 
L 209.89308 -250.19936 
L 210.930909 -254.269643 
L 211.968738 -258.29545 
L 213.006567 -262.334519 
L 214.044396 -266.395669 
L 215.082224 -270.41997 
L 216.120053 -274.405238 
L 217.157882 -278.351967 
L 218.195711 -282.209341 
L 219.23354 -286.059049 
L 220.271369 -289.84337 
L 221.309198 -293.564635 
L 222.347027 -297.230403 
L 223.384856 -300.819464 
L 224.422685 -304.295363 
L 225.460514 -307.733175 
L 226.498343 -311.065707 
L 227.536171 -314.262547 
L 228.574 -317.378064 
L 229.611829 -320.45862 
L 230.649658 -323.398821 
L 231.687487 -326.27903 
L 232.725316 -329.070404 
L 233.763145 -331.700514 
L 234.800974 -334.278311 
L 235.838803 -336.758329 
L 236.876632 -339.17752 
L 237.914461 -341.477527 
L 238.95229 -343.725363 
L 239.990119 -345.871918 
L 241.027947 -347.943331 
L 242.065776 -349.920702 
L 243.103605 -351.774855 
L 244.141434 -353.543202 
L 245.179263 -355.183487 
L 246.217092 -356.75088 
L 247.254921 -358.22264 
L 248.29275 -359.572295 
L 249.330579 -360.782741 
L 250.368408 -361.911237 
L 251.406237 -362.928703 
L 252.444066 -363.871709 
L 253.481895 -364.694712 
L 254.519723 -365.397624 
L 255.557552 -366.03994 
L 256.595381 -366.610303 
L 257.63321 -367.096168 
L 258.671039 -367.521136 
L 259.708868 -367.878964 
L 260.746697 -368.1756 
L 261.784526 -368.567646 
L 262.822355 -368.919577 
L 263.860184 -369.287686 
L 264.898013 -369.635239 
L 265.935842 -369.98329 
L 266.97367 -370.477989 
L 268.011499 -370.995494 
L 269.049328 -371.588996 
L 270.087157 -372.195767 
L 271.124986 -372.928596 
L 272.162815 -373.712153 
L 273.200644 -374.540111 
L 274.238473 -375.398473 
L 275.276302 -376.31122 
L 276.314131 -377.336917 
L 277.35196 -378.334051 
L 278.389789 -379.347856 
L 279.427618 -380.32881 
L 280.465446 -381.266757 
L 281.503275 -382.211867 
L 282.541104 -383.101333 
L 283.578933 -383.918993 
L 284.616762 -384.62021 
L 285.654591 -385.269042 
L 286.69242 -385.828452 
L 287.730249 -386.297771 
L 288.768078 -386.595827 
L 289.805907 -386.837273 
L 290.843736 -386.895875 
L 291.881565 -386.851264 
L 292.919393 -386.685868 
L 293.957222 -386.348144 
L 294.995051 -385.919867 
L 296.03288 -385.332362 
L 297.070709 -384.674475 
L 298.108538 -383.888053 
L 299.146367 -382.932923 
L 300.184196 -381.876442 
L 301.222025 -380.726175 
L 302.259854 -379.438547 
L 303.297683 -378.099944 
L 304.335512 -376.622612 
L 305.373341 -375.017791 
L 306.411169 -373.322215 
L 307.448998 -371.608993 
L 308.486827 -369.737738 
L 309.524656 -367.755331 
L 310.562485 -365.723883 
L 311.600314 -363.604676 
L 312.638143 -361.422393 
L 313.675972 -359.21731 
L 314.713801 -356.893133 
L 315.75163 -354.531108 
L 316.789459 -352.13419 
L 317.827288 -349.632651 
L 318.865117 -347.114847 
L 319.902945 -344.573034 
L 320.940774 -341.976753 
L 321.978603 -339.333185 
L 323.016432 -336.706267 
L 324.054261 -333.987965 
L 325.09209 -331.242178 
L 326.129919 -328.416873 
L 327.167748 -325.567916 
L 328.205577 -322.638692 
L 329.243406 -319.680842 
L 330.281235 -316.654173 
L 331.319064 -313.528072 
L 332.356892 -310.322075 
L 333.394721 -307.035008 
L 334.43255 -303.740543 
L 335.470379 -300.35148 
L 336.508208 -296.871377 
L 337.546037 -293.279265 
L 338.583866 -289.660103 
L 339.621695 -285.986273 
L 340.659524 -282.228001 
L 341.697353 -278.36761 
L 342.735182 -274.486127 
L 343.773011 -270.550816 
L 344.81084 -266.630971 
L 345.848668 -262.705267 
L 346.886497 -258.696481 
L 347.924326 -254.731697 
L 348.962155 -250.754942 
L 349.999984 -246.83038 
L 351.037813 -242.914454 
L 352.075642 -239.042254 
L 353.113471 -235.235489 
L 354.1513 -231.454441 
L 355.189129 -227.710595 
L 356.226958 -223.990229 
L 357.264787 -220.368338 
L 358.302615 -216.791765 
L 359.340444 -213.284806 
L 360.378273 -209.860286 
L 361.416102 -206.440466 
L 362.453931 -203.079995 
L 363.49176 -199.809488 
L 364.529589 -196.593695 
L 365.567418 -193.415021 
L 366.605247 -190.284326 
L 367.643076 -187.251301 
L 368.680905 -184.30192 
L 369.718734 -181.362769 
L 370.756563 -178.513776 
L 371.794391 -175.716005 
L 372.83222 -172.941982 
L 373.870049 -170.264765 
L 374.907878 -167.627014 
L 375.945707 -165.059862 
L 376.983536 -162.516563 
L 378.021365 -160.045528 
L 379.059194 -157.611327 
L 380.097023 -155.190522 
L 381.134852 -152.808558 
L 382.172681 -150.477482 
L 383.21051 -148.145718 
L 384.248339 -145.876822 
L 385.286167 -143.649149 
L 386.323996 -141.423556 
L 387.361825 -139.173113 
L 388.399654 -136.994248 
L 389.437483 -134.810841 
L 390.475312 -132.630992 
L 391.513141 -130.451806 
L 392.55097 -128.293631 
L 393.588799 -126.138972 
L 394.626628 -124.025984 
L 395.664457 -121.910666 
L 396.702286 -119.79063 
L 397.740114 -117.759696 
L 398.777943 -115.730701 
L 399.815772 -113.739161 
L 400.853601 -111.817841 
L 401.89143 -109.916503 
L 402.929259 -108.035964 
L 403.967088 -106.226454 
L 405.004917 -104.4585 
L 406.042746 -102.733822 
L 407.080575 -101.057153 
L 408.118404 -99.440045 
L 409.156233 -97.866798 
L 410.194062 -96.324245 
L 411.23189 -94.843988 
L 412.269719 -93.390457 
L 413.307548 -91.979433 
L 414.345377 -90.570313 
L 415.383206 -89.191917 
L 416.421035 -87.841135 
L 417.458864 -86.532258 
L 418.496693 -85.251715 
L 419.534522 -83.963019 
L 420.572351 -82.698213 
L 421.61018 -81.437366 
L 422.648009 -80.184334 
L 423.685838 -78.964276 
L 424.723666 -77.723751 
L 425.761495 -76.522296 
L 426.799324 -75.352377 
L 427.837153 -74.18578 
L 428.874982 -73.053889 
L 429.912811 -71.95623 
L 430.95064 -70.874015 
L 431.988469 -69.831652 
L 433.026298 -68.82321 
L 434.064127 -67.859232 
L 435.101956 -66.950473 
L 436.139785 -66.082427 
L 437.177613 -65.253715 
L 438.215442 -64.453503 
L 439.253271 -63.717509 
L 440.2911 -63.010309 
L 441.328929 -62.370832 
L 442.366758 -61.765484 
L 443.404587 -61.202262 
L 444.442416 -60.672411 
L 445.480245 -60.160453 
L 446.518074 -59.685981 
L 447.555903 -59.227878 
L 448.593732 -58.79717 
L 449.631561 -58.368699 
L 450.669389 -57.962702 
L 451.707218 -57.566739 
L 452.745047 -57.180014 
L 453.782876 -56.767148 
L 454.820705 -56.369344 
L 455.858534 -55.974598 
L 456.896363 -55.564212 
L 457.934192 -55.151984 
L 458.972021 -54.736308 
L 460.00985 -54.319339 
L 461.047679 -53.885238 
L 462.085508 -53.45276 
L 463.123336 -53.004734 
L 464.161165 -52.560282 
L 465.198994 -52.113655 
L 466.236823 -51.669519 
L 467.274652 -51.231004 
L 468.312481 -50.779701 
L 469.35031 -50.332972 
L 470.388139 -49.901399 
L 471.425968 -49.474593 
L 472.463797 -49.05092 
L 473.501626 -48.635498 
L 474.539455 -48.235487 
L 475.577284 -47.840819 
L 476.615112 -47.453086 
L 477.652941 -47.082887 
L 478.69077 -46.722736 
L 479.728599 -46.369903 
L 480.766428 -46.012855 
L 481.804257 -45.686389 
L 482.842086 -45.374468 
L 483.879915 -45.073289 
L 484.917744 -44.779003 
L 485.955573 -44.498679 
L 486.993402 -44.22213 
L 488.031231 -43.96333 
L 489.06906 -43.714302 
L 490.106888 -43.468842 
L 491.144717 -43.228396 
L 492.182546 -43.006572 
L 493.220375 -42.798215 
L 494.258204 -42.599273 
L 495.296033 -42.406565 
L 496.333862 -42.22384 
L 497.371691 -42.053943 
L 498.40952 -41.889624 
L 499.447349 -41.740827 
L 500.485178 -41.593284 
L 501.523007 -41.454633 
L 502.560835 -41.330705 
L 503.598664 -41.213398 
L 504.636493 -41.102599 
L 505.674322 -40.998135 
L 506.712151 -40.893534 
L 507.74998 -40.802465 
L 508.787809 -40.713524 
L 509.825638 -40.627167 
L 510.863467 -40.546796 
L 511.901296 -40.478076 
L 512.939125 -40.412776 
L 513.976954 -40.34757 
L 515.014783 -40.289191 
L 516.052611 -40.233399 
L 517.09044 -40.179965 
L 518.128269 -40.128657 
L 519.166098 -40.076119 
L 520.203927 -40.025968 
L 521.241756 -39.980969 
L 522.279585 -39.936973 
L 523.317414 -39.893877 
L 524.355243 -39.845349 
L 525.393072 -39.809293 
L 526.430901 -39.774796 
L 527.46873 -39.73504 
L 528.506559 -39.697167 
L 529.544387 -39.664358 
L 530.582216 -39.632887 
L 531.620045 -39.603074 
L 532.657874 -39.575249 
L 533.695703 -39.549752 
L 534.733532 -39.526922 
L 535.771361 -39.507096 
L 536.80919 -39.490595 
L 537.847019 -39.477723 
L 538.884848 -39.468754 
L 539.922677 -39.463923 
L 540.960506 -39.460298 
L 541.998334 -39.464981 
L 543.036163 -39.474054 
L 544.073992 -39.487554 
L 545.111821 -39.502316 
L 546.14965 -39.525177 
L 547.187479 -39.551932 
L 548.225308 -39.582311 
L 549.263137 -39.615951 
L 550.300966 -39.6524 
L 551.338795 -39.691126 
L 552.376624 -39.73152 
L 553.414453 -39.77291 
L 554.452282 -39.814572 
L 555.49011 -39.855747 
L 556.527939 -39.895657 
L 557.565768 -39.933522 
L 558.603597 -39.968582 
L 559.641426 -40.000114 
L 560.679255 -40.027453 
L 561.717084 -40.05001 
L 562.754913 -40.064162 
L 563.792742 -40.076485 
L 564.830571 -40.082707 
L 564.830571 -39.135875 
L 564.830571 -39.135875 
L 563.792742 -39.135875 
L 562.754913 -39.135875 
L 561.717084 -39.135875 
L 560.679255 -39.135875 
L 559.641426 -39.135875 
L 558.603597 -39.135875 
L 557.565768 -39.135875 
L 556.527939 -39.135875 
L 555.49011 -39.135875 
L 554.452282 -39.135875 
L 553.414453 -39.135875 
L 552.376624 -39.135875 
L 551.338795 -39.135875 
L 550.300966 -39.135875 
L 549.263137 -39.135875 
L 548.225308 -39.135875 
L 547.187479 -39.135875 
L 546.14965 -39.135875 
L 545.111821 -39.135875 
L 544.073992 -39.135875 
L 543.036163 -39.135875 
L 541.998334 -39.135875 
L 540.960506 -39.135875 
L 539.922677 -39.135875 
L 538.884848 -39.135875 
L 537.847019 -39.135875 
L 536.80919 -39.135875 
L 535.771361 -39.135875 
L 534.733532 -39.135875 
L 533.695703 -39.135875 
L 532.657874 -39.135875 
L 531.620045 -39.135875 
L 530.582216 -39.135875 
L 529.544387 -39.135875 
L 528.506559 -39.135875 
L 527.46873 -39.135875 
L 526.430901 -39.135875 
L 525.393072 -39.135875 
L 524.355243 -39.135875 
L 523.317414 -39.135875 
L 522.279585 -39.135875 
L 521.241756 -39.135875 
L 520.203927 -39.135875 
L 519.166098 -39.135875 
L 518.128269 -39.135875 
L 517.09044 -39.135875 
L 516.052611 -39.135875 
L 515.014783 -39.135875 
L 513.976954 -39.135875 
L 512.939125 -39.135875 
L 511.901296 -39.135875 
L 510.863467 -39.135875 
L 509.825638 -39.135875 
L 508.787809 -39.135875 
L 507.74998 -39.135875 
L 506.712151 -39.135875 
L 505.674322 -39.135875 
L 504.636493 -39.135875 
L 503.598664 -39.135875 
L 502.560835 -39.135875 
L 501.523007 -39.135875 
L 500.485178 -39.135875 
L 499.447349 -39.135875 
L 498.40952 -39.135875 
L 497.371691 -39.135875 
L 496.333862 -39.135875 
L 495.296033 -39.135875 
L 494.258204 -39.135875 
L 493.220375 -39.135875 
L 492.182546 -39.135875 
L 491.144717 -39.135875 
L 490.106888 -39.135875 
L 489.06906 -39.135875 
L 488.031231 -39.135875 
L 486.993402 -39.135875 
L 485.955573 -39.135875 
L 484.917744 -39.135875 
L 483.879915 -39.135875 
L 482.842086 -39.135875 
L 481.804257 -39.135875 
L 480.766428 -39.135875 
L 479.728599 -39.135875 
L 478.69077 -39.135875 
L 477.652941 -39.135875 
L 476.615112 -39.135875 
L 475.577284 -39.135875 
L 474.539455 -39.135875 
L 473.501626 -39.135875 
L 472.463797 -39.135875 
L 471.425968 -39.135875 
L 470.388139 -39.135875 
L 469.35031 -39.135875 
L 468.312481 -39.135875 
L 467.274652 -39.135875 
L 466.236823 -39.135875 
L 465.198994 -39.135875 
L 464.161165 -39.135875 
L 463.123336 -39.135875 
L 462.085508 -39.135875 
L 461.047679 -39.135875 
L 460.00985 -39.135875 
L 458.972021 -39.135875 
L 457.934192 -39.135875 
L 456.896363 -39.135875 
L 455.858534 -39.135875 
L 454.820705 -39.135875 
L 453.782876 -39.135875 
L 452.745047 -39.135875 
L 451.707218 -39.135875 
L 450.669389 -39.135875 
L 449.631561 -39.135875 
L 448.593732 -39.135875 
L 447.555903 -39.135875 
L 446.518074 -39.135875 
L 445.480245 -39.135875 
L 444.442416 -39.135875 
L 443.404587 -39.135875 
L 442.366758 -39.135875 
L 441.328929 -39.135875 
L 440.2911 -39.135875 
L 439.253271 -39.135875 
L 438.215442 -39.135875 
L 437.177613 -39.135875 
L 436.139785 -39.135875 
L 435.101956 -39.135875 
L 434.064127 -39.135875 
L 433.026298 -39.135875 
L 431.988469 -39.135875 
L 430.95064 -39.135875 
L 429.912811 -39.135875 
L 428.874982 -39.135875 
L 427.837153 -39.135875 
L 426.799324 -39.135875 
L 425.761495 -39.135875 
L 424.723666 -39.135875 
L 423.685838 -39.135875 
L 422.648009 -39.135875 
L 421.61018 -39.135875 
L 420.572351 -39.135875 
L 419.534522 -39.135875 
L 418.496693 -39.135875 
L 417.458864 -39.135875 
L 416.421035 -39.135875 
L 415.383206 -39.135875 
L 414.345377 -39.135875 
L 413.307548 -39.135875 
L 412.269719 -39.135875 
L 411.23189 -39.135875 
L 410.194062 -39.135875 
L 409.156233 -39.135875 
L 408.118404 -39.135875 
L 407.080575 -39.135875 
L 406.042746 -39.135875 
L 405.004917 -39.135875 
L 403.967088 -39.135875 
L 402.929259 -39.135875 
L 401.89143 -39.135875 
L 400.853601 -39.135875 
L 399.815772 -39.135875 
L 398.777943 -39.135875 
L 397.740114 -39.135875 
L 396.702286 -39.135875 
L 395.664457 -39.135875 
L 394.626628 -39.135875 
L 393.588799 -39.135875 
L 392.55097 -39.135875 
L 391.513141 -39.135875 
L 390.475312 -39.135875 
L 389.437483 -39.135875 
L 388.399654 -39.135875 
L 387.361825 -39.135875 
L 386.323996 -39.135875 
L 385.286167 -39.135875 
L 384.248339 -39.135875 
L 383.21051 -39.135875 
L 382.172681 -39.135875 
L 381.134852 -39.135875 
L 380.097023 -39.135875 
L 379.059194 -39.135875 
L 378.021365 -39.135875 
L 376.983536 -39.135875 
L 375.945707 -39.135875 
L 374.907878 -39.135875 
L 373.870049 -39.135875 
L 372.83222 -39.135875 
L 371.794391 -39.135875 
L 370.756563 -39.135875 
L 369.718734 -39.135875 
L 368.680905 -39.135875 
L 367.643076 -39.135875 
L 366.605247 -39.135875 
L 365.567418 -39.135875 
L 364.529589 -39.135875 
L 363.49176 -39.135875 
L 362.453931 -39.135875 
L 361.416102 -39.135875 
L 360.378273 -39.135875 
L 359.340444 -39.135875 
L 358.302615 -39.135875 
L 357.264787 -39.135875 
L 356.226958 -39.135875 
L 355.189129 -39.135875 
L 354.1513 -39.135875 
L 353.113471 -39.135875 
L 352.075642 -39.135875 
L 351.037813 -39.135875 
L 349.999984 -39.135875 
L 348.962155 -39.135875 
L 347.924326 -39.135875 
L 346.886497 -39.135875 
L 345.848668 -39.135875 
L 344.81084 -39.135875 
L 343.773011 -39.135875 
L 342.735182 -39.135875 
L 341.697353 -39.135875 
L 340.659524 -39.135875 
L 339.621695 -39.135875 
L 338.583866 -39.135875 
L 337.546037 -39.135875 
L 336.508208 -39.135875 
L 335.470379 -39.135875 
L 334.43255 -39.135875 
L 333.394721 -39.135875 
L 332.356892 -39.135875 
L 331.319064 -39.135875 
L 330.281235 -39.135875 
L 329.243406 -39.135875 
L 328.205577 -39.135875 
L 327.167748 -39.135875 
L 326.129919 -39.135875 
L 325.09209 -39.135875 
L 324.054261 -39.135875 
L 323.016432 -39.135875 
L 321.978603 -39.135875 
L 320.940774 -39.135875 
L 319.902945 -39.135875 
L 318.865117 -39.135875 
L 317.827288 -39.135875 
L 316.789459 -39.135875 
L 315.75163 -39.135875 
L 314.713801 -39.135875 
L 313.675972 -39.135875 
L 312.638143 -39.135875 
L 311.600314 -39.135875 
L 310.562485 -39.135875 
L 309.524656 -39.135875 
L 308.486827 -39.135875 
L 307.448998 -39.135875 
L 306.411169 -39.135875 
L 305.373341 -39.135875 
L 304.335512 -39.135875 
L 303.297683 -39.135875 
L 302.259854 -39.135875 
L 301.222025 -39.135875 
L 300.184196 -39.135875 
L 299.146367 -39.135875 
L 298.108538 -39.135875 
L 297.070709 -39.135875 
L 296.03288 -39.135875 
L 294.995051 -39.135875 
L 293.957222 -39.135875 
L 292.919393 -39.135875 
L 291.881565 -39.135875 
L 290.843736 -39.135875 
L 289.805907 -39.135875 
L 288.768078 -39.135875 
L 287.730249 -39.135875 
L 286.69242 -39.135875 
L 285.654591 -39.135875 
L 284.616762 -39.135875 
L 283.578933 -39.135875 
L 282.541104 -39.135875 
L 281.503275 -39.135875 
L 280.465446 -39.135875 
L 279.427618 -39.135875 
L 278.389789 -39.135875 
L 277.35196 -39.135875 
L 276.314131 -39.135875 
L 275.276302 -39.135875 
L 274.238473 -39.135875 
L 273.200644 -39.135875 
L 272.162815 -39.135875 
L 271.124986 -39.135875 
L 270.087157 -39.135875 
L 269.049328 -39.135875 
L 268.011499 -39.135875 
L 266.97367 -39.135875 
L 265.935842 -39.135875 
L 264.898013 -39.135875 
L 263.860184 -39.135875 
L 262.822355 -39.135875 
L 261.784526 -39.135875 
L 260.746697 -39.135875 
L 259.708868 -39.135875 
L 258.671039 -39.135875 
L 257.63321 -39.135875 
L 256.595381 -39.135875 
L 255.557552 -39.135875 
L 254.519723 -39.135875 
L 253.481895 -39.135875 
L 252.444066 -39.135875 
L 251.406237 -39.135875 
L 250.368408 -39.135875 
L 249.330579 -39.135875 
L 248.29275 -39.135875 
L 247.254921 -39.135875 
L 246.217092 -39.135875 
L 245.179263 -39.135875 
L 244.141434 -39.135875 
L 243.103605 -39.135875 
L 242.065776 -39.135875 
L 241.027947 -39.135875 
L 239.990119 -39.135875 
L 238.95229 -39.135875 
L 237.914461 -39.135875 
L 236.876632 -39.135875 
L 235.838803 -39.135875 
L 234.800974 -39.135875 
L 233.763145 -39.135875 
L 232.725316 -39.135875 
L 231.687487 -39.135875 
L 230.649658 -39.135875 
L 229.611829 -39.135875 
L 228.574 -39.135875 
L 227.536171 -39.135875 
L 226.498343 -39.135875 
L 225.460514 -39.135875 
L 224.422685 -39.135875 
L 223.384856 -39.135875 
L 222.347027 -39.135875 
L 221.309198 -39.135875 
L 220.271369 -39.135875 
L 219.23354 -39.135875 
L 218.195711 -39.135875 
L 217.157882 -39.135875 
L 216.120053 -39.135875 
L 215.082224 -39.135875 
L 214.044396 -39.135875 
L 213.006567 -39.135875 
L 211.968738 -39.135875 
L 210.930909 -39.135875 
L 209.89308 -39.135875 
L 208.855251 -39.135875 
L 207.817422 -39.135875 
L 206.779593 -39.135875 
L 205.741764 -39.135875 
L 204.703935 -39.135875 
L 203.666106 -39.135875 
L 202.628277 -39.135875 
L 201.590448 -39.135875 
L 200.55262 -39.135875 
L 199.514791 -39.135875 
L 198.476962 -39.135875 
L 197.439133 -39.135875 
L 196.401304 -39.135875 
L 195.363475 -39.135875 
L 194.325646 -39.135875 
L 193.287817 -39.135875 
L 192.249988 -39.135875 
L 191.212159 -39.135875 
L 190.17433 -39.135875 
L 189.136501 -39.135875 
L 188.098672 -39.135875 
L 187.060844 -39.135875 
L 186.023015 -39.135875 
L 184.985186 -39.135875 
L 183.947357 -39.135875 
L 182.909528 -39.135875 
L 181.871699 -39.135875 
L 180.83387 -39.135875 
L 179.796041 -39.135875 
L 178.758212 -39.135875 
L 177.720383 -39.135875 
L 176.682554 -39.135875 
L 175.644725 -39.135875 
L 174.606897 -39.135875 
L 173.569068 -39.135875 
L 172.531239 -39.135875 
L 171.49341 -39.135875 
L 170.455581 -39.135875 
L 169.417752 -39.135875 
L 168.379923 -39.135875 
L 167.342094 -39.135875 
L 166.304265 -39.135875 
L 165.266436 -39.135875 
L 164.228607 -39.135875 
L 163.190778 -39.135875 
L 162.152949 -39.135875 
L 161.115121 -39.135875 
L 160.077292 -39.135875 
L 159.039463 -39.135875 
L 158.001634 -39.135875 
L 156.963805 -39.135875 
L 155.925976 -39.135875 
L 154.888147 -39.135875 
L 153.850318 -39.135875 
L 152.812489 -39.135875 
L 151.77466 -39.135875 
L 150.736831 -39.135875 
L 149.699002 -39.135875 
L 148.661174 -39.135875 
L 147.623345 -39.135875 
L 146.585516 -39.135875 
L 145.547687 -39.135875 
L 144.509858 -39.135875 
L 143.472029 -39.135875 
L 142.4342 -39.135875 
L 141.396371 -39.135875 
L 140.358542 -39.135875 
L 139.320713 -39.135875 
L 138.282884 -39.135875 
L 137.245055 -39.135875 
L 136.207226 -39.135875 
L 135.169398 -39.135875 
L 134.131569 -39.135875 
L 133.09374 -39.135875 
L 132.055911 -39.135875 
L 131.018082 -39.135875 
L 129.980253 -39.135875 
L 128.942424 -39.135875 
L 127.904595 -39.135875 
L 126.866766 -39.135875 
L 125.828937 -39.135875 
L 124.791108 -39.135875 
L 123.753279 -39.135875 
L 122.71545 -39.135875 
L 121.677622 -39.135875 
L 120.639793 -39.135875 
L 119.601964 -39.135875 
L 118.564135 -39.135875 
L 117.526306 -39.135875 
L 116.488477 -39.135875 
L 115.450648 -39.135875 
L 114.412819 -39.135875 
L 113.37499 -39.135875 
L 112.337161 -39.135875 
L 111.299332 -39.135875 
L 110.261503 -39.135875 
L 109.223675 -39.135875 
L 108.185846 -39.135875 
L 107.148017 -39.135875 
L 106.110188 -39.135875 
L 105.072359 -39.135875 
L 104.03453 -39.135875 
L 102.996701 -39.135875 
L 101.958872 -39.135875 
L 100.921043 -39.135875 
L 99.883214 -39.135875 
L 98.845385 -39.135875 
L 97.807556 -39.135875 
L 96.769727 -39.135875 
L 95.731899 -39.135875 
L 94.69407 -39.135875 
L 93.656241 -39.135875 
L 92.618412 -39.135875 
L 91.580583 -39.135875 
L 90.542754 -39.135875 
L 89.504925 -39.135875 
L 88.467096 -39.135875 
L 87.429267 -39.135875 
L 86.391438 -39.135875 
L 85.353609 -39.135875 
L 84.31578 -39.135875 
L 83.277951 -39.135875 
L 82.240123 -39.135875 
L 81.202294 -39.135875 
L 80.164465 -39.135875 
L 79.126636 -39.135875 
L 78.088807 -39.135875 
L 77.050978 -39.135875 
L 76.013149 -39.135875 
L 74.97532 -39.135875 
L 73.937491 -39.135875 
L 72.899662 -39.135875 
L 71.861833 -39.135875 
L 70.824004 -39.135875 
L 69.786176 -39.135875 
L 68.748347 -39.135875 
L 67.710518 -39.135875 
L 66.672689 -39.135875 
L 65.63486 -39.135875 
L 64.597031 -39.135875 
L 63.559202 -39.135875 
L 62.521373 -39.135875 
L 61.483544 -39.135875 
L 60.445715 -39.135875 
L 59.407886 -39.135875 
L 58.370057 -39.135875 
L 57.332228 -39.135875 
L 56.2944 -39.135875 
L 55.256571 -39.135875 
L 54.218742 -39.135875 
L 53.180913 -39.135875 
L 52.143084 -39.135875 
L 51.105255 -39.135875 
L 50.067426 -39.135875 
L 49.029597 -39.135875 
L 47.991768 -39.135875 
L 46.953939 -39.135875 
L 45.91611 -39.135875 
L 44.878281 -39.135875 
L 43.840453 -39.135875 
L 42.802624 -39.135875 
L 41.764795 -39.135875 
L 40.726966 -39.135875 
L 39.689137 -39.135875 
L 38.651308 -39.135875 
L 37.613479 -39.135875 
L 36.57565 -39.135875 
L 35.537821 -39.135875 
L 34.499992 -39.135875 
z
" style="stroke: #0173b2; stroke-opacity: 0; stroke-width: 0.8"/>
    </defs>
    <g clip-path="url(#p2375f36c2f)">
     <use xlink:href="#mc69ba20ed5" x="0" y="424.355375" style="fill: #0173b2; fill-opacity: 0; stroke: #0173b2; stroke-opacity: 0; stroke-width: 0.8"/>
    </g>
   </g>
   <g id="line2d_17">
    <path d="M 34.499992 382.354518 
L 55.256571 382.319467 
L 61.483544 381.958019 
L 67.710518 381.382335 
L 73.937491 380.59257 
L 80.164465 379.530149 
L 85.353609 378.414031 
L 89.504925 377.34134 
L 94.69407 375.751656 
L 98.845385 374.281813 
L 104.03453 372.287071 
L 109.223675 370.171901 
L 115.450648 367.319514 
L 119.601964 365.085848 
L 122.71545 363.13894 
L 125.828937 360.877064 
L 128.942424 358.240401 
L 132.055911 355.250599 
L 135.169398 351.876904 
L 138.282884 348.083315 
L 141.396371 343.866175 
L 144.509858 339.207825 
L 147.623345 334.0718 
L 150.736831 328.444807 
L 153.850318 322.373327 
L 156.963805 315.904802 
L 163.190778 302.052052 
L 172.531239 281.204908 
L 178.758212 267.85809 
L 183.947357 256.508717 
L 187.060844 249.12395 
L 190.17433 241.163904 
L 193.287817 232.470916 
L 196.401304 222.925817 
L 199.514791 212.654647 
L 203.666106 197.90505 
L 208.855251 178.18118 
L 219.23354 138.296326 
L 223.384856 123.535911 
L 226.498343 113.289668 
L 229.611829 103.896755 
L 232.725316 95.284971 
L 235.838803 87.597046 
L 237.914461 82.877848 
L 239.990119 78.483457 
L 242.065776 74.434673 
L 244.141434 70.812173 
L 246.217092 67.604495 
L 248.29275 64.78308 
L 250.368408 62.444138 
L 252.444066 60.483666 
L 254.519723 58.957751 
L 256.595381 57.745072 
L 258.671039 56.834239 
L 266.97367 53.877386 
L 269.049328 52.766379 
L 271.124986 51.426779 
L 274.238473 48.956902 
L 276.314131 47.018458 
L 281.503275 42.143508 
L 283.578933 40.436382 
L 285.654591 39.086333 
L 287.730249 38.057604 
L 289.805907 37.518102 
L 291.881565 37.504111 
L 292.919393 37.669507 
L 294.995051 38.435508 
L 297.070709 39.6809 
L 298.108538 40.467322 
L 300.184196 42.478933 
L 302.259854 44.916828 
L 304.335512 47.732763 
L 307.448998 52.746382 
L 309.524656 56.600044 
L 312.638143 62.932982 
L 314.713801 67.462242 
L 317.827288 74.722724 
L 321.978603 85.02219 
L 325.09209 93.113197 
L 329.243406 104.674533 
L 332.356892 114.0333 
L 336.508208 127.483998 
L 340.659524 142.127374 
L 346.886497 165.658894 
L 353.113471 189.119886 
L 357.264787 203.987037 
L 361.416102 217.914909 
L 364.529589 227.76168 
L 367.643076 237.104074 
L 371.794391 248.63937 
L 374.907878 256.728361 
L 379.059194 266.744048 
L 383.21051 276.209657 
L 388.399654 287.361127 
L 395.664457 302.444709 
L 398.777943 308.624674 
L 401.89143 314.438872 
L 405.004917 319.896875 
L 408.118404 324.91533 
L 411.23189 329.511387 
L 415.383206 335.163458 
L 419.534522 340.392356 
L 425.761495 347.833079 
L 429.912811 352.399145 
L 433.026298 355.532165 
L 436.139785 358.272948 
L 439.253271 360.637866 
L 441.328929 361.984543 
L 444.442416 363.682964 
L 447.555903 365.127497 
L 452.745047 367.175361 
L 465.198994 372.24172 
L 474.539455 376.119888 
L 479.728599 377.985472 
L 482.842086 378.980907 
L 488.031231 380.392045 
L 493.220375 381.55716 
L 498.40952 382.465751 
L 504.636493 383.252776 
L 511.901296 383.877299 
L 521.241756 384.374406 
L 533.695703 384.805623 
L 541.998334 384.890394 
L 549.263137 384.739424 
L 564.830571 384.272668 
L 564.830571 384.272668 
" clip-path="url(#p2375f36c2f)" style="fill: none; stroke: #0173b2; stroke-width: 1.2; stroke-linecap: round"/>
   </g>
   <g id="line2d_18">
    <path d="M 147.315629 377.91654 
L 400.985006 377.91654 
" clip-path="url(#p2375f36c2f)" style="fill: none; stroke: #1a1a1a; stroke-width: 2.4"/>
   </g>
   <g id="patch_3">
    <path d="M 7.983463 402.6075 
L 591.3471 402.6075 
" style="fill: none; stroke: #808080; stroke-linejoin: miter; stroke-linecap: square"/>
   </g>
   <g id="text_9">
    <!-- 0.039  -->
    <g style="fill: #262626" transform="translate(120.627629 359.65914) scale(0.096 -0.096)">
     <defs>
      <path id="ArialMT-39" d="M 350 1059 
L 891 1109 
Q 959 728 1153 556 
Q 1347 384 1650 384 
Q 1909 384 2104 503 
Q 2300 622 2425 820 
Q 2550 1019 2634 1356 
Q 2719 1694 2719 2044 
Q 2719 2081 2716 2156 
Q 2547 1888 2255 1720 
Q 1963 1553 1622 1553 
Q 1053 1553 659 1965 
Q 266 2378 266 3053 
Q 266 3750 677 4175 
Q 1088 4600 1706 4600 
Q 2153 4600 2523 4359 
Q 2894 4119 3086 3673 
Q 3278 3228 3278 2384 
Q 3278 1506 3087 986 
Q 2897 466 2520 194 
Q 2144 -78 1638 -78 
Q 1100 -78 759 220 
Q 419 519 350 1059 
z
M 2653 3081 
Q 2653 3566 2395 3850 
Q 2138 4134 1775 4134 
Q 1400 4134 1122 3828 
Q 844 3522 844 3034 
Q 844 2597 1108 2323 
Q 1372 2050 1759 2050 
Q 2150 2050 2401 2323 
Q 2653 2597 2653 3081 
z
" transform="scale(0.015625)"/>
      <path id="ArialMT-20" transform="scale(0.015625)"/>
     </defs>
     <use xlink:href="#ArialMT-30"/>
     <use xlink:href="#ArialMT-2e" x="55.615234"/>
     <use xlink:href="#ArialMT-30" x="83.398438"/>
     <use xlink:href="#ArialMT-33" x="139.013672"/>
     <use xlink:href="#ArialMT-39" x="194.628906"/>
     <use xlink:href="#ArialMT-20" x="250.244141"/>
    </g>
   </g>
   <g id="text_10">
    <!--  0.056 -->
    <g style="fill: #262626" transform="translate(400.985006 359.65914) scale(0.096 -0.096)">
     <use xlink:href="#ArialMT-20"/>
     <use xlink:href="#ArialMT-30" x="27.783203"/>
     <use xlink:href="#ArialMT-2e" x="83.398438"/>
     <use xlink:href="#ArialMT-30" x="111.181641"/>
     <use xlink:href="#ArialMT-35" x="166.796875"/>
     <use xlink:href="#ArialMT-36" x="222.412109"/>
    </g>
   </g>
   <g id="text_11">
    <!-- 94% HDI -->
    <g style="fill: #262626" transform="translate(254.943567 275.6751) scale(0.096 -0.096)">
     <defs>
      <path id="ArialMT-25" d="M 372 3481 
Q 372 3972 619 4315 
Q 866 4659 1334 4659 
Q 1766 4659 2048 4351 
Q 2331 4044 2331 3447 
Q 2331 2866 2045 2552 
Q 1759 2238 1341 2238 
Q 925 2238 648 2547 
Q 372 2856 372 3481 
z
M 1350 4272 
Q 1141 4272 1002 4090 
Q 863 3909 863 3425 
Q 863 2984 1003 2804 
Q 1144 2625 1350 2625 
Q 1563 2625 1702 2806 
Q 1841 2988 1841 3469 
Q 1841 3913 1700 4092 
Q 1559 4272 1350 4272 
z
M 1353 -169 
L 3859 4659 
L 4316 4659 
L 1819 -169 
L 1353 -169 
z
M 3334 1075 
Q 3334 1569 3581 1911 
Q 3828 2253 4300 2253 
Q 4731 2253 5014 1945 
Q 5297 1638 5297 1041 
Q 5297 459 5011 145 
Q 4725 -169 4303 -169 
Q 3888 -169 3611 142 
Q 3334 453 3334 1075 
z
M 4316 1866 
Q 4103 1866 3964 1684 
Q 3825 1503 3825 1019 
Q 3825 581 3965 400 
Q 4106 219 4313 219 
Q 4528 219 4667 400 
Q 4806 581 4806 1063 
Q 4806 1506 4665 1686 
Q 4525 1866 4316 1866 
z
" transform="scale(0.015625)"/>
      <path id="ArialMT-48" d="M 513 0 
L 513 4581 
L 1119 4581 
L 1119 2700 
L 3500 2700 
L 3500 4581 
L 4106 4581 
L 4106 0 
L 3500 0 
L 3500 2159 
L 1119 2159 
L 1119 0 
L 513 0 
z
" transform="scale(0.015625)"/>
      <path id="ArialMT-44" d="M 494 0 
L 494 4581 
L 2072 4581 
Q 2606 4581 2888 4516 
Q 3281 4425 3559 4188 
Q 3922 3881 4101 3404 
Q 4281 2928 4281 2316 
Q 4281 1794 4159 1391 
Q 4038 988 3847 723 
Q 3656 459 3429 307 
Q 3203 156 2883 78 
Q 2563 0 2147 0 
L 494 0 
z
M 1100 541 
L 2078 541 
Q 2531 541 2789 625 
Q 3047 709 3200 863 
Q 3416 1078 3536 1442 
Q 3656 1806 3656 2325 
Q 3656 3044 3420 3430 
Q 3184 3816 2847 3947 
Q 2603 4041 2063 4041 
L 1100 4041 
L 1100 541 
z
" transform="scale(0.015625)"/>
      <path id="ArialMT-49" d="M 597 0 
L 597 4581 
L 1203 4581 
L 1203 0 
L 597 0 
z
" transform="scale(0.015625)"/>
     </defs>
     <use xlink:href="#ArialMT-39"/>
     <use xlink:href="#ArialMT-34" x="55.615234"/>
     <use xlink:href="#ArialMT-25" x="111.230469"/>
     <use xlink:href="#ArialMT-20" x="200.146484"/>
     <use xlink:href="#ArialMT-48" x="227.929688"/>
     <use xlink:href="#ArialMT-44" x="300.146484"/>
     <use xlink:href="#ArialMT-49" x="372.363281"/>
    </g>
   </g>
   <g id="text_12">
    <!-- mean=0.048 -->
    <g style="fill: #262626" transform="translate(253.604238 93.1011) scale(0.096 -0.096)">
     <defs>
      <path id="ArialMT-6d" d="M 422 0 
L 422 3319 
L 925 3319 
L 925 2853 
Q 1081 3097 1340 3245 
Q 1600 3394 1931 3394 
Q 2300 3394 2536 3241 
Q 2772 3088 2869 2813 
Q 3263 3394 3894 3394 
Q 4388 3394 4653 3120 
Q 4919 2847 4919 2278 
L 4919 0 
L 4359 0 
L 4359 2091 
Q 4359 2428 4304 2576 
Q 4250 2725 4106 2815 
Q 3963 2906 3769 2906 
Q 3419 2906 3187 2673 
Q 2956 2441 2956 1928 
L 2956 0 
L 2394 0 
L 2394 2156 
Q 2394 2531 2256 2718 
Q 2119 2906 1806 2906 
Q 1569 2906 1367 2781 
Q 1166 2656 1075 2415 
Q 984 2175 984 1722 
L 984 0 
L 422 0 
z
" transform="scale(0.015625)"/>
      <path id="ArialMT-65" d="M 2694 1069 
L 3275 997 
Q 3138 488 2766 206 
Q 2394 -75 1816 -75 
Q 1088 -75 661 373 
Q 234 822 234 1631 
Q 234 2469 665 2931 
Q 1097 3394 1784 3394 
Q 2450 3394 2872 2941 
Q 3294 2488 3294 1666 
Q 3294 1616 3291 1516 
L 816 1516 
Q 847 969 1125 678 
Q 1403 388 1819 388 
Q 2128 388 2347 550 
Q 2566 713 2694 1069 
z
M 847 1978 
L 2700 1978 
Q 2663 2397 2488 2606 
Q 2219 2931 1791 2931 
Q 1403 2931 1139 2672 
Q 875 2413 847 1978 
z
" transform="scale(0.015625)"/>
      <path id="ArialMT-61" d="M 2588 409 
Q 2275 144 1986 34 
Q 1697 -75 1366 -75 
Q 819 -75 525 192 
Q 231 459 231 875 
Q 231 1119 342 1320 
Q 453 1522 633 1644 
Q 813 1766 1038 1828 
Q 1203 1872 1538 1913 
Q 2219 1994 2541 2106 
Q 2544 2222 2544 2253 
Q 2544 2597 2384 2738 
Q 2169 2928 1744 2928 
Q 1347 2928 1158 2789 
Q 969 2650 878 2297 
L 328 2372 
Q 403 2725 575 2942 
Q 747 3159 1072 3276 
Q 1397 3394 1825 3394 
Q 2250 3394 2515 3294 
Q 2781 3194 2906 3042 
Q 3031 2891 3081 2659 
Q 3109 2516 3109 2141 
L 3109 1391 
Q 3109 606 3145 398 
Q 3181 191 3288 0 
L 2700 0 
Q 2613 175 2588 409 
z
M 2541 1666 
Q 2234 1541 1622 1453 
Q 1275 1403 1131 1340 
Q 988 1278 909 1158 
Q 831 1038 831 891 
Q 831 666 1001 516 
Q 1172 366 1500 366 
Q 1825 366 2078 508 
Q 2331 650 2450 897 
Q 2541 1088 2541 1459 
L 2541 1666 
z
" transform="scale(0.015625)"/>
      <path id="ArialMT-6e" d="M 422 0 
L 422 3319 
L 928 3319 
L 928 2847 
Q 1294 3394 1984 3394 
Q 2284 3394 2536 3286 
Q 2788 3178 2913 3003 
Q 3038 2828 3088 2588 
Q 3119 2431 3119 2041 
L 3119 0 
L 2556 0 
L 2556 2019 
Q 2556 2363 2490 2533 
Q 2425 2703 2258 2804 
Q 2091 2906 1866 2906 
Q 1506 2906 1245 2678 
Q 984 2450 984 1813 
L 984 0 
L 422 0 
z
" transform="scale(0.015625)"/>
      <path id="ArialMT-3d" d="M 3381 2694 
L 356 2694 
L 356 3219 
L 3381 3219 
L 3381 2694 
z
M 3381 1303 
L 356 1303 
L 356 1828 
L 3381 1828 
L 3381 1303 
z
" transform="scale(0.015625)"/>
      <path id="ArialMT-38" d="M 1131 2484 
Q 781 2613 612 2850 
Q 444 3088 444 3419 
Q 444 3919 803 4259 
Q 1163 4600 1759 4600 
Q 2359 4600 2725 4251 
Q 3091 3903 3091 3403 
Q 3091 3084 2923 2848 
Q 2756 2613 2416 2484 
Q 2838 2347 3058 2040 
Q 3278 1734 3278 1309 
Q 3278 722 2862 322 
Q 2447 -78 1769 -78 
Q 1091 -78 675 323 
Q 259 725 259 1325 
Q 259 1772 486 2073 
Q 713 2375 1131 2484 
z
M 1019 3438 
Q 1019 3113 1228 2906 
Q 1438 2700 1772 2700 
Q 2097 2700 2305 2904 
Q 2513 3109 2513 3406 
Q 2513 3716 2298 3927 
Q 2084 4138 1766 4138 
Q 1444 4138 1231 3931 
Q 1019 3725 1019 3438 
z
M 838 1322 
Q 838 1081 952 856 
Q 1066 631 1291 507 
Q 1516 384 1775 384 
Q 2178 384 2440 643 
Q 2703 903 2703 1303 
Q 2703 1709 2433 1975 
Q 2163 2241 1756 2241 
Q 1359 2241 1098 1978 
Q 838 1716 838 1322 
z
" transform="scale(0.015625)"/>
     </defs>
     <use xlink:href="#ArialMT-6d"/>
     <use xlink:href="#ArialMT-65" x="83.300781"/>
     <use xlink:href="#ArialMT-61" x="138.916016"/>
     <use xlink:href="#ArialMT-6e" x="194.53125"/>
     <use xlink:href="#ArialMT-3d" x="250.146484"/>
     <use xlink:href="#ArialMT-30" x="308.544922"/>
     <use xlink:href="#ArialMT-2e" x="364.160156"/>
     <use xlink:href="#ArialMT-30" x="391.943359"/>
     <use xlink:href="#ArialMT-34" x="447.558594"/>
     <use xlink:href="#ArialMT-38" x="503.173828"/>
    </g>
   </g>
   <g id="text_13">
    <!-- mu -->
    <g style="fill: #262626" transform="translate(292.997781 14.0715) scale(0.096 -0.096)">
     <defs>
      <path id="ArialMT-75" d="M 2597 0 
L 2597 488 
Q 2209 -75 1544 -75 
Q 1250 -75 995 37 
Q 741 150 617 320 
Q 494 491 444 738 
Q 409 903 409 1263 
L 409 3319 
L 972 3319 
L 972 1478 
Q 972 1038 1006 884 
Q 1059 663 1231 536 
Q 1403 409 1656 409 
Q 1909 409 2131 539 
Q 2353 669 2445 892 
Q 2538 1116 2538 1541 
L 2538 3319 
L 3100 3319 
L 3100 0 
L 2597 0 
z
" transform="scale(0.015625)"/>
     </defs>
     <use xlink:href="#ArialMT-6d"/>
     <use xlink:href="#ArialMT-75" x="83.300781"/>
    </g>
   </g>
  </g>
  <g id="axes_2">
   <g id="patch_4">
    <path d="M 708.019827 402.6075 
L 1291.383463 402.6075 
L 1291.383463 20.0715 
L 708.019827 20.0715 
z
" style="fill: #eaeaf2"/>
   </g>
   <g id="matplotlib.axis_3">
    <g id="xtick_9">
     <g id="line2d_19">
      <path d="M 729.416669 402.6075 
L 729.416669 20.0715 
" clip-path="url(#pb3c5a477e3)" style="fill: none; stroke: #ffffff; stroke-width: 0.8; stroke-linecap: round"/>
     </g>
     <g id="line2d_20">
      <g>
       <use xlink:href="#mab956385c6" x="729.416669" y="402.6075" style="fill: #808080; stroke: #808080"/>
      </g>
     </g>
     <g id="text_14">
      <!-- 0.015 -->
      <g style="fill: #262626" transform="translate(718.407044 415.406375) scale(0.088 -0.088)">
       <defs>
        <path id="ArialMT-31" d="M 2384 0 
L 1822 0 
L 1822 3584 
Q 1619 3391 1289 3197 
Q 959 3003 697 2906 
L 697 3450 
Q 1169 3672 1522 3987 
Q 1875 4303 2022 4600 
L 2384 4600 
L 2384 0 
z
" transform="scale(0.015625)"/>
       </defs>
       <use xlink:href="#ArialMT-30"/>
       <use xlink:href="#ArialMT-2e" x="55.615234"/>
       <use xlink:href="#ArialMT-30" x="83.398438"/>
       <use xlink:href="#ArialMT-31" x="139.013672"/>
       <use xlink:href="#ArialMT-35" x="194.628906"/>
      </g>
     </g>
    </g>
    <g id="xtick_10">
     <g id="line2d_21">
      <path d="M 815.168069 402.6075 
L 815.168069 20.0715 
" clip-path="url(#pb3c5a477e3)" style="fill: none; stroke: #ffffff; stroke-width: 0.8; stroke-linecap: round"/>
     </g>
     <g id="line2d_22">
      <g>
       <use xlink:href="#mab956385c6" x="815.168069" y="402.6075" style="fill: #808080; stroke: #808080"/>
      </g>
     </g>
     <g id="text_15">
      <!-- 0.020 -->
      <g style="fill: #262626" transform="translate(804.158444 415.406375) scale(0.088 -0.088)">
       <defs>
        <path id="ArialMT-32" d="M 3222 541 
L 3222 0 
L 194 0 
Q 188 203 259 391 
Q 375 700 629 1000 
Q 884 1300 1366 1694 
Q 2113 2306 2375 2664 
Q 2638 3022 2638 3341 
Q 2638 3675 2398 3904 
Q 2159 4134 1775 4134 
Q 1369 4134 1125 3890 
Q 881 3647 878 3216 
L 300 3275 
Q 359 3922 746 4261 
Q 1134 4600 1788 4600 
Q 2447 4600 2831 4234 
Q 3216 3869 3216 3328 
Q 3216 3053 3103 2787 
Q 2991 2522 2730 2228 
Q 2469 1934 1863 1422 
Q 1356 997 1212 845 
Q 1069 694 975 541 
L 3222 541 
z
" transform="scale(0.015625)"/>
       </defs>
       <use xlink:href="#ArialMT-30"/>
       <use xlink:href="#ArialMT-2e" x="55.615234"/>
       <use xlink:href="#ArialMT-30" x="83.398438"/>
       <use xlink:href="#ArialMT-32" x="139.013672"/>
       <use xlink:href="#ArialMT-30" x="194.628906"/>
      </g>
     </g>
    </g>
    <g id="xtick_11">
     <g id="line2d_23">
      <path d="M 900.919469 402.6075 
L 900.919469 20.0715 
" clip-path="url(#pb3c5a477e3)" style="fill: none; stroke: #ffffff; stroke-width: 0.8; stroke-linecap: round"/>
     </g>
     <g id="line2d_24">
      <g>
       <use xlink:href="#mab956385c6" x="900.919469" y="402.6075" style="fill: #808080; stroke: #808080"/>
      </g>
     </g>
     <g id="text_16">
      <!-- 0.025 -->
      <g style="fill: #262626" transform="translate(889.909844 415.406375) scale(0.088 -0.088)">
       <use xlink:href="#ArialMT-30"/>
       <use xlink:href="#ArialMT-2e" x="55.615234"/>
       <use xlink:href="#ArialMT-30" x="83.398438"/>
       <use xlink:href="#ArialMT-32" x="139.013672"/>
       <use xlink:href="#ArialMT-35" x="194.628906"/>
      </g>
     </g>
    </g>
    <g id="xtick_12">
     <g id="line2d_25">
      <path d="M 986.670869 402.6075 
L 986.670869 20.0715 
" clip-path="url(#pb3c5a477e3)" style="fill: none; stroke: #ffffff; stroke-width: 0.8; stroke-linecap: round"/>
     </g>
     <g id="line2d_26">
      <g>
       <use xlink:href="#mab956385c6" x="986.670869" y="402.6075" style="fill: #808080; stroke: #808080"/>
      </g>
     </g>
     <g id="text_17">
      <!-- 0.030 -->
      <g style="fill: #262626" transform="translate(975.661244 415.406375) scale(0.088 -0.088)">
       <use xlink:href="#ArialMT-30"/>
       <use xlink:href="#ArialMT-2e" x="55.615234"/>
       <use xlink:href="#ArialMT-30" x="83.398438"/>
       <use xlink:href="#ArialMT-33" x="139.013672"/>
       <use xlink:href="#ArialMT-30" x="194.628906"/>
      </g>
     </g>
    </g>
    <g id="xtick_13">
     <g id="line2d_27">
      <path d="M 1072.422269 402.6075 
L 1072.422269 20.0715 
" clip-path="url(#pb3c5a477e3)" style="fill: none; stroke: #ffffff; stroke-width: 0.8; stroke-linecap: round"/>
     </g>
     <g id="line2d_28">
      <g>
       <use xlink:href="#mab956385c6" x="1072.422269" y="402.6075" style="fill: #808080; stroke: #808080"/>
      </g>
     </g>
     <g id="text_18">
      <!-- 0.035 -->
      <g style="fill: #262626" transform="translate(1061.412644 415.406375) scale(0.088 -0.088)">
       <use xlink:href="#ArialMT-30"/>
       <use xlink:href="#ArialMT-2e" x="55.615234"/>
       <use xlink:href="#ArialMT-30" x="83.398438"/>
       <use xlink:href="#ArialMT-33" x="139.013672"/>
       <use xlink:href="#ArialMT-35" x="194.628906"/>
      </g>
     </g>
    </g>
    <g id="xtick_14">
     <g id="line2d_29">
      <path d="M 1158.173669 402.6075 
L 1158.173669 20.0715 
" clip-path="url(#pb3c5a477e3)" style="fill: none; stroke: #ffffff; stroke-width: 0.8; stroke-linecap: round"/>
     </g>
     <g id="line2d_30">
      <g>
       <use xlink:href="#mab956385c6" x="1158.173669" y="402.6075" style="fill: #808080; stroke: #808080"/>
      </g>
     </g>
     <g id="text_19">
      <!-- 0.040 -->
      <g style="fill: #262626" transform="translate(1147.164044 415.406375) scale(0.088 -0.088)">
       <use xlink:href="#ArialMT-30"/>
       <use xlink:href="#ArialMT-2e" x="55.615234"/>
       <use xlink:href="#ArialMT-30" x="83.398438"/>
       <use xlink:href="#ArialMT-34" x="139.013672"/>
       <use xlink:href="#ArialMT-30" x="194.628906"/>
      </g>
     </g>
    </g>
    <g id="xtick_15">
     <g id="line2d_31">
      <path d="M 1243.925069 402.6075 
L 1243.925069 20.0715 
" clip-path="url(#pb3c5a477e3)" style="fill: none; stroke: #ffffff; stroke-width: 0.8; stroke-linecap: round"/>
     </g>
     <g id="line2d_32">
      <g>
       <use xlink:href="#mab956385c6" x="1243.925069" y="402.6075" style="fill: #808080; stroke: #808080"/>
      </g>
     </g>
     <g id="text_20">
      <!-- 0.045 -->
      <g style="fill: #262626" transform="translate(1232.915444 415.406375) scale(0.088 -0.088)">
       <use xlink:href="#ArialMT-30"/>
       <use xlink:href="#ArialMT-2e" x="55.615234"/>
       <use xlink:href="#ArialMT-30" x="83.398438"/>
       <use xlink:href="#ArialMT-34" x="139.013672"/>
       <use xlink:href="#ArialMT-35" x="194.628906"/>
      </g>
     </g>
    </g>
   </g>
   <g id="matplotlib.axis_4"/>
   <g id="PolyCollection_2">
    <defs>
     <path id="m69b2725a95" d="M 734.536356 -39.135875 
L 734.536356 -43.349125 
L 735.574185 -43.394277 
L 736.612014 -43.48617 
L 737.649843 -43.622514 
L 738.687672 -43.802855 
L 739.7255 -44.018243 
L 740.763329 -44.297541 
L 741.801158 -44.61483 
L 742.838987 -44.997008 
L 743.876816 -45.434931 
L 744.914645 -45.933706 
L 745.952474 -46.514931 
L 746.990303 -47.136677 
L 748.028132 -47.825063 
L 749.065961 -48.566912 
L 750.10379 -49.412371 
L 751.141619 -50.296335 
L 752.179448 -51.273242 
L 753.217276 -52.304981 
L 754.255105 -53.391938 
L 755.292934 -54.545918 
L 756.330763 -55.749354 
L 757.368592 -57.014787 
L 758.406421 -58.362273 
L 759.44425 -59.741553 
L 760.482079 -61.23598 
L 761.519908 -62.777015 
L 762.557737 -64.429587 
L 763.595566 -66.119714 
L 764.633395 -67.910974 
L 765.671223 -69.858724 
L 766.709052 -71.854167 
L 767.746881 -74.007092 
L 768.78471 -76.247918 
L 769.822539 -78.624663 
L 770.860368 -81.101534 
L 771.898197 -83.731341 
L 772.936026 -86.460384 
L 773.973855 -89.32827 
L 775.011684 -92.337101 
L 776.049513 -95.463574 
L 777.087342 -98.705472 
L 778.125171 -102.040509 
L 779.162999 -105.500539 
L 780.200828 -109.076778 
L 781.238657 -112.77066 
L 782.276486 -116.579184 
L 783.314315 -120.48627 
L 784.352144 -124.53038 
L 785.389973 -128.704515 
L 786.427802 -133.006115 
L 787.465631 -137.445224 
L 788.50346 -142.008466 
L 789.541289 -146.702499 
L 790.579118 -151.53948 
L 791.616946 -156.484522 
L 792.654775 -161.558864 
L 793.692604 -166.782949 
L 794.730433 -172.05204 
L 795.768262 -177.456124 
L 796.806091 -182.934848 
L 797.84392 -188.458354 
L 798.881749 -194.011925 
L 799.919578 -199.541447 
L 800.957407 -205.120438 
L 801.995236 -210.607611 
L 803.033065 -216.069608 
L 804.070894 -221.422579 
L 805.108722 -226.647427 
L 806.146551 -231.786335 
L 807.18438 -236.801187 
L 808.222209 -241.704888 
L 809.260038 -246.36477 
L 810.297867 -250.885616 
L 811.335696 -255.246012 
L 812.373525 -259.458096 
L 813.411354 -263.469468 
L 814.449183 -267.331633 
L 815.487012 -271.030666 
L 816.524841 -274.509351 
L 817.56267 -277.84685 
L 818.600498 -281.02683 
L 819.638327 -284.001587 
L 820.676156 -286.857008 
L 821.713985 -289.574764 
L 822.751814 -292.201944 
L 823.789643 -294.690009 
L 824.827472 -297.045776 
L 825.865301 -299.350392 
L 826.90313 -301.52075 
L 827.940959 -303.711617 
L 828.978788 -305.822771 
L 830.016617 -307.975024 
L 831.054445 -310.139122 
L 832.092274 -312.282313 
L 833.130103 -314.503132 
L 834.167932 -316.812503 
L 835.205761 -319.186909 
L 836.24359 -321.694705 
L 837.281419 -324.333311 
L 838.319248 -327.082762 
L 839.357077 -329.923679 
L 840.394906 -332.849747 
L 841.432735 -335.893801 
L 842.470564 -339.034891 
L 843.508393 -342.262482 
L 844.546221 -345.543309 
L 845.58405 -348.870528 
L 846.621879 -352.251133 
L 847.659708 -355.659323 
L 848.697537 -359.016658 
L 849.735366 -362.358511 
L 850.773195 -365.644187 
L 851.811024 -368.797931 
L 852.848853 -371.805972 
L 853.886682 -374.669886 
L 854.924511 -377.274251 
L 855.96234 -379.645421 
L 857.000169 -381.715976 
L 858.037997 -383.505765 
L 859.075826 -384.932658 
L 860.113655 -385.964636 
L 861.151484 -386.657511 
L 862.189313 -386.895875 
L 863.227142 -386.76567 
L 864.264971 -386.234161 
L 865.3028 -385.260544 
L 866.340629 -383.954999 
L 867.378458 -382.207391 
L 868.416287 -380.152905 
L 869.454116 -377.776688 
L 870.491944 -375.052747 
L 871.529773 -372.089154 
L 872.567602 -368.932457 
L 873.605431 -365.582015 
L 874.64326 -362.097297 
L 875.681089 -358.496098 
L 876.718918 -354.781443 
L 877.756747 -351.056486 
L 878.794576 -347.26717 
L 879.832405 -343.492483 
L 880.870234 -339.789484 
L 881.908063 -336.154516 
L 882.945892 -332.652556 
L 883.98372 -329.292999 
L 885.021549 -326.135368 
L 886.059378 -323.217509 
L 887.097207 -320.412115 
L 888.135036 -317.956892 
L 889.172865 -315.688217 
L 890.210694 -313.617644 
L 891.248523 -311.83334 
L 892.286352 -310.197441 
L 893.324181 -308.720582 
L 894.36201 -307.40062 
L 895.399839 -306.142953 
L 896.437667 -304.906219 
L 897.475496 -303.646847 
L 898.513325 -302.359776 
L 899.551154 -300.943269 
L 900.588983 -299.340666 
L 901.626812 -297.5277 
L 902.664641 -295.458486 
L 903.70247 -293.09726 
L 904.740299 -290.503707 
L 905.778128 -287.564609 
L 906.815957 -284.353764 
L 907.853786 -280.970114 
L 908.891615 -277.270339 
L 909.929443 -273.371952 
L 910.967272 -269.322027 
L 912.005101 -265.165835 
L 913.04293 -260.952243 
L 914.080759 -256.676016 
L 915.118588 -252.400681 
L 916.156417 -248.186281 
L 917.194246 -244.012517 
L 918.232075 -240.020027 
L 919.269904 -236.096339 
L 920.307733 -232.303695 
L 921.345562 -228.713153 
L 922.383391 -225.285449 
L 923.421219 -222.032021 
L 924.459048 -218.984143 
L 925.496877 -216.026825 
L 926.534706 -213.297258 
L 927.572535 -210.727589 
L 928.610364 -208.247655 
L 929.648193 -205.906147 
L 930.686022 -203.624778 
L 931.723851 -201.391943 
L 932.76168 -199.170373 
L 933.799509 -197.027532 
L 934.837338 -194.902174 
L 935.875166 -192.776216 
L 936.912995 -190.607241 
L 937.950824 -188.467037 
L 938.988653 -186.260794 
L 940.026482 -184.010602 
L 941.064311 -181.771043 
L 942.10214 -179.489486 
L 943.139969 -177.170323 
L 944.177798 -174.837939 
L 945.215627 -172.487419 
L 946.253456 -170.226843 
L 947.291285 -167.900889 
L 948.329114 -165.659979 
L 949.366942 -163.469939 
L 950.404771 -161.356483 
L 951.4426 -159.277719 
L 952.480429 -157.250143 
L 953.518258 -155.312247 
L 954.556087 -153.431198 
L 955.593916 -151.635354 
L 956.631745 -149.880696 
L 957.669574 -148.162271 
L 958.707403 -146.485596 
L 959.745232 -144.826186 
L 960.783061 -143.188058 
L 961.82089 -141.540136 
L 962.858718 -139.917244 
L 963.896547 -138.240862 
L 964.934376 -136.586974 
L 965.972205 -134.877401 
L 967.010034 -133.112321 
L 968.047863 -131.369959 
L 969.085692 -129.603062 
L 970.123521 -127.820537 
L 971.16135 -126.022872 
L 972.199179 -124.224193 
L 973.237008 -122.474218 
L 974.274837 -120.736015 
L 975.312665 -119.006976 
L 976.350494 -117.320695 
L 977.388323 -115.642195 
L 978.426152 -114.034475 
L 979.463981 -112.472382 
L 980.50181 -110.941186 
L 981.539639 -109.415369 
L 982.577468 -107.905686 
L 983.615297 -106.390556 
L 984.653126 -104.897886 
L 985.690955 -103.388967 
L 986.728784 -101.864184 
L 987.766613 -100.320183 
L 988.804441 -98.726051 
L 989.84227 -97.113057 
L 990.880099 -95.482467 
L 991.917928 -93.825958 
L 992.955757 -92.096272 
L 993.993586 -90.3843 
L 995.031415 -88.652882 
L 996.069244 -86.954599 
L 997.107073 -85.278266 
L 998.144902 -83.635509 
L 999.182731 -82.016948 
L 1000.22056 -80.471003 
L 1001.258388 -78.999015 
L 1002.296217 -77.617171 
L 1003.334046 -76.320508 
L 1004.371875 -75.089979 
L 1005.409704 -73.924574 
L 1006.447533 -72.839531 
L 1007.485362 -71.821175 
L 1008.523191 -70.886325 
L 1009.56102 -69.984055 
L 1010.598849 -69.149378 
L 1011.636678 -68.357294 
L 1012.674507 -67.579785 
L 1013.712336 -66.844165 
L 1014.750164 -66.127301 
L 1015.787993 -65.432787 
L 1016.825822 -64.758704 
L 1017.863651 -64.118853 
L 1018.90148 -63.487679 
L 1019.939309 -62.873154 
L 1020.977138 -62.276896 
L 1022.014967 -61.706725 
L 1023.052796 -61.155788 
L 1024.090625 -60.623132 
L 1025.128454 -60.123672 
L 1026.166283 -59.639008 
L 1027.204112 -59.170811 
L 1028.24194 -58.711191 
L 1029.279769 -58.269228 
L 1030.317598 -57.808041 
L 1031.355427 -57.360835 
L 1032.393256 -56.909412 
L 1033.431085 -56.463184 
L 1034.468914 -56.014181 
L 1035.506743 -55.55594 
L 1036.544572 -55.080134 
L 1037.582401 -54.618466 
L 1038.62023 -54.169344 
L 1039.658059 -53.69071 
L 1040.695887 -53.239411 
L 1041.733716 -52.799664 
L 1042.771545 -52.367576 
L 1043.809374 -51.94638 
L 1044.847203 -51.535632 
L 1045.885032 -51.130813 
L 1046.922861 -50.756774 
L 1047.96069 -50.404406 
L 1048.998519 -50.068533 
L 1050.036348 -49.754591 
L 1051.074177 -49.471059 
L 1052.112006 -49.214196 
L 1053.149835 -48.97432 
L 1054.187663 -48.748256 
L 1055.225492 -48.544341 
L 1056.263321 -48.354476 
L 1057.30115 -48.198952 
L 1058.338979 -48.055648 
L 1059.376808 -47.92033 
L 1060.414637 -47.813781 
L 1061.452466 -47.713217 
L 1062.490295 -47.612688 
L 1063.528124 -47.516834 
L 1064.565953 -47.421054 
L 1065.603782 -47.328984 
L 1066.641611 -47.227222 
L 1067.679439 -47.11516 
L 1068.717268 -46.997832 
L 1069.755097 -46.874626 
L 1070.792926 -46.734625 
L 1071.830755 -46.592971 
L 1072.868584 -46.435317 
L 1073.906413 -46.275772 
L 1074.944242 -46.119772 
L 1075.982071 -45.954216 
L 1077.0199 -45.798659 
L 1078.057729 -45.647865 
L 1079.095558 -45.49167 
L 1080.133386 -45.350516 
L 1081.171215 -45.209623 
L 1082.209044 -45.081725 
L 1083.246873 -44.971454 
L 1084.284702 -44.866467 
L 1085.322531 -44.766468 
L 1086.36036 -44.678632 
L 1087.398189 -44.593046 
L 1088.436018 -44.513429 
L 1089.473847 -44.442245 
L 1090.511676 -44.374408 
L 1091.549505 -44.306255 
L 1092.587334 -44.245252 
L 1093.625162 -44.19132 
L 1094.662991 -44.138136 
L 1095.70082 -44.089121 
L 1096.738649 -44.039632 
L 1097.776478 -43.983817 
L 1098.814307 -43.947435 
L 1099.852136 -43.909435 
L 1100.889965 -43.873622 
L 1101.927794 -43.840954 
L 1102.965623 -43.807178 
L 1104.003452 -43.775959 
L 1105.041281 -43.742018 
L 1106.079109 -43.70019 
L 1107.116938 -43.65315 
L 1108.154767 -43.60181 
L 1109.192596 -43.546162 
L 1110.230425 -43.478614 
L 1111.268254 -43.412017 
L 1112.306083 -43.350697 
L 1113.343912 -43.284029 
L 1114.381741 -43.217275 
L 1115.41957 -43.152389 
L 1116.457399 -43.091239 
L 1117.495228 -43.032133 
L 1118.533057 -42.988779 
L 1119.570885 -42.943162 
L 1120.608714 -42.911213 
L 1121.646543 -42.888034 
L 1122.684372 -42.876245 
L 1123.722201 -42.874954 
L 1124.76003 -42.87512 
L 1125.797859 -42.874953 
L 1126.835688 -42.880024 
L 1127.873517 -42.883415 
L 1128.911346 -42.879487 
L 1129.949175 -42.873711 
L 1130.987004 -42.859458 
L 1132.024833 -42.835084 
L 1133.062661 -42.799324 
L 1134.10049 -42.747993 
L 1135.138319 -42.688403 
L 1136.176148 -42.609317 
L 1137.213977 -42.523322 
L 1138.251806 -42.429791 
L 1139.289635 -42.325425 
L 1140.327464 -42.211767 
L 1141.365293 -42.090422 
L 1142.403122 -41.956287 
L 1143.440951 -41.826267 
L 1144.47878 -41.689193 
L 1145.516608 -41.554138 
L 1146.554437 -41.417673 
L 1147.592266 -41.280857 
L 1148.630095 -41.144556 
L 1149.667924 -41.009486 
L 1150.705753 -40.876242 
L 1151.743582 -40.745342 
L 1152.781411 -40.613913 
L 1153.81924 -40.486753 
L 1154.857069 -40.372106 
L 1155.894898 -40.258322 
L 1156.932727 -40.149494 
L 1157.970556 -40.046356 
L 1159.008384 -39.946279 
L 1160.046213 -39.857639 
L 1161.084042 -39.776456 
L 1162.121871 -39.699997 
L 1163.1597 -39.633101 
L 1164.197529 -39.575864 
L 1165.235358 -39.531646 
L 1166.273187 -39.496012 
L 1167.311016 -39.465657 
L 1168.348845 -39.448108 
L 1169.386674 -39.438392 
L 1170.424503 -39.436021 
L 1171.462331 -39.436969 
L 1172.50016 -39.448079 
L 1173.537989 -39.463751 
L 1174.575818 -39.482944 
L 1175.613647 -39.504521 
L 1176.651476 -39.527286 
L 1177.689305 -39.546676 
L 1178.727134 -39.569196 
L 1179.764963 -39.589126 
L 1180.802792 -39.605541 
L 1181.840621 -39.617656 
L 1182.87845 -39.621515 
L 1183.916279 -39.6244 
L 1184.954107 -39.621515 
L 1185.991936 -39.61296 
L 1187.029765 -39.599035 
L 1188.067594 -39.580221 
L 1189.105423 -39.55715 
L 1190.143252 -39.530572 
L 1191.181081 -39.501316 
L 1192.21891 -39.470243 
L 1193.256739 -39.438208 
L 1194.294568 -39.406023 
L 1195.332397 -39.374421 
L 1196.370226 -39.344034 
L 1197.408055 -39.315379 
L 1198.445883 -39.288845 
L 1199.483712 -39.264698 
L 1200.521541 -39.243085 
L 1201.55937 -39.224047 
L 1202.597199 -39.207536 
L 1203.635028 -39.19343 
L 1204.672857 -39.181557 
L 1205.710686 -39.171706 
L 1206.748515 -39.163648 
L 1207.786344 -39.157149 
L 1208.824173 -39.151979 
L 1209.862002 -39.147921 
L 1210.89983 -39.14478 
L 1211.937659 -39.14238 
L 1212.975488 -39.140571 
L 1214.013317 -39.135875 
L 1215.051146 -39.135875 
L 1216.088975 -39.135875 
L 1217.126804 -39.135875 
L 1218.164633 -39.135875 
L 1219.202462 -39.135875 
L 1220.240291 -39.135875 
L 1221.27812 -39.135875 
L 1222.315949 -39.135875 
L 1223.353778 -39.135875 
L 1224.391606 -39.135875 
L 1225.429435 -39.135875 
L 1226.467264 -39.135875 
L 1227.505093 -39.135875 
L 1228.542922 -39.135875 
L 1229.580751 -39.135875 
L 1230.61858 -39.135875 
L 1231.656409 -39.135875 
L 1232.694238 -39.135875 
L 1233.732067 -39.135875 
L 1234.769896 -39.135875 
L 1235.807725 -39.140571 
L 1236.845554 -39.147077 
L 1237.883382 -39.151285 
L 1238.921211 -39.156826 
L 1239.95904 -39.164025 
L 1240.996869 -39.173252 
L 1242.034698 -39.184922 
L 1243.072527 -39.199479 
L 1244.110356 -39.217388 
L 1245.148185 -39.239112 
L 1246.186014 -39.265091 
L 1247.223843 -39.295708 
L 1248.261672 -39.331257 
L 1249.299501 -39.371908 
L 1250.337329 -39.417669 
L 1251.375158 -39.468349 
L 1252.412987 -39.523538 
L 1253.450816 -39.58258 
L 1254.488645 -39.644568 
L 1255.526474 -39.708356 
L 1256.564303 -39.772576 
L 1257.602132 -39.835684 
L 1258.639961 -39.896013 
L 1259.67779 -39.951848 
L 1260.715619 -40.001496 
L 1261.753448 -40.043382 
L 1262.791277 -40.076121 
L 1263.829105 -40.0986 
L 1264.866934 -40.11004 
L 1264.866934 -39.135875 
L 1264.866934 -39.135875 
L 1263.829105 -39.135875 
L 1262.791277 -39.135875 
L 1261.753448 -39.135875 
L 1260.715619 -39.135875 
L 1259.67779 -39.135875 
L 1258.639961 -39.135875 
L 1257.602132 -39.135875 
L 1256.564303 -39.135875 
L 1255.526474 -39.135875 
L 1254.488645 -39.135875 
L 1253.450816 -39.135875 
L 1252.412987 -39.135875 
L 1251.375158 -39.135875 
L 1250.337329 -39.135875 
L 1249.299501 -39.135875 
L 1248.261672 -39.135875 
L 1247.223843 -39.135875 
L 1246.186014 -39.135875 
L 1245.148185 -39.135875 
L 1244.110356 -39.135875 
L 1243.072527 -39.135875 
L 1242.034698 -39.135875 
L 1240.996869 -39.135875 
L 1239.95904 -39.135875 
L 1238.921211 -39.135875 
L 1237.883382 -39.135875 
L 1236.845554 -39.135875 
L 1235.807725 -39.135875 
L 1234.769896 -39.135875 
L 1233.732067 -39.135875 
L 1232.694238 -39.135875 
L 1231.656409 -39.135875 
L 1230.61858 -39.135875 
L 1229.580751 -39.135875 
L 1228.542922 -39.135875 
L 1227.505093 -39.135875 
L 1226.467264 -39.135875 
L 1225.429435 -39.135875 
L 1224.391606 -39.135875 
L 1223.353778 -39.135875 
L 1222.315949 -39.135875 
L 1221.27812 -39.135875 
L 1220.240291 -39.135875 
L 1219.202462 -39.135875 
L 1218.164633 -39.135875 
L 1217.126804 -39.135875 
L 1216.088975 -39.135875 
L 1215.051146 -39.135875 
L 1214.013317 -39.135875 
L 1212.975488 -39.135875 
L 1211.937659 -39.135875 
L 1210.89983 -39.135875 
L 1209.862002 -39.135875 
L 1208.824173 -39.135875 
L 1207.786344 -39.135875 
L 1206.748515 -39.135875 
L 1205.710686 -39.135875 
L 1204.672857 -39.135875 
L 1203.635028 -39.135875 
L 1202.597199 -39.135875 
L 1201.55937 -39.135875 
L 1200.521541 -39.135875 
L 1199.483712 -39.135875 
L 1198.445883 -39.135875 
L 1197.408055 -39.135875 
L 1196.370226 -39.135875 
L 1195.332397 -39.135875 
L 1194.294568 -39.135875 
L 1193.256739 -39.135875 
L 1192.21891 -39.135875 
L 1191.181081 -39.135875 
L 1190.143252 -39.135875 
L 1189.105423 -39.135875 
L 1188.067594 -39.135875 
L 1187.029765 -39.135875 
L 1185.991936 -39.135875 
L 1184.954107 -39.135875 
L 1183.916279 -39.135875 
L 1182.87845 -39.135875 
L 1181.840621 -39.135875 
L 1180.802792 -39.135875 
L 1179.764963 -39.135875 
L 1178.727134 -39.135875 
L 1177.689305 -39.135875 
L 1176.651476 -39.135875 
L 1175.613647 -39.135875 
L 1174.575818 -39.135875 
L 1173.537989 -39.135875 
L 1172.50016 -39.135875 
L 1171.462331 -39.135875 
L 1170.424503 -39.135875 
L 1169.386674 -39.135875 
L 1168.348845 -39.135875 
L 1167.311016 -39.135875 
L 1166.273187 -39.135875 
L 1165.235358 -39.135875 
L 1164.197529 -39.135875 
L 1163.1597 -39.135875 
L 1162.121871 -39.135875 
L 1161.084042 -39.135875 
L 1160.046213 -39.135875 
L 1159.008384 -39.135875 
L 1157.970556 -39.135875 
L 1156.932727 -39.135875 
L 1155.894898 -39.135875 
L 1154.857069 -39.135875 
L 1153.81924 -39.135875 
L 1152.781411 -39.135875 
L 1151.743582 -39.135875 
L 1150.705753 -39.135875 
L 1149.667924 -39.135875 
L 1148.630095 -39.135875 
L 1147.592266 -39.135875 
L 1146.554437 -39.135875 
L 1145.516608 -39.135875 
L 1144.47878 -39.135875 
L 1143.440951 -39.135875 
L 1142.403122 -39.135875 
L 1141.365293 -39.135875 
L 1140.327464 -39.135875 
L 1139.289635 -39.135875 
L 1138.251806 -39.135875 
L 1137.213977 -39.135875 
L 1136.176148 -39.135875 
L 1135.138319 -39.135875 
L 1134.10049 -39.135875 
L 1133.062661 -39.135875 
L 1132.024833 -39.135875 
L 1130.987004 -39.135875 
L 1129.949175 -39.135875 
L 1128.911346 -39.135875 
L 1127.873517 -39.135875 
L 1126.835688 -39.135875 
L 1125.797859 -39.135875 
L 1124.76003 -39.135875 
L 1123.722201 -39.135875 
L 1122.684372 -39.135875 
L 1121.646543 -39.135875 
L 1120.608714 -39.135875 
L 1119.570885 -39.135875 
L 1118.533057 -39.135875 
L 1117.495228 -39.135875 
L 1116.457399 -39.135875 
L 1115.41957 -39.135875 
L 1114.381741 -39.135875 
L 1113.343912 -39.135875 
L 1112.306083 -39.135875 
L 1111.268254 -39.135875 
L 1110.230425 -39.135875 
L 1109.192596 -39.135875 
L 1108.154767 -39.135875 
L 1107.116938 -39.135875 
L 1106.079109 -39.135875 
L 1105.041281 -39.135875 
L 1104.003452 -39.135875 
L 1102.965623 -39.135875 
L 1101.927794 -39.135875 
L 1100.889965 -39.135875 
L 1099.852136 -39.135875 
L 1098.814307 -39.135875 
L 1097.776478 -39.135875 
L 1096.738649 -39.135875 
L 1095.70082 -39.135875 
L 1094.662991 -39.135875 
L 1093.625162 -39.135875 
L 1092.587334 -39.135875 
L 1091.549505 -39.135875 
L 1090.511676 -39.135875 
L 1089.473847 -39.135875 
L 1088.436018 -39.135875 
L 1087.398189 -39.135875 
L 1086.36036 -39.135875 
L 1085.322531 -39.135875 
L 1084.284702 -39.135875 
L 1083.246873 -39.135875 
L 1082.209044 -39.135875 
L 1081.171215 -39.135875 
L 1080.133386 -39.135875 
L 1079.095558 -39.135875 
L 1078.057729 -39.135875 
L 1077.0199 -39.135875 
L 1075.982071 -39.135875 
L 1074.944242 -39.135875 
L 1073.906413 -39.135875 
L 1072.868584 -39.135875 
L 1071.830755 -39.135875 
L 1070.792926 -39.135875 
L 1069.755097 -39.135875 
L 1068.717268 -39.135875 
L 1067.679439 -39.135875 
L 1066.641611 -39.135875 
L 1065.603782 -39.135875 
L 1064.565953 -39.135875 
L 1063.528124 -39.135875 
L 1062.490295 -39.135875 
L 1061.452466 -39.135875 
L 1060.414637 -39.135875 
L 1059.376808 -39.135875 
L 1058.338979 -39.135875 
L 1057.30115 -39.135875 
L 1056.263321 -39.135875 
L 1055.225492 -39.135875 
L 1054.187663 -39.135875 
L 1053.149835 -39.135875 
L 1052.112006 -39.135875 
L 1051.074177 -39.135875 
L 1050.036348 -39.135875 
L 1048.998519 -39.135875 
L 1047.96069 -39.135875 
L 1046.922861 -39.135875 
L 1045.885032 -39.135875 
L 1044.847203 -39.135875 
L 1043.809374 -39.135875 
L 1042.771545 -39.135875 
L 1041.733716 -39.135875 
L 1040.695887 -39.135875 
L 1039.658059 -39.135875 
L 1038.62023 -39.135875 
L 1037.582401 -39.135875 
L 1036.544572 -39.135875 
L 1035.506743 -39.135875 
L 1034.468914 -39.135875 
L 1033.431085 -39.135875 
L 1032.393256 -39.135875 
L 1031.355427 -39.135875 
L 1030.317598 -39.135875 
L 1029.279769 -39.135875 
L 1028.24194 -39.135875 
L 1027.204112 -39.135875 
L 1026.166283 -39.135875 
L 1025.128454 -39.135875 
L 1024.090625 -39.135875 
L 1023.052796 -39.135875 
L 1022.014967 -39.135875 
L 1020.977138 -39.135875 
L 1019.939309 -39.135875 
L 1018.90148 -39.135875 
L 1017.863651 -39.135875 
L 1016.825822 -39.135875 
L 1015.787993 -39.135875 
L 1014.750164 -39.135875 
L 1013.712336 -39.135875 
L 1012.674507 -39.135875 
L 1011.636678 -39.135875 
L 1010.598849 -39.135875 
L 1009.56102 -39.135875 
L 1008.523191 -39.135875 
L 1007.485362 -39.135875 
L 1006.447533 -39.135875 
L 1005.409704 -39.135875 
L 1004.371875 -39.135875 
L 1003.334046 -39.135875 
L 1002.296217 -39.135875 
L 1001.258388 -39.135875 
L 1000.22056 -39.135875 
L 999.182731 -39.135875 
L 998.144902 -39.135875 
L 997.107073 -39.135875 
L 996.069244 -39.135875 
L 995.031415 -39.135875 
L 993.993586 -39.135875 
L 992.955757 -39.135875 
L 991.917928 -39.135875 
L 990.880099 -39.135875 
L 989.84227 -39.135875 
L 988.804441 -39.135875 
L 987.766613 -39.135875 
L 986.728784 -39.135875 
L 985.690955 -39.135875 
L 984.653126 -39.135875 
L 983.615297 -39.135875 
L 982.577468 -39.135875 
L 981.539639 -39.135875 
L 980.50181 -39.135875 
L 979.463981 -39.135875 
L 978.426152 -39.135875 
L 977.388323 -39.135875 
L 976.350494 -39.135875 
L 975.312665 -39.135875 
L 974.274837 -39.135875 
L 973.237008 -39.135875 
L 972.199179 -39.135875 
L 971.16135 -39.135875 
L 970.123521 -39.135875 
L 969.085692 -39.135875 
L 968.047863 -39.135875 
L 967.010034 -39.135875 
L 965.972205 -39.135875 
L 964.934376 -39.135875 
L 963.896547 -39.135875 
L 962.858718 -39.135875 
L 961.82089 -39.135875 
L 960.783061 -39.135875 
L 959.745232 -39.135875 
L 958.707403 -39.135875 
L 957.669574 -39.135875 
L 956.631745 -39.135875 
L 955.593916 -39.135875 
L 954.556087 -39.135875 
L 953.518258 -39.135875 
L 952.480429 -39.135875 
L 951.4426 -39.135875 
L 950.404771 -39.135875 
L 949.366942 -39.135875 
L 948.329114 -39.135875 
L 947.291285 -39.135875 
L 946.253456 -39.135875 
L 945.215627 -39.135875 
L 944.177798 -39.135875 
L 943.139969 -39.135875 
L 942.10214 -39.135875 
L 941.064311 -39.135875 
L 940.026482 -39.135875 
L 938.988653 -39.135875 
L 937.950824 -39.135875 
L 936.912995 -39.135875 
L 935.875166 -39.135875 
L 934.837338 -39.135875 
L 933.799509 -39.135875 
L 932.76168 -39.135875 
L 931.723851 -39.135875 
L 930.686022 -39.135875 
L 929.648193 -39.135875 
L 928.610364 -39.135875 
L 927.572535 -39.135875 
L 926.534706 -39.135875 
L 925.496877 -39.135875 
L 924.459048 -39.135875 
L 923.421219 -39.135875 
L 922.383391 -39.135875 
L 921.345562 -39.135875 
L 920.307733 -39.135875 
L 919.269904 -39.135875 
L 918.232075 -39.135875 
L 917.194246 -39.135875 
L 916.156417 -39.135875 
L 915.118588 -39.135875 
L 914.080759 -39.135875 
L 913.04293 -39.135875 
L 912.005101 -39.135875 
L 910.967272 -39.135875 
L 909.929443 -39.135875 
L 908.891615 -39.135875 
L 907.853786 -39.135875 
L 906.815957 -39.135875 
L 905.778128 -39.135875 
L 904.740299 -39.135875 
L 903.70247 -39.135875 
L 902.664641 -39.135875 
L 901.626812 -39.135875 
L 900.588983 -39.135875 
L 899.551154 -39.135875 
L 898.513325 -39.135875 
L 897.475496 -39.135875 
L 896.437667 -39.135875 
L 895.399839 -39.135875 
L 894.36201 -39.135875 
L 893.324181 -39.135875 
L 892.286352 -39.135875 
L 891.248523 -39.135875 
L 890.210694 -39.135875 
L 889.172865 -39.135875 
L 888.135036 -39.135875 
L 887.097207 -39.135875 
L 886.059378 -39.135875 
L 885.021549 -39.135875 
L 883.98372 -39.135875 
L 882.945892 -39.135875 
L 881.908063 -39.135875 
L 880.870234 -39.135875 
L 879.832405 -39.135875 
L 878.794576 -39.135875 
L 877.756747 -39.135875 
L 876.718918 -39.135875 
L 875.681089 -39.135875 
L 874.64326 -39.135875 
L 873.605431 -39.135875 
L 872.567602 -39.135875 
L 871.529773 -39.135875 
L 870.491944 -39.135875 
L 869.454116 -39.135875 
L 868.416287 -39.135875 
L 867.378458 -39.135875 
L 866.340629 -39.135875 
L 865.3028 -39.135875 
L 864.264971 -39.135875 
L 863.227142 -39.135875 
L 862.189313 -39.135875 
L 861.151484 -39.135875 
L 860.113655 -39.135875 
L 859.075826 -39.135875 
L 858.037997 -39.135875 
L 857.000169 -39.135875 
L 855.96234 -39.135875 
L 854.924511 -39.135875 
L 853.886682 -39.135875 
L 852.848853 -39.135875 
L 851.811024 -39.135875 
L 850.773195 -39.135875 
L 849.735366 -39.135875 
L 848.697537 -39.135875 
L 847.659708 -39.135875 
L 846.621879 -39.135875 
L 845.58405 -39.135875 
L 844.546221 -39.135875 
L 843.508393 -39.135875 
L 842.470564 -39.135875 
L 841.432735 -39.135875 
L 840.394906 -39.135875 
L 839.357077 -39.135875 
L 838.319248 -39.135875 
L 837.281419 -39.135875 
L 836.24359 -39.135875 
L 835.205761 -39.135875 
L 834.167932 -39.135875 
L 833.130103 -39.135875 
L 832.092274 -39.135875 
L 831.054445 -39.135875 
L 830.016617 -39.135875 
L 828.978788 -39.135875 
L 827.940959 -39.135875 
L 826.90313 -39.135875 
L 825.865301 -39.135875 
L 824.827472 -39.135875 
L 823.789643 -39.135875 
L 822.751814 -39.135875 
L 821.713985 -39.135875 
L 820.676156 -39.135875 
L 819.638327 -39.135875 
L 818.600498 -39.135875 
L 817.56267 -39.135875 
L 816.524841 -39.135875 
L 815.487012 -39.135875 
L 814.449183 -39.135875 
L 813.411354 -39.135875 
L 812.373525 -39.135875 
L 811.335696 -39.135875 
L 810.297867 -39.135875 
L 809.260038 -39.135875 
L 808.222209 -39.135875 
L 807.18438 -39.135875 
L 806.146551 -39.135875 
L 805.108722 -39.135875 
L 804.070894 -39.135875 
L 803.033065 -39.135875 
L 801.995236 -39.135875 
L 800.957407 -39.135875 
L 799.919578 -39.135875 
L 798.881749 -39.135875 
L 797.84392 -39.135875 
L 796.806091 -39.135875 
L 795.768262 -39.135875 
L 794.730433 -39.135875 
L 793.692604 -39.135875 
L 792.654775 -39.135875 
L 791.616946 -39.135875 
L 790.579118 -39.135875 
L 789.541289 -39.135875 
L 788.50346 -39.135875 
L 787.465631 -39.135875 
L 786.427802 -39.135875 
L 785.389973 -39.135875 
L 784.352144 -39.135875 
L 783.314315 -39.135875 
L 782.276486 -39.135875 
L 781.238657 -39.135875 
L 780.200828 -39.135875 
L 779.162999 -39.135875 
L 778.125171 -39.135875 
L 777.087342 -39.135875 
L 776.049513 -39.135875 
L 775.011684 -39.135875 
L 773.973855 -39.135875 
L 772.936026 -39.135875 
L 771.898197 -39.135875 
L 770.860368 -39.135875 
L 769.822539 -39.135875 
L 768.78471 -39.135875 
L 767.746881 -39.135875 
L 766.709052 -39.135875 
L 765.671223 -39.135875 
L 764.633395 -39.135875 
L 763.595566 -39.135875 
L 762.557737 -39.135875 
L 761.519908 -39.135875 
L 760.482079 -39.135875 
L 759.44425 -39.135875 
L 758.406421 -39.135875 
L 757.368592 -39.135875 
L 756.330763 -39.135875 
L 755.292934 -39.135875 
L 754.255105 -39.135875 
L 753.217276 -39.135875 
L 752.179448 -39.135875 
L 751.141619 -39.135875 
L 750.10379 -39.135875 
L 749.065961 -39.135875 
L 748.028132 -39.135875 
L 746.990303 -39.135875 
L 745.952474 -39.135875 
L 744.914645 -39.135875 
L 743.876816 -39.135875 
L 742.838987 -39.135875 
L 741.801158 -39.135875 
L 740.763329 -39.135875 
L 739.7255 -39.135875 
L 738.687672 -39.135875 
L 737.649843 -39.135875 
L 736.612014 -39.135875 
L 735.574185 -39.135875 
L 734.536356 -39.135875 
z
" style="stroke: #0173b2; stroke-opacity: 0; stroke-width: 0.8"/>
    </defs>
    <g clip-path="url(#pb3c5a477e3)">
     <use xlink:href="#m69b2725a95" x="0" y="424.355375" style="fill: #0173b2; fill-opacity: 0; stroke: #0173b2; stroke-opacity: 0; stroke-width: 0.8"/>
    </g>
   </g>
   <g id="line2d_33">
    <path d="M 734.536356 381.00625 
L 736.612014 380.869205 
L 738.687672 380.55252 
L 740.763329 380.057834 
L 742.838987 379.358367 
L 744.914645 378.421669 
L 746.990303 377.218698 
L 749.065961 375.788463 
L 751.141619 374.05904 
L 753.217276 372.050394 
L 755.292934 369.809457 
L 757.368592 367.340588 
L 760.482079 363.119395 
L 762.557737 359.925788 
L 764.633395 356.444401 
L 766.709052 352.501208 
L 768.78471 348.107457 
L 770.860368 343.253841 
L 772.936026 337.894991 
L 775.011684 332.018274 
L 778.125171 322.314866 
L 781.238657 311.584715 
L 784.352144 299.824995 
L 787.465631 286.910151 
L 790.579118 272.815895 
L 793.692604 257.572426 
L 796.806091 241.420527 
L 805.108722 197.707948 
L 808.222209 182.650487 
L 811.335696 169.109363 
L 813.411354 160.885907 
L 815.487012 153.324709 
L 817.56267 146.508525 
L 819.638327 140.353788 
L 821.713985 134.780611 
L 823.789643 129.665366 
L 826.90313 122.834625 
L 835.205761 105.168466 
L 837.281419 100.022064 
L 840.394906 91.505628 
L 843.508393 82.092893 
L 848.697537 65.338717 
L 851.811024 55.557444 
L 853.886682 49.685489 
L 855.96234 44.709954 
L 857.000169 42.639399 
L 858.037997 40.84961 
L 859.075826 39.422717 
L 860.113655 38.390739 
L 861.151484 37.697864 
L 862.189313 37.4595 
L 863.227142 37.589705 
L 864.264971 38.121214 
L 865.3028 39.094831 
L 866.340629 40.400376 
L 867.378458 42.147984 
L 868.416287 44.20247 
L 869.454116 46.578687 
L 871.529773 52.266221 
L 873.605431 58.77336 
L 876.718918 69.573932 
L 882.945892 91.702819 
L 885.021549 98.220007 
L 887.097207 103.94326 
L 889.172865 108.667158 
L 890.210694 110.737731 
L 892.286352 114.157934 
L 894.36201 116.954755 
L 899.551154 123.412106 
L 900.588983 125.014709 
L 901.626812 126.827675 
L 902.664641 128.896889 
L 904.740299 133.851668 
L 906.815957 140.001611 
L 908.891615 147.085036 
L 912.005101 159.18954 
L 919.269904 188.259036 
L 921.345562 195.642222 
L 923.421219 202.323354 
L 925.496877 208.32855 
L 927.572535 213.627786 
L 929.648193 218.449228 
L 933.799509 227.327843 
L 938.988653 238.094581 
L 944.177798 249.517436 
L 948.329114 258.695396 
L 951.4426 265.077656 
L 954.556087 270.924177 
L 957.669574 276.193104 
L 969.085692 294.752313 
L 976.350494 307.03468 
L 979.463981 311.882993 
L 990.880099 328.872908 
L 995.031415 335.702493 
L 999.182731 342.338427 
L 1001.258388 345.35636 
L 1003.334046 348.034867 
L 1005.409704 350.430801 
L 1007.485362 352.5342 
L 1010.598849 355.205997 
L 1013.712336 357.51121 
L 1016.825822 359.596671 
L 1020.977138 362.078479 
L 1024.090625 363.732243 
L 1028.24194 365.644184 
L 1037.582401 369.736909 
L 1045.885032 373.224562 
L 1048.998519 374.286842 
L 1052.112006 375.141179 
L 1056.263321 376.000899 
L 1060.414637 376.541594 
L 1070.792926 377.62075 
L 1086.36036 379.676743 
L 1092.587334 380.110123 
L 1102.965623 380.548197 
L 1110.230425 380.876761 
L 1120.608714 381.444162 
L 1126.835688 381.475351 
L 1133.062661 381.556051 
L 1137.213977 381.832053 
L 1142.403122 382.399088 
L 1160.046213 384.497736 
L 1165.235358 384.823729 
L 1170.424503 384.919354 
L 1177.689305 384.808699 
L 1184.954107 384.73386 
L 1192.21891 384.885132 
L 1204.672857 385.173818 
L 1220.240291 385.2195 
L 1245.148185 385.116263 
L 1252.412987 384.831837 
L 1263.829105 384.256775 
L 1264.866934 384.245335 
L 1264.866934 384.245335 
" clip-path="url(#pb3c5a477e3)" style="fill: none; stroke: #0173b2; stroke-width: 1.2; stroke-linecap: round"/>
   </g>
   <g id="line2d_34">
    <path d="M 781.188615 377.91654 
L 994.449324 377.91654 
" clip-path="url(#pb3c5a477e3)" style="fill: none; stroke: #1a1a1a; stroke-width: 2.4"/>
   </g>
   <g id="patch_5">
    <path d="M 708.019827 402.6075 
L 1291.383463 402.6075 
" style="fill: none; stroke: #808080; stroke-linejoin: miter; stroke-linecap: square"/>
   </g>
   <g id="text_21">
    <!-- 0.018  -->
    <g style="fill: #262626" transform="translate(754.500615 359.65914) scale(0.096 -0.096)">
     <use xlink:href="#ArialMT-30"/>
     <use xlink:href="#ArialMT-2e" x="55.615234"/>
     <use xlink:href="#ArialMT-30" x="83.398438"/>
     <use xlink:href="#ArialMT-31" x="139.013672"/>
     <use xlink:href="#ArialMT-38" x="194.628906"/>
     <use xlink:href="#ArialMT-20" x="250.244141"/>
    </g>
   </g>
   <g id="text_22">
    <!--  0.03 -->
    <g style="fill: #262626" transform="translate(994.449324 359.65914) scale(0.096 -0.096)">
     <use xlink:href="#ArialMT-20"/>
     <use xlink:href="#ArialMT-30" x="27.783203"/>
     <use xlink:href="#ArialMT-2e" x="83.398438"/>
     <use xlink:href="#ArialMT-30" x="111.181641"/>
     <use xlink:href="#ArialMT-33" x="166.796875"/>
    </g>
   </g>
   <g id="text_23">
    <!-- 94% HDI -->
    <g style="fill: #262626" transform="translate(868.61222 275.6751) scale(0.096 -0.096)">
     <use xlink:href="#ArialMT-39"/>
     <use xlink:href="#ArialMT-34" x="55.615234"/>
     <use xlink:href="#ArialMT-25" x="111.230469"/>
     <use xlink:href="#ArialMT-20" x="200.146484"/>
     <use xlink:href="#ArialMT-48" x="227.929688"/>
     <use xlink:href="#ArialMT-44" x="300.146484"/>
     <use xlink:href="#ArialMT-49" x="372.363281"/>
    </g>
   </g>
   <g id="text_24">
    <!-- mean=0.024 -->
    <g style="fill: #262626" transform="translate(852.297801 93.1011) scale(0.096 -0.096)">
     <use xlink:href="#ArialMT-6d"/>
     <use xlink:href="#ArialMT-65" x="83.300781"/>
     <use xlink:href="#ArialMT-61" x="138.916016"/>
     <use xlink:href="#ArialMT-6e" x="194.53125"/>
     <use xlink:href="#ArialMT-3d" x="250.146484"/>
     <use xlink:href="#ArialMT-30" x="308.544922"/>
     <use xlink:href="#ArialMT-2e" x="364.160156"/>
     <use xlink:href="#ArialMT-30" x="391.943359"/>
     <use xlink:href="#ArialMT-32" x="447.558594"/>
     <use xlink:href="#ArialMT-34" x="503.173828"/>
    </g>
   </g>
   <g id="text_25">
    <!-- sigma -->
    <g style="fill: #262626" transform="translate(986.898395 14.0715) scale(0.096 -0.096)">
     <defs>
      <path id="ArialMT-73" d="M 197 991 
L 753 1078 
Q 800 744 1014 566 
Q 1228 388 1613 388 
Q 2000 388 2187 545 
Q 2375 703 2375 916 
Q 2375 1106 2209 1216 
Q 2094 1291 1634 1406 
Q 1016 1563 777 1677 
Q 538 1791 414 1992 
Q 291 2194 291 2438 
Q 291 2659 392 2848 
Q 494 3038 669 3163 
Q 800 3259 1026 3326 
Q 1253 3394 1513 3394 
Q 1903 3394 2198 3281 
Q 2494 3169 2634 2976 
Q 2775 2784 2828 2463 
L 2278 2388 
Q 2241 2644 2061 2787 
Q 1881 2931 1553 2931 
Q 1166 2931 1000 2803 
Q 834 2675 834 2503 
Q 834 2394 903 2306 
Q 972 2216 1119 2156 
Q 1203 2125 1616 2013 
Q 2213 1853 2448 1751 
Q 2684 1650 2818 1456 
Q 2953 1263 2953 975 
Q 2953 694 2789 445 
Q 2625 197 2315 61 
Q 2006 -75 1616 -75 
Q 969 -75 630 194 
Q 291 463 197 991 
z
" transform="scale(0.015625)"/>
      <path id="ArialMT-69" d="M 425 3934 
L 425 4581 
L 988 4581 
L 988 3934 
L 425 3934 
z
M 425 0 
L 425 3319 
L 988 3319 
L 988 0 
L 425 0 
z
" transform="scale(0.015625)"/>
      <path id="ArialMT-67" d="M 319 -275 
L 866 -356 
Q 900 -609 1056 -725 
Q 1266 -881 1628 -881 
Q 2019 -881 2231 -725 
Q 2444 -569 2519 -288 
Q 2563 -116 2559 434 
Q 2191 0 1641 0 
Q 956 0 581 494 
Q 206 988 206 1678 
Q 206 2153 378 2554 
Q 550 2956 876 3175 
Q 1203 3394 1644 3394 
Q 2231 3394 2613 2919 
L 2613 3319 
L 3131 3319 
L 3131 450 
Q 3131 -325 2973 -648 
Q 2816 -972 2473 -1159 
Q 2131 -1347 1631 -1347 
Q 1038 -1347 672 -1080 
Q 306 -813 319 -275 
z
M 784 1719 
Q 784 1066 1043 766 
Q 1303 466 1694 466 
Q 2081 466 2343 764 
Q 2606 1063 2606 1700 
Q 2606 2309 2336 2618 
Q 2066 2928 1684 2928 
Q 1309 2928 1046 2623 
Q 784 2319 784 1719 
z
" transform="scale(0.015625)"/>
     </defs>
     <use xlink:href="#ArialMT-73"/>
     <use xlink:href="#ArialMT-69" x="50"/>
     <use xlink:href="#ArialMT-67" x="72.216797"/>
     <use xlink:href="#ArialMT-6d" x="127.832031"/>
     <use xlink:href="#ArialMT-61" x="211.132812"/>
    </g>
   </g>
  </g>
 </g>
 <defs>
  <clipPath id="p2375f36c2f">
   <rect x="7.983463" y="20.0715" width="583.363636" height="382.536"/>
  </clipPath>
  <clipPath id="pb3c5a477e3">
   <rect x="708.019827" y="20.0715" width="583.363636" height="382.536"/>
  </clipPath>
 </defs>
</svg>