<?xml version="1.0" encoding="UTF-8" standalone="no"?>
<!DOCTYPE svg PUBLIC "-//W3C//DTD SVG 1.1//EN"
 "http://www.w3.org/Graphics/SVG/1.1/DTD/svg11.dtd">
<!-- Generated by graphviz version 8.1.0 (0)
 -->
<!-- Pages: 1 -->
<svg width="429pt" height="369pt"
 viewBox="0.00 0.00 429.46 368.54" xmlns="http://www.w3.org/2000/svg" xmlns:xlink="http://www.w3.org/1999/xlink">
<g id="graph0" class="graph" transform="scale(1 1) rotate(0) translate(4 364.54)">
<polygon fill="white" stroke="none" points="-4,4 -4,-364.54 425.46,-364.54 425.46,4 -4,4"/>
<g id="clust1" class="cluster">
<title>clusterobs_id (100)</title>
<path fill="none" stroke="black" d="M137.45,-8C137.45,-8 219.45,-8 219.45,-8 225.45,-8 231.45,-14 231.45,-20 231.45,-20 231.45,-340.54 231.45,-340.54 231.45,-346.54 225.45,-352.54 219.45,-352.54 219.45,-352.54 137.45,-352.54 137.45,-352.54 131.45,-352.54 125.45,-346.54 125.45,-340.54 125.45,-340.54 125.45,-20 125.45,-20 125.45,-14 131.45,-8 137.45,-8"/>
<text text-anchor="middle" x="188.95" y="-15.2" font-family="Times,serif" font-size="14.00">obs_id (100)</text>
</g>
<!-- sigma -->
<g id="node1" class="node">
<title>sigma</title>
<ellipse fill="none" stroke="black" cx="57.45" cy="-198.48" rx="57.45" ry="40.66"/>
<text text-anchor="middle" x="57.45" y="-209.93" font-family="Times,serif" font-size="14.00">sigma</text>
<text text-anchor="middle" x="57.45" y="-193.43" font-family="Times,serif" font-size="14.00">~</text>
<text text-anchor="middle" x="57.45" y="-176.93" font-family="Times,serif" font-size="14.00">HalfCauchy</text>
</g>
<!-- y -->
<g id="node4" class="node">
<title>y</title>
<ellipse fill="lightgrey" stroke="black" cx="176.45" cy="-81.16" rx="41.01" ry="40.66"/>
<text text-anchor="middle" x="176.45" y="-92.61" font-family="Times,serif" font-size="14.00">y</text>
<text text-anchor="middle" x="176.45" y="-76.11" font-family="Times,serif" font-size="14.00">~</text>
<text text-anchor="middle" x="176.45" y="-59.61" font-family="Times,serif" font-size="14.00">Normal</text>
</g>
<!-- sigma&#45;&gt;y -->
<g id="edge4" class="edge">
<title>sigma&#45;&gt;y</title>
<path fill="none" stroke="black" d="M90.92,-165.05C106.02,-150.41 123.91,-133.07 139.42,-118.05"/>
<polygon fill="black" stroke="black" points="141.54,-120.9 146.28,-111.43 136.66,-115.87 141.54,-120.9"/>
</g>
<!-- β1 -->
<g id="node2" class="node">
<title>β1</title>
<ellipse fill="none" stroke="black" cx="280.45" cy="-315.79" rx="41.01" ry="40.66"/>
<text text-anchor="middle" x="280.45" y="-327.24" font-family="Times,serif" font-size="14.00">β1</text>
<text text-anchor="middle" x="280.45" y="-310.74" font-family="Times,serif" font-size="14.00">~</text>
<text text-anchor="middle" x="280.45" y="-294.24" font-family="Times,serif" font-size="14.00">Normal</text>
</g>
<!-- μ -->
<g id="node6" class="node">
<title>μ</title>
<polygon fill="none" stroke="black" points="223.58,-227.23 133.33,-227.23 133.33,-169.73 223.58,-169.73 223.58,-227.23"/>
<text text-anchor="middle" x="178.45" y="-209.93" font-family="Times,serif" font-size="14.00">μ</text>
<text text-anchor="middle" x="178.45" y="-193.43" font-family="Times,serif" font-size="14.00">~</text>
<text text-anchor="middle" x="178.45" y="-176.93" font-family="Times,serif" font-size="14.00">Deterministic</text>
</g>
<!-- β1&#45;&gt;μ -->
<g id="edge2" class="edge">
<title>β1&#45;&gt;μ</title>
<path fill="none" stroke="black" d="M253.65,-284.49C240.38,-269.49 224.27,-251.27 210.37,-235.56"/>
<polygon fill="black" stroke="black" points="213.57,-233.76 204.32,-228.59 208.33,-238.4 213.57,-233.76"/>
</g>
<!-- β0 -->
<g id="node3" class="node">
<title>β0</title>
<ellipse fill="none" stroke="black" cx="380.45" cy="-315.79" rx="41.01" ry="40.66"/>
<text text-anchor="middle" x="380.45" y="-327.24" font-family="Times,serif" font-size="14.00">β0</text>
<text text-anchor="middle" x="380.45" y="-310.74" font-family="Times,serif" font-size="14.00">~</text>
<text text-anchor="middle" x="380.45" y="-294.24" font-family="Times,serif" font-size="14.00">Normal</text>
</g>
<!-- β0&#45;&gt;μ -->
<g id="edge3" class="edge">
<title>β0&#45;&gt;μ</title>
<path fill="none" stroke="black" d="M349.45,-288.58C343.32,-283.87 336.81,-279.18 330.45,-275.13 299.72,-255.6 263.25,-237.3 233.74,-223.59"/>
<polygon fill="black" stroke="black" points="235.57,-220.12 225.02,-219.13 232.64,-226.48 235.57,-220.12"/>
</g>
<!-- x -->
<g id="node5" class="node">
<title>x</title>
<path fill="lightgrey" stroke="black" d="M209.08,-344.54C209.08,-344.54 145.83,-344.54 145.83,-344.54 139.83,-344.54 133.83,-338.54 133.83,-332.54 133.83,-332.54 133.83,-299.04 133.83,-299.04 133.83,-293.04 139.83,-287.04 145.83,-287.04 145.83,-287.04 209.08,-287.04 209.08,-287.04 215.08,-287.04 221.08,-293.04 221.08,-299.04 221.08,-299.04 221.08,-332.54 221.08,-332.54 221.08,-338.54 215.08,-344.54 209.08,-344.54"/>
<text text-anchor="middle" x="177.45" y="-327.24" font-family="Times,serif" font-size="14.00">x</text>
<text text-anchor="middle" x="177.45" y="-310.74" font-family="Times,serif" font-size="14.00">~</text>
<text text-anchor="middle" x="177.45" y="-294.24" font-family="Times,serif" font-size="14.00">MutableData</text>
</g>
<!-- x&#45;&gt;μ -->
<g id="edge1" class="edge">
<title>x&#45;&gt;μ</title>
<path fill="none" stroke="black" d="M177.7,-286.58C177.82,-271.96 177.98,-253.87 178.12,-237.98"/>
<polygon fill="black" stroke="black" points="181.62,-238.42 178.21,-228.39 174.62,-238.36 181.62,-238.42"/>
</g>
<!-- μ&#45;&gt;y -->
<g id="edge5" class="edge">
<title>μ&#45;&gt;y</title>
<path fill="none" stroke="black" d="M177.96,-169.27C177.77,-158.33 177.55,-145.47 177.33,-133.03"/>
<polygon fill="black" stroke="black" points="180.82,-133.21 177.15,-123.27 173.82,-133.33 180.82,-133.21"/>
</g>
</g>
</svg>