<?xml version="1.0" encoding="UTF-8" standalone="no"?>
<!DOCTYPE svg PUBLIC "-//W3C//DTD SVG 1.1//EN"
 "http://www.w3.org/Graphics/SVG/1.1/DTD/svg11.dtd">
<!-- Generated by graphviz version 9.0.0 (0)
 -->
<!-- Pages: 1 -->
<svg width="422pt" height="247pt"
 viewBox="0.00 0.00 422.46 247.13" xmlns="http://www.w3.org/2000/svg" xmlns:xlink="http://www.w3.org/1999/xlink">
<g id="graph0" class="graph" transform="scale(1 1) rotate(0) translate(4 243.13)">
<polygon fill="white" stroke="none" points="-4,4 -4,-243.13 418.46,-243.13 418.46,4 -4,4"/>
<g id="clust1" class="cluster">
<title>cluster50</title>
<path fill="none" stroke="black" d="M149.01,-8C149.01,-8 233.01,-8 233.01,-8 239.01,-8 245.01,-14 245.01,-20 245.01,-20 245.01,-117.82 245.01,-117.82 245.01,-123.82 239.01,-129.82 233.01,-129.82 233.01,-129.82 149.01,-129.82 149.01,-129.82 143.01,-129.82 137.01,-123.82 137.01,-117.82 137.01,-117.82 137.01,-20 137.01,-20 137.01,-14 143.01,-8 149.01,-8"/>
<text text-anchor="middle" x="230.26" y="-15.2" font-family="Times,serif" font-size="14.00">50</text>
</g>
<!-- bA -->
<g id="node1" class="node">
<title>bA</title>
<ellipse fill="none" stroke="black" cx="41.01" cy="-198.48" rx="41.01" ry="40.66"/>
<text text-anchor="middle" x="41.01" y="-209.93" font-family="Times,serif" font-size="14.00">bA</text>
<text text-anchor="middle" x="41.01" y="-193.43" font-family="Times,serif" font-size="14.00">~</text>
<text text-anchor="middle" x="41.01" y="-176.93" font-family="Times,serif" font-size="14.00">Normal</text>
</g>
<!-- D -->
<g id="node5" class="node">
<title>D</title>
<ellipse fill="lightgrey" stroke="black" cx="191.01" cy="-81.16" rx="46.32" ry="40.66"/>
<text text-anchor="middle" x="191.01" y="-92.61" font-family="Times,serif" font-size="14.00">D</text>
<text text-anchor="middle" x="191.01" y="-76.11" font-family="Times,serif" font-size="14.00">~</text>
<text text-anchor="middle" x="191.01" y="-59.61" font-family="Times,serif" font-size="14.00">StudentT</text>
</g>
<!-- bA&#45;&gt;D -->
<g id="edge1" class="edge">
<title>bA&#45;&gt;D</title>
<path fill="none" stroke="black" d="M72.67,-172.19C78.74,-167.39 85.06,-162.43 91.01,-157.82 109.33,-143.63 129.71,-128.15 147.26,-114.92"/>
<polygon fill="black" stroke="black" points="149.06,-117.95 154.94,-109.14 144.85,-112.35 149.06,-117.95"/>
</g>
<!-- a -->
<g id="node2" class="node">
<title>a</title>
<ellipse fill="none" stroke="black" cx="141.01" cy="-198.48" rx="41.01" ry="40.66"/>
<text text-anchor="middle" x="141.01" y="-209.93" font-family="Times,serif" font-size="14.00">a</text>
<text text-anchor="middle" x="141.01" y="-193.43" font-family="Times,serif" font-size="14.00">~</text>
<text text-anchor="middle" x="141.01" y="-176.93" font-family="Times,serif" font-size="14.00">Normal</text>
</g>
<!-- a&#45;&gt;D -->
<g id="edge2" class="edge">
<title>a&#45;&gt;D</title>
<path fill="none" stroke="black" d="M156.97,-160.67C161.21,-150.89 165.86,-140.18 170.31,-129.9"/>
<polygon fill="black" stroke="black" points="173.49,-131.36 174.26,-120.79 167.07,-128.58 173.49,-131.36"/>
</g>
<!-- bM -->
<g id="node3" class="node">
<title>bM</title>
<ellipse fill="none" stroke="black" cx="241.01" cy="-198.48" rx="41.01" ry="40.66"/>
<text text-anchor="middle" x="241.01" y="-209.93" font-family="Times,serif" font-size="14.00">bM</text>
<text text-anchor="middle" x="241.01" y="-193.43" font-family="Times,serif" font-size="14.00">~</text>
<text text-anchor="middle" x="241.01" y="-176.93" font-family="Times,serif" font-size="14.00">Normal</text>
</g>
<!-- bM&#45;&gt;D -->
<g id="edge3" class="edge">
<title>bM&#45;&gt;D</title>
<path fill="none" stroke="black" d="M225.05,-160.67C220.81,-150.89 216.17,-140.18 211.71,-129.9"/>
<polygon fill="black" stroke="black" points="214.95,-128.58 207.76,-120.79 208.53,-131.36 214.95,-128.58"/>
</g>
<!-- sigma -->
<g id="node4" class="node">
<title>sigma</title>
<ellipse fill="none" stroke="black" cx="357.01" cy="-198.48" rx="57.45" ry="40.66"/>
<text text-anchor="middle" x="357.01" y="-209.93" font-family="Times,serif" font-size="14.00">sigma</text>
<text text-anchor="middle" x="357.01" y="-193.43" font-family="Times,serif" font-size="14.00">~</text>
<text text-anchor="middle" x="357.01" y="-176.93" font-family="Times,serif" font-size="14.00">Exponential</text>
</g>
<!-- sigma&#45;&gt;D -->
<g id="edge4" class="edge">
<title>sigma&#45;&gt;D</title>
<path fill="none" stroke="black" d="M316.4,-169.27C292.15,-152.42 261.29,-130.98 236.25,-113.59"/>
<polygon fill="black" stroke="black" points="238.42,-110.83 228.21,-108 234.43,-116.58 238.42,-110.83"/>
</g>
</g>
</svg>