<?xml version="1.0" encoding="UTF-8" standalone="no"?>
<!DOCTYPE svg PUBLIC "-//W3C//DTD SVG 1.1//EN"
 "http://www.w3.org/Graphics/SVG/1.1/DTD/svg11.dtd">
<!-- Generated by graphviz version 8.1.0 (0)
 -->
<!-- Pages: 1 -->
<svg width="566pt" height="591pt"
 viewBox="0.00 0.00 566.01 591.27" xmlns="http://www.w3.org/2000/svg" xmlns:xlink="http://www.w3.org/1999/xlink">
<g id="graph0" class="graph" transform="scale(1 1) rotate(0) translate(4 587.27)">
<polygon fill="white" stroke="none" points="-4,4 -4,-587.27 562.01,-587.27 562.01,4 -4,4"/>
<g id="clust1" class="cluster">
<title>cluster5000</title>
<path fill="none" stroke="black" d="M20,-8C20,-8 220,-8 220,-8 226,-8 232,-14 232,-20 232,-20 232,-563.27 232,-563.27 232,-569.27 226,-575.27 220,-575.27 220,-575.27 20,-575.27 20,-575.27 14,-575.27 8,-569.27 8,-563.27 8,-563.27 8,-20 8,-20 8,-14 14,-8 20,-8"/>
<text text-anchor="middle" x="210.5" y="-15.2" font-family="Times,serif" font-size="14.00">5000</text>
</g>
<!-- Q -->
<g id="node1" class="node">
<title>Q</title>
<ellipse fill="lightgrey" stroke="black" cx="123" cy="-526.61" rx="41.01" ry="40.66"/>
<text text-anchor="middle" x="123" y="-538.06" font-family="Times,serif" font-size="14.00">Q</text>
<text text-anchor="middle" x="123" y="-521.56" font-family="Times,serif" font-size="14.00">~</text>
<text text-anchor="middle" x="123" y="-505.06" font-family="Times,serif" font-size="14.00">Normal</text>
</g>
<!-- Y -->
<g id="node5" class="node">
<title>Y</title>
<ellipse fill="lightgrey" stroke="black" cx="183" cy="-291.98" rx="41.01" ry="40.66"/>
<text text-anchor="middle" x="183" y="-303.43" font-family="Times,serif" font-size="14.00">Y</text>
<text text-anchor="middle" x="183" y="-286.93" font-family="Times,serif" font-size="14.00">~</text>
<text text-anchor="middle" x="183" y="-270.43" font-family="Times,serif" font-size="14.00">Normal</text>
</g>
<!-- Q&#45;&gt;Y -->
<g id="edge9" class="edge">
<title>Q&#45;&gt;Y</title>
<path fill="none" stroke="black" d="M119.97,-485.83C118.81,-453.43 120.14,-406.95 133,-368.63 137.19,-356.16 143.97,-343.76 151.21,-332.72"/>
<polygon fill="black" stroke="black" points="154.57,-335.02 157.35,-324.8 148.8,-331.05 154.57,-335.02"/>
</g>
<!-- _Q -->
<g id="node6" class="node">
<title>_Q</title>
<path fill="lightgrey" stroke="black" d="M91.62,-438.04C91.62,-438.04 28.38,-438.04 28.38,-438.04 22.38,-438.04 16.38,-432.04 16.38,-426.04 16.38,-426.04 16.38,-392.54 16.38,-392.54 16.38,-386.54 22.38,-380.54 28.38,-380.54 28.38,-380.54 91.62,-380.54 91.62,-380.54 97.62,-380.54 103.62,-386.54 103.62,-392.54 103.62,-392.54 103.62,-426.04 103.62,-426.04 103.62,-432.04 97.62,-438.04 91.62,-438.04"/>
<text text-anchor="middle" x="60" y="-420.74" font-family="Times,serif" font-size="14.00">_Q</text>
<text text-anchor="middle" x="60" y="-404.24" font-family="Times,serif" font-size="14.00">~</text>
<text text-anchor="middle" x="60" y="-387.74" font-family="Times,serif" font-size="14.00">MutableData</text>
</g>
<!-- Q&#45;&gt;_Q -->
<g id="edge1" class="edge">
<title>Q&#45;&gt;_Q</title>
<path fill="none" stroke="black" d="M103.76,-490.38C96.42,-476.95 88.03,-461.6 80.57,-447.95"/>
<polygon fill="black" stroke="black" points="83.2,-446.46 75.34,-439.36 77.06,-449.82 83.2,-446.46"/>
</g>
<!-- X -->
<g id="node7" class="node">
<title>X</title>
<ellipse fill="lightgrey" stroke="black" cx="183" cy="-409.29" rx="41.01" ry="40.66"/>
<text text-anchor="middle" x="183" y="-420.74" font-family="Times,serif" font-size="14.00">X</text>
<text text-anchor="middle" x="183" y="-404.24" font-family="Times,serif" font-size="14.00">~</text>
<text text-anchor="middle" x="183" y="-387.74" font-family="Times,serif" font-size="14.00">Normal</text>
</g>
<!-- Q&#45;&gt;X -->
<g id="edge5" class="edge">
<title>Q&#45;&gt;X</title>
<path fill="none" stroke="black" d="M141.49,-490.07C147.19,-479.11 153.55,-466.89 159.54,-455.38"/>
<polygon fill="black" stroke="black" points="162.96,-457.4 164.47,-446.91 156.75,-454.17 162.96,-457.4"/>
</g>
<!-- _X -->
<g id="node2" class="node">
<title>_X</title>
<path fill="lightgrey" stroke="black" d="M111.62,-320.73C111.62,-320.73 48.38,-320.73 48.38,-320.73 42.38,-320.73 36.38,-314.73 36.38,-308.73 36.38,-308.73 36.38,-275.23 36.38,-275.23 36.38,-269.23 42.38,-263.23 48.38,-263.23 48.38,-263.23 111.62,-263.23 111.62,-263.23 117.62,-263.23 123.62,-269.23 123.62,-275.23 123.62,-275.23 123.62,-308.73 123.62,-308.73 123.62,-314.73 117.62,-320.73 111.62,-320.73"/>
<text text-anchor="middle" x="80" y="-303.43" font-family="Times,serif" font-size="14.00">_X</text>
<text text-anchor="middle" x="80" y="-286.93" font-family="Times,serif" font-size="14.00">~</text>
<text text-anchor="middle" x="80" y="-270.43" font-family="Times,serif" font-size="14.00">MutableData</text>
</g>
<!-- _P -->
<g id="node3" class="node">
<title>_P</title>
<path fill="lightgrey" stroke="black" d="M211.62,-98C211.62,-98 148.38,-98 148.38,-98 142.38,-98 136.38,-92 136.38,-86 136.38,-86 136.38,-52.5 136.38,-52.5 136.38,-46.5 142.38,-40.5 148.38,-40.5 148.38,-40.5 211.62,-40.5 211.62,-40.5 217.62,-40.5 223.62,-46.5 223.62,-52.5 223.62,-52.5 223.62,-86 223.62,-86 223.62,-92 217.62,-98 211.62,-98"/>
<text text-anchor="middle" x="180" y="-80.7" font-family="Times,serif" font-size="14.00">_P</text>
<text text-anchor="middle" x="180" y="-64.2" font-family="Times,serif" font-size="14.00">~</text>
<text text-anchor="middle" x="180" y="-47.7" font-family="Times,serif" font-size="14.00">MutableData</text>
</g>
<!-- P -->
<g id="node4" class="node">
<title>P</title>
<ellipse fill="lightgrey" stroke="black" cx="183" cy="-174.66" rx="41.01" ry="40.66"/>
<text text-anchor="middle" x="183" y="-186.11" font-family="Times,serif" font-size="14.00">P</text>
<text text-anchor="middle" x="183" y="-169.61" font-family="Times,serif" font-size="14.00">~</text>
<text text-anchor="middle" x="183" y="-153.11" font-family="Times,serif" font-size="14.00">Normal</text>
</g>
<!-- P&#45;&gt;_P -->
<g id="edge4" class="edge">
<title>P&#45;&gt;_P</title>
<path fill="none" stroke="black" d="M181.84,-133.68C181.61,-125.64 181.36,-117.21 181.13,-109.21"/>
<polygon fill="black" stroke="black" points="184.6,-109.17 180.81,-99.28 177.6,-109.37 184.6,-109.17"/>
</g>
<!-- Y&#45;&gt;P -->
<g id="edge16" class="edge">
<title>Y&#45;&gt;P</title>
<path fill="none" stroke="black" d="M183,-250.97C183,-243.1 183,-234.74 183,-226.57"/>
<polygon fill="black" stroke="black" points="186.5,-226.6 183,-216.6 179.5,-226.6 186.5,-226.6"/>
</g>
<!-- _Y -->
<g id="node8" class="node">
<title>_Y</title>
<path fill="lightgrey" stroke="black" d="M111.62,-203.41C111.62,-203.41 48.38,-203.41 48.38,-203.41 42.38,-203.41 36.38,-197.41 36.38,-191.41 36.38,-191.41 36.38,-157.91 36.38,-157.91 36.38,-151.91 42.38,-145.91 48.38,-145.91 48.38,-145.91 111.62,-145.91 111.62,-145.91 117.62,-145.91 123.62,-151.91 123.62,-157.91 123.62,-157.91 123.62,-191.41 123.62,-191.41 123.62,-197.41 117.62,-203.41 111.62,-203.41"/>
<text text-anchor="middle" x="80" y="-186.11" font-family="Times,serif" font-size="14.00">_Y</text>
<text text-anchor="middle" x="80" y="-169.61" font-family="Times,serif" font-size="14.00">~</text>
<text text-anchor="middle" x="80" y="-153.11" font-family="Times,serif" font-size="14.00">MutableData</text>
</g>
<!-- Y&#45;&gt;_Y -->
<g id="edge3" class="edge">
<title>Y&#45;&gt;_Y</title>
<path fill="none" stroke="black" d="M156.21,-260.98C142.71,-245.86 126.23,-227.42 112.06,-211.56"/>
<polygon fill="black" stroke="black" points="115.16,-209.65 105.89,-204.53 109.94,-214.32 115.16,-209.65"/>
</g>
<!-- X&#45;&gt;_X -->
<g id="edge2" class="edge">
<title>X&#45;&gt;_X</title>
<path fill="none" stroke="black" d="M156.21,-378.3C142.71,-363.18 126.23,-344.74 112.06,-328.87"/>
<polygon fill="black" stroke="black" points="115.16,-326.97 105.89,-321.84 109.94,-331.63 115.16,-326.97"/>
</g>
<!-- X&#45;&gt;P -->
<g id="edge17" class="edge">
<title>X&#45;&gt;P</title>
<path fill="none" stroke="black" d="M148.19,-387.49C137.09,-381.15 124.66,-374.35 113,-368.63 75.8,-350.39 49.96,-367.13 27,-332.63 6.98,-302.55 5.95,-280.7 27,-251.32 55.98,-210.87 89.31,-239.13 133,-215.32 136.67,-213.32 140.35,-211.04 143.94,-208.62"/>
<polygon fill="black" stroke="black" points="145.59,-211.04 151.68,-202.37 141.51,-205.34 145.59,-211.04"/>
</g>
<!-- X&#45;&gt;Y -->
<g id="edge12" class="edge">
<title>X&#45;&gt;Y</title>
<path fill="none" stroke="black" d="M183,-368.28C183,-360.41 183,-352.06 183,-343.88"/>
<polygon fill="black" stroke="black" points="186.5,-343.91 183,-333.91 179.5,-343.91 186.5,-343.91"/>
</g>
<!-- xy -->
<g id="node9" class="node">
<title>xy</title>
<ellipse fill="none" stroke="black" cx="283" cy="-409.29" rx="41.01" ry="40.66"/>
<text text-anchor="middle" x="283" y="-420.74" font-family="Times,serif" font-size="14.00">xy</text>
<text text-anchor="middle" x="283" y="-404.24" font-family="Times,serif" font-size="14.00">~</text>
<text text-anchor="middle" x="283" y="-387.74" font-family="Times,serif" font-size="14.00">Normal</text>
</g>
<!-- xy&#45;&gt;Y -->
<g id="edge8" class="edge">
<title>xy&#45;&gt;Y</title>
<path fill="none" stroke="black" d="M256.46,-377.69C244.16,-363.51 229.41,-346.49 216.36,-331.45"/>
<polygon fill="black" stroke="black" points="218.51,-329.58 209.31,-324.32 213.22,-334.17 218.51,-329.58"/>
</g>
<!-- qy -->
<g id="node10" class="node">
<title>qy</title>
<ellipse fill="none" stroke="black" cx="383" cy="-409.29" rx="41.01" ry="40.66"/>
<text text-anchor="middle" x="383" y="-420.74" font-family="Times,serif" font-size="14.00">qy</text>
<text text-anchor="middle" x="383" y="-404.24" font-family="Times,serif" font-size="14.00">~</text>
<text text-anchor="middle" x="383" y="-387.74" font-family="Times,serif" font-size="14.00">Normal</text>
</g>
<!-- qy&#45;&gt;Y -->
<g id="edge10" class="edge">
<title>qy&#45;&gt;Y</title>
<path fill="none" stroke="black" d="M352.63,-381.68C346.39,-376.95 339.68,-372.35 333,-368.63 291.73,-345.65 274.27,-355.61 233,-332.63 229.35,-330.6 225.69,-328.3 222.1,-325.87"/>
<polygon fill="black" stroke="black" points="224.53,-322.59 214.37,-319.59 220.44,-328.27 224.53,-322.59"/>
</g>
<!-- sigma_p -->
<g id="node11" class="node">
<title>sigma_p</title>
<ellipse fill="none" stroke="black" cx="300" cy="-291.98" rx="57.98" ry="40.66"/>
<text text-anchor="middle" x="300" y="-303.43" font-family="Times,serif" font-size="14.00">sigma_p</text>
<text text-anchor="middle" x="300" y="-286.93" font-family="Times,serif" font-size="14.00">~</text>
<text text-anchor="middle" x="300" y="-270.43" font-family="Times,serif" font-size="14.00">HalfNormal</text>
</g>
<!-- sigma_p&#45;&gt;P -->
<g id="edge13" class="edge">
<title>sigma_p&#45;&gt;P</title>
<path fill="none" stroke="black" d="M266.79,-258.24C252.06,-243.72 234.68,-226.6 219.58,-211.72"/>
<polygon fill="black" stroke="black" points="222.5,-209.69 212.92,-205.16 217.59,-214.68 222.5,-209.69"/>
</g>
<!-- sigma_y -->
<g id="node12" class="node">
<title>sigma_y</title>
<ellipse fill="none" stroke="black" cx="500" cy="-409.29" rx="57.98" ry="40.66"/>
<text text-anchor="middle" x="500" y="-420.74" font-family="Times,serif" font-size="14.00">sigma_y</text>
<text text-anchor="middle" x="500" y="-404.24" font-family="Times,serif" font-size="14.00">~</text>
<text text-anchor="middle" x="500" y="-387.74" font-family="Times,serif" font-size="14.00">HalfNormal</text>
</g>
<!-- sigma_y&#45;&gt;Y -->
<g id="edge11" class="edge">
<title>sigma_y&#45;&gt;Y</title>
<path fill="none" stroke="black" d="M458.24,-380.53C450.12,-376.02 441.49,-371.79 433,-368.63 348.35,-337.13 315.31,-369.82 233,-332.63 229.19,-330.91 225.42,-328.84 221.75,-326.55"/>
<polygon fill="black" stroke="black" points="224.14,-323.26 213.91,-320.51 220.19,-329.04 224.14,-323.26"/>
</g>
<!-- yp -->
<g id="node13" class="node">
<title>yp</title>
<ellipse fill="none" stroke="black" cx="417" cy="-291.98" rx="41.01" ry="40.66"/>
<text text-anchor="middle" x="417" y="-303.43" font-family="Times,serif" font-size="14.00">yp</text>
<text text-anchor="middle" x="417" y="-286.93" font-family="Times,serif" font-size="14.00">~</text>
<text text-anchor="middle" x="417" y="-270.43" font-family="Times,serif" font-size="14.00">Normal</text>
</g>
<!-- yp&#45;&gt;P -->
<g id="edge14" class="edge">
<title>yp&#45;&gt;P</title>
<path fill="none" stroke="black" d="M386.22,-264.39C380.07,-259.71 373.5,-255.13 367,-251.32 323.83,-226.01 270.59,-205.11 232.51,-191.74"/>
<polygon fill="black" stroke="black" points="233.78,-188.13 223.19,-188.17 231.5,-194.75 233.78,-188.13"/>
</g>
<!-- xp -->
<g id="node14" class="node">
<title>xp</title>
<ellipse fill="none" stroke="black" cx="517" cy="-291.98" rx="41.01" ry="40.66"/>
<text text-anchor="middle" x="517" y="-303.43" font-family="Times,serif" font-size="14.00">xp</text>
<text text-anchor="middle" x="517" y="-286.93" font-family="Times,serif" font-size="14.00">~</text>
<text text-anchor="middle" x="517" y="-270.43" font-family="Times,serif" font-size="14.00">Normal</text>
</g>
<!-- xp&#45;&gt;P -->
<g id="edge15" class="edge">
<title>xp&#45;&gt;P</title>
<path fill="none" stroke="black" d="M486.87,-263.9C480.61,-259.21 473.83,-254.75 467,-251.32 390.97,-213.13 293.49,-192.59 234.76,-182.91"/>
<polygon fill="black" stroke="black" points="235.33,-179.3 224.9,-181.17 234.23,-186.21 235.33,-179.3"/>
</g>
<!-- sigma_x -->
<g id="node15" class="node">
<title>sigma_x</title>
<ellipse fill="none" stroke="black" cx="298" cy="-526.61" rx="57.98" ry="40.66"/>
<text text-anchor="middle" x="298" y="-538.06" font-family="Times,serif" font-size="14.00">sigma_x</text>
<text text-anchor="middle" x="298" y="-521.56" font-family="Times,serif" font-size="14.00">~</text>
<text text-anchor="middle" x="298" y="-505.06" font-family="Times,serif" font-size="14.00">HalfNormal</text>
</g>
<!-- sigma_x&#45;&gt;X -->
<g id="edge6" class="edge">
<title>sigma_x&#45;&gt;X</title>
<path fill="none" stroke="black" d="M265.35,-492.87C250.88,-478.36 233.8,-461.23 218.96,-446.35"/>
<polygon fill="black" stroke="black" points="221.97,-444.41 212.43,-439.8 217.01,-449.35 221.97,-444.41"/>
</g>
<!-- qx -->
<g id="node16" class="node">
<title>qx</title>
<ellipse fill="none" stroke="black" cx="415" cy="-526.61" rx="41.01" ry="40.66"/>
<text text-anchor="middle" x="415" y="-538.06" font-family="Times,serif" font-size="14.00">qx</text>
<text text-anchor="middle" x="415" y="-521.56" font-family="Times,serif" font-size="14.00">~</text>
<text text-anchor="middle" x="415" y="-505.06" font-family="Times,serif" font-size="14.00">Normal</text>
</g>
<!-- qx&#45;&gt;X -->
<g id="edge7" class="edge">
<title>qx&#45;&gt;X</title>
<path fill="none" stroke="black" d="M384.86,-498.57C378.6,-493.88 371.82,-489.4 365,-485.95 310.74,-458.5 287.26,-477.41 233,-449.95 229.27,-448.06 225.55,-445.87 221.93,-443.5"/>
<polygon fill="black" stroke="black" points="224.34,-440.22 214.14,-437.34 220.31,-445.95 224.34,-440.22"/>
</g>
</g>
</svg>