<?xml version="1.0" encoding="UTF-8" standalone="no"?>
<!DOCTYPE svg PUBLIC "-//W3C//DTD SVG 1.1//EN"
 "http://www.w3.org/Graphics/SVG/1.1/DTD/svg11.dtd">
<!-- Generated by graphviz version 9.0.0 (0)
 -->
<!-- Pages: 1 -->
<svg width="522pt" height="498pt"
 viewBox="0.00 0.00 521.55 497.77" xmlns="http://www.w3.org/2000/svg" xmlns:xlink="http://www.w3.org/1999/xlink">
<g id="graph0" class="graph" transform="scale(1 1) rotate(0) translate(4 493.77)">
<polygon fill="white" stroke="none" points="-4,4 -4,-493.77 517.55,-493.77 517.55,4 -4,4"/>
<g id="clust1" class="cluster">
<title>clusteri (1)</title>
<path fill="none" stroke="black" d="M102.01,-8C102.01,-8 208.01,-8 208.01,-8 214.01,-8 220.01,-14 220.01,-20 220.01,-20 220.01,-469.77 220.01,-469.77 220.01,-475.77 214.01,-481.77 208.01,-481.77 208.01,-481.77 102.01,-481.77 102.01,-481.77 96.01,-481.77 90.01,-475.77 90.01,-469.77 90.01,-469.77 90.01,-20 90.01,-20 90.01,-14 96.01,-8 102.01,-8"/>
<text text-anchor="middle" x="200.39" y="-15.2" font-family="Times,serif" font-size="14.00">i (1)</text>
</g>
<!-- beta_z0 -->
<g id="node1" class="node">
<title>beta_z0</title>
<ellipse fill="none" stroke="black" cx="41.01" cy="-433.11" rx="41.01" ry="40.66"/>
<text text-anchor="middle" x="41.01" y="-444.56" font-family="Times,serif" font-size="14.00">beta_z0</text>
<text text-anchor="middle" x="41.01" y="-428.06" font-family="Times,serif" font-size="14.00">~</text>
<text text-anchor="middle" x="41.01" y="-411.56" font-family="Times,serif" font-size="14.00">Normal</text>
</g>
<!-- z -->
<g id="node8" class="node">
<title>z</title>
<ellipse fill="none" stroke="black" cx="145.01" cy="-315.79" rx="47.38" ry="40.66"/>
<text text-anchor="middle" x="145.01" y="-327.24" font-family="Times,serif" font-size="14.00">z</text>
<text text-anchor="middle" x="145.01" y="-310.74" font-family="Times,serif" font-size="14.00">~</text>
<text text-anchor="middle" x="145.01" y="-294.24" font-family="Times,serif" font-size="14.00">Bernoulli</text>
</g>
<!-- beta_z0&#45;&gt;z -->
<g id="edge2" class="edge">
<title>beta_z0&#45;&gt;z</title>
<path fill="none" stroke="black" d="M68.07,-402.11C80.44,-388.39 95.29,-371.93 108.63,-357.14"/>
<polygon fill="black" stroke="black" points="111.16,-359.55 115.26,-349.78 105.96,-354.86 111.16,-359.55"/>
</g>
<!-- beta_cz -->
<g id="node2" class="node">
<title>beta_cz</title>
<ellipse fill="none" stroke="black" cx="269.01" cy="-433.11" rx="41.01" ry="40.66"/>
<text text-anchor="middle" x="269.01" y="-444.56" font-family="Times,serif" font-size="14.00">beta_cz</text>
<text text-anchor="middle" x="269.01" y="-428.06" font-family="Times,serif" font-size="14.00">~</text>
<text text-anchor="middle" x="269.01" y="-411.56" font-family="Times,serif" font-size="14.00">Normal</text>
</g>
<!-- beta_cz&#45;&gt;z -->
<g id="edge3" class="edge">
<title>beta_cz&#45;&gt;z</title>
<path fill="none" stroke="black" d="M239.31,-404.49C223.06,-389.37 202.69,-370.43 185.05,-354.03"/>
<polygon fill="black" stroke="black" points="187.45,-351.48 177.75,-347.24 182.69,-356.61 187.45,-351.48"/>
</g>
<!-- sigma_y -->
<g id="node3" class="node">
<title>sigma_y</title>
<ellipse fill="none" stroke="black" cx="288.01" cy="-198.48" rx="57.98" ry="40.66"/>
<text text-anchor="middle" x="288.01" y="-209.93" font-family="Times,serif" font-size="14.00">sigma_y</text>
<text text-anchor="middle" x="288.01" y="-193.43" font-family="Times,serif" font-size="14.00">~</text>
<text text-anchor="middle" x="288.01" y="-176.93" font-family="Times,serif" font-size="14.00">HalfNormal</text>
</g>
<!-- y -->
<g id="node9" class="node">
<title>y</title>
<ellipse fill="none" stroke="black" cx="169.01" cy="-81.16" rx="41.01" ry="40.66"/>
<text text-anchor="middle" x="169.01" y="-92.61" font-family="Times,serif" font-size="14.00">y</text>
<text text-anchor="middle" x="169.01" y="-76.11" font-family="Times,serif" font-size="14.00">~</text>
<text text-anchor="middle" x="169.01" y="-59.61" font-family="Times,serif" font-size="14.00">Normal</text>
</g>
<!-- sigma_y&#45;&gt;y -->
<g id="edge9" class="edge">
<title>sigma_y&#45;&gt;y</title>
<path fill="none" stroke="black" d="M254.55,-165.05C239.44,-150.41 221.55,-133.07 206.05,-118.05"/>
<polygon fill="black" stroke="black" points="208.89,-115.93 199.27,-111.48 204.02,-120.95 208.89,-115.93"/>
</g>
<!-- beta_y0 -->
<g id="node4" class="node">
<title>beta_y0</title>
<ellipse fill="none" stroke="black" cx="472.01" cy="-315.79" rx="41.54" ry="40.66"/>
<text text-anchor="middle" x="472.01" y="-327.24" font-family="Times,serif" font-size="14.00">beta_y0</text>
<text text-anchor="middle" x="472.01" y="-310.74" font-family="Times,serif" font-size="14.00">~</text>
<text text-anchor="middle" x="472.01" y="-294.24" font-family="Times,serif" font-size="14.00">Normal</text>
</g>
<!-- y_mu -->
<g id="node10" class="node">
<title>y_mu</title>
<polygon fill="none" stroke="black" points="212.14,-227.23 121.89,-227.23 121.89,-169.73 212.14,-169.73 212.14,-227.23"/>
<text text-anchor="middle" x="167.01" y="-209.93" font-family="Times,serif" font-size="14.00">y_mu</text>
<text text-anchor="middle" x="167.01" y="-193.43" font-family="Times,serif" font-size="14.00">~</text>
<text text-anchor="middle" x="167.01" y="-176.93" font-family="Times,serif" font-size="14.00">Deterministic</text>
</g>
<!-- beta_y0&#45;&gt;y_mu -->
<g id="edge5" class="edge">
<title>beta_y0&#45;&gt;y_mu</title>
<path fill="none" stroke="black" d="M441.72,-287.47C435.24,-282.75 428.18,-278.33 421.01,-275.13 338.53,-238.35 304,-274.79 221.01,-239.13 217.27,-237.52 213.53,-235.61 209.88,-233.51"/>
<polygon fill="black" stroke="black" points="212.05,-230.74 201.72,-228.38 208.33,-236.67 212.05,-230.74"/>
</g>
<!-- beta_cy -->
<g id="node5" class="node">
<title>beta_cy</title>
<ellipse fill="none" stroke="black" cx="271.01" cy="-315.79" rx="41.01" ry="40.66"/>
<text text-anchor="middle" x="271.01" y="-327.24" font-family="Times,serif" font-size="14.00">beta_cy</text>
<text text-anchor="middle" x="271.01" y="-310.74" font-family="Times,serif" font-size="14.00">~</text>
<text text-anchor="middle" x="271.01" y="-294.24" font-family="Times,serif" font-size="14.00">Normal</text>
</g>
<!-- beta_cy&#45;&gt;y_mu -->
<g id="edge6" class="edge">
<title>beta_cy&#45;&gt;y_mu</title>
<path fill="none" stroke="black" d="M243.96,-284.8C230.45,-269.82 214,-251.58 199.78,-235.81"/>
<polygon fill="black" stroke="black" points="202.46,-233.55 193.16,-228.47 197.26,-238.24 202.46,-233.55"/>
</g>
<!-- beta_zy -->
<g id="node6" class="node">
<title>beta_zy</title>
<ellipse fill="none" stroke="black" cx="371.01" cy="-315.79" rx="41.01" ry="40.66"/>
<text text-anchor="middle" x="371.01" y="-327.24" font-family="Times,serif" font-size="14.00">beta_zy</text>
<text text-anchor="middle" x="371.01" y="-310.74" font-family="Times,serif" font-size="14.00">~</text>
<text text-anchor="middle" x="371.01" y="-294.24" font-family="Times,serif" font-size="14.00">Normal</text>
</g>
<!-- beta_zy&#45;&gt;y_mu -->
<g id="edge8" class="edge">
<title>beta_zy&#45;&gt;y_mu</title>
<path fill="none" stroke="black" d="M340.64,-288.18C334.4,-283.45 327.69,-278.85 321.01,-275.13 279.74,-252.15 262.7,-261.34 221.01,-239.13 217.98,-237.52 214.93,-235.75 211.9,-233.88"/>
<polygon fill="black" stroke="black" points="213.93,-231.02 203.64,-228.47 210.09,-236.88 213.93,-231.02"/>
</g>
<!-- c -->
<g id="node7" class="node">
<title>c</title>
<ellipse fill="none" stroke="black" cx="157.01" cy="-433.11" rx="41.01" ry="40.66"/>
<text text-anchor="middle" x="157.01" y="-444.56" font-family="Times,serif" font-size="14.00">c</text>
<text text-anchor="middle" x="157.01" y="-428.06" font-family="Times,serif" font-size="14.00">~</text>
<text text-anchor="middle" x="157.01" y="-411.56" font-family="Times,serif" font-size="14.00">Normal</text>
</g>
<!-- c&#45;&gt;z -->
<g id="edge1" class="edge">
<title>c&#45;&gt;z</title>
<path fill="none" stroke="black" d="M152.88,-392.42C152.06,-384.54 151.19,-376.16 150.34,-367.96"/>
<polygon fill="black" stroke="black" points="153.82,-367.64 149.31,-358.06 146.86,-368.37 153.82,-367.64"/>
</g>
<!-- c&#45;&gt;y_mu -->
<g id="edge4" class="edge">
<title>c&#45;&gt;y_mu</title>
<path fill="none" stroke="black" d="M181.01,-399.53C189.02,-386.76 196.94,-371.56 201.01,-356.45 210.42,-321.56 208.59,-310.47 201.01,-275.13 198.31,-262.52 193.33,-249.47 188.01,-237.84"/>
<polygon fill="black" stroke="black" points="191.23,-236.45 183.73,-228.96 184.92,-239.49 191.23,-236.45"/>
</g>
<!-- z&#45;&gt;y_mu -->
<g id="edge7" class="edge">
<title>z&#45;&gt;y_mu</title>
<path fill="none" stroke="black" d="M152.52,-275.43C154.8,-263.46 157.31,-250.33 159.59,-238.39"/>
<polygon fill="black" stroke="black" points="162.97,-239.36 161.4,-228.88 156.09,-238.05 162.97,-239.36"/>
</g>
<!-- y_mu&#45;&gt;y -->
<g id="edge10" class="edge">
<title>y_mu&#45;&gt;y</title>
<path fill="none" stroke="black" d="M167.5,-169.27C167.69,-158.44 167.91,-145.73 168.12,-133.41"/>
<polygon fill="black" stroke="black" points="171.62,-133.84 168.29,-123.78 164.62,-133.72 171.62,-133.84"/>
</g>
</g>
</svg>