<?xml version="1.0" encoding="UTF-8" standalone="no"?>
<!DOCTYPE svg PUBLIC "-//W3C//DTD SVG 1.1//EN"
 "http://www.w3.org/Graphics/SVG/1.1/DTD/svg11.dtd">
<!-- Generated by graphviz version 8.1.0 (0)
 -->
<!-- Pages: 1 -->
<svg width="681pt" height="369pt"
 viewBox="0.00 0.00 681.45 368.95" xmlns="http://www.w3.org/2000/svg" xmlns:xlink="http://www.w3.org/1999/xlink">
<g id="graph0" class="graph" transform="scale(1 1) rotate(0) translate(4 364.95)">
<polygon fill="white" stroke="none" points="-4,4 -4,-364.95 677.45,-364.95 677.45,4 -4,4"/>
<g id="clust1" class="cluster">
<title>clusterobs_id (919)</title>
<path fill="none" stroke="black" d="M20,-8C20,-8 205,-8 205,-8 211,-8 217,-14 217,-20 217,-20 217,-227.73 217,-227.73 217,-233.73 211,-239.73 205,-239.73 205,-239.73 20,-239.73 20,-239.73 14,-239.73 8,-233.73 8,-227.73 8,-227.73 8,-20 8,-20 8,-14 14,-8 20,-8"/>
<text text-anchor="middle" x="174.5" y="-15.2" font-family="Times,serif" font-size="14.00">obs_id (919)</text>
</g>
<g id="clust2" class="cluster">
<title>clustercounty (85)</title>
<path fill="none" stroke="black" d="M363,-129.82C363,-129.82 537,-129.82 537,-129.82 543,-129.82 549,-135.82 549,-141.82 549,-141.82 549,-239.63 549,-239.63 549,-245.63 543,-251.63 537,-251.63 537,-251.63 363,-251.63 363,-251.63 357,-251.63 351,-245.63 351,-239.63 351,-239.63 351,-141.82 351,-141.82 351,-135.82 357,-129.82 363,-129.82"/>
<text text-anchor="middle" x="509.5" y="-137.02" font-family="Times,serif" font-size="14.00">county (85)</text>
</g>
<!-- y_like -->
<g id="node1" class="node">
<title>y_like</title>
<ellipse fill="lightgrey" stroke="black" cx="168" cy="-81.16" rx="41.01" ry="40.66"/>
<text text-anchor="middle" x="168" y="-92.61" font-family="Times,serif" font-size="14.00">y_like</text>
<text text-anchor="middle" x="168" y="-76.11" font-family="Times,serif" font-size="14.00">~</text>
<text text-anchor="middle" x="168" y="-59.61" font-family="Times,serif" font-size="14.00">Normal</text>
</g>
<!-- floor_idx -->
<g id="node2" class="node">
<title>floor_idx</title>
<path fill="lightgrey" stroke="black" d="M196.62,-231.73C196.62,-231.73 133.38,-231.73 133.38,-231.73 127.38,-231.73 121.38,-225.73 121.38,-219.73 121.38,-219.73 121.38,-186.23 121.38,-186.23 121.38,-180.23 127.38,-174.23 133.38,-174.23 133.38,-174.23 196.62,-174.23 196.62,-174.23 202.62,-174.23 208.62,-180.23 208.62,-186.23 208.62,-186.23 208.62,-219.73 208.62,-219.73 208.62,-225.73 202.62,-231.73 196.62,-231.73"/>
<text text-anchor="middle" x="165" y="-214.43" font-family="Times,serif" font-size="14.00">floor_idx</text>
<text text-anchor="middle" x="165" y="-197.93" font-family="Times,serif" font-size="14.00">~</text>
<text text-anchor="middle" x="165" y="-181.43" font-family="Times,serif" font-size="14.00">MutableData</text>
</g>
<!-- floor_idx&#45;&gt;y_like -->
<g id="edge7" class="edge">
<title>floor_idx&#45;&gt;y_like</title>
<path fill="none" stroke="black" d="M165.7,-173.88C166.01,-161.54 166.39,-146.65 166.74,-132.5"/>
<polygon fill="black" stroke="black" points="170.25,-132.95 167.01,-122.87 163.26,-132.78 170.25,-132.95"/>
</g>
<!-- county_idx -->
<g id="node3" class="node">
<title>county_idx</title>
<path fill="lightgrey" stroke="black" d="M91.62,-231.73C91.62,-231.73 28.38,-231.73 28.38,-231.73 22.38,-231.73 16.38,-225.73 16.38,-219.73 16.38,-219.73 16.38,-186.23 16.38,-186.23 16.38,-180.23 22.38,-174.23 28.38,-174.23 28.38,-174.23 91.62,-174.23 91.62,-174.23 97.62,-174.23 103.62,-180.23 103.62,-186.23 103.62,-186.23 103.62,-219.73 103.62,-219.73 103.62,-225.73 97.62,-231.73 91.62,-231.73"/>
<text text-anchor="middle" x="60" y="-214.43" font-family="Times,serif" font-size="14.00">county_idx</text>
<text text-anchor="middle" x="60" y="-197.93" font-family="Times,serif" font-size="14.00">~</text>
<text text-anchor="middle" x="60" y="-181.43" font-family="Times,serif" font-size="14.00">MutableData</text>
</g>
<!-- county_idx&#45;&gt;y_like -->
<g id="edge9" class="edge">
<title>county_idx&#45;&gt;y_like</title>
<path fill="none" stroke="black" d="M77.8,-174.05C87.23,-160.14 99.44,-143.44 112,-129.82 116.89,-124.52 122.34,-119.24 127.87,-114.23"/>
<polygon fill="black" stroke="black" points="129.77,-116.34 134.98,-107.12 125.15,-111.08 129.77,-116.34"/>
</g>
<!-- sigma_a -->
<g id="node4" class="node">
<title>sigma_a</title>
<ellipse fill="none" stroke="black" cx="284" cy="-320.29" rx="57.45" ry="40.66"/>
<text text-anchor="middle" x="284" y="-331.74" font-family="Times,serif" font-size="14.00">sigma_a</text>
<text text-anchor="middle" x="284" y="-315.24" font-family="Times,serif" font-size="14.00">~</text>
<text text-anchor="middle" x="284" y="-298.74" font-family="Times,serif" font-size="14.00">Exponential</text>
</g>
<!-- alpha -->
<g id="node9" class="node">
<title>alpha</title>
<ellipse fill="none" stroke="black" cx="400" cy="-202.98" rx="41.01" ry="40.66"/>
<text text-anchor="middle" x="400" y="-214.43" font-family="Times,serif" font-size="14.00">alpha</text>
<text text-anchor="middle" x="400" y="-197.93" font-family="Times,serif" font-size="14.00">~</text>
<text text-anchor="middle" x="400" y="-181.43" font-family="Times,serif" font-size="14.00">Normal</text>
</g>
<!-- sigma_a&#45;&gt;alpha -->
<g id="edge2" class="edge">
<title>sigma_a&#45;&gt;alpha</title>
<path fill="none" stroke="black" d="M316.93,-286.56C331.53,-272.04 348.76,-254.91 363.73,-240.03"/>
<polygon fill="black" stroke="black" points="365.7,-243.01 370.33,-233.48 360.77,-238.05 365.7,-243.01"/>
</g>
<!-- mu_a -->
<g id="node5" class="node">
<title>mu_a</title>
<ellipse fill="none" stroke="black" cx="400" cy="-320.29" rx="41.01" ry="40.66"/>
<text text-anchor="middle" x="400" y="-331.74" font-family="Times,serif" font-size="14.00">mu_a</text>
<text text-anchor="middle" x="400" y="-315.24" font-family="Times,serif" font-size="14.00">~</text>
<text text-anchor="middle" x="400" y="-298.74" font-family="Times,serif" font-size="14.00">Normal</text>
</g>
<!-- mu_a&#45;&gt;alpha -->
<g id="edge1" class="edge">
<title>mu_a&#45;&gt;alpha</title>
<path fill="none" stroke="black" d="M400,-279.28C400,-271.41 400,-263.06 400,-254.88"/>
<polygon fill="black" stroke="black" points="403.5,-254.91 400,-244.91 396.5,-254.91 403.5,-254.91"/>
</g>
<!-- mu_b -->
<g id="node6" class="node">
<title>mu_b</title>
<ellipse fill="none" stroke="black" cx="500" cy="-320.29" rx="41.01" ry="40.66"/>
<text text-anchor="middle" x="500" y="-331.74" font-family="Times,serif" font-size="14.00">mu_b</text>
<text text-anchor="middle" x="500" y="-315.24" font-family="Times,serif" font-size="14.00">~</text>
<text text-anchor="middle" x="500" y="-298.74" font-family="Times,serif" font-size="14.00">Normal</text>
</g>
<!-- beta -->
<g id="node10" class="node">
<title>beta</title>
<ellipse fill="none" stroke="black" cx="500" cy="-202.98" rx="41.01" ry="40.66"/>
<text text-anchor="middle" x="500" y="-214.43" font-family="Times,serif" font-size="14.00">beta</text>
<text text-anchor="middle" x="500" y="-197.93" font-family="Times,serif" font-size="14.00">~</text>
<text text-anchor="middle" x="500" y="-181.43" font-family="Times,serif" font-size="14.00">Normal</text>
</g>
<!-- mu_b&#45;&gt;beta -->
<g id="edge4" class="edge">
<title>mu_b&#45;&gt;beta</title>
<path fill="none" stroke="black" d="M500,-279.28C500,-271.41 500,-263.06 500,-254.88"/>
<polygon fill="black" stroke="black" points="503.5,-254.91 500,-244.91 496.5,-254.91 503.5,-254.91"/>
</g>
<!-- sigma_y -->
<g id="node7" class="node">
<title>sigma_y</title>
<ellipse fill="none" stroke="black" cx="284" cy="-202.98" rx="57.45" ry="40.66"/>
<text text-anchor="middle" x="284" y="-214.43" font-family="Times,serif" font-size="14.00">sigma_y</text>
<text text-anchor="middle" x="284" y="-197.93" font-family="Times,serif" font-size="14.00">~</text>
<text text-anchor="middle" x="284" y="-181.43" font-family="Times,serif" font-size="14.00">Exponential</text>
</g>
<!-- sigma_y&#45;&gt;y_like -->
<g id="edge6" class="edge">
<title>sigma_y&#45;&gt;y_like</title>
<path fill="none" stroke="black" d="M255.33,-167.44C244.84,-155.26 232.67,-141.66 221,-129.82 216.38,-125.13 211.4,-120.34 206.4,-115.68"/>
<polygon fill="black" stroke="black" points="209.31,-113.69 199.58,-109.51 204.58,-118.85 209.31,-113.69"/>
</g>
<!-- sigma_b -->
<g id="node8" class="node">
<title>sigma_b</title>
<ellipse fill="none" stroke="black" cx="616" cy="-320.29" rx="57.45" ry="40.66"/>
<text text-anchor="middle" x="616" y="-331.74" font-family="Times,serif" font-size="14.00">sigma_b</text>
<text text-anchor="middle" x="616" y="-315.24" font-family="Times,serif" font-size="14.00">~</text>
<text text-anchor="middle" x="616" y="-298.74" font-family="Times,serif" font-size="14.00">Exponential</text>
</g>
<!-- sigma_b&#45;&gt;beta -->
<g id="edge3" class="edge">
<title>sigma_b&#45;&gt;beta</title>
<path fill="none" stroke="black" d="M583.07,-286.56C568.47,-272.04 551.24,-254.91 536.27,-240.03"/>
<polygon fill="black" stroke="black" points="539.23,-238.05 529.67,-233.48 534.3,-243.01 539.23,-238.05"/>
</g>
<!-- alpha&#45;&gt;y_like -->
<g id="edge8" class="edge">
<title>alpha&#45;&gt;y_like</title>
<path fill="none" stroke="black" d="M382.25,-166.23C374.09,-153.04 363.24,-139.08 350,-129.82 311.35,-102.78 258.38,-91.08 219.56,-86.02"/>
<polygon fill="black" stroke="black" points="220.35,-82.47 210,-84.76 219.52,-89.42 220.35,-82.47"/>
</g>
<!-- beta&#45;&gt;y_like -->
<g id="edge5" class="edge">
<title>beta&#45;&gt;y_like</title>
<path fill="none" stroke="black" d="M482.66,-165.61C474.55,-152.34 463.64,-138.48 450,-129.82 412.66,-106.09 290.64,-92.3 219.94,-86.11"/>
<polygon fill="black" stroke="black" points="220.32,-82.55 210.06,-85.18 219.72,-89.52 220.32,-82.55"/>
</g>
</g>
</svg>