<?xml version="1.0" encoding="UTF-8" standalone="no"?>
<!DOCTYPE svg PUBLIC "-//W3C//DTD SVG 1.1//EN"
 "http://www.w3.org/Graphics/SVG/1.1/DTD/svg11.dtd">
<!-- Generated by graphviz version 8.1.0 (0)
 -->
<!-- Pages: 1 -->
<svg width="330pt" height="369pt"
 viewBox="0.00 0.00 330.46 368.54" xmlns="http://www.w3.org/2000/svg" xmlns:xlink="http://www.w3.org/1999/xlink">
<g id="graph0" class="graph" transform="scale(1 1) rotate(0) translate(4 364.54)">
<polygon fill="white" stroke="none" points="-4,4 -4,-364.54 326.46,-364.54 326.46,4 -4,4"/>
<g id="clust1" class="cluster">
<title>clusterobs_id (100)</title>
<path fill="none" stroke="black" d="M103.01,-8C103.01,-8 185.01,-8 185.01,-8 191.01,-8 197.01,-14 197.01,-20 197.01,-20 197.01,-340.54 197.01,-340.54 197.01,-346.54 191.01,-352.54 185.01,-352.54 185.01,-352.54 103.01,-352.54 103.01,-352.54 97.01,-352.54 91.01,-346.54 91.01,-340.54 91.01,-340.54 91.01,-20 91.01,-20 91.01,-14 97.01,-8 103.01,-8"/>
<text text-anchor="middle" x="154.51" y="-15.2" font-family="Times,serif" font-size="14.00">obs_id (100)</text>
</g>
<!-- β1 -->
<g id="node1" class="node">
<title>β1</title>
<ellipse fill="none" stroke="black" cx="41.01" cy="-315.79" rx="41.01" ry="40.66"/>
<text text-anchor="middle" x="41.01" y="-327.24" font-family="Times,serif" font-size="14.00">β1</text>
<text text-anchor="middle" x="41.01" y="-310.74" font-family="Times,serif" font-size="14.00">~</text>
<text text-anchor="middle" x="41.01" y="-294.24" font-family="Times,serif" font-size="14.00">Normal</text>
</g>
<!-- μ -->
<g id="node6" class="node">
<title>μ</title>
<polygon fill="none" stroke="black" points="189.14,-227.23 98.89,-227.23 98.89,-169.73 189.14,-169.73 189.14,-227.23"/>
<text text-anchor="middle" x="144.01" y="-209.93" font-family="Times,serif" font-size="14.00">μ</text>
<text text-anchor="middle" x="144.01" y="-193.43" font-family="Times,serif" font-size="14.00">~</text>
<text text-anchor="middle" x="144.01" y="-176.93" font-family="Times,serif" font-size="14.00">Deterministic</text>
</g>
<!-- β1&#45;&gt;μ -->
<g id="edge1" class="edge">
<title>β1&#45;&gt;μ</title>
<path fill="none" stroke="black" d="M67.81,-284.8C81.31,-269.68 97.78,-251.24 111.95,-235.37"/>
<polygon fill="black" stroke="black" points="114.07,-238.13 118.12,-228.34 108.85,-233.47 114.07,-238.13"/>
</g>
<!-- sigma -->
<g id="node2" class="node">
<title>sigma</title>
<ellipse fill="none" stroke="black" cx="265.01" cy="-198.48" rx="57.45" ry="40.66"/>
<text text-anchor="middle" x="265.01" y="-209.93" font-family="Times,serif" font-size="14.00">sigma</text>
<text text-anchor="middle" x="265.01" y="-193.43" font-family="Times,serif" font-size="14.00">~</text>
<text text-anchor="middle" x="265.01" y="-176.93" font-family="Times,serif" font-size="14.00">HalfCauchy</text>
</g>
<!-- y -->
<g id="node4" class="node">
<title>y</title>
<ellipse fill="lightgrey" stroke="black" cx="146.01" cy="-81.16" rx="41.01" ry="40.66"/>
<text text-anchor="middle" x="146.01" y="-92.61" font-family="Times,serif" font-size="14.00">y</text>
<text text-anchor="middle" x="146.01" y="-76.11" font-family="Times,serif" font-size="14.00">~</text>
<text text-anchor="middle" x="146.01" y="-59.61" font-family="Times,serif" font-size="14.00">Normal</text>
</g>
<!-- sigma&#45;&gt;y -->
<g id="edge5" class="edge">
<title>sigma&#45;&gt;y</title>
<path fill="none" stroke="black" d="M231.55,-165.05C216.44,-150.41 198.55,-133.07 183.05,-118.05"/>
<polygon fill="black" stroke="black" points="185.8,-115.87 176.18,-111.43 180.93,-120.9 185.8,-115.87"/>
</g>
<!-- β0 -->
<g id="node3" class="node">
<title>β0</title>
<ellipse fill="none" stroke="black" cx="247.01" cy="-315.79" rx="41.01" ry="40.66"/>
<text text-anchor="middle" x="247.01" y="-327.24" font-family="Times,serif" font-size="14.00">β0</text>
<text text-anchor="middle" x="247.01" y="-310.74" font-family="Times,serif" font-size="14.00">~</text>
<text text-anchor="middle" x="247.01" y="-294.24" font-family="Times,serif" font-size="14.00">Normal</text>
</g>
<!-- β0&#45;&gt;μ -->
<g id="edge3" class="edge">
<title>β0&#45;&gt;μ</title>
<path fill="none" stroke="black" d="M220.22,-284.8C206.72,-269.68 190.25,-251.24 176.08,-235.37"/>
<polygon fill="black" stroke="black" points="179.18,-233.47 169.9,-228.34 173.95,-238.13 179.18,-233.47"/>
</g>
<!-- x -->
<g id="node5" class="node">
<title>x</title>
<path fill="lightgrey" stroke="black" d="M175.64,-344.54C175.64,-344.54 112.39,-344.54 112.39,-344.54 106.39,-344.54 100.39,-338.54 100.39,-332.54 100.39,-332.54 100.39,-299.04 100.39,-299.04 100.39,-293.04 106.39,-287.04 112.39,-287.04 112.39,-287.04 175.64,-287.04 175.64,-287.04 181.64,-287.04 187.64,-293.04 187.64,-299.04 187.64,-299.04 187.64,-332.54 187.64,-332.54 187.64,-338.54 181.64,-344.54 175.64,-344.54"/>
<text text-anchor="middle" x="144.01" y="-327.24" font-family="Times,serif" font-size="14.00">x</text>
<text text-anchor="middle" x="144.01" y="-310.74" font-family="Times,serif" font-size="14.00">~</text>
<text text-anchor="middle" x="144.01" y="-294.24" font-family="Times,serif" font-size="14.00">MutableData</text>
</g>
<!-- x&#45;&gt;μ -->
<g id="edge2" class="edge">
<title>x&#45;&gt;μ</title>
<path fill="none" stroke="black" d="M144.01,-286.58C144.01,-271.96 144.01,-253.87 144.01,-237.98"/>
<polygon fill="black" stroke="black" points="147.51,-238.39 144.01,-228.39 140.51,-238.39 147.51,-238.39"/>
</g>
<!-- μ&#45;&gt;y -->
<g id="edge4" class="edge">
<title>μ&#45;&gt;y</title>
<path fill="none" stroke="black" d="M144.5,-169.27C144.69,-158.33 144.91,-145.47 145.13,-133.03"/>
<polygon fill="black" stroke="black" points="148.64,-133.33 145.32,-123.27 141.64,-133.21 148.64,-133.33"/>
</g>
</g>
</svg>