<?xml version="1.0" encoding="UTF-8" standalone="no"?>
<!DOCTYPE svg PUBLIC "-//W3C//DTD SVG 1.1//EN"
 "http://www.w3.org/Graphics/SVG/1.1/DTD/svg11.dtd">
<!-- Generated by graphviz version 9.0.0 (0)
 -->
<!-- Pages: 1 -->
<svg width="330pt" height="369pt"
 viewBox="0.00 0.00 330.46 368.54" xmlns="http://www.w3.org/2000/svg" xmlns:xlink="http://www.w3.org/1999/xlink">
<g id="graph0" class="graph" transform="scale(1 1) rotate(0) translate(4 364.54)">
<polygon fill="white" stroke="none" points="-4,4 -4,-364.54 326.46,-364.54 326.46,4 -4,4"/>
<g id="clust1" class="cluster">
<title>clusterobs_id (100)</title>
<path fill="none" stroke="black" d="M103.01,-8C103.01,-8 185.01,-8 185.01,-8 191.01,-8 197.01,-14 197.01,-20 197.01,-20 197.01,-340.54 197.01,-340.54 197.01,-346.54 191.01,-352.54 185.01,-352.54 185.01,-352.54 103.01,-352.54 103.01,-352.54 97.01,-352.54 91.01,-346.54 91.01,-340.54 91.01,-340.54 91.01,-20 91.01,-20 91.01,-14 97.01,-8 103.01,-8"/>
<text text-anchor="middle" x="154.51" y="-15.2" font-family="Times,serif" font-size="14.00">obs_id (100)</text>
</g>
<!-- β0 -->
<g id="node1" class="node">
<title>β0</title>
<ellipse fill="none" stroke="black" cx="41.01" cy="-315.79" rx="41.01" ry="40.66"/>
<text text-anchor="middle" x="41.01" y="-327.24" font-family="Times,serif" font-size="14.00">β0</text>
<text text-anchor="middle" x="41.01" y="-310.74" font-family="Times,serif" font-size="14.00">~</text>
<text text-anchor="middle" x="41.01" y="-294.24" font-family="Times,serif" font-size="14.00">Normal</text>
</g>
<!-- μ -->
<g id="node6" class="node">
<title>μ</title>
<polygon fill="none" stroke="black" points="189.14,-227.23 98.89,-227.23 98.89,-169.73 189.14,-169.73 189.14,-227.23"/>
<text text-anchor="middle" x="144.01" y="-209.93" font-family="Times,serif" font-size="14.00">μ</text>
<text text-anchor="middle" x="144.01" y="-193.43" font-family="Times,serif" font-size="14.00">~</text>
<text text-anchor="middle" x="144.01" y="-176.93" font-family="Times,serif" font-size="14.00">Deterministic</text>
</g>
<!-- β0&#45;&gt;μ -->
<g id="edge1" class="edge">
<title>β0&#45;&gt;μ</title>
<path fill="none" stroke="black" d="M67.81,-284.8C81.18,-269.82 97.48,-251.58 111.56,-235.81"/>
<polygon fill="black" stroke="black" points="114.06,-238.26 118.11,-228.47 108.84,-233.6 114.06,-238.26"/>
</g>
<!-- β1 -->
<g id="node2" class="node">
<title>β1</title>
<ellipse fill="none" stroke="black" cx="247.01" cy="-315.79" rx="41.01" ry="40.66"/>
<text text-anchor="middle" x="247.01" y="-327.24" font-family="Times,serif" font-size="14.00">β1</text>
<text text-anchor="middle" x="247.01" y="-310.74" font-family="Times,serif" font-size="14.00">~</text>
<text text-anchor="middle" x="247.01" y="-294.24" font-family="Times,serif" font-size="14.00">Normal</text>
</g>
<!-- β1&#45;&gt;μ -->
<g id="edge3" class="edge">
<title>β1&#45;&gt;μ</title>
<path fill="none" stroke="black" d="M220.22,-284.8C206.84,-269.82 190.55,-251.58 176.47,-235.81"/>
<polygon fill="black" stroke="black" points="179.18,-233.6 169.91,-228.47 173.96,-238.26 179.18,-233.6"/>
</g>
<!-- sigma -->
<g id="node3" class="node">
<title>sigma</title>
<ellipse fill="none" stroke="black" cx="265.01" cy="-198.48" rx="57.45" ry="40.66"/>
<text text-anchor="middle" x="265.01" y="-209.93" font-family="Times,serif" font-size="14.00">sigma</text>
<text text-anchor="middle" x="265.01" y="-193.43" font-family="Times,serif" font-size="14.00">~</text>
<text text-anchor="middle" x="265.01" y="-176.93" font-family="Times,serif" font-size="14.00">HalfCauchy</text>
</g>
<!-- y -->
<g id="node5" class="node">
<title>y</title>
<ellipse fill="lightgrey" stroke="black" cx="146.01" cy="-81.16" rx="41.01" ry="40.66"/>
<text text-anchor="middle" x="146.01" y="-92.61" font-family="Times,serif" font-size="14.00">y</text>
<text text-anchor="middle" x="146.01" y="-76.11" font-family="Times,serif" font-size="14.00">~</text>
<text text-anchor="middle" x="146.01" y="-59.61" font-family="Times,serif" font-size="14.00">Normal</text>
</g>
<!-- sigma&#45;&gt;y -->
<g id="edge5" class="edge">
<title>sigma&#45;&gt;y</title>
<path fill="none" stroke="black" d="M231.55,-165.05C216.44,-150.41 198.55,-133.07 183.05,-118.05"/>
<polygon fill="black" stroke="black" points="185.89,-115.93 176.27,-111.48 181.02,-120.95 185.89,-115.93"/>
</g>
<!-- x -->
<g id="node4" class="node">
<title>x</title>
<path fill="lightgrey" stroke="black" d="M175.64,-344.54C175.64,-344.54 112.39,-344.54 112.39,-344.54 106.39,-344.54 100.39,-338.54 100.39,-332.54 100.39,-332.54 100.39,-299.04 100.39,-299.04 100.39,-293.04 106.39,-287.04 112.39,-287.04 112.39,-287.04 175.64,-287.04 175.64,-287.04 181.64,-287.04 187.64,-293.04 187.64,-299.04 187.64,-299.04 187.64,-332.54 187.64,-332.54 187.64,-338.54 181.64,-344.54 175.64,-344.54"/>
<text text-anchor="middle" x="144.01" y="-327.24" font-family="Times,serif" font-size="14.00">x</text>
<text text-anchor="middle" x="144.01" y="-310.74" font-family="Times,serif" font-size="14.00">~</text>
<text text-anchor="middle" x="144.01" y="-294.24" font-family="Times,serif" font-size="14.00">MutableData</text>
</g>
<!-- x&#45;&gt;μ -->
<g id="edge2" class="edge">
<title>x&#45;&gt;μ</title>
<path fill="none" stroke="black" d="M144.01,-286.58C144.01,-272.24 144.01,-254.57 144.01,-238.9"/>
<polygon fill="black" stroke="black" points="147.51,-238.91 144.01,-228.91 140.51,-238.91 147.51,-238.91"/>
</g>
<!-- μ&#45;&gt;y -->
<g id="edge4" class="edge">
<title>μ&#45;&gt;y</title>
<path fill="none" stroke="black" d="M144.5,-169.27C144.69,-158.44 144.91,-145.73 145.12,-133.41"/>
<polygon fill="black" stroke="black" points="148.62,-133.84 145.29,-123.78 141.62,-133.72 148.62,-133.84"/>
</g>
</g>
</svg>