<?xml version="1.0" encoding="UTF-8" standalone="no"?>
<!DOCTYPE svg PUBLIC "-//W3C//DTD SVG 1.1//EN"
 "http://www.w3.org/Graphics/SVG/1.1/DTD/svg11.dtd">
<!-- Generated by graphviz version 9.0.0 (0)
 -->
<!-- Pages: 1 -->
<svg width="422pt" height="247pt"
 viewBox="0.00 0.00 422.02 247.13" xmlns="http://www.w3.org/2000/svg" xmlns:xlink="http://www.w3.org/1999/xlink">
<g id="graph0" class="graph" transform="scale(1 1) rotate(0) translate(4 243.13)">
<polygon fill="white" stroke="none" points="-4,4 -4,-243.13 418.02,-243.13 418.02,4 -4,4"/>
<g id="clust1" class="cluster">
<title>cluster50</title>
<path fill="none" stroke="black" d="M157.01,-8C157.01,-8 241.01,-8 241.01,-8 247.01,-8 253.01,-14 253.01,-20 253.01,-20 253.01,-117.82 253.01,-117.82 253.01,-123.82 247.01,-129.82 241.01,-129.82 241.01,-129.82 157.01,-129.82 157.01,-129.82 151.01,-129.82 145.01,-123.82 145.01,-117.82 145.01,-117.82 145.01,-20 145.01,-20 145.01,-14 151.01,-8 157.01,-8"/>
<text text-anchor="middle" x="238.26" y="-15.2" font-family="Times,serif" font-size="14.00">50</text>
</g>
<!-- a -->
<g id="node1" class="node">
<title>a</title>
<ellipse fill="none" stroke="black" cx="41.01" cy="-198.48" rx="41.01" ry="40.66"/>
<text text-anchor="middle" x="41.01" y="-209.93" font-family="Times,serif" font-size="14.00">a</text>
<text text-anchor="middle" x="41.01" y="-193.43" font-family="Times,serif" font-size="14.00">~</text>
<text text-anchor="middle" x="41.01" y="-176.93" font-family="Times,serif" font-size="14.00">Normal</text>
</g>
<!-- D -->
<g id="node5" class="node">
<title>D</title>
<ellipse fill="lightgrey" stroke="black" cx="199.01" cy="-81.16" rx="46.32" ry="40.66"/>
<text text-anchor="middle" x="199.01" y="-92.61" font-family="Times,serif" font-size="14.00">D</text>
<text text-anchor="middle" x="199.01" y="-76.11" font-family="Times,serif" font-size="14.00">~</text>
<text text-anchor="middle" x="199.01" y="-59.61" font-family="Times,serif" font-size="14.00">StudentT</text>
</g>
<!-- a&#45;&gt;D -->
<g id="edge1" class="edge">
<title>a&#45;&gt;D</title>
<path fill="none" stroke="black" d="M72.53,-172.01C78.61,-167.23 84.97,-162.32 91.01,-157.82 111.2,-142.76 133.98,-126.68 153.39,-113.22"/>
<polygon fill="black" stroke="black" points="155.14,-116.27 161.38,-107.71 151.17,-110.51 155.14,-116.27"/>
</g>
<!-- bA -->
<g id="node2" class="node">
<title>bA</title>
<ellipse fill="none" stroke="black" cx="141.01" cy="-198.48" rx="41.01" ry="40.66"/>
<text text-anchor="middle" x="141.01" y="-209.93" font-family="Times,serif" font-size="14.00">bA</text>
<text text-anchor="middle" x="141.01" y="-193.43" font-family="Times,serif" font-size="14.00">~</text>
<text text-anchor="middle" x="141.01" y="-176.93" font-family="Times,serif" font-size="14.00">Normal</text>
</g>
<!-- bA&#45;&gt;D -->
<g id="edge2" class="edge">
<title>bA&#45;&gt;D</title>
<path fill="none" stroke="black" d="M159.05,-161.62C164.24,-151.3 169.98,-139.88 175.45,-129"/>
<polygon fill="black" stroke="black" points="178.54,-130.65 179.91,-120.14 172.29,-127.5 178.54,-130.65"/>
</g>
<!-- sigma -->
<g id="node3" class="node">
<title>sigma</title>
<ellipse fill="none" stroke="black" cx="257.01" cy="-198.48" rx="57.45" ry="40.66"/>
<text text-anchor="middle" x="257.01" y="-209.93" font-family="Times,serif" font-size="14.00">sigma</text>
<text text-anchor="middle" x="257.01" y="-193.43" font-family="Times,serif" font-size="14.00">~</text>
<text text-anchor="middle" x="257.01" y="-176.93" font-family="Times,serif" font-size="14.00">Exponential</text>
</g>
<!-- sigma&#45;&gt;D -->
<g id="edge3" class="edge">
<title>sigma&#45;&gt;D</title>
<path fill="none" stroke="black" d="M238.02,-159.72C233.07,-149.86 227.67,-139.13 222.51,-128.87"/>
<polygon fill="black" stroke="black" points="225.75,-127.54 218.13,-120.18 219.5,-130.68 225.75,-127.54"/>
</g>
<!-- bM -->
<g id="node4" class="node">
<title>bM</title>
<ellipse fill="none" stroke="black" cx="373.01" cy="-198.48" rx="41.01" ry="40.66"/>
<text text-anchor="middle" x="373.01" y="-209.93" font-family="Times,serif" font-size="14.00">bM</text>
<text text-anchor="middle" x="373.01" y="-193.43" font-family="Times,serif" font-size="14.00">~</text>
<text text-anchor="middle" x="373.01" y="-176.93" font-family="Times,serif" font-size="14.00">Normal</text>
</g>
<!-- bM&#45;&gt;D -->
<g id="edge4" class="edge">
<title>bM&#45;&gt;D</title>
<path fill="none" stroke="black" d="M341.72,-171.7C335.62,-166.95 329.19,-162.13 323.01,-157.82 298.76,-140.9 270.71,-123.61 247.43,-109.83"/>
<polygon fill="black" stroke="black" points="249.47,-106.97 239.08,-104.92 245.93,-113.01 249.47,-106.97"/>
</g>
</g>
</svg>