<?xml version="1.0" encoding="UTF-8" standalone="no"?>
<!DOCTYPE svg PUBLIC "-//W3C//DTD SVG 1.1//EN"
 "http://www.w3.org/Graphics/SVG/1.1/DTD/svg11.dtd">
<!-- Generated by graphviz version 9.0.0 (0)
 -->
<!-- Pages: 1 -->
<svg width="316pt" height="345pt"
 viewBox="0.00 0.00 316.01 344.73" xmlns="http://www.w3.org/2000/svg" xmlns:xlink="http://www.w3.org/1999/xlink">
<g id="graph0" class="graph" transform="scale(1 1) rotate(0) translate(4 340.73)">
<polygon fill="white" stroke="none" points="-4,4 -4,-340.73 312.01,-340.73 312.01,4 -4,4"/>
<g id="clust1" class="cluster">
<title>clusterobservation (30)</title>
<path fill="none" stroke="black" d="M20,-8C20,-8 106,-8 106,-8 112,-8 118,-14 118,-20 118,-20 118,-316.73 118,-316.73 118,-322.73 112,-328.73 106,-328.73 106,-328.73 20,-328.73 20,-328.73 14,-328.73 8,-322.73 8,-316.73 8,-316.73 8,-20 8,-20 8,-14 14,-8 20,-8"/>
<text text-anchor="middle" x="65.38" y="-15.2" font-family="Times,serif" font-size="14.00">observation (30)</text>
</g>
<!-- x -->
<g id="node1" class="node">
<title>x</title>
<path fill="lightgrey" stroke="black" d="M95.75,-320.73C95.75,-320.73 30.25,-320.73 30.25,-320.73 24.25,-320.73 18.25,-314.73 18.25,-308.73 18.25,-308.73 18.25,-275.23 18.25,-275.23 18.25,-269.23 24.25,-263.23 30.25,-263.23 30.25,-263.23 95.75,-263.23 95.75,-263.23 101.75,-263.23 107.75,-269.23 107.75,-275.23 107.75,-275.23 107.75,-308.73 107.75,-308.73 107.75,-314.73 101.75,-320.73 95.75,-320.73"/>
<text text-anchor="middle" x="63" y="-303.43" font-family="Times,serif" font-size="14.00">x</text>
<text text-anchor="middle" x="63" y="-286.93" font-family="Times,serif" font-size="14.00">~</text>
<text text-anchor="middle" x="63" y="-270.43" font-family="Times,serif" font-size="14.00">ConstantData</text>
</g>
<!-- p -->
<g id="node3" class="node">
<title>p</title>
<polygon fill="none" stroke="black" points="109.12,-215.32 18.88,-215.32 18.88,-157.82 109.12,-157.82 109.12,-215.32"/>
<text text-anchor="middle" x="64" y="-198.02" font-family="Times,serif" font-size="14.00">p</text>
<text text-anchor="middle" x="64" y="-181.52" font-family="Times,serif" font-size="14.00">~</text>
<text text-anchor="middle" x="64" y="-165.02" font-family="Times,serif" font-size="14.00">Deterministic</text>
</g>
<!-- x&#45;&gt;p -->
<g id="edge2" class="edge">
<title>x&#45;&gt;p</title>
<path fill="none" stroke="black" d="M63.27,-262.99C63.38,-251.84 63.5,-238.81 63.62,-226.75"/>
<polygon fill="black" stroke="black" points="67.12,-227.12 63.71,-217.09 60.12,-227.05 67.12,-227.12"/>
</g>
<!-- y -->
<g id="node2" class="node">
<title>y</title>
<ellipse fill="lightgrey" stroke="black" cx="63" cy="-81.16" rx="47.38" ry="40.66"/>
<text text-anchor="middle" x="63" y="-92.61" font-family="Times,serif" font-size="14.00">y</text>
<text text-anchor="middle" x="63" y="-76.11" font-family="Times,serif" font-size="14.00">~</text>
<text text-anchor="middle" x="63" y="-59.61" font-family="Times,serif" font-size="14.00">Binomial</text>
</g>
<!-- p&#45;&gt;y -->
<g id="edge4" class="edge">
<title>p&#45;&gt;y</title>
<path fill="none" stroke="black" d="M63.73,-157.58C63.66,-150.1 63.58,-141.77 63.5,-133.45"/>
<polygon fill="black" stroke="black" points="67,-133.68 63.4,-123.71 60,-133.75 67,-133.68"/>
</g>
<!-- beta0 -->
<g id="node4" class="node">
<title>beta0</title>
<ellipse fill="none" stroke="black" cx="167" cy="-291.98" rx="41.01" ry="40.66"/>
<text text-anchor="middle" x="167" y="-303.43" font-family="Times,serif" font-size="14.00">beta0</text>
<text text-anchor="middle" x="167" y="-286.93" font-family="Times,serif" font-size="14.00">~</text>
<text text-anchor="middle" x="167" y="-270.43" font-family="Times,serif" font-size="14.00">Normal</text>
</g>
<!-- beta0&#45;&gt;p -->
<g id="edge1" class="edge">
<title>beta0&#45;&gt;p</title>
<path fill="none" stroke="black" d="M138.58,-262.45C126.66,-250.48 112.67,-236.43 100.04,-223.75"/>
<polygon fill="black" stroke="black" points="102.57,-221.33 93.04,-216.72 97.61,-226.27 102.57,-221.33"/>
</g>
<!-- beta1 -->
<g id="node5" class="node">
<title>beta1</title>
<ellipse fill="none" stroke="black" cx="267" cy="-291.98" rx="41.01" ry="40.66"/>
<text text-anchor="middle" x="267" y="-303.43" font-family="Times,serif" font-size="14.00">beta1</text>
<text text-anchor="middle" x="267" y="-286.93" font-family="Times,serif" font-size="14.00">~</text>
<text text-anchor="middle" x="267" y="-270.43" font-family="Times,serif" font-size="14.00">Normal</text>
</g>
<!-- beta1&#45;&gt;p -->
<g id="edge3" class="edge">
<title>beta1&#45;&gt;p</title>
<path fill="none" stroke="black" d="M236.21,-264.42C230.06,-259.74 223.49,-255.14 217,-251.32 186.42,-233.29 149.79,-217.84 120.04,-206.66"/>
<polygon fill="black" stroke="black" points="121.42,-203.44 110.83,-203.26 119,-210.01 121.42,-203.44"/>
</g>
</g>
</svg>