<?xml version="1.0" encoding="UTF-8" standalone="no"?>
<!DOCTYPE svg PUBLIC "-//W3C//DTD SVG 1.1//EN"
 "http://www.w3.org/Graphics/SVG/1.1/DTD/svg11.dtd">
<!-- Generated by graphviz version 9.0.0 (0)
 -->
<!-- Pages: 1 -->
<svg width="332pt" height="380pt"
 viewBox="0.00 0.00 331.53 380.45" xmlns="http://www.w3.org/2000/svg" xmlns:xlink="http://www.w3.org/1999/xlink">
<g id="graph0" class="graph" transform="scale(1 1) rotate(0) translate(4 376.45)">
<polygon fill="white" stroke="none" points="-4,4 -4,-376.45 327.53,-376.45 327.53,4 -4,4"/>
<g id="clust1" class="cluster">
<title>clusteri (1)</title>
<path fill="none" stroke="black" d="M103.54,-8C103.54,-8 185.54,-8 185.54,-8 191.54,-8 197.54,-14 197.54,-20 197.54,-20 197.54,-352.45 197.54,-352.45 197.54,-358.45 191.54,-364.45 185.54,-364.45 185.54,-364.45 103.54,-364.45 103.54,-364.45 97.54,-364.45 91.54,-358.45 91.54,-352.45 91.54,-352.45 91.54,-20 91.54,-20 91.54,-14 97.54,-8 103.54,-8"/>
<text text-anchor="middle" x="177.92" y="-15.2" font-family="Times,serif" font-size="14.00">i (1)</text>
</g>
<!-- beta_y0 -->
<g id="node1" class="node">
<title>beta_y0</title>
<ellipse fill="none" stroke="black" cx="41.54" cy="-315.79" rx="41.54" ry="40.66"/>
<text text-anchor="middle" x="41.54" y="-327.24" font-family="Times,serif" font-size="14.00">beta_y0</text>
<text text-anchor="middle" x="41.54" y="-310.74" font-family="Times,serif" font-size="14.00">~</text>
<text text-anchor="middle" x="41.54" y="-294.24" font-family="Times,serif" font-size="14.00">Normal</text>
</g>
<!-- y_mu -->
<g id="node5" class="node">
<title>y_mu</title>
<polygon fill="none" stroke="black" points="189.67,-227.23 99.42,-227.23 99.42,-169.73 189.67,-169.73 189.67,-227.23"/>
<text text-anchor="middle" x="144.54" y="-209.93" font-family="Times,serif" font-size="14.00">y_mu</text>
<text text-anchor="middle" x="144.54" y="-193.43" font-family="Times,serif" font-size="14.00">~</text>
<text text-anchor="middle" x="144.54" y="-176.93" font-family="Times,serif" font-size="14.00">Deterministic</text>
</g>
<!-- beta_y0&#45;&gt;y_mu -->
<g id="edge1" class="edge">
<title>beta_y0&#45;&gt;y_mu</title>
<path fill="none" stroke="black" d="M68.6,-284.49C81.88,-269.63 97.98,-251.61 111.93,-235.99"/>
<polygon fill="black" stroke="black" points="114.37,-238.51 118.42,-228.72 109.15,-233.85 114.37,-238.51"/>
</g>
<!-- sigma_y -->
<g id="node2" class="node">
<title>sigma_y</title>
<ellipse fill="none" stroke="black" cx="265.54" cy="-198.48" rx="57.98" ry="40.66"/>
<text text-anchor="middle" x="265.54" y="-209.93" font-family="Times,serif" font-size="14.00">sigma_y</text>
<text text-anchor="middle" x="265.54" y="-193.43" font-family="Times,serif" font-size="14.00">~</text>
<text text-anchor="middle" x="265.54" y="-176.93" font-family="Times,serif" font-size="14.00">HalfNormal</text>
</g>
<!-- y -->
<g id="node4" class="node">
<title>y</title>
<ellipse fill="none" stroke="black" cx="146.54" cy="-81.16" rx="41.01" ry="40.66"/>
<text text-anchor="middle" x="146.54" y="-92.61" font-family="Times,serif" font-size="14.00">y</text>
<text text-anchor="middle" x="146.54" y="-76.11" font-family="Times,serif" font-size="14.00">~</text>
<text text-anchor="middle" x="146.54" y="-59.61" font-family="Times,serif" font-size="14.00">Normal</text>
</g>
<!-- sigma_y&#45;&gt;y -->
<g id="edge4" class="edge">
<title>sigma_y&#45;&gt;y</title>
<path fill="none" stroke="black" d="M232.08,-165.05C216.97,-150.41 199.08,-133.07 183.58,-118.05"/>
<polygon fill="black" stroke="black" points="186.42,-115.93 176.8,-111.48 181.55,-120.95 186.42,-115.93"/>
</g>
<!-- beta_xy -->
<g id="node3" class="node">
<title>beta_xy</title>
<ellipse fill="none" stroke="black" cx="247.54" cy="-315.79" rx="41.54" ry="40.66"/>
<text text-anchor="middle" x="247.54" y="-327.24" font-family="Times,serif" font-size="14.00">beta_xy</text>
<text text-anchor="middle" x="247.54" y="-310.74" font-family="Times,serif" font-size="14.00">~</text>
<text text-anchor="middle" x="247.54" y="-294.24" font-family="Times,serif" font-size="14.00">Normal</text>
</g>
<!-- beta_xy&#45;&gt;y_mu -->
<g id="edge3" class="edge">
<title>beta_xy&#45;&gt;y_mu</title>
<path fill="none" stroke="black" d="M220.48,-284.49C207.2,-269.63 191.11,-251.61 177.16,-235.99"/>
<polygon fill="black" stroke="black" points="179.94,-233.85 170.67,-228.72 174.72,-238.51 179.94,-233.85"/>
</g>
<!-- y_mu&#45;&gt;y -->
<g id="edge5" class="edge">
<title>y_mu&#45;&gt;y</title>
<path fill="none" stroke="black" d="M145.03,-169.27C145.22,-158.44 145.44,-145.73 145.65,-133.41"/>
<polygon fill="black" stroke="black" points="149.15,-133.84 145.82,-123.78 142.15,-133.72 149.15,-133.84"/>
</g>
<!-- x -->
<g id="node6" class="node">
<title>x</title>
<ellipse fill="none" stroke="black" cx="144.54" cy="-315.79" rx="41.01" ry="40.66"/>
<text text-anchor="middle" x="144.54" y="-327.24" font-family="Times,serif" font-size="14.00">x</text>
<text text-anchor="middle" x="144.54" y="-310.74" font-family="Times,serif" font-size="14.00">~</text>
<text text-anchor="middle" x="144.54" y="-294.24" font-family="Times,serif" font-size="14.00">Normal</text>
</g>
<!-- x&#45;&gt;y_mu -->
<g id="edge2" class="edge">
<title>x&#45;&gt;y_mu</title>
<path fill="none" stroke="black" d="M144.54,-274.78C144.54,-263.08 144.54,-250.29 144.54,-238.64"/>
<polygon fill="black" stroke="black" points="148.04,-238.95 144.54,-228.95 141.04,-238.95 148.04,-238.95"/>
</g>
</g>
</svg>