<?xml version="1.0" encoding="UTF-8" standalone="no"?>
<!DOCTYPE svg PUBLIC "-//W3C//DTD SVG 1.1//EN"
 "http://www.w3.org/Graphics/SVG/1.1/DTD/svg11.dtd">
<!-- Generated by graphviz version 8.1.0 (0)
 -->
<!-- Pages: 1 -->
<svg width="786pt" height="462pt"
 viewBox="0.00 0.00 785.73 462.45" xmlns="http://www.w3.org/2000/svg" xmlns:xlink="http://www.w3.org/1999/xlink">
<g id="graph0" class="graph" transform="scale(1 1) rotate(0) translate(4 458.45)">
<polygon fill="white" stroke="none" points="-4,4 -4,-458.45 781.73,-458.45 781.73,4 -4,4"/>
<g id="clust1" class="cluster">
<title>clustergroup (5)</title>
<path fill="none" stroke="black" d="M237,-223.32C237,-223.32 545,-223.32 545,-223.32 551,-223.32 557,-229.32 557,-235.32 557,-235.32 557,-333.13 557,-333.13 557,-339.13 551,-345.13 545,-345.13 545,-345.13 237,-345.13 237,-345.13 231,-345.13 225,-339.13 225,-333.13 225,-333.13 225,-235.32 225,-235.32 225,-229.32 231,-223.32 237,-223.32"/>
<text text-anchor="middle" x="523.5" y="-230.52" font-family="Times,serif" font-size="14.00">group (5)</text>
</g>
<g id="clust2" class="cluster">
<title>clusterobs_id (100)</title>
<path fill="none" stroke="black" d="M20,-8C20,-8 205,-8 205,-8 211,-8 217,-14 217,-20 217,-20 217,-321.23 217,-321.23 217,-327.23 211,-333.23 205,-333.23 205,-333.23 20,-333.23 20,-333.23 14,-333.23 8,-327.23 8,-321.23 8,-321.23 8,-20 8,-20 8,-14 14,-8 20,-8"/>
<text text-anchor="middle" x="174.5" y="-15.2" font-family="Times,serif" font-size="14.00">obs_id (100)</text>
</g>
<!-- slope_mu -->
<g id="node1" class="node">
<title>slope_mu</title>
<ellipse fill="none" stroke="black" cx="107" cy="-413.79" rx="48.97" ry="40.66"/>
<text text-anchor="middle" x="107" y="-425.24" font-family="Times,serif" font-size="14.00">slope_mu</text>
<text text-anchor="middle" x="107" y="-408.74" font-family="Times,serif" font-size="14.00">~</text>
<text text-anchor="middle" x="107" y="-392.24" font-family="Times,serif" font-size="14.00">Normal</text>
</g>
<!-- β1 -->
<g id="node6" class="node">
<title>β1</title>
<ellipse fill="none" stroke="black" cx="274" cy="-296.48" rx="41.01" ry="40.66"/>
<text text-anchor="middle" x="274" y="-307.93" font-family="Times,serif" font-size="14.00">β1</text>
<text text-anchor="middle" x="274" y="-291.43" font-family="Times,serif" font-size="14.00">~</text>
<text text-anchor="middle" x="274" y="-274.93" font-family="Times,serif" font-size="14.00">Normal</text>
</g>
<!-- slope_mu&#45;&gt;β1 -->
<g id="edge4" class="edge">
<title>slope_mu&#45;&gt;β1</title>
<path fill="none" stroke="black" d="M143.64,-386.64C150.63,-381.97 157.96,-377.28 165,-373.13 188.99,-359.03 198,-360.8 221,-345.13 226.44,-341.43 231.9,-337.21 237.15,-332.85"/>
<polygon fill="black" stroke="black" points="238.88,-335.11 244.17,-325.93 234.31,-329.81 238.88,-335.11"/>
</g>
<!-- sigma_hyperprior -->
<g id="node2" class="node">
<title>sigma_hyperprior</title>
<ellipse fill="none" stroke="black" cx="698" cy="-413.79" rx="79.73" ry="40.66"/>
<text text-anchor="middle" x="698" y="-425.24" font-family="Times,serif" font-size="14.00">sigma_hyperprior</text>
<text text-anchor="middle" x="698" y="-408.74" font-family="Times,serif" font-size="14.00">~</text>
<text text-anchor="middle" x="698" y="-392.24" font-family="Times,serif" font-size="14.00">HalfNormal</text>
</g>
<!-- sigma -->
<g id="node7" class="node">
<title>sigma</title>
<ellipse fill="none" stroke="black" cx="491" cy="-296.48" rx="57.98" ry="40.66"/>
<text text-anchor="middle" x="491" y="-307.93" font-family="Times,serif" font-size="14.00">sigma</text>
<text text-anchor="middle" x="491" y="-291.43" font-family="Times,serif" font-size="14.00">~</text>
<text text-anchor="middle" x="491" y="-274.93" font-family="Times,serif" font-size="14.00">HalfNormal</text>
</g>
<!-- sigma_hyperprior&#45;&gt;sigma -->
<g id="edge1" class="edge">
<title>sigma_hyperprior&#45;&gt;sigma</title>
<path fill="none" stroke="black" d="M644.69,-383.1C614.19,-366.1 576.01,-344.83 545.33,-327.74"/>
<polygon fill="black" stroke="black" points="547.51,-324.39 537.07,-322.58 544.1,-330.51 547.51,-324.39"/>
</g>
<!-- intercept_mu -->
<g id="node3" class="node">
<title>intercept_mu</title>
<ellipse fill="none" stroke="black" cx="374" cy="-413.79" rx="62.23" ry="40.66"/>
<text text-anchor="middle" x="374" y="-425.24" font-family="Times,serif" font-size="14.00">intercept_mu</text>
<text text-anchor="middle" x="374" y="-408.74" font-family="Times,serif" font-size="14.00">~</text>
<text text-anchor="middle" x="374" y="-392.24" font-family="Times,serif" font-size="14.00">Normal</text>
</g>
<!-- β0 -->
<g id="node8" class="node">
<title>β0</title>
<ellipse fill="none" stroke="black" cx="374" cy="-296.48" rx="41.01" ry="40.66"/>
<text text-anchor="middle" x="374" y="-307.93" font-family="Times,serif" font-size="14.00">β0</text>
<text text-anchor="middle" x="374" y="-291.43" font-family="Times,serif" font-size="14.00">~</text>
<text text-anchor="middle" x="374" y="-274.93" font-family="Times,serif" font-size="14.00">Normal</text>
</g>
<!-- intercept_mu&#45;&gt;β0 -->
<g id="edge3" class="edge">
<title>intercept_mu&#45;&gt;β0</title>
<path fill="none" stroke="black" d="M374,-372.78C374,-364.91 374,-356.56 374,-348.38"/>
<polygon fill="black" stroke="black" points="377.5,-348.41 374,-338.41 370.5,-348.41 377.5,-348.41"/>
</g>
<!-- slope_sigma -->
<g id="node4" class="node">
<title>slope_sigma</title>
<ellipse fill="none" stroke="black" cx="234" cy="-413.79" rx="59.57" ry="40.66"/>
<text text-anchor="middle" x="234" y="-425.24" font-family="Times,serif" font-size="14.00">slope_sigma</text>
<text text-anchor="middle" x="234" y="-408.74" font-family="Times,serif" font-size="14.00">~</text>
<text text-anchor="middle" x="234" y="-392.24" font-family="Times,serif" font-size="14.00">HalfNormal</text>
</g>
<!-- slope_sigma&#45;&gt;β1 -->
<g id="edge5" class="edge">
<title>slope_sigma&#45;&gt;β1</title>
<path fill="none" stroke="black" d="M247.54,-373.75C250.67,-364.73 254.04,-355.03 257.28,-345.67"/>
<polygon fill="black" stroke="black" points="260.91,-346.9 260.88,-336.3 254.29,-344.61 260.91,-346.9"/>
</g>
<!-- intercept_sigma -->
<g id="node5" class="node">
<title>intercept_sigma</title>
<ellipse fill="none" stroke="black" cx="527" cy="-413.79" rx="72.83" ry="40.66"/>
<text text-anchor="middle" x="527" y="-425.24" font-family="Times,serif" font-size="14.00">intercept_sigma</text>
<text text-anchor="middle" x="527" y="-408.74" font-family="Times,serif" font-size="14.00">~</text>
<text text-anchor="middle" x="527" y="-392.24" font-family="Times,serif" font-size="14.00">HalfNormal</text>
</g>
<!-- intercept_sigma&#45;&gt;β0 -->
<g id="edge2" class="edge">
<title>intercept_sigma&#45;&gt;β0</title>
<path fill="none" stroke="black" d="M478.05,-383.2C460.52,-371.94 440.92,-358.58 424,-345.13 419.42,-341.5 414.78,-337.52 410.25,-333.46"/>
<polygon fill="black" stroke="black" points="413.01,-331.32 403.28,-327.12 408.27,-336.47 413.01,-331.32"/>
</g>
<!-- μ -->
<g id="node12" class="node">
<title>μ</title>
<polygon fill="none" stroke="black" points="209.12,-215.32 118.88,-215.32 118.88,-157.82 209.12,-157.82 209.12,-215.32"/>
<text text-anchor="middle" x="164" y="-198.02" font-family="Times,serif" font-size="14.00">μ</text>
<text text-anchor="middle" x="164" y="-181.52" font-family="Times,serif" font-size="14.00">~</text>
<text text-anchor="middle" x="164" y="-165.02" font-family="Times,serif" font-size="14.00">Deterministic</text>
</g>
<!-- β1&#45;&gt;μ -->
<g id="edge6" class="edge">
<title>β1&#45;&gt;μ</title>
<path fill="none" stroke="black" d="M252.91,-261.37C244.02,-248.56 232.96,-234.43 221,-223.32 219.99,-222.38 218.95,-221.45 217.89,-220.53"/>
<polygon fill="black" stroke="black" points="220.37,-217.24 210.37,-213.75 216.01,-222.71 220.37,-217.24"/>
</g>
<!-- y -->
<g id="node9" class="node">
<title>y</title>
<ellipse fill="lightgrey" stroke="black" cx="164" cy="-81.16" rx="41.01" ry="40.66"/>
<text text-anchor="middle" x="164" y="-92.61" font-family="Times,serif" font-size="14.00">y</text>
<text text-anchor="middle" x="164" y="-76.11" font-family="Times,serif" font-size="14.00">~</text>
<text text-anchor="middle" x="164" y="-59.61" font-family="Times,serif" font-size="14.00">Normal</text>
</g>
<!-- sigma&#45;&gt;y -->
<g id="edge12" class="edge">
<title>sigma&#45;&gt;y</title>
<path fill="none" stroke="black" d="M462.72,-260.53C451.47,-247.9 437.91,-234.11 424,-223.32 356.14,-170.66 266,-126.57 211.64,-102.32"/>
<polygon fill="black" stroke="black" points="213.15,-98.72 202.59,-97.88 210.32,-105.12 213.15,-98.72"/>
</g>
<!-- β0&#45;&gt;μ -->
<g id="edge9" class="edge">
<title>β0&#45;&gt;μ</title>
<path fill="none" stroke="black" d="M356.42,-259.48C348.28,-246.26 337.4,-232.34 324,-223.32 293.45,-202.76 252.91,-193.85 220.29,-190.06"/>
<polygon fill="black" stroke="black" points="220.86,-186.5 210.55,-188.97 220.15,-193.47 220.86,-186.5"/>
</g>
<!-- g -->
<g id="node10" class="node">
<title>g</title>
<path fill="lightgrey" stroke="black" d="M91.62,-325.23C91.62,-325.23 28.38,-325.23 28.38,-325.23 22.38,-325.23 16.38,-319.23 16.38,-313.23 16.38,-313.23 16.38,-279.73 16.38,-279.73 16.38,-273.73 22.38,-267.73 28.38,-267.73 28.38,-267.73 91.62,-267.73 91.62,-267.73 97.62,-267.73 103.62,-273.73 103.62,-279.73 103.62,-279.73 103.62,-313.23 103.62,-313.23 103.62,-319.23 97.62,-325.23 91.62,-325.23"/>
<text text-anchor="middle" x="60" y="-307.93" font-family="Times,serif" font-size="14.00">g</text>
<text text-anchor="middle" x="60" y="-291.43" font-family="Times,serif" font-size="14.00">~</text>
<text text-anchor="middle" x="60" y="-274.93" font-family="Times,serif" font-size="14.00">MutableData</text>
</g>
<!-- g&#45;&gt;y -->
<g id="edge10" class="edge">
<title>g&#45;&gt;y</title>
<path fill="none" stroke="black" d="M67.75,-267.38C76.17,-238.88 91.01,-193.94 110,-157.82 116.34,-145.76 124.37,-133.42 132.29,-122.31"/>
<polygon fill="black" stroke="black" points="135.52,-124.82 138.58,-114.68 129.86,-120.7 135.52,-124.82"/>
</g>
<!-- g&#45;&gt;μ -->
<g id="edge7" class="edge">
<title>g&#45;&gt;μ</title>
<path fill="none" stroke="black" d="M76.99,-267.34C86.3,-253.22 98.64,-236.38 112,-223.32 112.17,-223.15 112.33,-222.99 112.5,-222.83"/>
<polygon fill="black" stroke="black" points="114.36,-225.97 119.52,-216.72 109.71,-220.74 114.36,-225.97"/>
</g>
<!-- x -->
<g id="node11" class="node">
<title>x</title>
<path fill="lightgrey" stroke="black" d="M196.62,-325.23C196.62,-325.23 133.38,-325.23 133.38,-325.23 127.38,-325.23 121.38,-319.23 121.38,-313.23 121.38,-313.23 121.38,-279.73 121.38,-279.73 121.38,-273.73 127.38,-267.73 133.38,-267.73 133.38,-267.73 196.62,-267.73 196.62,-267.73 202.62,-267.73 208.62,-273.73 208.62,-279.73 208.62,-279.73 208.62,-313.23 208.62,-313.23 208.62,-319.23 202.62,-325.23 196.62,-325.23"/>
<text text-anchor="middle" x="165" y="-307.93" font-family="Times,serif" font-size="14.00">x</text>
<text text-anchor="middle" x="165" y="-291.43" font-family="Times,serif" font-size="14.00">~</text>
<text text-anchor="middle" x="165" y="-274.93" font-family="Times,serif" font-size="14.00">MutableData</text>
</g>
<!-- x&#45;&gt;μ -->
<g id="edge8" class="edge">
<title>x&#45;&gt;μ</title>
<path fill="none" stroke="black" d="M164.74,-267.41C164.62,-254.92 164.49,-240 164.36,-226.46"/>
<polygon fill="black" stroke="black" points="167.85,-226.46 164.26,-216.5 160.85,-226.53 167.85,-226.46"/>
</g>
<!-- μ&#45;&gt;y -->
<g id="edge11" class="edge">
<title>μ&#45;&gt;y</title>
<path fill="none" stroke="black" d="M164,-157.58C164,-150.01 164,-141.58 164,-133.17"/>
<polygon fill="black" stroke="black" points="167.5,-133.2 164,-123.2 160.5,-133.2 167.5,-133.2"/>
</g>
</g>
</svg>