<?xml version="1.0" encoding="UTF-8" standalone="no"?>
<!DOCTYPE svg PUBLIC "-//W3C//DTD SVG 1.1//EN"
 "http://www.w3.org/Graphics/SVG/1.1/DTD/svg11.dtd">
<!-- Generated by graphviz version 8.1.0 (0)
 -->
<!-- Pages: 1 -->
<svg width="1028pt" height="380pt"
 viewBox="0.00 0.00 1028.45 380.45" xmlns="http://www.w3.org/2000/svg" xmlns:xlink="http://www.w3.org/1999/xlink">
<g id="graph0" class="graph" transform="scale(1 1) rotate(0) translate(4 376.45)">
<polygon fill="white" stroke="none" points="-4,4 -4,-376.45 1024.45,-376.45 1024.45,4 -4,4"/>
<g id="clust1" class="cluster">
<title>clusterobs_id (919)</title>
<path fill="none" stroke="black" d="M20,-8C20,-8 205,-8 205,-8 211,-8 217,-14 217,-20 217,-20 217,-223.23 217,-223.23 217,-229.23 211,-235.23 205,-235.23 205,-235.23 20,-235.23 20,-235.23 14,-235.23 8,-229.23 8,-223.23 8,-223.23 8,-20 8,-20 8,-14 14,-8 20,-8"/>
<text text-anchor="middle" x="174.5" y="-15.2" font-family="Times,serif" font-size="14.00">obs_id (919)</text>
</g>
<g id="clust2" class="cluster">
<title>clustercounty (85)</title>
<path fill="none" stroke="black" d="M364,-137.23C364,-137.23 554,-137.23 554,-137.23 560,-137.23 566,-143.23 566,-149.23 566,-149.23 566,-352.45 566,-352.45 566,-358.45 560,-364.45 554,-364.45 554,-364.45 364,-364.45 364,-364.45 358,-364.45 352,-358.45 352,-352.45 352,-352.45 352,-149.23 352,-149.23 352,-143.23 358,-137.23 364,-137.23"/>
<text text-anchor="middle" x="526.5" y="-144.43" font-family="Times,serif" font-size="14.00">county (85)</text>
</g>
<!-- y_like -->
<g id="node1" class="node">
<title>y_like</title>
<ellipse fill="lightgrey" stroke="black" cx="168" cy="-81.16" rx="41.01" ry="40.66"/>
<text text-anchor="middle" x="168" y="-92.61" font-family="Times,serif" font-size="14.00">y_like</text>
<text text-anchor="middle" x="168" y="-76.11" font-family="Times,serif" font-size="14.00">~</text>
<text text-anchor="middle" x="168" y="-59.61" font-family="Times,serif" font-size="14.00">Normal</text>
</g>
<!-- floor_idx -->
<g id="node2" class="node">
<title>floor_idx</title>
<path fill="lightgrey" stroke="black" d="M196.62,-227.23C196.62,-227.23 133.38,-227.23 133.38,-227.23 127.38,-227.23 121.38,-221.23 121.38,-215.23 121.38,-215.23 121.38,-181.73 121.38,-181.73 121.38,-175.73 127.38,-169.73 133.38,-169.73 133.38,-169.73 196.62,-169.73 196.62,-169.73 202.62,-169.73 208.62,-175.73 208.62,-181.73 208.62,-181.73 208.62,-215.23 208.62,-215.23 208.62,-221.23 202.62,-227.23 196.62,-227.23"/>
<text text-anchor="middle" x="165" y="-209.93" font-family="Times,serif" font-size="14.00">floor_idx</text>
<text text-anchor="middle" x="165" y="-193.43" font-family="Times,serif" font-size="14.00">~</text>
<text text-anchor="middle" x="165" y="-176.93" font-family="Times,serif" font-size="14.00">MutableData</text>
</g>
<!-- floor_idx&#45;&gt;y_like -->
<g id="edge10" class="edge">
<title>floor_idx&#45;&gt;y_like</title>
<path fill="none" stroke="black" d="M165.73,-169.27C166.02,-158.33 166.35,-145.47 166.68,-133.03"/>
<polygon fill="black" stroke="black" points="170.2,-133.36 166.96,-123.27 163.2,-133.18 170.2,-133.36"/>
</g>
<!-- county_idx -->
<g id="node3" class="node">
<title>county_idx</title>
<path fill="lightgrey" stroke="black" d="M91.62,-227.23C91.62,-227.23 28.38,-227.23 28.38,-227.23 22.38,-227.23 16.38,-221.23 16.38,-215.23 16.38,-215.23 16.38,-181.73 16.38,-181.73 16.38,-175.73 22.38,-169.73 28.38,-169.73 28.38,-169.73 91.62,-169.73 91.62,-169.73 97.62,-169.73 103.62,-175.73 103.62,-181.73 103.62,-181.73 103.62,-215.23 103.62,-215.23 103.62,-221.23 97.62,-227.23 91.62,-227.23"/>
<text text-anchor="middle" x="60" y="-209.93" font-family="Times,serif" font-size="14.00">county_idx</text>
<text text-anchor="middle" x="60" y="-193.43" font-family="Times,serif" font-size="14.00">~</text>
<text text-anchor="middle" x="60" y="-176.93" font-family="Times,serif" font-size="14.00">MutableData</text>
</g>
<!-- county_idx&#45;&gt;y_like -->
<g id="edge11" class="edge">
<title>county_idx&#45;&gt;y_like</title>
<path fill="none" stroke="black" d="M83.35,-169.46C92.15,-159.16 102.36,-147.51 112,-137.23 118.1,-130.72 124.74,-123.94 131.24,-117.46"/>
<polygon fill="black" stroke="black" points="133.12,-120.53 137.77,-111.01 128.2,-115.55 133.12,-120.53"/>
</g>
<!-- sigma_b -->
<g id="node4" class="node">
<title>sigma_b</title>
<ellipse fill="none" stroke="black" cx="631" cy="-315.79" rx="57.45" ry="40.66"/>
<text text-anchor="middle" x="631" y="-327.24" font-family="Times,serif" font-size="14.00">sigma_b</text>
<text text-anchor="middle" x="631" y="-310.74" font-family="Times,serif" font-size="14.00">~</text>
<text text-anchor="middle" x="631" y="-294.24" font-family="Times,serif" font-size="14.00">Exponential</text>
</g>
<!-- beta -->
<g id="node11" class="node">
<title>beta</title>
<polygon fill="none" stroke="black" points="450.12,-227.23 359.88,-227.23 359.88,-169.73 450.12,-169.73 450.12,-227.23"/>
<text text-anchor="middle" x="405" y="-209.93" font-family="Times,serif" font-size="14.00">beta</text>
<text text-anchor="middle" x="405" y="-193.43" font-family="Times,serif" font-size="14.00">~</text>
<text text-anchor="middle" x="405" y="-176.93" font-family="Times,serif" font-size="14.00">Deterministic</text>
</g>
<!-- sigma_b&#45;&gt;beta -->
<g id="edge4" class="edge">
<title>sigma_b&#45;&gt;beta</title>
<path fill="none" stroke="black" d="M590.51,-286.39C583.83,-282.31 576.84,-278.4 570,-275.13 523.19,-252.81 505.16,-262.79 459,-239.13 455.69,-237.44 452.37,-235.55 449.08,-233.54"/>
<polygon fill="black" stroke="black" points="451.27,-230.13 440.97,-227.62 447.45,-236 451.27,-230.13"/>
</g>
<!-- sigma_y -->
<g id="node5" class="node">
<title>sigma_y</title>
<ellipse fill="none" stroke="black" cx="284" cy="-198.48" rx="57.45" ry="40.66"/>
<text text-anchor="middle" x="284" y="-209.93" font-family="Times,serif" font-size="14.00">sigma_y</text>
<text text-anchor="middle" x="284" y="-193.43" font-family="Times,serif" font-size="14.00">~</text>
<text text-anchor="middle" x="284" y="-176.93" font-family="Times,serif" font-size="14.00">Exponential</text>
</g>
<!-- sigma_y&#45;&gt;y_like -->
<g id="edge9" class="edge">
<title>sigma_y&#45;&gt;y_like</title>
<path fill="none" stroke="black" d="M251.07,-164.74C236.47,-150.22 219.24,-133.1 204.27,-118.22"/>
<polygon fill="black" stroke="black" points="207.23,-116.23 197.67,-111.66 202.3,-121.2 207.23,-116.23"/>
</g>
<!-- mu_a -->
<g id="node6" class="node">
<title>mu_a</title>
<ellipse fill="none" stroke="black" cx="847" cy="-315.79" rx="41.01" ry="40.66"/>
<text text-anchor="middle" x="847" y="-327.24" font-family="Times,serif" font-size="14.00">mu_a</text>
<text text-anchor="middle" x="847" y="-310.74" font-family="Times,serif" font-size="14.00">~</text>
<text text-anchor="middle" x="847" y="-294.24" font-family="Times,serif" font-size="14.00">Normal</text>
</g>
<!-- alpha -->
<g id="node9" class="node">
<title>alpha</title>
<polygon fill="none" stroke="black" points="558.12,-227.23 467.88,-227.23 467.88,-169.73 558.12,-169.73 558.12,-227.23"/>
<text text-anchor="middle" x="513" y="-209.93" font-family="Times,serif" font-size="14.00">alpha</text>
<text text-anchor="middle" x="513" y="-193.43" font-family="Times,serif" font-size="14.00">~</text>
<text text-anchor="middle" x="513" y="-176.93" font-family="Times,serif" font-size="14.00">Deterministic</text>
</g>
<!-- mu_a&#45;&gt;alpha -->
<g id="edge3" class="edge">
<title>mu_a&#45;&gt;alpha</title>
<path fill="none" stroke="black" d="M816.87,-287.72C810.61,-283.03 803.83,-278.57 797,-275.13 722.85,-237.89 628.3,-217.43 569.19,-207.46"/>
<polygon fill="black" stroke="black" points="570.01,-203.89 559.58,-205.72 568.88,-210.8 570.01,-203.89"/>
</g>
<!-- sigma_a -->
<g id="node7" class="node">
<title>sigma_a</title>
<ellipse fill="none" stroke="black" cx="963" cy="-315.79" rx="57.45" ry="40.66"/>
<text text-anchor="middle" x="963" y="-327.24" font-family="Times,serif" font-size="14.00">sigma_a</text>
<text text-anchor="middle" x="963" y="-310.74" font-family="Times,serif" font-size="14.00">~</text>
<text text-anchor="middle" x="963" y="-294.24" font-family="Times,serif" font-size="14.00">Exponential</text>
</g>
<!-- sigma_a&#45;&gt;alpha -->
<g id="edge1" class="edge">
<title>sigma_a&#45;&gt;alpha</title>
<path fill="none" stroke="black" d="M921.86,-287.13C913.86,-282.61 905.36,-278.36 897,-275.13 785.35,-232.11 645.61,-212.48 569.25,-204.41"/>
<polygon fill="black" stroke="black" points="569.76,-200.84 559.46,-203.31 569.05,-207.81 569.76,-200.84"/>
</g>
<!-- mu_b -->
<g id="node8" class="node">
<title>mu_b</title>
<ellipse fill="none" stroke="black" cx="747" cy="-315.79" rx="41.01" ry="40.66"/>
<text text-anchor="middle" x="747" y="-327.24" font-family="Times,serif" font-size="14.00">mu_b</text>
<text text-anchor="middle" x="747" y="-310.74" font-family="Times,serif" font-size="14.00">~</text>
<text text-anchor="middle" x="747" y="-294.24" font-family="Times,serif" font-size="14.00">Normal</text>
</g>
<!-- mu_b&#45;&gt;beta -->
<g id="edge5" class="edge">
<title>mu_b&#45;&gt;beta</title>
<path fill="none" stroke="black" d="M717.43,-287.31C711.07,-282.6 704.11,-278.23 697,-275.13 598.9,-232.46 557.87,-279.98 459,-239.13 455.06,-237.51 451.14,-235.53 447.32,-233.35"/>
<polygon fill="black" stroke="black" points="449.39,-229.89 439.06,-227.54 445.68,-235.82 449.39,-229.89"/>
</g>
<!-- alpha&#45;&gt;y_like -->
<g id="edge7" class="edge">
<title>alpha&#45;&gt;y_like</title>
<path fill="none" stroke="black" d="M494.22,-169.38C484.97,-157.68 472.83,-145.02 459,-137.23 383.53,-94.66 281.33,-84.27 220.29,-82.14"/>
<polygon fill="black" stroke="black" points="220.48,-78.62 210.39,-81.84 220.28,-85.62 220.48,-78.62"/>
</g>
<!-- z_a -->
<g id="node10" class="node">
<title>z_a</title>
<ellipse fill="none" stroke="black" cx="513" cy="-315.79" rx="41.01" ry="40.66"/>
<text text-anchor="middle" x="513" y="-327.24" font-family="Times,serif" font-size="14.00">z_a</text>
<text text-anchor="middle" x="513" y="-310.74" font-family="Times,serif" font-size="14.00">~</text>
<text text-anchor="middle" x="513" y="-294.24" font-family="Times,serif" font-size="14.00">Normal</text>
</g>
<!-- z_a&#45;&gt;alpha -->
<g id="edge2" class="edge">
<title>z_a&#45;&gt;alpha</title>
<path fill="none" stroke="black" d="M513,-274.78C513,-262.95 513,-250.02 513,-238.27"/>
<polygon fill="black" stroke="black" points="516.5,-238.44 513,-228.44 509.5,-238.44 516.5,-238.44"/>
</g>
<!-- beta&#45;&gt;y_like -->
<g id="edge8" class="edge">
<title>beta&#45;&gt;y_like</title>
<path fill="none" stroke="black" d="M384.85,-169.45C375.41,-158.05 363.3,-145.61 350,-137.23 309.79,-111.89 257.25,-97.63 218.96,-90.01"/>
<polygon fill="black" stroke="black" points="220.04,-86.46 209.56,-88.03 218.73,-93.34 220.04,-86.46"/>
</g>
<!-- z_b -->
<g id="node12" class="node">
<title>z_b</title>
<ellipse fill="none" stroke="black" cx="405" cy="-315.79" rx="41.01" ry="40.66"/>
<text text-anchor="middle" x="405" y="-327.24" font-family="Times,serif" font-size="14.00">z_b</text>
<text text-anchor="middle" x="405" y="-310.74" font-family="Times,serif" font-size="14.00">~</text>
<text text-anchor="middle" x="405" y="-294.24" font-family="Times,serif" font-size="14.00">Normal</text>
</g>
<!-- z_b&#45;&gt;beta -->
<g id="edge6" class="edge">
<title>z_b&#45;&gt;beta</title>
<path fill="none" stroke="black" d="M405,-274.78C405,-262.95 405,-250.02 405,-238.27"/>
<polygon fill="black" stroke="black" points="408.5,-238.44 405,-228.44 401.5,-238.44 408.5,-238.44"/>
</g>
</g>
</svg>