<?xml version="1.0" encoding="UTF-8" standalone="no"?>
<!DOCTYPE svg PUBLIC "-//W3C//DTD SVG 1.1//EN"
 "http://www.w3.org/Graphics/SVG/1.1/DTD/svg11.dtd">
<!-- Generated by graphviz version 9.0.0 (0)
 -->
<!-- Pages: 1 -->
<svg width="322pt" height="188pt"
 viewBox="0.00 0.00 322.30 188.00" xmlns="http://www.w3.org/2000/svg" xmlns:xlink="http://www.w3.org/1999/xlink">
<g id="graph0" class="graph" transform="scale(1 1) rotate(0) translate(4 184)">
<polygon fill="white" stroke="none" points="-4,4 -4,-184 318.3,-184 318.3,4 -4,4"/>
<!-- Istruzione -->
<g id="node1" class="node">
<title>Istruzione</title>
<ellipse fill="none" stroke="black" cx="107.21" cy="-18" rx="47.77" ry="18"/>
<text text-anchor="middle" x="107.21" y="-12.95" font-family="Times,serif" font-size="14.00">Istruzione</text>
</g>
<!-- Reddito -->
<g id="node2" class="node">
<title>Reddito</title>
<ellipse fill="none" stroke="black" cx="274.21" cy="-18" rx="40.09" ry="18"/>
<text text-anchor="middle" x="274.21" y="-12.95" font-family="Times,serif" font-size="14.00">Reddito</text>
</g>
<!-- Istruzione&#45;&gt;Reddito -->
<g id="edge5" class="edge">
<title>Istruzione&#45;&gt;Reddito</title>
<path fill="none" stroke="black" d="M155.16,-18C177.57,-18 199.98,-18 222.39,-18"/>
<polygon fill="black" stroke="black" points="222.24,-21.5 232.24,-18 222.24,-14.5 222.24,-21.5"/>
</g>
<!-- Voti Scolastici -->
<g id="node3" class="node">
<title>Voti Scolastici</title>
<ellipse fill="none" stroke="black" cx="107.21" cy="-90" rx="64.66" ry="18"/>
<text text-anchor="middle" x="107.21" y="-84.95" font-family="Times,serif" font-size="14.00">Voti Scolastici</text>
</g>
<!-- Voti Scolastici&#45;&gt;Istruzione -->
<g id="edge4" class="edge">
<title>Voti Scolastici&#45;&gt;Istruzione</title>
<path fill="none" stroke="black" d="M107.21,-71.7C107.21,-64.41 107.21,-55.73 107.21,-47.54"/>
<polygon fill="black" stroke="black" points="110.71,-47.62 107.21,-37.62 103.71,-47.62 110.71,-47.62"/>
</g>
<!-- Intelligenza -->
<g id="node4" class="node">
<title>Intelligenza</title>
<ellipse fill="none" stroke="black" cx="107.21" cy="-162" rx="54.42" ry="18"/>
<text text-anchor="middle" x="107.21" y="-156.95" font-family="Times,serif" font-size="14.00">Intelligenza</text>
</g>
<!-- Intelligenza&#45;&gt;Istruzione -->
<g id="edge1" class="edge">
<title>Intelligenza&#45;&gt;Istruzione</title>
<path fill="none" stroke="black" d="M64.99,-150.21C43.4,-142.32 19.01,-129.18 6.21,-108 -2.07,-94.31 -2.07,-85.69 6.21,-72 17.53,-53.27 37.91,-40.83 57.4,-32.75"/>
<polygon fill="black" stroke="black" points="58.56,-36.05 66.67,-29.23 56.08,-29.51 58.56,-36.05"/>
</g>
<!-- Intelligenza&#45;&gt;Reddito -->
<g id="edge2" class="edge">
<title>Intelligenza&#45;&gt;Reddito</title>
<path fill="none" stroke="black" d="M141.37,-147.71C162.12,-138.56 188.35,-125 208.21,-108 229.02,-90.19 247.1,-64.65 259.05,-45.5"/>
<polygon fill="black" stroke="black" points="261.91,-47.53 264.09,-37.16 255.92,-43.91 261.91,-47.53"/>
</g>
<!-- Intelligenza&#45;&gt;Voti Scolastici -->
<g id="edge3" class="edge">
<title>Intelligenza&#45;&gt;Voti Scolastici</title>
<path fill="none" stroke="black" d="M107.21,-143.7C107.21,-136.41 107.21,-127.73 107.21,-119.54"/>
<polygon fill="black" stroke="black" points="110.71,-119.62 107.21,-109.62 103.71,-119.62 110.71,-119.62"/>
</g>
</g>
</svg>