<?xml version="1.0" encoding="UTF-8" standalone="no"?>
<!DOCTYPE svg PUBLIC "-//W3C//DTD SVG 1.1//EN"
 "http://www.w3.org/Graphics/SVG/1.1/DTD/svg11.dtd">
<!-- Generated by graphviz version 9.0.0 (0)
 -->
<!-- Pages: 1 -->
<svg width="422pt" height="247pt"
 viewBox="0.00 0.00 422.02 247.13" xmlns="http://www.w3.org/2000/svg" xmlns:xlink="http://www.w3.org/1999/xlink">
<g id="graph0" class="graph" transform="scale(1 1) rotate(0) translate(4 243.13)">
<polygon fill="white" stroke="none" points="-4,4 -4,-243.13 418.02,-243.13 418.02,4 -4,4"/>
<g id="clust1" class="cluster">
<title>cluster50</title>
<path fill="none" stroke="black" d="M162.01,-8C162.01,-8 236.01,-8 236.01,-8 242.01,-8 248.01,-14 248.01,-20 248.01,-20 248.01,-117.82 248.01,-117.82 248.01,-123.82 242.01,-129.82 236.01,-129.82 236.01,-129.82 162.01,-129.82 162.01,-129.82 156.01,-129.82 150.01,-123.82 150.01,-117.82 150.01,-117.82 150.01,-20 150.01,-20 150.01,-14 156.01,-8 162.01,-8"/>
<text text-anchor="middle" x="233.26" y="-15.2" font-family="Times,serif" font-size="14.00">50</text>
</g>
<!-- a -->
<g id="node1" class="node">
<title>a</title>
<ellipse fill="none" stroke="black" cx="41.01" cy="-198.48" rx="41.01" ry="40.66"/>
<text text-anchor="middle" x="41.01" y="-209.93" font-family="Times,serif" font-size="14.00">a</text>
<text text-anchor="middle" x="41.01" y="-193.43" font-family="Times,serif" font-size="14.00">~</text>
<text text-anchor="middle" x="41.01" y="-176.93" font-family="Times,serif" font-size="14.00">Normal</text>
</g>
<!-- D -->
<g id="node5" class="node">
<title>D</title>
<ellipse fill="lightgrey" stroke="black" cx="199.01" cy="-81.16" rx="41.01" ry="40.66"/>
<text text-anchor="middle" x="199.01" y="-92.61" font-family="Times,serif" font-size="14.00">D</text>
<text text-anchor="middle" x="199.01" y="-76.11" font-family="Times,serif" font-size="14.00">~</text>
<text text-anchor="middle" x="199.01" y="-59.61" font-family="Times,serif" font-size="14.00">Normal</text>
</g>
<!-- a&#45;&gt;D -->
<g id="edge1" class="edge">
<title>a&#45;&gt;D</title>
<path fill="none" stroke="black" d="M72.53,-172.01C78.61,-167.23 84.97,-162.32 91.01,-157.82 112.14,-142.06 136.12,-125.17 156.1,-111.35"/>
<polygon fill="black" stroke="black" points="158.06,-114.25 164.31,-105.69 154.09,-108.48 158.06,-114.25"/>
</g>
<!-- bA -->
<g id="node2" class="node">
<title>bA</title>
<ellipse fill="none" stroke="black" cx="141.01" cy="-198.48" rx="41.01" ry="40.66"/>
<text text-anchor="middle" x="141.01" y="-209.93" font-family="Times,serif" font-size="14.00">bA</text>
<text text-anchor="middle" x="141.01" y="-193.43" font-family="Times,serif" font-size="14.00">~</text>
<text text-anchor="middle" x="141.01" y="-176.93" font-family="Times,serif" font-size="14.00">Normal</text>
</g>
<!-- bA&#45;&gt;D -->
<g id="edge2" class="edge">
<title>bA&#45;&gt;D</title>
<path fill="none" stroke="black" d="M159.05,-161.62C164.39,-150.99 170.32,-139.2 175.94,-128.03"/>
<polygon fill="black" stroke="black" points="178.94,-129.85 180.31,-119.34 172.69,-126.7 178.94,-129.85"/>
</g>
<!-- sigma -->
<g id="node3" class="node">
<title>sigma</title>
<ellipse fill="none" stroke="black" cx="257.01" cy="-198.48" rx="57.45" ry="40.66"/>
<text text-anchor="middle" x="257.01" y="-209.93" font-family="Times,serif" font-size="14.00">sigma</text>
<text text-anchor="middle" x="257.01" y="-193.43" font-family="Times,serif" font-size="14.00">~</text>
<text text-anchor="middle" x="257.01" y="-176.93" font-family="Times,serif" font-size="14.00">Exponential</text>
</g>
<!-- sigma&#45;&gt;D -->
<g id="edge3" class="edge">
<title>sigma&#45;&gt;D</title>
<path fill="none" stroke="black" d="M238.02,-159.72C232.97,-149.67 227.45,-138.7 222.2,-128.26"/>
<polygon fill="black" stroke="black" points="225.36,-126.76 217.74,-119.4 219.11,-129.9 225.36,-126.76"/>
</g>
<!-- bM -->
<g id="node4" class="node">
<title>bM</title>
<ellipse fill="none" stroke="black" cx="373.01" cy="-198.48" rx="41.01" ry="40.66"/>
<text text-anchor="middle" x="373.01" y="-209.93" font-family="Times,serif" font-size="14.00">bM</text>
<text text-anchor="middle" x="373.01" y="-193.43" font-family="Times,serif" font-size="14.00">~</text>
<text text-anchor="middle" x="373.01" y="-176.93" font-family="Times,serif" font-size="14.00">Normal</text>
</g>
<!-- bM&#45;&gt;D -->
<g id="edge4" class="edge">
<title>bM&#45;&gt;D</title>
<path fill="none" stroke="black" d="M341.72,-171.7C335.62,-166.95 329.19,-162.13 323.01,-157.82 297.68,-140.14 268.2,-122.06 244.34,-108"/>
<polygon fill="black" stroke="black" points="246.19,-105.03 235.79,-103 242.65,-111.07 246.19,-105.03"/>
</g>
</g>
</svg>