<?xml version="1.0" encoding="UTF-8" standalone="no"?>
<!DOCTYPE svg PUBLIC "-//W3C//DTD SVG 1.1//EN"
 "http://www.w3.org/Graphics/SVG/1.1/DTD/svg11.dtd">
<!-- Generated by graphviz version 9.0.0 (0)
 -->
<!-- Pages: 1 -->
<svg width="424pt" height="498pt"
 viewBox="0.00 0.00 424.02 497.77" xmlns="http://www.w3.org/2000/svg" xmlns:xlink="http://www.w3.org/1999/xlink">
<g id="graph0" class="graph" transform="scale(1 1) rotate(0) translate(4 493.77)">
<polygon fill="white" stroke="none" points="-4,4 -4,-493.77 420.02,-493.77 420.02,4 -4,4"/>
<g id="clust1" class="cluster">
<title>clusteri (1)</title>
<path fill="none" stroke="black" d="M104.01,-8C104.01,-8 210.01,-8 210.01,-8 216.01,-8 222.01,-14 222.01,-20 222.01,-20 222.01,-469.77 222.01,-469.77 222.01,-475.77 216.01,-481.77 210.01,-481.77 210.01,-481.77 104.01,-481.77 104.01,-481.77 98.01,-481.77 92.01,-475.77 92.01,-469.77 92.01,-469.77 92.01,-20 92.01,-20 92.01,-14 98.01,-8 104.01,-8"/>
<text text-anchor="middle" x="202.39" y="-15.2" font-family="Times,serif" font-size="14.00">i (1)</text>
</g>
<!-- beta_cy -->
<g id="node1" class="node">
<title>beta_cy</title>
<ellipse fill="none" stroke="black" cx="41.01" cy="-315.79" rx="41.01" ry="40.66"/>
<text text-anchor="middle" x="41.01" y="-327.24" font-family="Times,serif" font-size="14.00">beta_cy</text>
<text text-anchor="middle" x="41.01" y="-310.74" font-family="Times,serif" font-size="14.00">~</text>
<text text-anchor="middle" x="41.01" y="-294.24" font-family="Times,serif" font-size="14.00">Normal</text>
</g>
<!-- y_mu -->
<g id="node7" class="node">
<title>y_mu</title>
<polygon fill="none" stroke="black" points="212.14,-227.23 121.89,-227.23 121.89,-169.73 212.14,-169.73 212.14,-227.23"/>
<text text-anchor="middle" x="167.01" y="-209.93" font-family="Times,serif" font-size="14.00">y_mu</text>
<text text-anchor="middle" x="167.01" y="-193.43" font-family="Times,serif" font-size="14.00">~</text>
<text text-anchor="middle" x="167.01" y="-176.93" font-family="Times,serif" font-size="14.00">Deterministic</text>
</g>
<!-- beta_cy&#45;&gt;y_mu -->
<g id="edge7" class="edge">
<title>beta_cy&#45;&gt;y_mu</title>
<path fill="none" stroke="black" d="M70.87,-287.46C87.96,-271.83 109.6,-252.02 128.01,-235.17"/>
<polygon fill="black" stroke="black" points="130.36,-237.76 135.37,-228.43 125.63,-232.6 130.36,-237.76"/>
</g>
<!-- beta_y0 -->
<g id="node2" class="node">
<title>beta_y0</title>
<ellipse fill="none" stroke="black" cx="274.01" cy="-315.79" rx="41.54" ry="40.66"/>
<text text-anchor="middle" x="274.01" y="-327.24" font-family="Times,serif" font-size="14.00">beta_y0</text>
<text text-anchor="middle" x="274.01" y="-310.74" font-family="Times,serif" font-size="14.00">~</text>
<text text-anchor="middle" x="274.01" y="-294.24" font-family="Times,serif" font-size="14.00">Normal</text>
</g>
<!-- beta_y0&#45;&gt;y_mu -->
<g id="edge8" class="edge">
<title>beta_y0&#45;&gt;y_mu</title>
<path fill="none" stroke="black" d="M246.46,-285.1C232.43,-269.98 215.27,-251.48 200.48,-235.55"/>
<polygon fill="black" stroke="black" points="203.4,-233.54 194.03,-228.59 198.27,-238.31 203.4,-233.54"/>
</g>
<!-- sigma_y -->
<g id="node3" class="node">
<title>sigma_y</title>
<ellipse fill="none" stroke="black" cx="288.01" cy="-198.48" rx="57.98" ry="40.66"/>
<text text-anchor="middle" x="288.01" y="-209.93" font-family="Times,serif" font-size="14.00">sigma_y</text>
<text text-anchor="middle" x="288.01" y="-193.43" font-family="Times,serif" font-size="14.00">~</text>
<text text-anchor="middle" x="288.01" y="-176.93" font-family="Times,serif" font-size="14.00">HalfNormal</text>
</g>
<!-- y -->
<g id="node10" class="node">
<title>y</title>
<ellipse fill="none" stroke="black" cx="170.01" cy="-81.16" rx="41.01" ry="40.66"/>
<text text-anchor="middle" x="170.01" y="-92.61" font-family="Times,serif" font-size="14.00">y</text>
<text text-anchor="middle" x="170.01" y="-76.11" font-family="Times,serif" font-size="14.00">~</text>
<text text-anchor="middle" x="170.01" y="-59.61" font-family="Times,serif" font-size="14.00">Normal</text>
</g>
<!-- sigma_y&#45;&gt;y -->
<g id="edge10" class="edge">
<title>sigma_y&#45;&gt;y</title>
<path fill="none" stroke="black" d="M254.51,-164.74C239.68,-150.24 222.19,-133.15 206.97,-118.28"/>
<polygon fill="black" stroke="black" points="209.47,-115.82 199.87,-111.34 204.58,-120.83 209.47,-115.82"/>
</g>
<!-- beta_cz -->
<g id="node4" class="node">
<title>beta_cz</title>
<ellipse fill="none" stroke="black" cx="271.01" cy="-433.11" rx="41.01" ry="40.66"/>
<text text-anchor="middle" x="271.01" y="-444.56" font-family="Times,serif" font-size="14.00">beta_cz</text>
<text text-anchor="middle" x="271.01" y="-428.06" font-family="Times,serif" font-size="14.00">~</text>
<text text-anchor="middle" x="271.01" y="-411.56" font-family="Times,serif" font-size="14.00">Normal</text>
</g>
<!-- z -->
<g id="node9" class="node">
<title>z</title>
<ellipse fill="none" stroke="black" cx="167.01" cy="-315.79" rx="47.38" ry="40.66"/>
<text text-anchor="middle" x="167.01" y="-327.24" font-family="Times,serif" font-size="14.00">z</text>
<text text-anchor="middle" x="167.01" y="-310.74" font-family="Times,serif" font-size="14.00">~</text>
<text text-anchor="middle" x="167.01" y="-294.24" font-family="Times,serif" font-size="14.00">Bernoulli</text>
</g>
<!-- beta_cz&#45;&gt;z -->
<g id="edge2" class="edge">
<title>beta_cz&#45;&gt;z</title>
<path fill="none" stroke="black" d="M243.96,-402.11C231.58,-388.39 216.74,-371.93 203.4,-357.14"/>
<polygon fill="black" stroke="black" points="206.06,-354.86 196.76,-349.78 200.86,-359.55 206.06,-354.86"/>
</g>
<!-- beta_z0 -->
<g id="node5" class="node">
<title>beta_z0</title>
<ellipse fill="none" stroke="black" cx="371.01" cy="-433.11" rx="41.01" ry="40.66"/>
<text text-anchor="middle" x="371.01" y="-444.56" font-family="Times,serif" font-size="14.00">beta_z0</text>
<text text-anchor="middle" x="371.01" y="-428.06" font-family="Times,serif" font-size="14.00">~</text>
<text text-anchor="middle" x="371.01" y="-411.56" font-family="Times,serif" font-size="14.00">Normal</text>
</g>
<!-- beta_z0&#45;&gt;z -->
<g id="edge3" class="edge">
<title>beta_z0&#45;&gt;z</title>
<path fill="none" stroke="black" d="M340.62,-405.53C334.38,-400.8 327.68,-396.19 321.01,-392.45 280.55,-369.75 264.08,-378.05 223.01,-356.45 219.15,-354.42 215.24,-352.16 211.39,-349.77"/>
<polygon fill="black" stroke="black" points="213.52,-346.98 203.23,-344.47 209.71,-352.86 213.52,-346.98"/>
</g>
<!-- beta_zy -->
<g id="node6" class="node">
<title>beta_zy</title>
<ellipse fill="none" stroke="black" cx="375.01" cy="-315.79" rx="41.01" ry="40.66"/>
<text text-anchor="middle" x="375.01" y="-327.24" font-family="Times,serif" font-size="14.00">beta_zy</text>
<text text-anchor="middle" x="375.01" y="-310.74" font-family="Times,serif" font-size="14.00">~</text>
<text text-anchor="middle" x="375.01" y="-294.24" font-family="Times,serif" font-size="14.00">Normal</text>
</g>
<!-- beta_zy&#45;&gt;y_mu -->
<g id="edge6" class="edge">
<title>beta_zy&#45;&gt;y_mu</title>
<path fill="none" stroke="black" d="M344.68,-288.11C338.44,-283.39 331.71,-278.81 325.01,-275.13 282.13,-251.6 264.32,-261.87 221.01,-239.13 217.97,-237.54 214.91,-235.78 211.88,-233.92"/>
<polygon fill="black" stroke="black" points="213.9,-231.06 203.61,-228.54 210.08,-236.93 213.9,-231.06"/>
</g>
<!-- y_mu&#45;&gt;y -->
<g id="edge9" class="edge">
<title>y_mu&#45;&gt;y</title>
<path fill="none" stroke="black" d="M167.75,-169.27C168.03,-158.44 168.36,-145.73 168.68,-133.41"/>
<polygon fill="black" stroke="black" points="172.17,-133.87 168.93,-123.78 165.17,-133.69 172.17,-133.87"/>
</g>
<!-- c -->
<g id="node8" class="node">
<title>c</title>
<ellipse fill="none" stroke="black" cx="154.01" cy="-433.11" rx="41.01" ry="40.66"/>
<text text-anchor="middle" x="154.01" y="-444.56" font-family="Times,serif" font-size="14.00">c</text>
<text text-anchor="middle" x="154.01" y="-428.06" font-family="Times,serif" font-size="14.00">~</text>
<text text-anchor="middle" x="154.01" y="-411.56" font-family="Times,serif" font-size="14.00">Normal</text>
</g>
<!-- c&#45;&gt;y_mu -->
<g id="edge5" class="edge">
<title>c&#45;&gt;y_mu</title>
<path fill="none" stroke="black" d="M130.55,-399.46C122.73,-386.68 114.99,-371.5 111.01,-356.45 101.78,-321.51 99.69,-309.46 111.01,-275.13 115.58,-261.3 123.75,-247.92 132.48,-236.36"/>
<polygon fill="black" stroke="black" points="135.09,-238.69 138.58,-228.69 129.62,-234.33 135.09,-238.69"/>
</g>
<!-- c&#45;&gt;z -->
<g id="edge1" class="edge">
<title>c&#45;&gt;z</title>
<path fill="none" stroke="black" d="M158.49,-392.42C159.37,-384.54 160.32,-376.16 161.24,-367.96"/>
<polygon fill="black" stroke="black" points="164.72,-368.39 162.36,-358.06 157.76,-367.6 164.72,-368.39"/>
</g>
<!-- z&#45;&gt;y_mu -->
<g id="edge4" class="edge">
<title>z&#45;&gt;y_mu</title>
<path fill="none" stroke="black" d="M167.01,-274.78C167.01,-263.08 167.01,-250.29 167.01,-238.64"/>
<polygon fill="black" stroke="black" points="170.51,-238.95 167.01,-228.95 163.51,-238.95 170.51,-238.95"/>
</g>
</g>
</svg>