<?xml version="1.0" encoding="UTF-8" standalone="no"?>
<!DOCTYPE svg PUBLIC "-//W3C//DTD SVG 1.1//EN"
 "http://www.w3.org/Graphics/SVG/1.1/DTD/svg11.dtd">
<!-- Generated by graphviz version 8.1.0 (0)
 -->
<!-- Pages: 1 -->
<svg width="444pt" height="251pt"
 viewBox="0.00 0.00 444.45 251.23" xmlns="http://www.w3.org/2000/svg" xmlns:xlink="http://www.w3.org/1999/xlink">
<g id="graph0" class="graph" transform="scale(1 1) rotate(0) translate(4 247.23)">
<polygon fill="white" stroke="none" points="-4,4 -4,-247.23 440.45,-247.23 440.45,4 -4,4"/>
<g id="clust1" class="cluster">
<title>clusterobs_id (919)</title>
<path fill="none" stroke="black" d="M20,-8C20,-8 100,-8 100,-8 106,-8 112,-14 112,-20 112,-20 112,-223.23 112,-223.23 112,-229.23 106,-235.23 100,-235.23 100,-235.23 20,-235.23 20,-235.23 14,-235.23 8,-229.23 8,-223.23 8,-223.23 8,-20 8,-20 8,-14 14,-8 20,-8"/>
<text text-anchor="middle" x="69.5" y="-15.2" font-family="Times,serif" font-size="14.00">obs_id (919)</text>
</g>
<!-- floor_ind -->
<g id="node1" class="node">
<title>floor_ind</title>
<path fill="lightgrey" stroke="black" d="M91.62,-227.23C91.62,-227.23 28.38,-227.23 28.38,-227.23 22.38,-227.23 16.38,-221.23 16.38,-215.23 16.38,-215.23 16.38,-181.73 16.38,-181.73 16.38,-175.73 22.38,-169.73 28.38,-169.73 28.38,-169.73 91.62,-169.73 91.62,-169.73 97.62,-169.73 103.62,-175.73 103.62,-181.73 103.62,-181.73 103.62,-215.23 103.62,-215.23 103.62,-221.23 97.62,-227.23 91.62,-227.23"/>
<text text-anchor="middle" x="60" y="-209.93" font-family="Times,serif" font-size="14.00">floor_ind</text>
<text text-anchor="middle" x="60" y="-193.43" font-family="Times,serif" font-size="14.00">~</text>
<text text-anchor="middle" x="60" y="-176.93" font-family="Times,serif" font-size="14.00">MutableData</text>
</g>
<!-- y -->
<g id="node2" class="node">
<title>y</title>
<ellipse fill="lightgrey" stroke="black" cx="63" cy="-81.16" rx="41.01" ry="40.66"/>
<text text-anchor="middle" x="63" y="-92.61" font-family="Times,serif" font-size="14.00">y</text>
<text text-anchor="middle" x="63" y="-76.11" font-family="Times,serif" font-size="14.00">~</text>
<text text-anchor="middle" x="63" y="-59.61" font-family="Times,serif" font-size="14.00">Normal</text>
</g>
<!-- floor_ind&#45;&gt;y -->
<g id="edge3" class="edge">
<title>floor_ind&#45;&gt;y</title>
<path fill="none" stroke="black" d="M60.73,-169.27C61.02,-158.33 61.35,-145.47 61.68,-133.03"/>
<polygon fill="black" stroke="black" points="65.2,-133.36 61.96,-123.27 58.2,-133.18 65.2,-133.36"/>
</g>
<!-- beta -->
<g id="node3" class="node">
<title>beta</title>
<ellipse fill="none" stroke="black" cx="163" cy="-198.48" rx="41.01" ry="40.66"/>
<text text-anchor="middle" x="163" y="-209.93" font-family="Times,serif" font-size="14.00">beta</text>
<text text-anchor="middle" x="163" y="-193.43" font-family="Times,serif" font-size="14.00">~</text>
<text text-anchor="middle" x="163" y="-176.93" font-family="Times,serif" font-size="14.00">Normal</text>
</g>
<!-- beta&#45;&gt;y -->
<g id="edge1" class="edge">
<title>beta&#45;&gt;y</title>
<path fill="none" stroke="black" d="M136.46,-166.88C124.16,-152.69 109.41,-135.67 96.36,-120.63"/>
<polygon fill="black" stroke="black" points="98.51,-118.76 89.31,-113.5 93.22,-123.35 98.51,-118.76"/>
</g>
<!-- alpha -->
<g id="node4" class="node">
<title>alpha</title>
<ellipse fill="none" stroke="black" cx="263" cy="-198.48" rx="41.01" ry="40.66"/>
<text text-anchor="middle" x="263" y="-209.93" font-family="Times,serif" font-size="14.00">alpha</text>
<text text-anchor="middle" x="263" y="-193.43" font-family="Times,serif" font-size="14.00">~</text>
<text text-anchor="middle" x="263" y="-176.93" font-family="Times,serif" font-size="14.00">Normal</text>
</g>
<!-- alpha&#45;&gt;y -->
<g id="edge4" class="edge">
<title>alpha&#45;&gt;y</title>
<path fill="none" stroke="black" d="M231.98,-171.29C225.85,-166.58 219.35,-161.88 213,-157.82 180.1,-136.78 140.6,-117.06 110.38,-103.03"/>
<polygon fill="black" stroke="black" points="112.07,-99.49 101.52,-98.49 109.14,-105.85 112.07,-99.49"/>
</g>
<!-- sigma -->
<g id="node5" class="node">
<title>sigma</title>
<ellipse fill="none" stroke="black" cx="379" cy="-198.48" rx="57.45" ry="40.66"/>
<text text-anchor="middle" x="379" y="-209.93" font-family="Times,serif" font-size="14.00">sigma</text>
<text text-anchor="middle" x="379" y="-193.43" font-family="Times,serif" font-size="14.00">~</text>
<text text-anchor="middle" x="379" y="-176.93" font-family="Times,serif" font-size="14.00">Exponential</text>
</g>
<!-- sigma&#45;&gt;y -->
<g id="edge2" class="edge">
<title>sigma&#45;&gt;y</title>
<path fill="none" stroke="black" d="M337.23,-170.28C329.36,-165.76 321.07,-161.39 313,-157.82 246.44,-128.29 165.01,-106.04 113.56,-93.55"/>
<polygon fill="black" stroke="black" points="114.6,-89.96 104.06,-91.04 112.97,-96.77 114.6,-89.96"/>
</g>
</g>
</svg>