<?xml version="1.0" encoding="UTF-8" standalone="no"?>
<!DOCTYPE svg PUBLIC "-//W3C//DTD SVG 1.1//EN"
 "http://www.w3.org/Graphics/SVG/1.1/DTD/svg11.dtd">
<!-- Generated by graphviz version 9.0.0 (0)
 -->
<!-- Pages: 1 -->
<svg width="389pt" height="44pt"
 viewBox="0.00 0.00 389.13 44.00" xmlns="http://www.w3.org/2000/svg" xmlns:xlink="http://www.w3.org/1999/xlink">
<g id="graph0" class="graph" transform="scale(1 1) rotate(0) translate(4 40)">
<polygon fill="white" stroke="none" points="-4,4 -4,-40 385.13,-40 385.13,4 -4,4"/>
<!-- Learning -->
<g id="node1" class="node">
<title>Learning</title>
<ellipse fill="none" stroke="black" cx="44.19" cy="-18" rx="44.19" ry="18"/>
<text text-anchor="middle" x="44.19" y="-12.95" font-family="Times,serif" font-size="14.00">Learning</text>
</g>
<!-- Knowing -->
<g id="node2" class="node">
<title>Knowing</title>
<ellipse fill="none" stroke="black" cx="169.58" cy="-18" rx="45.21" ry="18"/>
<text text-anchor="middle" x="169.58" y="-12.95" font-family="Times,serif" font-size="14.00">Knowing</text>
</g>
<!-- Learning&#45;&gt;Knowing -->
<g id="edge1" class="edge">
<title>Learning&#45;&gt;Knowing</title>
<path fill="none" stroke="black" d="M88.69,-18C96.52,-18 104.78,-18 112.9,-18"/>
<polygon fill="black" stroke="black" points="112.71,-21.5 122.71,-18 112.71,-14.5 112.71,-21.5"/>
</g>
<!-- Understanding -->
<g id="node3" class="node">
<title>Understanding</title>
<ellipse fill="none" stroke="black" cx="315.96" cy="-18" rx="65.17" ry="18"/>
<text text-anchor="middle" x="315.96" y="-12.95" font-family="Times,serif" font-size="14.00">Understanding</text>
</g>
<!-- Knowing&#45;&gt;Understanding -->
<g id="edge2" class="edge">
<title>Knowing&#45;&gt;Understanding</title>
<path fill="none" stroke="black" d="M215.08,-18C222.77,-18 230.95,-18 239.2,-18"/>
<polygon fill="black" stroke="black" points="238.93,-21.5 248.93,-18 238.93,-14.5 238.93,-21.5"/>
</g>
</g>
</svg>