<?xml version="1.0" encoding="UTF-8" standalone="no"?>
<!DOCTYPE svg PUBLIC "-//W3C//DTD SVG 1.1//EN"
 "http://www.w3.org/Graphics/SVG/1.1/DTD/svg11.dtd">
<!-- Generated by graphviz version 8.1.0 (0)
 -->
<!-- Pages: 1 -->
<svg width="134pt" height="188pt"
 viewBox="0.00 0.00 134.00 188.00" xmlns="http://www.w3.org/2000/svg" xmlns:xlink="http://www.w3.org/1999/xlink">
<g id="graph0" class="graph" transform="scale(1 1) rotate(0) translate(4 184)">
<polygon fill="white" stroke="none" points="-4,4 -4,-184 130,-184 130,4 -4,4"/>
<!-- X -->
<g id="node1" class="node">
<title>X</title>
<ellipse fill="none" stroke="black" cx="63" cy="-162" rx="27" ry="18"/>
<text text-anchor="middle" x="63" y="-156.95" font-family="Times,serif" font-size="14.00">X</text>
</g>
<!-- Z -->
<g id="node2" class="node">
<title>Z</title>
<ellipse fill="none" stroke="black" cx="63" cy="-90" rx="27" ry="18"/>
<text text-anchor="middle" x="63" y="-84.95" font-family="Times,serif" font-size="14.00">Z</text>
</g>
<!-- X&#45;&gt;Z -->
<g id="edge1" class="edge">
<title>X&#45;&gt;Z</title>
<path fill="none" stroke="black" d="M63,-143.7C63,-136.24 63,-127.32 63,-118.97"/>
<polygon fill="black" stroke="black" points="66.5,-119.1 63,-109.1 59.5,-119.1 66.5,-119.1"/>
</g>
<!-- A -->
<g id="node3" class="node">
<title>A</title>
<ellipse fill="none" stroke="black" cx="27" cy="-18" rx="27" ry="18"/>
<text text-anchor="middle" x="27" y="-12.95" font-family="Times,serif" font-size="14.00">A</text>
</g>
<!-- Z&#45;&gt;A -->
<g id="edge2" class="edge">
<title>Z&#45;&gt;A</title>
<path fill="none" stroke="black" d="M54.65,-72.76C50.38,-64.46 45.08,-54.15 40.27,-44.79"/>
<polygon fill="black" stroke="black" points="42.99,-43.44 35.3,-36.15 36.77,-46.64 42.99,-43.44"/>
</g>
<!-- Y -->
<g id="node4" class="node">
<title>Y</title>
<ellipse fill="none" stroke="black" cx="99" cy="-18" rx="27" ry="18"/>
<text text-anchor="middle" x="99" y="-12.95" font-family="Times,serif" font-size="14.00">Y</text>
</g>
<!-- Z&#45;&gt;Y -->
<g id="edge3" class="edge">
<title>Z&#45;&gt;Y</title>
<path fill="none" stroke="black" d="M71.35,-72.76C75.62,-64.46 80.92,-54.15 85.73,-44.79"/>
<polygon fill="black" stroke="black" points="89.23,-46.64 90.7,-36.15 83.01,-43.44 89.23,-46.64"/>
</g>
</g>
</svg>