<?xml version="1.0" encoding="UTF-8" standalone="no"?>
<!DOCTYPE svg PUBLIC "-//W3C//DTD SVG 1.1//EN"
 "http://www.w3.org/Graphics/SVG/1.1/DTD/svg11.dtd">
<!-- Generated by graphviz version 8.1.0 (0)
 -->
<!-- Pages: 1 -->
<svg width="516pt" height="369pt"
 viewBox="0.00 0.00 515.97 368.95" xmlns="http://www.w3.org/2000/svg" xmlns:xlink="http://www.w3.org/1999/xlink">
<g id="graph0" class="graph" transform="scale(1 1) rotate(0) translate(4 364.95)">
<polygon fill="white" stroke="none" points="-4,4 -4,-364.95 511.97,-364.95 511.97,4 -4,4"/>
<g id="clust1" class="cluster">
<title>cluster333</title>
<path fill="none" stroke="black" d="M32.98,-8C32.98,-8 114.98,-8 114.98,-8 120.98,-8 126.98,-14 126.98,-20 126.98,-20 126.98,-227.73 126.98,-227.73 126.98,-233.73 120.98,-239.73 114.98,-239.73 114.98,-239.73 32.98,-239.73 32.98,-239.73 26.98,-239.73 20.98,-233.73 20.98,-227.73 20.98,-227.73 20.98,-20 20.98,-20 20.98,-14 26.98,-8 32.98,-8"/>
<text text-anchor="middle" x="108.86" y="-15.2" font-family="Times,serif" font-size="14.00">333</text>
</g>
<g id="clust2" class="cluster">
<title>clusterspecies (3)</title>
<path fill="none" stroke="black" d="M146.98,-129.82C146.98,-129.82 354.98,-129.82 354.98,-129.82 360.98,-129.82 366.98,-135.82 366.98,-141.82 366.98,-141.82 366.98,-239.63 366.98,-239.63 366.98,-245.63 360.98,-251.63 354.98,-251.63 354.98,-251.63 146.98,-251.63 146.98,-251.63 140.98,-251.63 134.98,-245.63 134.98,-239.63 134.98,-239.63 134.98,-141.82 134.98,-141.82 134.98,-135.82 140.98,-129.82 146.98,-129.82"/>
<text text-anchor="middle" x="329.73" y="-137.02" font-family="Times,serif" font-size="14.00">species (3)</text>
</g>
<!-- y -->
<g id="node1" class="node">
<title>y</title>
<ellipse fill="lightgrey" stroke="black" cx="77.98" cy="-81.16" rx="41.01" ry="40.66"/>
<text text-anchor="middle" x="77.98" y="-92.61" font-family="Times,serif" font-size="14.00">y</text>
<text text-anchor="middle" x="77.98" y="-76.11" font-family="Times,serif" font-size="14.00">~</text>
<text text-anchor="middle" x="77.98" y="-59.61" font-family="Times,serif" font-size="14.00">Normal</text>
</g>
<!-- species_idx -->
<g id="node2" class="node">
<title>species_idx</title>
<path fill="lightgrey" stroke="black" d="M106.73,-231.73C106.73,-231.73 41.23,-231.73 41.23,-231.73 35.23,-231.73 29.23,-225.73 29.23,-219.73 29.23,-219.73 29.23,-186.23 29.23,-186.23 29.23,-180.23 35.23,-174.23 41.23,-174.23 41.23,-174.23 106.73,-174.23 106.73,-174.23 112.73,-174.23 118.73,-180.23 118.73,-186.23 118.73,-186.23 118.73,-219.73 118.73,-219.73 118.73,-225.73 112.73,-231.73 106.73,-231.73"/>
<text text-anchor="middle" x="73.98" y="-214.43" font-family="Times,serif" font-size="14.00">species_idx</text>
<text text-anchor="middle" x="73.98" y="-197.93" font-family="Times,serif" font-size="14.00">~</text>
<text text-anchor="middle" x="73.98" y="-181.43" font-family="Times,serif" font-size="14.00">ConstantData</text>
</g>
<!-- species_idx&#45;&gt;y -->
<g id="edge5" class="edge">
<title>species_idx&#45;&gt;y</title>
<path fill="none" stroke="black" d="M74.92,-173.88C75.33,-161.54 75.83,-146.65 76.3,-132.5"/>
<polygon fill="black" stroke="black" points="79.82,-132.98 76.66,-122.87 72.83,-132.75 79.82,-132.98"/>
</g>
<!-- mu_sd -->
<g id="node3" class="node">
<title>mu_sd</title>
<ellipse fill="none" stroke="black" cx="57.98" cy="-320.29" rx="57.98" ry="40.66"/>
<text text-anchor="middle" x="57.98" y="-331.74" font-family="Times,serif" font-size="14.00">mu_sd</text>
<text text-anchor="middle" x="57.98" y="-315.24" font-family="Times,serif" font-size="14.00">~</text>
<text text-anchor="middle" x="57.98" y="-298.74" font-family="Times,serif" font-size="14.00">HalfNormal</text>
</g>
<!-- mu -->
<g id="node7" class="node">
<title>mu</title>
<ellipse fill="none" stroke="black" cx="183.98" cy="-202.98" rx="41.01" ry="40.66"/>
<text text-anchor="middle" x="183.98" y="-214.43" font-family="Times,serif" font-size="14.00">mu</text>
<text text-anchor="middle" x="183.98" y="-197.93" font-family="Times,serif" font-size="14.00">~</text>
<text text-anchor="middle" x="183.98" y="-181.43" font-family="Times,serif" font-size="14.00">Normal</text>
</g>
<!-- mu_sd&#45;&gt;mu -->
<g id="edge1" class="edge">
<title>mu_sd&#45;&gt;mu</title>
<path fill="none" stroke="black" d="M92.75,-287.48C109.27,-272.35 129.07,-254.24 145.99,-238.75"/>
<polygon fill="black" stroke="black" points="148.02,-241.72 153.04,-232.38 143.3,-236.55 148.02,-241.72"/>
</g>
<!-- sigma_sd -->
<g id="node4" class="node">
<title>sigma_sd</title>
<ellipse fill="none" stroke="black" cx="449.98" cy="-320.29" rx="57.98" ry="40.66"/>
<text text-anchor="middle" x="449.98" y="-331.74" font-family="Times,serif" font-size="14.00">sigma_sd</text>
<text text-anchor="middle" x="449.98" y="-315.24" font-family="Times,serif" font-size="14.00">~</text>
<text text-anchor="middle" x="449.98" y="-298.74" font-family="Times,serif" font-size="14.00">HalfNormal</text>
</g>
<!-- sigma_mean -->
<g id="node5" class="node">
<title>sigma_mean</title>
<ellipse fill="none" stroke="black" cx="312.98" cy="-320.29" rx="60.63" ry="40.66"/>
<text text-anchor="middle" x="312.98" y="-331.74" font-family="Times,serif" font-size="14.00">sigma_mean</text>
<text text-anchor="middle" x="312.98" y="-315.24" font-family="Times,serif" font-size="14.00">~</text>
<text text-anchor="middle" x="312.98" y="-298.74" font-family="Times,serif" font-size="14.00">HalfNormal</text>
</g>
<!-- sigma -->
<g id="node8" class="node">
<title>sigma</title>
<ellipse fill="none" stroke="black" cx="300.98" cy="-202.98" rx="57.98" ry="40.66"/>
<text text-anchor="middle" x="300.98" y="-214.43" font-family="Times,serif" font-size="14.00">sigma</text>
<text text-anchor="middle" x="300.98" y="-197.93" font-family="Times,serif" font-size="14.00">~</text>
<text text-anchor="middle" x="300.98" y="-181.43" font-family="Times,serif" font-size="14.00">HalfNormal</text>
</g>
<!-- sigma_mean&#45;&gt;sigma -->
<g id="edge3" class="edge">
<title>sigma_mean&#45;&gt;sigma</title>
<path fill="none" stroke="black" d="M308.82,-279.28C307.99,-271.32 307.11,-262.87 306.25,-254.6"/>
<polygon fill="black" stroke="black" points="309.66,-254.5 305.14,-244.91 302.69,-255.22 309.66,-254.5"/>
</g>
<!-- mu_mean -->
<g id="node6" class="node">
<title>mu_mean</title>
<ellipse fill="none" stroke="black" cx="183.98" cy="-320.29" rx="50.03" ry="40.66"/>
<text text-anchor="middle" x="183.98" y="-331.74" font-family="Times,serif" font-size="14.00">mu_mean</text>
<text text-anchor="middle" x="183.98" y="-315.24" font-family="Times,serif" font-size="14.00">~</text>
<text text-anchor="middle" x="183.98" y="-298.74" font-family="Times,serif" font-size="14.00">Normal</text>
</g>
<!-- mu_mean&#45;&gt;mu -->
<g id="edge2" class="edge">
<title>mu_mean&#45;&gt;mu</title>
<path fill="none" stroke="black" d="M183.98,-279.28C183.98,-271.41 183.98,-263.06 183.98,-254.88"/>
<polygon fill="black" stroke="black" points="187.48,-254.91 183.98,-244.91 180.48,-254.91 187.48,-254.91"/>
</g>
<!-- mu&#45;&gt;y -->
<g id="edge4" class="edge">
<title>mu&#45;&gt;y</title>
<path fill="none" stroke="black" d="M161.59,-168.54C152.62,-155.95 141.83,-141.8 130.98,-129.82 126.57,-124.94 121.7,-120.04 116.76,-115.32"/>
<polygon fill="black" stroke="black" points="119.7,-113.35 109.99,-109.11 114.94,-118.48 119.7,-113.35"/>
</g>
<!-- sigma&#45;&gt;y -->
<g id="edge6" class="edge">
<title>sigma&#45;&gt;y</title>
<path fill="none" stroke="black" d="M274.75,-166.59C263.47,-153.46 249.34,-139.43 233.98,-129.82 201.96,-109.76 160.94,-97.67 129.01,-90.68"/>
<polygon fill="black" stroke="black" points="130.05,-87.12 119.55,-88.51 128.63,-93.97 130.05,-87.12"/>
</g>
</g>
</svg>