<?xml version="1.0" encoding="UTF-8" standalone="no"?>
<!DOCTYPE svg PUBLIC "-//W3C//DTD SVG 1.1//EN"
 "http://www.w3.org/Graphics/SVG/1.1/DTD/svg11.dtd">
<!-- Generated by graphviz version 8.1.0 (0)
 -->
<!-- Pages: 1 -->
<svg width="176pt" height="300pt"
 viewBox="0.00 0.00 175.63 300.13" xmlns="http://www.w3.org/2000/svg" xmlns:xlink="http://www.w3.org/1999/xlink">
<g id="graph0" class="graph" transform="scale(1 1) rotate(0) translate(4 296.13)">
<polygon fill="white" stroke="none" points="-4,4 -4,-296.13 171.63,-296.13 171.63,4 -4,4"/>
<!-- n_trials -->
<g id="node1" class="node">
<title>n_trials</title>
<path fill="lightgrey" stroke="black" d="M77.5,-280.23C77.5,-280.23 12,-280.23 12,-280.23 6,-280.23 0,-274.23 0,-268.23 0,-268.23 0,-234.73 0,-234.73 0,-228.73 6,-222.73 12,-222.73 12,-222.73 77.5,-222.73 77.5,-222.73 83.5,-222.73 89.5,-228.73 89.5,-234.73 89.5,-234.73 89.5,-268.23 89.5,-268.23 89.5,-274.23 83.5,-280.23 77.5,-280.23"/>
<text text-anchor="middle" x="44.75" y="-262.93" font-family="Times,serif" font-size="14.00">n_trials</text>
<text text-anchor="middle" x="44.75" y="-246.43" font-family="Times,serif" font-size="14.00">~</text>
<text text-anchor="middle" x="44.75" y="-229.93" font-family="Times,serif" font-size="14.00">ConstantData</text>
</g>
<!-- obs -->
<g id="node4" class="node">
<title>obs</title>
<ellipse fill="lightgrey" stroke="black" cx="90.75" cy="-134.16" rx="47.38" ry="40.66"/>
<text text-anchor="middle" x="90.75" y="-145.61" font-family="Times,serif" font-size="14.00">obs</text>
<text text-anchor="middle" x="90.75" y="-129.11" font-family="Times,serif" font-size="14.00">~</text>
<text text-anchor="middle" x="90.75" y="-112.61" font-family="Times,serif" font-size="14.00">Binomial</text>
</g>
<!-- n_trials&#45;&gt;obs -->
<g id="edge2" class="edge">
<title>n_trials&#45;&gt;obs</title>
<path fill="none" stroke="black" d="M56,-222.27C60.71,-210.47 66.31,-196.43 71.63,-183.1"/>
<polygon fill="black" stroke="black" points="75.16,-184.68 75.62,-174.09 68.66,-182.08 75.16,-184.68"/>
</g>
<!-- y_data -->
<g id="node2" class="node">
<title>y_data</title>
<path fill="lightgrey" stroke="black" d="M123.5,-57.5C123.5,-57.5 58,-57.5 58,-57.5 52,-57.5 46,-51.5 46,-45.5 46,-45.5 46,-12 46,-12 46,-6 52,0 58,0 58,0 123.5,0 123.5,0 129.5,0 135.5,-6 135.5,-12 135.5,-12 135.5,-45.5 135.5,-45.5 135.5,-51.5 129.5,-57.5 123.5,-57.5"/>
<text text-anchor="middle" x="90.75" y="-40.2" font-family="Times,serif" font-size="14.00">y_data</text>
<text text-anchor="middle" x="90.75" y="-23.7" font-family="Times,serif" font-size="14.00">~</text>
<text text-anchor="middle" x="90.75" y="-7.2" font-family="Times,serif" font-size="14.00">ConstantData</text>
</g>
<!-- theta -->
<g id="node3" class="node">
<title>theta</title>
<ellipse fill="none" stroke="black" cx="137.75" cy="-251.48" rx="29.88" ry="40.66"/>
<text text-anchor="middle" x="137.75" y="-262.93" font-family="Times,serif" font-size="14.00">theta</text>
<text text-anchor="middle" x="137.75" y="-246.43" font-family="Times,serif" font-size="14.00">~</text>
<text text-anchor="middle" x="137.75" y="-229.93" font-family="Times,serif" font-size="14.00">Beta</text>
</g>
<!-- theta&#45;&gt;obs -->
<g id="edge3" class="edge">
<title>theta&#45;&gt;obs</title>
<path fill="none" stroke="black" d="M123.39,-215.25C119.26,-205.11 114.68,-193.88 110.29,-183.11"/>
<polygon fill="black" stroke="black" points="113.18,-181.91 106.16,-173.97 106.7,-184.55 113.18,-181.91"/>
</g>
<!-- obs&#45;&gt;y_data -->
<g id="edge1" class="edge">
<title>obs&#45;&gt;y_data</title>
<path fill="none" stroke="black" d="M90.75,-93.18C90.75,-85.14 90.75,-76.71 90.75,-68.71"/>
<polygon fill="black" stroke="black" points="94.25,-68.78 90.75,-58.78 87.25,-68.78 94.25,-68.78"/>
</g>
</g>
</svg>