<?xml version="1.0" encoding="UTF-8" standalone="no"?>
<!DOCTYPE svg PUBLIC "-//W3C//DTD SVG 1.1//EN"
 "http://www.w3.org/Graphics/SVG/1.1/DTD/svg11.dtd">
<!-- Generated by graphviz version 9.0.0 (0)
 -->
<!-- Pages: 1 -->
<svg width="260pt" height="116pt"
 viewBox="0.00 0.00 259.52 116.00" xmlns="http://www.w3.org/2000/svg" xmlns:xlink="http://www.w3.org/1999/xlink">
<g id="graph0" class="graph" transform="scale(1 1) rotate(0) translate(4 112)">
<polygon fill="white" stroke="none" points="-4,4 -4,-112 255.52,-112 255.52,4 -4,4"/>
<!-- Learning Time -->
<g id="node1" class="node">
<title>Learning Time</title>
<ellipse fill="none" stroke="black" cx="66.19" cy="-18" rx="66.19" ry="18"/>
<text text-anchor="middle" x="66.19" y="-12.95" font-family="Times,serif" font-size="14.00">Learning Time</text>
</g>
<!-- Test Score -->
<g id="node2" class="node">
<title>Test Score</title>
<ellipse fill="none" stroke="black" cx="201.19" cy="-18" rx="50.33" ry="18"/>
<text text-anchor="middle" x="201.19" y="-12.95" font-family="Times,serif" font-size="14.00">Test Score</text>
</g>
<!-- Learning Time&#45;&gt;Test Score -->
<g id="edge3" class="edge">
<title>Learning Time&#45;&gt;Test Score</title>
<path fill="none" stroke="black" d="M132.64,-18C134.79,-18 136.94,-18 139.09,-18"/>
<polygon fill="black" stroke="black" points="139.07,-21.5 149.07,-18 139.07,-14.5 139.07,-21.5"/>
</g>
<!-- Intelligence -->
<g id="node3" class="node">
<title>Intelligence</title>
<ellipse fill="none" stroke="black" cx="133.19" cy="-90" rx="54.42" ry="18"/>
<text text-anchor="middle" x="133.19" y="-84.95" font-family="Times,serif" font-size="14.00">Intelligence</text>
</g>
<!-- Intelligence&#45;&gt;Learning Time -->
<g id="edge1" class="edge">
<title>Intelligence&#45;&gt;Learning Time</title>
<path fill="none" stroke="black" d="M117.32,-72.41C109.14,-63.87 99,-53.28 89.92,-43.79"/>
<polygon fill="black" stroke="black" points="92.45,-41.37 83,-36.56 87.39,-46.21 92.45,-41.37"/>
</g>
<!-- Intelligence&#45;&gt;Test Score -->
<g id="edge2" class="edge">
<title>Intelligence&#45;&gt;Test Score</title>
<path fill="none" stroke="black" d="M149.31,-72.41C157.69,-63.78 168.1,-53.06 177.4,-43.5"/>
<polygon fill="black" stroke="black" points="179.68,-46.17 184.14,-36.56 174.66,-41.29 179.68,-46.17"/>
</g>
</g>
</svg>