<?xml version="1.0" encoding="utf-8" standalone="no"?>
<!DOCTYPE svg PUBLIC "-//W3C//DTD SVG 1.1//EN"
  "http://www.w3.org/Graphics/SVG/1.1/DTD/svg11.dtd">
<svg xmlns:xlink="http://www.w3.org/1999/xlink" width="609.710469pt" height="381.861094pt" viewBox="0 0 609.710469 381.861094" xmlns="http://www.w3.org/2000/svg" version="1.1">
 <metadata>
  <rdf:RDF xmlns:dc="http://purl.org/dc/elements/1.1/" xmlns:cc="http://creativecommons.org/ns#" xmlns:rdf="http://www.w3.org/1999/02/22-rdf-syntax-ns#">
   <cc:Work>
    <dc:type rdf:resource="http://purl.org/dc/dcmitype/StillImage"/>
    <dc:date>2023-09-17T11:25:44.983879</dc:date>
    <dc:format>image/svg+xml</dc:format>
    <dc:creator>
     <cc:Agent>
      <dc:title>Matplotlib v3.7.2, https://matplotlib.org/</dc:title>
     </cc:Agent>
    </dc:creator>
   </cc:Work>
  </rdf:RDF>
 </metadata>
 <defs>
  <style type="text/css">*{stroke-linejoin: round; stroke-linecap: butt}</style>
 </defs>
 <g id="figure_1">
  <g id="patch_1">
   <path d="M 0 381.861094 
L 609.710469 381.861094 
L 609.710469 0 
L 0 0 
z
" style="fill: #ffffff"/>
  </g>
  <g id="axes_1">
   <g id="patch_2">
    <path d="M 44.510469 339.84 
L 602.510469 339.84 
L 602.510469 7.2 
L 44.510469 7.2 
z
" style="fill: #eaeaf2"/>
   </g>
   <g id="matplotlib.axis_1">
    <g id="xtick_1">
     <g id="line2d_1">
      <path d="M 78.023203 339.84 
L 78.023203 7.2 
" clip-path="url(#pc515d961d2)" style="fill: none; stroke: #ffffff; stroke-linecap: round"/>
     </g>
     <g id="text_1">
      <!-- −1.5 -->
      <g style="fill: #262626" transform="translate(67.165859 357.213594) scale(0.11 -0.11)">
       <defs>
        <path id="ArialMT-2212" d="M 3381 1997 
L 356 1997 
L 356 2522 
L 3381 2522 
L 3381 1997 
z
" transform="scale(0.015625)"/>
        <path id="ArialMT-31" d="M 2384 0 
L 1822 0 
L 1822 3584 
Q 1619 3391 1289 3197 
Q 959 3003 697 2906 
L 697 3450 
Q 1169 3672 1522 3987 
Q 1875 4303 2022 4600 
L 2384 4600 
L 2384 0 
z
" transform="scale(0.015625)"/>
        <path id="ArialMT-2e" d="M 581 0 
L 581 641 
L 1222 641 
L 1222 0 
L 581 0 
z
" transform="scale(0.015625)"/>
        <path id="ArialMT-35" d="M 266 1200 
L 856 1250 
Q 922 819 1161 601 
Q 1400 384 1738 384 
Q 2144 384 2425 690 
Q 2706 997 2706 1503 
Q 2706 1984 2436 2262 
Q 2166 2541 1728 2541 
Q 1456 2541 1237 2417 
Q 1019 2294 894 2097 
L 366 2166 
L 809 4519 
L 3088 4519 
L 3088 3981 
L 1259 3981 
L 1013 2750 
Q 1425 3038 1878 3038 
Q 2478 3038 2890 2622 
Q 3303 2206 3303 1553 
Q 3303 931 2941 478 
Q 2500 -78 1738 -78 
Q 1113 -78 717 272 
Q 322 622 266 1200 
z
" transform="scale(0.015625)"/>
       </defs>
       <use xlink:href="#ArialMT-2212"/>
       <use xlink:href="#ArialMT-31" x="58.398438"/>
       <use xlink:href="#ArialMT-2e" x="114.013672"/>
       <use xlink:href="#ArialMT-35" x="141.796875"/>
      </g>
     </g>
    </g>
    <g id="xtick_2">
     <g id="line2d_2">
      <path d="M 156.085094 339.84 
L 156.085094 7.2 
" clip-path="url(#pc515d961d2)" style="fill: none; stroke: #ffffff; stroke-linecap: round"/>
     </g>
     <g id="text_2">
      <!-- −1.0 -->
      <g style="fill: #262626" transform="translate(145.227751 357.213594) scale(0.11 -0.11)">
       <defs>
        <path id="ArialMT-30" d="M 266 2259 
Q 266 3072 433 3567 
Q 600 4063 929 4331 
Q 1259 4600 1759 4600 
Q 2128 4600 2406 4451 
Q 2684 4303 2865 4023 
Q 3047 3744 3150 3342 
Q 3253 2941 3253 2259 
Q 3253 1453 3087 958 
Q 2922 463 2592 192 
Q 2263 -78 1759 -78 
Q 1097 -78 719 397 
Q 266 969 266 2259 
z
M 844 2259 
Q 844 1131 1108 757 
Q 1372 384 1759 384 
Q 2147 384 2411 759 
Q 2675 1134 2675 2259 
Q 2675 3391 2411 3762 
Q 2147 4134 1753 4134 
Q 1366 4134 1134 3806 
Q 844 3388 844 2259 
z
" transform="scale(0.015625)"/>
       </defs>
       <use xlink:href="#ArialMT-2212"/>
       <use xlink:href="#ArialMT-31" x="58.398438"/>
       <use xlink:href="#ArialMT-2e" x="114.013672"/>
       <use xlink:href="#ArialMT-30" x="141.796875"/>
      </g>
     </g>
    </g>
    <g id="xtick_3">
     <g id="line2d_3">
      <path d="M 234.146986 339.84 
L 234.146986 7.2 
" clip-path="url(#pc515d961d2)" style="fill: none; stroke: #ffffff; stroke-linecap: round"/>
     </g>
     <g id="text_3">
      <!-- −0.5 -->
      <g style="fill: #262626" transform="translate(223.289642 357.213594) scale(0.11 -0.11)">
       <use xlink:href="#ArialMT-2212"/>
       <use xlink:href="#ArialMT-30" x="58.398438"/>
       <use xlink:href="#ArialMT-2e" x="114.013672"/>
       <use xlink:href="#ArialMT-35" x="141.796875"/>
      </g>
     </g>
    </g>
    <g id="xtick_4">
     <g id="line2d_4">
      <path d="M 312.208878 339.84 
L 312.208878 7.2 
" clip-path="url(#pc515d961d2)" style="fill: none; stroke: #ffffff; stroke-linecap: round"/>
     </g>
     <g id="text_4">
      <!-- 0.0 -->
      <g style="fill: #262626" transform="translate(304.563878 357.213594) scale(0.11 -0.11)">
       <use xlink:href="#ArialMT-30"/>
       <use xlink:href="#ArialMT-2e" x="55.615234"/>
       <use xlink:href="#ArialMT-30" x="83.398438"/>
      </g>
     </g>
    </g>
    <g id="xtick_5">
     <g id="line2d_5">
      <path d="M 390.270769 339.84 
L 390.270769 7.2 
" clip-path="url(#pc515d961d2)" style="fill: none; stroke: #ffffff; stroke-linecap: round"/>
     </g>
     <g id="text_5">
      <!-- 0.5 -->
      <g style="fill: #262626" transform="translate(382.625769 357.213594) scale(0.11 -0.11)">
       <use xlink:href="#ArialMT-30"/>
       <use xlink:href="#ArialMT-2e" x="55.615234"/>
       <use xlink:href="#ArialMT-35" x="83.398438"/>
      </g>
     </g>
    </g>
    <g id="xtick_6">
     <g id="line2d_6">
      <path d="M 468.332661 339.84 
L 468.332661 7.2 
" clip-path="url(#pc515d961d2)" style="fill: none; stroke: #ffffff; stroke-linecap: round"/>
     </g>
     <g id="text_6">
      <!-- 1.0 -->
      <g style="fill: #262626" transform="translate(460.687661 357.213594) scale(0.11 -0.11)">
       <use xlink:href="#ArialMT-31"/>
       <use xlink:href="#ArialMT-2e" x="55.615234"/>
       <use xlink:href="#ArialMT-30" x="83.398438"/>
      </g>
     </g>
    </g>
    <g id="xtick_7">
     <g id="line2d_7">
      <path d="M 546.394553 339.84 
L 546.394553 7.2 
" clip-path="url(#pc515d961d2)" style="fill: none; stroke: #ffffff; stroke-linecap: round"/>
     </g>
     <g id="text_7">
      <!-- 1.5 -->
      <g style="fill: #262626" transform="translate(538.749553 357.213594) scale(0.11 -0.11)">
       <use xlink:href="#ArialMT-31"/>
       <use xlink:href="#ArialMT-2e" x="55.615234"/>
       <use xlink:href="#ArialMT-35" x="83.398438"/>
      </g>
     </g>
    </g>
    <g id="text_8">
     <!-- Predictor (stdz) -->
     <g style="fill: #262626" transform="translate(282.837031 372.135469) scale(0.12 -0.12)">
      <defs>
       <path id="ArialMT-50" d="M 494 0 
L 494 4581 
L 2222 4581 
Q 2678 4581 2919 4538 
Q 3256 4481 3484 4323 
Q 3713 4166 3852 3881 
Q 3991 3597 3991 3256 
Q 3991 2672 3619 2267 
Q 3247 1863 2275 1863 
L 1100 1863 
L 1100 0 
L 494 0 
z
M 1100 2403 
L 2284 2403 
Q 2872 2403 3119 2622 
Q 3366 2841 3366 3238 
Q 3366 3525 3220 3729 
Q 3075 3934 2838 4000 
Q 2684 4041 2272 4041 
L 1100 4041 
L 1100 2403 
z
" transform="scale(0.015625)"/>
       <path id="ArialMT-72" d="M 416 0 
L 416 3319 
L 922 3319 
L 922 2816 
Q 1116 3169 1280 3281 
Q 1444 3394 1641 3394 
Q 1925 3394 2219 3213 
L 2025 2691 
Q 1819 2813 1613 2813 
Q 1428 2813 1281 2702 
Q 1134 2591 1072 2394 
Q 978 2094 978 1738 
L 978 0 
L 416 0 
z
" transform="scale(0.015625)"/>
       <path id="ArialMT-65" d="M 2694 1069 
L 3275 997 
Q 3138 488 2766 206 
Q 2394 -75 1816 -75 
Q 1088 -75 661 373 
Q 234 822 234 1631 
Q 234 2469 665 2931 
Q 1097 3394 1784 3394 
Q 2450 3394 2872 2941 
Q 3294 2488 3294 1666 
Q 3294 1616 3291 1516 
L 816 1516 
Q 847 969 1125 678 
Q 1403 388 1819 388 
Q 2128 388 2347 550 
Q 2566 713 2694 1069 
z
M 847 1978 
L 2700 1978 
Q 2663 2397 2488 2606 
Q 2219 2931 1791 2931 
Q 1403 2931 1139 2672 
Q 875 2413 847 1978 
z
" transform="scale(0.015625)"/>
       <path id="ArialMT-64" d="M 2575 0 
L 2575 419 
Q 2259 -75 1647 -75 
Q 1250 -75 917 144 
Q 584 363 401 755 
Q 219 1147 219 1656 
Q 219 2153 384 2558 
Q 550 2963 881 3178 
Q 1213 3394 1622 3394 
Q 1922 3394 2156 3267 
Q 2391 3141 2538 2938 
L 2538 4581 
L 3097 4581 
L 3097 0 
L 2575 0 
z
M 797 1656 
Q 797 1019 1065 703 
Q 1334 388 1700 388 
Q 2069 388 2326 689 
Q 2584 991 2584 1609 
Q 2584 2291 2321 2609 
Q 2059 2928 1675 2928 
Q 1300 2928 1048 2622 
Q 797 2316 797 1656 
z
" transform="scale(0.015625)"/>
       <path id="ArialMT-69" d="M 425 3934 
L 425 4581 
L 988 4581 
L 988 3934 
L 425 3934 
z
M 425 0 
L 425 3319 
L 988 3319 
L 988 0 
L 425 0 
z
" transform="scale(0.015625)"/>
       <path id="ArialMT-63" d="M 2588 1216 
L 3141 1144 
Q 3050 572 2676 248 
Q 2303 -75 1759 -75 
Q 1078 -75 664 370 
Q 250 816 250 1647 
Q 250 2184 428 2587 
Q 606 2991 970 3192 
Q 1334 3394 1763 3394 
Q 2303 3394 2647 3120 
Q 2991 2847 3088 2344 
L 2541 2259 
Q 2463 2594 2264 2762 
Q 2066 2931 1784 2931 
Q 1359 2931 1093 2626 
Q 828 2322 828 1663 
Q 828 994 1084 691 
Q 1341 388 1753 388 
Q 2084 388 2306 591 
Q 2528 794 2588 1216 
z
" transform="scale(0.015625)"/>
       <path id="ArialMT-74" d="M 1650 503 
L 1731 6 
Q 1494 -44 1306 -44 
Q 1000 -44 831 53 
Q 663 150 594 308 
Q 525 466 525 972 
L 525 2881 
L 113 2881 
L 113 3319 
L 525 3319 
L 525 4141 
L 1084 4478 
L 1084 3319 
L 1650 3319 
L 1650 2881 
L 1084 2881 
L 1084 941 
Q 1084 700 1114 631 
Q 1144 563 1211 522 
Q 1278 481 1403 481 
Q 1497 481 1650 503 
z
" transform="scale(0.015625)"/>
       <path id="ArialMT-6f" d="M 213 1659 
Q 213 2581 725 3025 
Q 1153 3394 1769 3394 
Q 2453 3394 2887 2945 
Q 3322 2497 3322 1706 
Q 3322 1066 3130 698 
Q 2938 331 2570 128 
Q 2203 -75 1769 -75 
Q 1072 -75 642 372 
Q 213 819 213 1659 
z
M 791 1659 
Q 791 1022 1069 705 
Q 1347 388 1769 388 
Q 2188 388 2466 706 
Q 2744 1025 2744 1678 
Q 2744 2294 2464 2611 
Q 2184 2928 1769 2928 
Q 1347 2928 1069 2612 
Q 791 2297 791 1659 
z
" transform="scale(0.015625)"/>
       <path id="ArialMT-20" transform="scale(0.015625)"/>
       <path id="ArialMT-28" d="M 1497 -1347 
Q 1031 -759 709 28 
Q 388 816 388 1659 
Q 388 2403 628 3084 
Q 909 3875 1497 4659 
L 1900 4659 
Q 1522 4009 1400 3731 
Q 1209 3300 1100 2831 
Q 966 2247 966 1656 
Q 966 153 1900 -1347 
L 1497 -1347 
z
" transform="scale(0.015625)"/>
       <path id="ArialMT-73" d="M 197 991 
L 753 1078 
Q 800 744 1014 566 
Q 1228 388 1613 388 
Q 2000 388 2187 545 
Q 2375 703 2375 916 
Q 2375 1106 2209 1216 
Q 2094 1291 1634 1406 
Q 1016 1563 777 1677 
Q 538 1791 414 1992 
Q 291 2194 291 2438 
Q 291 2659 392 2848 
Q 494 3038 669 3163 
Q 800 3259 1026 3326 
Q 1253 3394 1513 3394 
Q 1903 3394 2198 3281 
Q 2494 3169 2634 2976 
Q 2775 2784 2828 2463 
L 2278 2388 
Q 2241 2644 2061 2787 
Q 1881 2931 1553 2931 
Q 1166 2931 1000 2803 
Q 834 2675 834 2503 
Q 834 2394 903 2306 
Q 972 2216 1119 2156 
Q 1203 2125 1616 2013 
Q 2213 1853 2448 1751 
Q 2684 1650 2818 1456 
Q 2953 1263 2953 975 
Q 2953 694 2789 445 
Q 2625 197 2315 61 
Q 2006 -75 1616 -75 
Q 969 -75 630 194 
Q 291 463 197 991 
z
" transform="scale(0.015625)"/>
       <path id="ArialMT-7a" d="M 125 0 
L 125 456 
L 2238 2881 
Q 1878 2863 1603 2863 
L 250 2863 
L 250 3319 
L 2963 3319 
L 2963 2947 
L 1166 841 
L 819 456 
Q 1197 484 1528 484 
L 3063 484 
L 3063 0 
L 125 0 
z
" transform="scale(0.015625)"/>
       <path id="ArialMT-29" d="M 791 -1347 
L 388 -1347 
Q 1322 153 1322 1656 
Q 1322 2244 1188 2822 
Q 1081 3291 891 3722 
Q 769 4003 388 4659 
L 791 4659 
Q 1378 3875 1659 3084 
Q 1900 2403 1900 1659 
Q 1900 816 1576 28 
Q 1253 -759 791 -1347 
z
" transform="scale(0.015625)"/>
      </defs>
      <use xlink:href="#ArialMT-50"/>
      <use xlink:href="#ArialMT-72" x="66.699219"/>
      <use xlink:href="#ArialMT-65" x="100"/>
      <use xlink:href="#ArialMT-64" x="155.615234"/>
      <use xlink:href="#ArialMT-69" x="211.230469"/>
      <use xlink:href="#ArialMT-63" x="233.447266"/>
      <use xlink:href="#ArialMT-74" x="283.447266"/>
      <use xlink:href="#ArialMT-6f" x="311.230469"/>
      <use xlink:href="#ArialMT-72" x="366.845703"/>
      <use xlink:href="#ArialMT-20" x="400.146484"/>
      <use xlink:href="#ArialMT-28" x="427.929688"/>
      <use xlink:href="#ArialMT-73" x="461.230469"/>
      <use xlink:href="#ArialMT-74" x="511.230469"/>
      <use xlink:href="#ArialMT-64" x="539.013672"/>
      <use xlink:href="#ArialMT-7a" x="594.628906"/>
      <use xlink:href="#ArialMT-29" x="644.628906"/>
     </g>
    </g>
   </g>
   <g id="matplotlib.axis_2">
    <g id="ytick_1">
     <g id="line2d_8">
      <path d="M 44.510469 298.791508 
L 602.510469 298.791508 
" clip-path="url(#pc515d961d2)" style="fill: none; stroke: #ffffff; stroke-linecap: round"/>
     </g>
     <g id="text_9">
      <!-- −2 -->
      <g style="fill: #262626" transform="translate(22.46875 302.728305) scale(0.11 -0.11)">
       <defs>
        <path id="ArialMT-32" d="M 3222 541 
L 3222 0 
L 194 0 
Q 188 203 259 391 
Q 375 700 629 1000 
Q 884 1300 1366 1694 
Q 2113 2306 2375 2664 
Q 2638 3022 2638 3341 
Q 2638 3675 2398 3904 
Q 2159 4134 1775 4134 
Q 1369 4134 1125 3890 
Q 881 3647 878 3216 
L 300 3275 
Q 359 3922 746 4261 
Q 1134 4600 1788 4600 
Q 2447 4600 2831 4234 
Q 3216 3869 3216 3328 
Q 3216 3053 3103 2787 
Q 2991 2522 2730 2228 
Q 2469 1934 1863 1422 
Q 1356 997 1212 845 
Q 1069 694 975 541 
L 3222 541 
z
" transform="scale(0.015625)"/>
       </defs>
       <use xlink:href="#ArialMT-2212"/>
       <use xlink:href="#ArialMT-32" x="58.398438"/>
      </g>
     </g>
    </g>
    <g id="ytick_2">
     <g id="line2d_9">
      <path d="M 44.510469 229.213092 
L 602.510469 229.213092 
" clip-path="url(#pc515d961d2)" style="fill: none; stroke: #ffffff; stroke-linecap: round"/>
     </g>
     <g id="text_10">
      <!-- −1 -->
      <g style="fill: #262626" transform="translate(22.46875 233.149889) scale(0.11 -0.11)">
       <use xlink:href="#ArialMT-2212"/>
       <use xlink:href="#ArialMT-31" x="58.398438"/>
      </g>
     </g>
    </g>
    <g id="ytick_3">
     <g id="line2d_10">
      <path d="M 44.510469 159.634676 
L 602.510469 159.634676 
" clip-path="url(#pc515d961d2)" style="fill: none; stroke: #ffffff; stroke-linecap: round"/>
     </g>
     <g id="text_11">
      <!-- 0 -->
      <g style="fill: #262626" transform="translate(28.893438 163.571473) scale(0.11 -0.11)">
       <use xlink:href="#ArialMT-30"/>
      </g>
     </g>
    </g>
    <g id="ytick_4">
     <g id="line2d_11">
      <path d="M 44.510469 90.05626 
L 602.510469 90.05626 
" clip-path="url(#pc515d961d2)" style="fill: none; stroke: #ffffff; stroke-linecap: round"/>
     </g>
     <g id="text_12">
      <!-- 1 -->
      <g style="fill: #262626" transform="translate(28.893438 93.993057) scale(0.11 -0.11)">
       <use xlink:href="#ArialMT-31"/>
      </g>
     </g>
    </g>
    <g id="ytick_5">
     <g id="line2d_12">
      <path d="M 44.510469 20.477843 
L 602.510469 20.477843 
" clip-path="url(#pc515d961d2)" style="fill: none; stroke: #ffffff; stroke-linecap: round"/>
     </g>
     <g id="text_13">
      <!-- 2 -->
      <g style="fill: #262626" transform="translate(28.893438 24.41464) scale(0.11 -0.11)">
       <use xlink:href="#ArialMT-32"/>
      </g>
     </g>
    </g>
    <g id="text_14">
     <!-- Outcome (stdz) -->
     <g style="fill: #262626" transform="translate(15.943125 214.527187) rotate(-90) scale(0.12 -0.12)">
      <defs>
       <path id="ArialMT-4f" d="M 309 2231 
Q 309 3372 921 4017 
Q 1534 4663 2503 4663 
Q 3138 4663 3647 4359 
Q 4156 4056 4423 3514 
Q 4691 2972 4691 2284 
Q 4691 1588 4409 1038 
Q 4128 488 3612 205 
Q 3097 -78 2500 -78 
Q 1853 -78 1343 234 
Q 834 547 571 1087 
Q 309 1628 309 2231 
z
M 934 2222 
Q 934 1394 1379 917 
Q 1825 441 2497 441 
Q 3181 441 3623 922 
Q 4066 1403 4066 2288 
Q 4066 2847 3877 3264 
Q 3688 3681 3323 3911 
Q 2959 4141 2506 4141 
Q 1863 4141 1398 3698 
Q 934 3256 934 2222 
z
" transform="scale(0.015625)"/>
       <path id="ArialMT-75" d="M 2597 0 
L 2597 488 
Q 2209 -75 1544 -75 
Q 1250 -75 995 37 
Q 741 150 617 320 
Q 494 491 444 738 
Q 409 903 409 1263 
L 409 3319 
L 972 3319 
L 972 1478 
Q 972 1038 1006 884 
Q 1059 663 1231 536 
Q 1403 409 1656 409 
Q 1909 409 2131 539 
Q 2353 669 2445 892 
Q 2538 1116 2538 1541 
L 2538 3319 
L 3100 3319 
L 3100 0 
L 2597 0 
z
" transform="scale(0.015625)"/>
       <path id="ArialMT-6d" d="M 422 0 
L 422 3319 
L 925 3319 
L 925 2853 
Q 1081 3097 1340 3245 
Q 1600 3394 1931 3394 
Q 2300 3394 2536 3241 
Q 2772 3088 2869 2813 
Q 3263 3394 3894 3394 
Q 4388 3394 4653 3120 
Q 4919 2847 4919 2278 
L 4919 0 
L 4359 0 
L 4359 2091 
Q 4359 2428 4304 2576 
Q 4250 2725 4106 2815 
Q 3963 2906 3769 2906 
Q 3419 2906 3187 2673 
Q 2956 2441 2956 1928 
L 2956 0 
L 2394 0 
L 2394 2156 
Q 2394 2531 2256 2718 
Q 2119 2906 1806 2906 
Q 1569 2906 1367 2781 
Q 1166 2656 1075 2415 
Q 984 2175 984 1722 
L 984 0 
L 422 0 
z
" transform="scale(0.015625)"/>
      </defs>
      <use xlink:href="#ArialMT-4f"/>
      <use xlink:href="#ArialMT-75" x="77.783203"/>
      <use xlink:href="#ArialMT-74" x="133.398438"/>
      <use xlink:href="#ArialMT-63" x="161.181641"/>
      <use xlink:href="#ArialMT-6f" x="211.181641"/>
      <use xlink:href="#ArialMT-6d" x="266.796875"/>
      <use xlink:href="#ArialMT-65" x="350.097656"/>
      <use xlink:href="#ArialMT-20" x="405.712891"/>
      <use xlink:href="#ArialMT-28" x="433.496094"/>
      <use xlink:href="#ArialMT-73" x="466.796875"/>
      <use xlink:href="#ArialMT-74" x="516.796875"/>
      <use xlink:href="#ArialMT-64" x="544.580078"/>
      <use xlink:href="#ArialMT-7a" x="600.195312"/>
      <use xlink:href="#ArialMT-29" x="650.195312"/>
     </g>
    </g>
   </g>
   <g id="PathCollection_1">
    <defs>
     <path id="ma4d83de9b7" d="M 0 3 
C 0.795609 3 1.55874 2.683901 2.12132 2.12132 
C 2.683901 1.55874 3 0.795609 3 0 
C 3 -0.795609 2.683901 -1.55874 2.12132 -2.12132 
C 1.55874 -2.683901 0.795609 -3 0 -3 
C -0.795609 -3 -1.55874 -2.683901 -2.12132 -2.12132 
C -2.683901 -1.55874 -3 -0.795609 -3 0 
C -3 0.795609 -2.683901 1.55874 -2.12132 2.12132 
C -1.55874 2.683901 -0.795609 3 0 3 
z
" style="stroke: #0173b2"/>
    </defs>
    <g clip-path="url(#pc515d961d2)">
     <use xlink:href="#ma4d83de9b7" x="461.258332" y="182.539243" style="fill: #0173b2; stroke: #0173b2"/>
     <use xlink:href="#ma4d83de9b7" x="173.57256" y="127.135493" style="fill: #0173b2; stroke: #0173b2"/>
     <use xlink:href="#ma4d83de9b7" x="110.41709" y="228.993503" style="fill: #0173b2; stroke: #0173b2"/>
     <use xlink:href="#ma4d83de9b7" x="369.66141" y="101.42242" style="fill: #0173b2; stroke: #0173b2"/>
     <use xlink:href="#ma4d83de9b7" x="361.885481" y="112.328329" style="fill: #0173b2; stroke: #0173b2"/>
     <use xlink:href="#ma4d83de9b7" x="328.682543" y="104.765693" style="fill: #0173b2; stroke: #0173b2"/>
     <use xlink:href="#ma4d83de9b7" x="475.065908" y="201.746641" style="fill: #0173b2; stroke: #0173b2"/>
     <use xlink:href="#ma4d83de9b7" x="237.829216" y="68.533973" style="fill: #0173b2; stroke: #0173b2"/>
     <use xlink:href="#ma4d83de9b7" x="305.377304" y="114.969421" style="fill: #0173b2; stroke: #0173b2"/>
     <use xlink:href="#ma4d83de9b7" x="84.791236" y="287.363054" style="fill: #0173b2; stroke: #0173b2"/>
     <use xlink:href="#ma4d83de9b7" x="118.035652" y="214.415067" style="fill: #0173b2; stroke: #0173b2"/>
     <use xlink:href="#ma4d83de9b7" x="69.874105" y="315.640998" style="fill: #0173b2; stroke: #0173b2"/>
     <use xlink:href="#ma4d83de9b7" x="85.214529" y="282.326349" style="fill: #0173b2; stroke: #0173b2"/>
     <use xlink:href="#ma4d83de9b7" x="296.048774" y="80.338791" style="fill: #0173b2; stroke: #0173b2"/>
     <use xlink:href="#ma4d83de9b7" x="266.625466" y="68.098358" style="fill: #0173b2; stroke: #0173b2"/>
     <use xlink:href="#ma4d83de9b7" x="306.110904" y="78.930094" style="fill: #0173b2; stroke: #0173b2"/>
     <use xlink:href="#ma4d83de9b7" x="555.643102" y="239.10758" style="fill: #0173b2; stroke: #0173b2"/>
     <use xlink:href="#ma4d83de9b7" x="444.633658" y="154.172276" style="fill: #0173b2; stroke: #0173b2"/>
     <use xlink:href="#ma4d83de9b7" x="327.043014" y="68.870215" style="fill: #0173b2; stroke: #0173b2"/>
     <use xlink:href="#ma4d83de9b7" x="485.192348" y="175.034579" style="fill: #0173b2; stroke: #0173b2"/>
     <use xlink:href="#ma4d83de9b7" x="524.962545" y="207.541284" style="fill: #0173b2; stroke: #0173b2"/>
     <use xlink:href="#ma4d83de9b7" x="519.572945" y="240.414955" style="fill: #0173b2; stroke: #0173b2"/>
     <use xlink:href="#ma4d83de9b7" x="111.70276" y="185.956513" style="fill: #0173b2; stroke: #0173b2"/>
     <use xlink:href="#ma4d83de9b7" x="266.264444" y="72.393579" style="fill: #0173b2; stroke: #0173b2"/>
     <use xlink:href="#ma4d83de9b7" x="122.458821" y="201.993846" style="fill: #0173b2; stroke: #0173b2"/>
     <use xlink:href="#ma4d83de9b7" x="519.987559" y="237.904589" style="fill: #0173b2; stroke: #0173b2"/>
     <use xlink:href="#ma4d83de9b7" x="477.140466" y="167.772394" style="fill: #0173b2; stroke: #0173b2"/>
     <use xlink:href="#ma4d83de9b7" x="267.421176" y="66.283201" style="fill: #0173b2; stroke: #0173b2"/>
     <use xlink:href="#ma4d83de9b7" x="396.286689" y="108.057203" style="fill: #0173b2; stroke: #0173b2"/>
     <use xlink:href="#ma4d83de9b7" x="554.196719" y="239.083016" style="fill: #0173b2; stroke: #0173b2"/>
     <use xlink:href="#ma4d83de9b7" x="432.086205" y="136.953054" style="fill: #0173b2; stroke: #0173b2"/>
     <use xlink:href="#ma4d83de9b7" x="163.238292" y="112.29159" style="fill: #0173b2; stroke: #0173b2"/>
     <use xlink:href="#ma4d83de9b7" x="391.069865" y="129.031865" style="fill: #0173b2; stroke: #0173b2"/>
     <use xlink:href="#ma4d83de9b7" x="505.797554" y="209.661699" style="fill: #0173b2; stroke: #0173b2"/>
     <use xlink:href="#ma4d83de9b7" x="541.552769" y="221.13466" style="fill: #0173b2; stroke: #0173b2"/>
     <use xlink:href="#ma4d83de9b7" x="99.081525" y="228.73087" style="fill: #0173b2; stroke: #0173b2"/>
     <use xlink:href="#ma4d83de9b7" x="81.136318" y="270.1812" style="fill: #0173b2; stroke: #0173b2"/>
     <use xlink:href="#ma4d83de9b7" x="552.829112" y="243.067907" style="fill: #0173b2; stroke: #0173b2"/>
     <use xlink:href="#ma4d83de9b7" x="235.476557" y="78.957992" style="fill: #0173b2; stroke: #0173b2"/>
     <use xlink:href="#ma4d83de9b7" x="146.337711" y="189.858454" style="fill: #0173b2; stroke: #0173b2"/>
     <use xlink:href="#ma4d83de9b7" x="483.601213" y="205.715507" style="fill: #0173b2; stroke: #0173b2"/>
     <use xlink:href="#ma4d83de9b7" x="355.020891" y="117.970053" style="fill: #0173b2; stroke: #0173b2"/>
     <use xlink:href="#ma4d83de9b7" x="105.532241" y="223.271207" style="fill: #0173b2; stroke: #0173b2"/>
     <use xlink:href="#ma4d83de9b7" x="390.347237" y="145.559872" style="fill: #0173b2; stroke: #0173b2"/>
     <use xlink:href="#ma4d83de9b7" x="77.471807" y="320.438475" style="fill: #0173b2; stroke: #0173b2"/>
     <use xlink:href="#ma4d83de9b7" x="233.891474" y="83.790632" style="fill: #0173b2; stroke: #0173b2"/>
     <use xlink:href="#ma4d83de9b7" x="69.893147" y="324.72" style="fill: #0173b2; stroke: #0173b2"/>
     <use xlink:href="#ma4d83de9b7" x="566.135239" y="255.745768" style="fill: #0173b2; stroke: #0173b2"/>
     <use xlink:href="#ma4d83de9b7" x="254.984927" y="87.638702" style="fill: #0173b2; stroke: #0173b2"/>
     <use xlink:href="#ma4d83de9b7" x="160.528853" y="113.805874" style="fill: #0173b2; stroke: #0173b2"/>
     <use xlink:href="#ma4d83de9b7" x="146.714368" y="135.722761" style="fill: #0173b2; stroke: #0173b2"/>
     <use xlink:href="#ma4d83de9b7" x="367.733058" y="102.681744" style="fill: #0173b2; stroke: #0173b2"/>
     <use xlink:href="#ma4d83de9b7" x="241.535647" y="61.384628" style="fill: #0173b2; stroke: #0173b2"/>
     <use xlink:href="#ma4d83de9b7" x="82.386571" y="297.270691" style="fill: #0173b2; stroke: #0173b2"/>
     <use xlink:href="#ma4d83de9b7" x="124.727595" y="198.47622" style="fill: #0173b2; stroke: #0173b2"/>
     <use xlink:href="#ma4d83de9b7" x="338.247651" y="86.646747" style="fill: #0173b2; stroke: #0173b2"/>
     <use xlink:href="#ma4d83de9b7" x="207.072132" y="72.732792" style="fill: #0173b2; stroke: #0173b2"/>
     <use xlink:href="#ma4d83de9b7" x="353.873814" y="98.911767" style="fill: #0173b2; stroke: #0173b2"/>
     <use xlink:href="#ma4d83de9b7" x="494.05608" y="188.256346" style="fill: #0173b2; stroke: #0173b2"/>
     <use xlink:href="#ma4d83de9b7" x="377.786973" y="131.987184" style="fill: #0173b2; stroke: #0173b2"/>
     <use xlink:href="#ma4d83de9b7" x="418.786669" y="161.731955" style="fill: #0173b2; stroke: #0173b2"/>
     <use xlink:href="#ma4d83de9b7" x="511.050731" y="195.550295" style="fill: #0173b2; stroke: #0173b2"/>
     <use xlink:href="#ma4d83de9b7" x="433.466272" y="142.208908" style="fill: #0173b2; stroke: #0173b2"/>
     <use xlink:href="#ma4d83de9b7" x="156.983946" y="143.195846" style="fill: #0173b2; stroke: #0173b2"/>
     <use xlink:href="#ma4d83de9b7" x="159.098129" y="106.947371" style="fill: #0173b2; stroke: #0173b2"/>
     <use xlink:href="#ma4d83de9b7" x="577.146832" y="244.577902" style="fill: #0173b2; stroke: #0173b2"/>
     <use xlink:href="#ma4d83de9b7" x="154.306993" y="137.609142" style="fill: #0173b2; stroke: #0173b2"/>
     <use xlink:href="#ma4d83de9b7" x="310.779528" y="82.915449" style="fill: #0173b2; stroke: #0173b2"/>
     <use xlink:href="#ma4d83de9b7" x="203.542955" y="90.519186" style="fill: #0173b2; stroke: #0173b2"/>
     <use xlink:href="#ma4d83de9b7" x="204.022608" y="88.230731" style="fill: #0173b2; stroke: #0173b2"/>
     <use xlink:href="#ma4d83de9b7" x="233.275758" y="97.559501" style="fill: #0173b2; stroke: #0173b2"/>
     <use xlink:href="#ma4d83de9b7" x="113.50684" y="197.78905" style="fill: #0173b2; stroke: #0173b2"/>
     <use xlink:href="#ma4d83de9b7" x="476.528789" y="170.840833" style="fill: #0173b2; stroke: #0173b2"/>
     <use xlink:href="#ma4d83de9b7" x="103.517989" y="250.861645" style="fill: #0173b2; stroke: #0173b2"/>
     <use xlink:href="#ma4d83de9b7" x="313.716522" y="96.160787" style="fill: #0173b2; stroke: #0173b2"/>
     <use xlink:href="#ma4d83de9b7" x="455.942293" y="154.530336" style="fill: #0173b2; stroke: #0173b2"/>
     <use xlink:href="#ma4d83de9b7" x="240.299163" y="87.092991" style="fill: #0173b2; stroke: #0173b2"/>
     <use xlink:href="#ma4d83de9b7" x="475.468429" y="170.592153" style="fill: #0173b2; stroke: #0173b2"/>
     <use xlink:href="#ma4d83de9b7" x="519.354671" y="197.579488" style="fill: #0173b2; stroke: #0173b2"/>
     <use xlink:href="#ma4d83de9b7" x="355.397588" y="95.695461" style="fill: #0173b2; stroke: #0173b2"/>
     <use xlink:href="#ma4d83de9b7" x="294.691732" y="80.406679" style="fill: #0173b2; stroke: #0173b2"/>
     <use xlink:href="#ma4d83de9b7" x="196.446646" y="80.488825" style="fill: #0173b2; stroke: #0173b2"/>
     <use xlink:href="#ma4d83de9b7" x="118.001151" y="204.902349" style="fill: #0173b2; stroke: #0173b2"/>
     <use xlink:href="#ma4d83de9b7" x="481.812206" y="181.594376" style="fill: #0173b2; stroke: #0173b2"/>
     <use xlink:href="#ma4d83de9b7" x="543.965778" y="250.685929" style="fill: #0173b2; stroke: #0173b2"/>
     <use xlink:href="#ma4d83de9b7" x="301.314616" y="77.964402" style="fill: #0173b2; stroke: #0173b2"/>
     <use xlink:href="#ma4d83de9b7" x="334.806355" y="83.177017" style="fill: #0173b2; stroke: #0173b2"/>
     <use xlink:href="#ma4d83de9b7" x="122.734157" y="202.639952" style="fill: #0173b2; stroke: #0173b2"/>
     <use xlink:href="#ma4d83de9b7" x="511.036829" y="193.742288" style="fill: #0173b2; stroke: #0173b2"/>
     <use xlink:href="#ma4d83de9b7" x="190.337166" y="94.849021" style="fill: #0173b2; stroke: #0173b2"/>
     <use xlink:href="#ma4d83de9b7" x="337.757046" y="102.516918" style="fill: #0173b2; stroke: #0173b2"/>
     <use xlink:href="#ma4d83de9b7" x="490.587867" y="180.551642" style="fill: #0173b2; stroke: #0173b2"/>
     <use xlink:href="#ma4d83de9b7" x="77.734917" y="276.703999" style="fill: #0173b2; stroke: #0173b2"/>
     <use xlink:href="#ma4d83de9b7" x="248.226153" y="88.434219" style="fill: #0173b2; stroke: #0173b2"/>
     <use xlink:href="#ma4d83de9b7" x="464.828801" y="161.128499" style="fill: #0173b2; stroke: #0173b2"/>
     <use xlink:href="#ma4d83de9b7" x="327.760031" y="70.16732" style="fill: #0173b2; stroke: #0173b2"/>
     <use xlink:href="#ma4d83de9b7" x="564.024076" y="248.828757" style="fill: #0173b2; stroke: #0173b2"/>
     <use xlink:href="#ma4d83de9b7" x="140.960906" y="163.361198" style="fill: #0173b2; stroke: #0173b2"/>
     <use xlink:href="#ma4d83de9b7" x="502.051449" y="196.402254" style="fill: #0173b2; stroke: #0173b2"/>
     <use xlink:href="#ma4d83de9b7" x="352.5136" y="106.003989" style="fill: #0173b2; stroke: #0173b2"/>
    </g>
   </g>
   <g id="PolyCollection_1">
    <defs>
     <path id="m2596d14155" d="M 71.14866 -355.839584 
L 71.14866 -86.626162 
L 72.423214 -86.610169 
L 74.972323 -86.596513 
L 77.521433 -86.585193 
L 80.070542 -86.576211 
L 82.619651 -86.569567 
L 85.16876 -86.565259 
L 87.717869 -86.563288 
L 90.266979 -86.563655 
L 92.816088 -86.566359 
L 95.365197 -86.5714 
L 97.914306 -86.578778 
L 100.463415 -86.588493 
L 103.012524 -86.600546 
L 105.561634 -86.614935 
L 108.110743 -86.631662 
L 110.659852 -86.650726 
L 113.208961 -86.672127 
L 115.75807 -86.695865 
L 118.30718 -86.721941 
L 120.856289 -86.750353 
L 123.405398 -86.781103 
L 125.954507 -86.81419 
L 128.503616 -86.849614 
L 131.052725 -86.887375 
L 133.601835 -86.927473 
L 136.150944 -86.969909 
L 138.700053 -87.014681 
L 141.249162 -86.9099 
L 143.798271 -86.832247 
L 146.347381 -86.802383 
L 148.89649 -86.778759 
L 151.445599 -86.691756 
L 153.994708 -86.747769 
L 156.543817 -86.806246 
L 159.092926 -86.862287 
L 161.642036 -86.909974 
L 164.191145 -86.944565 
L 166.740254 -87.350901 
L 169.289363 -87.421156 
L 171.838472 -87.794613 
L 174.387582 -88.352322 
L 176.936691 -88.321725 
L 179.4858 -88.398406 
L 182.034909 -88.518528 
L 184.584018 -88.640868 
L 187.133127 -88.790278 
L 189.682237 -89.030906 
L 192.231346 -89.415655 
L 194.780455 -89.728698 
L 197.329564 -90.011214 
L 199.878673 -90.091025 
L 202.427783 -90.215966 
L 204.976892 -90.387258 
L 207.526001 -90.606359 
L 210.07511 -90.874963 
L 212.624219 -91.178663 
L 215.173329 -91.388678 
L 217.722438 -91.480189 
L 220.271547 -91.506827 
L 222.820656 -91.568435 
L 225.369765 -91.672977 
L 227.918874 -91.709002 
L 230.467984 -91.77544 
L 233.017093 -91.717654 
L 235.566202 -91.644158 
L 238.115311 -91.467879 
L 240.66442 -91.255042 
L 243.21353 -91.089952 
L 245.762639 -90.999747 
L 248.311748 -90.885739 
L 250.860857 -90.750362 
L 253.409966 -90.596232 
L 255.959075 -90.426145 
L 258.508185 -90.272231 
L 261.057294 -89.854625 
L 263.606403 -89.480895 
L 266.155512 -89.16585 
L 268.704621 -88.928044 
L 271.253731 -88.476229 
L 273.80284 -87.992253 
L 276.351949 -87.795571 
L 278.901058 -87.67326 
L 281.450167 -87.624359 
L 283.999276 -87.594322 
L 286.548386 -87.68485 
L 289.097495 -87.695644 
L 291.646604 -87.627221 
L 294.195713 -87.516621 
L 296.744822 -87.401035 
L 299.293932 -87.265676 
L 301.843041 -87.092826 
L 304.39215 -87.10712 
L 306.941259 -86.829428 
L 309.490368 -86.909596 
L 312.039477 -86.800978 
L 314.588587 -86.72411 
L 317.137696 -86.674805 
L 319.686805 -86.654213 
L 322.235914 -86.922415 
L 324.785023 -87.145206 
L 327.334133 -87.299384 
L 329.883242 -87.395106 
L 332.432351 -87.429017 
L 334.98146 -87.393012 
L 337.530569 -87.278572 
L 340.079678 -87.367643 
L 342.628788 -87.454173 
L 345.177897 -87.537744 
L 347.727006 -87.617786 
L 350.276115 -87.693108 
L 352.825224 -87.759575 
L 355.374334 -87.816901 
L 357.923443 -87.864625 
L 360.472552 -87.902106 
L 363.021661 -87.928525 
L 365.57077 -88.135111 
L 368.119879 -88.36533 
L 370.668989 -88.601032 
L 373.218098 -88.817487 
L 375.767207 -88.881349 
L 378.316316 -89.056722 
L 380.865425 -89.294688 
L 383.414535 -89.502798 
L 385.963644 -89.621393 
L 388.512753 -89.677746 
L 391.061862 -89.635386 
L 393.610971 -89.56882 
L 396.16008 -89.540618 
L 398.70919 -89.351621 
L 401.258299 -89.338458 
L 403.807408 -89.270956 
L 406.356517 -89.191872 
L 408.905626 -89.191113 
L 411.454736 -89.269929 
L 414.003845 -89.283996 
L 416.552954 -89.064685 
L 419.102063 -88.825292 
L 421.651172 -88.548845 
L 424.200281 -88.383221 
L 426.749391 -88.058351 
L 429.2985 -87.683387 
L 431.847609 -87.309786 
L 434.396718 -87.05289 
L 436.945827 -87.019298 
L 439.494937 -86.993965 
L 442.044046 -87.058314 
L 444.593155 -87.239405 
L 447.142264 -87.326811 
L 449.691373 -87.332034 
L 452.240482 -87.5255 
L 454.789592 -87.815809 
L 457.338701 -88.119202 
L 459.88781 -88.356984 
L 462.436919 -88.280328 
L 464.986028 -88.211676 
L 467.535138 -88.174483 
L 470.084247 -88.107041 
L 472.633356 -88.012362 
L 475.182465 -88.024839 
L 477.731574 -87.993709 
L 480.280683 -87.927108 
L 482.829793 -87.833034 
L 485.378902 -87.759543 
L 487.928011 -87.614537 
L 490.47712 -87.570229 
L 493.026229 -87.618493 
L 495.575339 -87.707531 
L 498.124448 -87.666998 
L 500.673557 -87.671298 
L 503.222666 -87.722108 
L 505.771775 -87.590671 
L 508.320884 -87.485041 
L 510.869994 -87.419991 
L 513.419103 -87.346967 
L 515.968212 -87.265968 
L 518.517321 -87.176995 
L 521.06643 -87.080047 
L 523.61554 -86.975124 
L 526.164649 -86.862226 
L 528.713758 -86.741354 
L 531.262867 -86.612507 
L 533.811976 -86.475686 
L 536.361085 -86.33089 
L 538.910195 -86.178119 
L 541.459304 -86.017374 
L 544.008413 -85.848654 
L 546.557522 -85.671959 
L 549.106631 -85.48729 
L 551.655741 -85.294646 
L 554.20485 -85.094027 
L 556.753959 -84.885433 
L 559.303068 -84.668865 
L 561.852177 -84.444323 
L 564.401286 -84.211805 
L 566.950396 -83.971313 
L 569.499505 -83.722847 
L 572.048614 -83.466406 
L 574.597723 -83.20199 
L 577.146832 -82.929599 
L 577.146832 -356.572458 
L 577.146832 -356.572458 
L 574.597723 -356.653309 
L 572.048614 -356.731805 
L 569.499505 -356.807946 
L 566.950396 -356.881731 
L 564.401286 -356.953161 
L 561.852177 -357.022236 
L 559.303068 -357.088955 
L 556.753959 -357.153319 
L 554.20485 -357.215327 
L 551.655741 -357.27498 
L 549.106631 -357.332277 
L 546.557522 -357.387219 
L 544.008413 -357.439806 
L 541.459304 -357.490037 
L 538.910195 -357.537913 
L 536.361085 -357.583434 
L 533.811976 -357.626599 
L 531.262867 -357.667409 
L 528.713758 -357.705863 
L 526.164649 -357.741962 
L 523.61554 -357.775706 
L 521.06643 -357.807094 
L 518.517321 -357.836127 
L 515.968212 -357.862804 
L 513.419103 -357.887126 
L 510.869994 -357.909093 
L 508.320884 -357.928704 
L 505.771775 -358.108195 
L 503.222666 -358.287937 
L 500.673557 -358.318143 
L 498.124448 -358.329233 
L 495.575339 -358.310178 
L 493.026229 -358.249453 
L 490.47712 -358.249455 
L 487.928011 -358.338056 
L 485.378902 -358.512627 
L 482.829793 -358.632358 
L 480.280683 -358.754016 
L 477.731574 -358.813998 
L 475.182465 -358.802172 
L 472.633356 -358.708021 
L 470.084247 -358.715488 
L 467.535138 -358.67571 
L 464.986028 -358.584746 
L 462.436919 -358.482649 
L 459.88781 -358.351222 
L 457.338701 -357.980222 
L 454.789592 -357.535832 
L 452.240482 -357.147375 
L 449.691373 -356.952798 
L 447.142264 -356.868452 
L 444.593155 -356.663598 
L 442.044046 -356.315932 
L 439.494937 -356.188899 
L 436.945827 -356.08423 
L 434.396718 -356.018084 
L 431.847609 -356.127503 
L 429.2985 -356.282023 
L 426.749391 -356.360233 
L 424.200281 -356.33016 
L 421.651172 -356.356633 
L 419.102063 -356.653872 
L 416.552954 -356.794874 
L 414.003845 -356.776513 
L 411.454736 -356.539095 
L 408.905626 -356.202439 
L 406.356517 -356.006502 
L 403.807408 -355.917452 
L 401.258299 -355.827464 
L 398.70919 -355.735502 
L 396.16008 -355.816813 
L 393.610971 -355.876177 
L 391.061862 -355.942016 
L 388.512753 -355.951067 
L 385.963644 -355.834342 
L 383.414535 -355.654065 
L 380.865425 -355.574166 
L 378.316316 -355.60503 
L 375.767207 -355.718112 
L 373.218098 -355.944575 
L 370.668989 -355.957152 
L 368.119879 -355.952266 
L 365.57077 -355.967381 
L 363.021661 -355.967413 
L 360.472552 -356.058517 
L 357.923443 -356.124482 
L 355.374334 -356.166601 
L 352.825224 -356.185875 
L 350.276115 -356.183016 
L 347.727006 -356.158445 
L 345.177897 -356.129876 
L 342.628788 -356.102664 
L 340.079678 -356.079926 
L 337.530569 -356.064608 
L 334.98146 -356.39373 
L 332.432351 -356.631512 
L 329.883242 -356.790488 
L 327.334133 -356.882732 
L 324.785023 -356.916905 
L 322.235914 -356.954991 
L 319.686805 -357.045542 
L 317.137696 -357.38878 
L 314.588587 -357.673264 
L 312.039477 -357.901708 
L 309.490368 -358.11 
L 306.941259 -358.171208 
L 304.39215 -358.56282 
L 301.843041 -358.710257 
L 299.293932 -358.928531 
L 296.744822 -359.144108 
L 294.195713 -359.309929 
L 291.646604 -359.411997 
L 289.097495 -359.466183 
L 286.548386 -359.487221 
L 283.999276 -359.484517 
L 281.450167 -359.429662 
L 278.901058 -359.328968 
L 276.351949 -359.272874 
L 273.80284 -359.248674 
L 271.253731 -359.471257 
L 268.704621 -359.541094 
L 266.155512 -359.264505 
L 263.606403 -359.131152 
L 261.057294 -359.174393 
L 258.508185 -359.339959 
L 255.959075 -359.318589 
L 253.409966 -359.270438 
L 250.860857 -359.227569 
L 248.311748 -359.195556 
L 245.762639 -359.180191 
L 243.21353 -359.187474 
L 240.66442 -359.154495 
L 238.115311 -359.065407 
L 235.566202 -358.936461 
L 233.017093 -358.723043 
L 230.467984 -358.544537 
L 227.918874 -358.341638 
L 225.369765 -358.121206 
L 222.820656 -357.941593 
L 220.271547 -357.740911 
L 217.722438 -357.527566 
L 215.173329 -357.161453 
L 212.624219 -356.771981 
L 210.07511 -356.381232 
L 207.526001 -356.076894 
L 204.976892 -355.871412 
L 202.427783 -355.766733 
L 199.878673 -355.765069 
L 197.329564 -355.8689 
L 194.780455 -355.680024 
L 192.231346 -355.630334 
L 189.682237 -355.534111 
L 187.133127 -355.603783 
L 184.584018 -355.926756 
L 182.034909 -356.310647 
L 179.4858 -356.404979 
L 176.936691 -356.505242 
L 174.387582 -356.786617 
L 171.838472 -356.709626 
L 169.289363 -356.786537 
L 166.740254 -357.076016 
L 164.191145 -357.000025 
L 161.642036 -357.143571 
L 159.092926 -357.250604 
L 156.543817 -357.324911 
L 153.994708 -357.372817 
L 151.445599 -357.434017 
L 148.89649 -357.517566 
L 146.347381 -357.607186 
L 143.798271 -357.658747 
L 141.249162 -357.651589 
L 138.700053 -357.613487 
L 136.150944 -357.623196 
L 133.601835 -357.627104 
L 131.052725 -357.625212 
L 128.503616 -357.617519 
L 125.954507 -357.604025 
L 123.405398 -357.58473 
L 120.856289 -357.559635 
L 118.30718 -357.528739 
L 115.75807 -357.492042 
L 113.208961 -357.449545 
L 110.659852 -357.401246 
L 108.110743 -357.347148 
L 105.561634 -357.287248 
L 103.012524 -357.221548 
L 100.463415 -357.150047 
L 97.914306 -357.072746 
L 95.365197 -356.989644 
L 92.816088 -356.900741 
L 90.266979 -356.806037 
L 87.717869 -356.705533 
L 85.16876 -356.599228 
L 82.619651 -356.487122 
L 80.070542 -356.369216 
L 77.521433 -356.245509 
L 74.972323 -356.116001 
L 72.423214 -355.980693 
L 71.14866 -355.839584 
z
" style="stroke: #de8f05; stroke-opacity: 0.5"/>
    </defs>
    <g clip-path="url(#pc515d961d2)">
     <use xlink:href="#m2596d14155" x="0" y="381.861094" style="fill: #de8f05; fill-opacity: 0.5; stroke: #de8f05; stroke-opacity: 0.5"/>
    </g>
   </g>
   <g id="line2d_13">
    <defs>
     <path id="mc574437b75" d="M 0 1.5 
C 0.397805 1.5 0.77937 1.341951 1.06066 1.06066 
C 1.341951 0.77937 1.5 0.397805 1.5 0 
C 1.5 -0.397805 1.341951 -0.77937 1.06066 -1.06066 
C 0.77937 -1.341951 0.397805 -1.5 0 -1.5 
C -0.397805 -1.5 -0.77937 -1.341951 -1.06066 -1.06066 
C -1.341951 -0.77937 -1.5 -0.397805 -1.5 0 
C -1.5 0.397805 -1.341951 0.77937 -1.06066 1.06066 
C -0.77937 1.341951 -0.397805 1.5 0 1.5 
z
" style="stroke: #de8f05; stroke-opacity: 0.6"/>
    </defs>
    <g clip-path="url(#pc515d961d2)">
     <use xlink:href="#mc574437b75" x="461.258332" y="159.641648" style="fill: #de8f05; fill-opacity: 0.6; stroke: #de8f05; stroke-opacity: 0.6"/>
     <use xlink:href="#mc574437b75" x="173.57256" y="159.6195" style="fill: #de8f05; fill-opacity: 0.6; stroke: #de8f05; stroke-opacity: 0.6"/>
     <use xlink:href="#mc574437b75" x="110.41709" y="159.614638" style="fill: #de8f05; fill-opacity: 0.6; stroke: #de8f05; stroke-opacity: 0.6"/>
     <use xlink:href="#mc574437b75" x="369.66141" y="159.634596" style="fill: #de8f05; fill-opacity: 0.6; stroke: #de8f05; stroke-opacity: 0.6"/>
     <use xlink:href="#mc574437b75" x="361.885481" y="159.633998" style="fill: #de8f05; fill-opacity: 0.6; stroke: #de8f05; stroke-opacity: 0.6"/>
     <use xlink:href="#mc574437b75" x="328.682543" y="159.631442" style="fill: #de8f05; fill-opacity: 0.6; stroke: #de8f05; stroke-opacity: 0.6"/>
     <use xlink:href="#mc574437b75" x="475.065908" y="159.642711" style="fill: #de8f05; fill-opacity: 0.6; stroke: #de8f05; stroke-opacity: 0.6"/>
     <use xlink:href="#mc574437b75" x="237.829216" y="159.624447" style="fill: #de8f05; fill-opacity: 0.6; stroke: #de8f05; stroke-opacity: 0.6"/>
     <use xlink:href="#mc574437b75" x="305.377304" y="159.629647" style="fill: #de8f05; fill-opacity: 0.6; stroke: #de8f05; stroke-opacity: 0.6"/>
     <use xlink:href="#mc574437b75" x="84.791236" y="159.612665" style="fill: #de8f05; fill-opacity: 0.6; stroke: #de8f05; stroke-opacity: 0.6"/>
     <use xlink:href="#mc574437b75" x="118.035652" y="159.615225" style="fill: #de8f05; fill-opacity: 0.6; stroke: #de8f05; stroke-opacity: 0.6"/>
     <use xlink:href="#mc574437b75" x="69.874105" y="159.611517" style="fill: #de8f05; fill-opacity: 0.6; stroke: #de8f05; stroke-opacity: 0.6"/>
     <use xlink:href="#mc574437b75" x="85.214529" y="159.612698" style="fill: #de8f05; fill-opacity: 0.6; stroke: #de8f05; stroke-opacity: 0.6"/>
     <use xlink:href="#mc574437b75" x="296.048774" y="159.628929" style="fill: #de8f05; fill-opacity: 0.6; stroke: #de8f05; stroke-opacity: 0.6"/>
     <use xlink:href="#mc574437b75" x="266.625466" y="159.626664" style="fill: #de8f05; fill-opacity: 0.6; stroke: #de8f05; stroke-opacity: 0.6"/>
     <use xlink:href="#mc574437b75" x="306.110904" y="159.629704" style="fill: #de8f05; fill-opacity: 0.6; stroke: #de8f05; stroke-opacity: 0.6"/>
     <use xlink:href="#mc574437b75" x="555.643102" y="159.648914" style="fill: #de8f05; fill-opacity: 0.6; stroke: #de8f05; stroke-opacity: 0.6"/>
     <use xlink:href="#mc574437b75" x="444.633658" y="159.640368" style="fill: #de8f05; fill-opacity: 0.6; stroke: #de8f05; stroke-opacity: 0.6"/>
     <use xlink:href="#mc574437b75" x="327.043014" y="159.631315" style="fill: #de8f05; fill-opacity: 0.6; stroke: #de8f05; stroke-opacity: 0.6"/>
     <use xlink:href="#mc574437b75" x="485.192348" y="159.643491" style="fill: #de8f05; fill-opacity: 0.6; stroke: #de8f05; stroke-opacity: 0.6"/>
     <use xlink:href="#mc574437b75" x="524.962545" y="159.646552" style="fill: #de8f05; fill-opacity: 0.6; stroke: #de8f05; stroke-opacity: 0.6"/>
     <use xlink:href="#mc574437b75" x="519.572945" y="159.646137" style="fill: #de8f05; fill-opacity: 0.6; stroke: #de8f05; stroke-opacity: 0.6"/>
     <use xlink:href="#mc574437b75" x="111.70276" y="159.614737" style="fill: #de8f05; fill-opacity: 0.6; stroke: #de8f05; stroke-opacity: 0.6"/>
     <use xlink:href="#mc574437b75" x="266.264444" y="159.626636" style="fill: #de8f05; fill-opacity: 0.6; stroke: #de8f05; stroke-opacity: 0.6"/>
     <use xlink:href="#mc574437b75" x="122.458821" y="159.615565" style="fill: #de8f05; fill-opacity: 0.6; stroke: #de8f05; stroke-opacity: 0.6"/>
     <use xlink:href="#mc574437b75" x="519.987559" y="159.646169" style="fill: #de8f05; fill-opacity: 0.6; stroke: #de8f05; stroke-opacity: 0.6"/>
     <use xlink:href="#mc574437b75" x="477.140466" y="159.642871" style="fill: #de8f05; fill-opacity: 0.6; stroke: #de8f05; stroke-opacity: 0.6"/>
     <use xlink:href="#mc574437b75" x="267.421176" y="159.626725" style="fill: #de8f05; fill-opacity: 0.6; stroke: #de8f05; stroke-opacity: 0.6"/>
     <use xlink:href="#mc574437b75" x="396.286689" y="159.636646" style="fill: #de8f05; fill-opacity: 0.6; stroke: #de8f05; stroke-opacity: 0.6"/>
     <use xlink:href="#mc574437b75" x="554.196719" y="159.648803" style="fill: #de8f05; fill-opacity: 0.6; stroke: #de8f05; stroke-opacity: 0.6"/>
     <use xlink:href="#mc574437b75" x="432.086205" y="159.639402" style="fill: #de8f05; fill-opacity: 0.6; stroke: #de8f05; stroke-opacity: 0.6"/>
     <use xlink:href="#mc574437b75" x="163.238292" y="159.618705" style="fill: #de8f05; fill-opacity: 0.6; stroke: #de8f05; stroke-opacity: 0.6"/>
     <use xlink:href="#mc574437b75" x="391.069865" y="159.636245" style="fill: #de8f05; fill-opacity: 0.6; stroke: #de8f05; stroke-opacity: 0.6"/>
     <use xlink:href="#mc574437b75" x="505.797554" y="159.645077" style="fill: #de8f05; fill-opacity: 0.6; stroke: #de8f05; stroke-opacity: 0.6"/>
     <use xlink:href="#mc574437b75" x="541.552769" y="159.64783" style="fill: #de8f05; fill-opacity: 0.6; stroke: #de8f05; stroke-opacity: 0.6"/>
     <use xlink:href="#mc574437b75" x="99.081525" y="159.613766" style="fill: #de8f05; fill-opacity: 0.6; stroke: #de8f05; stroke-opacity: 0.6"/>
     <use xlink:href="#mc574437b75" x="81.136318" y="159.612384" style="fill: #de8f05; fill-opacity: 0.6; stroke: #de8f05; stroke-opacity: 0.6"/>
     <use xlink:href="#mc574437b75" x="552.829112" y="159.648698" style="fill: #de8f05; fill-opacity: 0.6; stroke: #de8f05; stroke-opacity: 0.6"/>
     <use xlink:href="#mc574437b75" x="235.476557" y="159.624266" style="fill: #de8f05; fill-opacity: 0.6; stroke: #de8f05; stroke-opacity: 0.6"/>
     <use xlink:href="#mc574437b75" x="146.337711" y="159.617404" style="fill: #de8f05; fill-opacity: 0.6; stroke: #de8f05; stroke-opacity: 0.6"/>
     <use xlink:href="#mc574437b75" x="483.601213" y="159.643368" style="fill: #de8f05; fill-opacity: 0.6; stroke: #de8f05; stroke-opacity: 0.6"/>
     <use xlink:href="#mc574437b75" x="355.020891" y="159.633469" style="fill: #de8f05; fill-opacity: 0.6; stroke: #de8f05; stroke-opacity: 0.6"/>
     <use xlink:href="#mc574437b75" x="105.532241" y="159.614262" style="fill: #de8f05; fill-opacity: 0.6; stroke: #de8f05; stroke-opacity: 0.6"/>
     <use xlink:href="#mc574437b75" x="390.347237" y="159.636189" style="fill: #de8f05; fill-opacity: 0.6; stroke: #de8f05; stroke-opacity: 0.6"/>
     <use xlink:href="#mc574437b75" x="77.471807" y="159.612102" style="fill: #de8f05; fill-opacity: 0.6; stroke: #de8f05; stroke-opacity: 0.6"/>
     <use xlink:href="#mc574437b75" x="233.891474" y="159.624144" style="fill: #de8f05; fill-opacity: 0.6; stroke: #de8f05; stroke-opacity: 0.6"/>
     <use xlink:href="#mc574437b75" x="69.893147" y="159.611519" style="fill: #de8f05; fill-opacity: 0.6; stroke: #de8f05; stroke-opacity: 0.6"/>
     <use xlink:href="#mc574437b75" x="566.135239" y="159.649722" style="fill: #de8f05; fill-opacity: 0.6; stroke: #de8f05; stroke-opacity: 0.6"/>
     <use xlink:href="#mc574437b75" x="254.984927" y="159.625768" style="fill: #de8f05; fill-opacity: 0.6; stroke: #de8f05; stroke-opacity: 0.6"/>
     <use xlink:href="#mc574437b75" x="160.528853" y="159.618496" style="fill: #de8f05; fill-opacity: 0.6; stroke: #de8f05; stroke-opacity: 0.6"/>
     <use xlink:href="#mc574437b75" x="146.714368" y="159.617433" style="fill: #de8f05; fill-opacity: 0.6; stroke: #de8f05; stroke-opacity: 0.6"/>
     <use xlink:href="#mc574437b75" x="367.733058" y="159.634448" style="fill: #de8f05; fill-opacity: 0.6; stroke: #de8f05; stroke-opacity: 0.6"/>
     <use xlink:href="#mc574437b75" x="241.535647" y="159.624733" style="fill: #de8f05; fill-opacity: 0.6; stroke: #de8f05; stroke-opacity: 0.6"/>
     <use xlink:href="#mc574437b75" x="82.386571" y="159.61248" style="fill: #de8f05; fill-opacity: 0.6; stroke: #de8f05; stroke-opacity: 0.6"/>
     <use xlink:href="#mc574437b75" x="124.727595" y="159.61574" style="fill: #de8f05; fill-opacity: 0.6; stroke: #de8f05; stroke-opacity: 0.6"/>
     <use xlink:href="#mc574437b75" x="338.247651" y="159.632178" style="fill: #de8f05; fill-opacity: 0.6; stroke: #de8f05; stroke-opacity: 0.6"/>
     <use xlink:href="#mc574437b75" x="207.072132" y="159.622079" style="fill: #de8f05; fill-opacity: 0.6; stroke: #de8f05; stroke-opacity: 0.6"/>
     <use xlink:href="#mc574437b75" x="353.873814" y="159.633381" style="fill: #de8f05; fill-opacity: 0.6; stroke: #de8f05; stroke-opacity: 0.6"/>
     <use xlink:href="#mc574437b75" x="494.05608" y="159.644173" style="fill: #de8f05; fill-opacity: 0.6; stroke: #de8f05; stroke-opacity: 0.6"/>
     <use xlink:href="#mc574437b75" x="377.786973" y="159.635222" style="fill: #de8f05; fill-opacity: 0.6; stroke: #de8f05; stroke-opacity: 0.6"/>
     <use xlink:href="#mc574437b75" x="418.786669" y="159.638378" style="fill: #de8f05; fill-opacity: 0.6; stroke: #de8f05; stroke-opacity: 0.6"/>
     <use xlink:href="#mc574437b75" x="511.050731" y="159.645481" style="fill: #de8f05; fill-opacity: 0.6; stroke: #de8f05; stroke-opacity: 0.6"/>
     <use xlink:href="#mc574437b75" x="433.466272" y="159.639509" style="fill: #de8f05; fill-opacity: 0.6; stroke: #de8f05; stroke-opacity: 0.6"/>
     <use xlink:href="#mc574437b75" x="156.983946" y="159.618223" style="fill: #de8f05; fill-opacity: 0.6; stroke: #de8f05; stroke-opacity: 0.6"/>
     <use xlink:href="#mc574437b75" x="159.098129" y="159.618386" style="fill: #de8f05; fill-opacity: 0.6; stroke: #de8f05; stroke-opacity: 0.6"/>
     <use xlink:href="#mc574437b75" x="577.146832" y="159.65057" style="fill: #de8f05; fill-opacity: 0.6; stroke: #de8f05; stroke-opacity: 0.6"/>
     <use xlink:href="#mc574437b75" x="154.306993" y="159.618017" style="fill: #de8f05; fill-opacity: 0.6; stroke: #de8f05; stroke-opacity: 0.6"/>
     <use xlink:href="#mc574437b75" x="310.779528" y="159.630063" style="fill: #de8f05; fill-opacity: 0.6; stroke: #de8f05; stroke-opacity: 0.6"/>
     <use xlink:href="#mc574437b75" x="203.542955" y="159.621808" style="fill: #de8f05; fill-opacity: 0.6; stroke: #de8f05; stroke-opacity: 0.6"/>
     <use xlink:href="#mc574437b75" x="204.022608" y="159.621845" style="fill: #de8f05; fill-opacity: 0.6; stroke: #de8f05; stroke-opacity: 0.6"/>
     <use xlink:href="#mc574437b75" x="233.275758" y="159.624097" style="fill: #de8f05; fill-opacity: 0.6; stroke: #de8f05; stroke-opacity: 0.6"/>
     <use xlink:href="#mc574437b75" x="113.50684" y="159.614876" style="fill: #de8f05; fill-opacity: 0.6; stroke: #de8f05; stroke-opacity: 0.6"/>
     <use xlink:href="#mc574437b75" x="476.528789" y="159.642824" style="fill: #de8f05; fill-opacity: 0.6; stroke: #de8f05; stroke-opacity: 0.6"/>
     <use xlink:href="#mc574437b75" x="103.517989" y="159.614107" style="fill: #de8f05; fill-opacity: 0.6; stroke: #de8f05; stroke-opacity: 0.6"/>
     <use xlink:href="#mc574437b75" x="313.716522" y="159.630289" style="fill: #de8f05; fill-opacity: 0.6; stroke: #de8f05; stroke-opacity: 0.6"/>
     <use xlink:href="#mc574437b75" x="455.942293" y="159.641239" style="fill: #de8f05; fill-opacity: 0.6; stroke: #de8f05; stroke-opacity: 0.6"/>
     <use xlink:href="#mc574437b75" x="240.299163" y="159.624637" style="fill: #de8f05; fill-opacity: 0.6; stroke: #de8f05; stroke-opacity: 0.6"/>
     <use xlink:href="#mc574437b75" x="475.468429" y="159.642742" style="fill: #de8f05; fill-opacity: 0.6; stroke: #de8f05; stroke-opacity: 0.6"/>
     <use xlink:href="#mc574437b75" x="519.354671" y="159.646121" style="fill: #de8f05; fill-opacity: 0.6; stroke: #de8f05; stroke-opacity: 0.6"/>
     <use xlink:href="#mc574437b75" x="355.397588" y="159.633498" style="fill: #de8f05; fill-opacity: 0.6; stroke: #de8f05; stroke-opacity: 0.6"/>
     <use xlink:href="#mc574437b75" x="294.691732" y="159.628825" style="fill: #de8f05; fill-opacity: 0.6; stroke: #de8f05; stroke-opacity: 0.6"/>
     <use xlink:href="#mc574437b75" x="196.446646" y="159.621261" style="fill: #de8f05; fill-opacity: 0.6; stroke: #de8f05; stroke-opacity: 0.6"/>
     <use xlink:href="#mc574437b75" x="118.001151" y="159.615222" style="fill: #de8f05; fill-opacity: 0.6; stroke: #de8f05; stroke-opacity: 0.6"/>
     <use xlink:href="#mc574437b75" x="481.812206" y="159.64323" style="fill: #de8f05; fill-opacity: 0.6; stroke: #de8f05; stroke-opacity: 0.6"/>
     <use xlink:href="#mc574437b75" x="543.965778" y="159.648015" style="fill: #de8f05; fill-opacity: 0.6; stroke: #de8f05; stroke-opacity: 0.6"/>
     <use xlink:href="#mc574437b75" x="301.314616" y="159.629335" style="fill: #de8f05; fill-opacity: 0.6; stroke: #de8f05; stroke-opacity: 0.6"/>
     <use xlink:href="#mc574437b75" x="334.806355" y="159.631913" style="fill: #de8f05; fill-opacity: 0.6; stroke: #de8f05; stroke-opacity: 0.6"/>
     <use xlink:href="#mc574437b75" x="122.734157" y="159.615587" style="fill: #de8f05; fill-opacity: 0.6; stroke: #de8f05; stroke-opacity: 0.6"/>
     <use xlink:href="#mc574437b75" x="511.036829" y="159.64548" style="fill: #de8f05; fill-opacity: 0.6; stroke: #de8f05; stroke-opacity: 0.6"/>
     <use xlink:href="#mc574437b75" x="190.337166" y="159.620791" style="fill: #de8f05; fill-opacity: 0.6; stroke: #de8f05; stroke-opacity: 0.6"/>
     <use xlink:href="#mc574437b75" x="337.757046" y="159.63214" style="fill: #de8f05; fill-opacity: 0.6; stroke: #de8f05; stroke-opacity: 0.6"/>
     <use xlink:href="#mc574437b75" x="490.587867" y="159.643906" style="fill: #de8f05; fill-opacity: 0.6; stroke: #de8f05; stroke-opacity: 0.6"/>
     <use xlink:href="#mc574437b75" x="77.734917" y="159.612122" style="fill: #de8f05; fill-opacity: 0.6; stroke: #de8f05; stroke-opacity: 0.6"/>
     <use xlink:href="#mc574437b75" x="248.226153" y="159.625248" style="fill: #de8f05; fill-opacity: 0.6; stroke: #de8f05; stroke-opacity: 0.6"/>
     <use xlink:href="#mc574437b75" x="464.828801" y="159.641923" style="fill: #de8f05; fill-opacity: 0.6; stroke: #de8f05; stroke-opacity: 0.6"/>
     <use xlink:href="#mc574437b75" x="327.760031" y="159.631371" style="fill: #de8f05; fill-opacity: 0.6; stroke: #de8f05; stroke-opacity: 0.6"/>
     <use xlink:href="#mc574437b75" x="564.024076" y="159.64956" style="fill: #de8f05; fill-opacity: 0.6; stroke: #de8f05; stroke-opacity: 0.6"/>
     <use xlink:href="#mc574437b75" x="140.960906" y="159.61699" style="fill: #de8f05; fill-opacity: 0.6; stroke: #de8f05; stroke-opacity: 0.6"/>
     <use xlink:href="#mc574437b75" x="502.051449" y="159.644789" style="fill: #de8f05; fill-opacity: 0.6; stroke: #de8f05; stroke-opacity: 0.6"/>
     <use xlink:href="#mc574437b75" x="352.5136" y="159.633276" style="fill: #de8f05; fill-opacity: 0.6; stroke: #de8f05; stroke-opacity: 0.6"/>
    </g>
   </g>
   <g id="line2d_14">
    <path d="M 71.14866 295.234931 
L 82.619651 295.291527 
L 108.110743 295.229432 
L 133.601835 294.933621 
L 138.700053 294.846412 
L 146.347381 295.058711 
L 156.543817 295.054847 
L 164.191145 294.916528 
L 166.740254 294.510193 
L 169.289363 294.439938 
L 171.838472 294.06648 
L 174.387582 293.508771 
L 179.4858 293.462688 
L 187.133127 293.070815 
L 189.682237 292.830187 
L 194.780455 292.132396 
L 197.329564 291.849879 
L 202.427783 291.645128 
L 207.526001 291.254735 
L 215.173329 290.472416 
L 225.369765 290.188116 
L 233.017093 290.14344 
L 238.115311 290.393215 
L 243.21353 290.771142 
L 250.860857 291.110732 
L 258.508185 291.588863 
L 263.606403 292.380199 
L 271.253731 293.384865 
L 273.80284 293.868841 
L 278.901058 294.187834 
L 283.999276 294.266772 
L 289.097495 294.16545 
L 296.744822 294.460058 
L 301.843041 294.768268 
L 304.39215 294.753974 
L 306.941259 295.031666 
L 309.490368 294.951498 
L 317.137696 295.186289 
L 319.686805 295.206881 
L 324.785023 294.715888 
L 329.883242 294.465988 
L 334.98146 294.468081 
L 337.530569 294.582522 
L 355.374334 294.044193 
L 363.021661 293.932569 
L 383.414535 292.358295 
L 388.512753 292.183348 
L 396.16008 292.320476 
L 398.70919 292.509472 
L 403.807408 292.590137 
L 408.905626 292.66998 
L 414.003845 292.577098 
L 424.200281 293.477873 
L 434.396718 294.808204 
L 442.044046 294.80278 
L 447.142264 294.534282 
L 449.691373 294.52906 
L 454.789592 294.045285 
L 459.88781 293.50411 
L 472.633356 293.848732 
L 477.731574 293.867385 
L 485.378902 294.101551 
L 490.47712 294.290865 
L 503.222666 294.138986 
L 510.869994 294.441102 
L 523.61554 294.88597 
L 536.361085 295.530204 
L 549.106631 296.373804 
L 561.852177 297.416771 
L 574.597723 298.659104 
L 577.146832 298.931495 
L 577.146832 298.931495 
" clip-path="url(#pc515d961d2)" style="fill: none; stroke: #de8f05; stroke-opacity: 0; stroke-width: 1.5; stroke-linecap: round"/>
   </g>
   <g id="line2d_15">
    <path d="M 71.14866 26.02151 
L 72.423214 25.880401 
L 87.717869 25.155561 
L 103.012524 24.639546 
L 118.30718 24.332355 
L 133.601835 24.233989 
L 148.89649 24.343527 
L 164.191145 24.861068 
L 166.740254 24.785078 
L 169.289363 25.074556 
L 171.838472 25.151468 
L 174.387582 25.074477 
L 176.936691 25.355852 
L 182.034909 25.550447 
L 187.133127 26.257311 
L 189.682237 26.326983 
L 197.329564 25.992194 
L 202.427783 26.094361 
L 207.526001 25.784199 
L 212.624219 25.089112 
L 217.722438 24.333528 
L 235.566202 22.924632 
L 240.66442 22.706599 
L 258.508185 22.521135 
L 261.057294 22.6867 
L 263.606403 22.729942 
L 266.155512 22.596589 
L 268.704621 22.32 
L 271.253731 22.389837 
L 273.80284 22.61242 
L 281.450167 22.431432 
L 286.548386 22.373872 
L 291.646604 22.449097 
L 296.744822 22.716986 
L 317.137696 24.472314 
L 319.686805 24.815552 
L 334.98146 25.467364 
L 337.530569 25.796486 
L 357.923443 25.736611 
L 368.119879 25.908828 
L 373.218098 25.916519 
L 375.767207 26.142981 
L 380.865425 26.286927 
L 385.963644 26.026751 
L 388.512753 25.910027 
L 396.16008 26.04428 
L 398.70919 26.125591 
L 408.905626 25.658655 
L 414.003845 25.084581 
L 416.552954 25.06622 
L 419.102063 25.207221 
L 421.651172 25.504461 
L 429.2985 25.57907 
L 434.396718 25.84301 
L 442.044046 25.545162 
L 444.593155 25.197496 
L 447.142264 24.992642 
L 452.240482 24.713719 
L 459.88781 23.509871 
L 467.535138 23.185384 
L 477.731574 23.047096 
L 482.829793 23.228736 
L 493.026229 23.611641 
L 498.124448 23.531861 
L 503.222666 23.573157 
L 508.320884 23.93239 
L 533.811976 24.234495 
L 559.303068 24.772139 
L 577.146832 25.288636 
L 577.146832 25.288636 
" clip-path="url(#pc515d961d2)" style="fill: none; stroke: #de8f05; stroke-opacity: 0; stroke-width: 1.5; stroke-linecap: round"/>
   </g>
   <g id="patch_3">
    <path d="M 44.510469 339.84 
L 44.510469 7.2 
" style="fill: none; stroke: #ffffff; stroke-width: 1.25; stroke-linejoin: miter; stroke-linecap: square"/>
   </g>
   <g id="patch_4">
    <path d="M 602.510469 339.84 
L 602.510469 7.2 
" style="fill: none; stroke: #ffffff; stroke-width: 1.25; stroke-linejoin: miter; stroke-linecap: square"/>
   </g>
   <g id="patch_5">
    <path d="M 44.510469 339.84 
L 602.510469 339.84 
" style="fill: none; stroke: #ffffff; stroke-width: 1.25; stroke-linejoin: miter; stroke-linecap: square"/>
   </g>
   <g id="patch_6">
    <path d="M 44.510469 7.2 
L 602.510469 7.2 
" style="fill: none; stroke: #ffffff; stroke-width: 1.25; stroke-linejoin: miter; stroke-linecap: square"/>
   </g>
  </g>
 </g>
 <defs>
  <clipPath id="pc515d961d2">
   <rect x="44.510469" y="7.2" width="558" height="332.64"/>
  </clipPath>
 </defs>
</svg>