<?xml version="1.0" encoding="UTF-8" standalone="no"?>
<!DOCTYPE svg PUBLIC "-//W3C//DTD SVG 1.1//EN"
 "http://www.w3.org/Graphics/SVG/1.1/DTD/svg11.dtd">
<!-- Generated by graphviz version 8.1.0 (0)
 -->
<!-- Pages: 1 -->
<svg width="450pt" height="268pt"
 viewBox="0.00 0.00 450.01 267.63" xmlns="http://www.w3.org/2000/svg" xmlns:xlink="http://www.w3.org/1999/xlink">
<g id="graph0" class="graph" transform="scale(1 1) rotate(0) translate(4 263.63)">
<polygon fill="white" stroke="none" points="-4,4 -4,-263.63 446.01,-263.63 446.01,4 -4,4"/>
<g id="clust1" class="cluster">
<title>clusterobs_id (919)</title>
<path fill="none" stroke="black" d="M20,-8C20,-8 100,-8 100,-8 106,-8 112,-14 112,-20 112,-20 112,-227.73 112,-227.73 112,-233.73 106,-239.73 100,-239.73 100,-239.73 20,-239.73 20,-239.73 14,-239.73 8,-233.73 8,-227.73 8,-227.73 8,-20 8,-20 8,-14 14,-8 20,-8"/>
<text text-anchor="middle" x="69.5" y="-15.2" font-family="Times,serif" font-size="14.00">obs_id (919)</text>
</g>
<g id="clust2" class="cluster">
<title>clustercounty (85)</title>
<path fill="none" stroke="black" d="M132,-129.82C132,-129.82 206,-129.82 206,-129.82 212,-129.82 218,-135.82 218,-141.82 218,-141.82 218,-239.63 218,-239.63 218,-245.63 212,-251.63 206,-251.63 206,-251.63 132,-251.63 132,-251.63 126,-251.63 120,-245.63 120,-239.63 120,-239.63 120,-141.82 120,-141.82 120,-135.82 126,-129.82 132,-129.82"/>
<text text-anchor="middle" x="178.5" y="-137.02" font-family="Times,serif" font-size="14.00">county (85)</text>
</g>
<!-- floor_ind -->
<g id="node1" class="node">
<title>floor_ind</title>
<path fill="lightgrey" stroke="black" d="M91.62,-231.73C91.62,-231.73 28.38,-231.73 28.38,-231.73 22.38,-231.73 16.38,-225.73 16.38,-219.73 16.38,-219.73 16.38,-186.23 16.38,-186.23 16.38,-180.23 22.38,-174.23 28.38,-174.23 28.38,-174.23 91.62,-174.23 91.62,-174.23 97.62,-174.23 103.62,-180.23 103.62,-186.23 103.62,-186.23 103.62,-219.73 103.62,-219.73 103.62,-225.73 97.62,-231.73 91.62,-231.73"/>
<text text-anchor="middle" x="60" y="-214.43" font-family="Times,serif" font-size="14.00">floor_ind</text>
<text text-anchor="middle" x="60" y="-197.93" font-family="Times,serif" font-size="14.00">~</text>
<text text-anchor="middle" x="60" y="-181.43" font-family="Times,serif" font-size="14.00">MutableData</text>
</g>
<!-- y -->
<g id="node2" class="node">
<title>y</title>
<ellipse fill="lightgrey" stroke="black" cx="63" cy="-81.16" rx="41.01" ry="40.66"/>
<text text-anchor="middle" x="63" y="-92.61" font-family="Times,serif" font-size="14.00">y</text>
<text text-anchor="middle" x="63" y="-76.11" font-family="Times,serif" font-size="14.00">~</text>
<text text-anchor="middle" x="63" y="-59.61" font-family="Times,serif" font-size="14.00">Normal</text>
</g>
<!-- floor_ind&#45;&gt;y -->
<g id="edge1" class="edge">
<title>floor_ind&#45;&gt;y</title>
<path fill="none" stroke="black" d="M60.7,-173.88C61.01,-161.54 61.39,-146.65 61.74,-132.5"/>
<polygon fill="black" stroke="black" points="65.25,-132.95 62.01,-122.87 58.26,-132.78 65.25,-132.95"/>
</g>
<!-- alpha -->
<g id="node3" class="node">
<title>alpha</title>
<ellipse fill="none" stroke="black" cx="169" cy="-202.98" rx="41.01" ry="40.66"/>
<text text-anchor="middle" x="169" y="-214.43" font-family="Times,serif" font-size="14.00">alpha</text>
<text text-anchor="middle" x="169" y="-197.93" font-family="Times,serif" font-size="14.00">~</text>
<text text-anchor="middle" x="169" y="-181.43" font-family="Times,serif" font-size="14.00">Normal</text>
</g>
<!-- alpha&#45;&gt;y -->
<g id="edge2" class="edge">
<title>alpha&#45;&gt;y</title>
<path fill="none" stroke="black" d="M146.61,-168.54C137.63,-155.95 126.85,-141.8 116,-129.82 111.58,-124.94 106.72,-120.04 101.78,-115.32"/>
<polygon fill="black" stroke="black" points="104.72,-113.35 95.01,-109.11 99.95,-118.48 104.72,-113.35"/>
</g>
<!-- sigma -->
<g id="node4" class="node">
<title>sigma</title>
<ellipse fill="none" stroke="black" cx="285" cy="-202.98" rx="57.45" ry="40.66"/>
<text text-anchor="middle" x="285" y="-214.43" font-family="Times,serif" font-size="14.00">sigma</text>
<text text-anchor="middle" x="285" y="-197.93" font-family="Times,serif" font-size="14.00">~</text>
<text text-anchor="middle" x="285" y="-181.43" font-family="Times,serif" font-size="14.00">Exponential</text>
</g>
<!-- sigma&#45;&gt;y -->
<g id="edge3" class="edge">
<title>sigma&#45;&gt;y</title>
<path fill="none" stroke="black" d="M260.42,-166.14C249.92,-153.11 236.68,-139.27 222,-129.82 189.46,-108.86 147.29,-96.77 114.56,-90.02"/>
<polygon fill="black" stroke="black" points="115.34,-86.41 104.85,-87.93 114,-93.28 115.34,-86.41"/>
</g>
<!-- beta -->
<g id="node5" class="node">
<title>beta</title>
<ellipse fill="none" stroke="black" cx="401" cy="-202.98" rx="41.01" ry="40.66"/>
<text text-anchor="middle" x="401" y="-214.43" font-family="Times,serif" font-size="14.00">beta</text>
<text text-anchor="middle" x="401" y="-197.93" font-family="Times,serif" font-size="14.00">~</text>
<text text-anchor="middle" x="401" y="-181.43" font-family="Times,serif" font-size="14.00">Normal</text>
</g>
<!-- beta&#45;&gt;y -->
<g id="edge4" class="edge">
<title>beta&#45;&gt;y</title>
<path fill="none" stroke="black" d="M383.68,-165.59C375.57,-152.32 364.65,-138.46 351,-129.82 312.61,-105.51 186.73,-91.88 114.73,-85.88"/>
<polygon fill="black" stroke="black" points="115.34,-82.34 105.09,-85.02 114.78,-89.32 115.34,-82.34"/>
</g>
</g>
</svg>