<?xml version="1.0" encoding="UTF-8" standalone="no"?>
<!DOCTYPE svg PUBLIC "-//W3C//DTD SVG 1.1//EN"
 "http://www.w3.org/Graphics/SVG/1.1/DTD/svg11.dtd">
<!-- Generated by graphviz version 9.0.0 (0)
 -->
<!-- Pages: 1 -->
<svg width="299pt" height="152pt"
 viewBox="0.00 0.00 298.89 152.00" xmlns="http://www.w3.org/2000/svg" xmlns:xlink="http://www.w3.org/1999/xlink">
<g id="graph0" class="graph" transform="scale(1 1) rotate(0) translate(4 148)">
<polygon fill="white" stroke="none" points="-4,4 -4,-148 294.89,-148 294.89,4 -4,4"/>
<!-- S -->
<g id="node1" class="node">
<title>S</title>
<ellipse fill="none" stroke="red" cx="55.45" cy="-72" rx="27" ry="18"/>
<text text-anchor="middle" x="55.45" y="-66.95" font-family="Times,serif" font-size="14.00">S</text>
</g>
<!-- H -->
<g id="node2" class="node">
<title>H</title>
<ellipse fill="none" stroke="black" stroke-dasharray="5,2" cx="173.89" cy="-72" rx="27" ry="18"/>
<text text-anchor="middle" x="173.89" y="-66.95" font-family="Times,serif" font-size="14.00">H</text>
</g>
<!-- S&#45;&gt;H -->
<g id="edge1" class="edge">
<title>S&#45;&gt;H</title>
<path fill="none" stroke="red" d="M82.87,-72C98.35,-72 118.17,-72 135.26,-72"/>
<polygon fill="red" stroke="red" points="135.06,-75.5 145.06,-72 135.06,-68.5 135.06,-75.5"/>
</g>
<!-- H* -->
<g id="node3" class="node">
<title>H*</title>
<ellipse fill="none" stroke="red" cx="263.89" cy="-45" rx="27" ry="18"/>
<text text-anchor="middle" x="263.89" y="-39.95" font-family="Times,serif" font-size="14.00">H*</text>
</g>
<!-- H&#45;&gt;H* -->
<g id="edge2" class="edge">
<title>H&#45;&gt;H*</title>
<path fill="none" stroke="red" d="M198.94,-64.62C207.86,-61.88 218.18,-58.72 227.88,-55.74"/>
<polygon fill="red" stroke="red" points="228.89,-59.09 237.43,-52.81 226.84,-52.4 228.89,-59.09"/>
</g>
<!-- D -->
<g id="node4" class="node">
<title>D</title>
<ellipse fill="none" stroke="black" cx="173.89" cy="-18" rx="27" ry="18"/>
<text text-anchor="middle" x="173.89" y="-12.95" font-family="Times,serif" font-size="14.00">D</text>
</g>
<!-- D&#45;&gt;H* -->
<g id="edge3" class="edge">
<title>D&#45;&gt;H*</title>
<path fill="none" stroke="black" d="M198.94,-25.38C207.86,-28.12 218.18,-31.28 227.88,-34.26"/>
<polygon fill="black" stroke="black" points="226.84,-37.6 237.43,-37.19 228.89,-30.91 226.84,-37.6"/>
</g>
<!-- Unobserved -->
<g id="node5" class="node">
<title>Unobserved</title>
<ellipse fill="none" stroke="black" stroke-dasharray="5,2" cx="55.45" cy="-126" rx="55.45" ry="18"/>
<text text-anchor="middle" x="55.45" y="-120.95" font-family="Times,serif" font-size="14.00">Unobserved</text>
</g>
</g>
</svg>