<?xml version="1.0" encoding="UTF-8" standalone="no"?>
<!DOCTYPE svg PUBLIC "-//W3C//DTD SVG 1.1//EN"
 "http://www.w3.org/Graphics/SVG/1.1/DTD/svg11.dtd">
<!-- Generated by graphviz version 9.0.0 (0)
 -->
<!-- Pages: 1 -->
<svg width="587pt" height="305pt"
 viewBox="0.00 0.00 586.80 304.63" xmlns="http://www.w3.org/2000/svg" xmlns:xlink="http://www.w3.org/1999/xlink">
<g id="graph0" class="graph" transform="scale(1 1) rotate(0) translate(4 300.63)">
<polygon fill="white" stroke="none" points="-4,4 -4,-300.63 582.8,-300.63 582.8,4 -4,4"/>
<g id="clust1" class="cluster">
<title>cluster341</title>
<path fill="none" stroke="black" d="M162.45,-65.5C162.45,-65.5 264.45,-65.5 264.45,-65.5 270.45,-65.5 276.45,-71.5 276.45,-77.5 276.45,-77.5 276.45,-175.32 276.45,-175.32 276.45,-181.32 270.45,-187.32 264.45,-187.32 264.45,-187.32 162.45,-187.32 162.45,-187.32 156.45,-187.32 150.45,-181.32 150.45,-175.32 150.45,-175.32 150.45,-77.5 150.45,-77.5 150.45,-71.5 156.45,-65.5 162.45,-65.5"/>
<text text-anchor="middle" x="258.33" y="-72.7" font-family="Times,serif" font-size="14.00">341</text>
</g>
<g id="clust2" class="cluster">
<title>cluster93</title>
<path fill="none" stroke="black" d="M328.45,-65.5C328.45,-65.5 430.45,-65.5 430.45,-65.5 436.45,-65.5 442.45,-71.5 442.45,-77.5 442.45,-77.5 442.45,-175.32 442.45,-175.32 442.45,-181.32 436.45,-187.32 430.45,-187.32 430.45,-187.32 328.45,-187.32 328.45,-187.32 322.45,-187.32 316.45,-181.32 316.45,-175.32 316.45,-175.32 316.45,-77.5 316.45,-77.5 316.45,-71.5 322.45,-65.5 328.45,-65.5"/>
<text text-anchor="middle" x="427.7" y="-72.7" font-family="Times,serif" font-size="14.00">93</text>
</g>
<!-- group1_std -->
<g id="node1" class="node">
<title>group1_std</title>
<ellipse fill="none" stroke="black" cx="85.45" cy="-255.98" rx="57.45" ry="40.66"/>
<text text-anchor="middle" x="85.45" y="-267.43" font-family="Times,serif" font-size="14.00">group1_std</text>
<text text-anchor="middle" x="85.45" y="-250.93" font-family="Times,serif" font-size="14.00">~</text>
<text text-anchor="middle" x="85.45" y="-234.43" font-family="Times,serif" font-size="14.00">HalfCauchy</text>
</g>
<!-- difference of stds -->
<g id="node3" class="node">
<title>difference of stds</title>
<polygon fill="none" stroke="black" points="140.7,-167.41 30.2,-167.41 30.2,-109.91 140.7,-109.91 140.7,-167.41"/>
<text text-anchor="middle" x="85.45" y="-150.11" font-family="Times,serif" font-size="14.00">difference of stds</text>
<text text-anchor="middle" x="85.45" y="-133.61" font-family="Times,serif" font-size="14.00">~</text>
<text text-anchor="middle" x="85.45" y="-117.11" font-family="Times,serif" font-size="14.00">Deterministic</text>
</g>
<!-- group1_std&#45;&gt;difference of stds -->
<g id="edge7" class="edge">
<title>group1_std&#45;&gt;difference of stds</title>
<path fill="none" stroke="black" d="M85.45,-214.97C85.45,-203.26 85.45,-190.47 85.45,-178.82"/>
<polygon fill="black" stroke="black" points="88.95,-179.13 85.45,-169.13 81.95,-179.13 88.95,-179.13"/>
</g>
<!-- effect size -->
<g id="node4" class="node">
<title>effect size</title>
<polygon fill="none" stroke="black" points="341.58,-57.5 251.33,-57.5 251.33,0 341.58,0 341.58,-57.5"/>
<text text-anchor="middle" x="296.45" y="-40.2" font-family="Times,serif" font-size="14.00">effect size</text>
<text text-anchor="middle" x="296.45" y="-23.7" font-family="Times,serif" font-size="14.00">~</text>
<text text-anchor="middle" x="296.45" y="-7.2" font-family="Times,serif" font-size="14.00">Deterministic</text>
</g>
<!-- group1_std&#45;&gt;effect size -->
<g id="edge10" class="edge">
<title>group1_std&#45;&gt;effect size</title>
<path fill="none" stroke="black" d="M47.76,-224.95C37.2,-214.31 27.07,-201.44 21.45,-187.32 1.43,-137.01 -14.28,-106.18 21.45,-65.5 35.62,-49.37 163.51,-38.37 239.8,-33.17"/>
<polygon fill="black" stroke="black" points="239.87,-36.67 249.61,-32.52 239.4,-29.69 239.87,-36.67"/>
</g>
<!-- mom_hs_1 -->
<g id="node8" class="node">
<title>mom_hs_1</title>
<ellipse fill="lightgrey" stroke="black" cx="213.45" cy="-138.66" rx="54.8" ry="40.66"/>
<text text-anchor="middle" x="213.45" y="-150.11" font-family="Times,serif" font-size="14.00">mom_hs_1</text>
<text text-anchor="middle" x="213.45" y="-133.61" font-family="Times,serif" font-size="14.00">~</text>
<text text-anchor="middle" x="213.45" y="-117.11" font-family="Times,serif" font-size="14.00">Normal</text>
</g>
<!-- group1_std&#45;&gt;mom_hs_1 -->
<g id="edge1" class="edge">
<title>group1_std&#45;&gt;mom_hs_1</title>
<path fill="none" stroke="black" d="M120.43,-223.46C135.94,-209.5 154.33,-192.93 170.64,-178.23"/>
<polygon fill="black" stroke="black" points="172.75,-181.04 177.84,-171.75 168.07,-175.84 172.75,-181.04"/>
</g>
<!-- difference of means -->
<g id="node2" class="node">
<title>difference of means</title>
<polygon fill="none" stroke="black" points="576.83,-167.41 452.08,-167.41 452.08,-109.91 576.83,-109.91 576.83,-167.41"/>
<text text-anchor="middle" x="514.45" y="-150.11" font-family="Times,serif" font-size="14.00">difference of means</text>
<text text-anchor="middle" x="514.45" y="-133.61" font-family="Times,serif" font-size="14.00">~</text>
<text text-anchor="middle" x="514.45" y="-117.11" font-family="Times,serif" font-size="14.00">Deterministic</text>
</g>
<!-- difference of means&#45;&gt;effect size -->
<g id="edge11" class="edge">
<title>difference of means&#45;&gt;effect size</title>
<path fill="none" stroke="black" d="M494.47,-109.5C482.26,-94.29 465.38,-76.45 446.45,-65.5 418.12,-49.11 382.64,-40.22 353.29,-35.4"/>
<polygon fill="black" stroke="black" points="353.87,-31.95 343.46,-33.92 352.83,-38.87 353.87,-31.95"/>
</g>
<!-- group0_mean -->
<g id="node5" class="node">
<title>group0_mean</title>
<ellipse fill="none" stroke="black" cx="514.45" cy="-255.98" rx="64.35" ry="40.66"/>
<text text-anchor="middle" x="514.45" y="-267.43" font-family="Times,serif" font-size="14.00">group0_mean</text>
<text text-anchor="middle" x="514.45" y="-250.93" font-family="Times,serif" font-size="14.00">~</text>
<text text-anchor="middle" x="514.45" y="-234.43" font-family="Times,serif" font-size="14.00">Normal</text>
</g>
<!-- group0_mean&#45;&gt;difference of means -->
<g id="edge6" class="edge">
<title>group0_mean&#45;&gt;difference of means</title>
<path fill="none" stroke="black" d="M514.45,-214.97C514.45,-203.26 514.45,-190.47 514.45,-178.82"/>
<polygon fill="black" stroke="black" points="517.95,-179.13 514.45,-169.13 510.95,-179.13 517.95,-179.13"/>
</g>
<!-- mom_hs_0 -->
<g id="node9" class="node">
<title>mom_hs_0</title>
<ellipse fill="lightgrey" stroke="black" cx="379.45" cy="-138.66" rx="54.8" ry="40.66"/>
<text text-anchor="middle" x="379.45" y="-150.11" font-family="Times,serif" font-size="14.00">mom_hs_0</text>
<text text-anchor="middle" x="379.45" y="-133.61" font-family="Times,serif" font-size="14.00">~</text>
<text text-anchor="middle" x="379.45" y="-117.11" font-family="Times,serif" font-size="14.00">Normal</text>
</g>
<!-- group0_mean&#45;&gt;mom_hs_0 -->
<g id="edge4" class="edge">
<title>group0_mean&#45;&gt;mom_hs_0</title>
<path fill="none" stroke="black" d="M476.85,-222.85C460.37,-208.78 440.92,-192.16 423.74,-177.49"/>
<polygon fill="black" stroke="black" points="426.03,-174.84 416.15,-171.01 421.48,-180.16 426.03,-174.84"/>
</g>
<!-- group0_std -->
<g id="node6" class="node">
<title>group0_std</title>
<ellipse fill="none" stroke="black" cx="227.45" cy="-255.98" rx="57.45" ry="40.66"/>
<text text-anchor="middle" x="227.45" y="-267.43" font-family="Times,serif" font-size="14.00">group0_std</text>
<text text-anchor="middle" x="227.45" y="-250.93" font-family="Times,serif" font-size="14.00">~</text>
<text text-anchor="middle" x="227.45" y="-234.43" font-family="Times,serif" font-size="14.00">HalfCauchy</text>
</g>
<!-- group0_std&#45;&gt;difference of stds -->
<g id="edge8" class="edge">
<title>group0_std&#45;&gt;difference of stds</title>
<path fill="none" stroke="black" d="M190.14,-224.68C171.33,-209.4 148.41,-190.79 128.82,-174.88"/>
<polygon fill="black" stroke="black" points="131.22,-172.32 121.25,-168.73 126.81,-177.75 131.22,-172.32"/>
</g>
<!-- group0_std&#45;&gt;effect size -->
<g id="edge9" class="edge">
<title>group0_std&#45;&gt;effect size</title>
<path fill="none" stroke="black" d="M259.36,-221.89C267.58,-211.57 275.49,-199.64 280.45,-187.32 295.78,-149.27 298.67,-102.06 298.42,-69.28"/>
<polygon fill="black" stroke="black" points="301.93,-69.35 298.24,-59.42 294.93,-69.48 301.93,-69.35"/>
</g>
<!-- group0_std&#45;&gt;mom_hs_0 -->
<g id="edge3" class="edge">
<title>group0_std&#45;&gt;mom_hs_0</title>
<path fill="none" stroke="black" d="M266.2,-225.58C286.35,-210.29 311.15,-191.48 332.39,-175.36"/>
<polygon fill="black" stroke="black" points="334.51,-178.15 340.36,-169.32 330.28,-172.57 334.51,-178.15"/>
</g>
<!-- group1_mean -->
<g id="node7" class="node">
<title>group1_mean</title>
<ellipse fill="none" stroke="black" cx="367.45" cy="-255.98" rx="64.35" ry="40.66"/>
<text text-anchor="middle" x="367.45" y="-267.43" font-family="Times,serif" font-size="14.00">group1_mean</text>
<text text-anchor="middle" x="367.45" y="-250.93" font-family="Times,serif" font-size="14.00">~</text>
<text text-anchor="middle" x="367.45" y="-234.43" font-family="Times,serif" font-size="14.00">Normal</text>
</g>
<!-- group1_mean&#45;&gt;difference of means -->
<g id="edge5" class="edge">
<title>group1_mean&#45;&gt;difference of means</title>
<path fill="none" stroke="black" d="M407.23,-223.77C426.55,-208.61 449.84,-190.35 469.77,-174.71"/>
<polygon fill="black" stroke="black" points="471.76,-177.6 477.47,-168.67 467.44,-172.09 471.76,-177.6"/>
</g>
<!-- group1_mean&#45;&gt;mom_hs_1 -->
<g id="edge2" class="edge">
<title>group1_mean&#45;&gt;mom_hs_1</title>
<path fill="none" stroke="black" d="M326.59,-224.38C306.33,-209.21 281.75,-190.8 260.69,-175.03"/>
<polygon fill="black" stroke="black" points="262.91,-172.32 252.81,-169.13 258.71,-177.92 262.91,-172.32"/>
</g>
</g>
</svg>