<?xml version="1.0" encoding="UTF-8" standalone="no"?>
<!DOCTYPE svg PUBLIC "-//W3C//DTD SVG 1.1//EN"
 "http://www.w3.org/Graphics/SVG/1.1/DTD/svg11.dtd">
<!-- Generated by graphviz version 9.0.0 (0)
 -->
<!-- Pages: 1 -->
<svg width="684pt" height="591pt"
 viewBox="0.00 0.00 683.99 591.27" xmlns="http://www.w3.org/2000/svg" xmlns:xlink="http://www.w3.org/1999/xlink">
<g id="graph0" class="graph" transform="scale(1 1) rotate(0) translate(4 587.27)">
<polygon fill="white" stroke="none" points="-4,4 -4,-587.27 679.99,-587.27 679.99,4 -4,4"/>
<g id="clust1" class="cluster">
<title>cluster5000</title>
<path fill="none" stroke="black" d="M137.98,-8C137.98,-8 337.98,-8 337.98,-8 343.98,-8 349.98,-14 349.98,-20 349.98,-20 349.98,-563.27 349.98,-563.27 349.98,-569.27 343.98,-575.27 337.98,-575.27 337.98,-575.27 137.98,-575.27 137.98,-575.27 131.98,-575.27 125.98,-569.27 125.98,-563.27 125.98,-563.27 125.98,-20 125.98,-20 125.98,-14 131.98,-8 137.98,-8"/>
<text text-anchor="middle" x="328.48" y="-15.2" font-family="Times,serif" font-size="14.00">5000</text>
</g>
<!-- Y -->
<g id="node1" class="node">
<title>Y</title>
<ellipse fill="lightgrey" stroke="black" cx="300.98" cy="-291.98" rx="41.01" ry="40.66"/>
<text text-anchor="middle" x="300.98" y="-303.43" font-family="Times,serif" font-size="14.00">Y</text>
<text text-anchor="middle" x="300.98" y="-286.93" font-family="Times,serif" font-size="14.00">~</text>
<text text-anchor="middle" x="300.98" y="-270.43" font-family="Times,serif" font-size="14.00">Normal</text>
</g>
<!-- _Y -->
<g id="node2" class="node">
<title>_Y</title>
<path fill="lightgrey" stroke="black" d="M229.61,-203.41C229.61,-203.41 166.36,-203.41 166.36,-203.41 160.36,-203.41 154.36,-197.41 154.36,-191.41 154.36,-191.41 154.36,-157.91 154.36,-157.91 154.36,-151.91 160.36,-145.91 166.36,-145.91 166.36,-145.91 229.61,-145.91 229.61,-145.91 235.61,-145.91 241.61,-151.91 241.61,-157.91 241.61,-157.91 241.61,-191.41 241.61,-191.41 241.61,-197.41 235.61,-203.41 229.61,-203.41"/>
<text text-anchor="middle" x="197.98" y="-186.11" font-family="Times,serif" font-size="14.00">_Y</text>
<text text-anchor="middle" x="197.98" y="-169.61" font-family="Times,serif" font-size="14.00">~</text>
<text text-anchor="middle" x="197.98" y="-153.11" font-family="Times,serif" font-size="14.00">MutableData</text>
</g>
<!-- Y&#45;&gt;_Y -->
<g id="edge3" class="edge">
<title>Y&#45;&gt;_Y</title>
<path fill="none" stroke="black" d="M274.19,-260.98C260.81,-246 244.52,-227.76 230.44,-211.99"/>
<polygon fill="black" stroke="black" points="233.15,-209.78 223.88,-204.66 227.93,-214.45 233.15,-209.78"/>
</g>
<!-- P -->
<g id="node4" class="node">
<title>P</title>
<ellipse fill="lightgrey" stroke="black" cx="300.98" cy="-174.66" rx="41.01" ry="40.66"/>
<text text-anchor="middle" x="300.98" y="-186.11" font-family="Times,serif" font-size="14.00">P</text>
<text text-anchor="middle" x="300.98" y="-169.61" font-family="Times,serif" font-size="14.00">~</text>
<text text-anchor="middle" x="300.98" y="-153.11" font-family="Times,serif" font-size="14.00">Normal</text>
</g>
<!-- Y&#45;&gt;P -->
<g id="edge16" class="edge">
<title>Y&#45;&gt;P</title>
<path fill="none" stroke="black" d="M300.98,-250.97C300.98,-243.19 300.98,-234.93 300.98,-226.84"/>
<polygon fill="black" stroke="black" points="304.48,-227.11 300.98,-217.11 297.48,-227.11 304.48,-227.11"/>
</g>
<!-- X -->
<g id="node3" class="node">
<title>X</title>
<ellipse fill="lightgrey" stroke="black" cx="300.98" cy="-409.29" rx="41.01" ry="40.66"/>
<text text-anchor="middle" x="300.98" y="-420.74" font-family="Times,serif" font-size="14.00">X</text>
<text text-anchor="middle" x="300.98" y="-404.24" font-family="Times,serif" font-size="14.00">~</text>
<text text-anchor="middle" x="300.98" y="-387.74" font-family="Times,serif" font-size="14.00">Normal</text>
</g>
<!-- X&#45;&gt;Y -->
<g id="edge10" class="edge">
<title>X&#45;&gt;Y</title>
<path fill="none" stroke="black" d="M300.98,-368.28C300.98,-360.5 300.98,-352.25 300.98,-344.16"/>
<polygon fill="black" stroke="black" points="304.48,-344.43 300.98,-334.43 297.48,-344.43 304.48,-344.43"/>
</g>
<!-- X&#45;&gt;P -->
<g id="edge17" class="edge">
<title>X&#45;&gt;P</title>
<path fill="none" stroke="black" d="M266.17,-387.49C255.07,-381.15 242.65,-374.35 230.98,-368.63 193.78,-350.39 167.94,-367.13 144.98,-332.63 124.96,-302.55 123.93,-280.7 144.98,-251.32 173.96,-210.87 207.3,-239.13 250.98,-215.32 254.44,-213.43 257.91,-211.3 261.31,-209.04"/>
<polygon fill="black" stroke="black" points="263.32,-211.9 269.43,-203.25 259.26,-206.2 263.32,-211.9"/>
</g>
<!-- _X -->
<g id="node8" class="node">
<title>_X</title>
<path fill="lightgrey" stroke="black" d="M229.61,-320.73C229.61,-320.73 166.36,-320.73 166.36,-320.73 160.36,-320.73 154.36,-314.73 154.36,-308.73 154.36,-308.73 154.36,-275.23 154.36,-275.23 154.36,-269.23 160.36,-263.23 166.36,-263.23 166.36,-263.23 229.61,-263.23 229.61,-263.23 235.61,-263.23 241.61,-269.23 241.61,-275.23 241.61,-275.23 241.61,-308.73 241.61,-308.73 241.61,-314.73 235.61,-320.73 229.61,-320.73"/>
<text text-anchor="middle" x="197.98" y="-303.43" font-family="Times,serif" font-size="14.00">_X</text>
<text text-anchor="middle" x="197.98" y="-286.93" font-family="Times,serif" font-size="14.00">~</text>
<text text-anchor="middle" x="197.98" y="-270.43" font-family="Times,serif" font-size="14.00">MutableData</text>
</g>
<!-- X&#45;&gt;_X -->
<g id="edge2" class="edge">
<title>X&#45;&gt;_X</title>
<path fill="none" stroke="black" d="M274.19,-378.3C260.81,-363.32 244.52,-345.08 230.44,-329.31"/>
<polygon fill="black" stroke="black" points="233.15,-327.1 223.88,-321.97 227.93,-331.76 233.15,-327.1"/>
</g>
<!-- _P -->
<g id="node5" class="node">
<title>_P</title>
<path fill="lightgrey" stroke="black" d="M329.61,-98C329.61,-98 266.36,-98 266.36,-98 260.36,-98 254.36,-92 254.36,-86 254.36,-86 254.36,-52.5 254.36,-52.5 254.36,-46.5 260.36,-40.5 266.36,-40.5 266.36,-40.5 329.61,-40.5 329.61,-40.5 335.61,-40.5 341.61,-46.5 341.61,-52.5 341.61,-52.5 341.61,-86 341.61,-86 341.61,-92 335.61,-98 329.61,-98"/>
<text text-anchor="middle" x="297.98" y="-80.7" font-family="Times,serif" font-size="14.00">_P</text>
<text text-anchor="middle" x="297.98" y="-64.2" font-family="Times,serif" font-size="14.00">~</text>
<text text-anchor="middle" x="297.98" y="-47.7" font-family="Times,serif" font-size="14.00">MutableData</text>
</g>
<!-- P&#45;&gt;_P -->
<g id="edge4" class="edge">
<title>P&#45;&gt;_P</title>
<path fill="none" stroke="black" d="M299.82,-133.68C299.6,-125.83 299.36,-117.6 299.13,-109.76"/>
<polygon fill="black" stroke="black" points="302.63,-109.68 298.84,-99.79 295.63,-109.89 302.63,-109.68"/>
</g>
<!-- Q -->
<g id="node6" class="node">
<title>Q</title>
<ellipse fill="lightgrey" stroke="black" cx="240.98" cy="-526.61" rx="41.01" ry="40.66"/>
<text text-anchor="middle" x="240.98" y="-538.06" font-family="Times,serif" font-size="14.00">Q</text>
<text text-anchor="middle" x="240.98" y="-521.56" font-family="Times,serif" font-size="14.00">~</text>
<text text-anchor="middle" x="240.98" y="-505.06" font-family="Times,serif" font-size="14.00">Normal</text>
</g>
<!-- Q&#45;&gt;Y -->
<g id="edge12" class="edge">
<title>Q&#45;&gt;Y</title>
<path fill="none" stroke="black" d="M237.95,-485.83C236.79,-453.43 238.12,-406.95 250.98,-368.63 255.13,-356.28 261.82,-344.01 268.98,-333.06"/>
<polygon fill="black" stroke="black" points="271.7,-335.27 274.48,-325.05 265.93,-331.31 271.7,-335.27"/>
</g>
<!-- Q&#45;&gt;X -->
<g id="edge5" class="edge">
<title>Q&#45;&gt;X</title>
<path fill="none" stroke="black" d="M259.47,-490.07C265.06,-479.33 271.28,-467.38 277.17,-456.07"/>
<polygon fill="black" stroke="black" points="280.24,-457.74 281.75,-447.26 274.03,-454.51 280.24,-457.74"/>
</g>
<!-- _Q -->
<g id="node7" class="node">
<title>_Q</title>
<path fill="lightgrey" stroke="black" d="M209.61,-438.04C209.61,-438.04 146.36,-438.04 146.36,-438.04 140.36,-438.04 134.36,-432.04 134.36,-426.04 134.36,-426.04 134.36,-392.54 134.36,-392.54 134.36,-386.54 140.36,-380.54 146.36,-380.54 146.36,-380.54 209.61,-380.54 209.61,-380.54 215.61,-380.54 221.61,-386.54 221.61,-392.54 221.61,-392.54 221.61,-426.04 221.61,-426.04 221.61,-432.04 215.61,-438.04 209.61,-438.04"/>
<text text-anchor="middle" x="177.98" y="-420.74" font-family="Times,serif" font-size="14.00">_Q</text>
<text text-anchor="middle" x="177.98" y="-404.24" font-family="Times,serif" font-size="14.00">~</text>
<text text-anchor="middle" x="177.98" y="-387.74" font-family="Times,serif" font-size="14.00">MutableData</text>
</g>
<!-- Q&#45;&gt;_Q -->
<g id="edge1" class="edge">
<title>Q&#45;&gt;_Q</title>
<path fill="none" stroke="black" d="M221.74,-490.38C214.47,-477.08 206.17,-461.9 198.77,-448.35"/>
<polygon fill="black" stroke="black" points="201.91,-446.79 194.04,-439.69 195.77,-450.15 201.91,-446.79"/>
</g>
<!-- sigma_y -->
<g id="node9" class="node">
<title>sigma_y</title>
<ellipse fill="none" stroke="black" cx="417.98" cy="-409.29" rx="57.98" ry="40.66"/>
<text text-anchor="middle" x="417.98" y="-420.74" font-family="Times,serif" font-size="14.00">sigma_y</text>
<text text-anchor="middle" x="417.98" y="-404.24" font-family="Times,serif" font-size="14.00">~</text>
<text text-anchor="middle" x="417.98" y="-387.74" font-family="Times,serif" font-size="14.00">HalfNormal</text>
</g>
<!-- sigma_y&#45;&gt;Y -->
<g id="edge8" class="edge">
<title>sigma_y&#45;&gt;Y</title>
<path fill="none" stroke="black" d="M384.77,-375.56C370.18,-361.17 352.98,-344.23 337.98,-329.44"/>
<polygon fill="black" stroke="black" points="340.56,-327.07 330.98,-322.54 335.65,-332.06 340.56,-327.07"/>
</g>
<!-- sigma_p -->
<g id="node10" class="node">
<title>sigma_p</title>
<ellipse fill="none" stroke="black" cx="57.98" cy="-291.98" rx="57.98" ry="40.66"/>
<text text-anchor="middle" x="57.98" y="-303.43" font-family="Times,serif" font-size="14.00">sigma_p</text>
<text text-anchor="middle" x="57.98" y="-286.93" font-family="Times,serif" font-size="14.00">~</text>
<text text-anchor="middle" x="57.98" y="-270.43" font-family="Times,serif" font-size="14.00">HalfNormal</text>
</g>
<!-- sigma_p&#45;&gt;P -->
<g id="edge13" class="edge">
<title>sigma_p&#45;&gt;P</title>
<path fill="none" stroke="black" d="M99.4,-262.98C106.74,-258.71 114.44,-254.63 121.98,-251.32 176.49,-227.4 197.95,-242.35 250.98,-215.32 254.49,-213.53 258,-211.47 261.42,-209.25"/>
<polygon fill="black" stroke="black" points="263.4,-212.14 269.58,-203.54 259.39,-206.4 263.4,-212.14"/>
</g>
<!-- xp -->
<g id="node11" class="node">
<title>xp</title>
<ellipse fill="none" stroke="black" cx="400.98" cy="-291.98" rx="41.01" ry="40.66"/>
<text text-anchor="middle" x="400.98" y="-303.43" font-family="Times,serif" font-size="14.00">xp</text>
<text text-anchor="middle" x="400.98" y="-286.93" font-family="Times,serif" font-size="14.00">~</text>
<text text-anchor="middle" x="400.98" y="-270.43" font-family="Times,serif" font-size="14.00">Normal</text>
</g>
<!-- xp&#45;&gt;P -->
<g id="edge14" class="edge">
<title>xp&#45;&gt;P</title>
<path fill="none" stroke="black" d="M374.45,-260.38C362.26,-246.32 347.66,-229.49 334.71,-214.55"/>
<polygon fill="black" stroke="black" points="337.48,-212.41 328.29,-207.15 332.19,-216.99 337.48,-212.41"/>
</g>
<!-- yp -->
<g id="node12" class="node">
<title>yp</title>
<ellipse fill="none" stroke="black" cx="500.98" cy="-291.98" rx="41.01" ry="40.66"/>
<text text-anchor="middle" x="500.98" y="-303.43" font-family="Times,serif" font-size="14.00">yp</text>
<text text-anchor="middle" x="500.98" y="-286.93" font-family="Times,serif" font-size="14.00">~</text>
<text text-anchor="middle" x="500.98" y="-270.43" font-family="Times,serif" font-size="14.00">Normal</text>
</g>
<!-- yp&#45;&gt;P -->
<g id="edge15" class="edge">
<title>yp&#45;&gt;P</title>
<path fill="none" stroke="black" d="M469.96,-264.79C463.83,-260.08 457.33,-255.38 450.98,-251.32 418.23,-230.38 378.92,-210.73 348.76,-196.71"/>
<polygon fill="black" stroke="black" points="350.42,-193.62 339.88,-192.63 347.5,-199.98 350.42,-193.62"/>
</g>
<!-- qx -->
<g id="node13" class="node">
<title>qx</title>
<ellipse fill="none" stroke="black" cx="398.98" cy="-526.61" rx="41.01" ry="40.66"/>
<text text-anchor="middle" x="398.98" y="-538.06" font-family="Times,serif" font-size="14.00">qx</text>
<text text-anchor="middle" x="398.98" y="-521.56" font-family="Times,serif" font-size="14.00">~</text>
<text text-anchor="middle" x="398.98" y="-505.06" font-family="Times,serif" font-size="14.00">Normal</text>
</g>
<!-- qx&#45;&gt;X -->
<g id="edge6" class="edge">
<title>qx&#45;&gt;X</title>
<path fill="none" stroke="black" d="M372.98,-495.01C361.13,-481.07 346.96,-464.39 334.33,-449.54"/>
<polygon fill="black" stroke="black" points="337.23,-447.54 328.09,-442.19 331.9,-452.08 337.23,-447.54"/>
</g>
<!-- xy -->
<g id="node14" class="node">
<title>xy</title>
<ellipse fill="none" stroke="black" cx="534.98" cy="-409.29" rx="41.01" ry="40.66"/>
<text text-anchor="middle" x="534.98" y="-420.74" font-family="Times,serif" font-size="14.00">xy</text>
<text text-anchor="middle" x="534.98" y="-404.24" font-family="Times,serif" font-size="14.00">~</text>
<text text-anchor="middle" x="534.98" y="-387.74" font-family="Times,serif" font-size="14.00">Normal</text>
</g>
<!-- xy&#45;&gt;Y -->
<g id="edge9" class="edge">
<title>xy&#45;&gt;Y</title>
<path fill="none" stroke="black" d="M504.85,-381.23C498.59,-376.54 491.81,-372.07 484.98,-368.63 429.91,-340.9 406.06,-360.37 350.98,-332.63 347.46,-330.86 343.95,-328.82 340.52,-326.61"/>
<polygon fill="black" stroke="black" points="342.56,-323.76 332.36,-320.91 338.55,-329.5 342.56,-323.76"/>
</g>
<!-- qy -->
<g id="node15" class="node">
<title>qy</title>
<ellipse fill="none" stroke="black" cx="634.98" cy="-409.29" rx="41.01" ry="40.66"/>
<text text-anchor="middle" x="634.98" y="-420.74" font-family="Times,serif" font-size="14.00">qy</text>
<text text-anchor="middle" x="634.98" y="-404.24" font-family="Times,serif" font-size="14.00">~</text>
<text text-anchor="middle" x="634.98" y="-387.74" font-family="Times,serif" font-size="14.00">Normal</text>
</g>
<!-- qy&#45;&gt;Y -->
<g id="edge11" class="edge">
<title>qy&#45;&gt;Y</title>
<path fill="none" stroke="black" d="M605.41,-380.82C599.05,-376.11 592.09,-371.74 584.98,-368.63 488.55,-326.54 447.42,-374.73 350.98,-332.63 347.21,-330.99 343.47,-328.98 339.85,-326.75"/>
<polygon fill="black" stroke="black" points="342.05,-324.02 331.81,-321.3 338.12,-329.81 342.05,-324.02"/>
</g>
<!-- sigma_x -->
<g id="node16" class="node">
<title>sigma_x</title>
<ellipse fill="none" stroke="black" cx="515.98" cy="-526.61" rx="57.98" ry="40.66"/>
<text text-anchor="middle" x="515.98" y="-538.06" font-family="Times,serif" font-size="14.00">sigma_x</text>
<text text-anchor="middle" x="515.98" y="-521.56" font-family="Times,serif" font-size="14.00">~</text>
<text text-anchor="middle" x="515.98" y="-505.06" font-family="Times,serif" font-size="14.00">HalfNormal</text>
</g>
<!-- sigma_x&#45;&gt;X -->
<g id="edge7" class="edge">
<title>sigma_x&#45;&gt;X</title>
<path fill="none" stroke="black" d="M473.36,-498.82C465.4,-494.27 457.04,-489.78 448.98,-485.95 407.07,-466.05 391.45,-472.66 350.98,-449.95 347.54,-448.02 344.1,-445.86 340.71,-443.58"/>
<polygon fill="black" stroke="black" points="342.77,-440.75 332.6,-437.76 338.68,-446.43 342.77,-440.75"/>
</g>
</g>
</svg>