<?xml version="1.0" encoding="UTF-8" standalone="no"?>
<!DOCTYPE svg PUBLIC "-//W3C//DTD SVG 1.1//EN"
 "http://www.w3.org/Graphics/SVG/1.1/DTD/svg11.dtd">
<!-- Generated by graphviz version 9.0.0 (0)
 -->
<!-- Pages: 1 -->
<svg width="138pt" height="188pt"
 viewBox="0.00 0.00 138.34 188.00" xmlns="http://www.w3.org/2000/svg" xmlns:xlink="http://www.w3.org/1999/xlink">
<g id="graph0" class="graph" transform="scale(1 1) rotate(0) translate(4 184)">
<polygon fill="white" stroke="none" points="-4,4 -4,-184 134.34,-184 134.34,4 -4,4"/>
<!-- Learning -->
<g id="node1" class="node">
<title>Learning</title>
<ellipse fill="none" stroke="black" cx="65.17" cy="-162" rx="44.19" ry="18"/>
<text text-anchor="middle" x="65.17" y="-156.95" font-family="Times,serif" font-size="14.00">Learning</text>
</g>
<!-- Knowing -->
<g id="node2" class="node">
<title>Knowing</title>
<ellipse fill="none" stroke="black" cx="65.17" cy="-90" rx="45.21" ry="18"/>
<text text-anchor="middle" x="65.17" y="-84.95" font-family="Times,serif" font-size="14.00">Knowing</text>
</g>
<!-- Learning&#45;&gt;Knowing -->
<g id="edge1" class="edge">
<title>Learning&#45;&gt;Knowing</title>
<path fill="none" stroke="black" d="M65.17,-143.7C65.17,-136.41 65.17,-127.73 65.17,-119.54"/>
<polygon fill="black" stroke="black" points="68.67,-119.62 65.17,-109.62 61.67,-119.62 68.67,-119.62"/>
</g>
<!-- Understanding -->
<g id="node3" class="node">
<title>Understanding</title>
<ellipse fill="none" stroke="black" cx="65.17" cy="-18" rx="65.17" ry="18"/>
<text text-anchor="middle" x="65.17" y="-12.95" font-family="Times,serif" font-size="14.00">Understanding</text>
</g>
<!-- Knowing&#45;&gt;Understanding -->
<g id="edge2" class="edge">
<title>Knowing&#45;&gt;Understanding</title>
<path fill="none" stroke="black" d="M65.17,-71.7C65.17,-64.41 65.17,-55.73 65.17,-47.54"/>
<polygon fill="black" stroke="black" points="68.67,-47.62 65.17,-37.62 61.67,-47.62 68.67,-47.62"/>
</g>
</g>
</svg>