<?xml version="1.0" encoding="UTF-8" standalone="no"?>
<!DOCTYPE svg PUBLIC "-//W3C//DTD SVG 1.1//EN"
 "http://www.w3.org/Graphics/SVG/1.1/DTD/svg11.dtd">
<!-- Generated by graphviz version 8.1.0 (0)
 -->
<!-- Pages: 1 -->
<svg width="588pt" height="305pt"
 viewBox="0.00 0.00 588.01 304.63" xmlns="http://www.w3.org/2000/svg" xmlns:xlink="http://www.w3.org/1999/xlink">
<g id="graph0" class="graph" transform="scale(1 1) rotate(0) translate(4 300.63)">
<polygon fill="white" stroke="none" points="-4,4 -4,-300.63 584.01,-300.63 584.01,4 -4,4"/>
<g id="clust1" class="cluster">
<title>cluster341</title>
<path fill="none" stroke="black" d="M280.38,-65.5C280.38,-65.5 382.38,-65.5 382.38,-65.5 388.38,-65.5 394.38,-71.5 394.38,-77.5 394.38,-77.5 394.38,-175.32 394.38,-175.32 394.38,-181.32 388.38,-187.32 382.38,-187.32 382.38,-187.32 280.38,-187.32 280.38,-187.32 274.38,-187.32 268.38,-181.32 268.38,-175.32 268.38,-175.32 268.38,-77.5 268.38,-77.5 268.38,-71.5 274.38,-65.5 280.38,-65.5"/>
<text text-anchor="middle" x="376.25" y="-72.7" font-family="Times,serif" font-size="14.00">341</text>
</g>
<g id="clust2" class="cluster">
<title>cluster93</title>
<path fill="none" stroke="black" d="M146.38,-65.5C146.38,-65.5 248.38,-65.5 248.38,-65.5 254.38,-65.5 260.38,-71.5 260.38,-77.5 260.38,-77.5 260.38,-175.32 260.38,-175.32 260.38,-181.32 254.38,-187.32 248.38,-187.32 248.38,-187.32 146.38,-187.32 146.38,-187.32 140.38,-187.32 134.38,-181.32 134.38,-175.32 134.38,-175.32 134.38,-77.5 134.38,-77.5 134.38,-71.5 140.38,-65.5 146.38,-65.5"/>
<text text-anchor="middle" x="245.62" y="-72.7" font-family="Times,serif" font-size="14.00">93</text>
</g>
<!-- difference of means -->
<g id="node1" class="node">
<title>difference of means</title>
<polygon fill="none" stroke="black" points="124.75,-167.41 0,-167.41 0,-109.91 124.75,-109.91 124.75,-167.41"/>
<text text-anchor="middle" x="62.38" y="-150.11" font-family="Times,serif" font-size="14.00">difference of means</text>
<text text-anchor="middle" x="62.38" y="-133.61" font-family="Times,serif" font-size="14.00">~</text>
<text text-anchor="middle" x="62.38" y="-117.11" font-family="Times,serif" font-size="14.00">Deterministic</text>
</g>
<!-- effect size -->
<g id="node2" class="node">
<title>effect size</title>
<polygon fill="none" stroke="black" points="459.5,-57.5 369.25,-57.5 369.25,0 459.5,0 459.5,-57.5"/>
<text text-anchor="middle" x="414.38" y="-40.2" font-family="Times,serif" font-size="14.00">effect size</text>
<text text-anchor="middle" x="414.38" y="-23.7" font-family="Times,serif" font-size="14.00">~</text>
<text text-anchor="middle" x="414.38" y="-7.2" font-family="Times,serif" font-size="14.00">Deterministic</text>
</g>
<!-- difference of means&#45;&gt;effect size -->
<g id="edge10" class="edge">
<title>difference of means&#45;&gt;effect size</title>
<path fill="none" stroke="black" d="M81.36,-109.43C93.47,-93.8 110.58,-75.56 130.38,-65.5 169.09,-45.83 287.32,-36.35 358.44,-32.32"/>
<polygon fill="black" stroke="black" points="358.21,-35.78 368.01,-31.74 357.83,-28.8 358.21,-35.78"/>
</g>
<!-- group0_std -->
<g id="node3" class="node">
<title>group0_std</title>
<ellipse fill="none" stroke="black" cx="389.38" cy="-255.98" rx="57.45" ry="40.66"/>
<text text-anchor="middle" x="389.38" y="-267.43" font-family="Times,serif" font-size="14.00">group0_std</text>
<text text-anchor="middle" x="389.38" y="-250.93" font-family="Times,serif" font-size="14.00">~</text>
<text text-anchor="middle" x="389.38" y="-234.43" font-family="Times,serif" font-size="14.00">HalfCauchy</text>
</g>
<!-- group0_std&#45;&gt;effect size -->
<g id="edge11" class="edge">
<title>group0_std&#45;&gt;effect size</title>
<path fill="none" stroke="black" d="M394.86,-215.29C396.07,-206.11 397.31,-196.38 398.38,-187.32 403.12,-146.89 407.72,-100.52 410.77,-68.61"/>
<polygon fill="black" stroke="black" points="414.32,-69.24 411.78,-58.96 407.35,-68.58 414.32,-69.24"/>
</g>
<!-- difference of stds -->
<g id="node5" class="node">
<title>difference of stds</title>
<polygon fill="none" stroke="black" points="552.62,-167.41 442.12,-167.41 442.12,-109.91 552.62,-109.91 552.62,-167.41"/>
<text text-anchor="middle" x="497.38" y="-150.11" font-family="Times,serif" font-size="14.00">difference of stds</text>
<text text-anchor="middle" x="497.38" y="-133.61" font-family="Times,serif" font-size="14.00">~</text>
<text text-anchor="middle" x="497.38" y="-117.11" font-family="Times,serif" font-size="14.00">Deterministic</text>
</g>
<!-- group0_std&#45;&gt;difference of stds -->
<g id="edge8" class="edge">
<title>group0_std&#45;&gt;difference of stds</title>
<path fill="none" stroke="black" d="M420.61,-221.62C434.07,-207.25 449.83,-190.42 463.56,-175.76"/>
<polygon fill="black" stroke="black" points="465.67,-178.56 469.96,-168.87 460.56,-173.77 465.67,-178.56"/>
</g>
<!-- mom_hs_0 -->
<g id="node9" class="node">
<title>mom_hs_0</title>
<ellipse fill="lightgrey" stroke="black" cx="197.38" cy="-138.66" rx="54.8" ry="40.66"/>
<text text-anchor="middle" x="197.38" y="-150.11" font-family="Times,serif" font-size="14.00">mom_hs_0</text>
<text text-anchor="middle" x="197.38" y="-133.61" font-family="Times,serif" font-size="14.00">~</text>
<text text-anchor="middle" x="197.38" y="-117.11" font-family="Times,serif" font-size="14.00">Normal</text>
</g>
<!-- group0_std&#45;&gt;mom_hs_0 -->
<g id="edge3" class="edge">
<title>group0_std&#45;&gt;mom_hs_0</title>
<path fill="none" stroke="black" d="M344.8,-229.8C336.06,-224.95 326.95,-219.94 318.38,-215.32 294.57,-202.5 287.45,-201.41 264.38,-187.32 257.76,-183.28 250.93,-178.8 244.29,-174.27"/>
<polygon fill="black" stroke="black" points="246.58,-170.9 236.37,-168.07 242.59,-176.65 246.58,-170.9"/>
</g>
<!-- group0_mean -->
<g id="node4" class="node">
<title>group0_mean</title>
<ellipse fill="none" stroke="black" cx="91.38" cy="-255.98" rx="64.35" ry="40.66"/>
<text text-anchor="middle" x="91.38" y="-267.43" font-family="Times,serif" font-size="14.00">group0_mean</text>
<text text-anchor="middle" x="91.38" y="-250.93" font-family="Times,serif" font-size="14.00">~</text>
<text text-anchor="middle" x="91.38" y="-234.43" font-family="Times,serif" font-size="14.00">Normal</text>
</g>
<!-- group0_mean&#45;&gt;difference of means -->
<g id="edge6" class="edge">
<title>group0_mean&#45;&gt;difference of means</title>
<path fill="none" stroke="black" d="M81.48,-215.61C78.44,-203.52 75.09,-190.24 72.07,-178.2"/>
<polygon fill="black" stroke="black" points="75.23,-177.42 69.4,-168.57 68.44,-179.13 75.23,-177.42"/>
</g>
<!-- group0_mean&#45;&gt;mom_hs_0 -->
<g id="edge4" class="edge">
<title>group0_mean&#45;&gt;mom_hs_0</title>
<path fill="none" stroke="black" d="M123.18,-220.38C134.69,-207.85 147.8,-193.59 159.77,-180.57"/>
<polygon fill="black" stroke="black" points="161.86,-183.38 166.05,-173.65 156.7,-178.64 161.86,-183.38"/>
</g>
<!-- group1_mean -->
<g id="node6" class="node">
<title>group1_mean</title>
<ellipse fill="none" stroke="black" cx="245.38" cy="-255.98" rx="64.35" ry="40.66"/>
<text text-anchor="middle" x="245.38" y="-267.43" font-family="Times,serif" font-size="14.00">group1_mean</text>
<text text-anchor="middle" x="245.38" y="-250.93" font-family="Times,serif" font-size="14.00">~</text>
<text text-anchor="middle" x="245.38" y="-234.43" font-family="Times,serif" font-size="14.00">Normal</text>
</g>
<!-- group1_mean&#45;&gt;difference of means -->
<g id="edge5" class="edge">
<title>group1_mean&#45;&gt;difference of means</title>
<path fill="none" stroke="black" d="M197.86,-228.16C176.93,-216.06 152.2,-201.35 130.38,-187.32 123.79,-183.08 116.94,-178.5 110.23,-173.91"/>
<polygon fill="black" stroke="black" points="112.42,-170.48 102.21,-167.67 108.44,-176.23 112.42,-170.48"/>
</g>
<!-- mom_hs_1 -->
<g id="node8" class="node">
<title>mom_hs_1</title>
<ellipse fill="lightgrey" stroke="black" cx="331.38" cy="-138.66" rx="54.8" ry="40.66"/>
<text text-anchor="middle" x="331.38" y="-150.11" font-family="Times,serif" font-size="14.00">mom_hs_1</text>
<text text-anchor="middle" x="331.38" y="-133.61" font-family="Times,serif" font-size="14.00">~</text>
<text text-anchor="middle" x="331.38" y="-117.11" font-family="Times,serif" font-size="14.00">Normal</text>
</g>
<!-- group1_mean&#45;&gt;mom_hs_1 -->
<g id="edge1" class="edge">
<title>group1_mean&#45;&gt;mom_hs_1</title>
<path fill="none" stroke="black" d="M272.35,-218.81C280.75,-207.54 290.1,-195 298.84,-183.28"/>
<polygon fill="black" stroke="black" points="302.21,-185.63 305.38,-175.52 296.59,-181.44 302.21,-185.63"/>
</g>
<!-- group1_std -->
<g id="node7" class="node">
<title>group1_std</title>
<ellipse fill="none" stroke="black" cx="522.38" cy="-255.98" rx="57.45" ry="40.66"/>
<text text-anchor="middle" x="522.38" y="-267.43" font-family="Times,serif" font-size="14.00">group1_std</text>
<text text-anchor="middle" x="522.38" y="-250.93" font-family="Times,serif" font-size="14.00">~</text>
<text text-anchor="middle" x="522.38" y="-234.43" font-family="Times,serif" font-size="14.00">HalfCauchy</text>
</g>
<!-- group1_std&#45;&gt;effect size -->
<g id="edge9" class="edge">
<title>group1_std&#45;&gt;effect size</title>
<path fill="none" stroke="black" d="M547.55,-219.29C553.22,-209.39 558.43,-198.32 561.38,-187.32 575.37,-135.02 594.83,-108.07 561.38,-65.5 550,-51.03 507.01,-41.69 470.44,-36.2"/>
<polygon fill="black" stroke="black" points="471.23,-32.63 460.84,-34.68 470.24,-39.56 471.23,-32.63"/>
</g>
<!-- group1_std&#45;&gt;difference of stds -->
<g id="edge7" class="edge">
<title>group1_std&#45;&gt;difference of stds</title>
<path fill="none" stroke="black" d="M513.77,-215.29C511.18,-203.32 508.33,-190.2 505.75,-178.3"/>
<polygon fill="black" stroke="black" points="509.01,-177.81 503.47,-168.78 502.17,-179.29 509.01,-177.81"/>
</g>
<!-- group1_std&#45;&gt;mom_hs_1 -->
<g id="edge2" class="edge">
<title>group1_std&#45;&gt;mom_hs_1</title>
<path fill="none" stroke="black" d="M479.03,-228.81C450.41,-211.52 412.76,-188.8 382.64,-170.61"/>
<polygon fill="black" stroke="black" points="384.93,-167.3 374.56,-165.13 381.31,-173.29 384.93,-167.3"/>
</g>
</g>
</svg>