<?xml version="1.0" encoding="UTF-8" standalone="no"?>
<!DOCTYPE svg PUBLIC "-//W3C//DTD SVG 1.1//EN"
 "http://www.w3.org/Graphics/SVG/1.1/DTD/svg11.dtd">
<!-- Generated by graphviz version 9.0.0 (0)
 -->
<!-- Pages: 1 -->
<svg width="650pt" height="591pt"
 viewBox="0.00 0.00 650.02 591.27" xmlns="http://www.w3.org/2000/svg" xmlns:xlink="http://www.w3.org/1999/xlink">
<g id="graph0" class="graph" transform="scale(1 1) rotate(0) translate(4 587.27)">
<polygon fill="white" stroke="none" points="-4,4 -4,-587.27 646.02,-587.27 646.02,4 -4,4"/>
<g id="clust1" class="cluster">
<title>cluster5000</title>
<path fill="none" stroke="black" d="M104.01,-8C104.01,-8 304.01,-8 304.01,-8 310.01,-8 316.01,-14 316.01,-20 316.01,-20 316.01,-563.27 316.01,-563.27 316.01,-569.27 310.01,-575.27 304.01,-575.27 304.01,-575.27 104.01,-575.27 104.01,-575.27 98.01,-575.27 92.01,-569.27 92.01,-563.27 92.01,-563.27 92.01,-20 92.01,-20 92.01,-14 98.01,-8 104.01,-8"/>
<text text-anchor="middle" x="294.51" y="-15.2" font-family="Times,serif" font-size="14.00">5000</text>
</g>
<!-- _X -->
<g id="node1" class="node">
<title>_X</title>
<path fill="lightgrey" stroke="black" d="M195.64,-320.73C195.64,-320.73 132.39,-320.73 132.39,-320.73 126.39,-320.73 120.39,-314.73 120.39,-308.73 120.39,-308.73 120.39,-275.23 120.39,-275.23 120.39,-269.23 126.39,-263.23 132.39,-263.23 132.39,-263.23 195.64,-263.23 195.64,-263.23 201.64,-263.23 207.64,-269.23 207.64,-275.23 207.64,-275.23 207.64,-308.73 207.64,-308.73 207.64,-314.73 201.64,-320.73 195.64,-320.73"/>
<text text-anchor="middle" x="164.01" y="-303.43" font-family="Times,serif" font-size="14.00">_X</text>
<text text-anchor="middle" x="164.01" y="-286.93" font-family="Times,serif" font-size="14.00">~</text>
<text text-anchor="middle" x="164.01" y="-270.43" font-family="Times,serif" font-size="14.00">MutableData</text>
</g>
<!-- _P -->
<g id="node2" class="node">
<title>_P</title>
<path fill="lightgrey" stroke="black" d="M295.64,-98C295.64,-98 232.39,-98 232.39,-98 226.39,-98 220.39,-92 220.39,-86 220.39,-86 220.39,-52.5 220.39,-52.5 220.39,-46.5 226.39,-40.5 232.39,-40.5 232.39,-40.5 295.64,-40.5 295.64,-40.5 301.64,-40.5 307.64,-46.5 307.64,-52.5 307.64,-52.5 307.64,-86 307.64,-86 307.64,-92 301.64,-98 295.64,-98"/>
<text text-anchor="middle" x="264.01" y="-80.7" font-family="Times,serif" font-size="14.00">_P</text>
<text text-anchor="middle" x="264.01" y="-64.2" font-family="Times,serif" font-size="14.00">~</text>
<text text-anchor="middle" x="264.01" y="-47.7" font-family="Times,serif" font-size="14.00">MutableData</text>
</g>
<!-- X -->
<g id="node3" class="node">
<title>X</title>
<ellipse fill="lightgrey" stroke="black" cx="267.01" cy="-409.29" rx="41.01" ry="40.66"/>
<text text-anchor="middle" x="267.01" y="-420.74" font-family="Times,serif" font-size="14.00">X</text>
<text text-anchor="middle" x="267.01" y="-404.24" font-family="Times,serif" font-size="14.00">~</text>
<text text-anchor="middle" x="267.01" y="-387.74" font-family="Times,serif" font-size="14.00">Normal</text>
</g>
<!-- X&#45;&gt;_X -->
<g id="edge2" class="edge">
<title>X&#45;&gt;_X</title>
<path fill="none" stroke="black" d="M240.22,-378.3C226.84,-363.32 210.55,-345.08 196.47,-329.31"/>
<polygon fill="black" stroke="black" points="199.18,-327.1 189.91,-321.97 193.96,-331.76 199.18,-327.1"/>
</g>
<!-- Y -->
<g id="node4" class="node">
<title>Y</title>
<ellipse fill="lightgrey" stroke="black" cx="267.01" cy="-291.98" rx="41.01" ry="40.66"/>
<text text-anchor="middle" x="267.01" y="-303.43" font-family="Times,serif" font-size="14.00">Y</text>
<text text-anchor="middle" x="267.01" y="-286.93" font-family="Times,serif" font-size="14.00">~</text>
<text text-anchor="middle" x="267.01" y="-270.43" font-family="Times,serif" font-size="14.00">Normal</text>
</g>
<!-- X&#45;&gt;Y -->
<g id="edge10" class="edge">
<title>X&#45;&gt;Y</title>
<path fill="none" stroke="black" d="M267.01,-368.28C267.01,-360.5 267.01,-352.25 267.01,-344.16"/>
<polygon fill="black" stroke="black" points="270.51,-344.43 267.01,-334.43 263.51,-344.43 270.51,-344.43"/>
</g>
<!-- P -->
<g id="node7" class="node">
<title>P</title>
<ellipse fill="lightgrey" stroke="black" cx="267.01" cy="-174.66" rx="41.01" ry="40.66"/>
<text text-anchor="middle" x="267.01" y="-186.11" font-family="Times,serif" font-size="14.00">P</text>
<text text-anchor="middle" x="267.01" y="-169.61" font-family="Times,serif" font-size="14.00">~</text>
<text text-anchor="middle" x="267.01" y="-153.11" font-family="Times,serif" font-size="14.00">Normal</text>
</g>
<!-- X&#45;&gt;P -->
<g id="edge15" class="edge">
<title>X&#45;&gt;P</title>
<path fill="none" stroke="black" d="M236.7,-381.58C230.45,-376.86 223.72,-372.29 217.01,-368.63 173.32,-344.83 139.99,-373.08 111.01,-332.63 89.96,-303.26 89.96,-280.7 111.01,-251.32 139.99,-210.87 173.32,-239.13 217.01,-215.32 220.47,-213.43 223.94,-211.3 227.34,-209.04"/>
<polygon fill="black" stroke="black" points="229.35,-211.9 235.46,-203.25 225.29,-206.2 229.35,-211.9"/>
</g>
<!-- Y&#45;&gt;P -->
<g id="edge14" class="edge">
<title>Y&#45;&gt;P</title>
<path fill="none" stroke="black" d="M267.01,-250.97C267.01,-243.19 267.01,-234.93 267.01,-226.84"/>
<polygon fill="black" stroke="black" points="270.51,-227.11 267.01,-217.11 263.51,-227.11 270.51,-227.11"/>
</g>
<!-- _Y -->
<g id="node8" class="node">
<title>_Y</title>
<path fill="lightgrey" stroke="black" d="M195.64,-203.41C195.64,-203.41 132.39,-203.41 132.39,-203.41 126.39,-203.41 120.39,-197.41 120.39,-191.41 120.39,-191.41 120.39,-157.91 120.39,-157.91 120.39,-151.91 126.39,-145.91 132.39,-145.91 132.39,-145.91 195.64,-145.91 195.64,-145.91 201.64,-145.91 207.64,-151.91 207.64,-157.91 207.64,-157.91 207.64,-191.41 207.64,-191.41 207.64,-197.41 201.64,-203.41 195.64,-203.41"/>
<text text-anchor="middle" x="164.01" y="-186.11" font-family="Times,serif" font-size="14.00">_Y</text>
<text text-anchor="middle" x="164.01" y="-169.61" font-family="Times,serif" font-size="14.00">~</text>
<text text-anchor="middle" x="164.01" y="-153.11" font-family="Times,serif" font-size="14.00">MutableData</text>
</g>
<!-- Y&#45;&gt;_Y -->
<g id="edge3" class="edge">
<title>Y&#45;&gt;_Y</title>
<path fill="none" stroke="black" d="M240.22,-260.98C226.84,-246 210.55,-227.76 196.47,-211.99"/>
<polygon fill="black" stroke="black" points="199.18,-209.78 189.91,-204.66 193.96,-214.45 199.18,-209.78"/>
</g>
<!-- _Q -->
<g id="node5" class="node">
<title>_Q</title>
<path fill="lightgrey" stroke="black" d="M195.64,-438.04C195.64,-438.04 132.39,-438.04 132.39,-438.04 126.39,-438.04 120.39,-432.04 120.39,-426.04 120.39,-426.04 120.39,-392.54 120.39,-392.54 120.39,-386.54 126.39,-380.54 132.39,-380.54 132.39,-380.54 195.64,-380.54 195.64,-380.54 201.64,-380.54 207.64,-386.54 207.64,-392.54 207.64,-392.54 207.64,-426.04 207.64,-426.04 207.64,-432.04 201.64,-438.04 195.64,-438.04"/>
<text text-anchor="middle" x="164.01" y="-420.74" font-family="Times,serif" font-size="14.00">_Q</text>
<text text-anchor="middle" x="164.01" y="-404.24" font-family="Times,serif" font-size="14.00">~</text>
<text text-anchor="middle" x="164.01" y="-387.74" font-family="Times,serif" font-size="14.00">MutableData</text>
</g>
<!-- Q -->
<g id="node6" class="node">
<title>Q</title>
<ellipse fill="lightgrey" stroke="black" cx="164.01" cy="-526.61" rx="41.01" ry="40.66"/>
<text text-anchor="middle" x="164.01" y="-538.06" font-family="Times,serif" font-size="14.00">Q</text>
<text text-anchor="middle" x="164.01" y="-521.56" font-family="Times,serif" font-size="14.00">~</text>
<text text-anchor="middle" x="164.01" y="-505.06" font-family="Times,serif" font-size="14.00">Normal</text>
</g>
<!-- Q&#45;&gt;X -->
<g id="edge6" class="edge">
<title>Q&#45;&gt;X</title>
<path fill="none" stroke="black" d="M190.81,-495.61C203.58,-481.31 219.01,-464.03 232.64,-448.78"/>
<polygon fill="black" stroke="black" points="234.94,-451.46 238.99,-441.67 229.72,-446.8 234.94,-451.46"/>
</g>
<!-- Q&#45;&gt;Y -->
<g id="edge11" class="edge">
<title>Q&#45;&gt;Y</title>
<path fill="none" stroke="black" d="M136.86,-495.91C126.66,-482.81 116.27,-466.62 111.01,-449.95 100.14,-415.48 89.96,-398.01 111.01,-368.63 139.99,-328.19 173.32,-356.44 217.01,-332.63 220.47,-330.75 223.94,-328.62 227.34,-326.35"/>
<polygon fill="black" stroke="black" points="229.35,-329.22 235.46,-320.57 225.29,-323.52 229.35,-329.22"/>
</g>
<!-- Q&#45;&gt;_Q -->
<g id="edge1" class="edge">
<title>Q&#45;&gt;_Q</title>
<path fill="none" stroke="black" d="M164.01,-485.6C164.01,-473.89 164.01,-461.11 164.01,-449.45"/>
<polygon fill="black" stroke="black" points="167.51,-449.77 164.01,-439.77 160.51,-449.77 167.51,-449.77"/>
</g>
<!-- P&#45;&gt;_P -->
<g id="edge4" class="edge">
<title>P&#45;&gt;_P</title>
<path fill="none" stroke="black" d="M265.85,-133.68C265.62,-125.83 265.39,-117.6 265.16,-109.76"/>
<polygon fill="black" stroke="black" points="268.66,-109.68 264.87,-99.79 261.66,-109.89 268.66,-109.68"/>
</g>
<!-- yp -->
<g id="node9" class="node">
<title>yp</title>
<ellipse fill="none" stroke="black" cx="41.01" cy="-291.98" rx="41.01" ry="40.66"/>
<text text-anchor="middle" x="41.01" y="-303.43" font-family="Times,serif" font-size="14.00">yp</text>
<text text-anchor="middle" x="41.01" y="-286.93" font-family="Times,serif" font-size="14.00">~</text>
<text text-anchor="middle" x="41.01" y="-270.43" font-family="Times,serif" font-size="14.00">Normal</text>
</g>
<!-- yp&#45;&gt;P -->
<g id="edge13" class="edge">
<title>yp&#45;&gt;P</title>
<path fill="none" stroke="black" d="M70.22,-263.11C75.83,-258.72 81.88,-254.56 88.01,-251.32 140.63,-223.49 163.98,-242.35 217.01,-215.32 220.52,-213.53 224.03,-211.47 227.45,-209.25"/>
<polygon fill="black" stroke="black" points="229.43,-212.14 235.61,-203.54 225.41,-206.4 229.43,-212.14"/>
</g>
<!-- sigma_y -->
<g id="node10" class="node">
<title>sigma_y</title>
<ellipse fill="none" stroke="black" cx="384.01" cy="-409.29" rx="57.98" ry="40.66"/>
<text text-anchor="middle" x="384.01" y="-420.74" font-family="Times,serif" font-size="14.00">sigma_y</text>
<text text-anchor="middle" x="384.01" y="-404.24" font-family="Times,serif" font-size="14.00">~</text>
<text text-anchor="middle" x="384.01" y="-387.74" font-family="Times,serif" font-size="14.00">HalfNormal</text>
</g>
<!-- sigma_y&#45;&gt;Y -->
<g id="edge12" class="edge">
<title>sigma_y&#45;&gt;Y</title>
<path fill="none" stroke="black" d="M350.8,-375.56C336.2,-361.17 319.01,-344.23 304.01,-329.44"/>
<polygon fill="black" stroke="black" points="306.59,-327.07 297.01,-322.54 301.68,-332.06 306.59,-327.07"/>
</g>
<!-- qy -->
<g id="node11" class="node">
<title>qy</title>
<ellipse fill="none" stroke="black" cx="501.01" cy="-409.29" rx="41.01" ry="40.66"/>
<text text-anchor="middle" x="501.01" y="-420.74" font-family="Times,serif" font-size="14.00">qy</text>
<text text-anchor="middle" x="501.01" y="-404.24" font-family="Times,serif" font-size="14.00">~</text>
<text text-anchor="middle" x="501.01" y="-387.74" font-family="Times,serif" font-size="14.00">Normal</text>
</g>
<!-- qy&#45;&gt;Y -->
<g id="edge8" class="edge">
<title>qy&#45;&gt;Y</title>
<path fill="none" stroke="black" d="M470.88,-381.23C464.62,-376.54 457.84,-372.07 451.01,-368.63 395.93,-340.9 372.09,-360.37 317.01,-332.63 313.49,-330.86 309.98,-328.82 306.55,-326.61"/>
<polygon fill="black" stroke="black" points="308.59,-323.76 298.38,-320.91 304.58,-329.5 308.59,-323.76"/>
</g>
<!-- xy -->
<g id="node12" class="node">
<title>xy</title>
<ellipse fill="none" stroke="black" cx="601.01" cy="-409.29" rx="41.01" ry="40.66"/>
<text text-anchor="middle" x="601.01" y="-420.74" font-family="Times,serif" font-size="14.00">xy</text>
<text text-anchor="middle" x="601.01" y="-404.24" font-family="Times,serif" font-size="14.00">~</text>
<text text-anchor="middle" x="601.01" y="-387.74" font-family="Times,serif" font-size="14.00">Normal</text>
</g>
<!-- xy&#45;&gt;Y -->
<g id="edge9" class="edge">
<title>xy&#45;&gt;Y</title>
<path fill="none" stroke="black" d="M571.44,-380.82C565.08,-376.11 558.12,-371.74 551.01,-368.63 454.58,-326.54 413.45,-374.73 317.01,-332.63 313.24,-330.99 309.5,-328.98 305.88,-326.75"/>
<polygon fill="black" stroke="black" points="308.08,-324.02 297.84,-321.3 304.15,-329.81 308.08,-324.02"/>
</g>
<!-- sigma_x -->
<g id="node13" class="node">
<title>sigma_x</title>
<ellipse fill="none" stroke="black" cx="382.01" cy="-526.61" rx="57.98" ry="40.66"/>
<text text-anchor="middle" x="382.01" y="-538.06" font-family="Times,serif" font-size="14.00">sigma_x</text>
<text text-anchor="middle" x="382.01" y="-521.56" font-family="Times,serif" font-size="14.00">~</text>
<text text-anchor="middle" x="382.01" y="-505.06" font-family="Times,serif" font-size="14.00">HalfNormal</text>
</g>
<!-- sigma_x&#45;&gt;X -->
<g id="edge5" class="edge">
<title>sigma_x&#45;&gt;X</title>
<path fill="none" stroke="black" d="M349.37,-492.87C335.02,-478.49 318.12,-461.55 303.38,-446.76"/>
<polygon fill="black" stroke="black" points="306.05,-444.48 296.51,-439.87 301.09,-449.42 306.05,-444.48"/>
</g>
<!-- qx -->
<g id="node14" class="node">
<title>qx</title>
<ellipse fill="none" stroke="black" cx="499.01" cy="-526.61" rx="41.01" ry="40.66"/>
<text text-anchor="middle" x="499.01" y="-538.06" font-family="Times,serif" font-size="14.00">qx</text>
<text text-anchor="middle" x="499.01" y="-521.56" font-family="Times,serif" font-size="14.00">~</text>
<text text-anchor="middle" x="499.01" y="-505.06" font-family="Times,serif" font-size="14.00">Normal</text>
</g>
<!-- qx&#45;&gt;X -->
<g id="edge7" class="edge">
<title>qx&#45;&gt;X</title>
<path fill="none" stroke="black" d="M468.87,-498.57C462.61,-493.88 455.83,-489.4 449.01,-485.95 394.75,-458.5 371.27,-477.41 317.01,-449.95 313.49,-448.17 309.99,-446.12 306.56,-443.91"/>
<polygon fill="black" stroke="black" points="308.6,-441.06 298.39,-438.2 304.59,-446.8 308.6,-441.06"/>
</g>
<!-- sigma_p -->
<g id="node15" class="node">
<title>sigma_p</title>
<ellipse fill="none" stroke="black" cx="384.01" cy="-291.98" rx="57.98" ry="40.66"/>
<text text-anchor="middle" x="384.01" y="-303.43" font-family="Times,serif" font-size="14.00">sigma_p</text>
<text text-anchor="middle" x="384.01" y="-286.93" font-family="Times,serif" font-size="14.00">~</text>
<text text-anchor="middle" x="384.01" y="-270.43" font-family="Times,serif" font-size="14.00">HalfNormal</text>
</g>
<!-- sigma_p&#45;&gt;P -->
<g id="edge16" class="edge">
<title>sigma_p&#45;&gt;P</title>
<path fill="none" stroke="black" d="M350.8,-258.24C336.2,-243.86 319.01,-226.91 304.01,-212.13"/>
<polygon fill="black" stroke="black" points="306.59,-209.75 297.01,-205.23 301.68,-214.74 306.59,-209.75"/>
</g>
<!-- xp -->
<g id="node16" class="node">
<title>xp</title>
<ellipse fill="none" stroke="black" cx="501.01" cy="-291.98" rx="41.01" ry="40.66"/>
<text text-anchor="middle" x="501.01" y="-303.43" font-family="Times,serif" font-size="14.00">xp</text>
<text text-anchor="middle" x="501.01" y="-286.93" font-family="Times,serif" font-size="14.00">~</text>
<text text-anchor="middle" x="501.01" y="-270.43" font-family="Times,serif" font-size="14.00">Normal</text>
</g>
<!-- xp&#45;&gt;P -->
<g id="edge17" class="edge">
<title>xp&#45;&gt;P</title>
<path fill="none" stroke="black" d="M470.24,-264.39C464.09,-259.71 457.51,-255.13 451.01,-251.32 408.03,-226.11 355.06,-205.29 317.01,-191.91"/>
<polygon fill="black" stroke="black" points="318.23,-188.63 307.63,-188.67 315.94,-195.25 318.23,-188.63"/>
</g>
</g>
</svg>