<?xml version="1.0" encoding="UTF-8" standalone="no"?>
<!DOCTYPE svg PUBLIC "-//W3C//DTD SVG 1.1//EN"
 "http://www.w3.org/Graphics/SVG/1.1/DTD/svg11.dtd">
<!-- Generated by graphviz version 8.1.0 (0)
 -->
<!-- Pages: 1 -->
<svg width="316pt" height="462pt"
 viewBox="0.00 0.00 315.98 462.45" xmlns="http://www.w3.org/2000/svg" xmlns:xlink="http://www.w3.org/1999/xlink">
<g id="graph0" class="graph" transform="scale(1 1) rotate(0) translate(4 458.45)">
<polygon fill="white" stroke="none" points="-4,4 -4,-458.45 311.98,-458.45 311.98,4 -4,4"/>
<g id="clust1" class="cluster">
<title>clusterobs (150)</title>
<path fill="none" stroke="black" d="M20,-8C20,-8 112,-8 112,-8 118,-8 124,-14 124,-20 124,-20 124,-321.23 124,-321.23 124,-327.23 118,-333.23 112,-333.23 112,-333.23 20,-333.23 20,-333.23 14,-333.23 8,-327.23 8,-321.23 8,-321.23 8,-20 8,-20 8,-14 14,-8 20,-8"/>
<text text-anchor="middle" x="90.12" y="-15.2" font-family="Times,serif" font-size="14.00">obs (150)</text>
</g>
<g id="clust2" class="cluster">
<title>clusterlocation (5)</title>
<path fill="none" stroke="black" d="M144,-223.32C144,-223.32 222,-223.32 222,-223.32 228,-223.32 234,-229.32 234,-235.32 234,-235.32 234,-333.13 234,-333.13 234,-339.13 228,-345.13 222,-345.13 222,-345.13 144,-345.13 144,-345.13 138,-345.13 132,-339.13 132,-333.13 132,-333.13 132,-235.32 132,-235.32 132,-229.32 138,-223.32 144,-223.32"/>
<text text-anchor="middle" x="194.5" y="-230.52" font-family="Times,serif" font-size="14.00">location (5)</text>
</g>
<!-- score -->
<g id="node1" class="node">
<title>score</title>
<ellipse fill="lightgrey" stroke="black" cx="68" cy="-174.66" rx="41.01" ry="40.66"/>
<text text-anchor="middle" x="68" y="-186.11" font-family="Times,serif" font-size="14.00">score</text>
<text text-anchor="middle" x="68" y="-169.61" font-family="Times,serif" font-size="14.00">~</text>
<text text-anchor="middle" x="68" y="-153.11" font-family="Times,serif" font-size="14.00">Poisson</text>
</g>
<!-- observed_score -->
<g id="node2" class="node">
<title>observed_score</title>
<path fill="lightgrey" stroke="black" d="M104,-98C104,-98 28,-98 28,-98 22,-98 16,-92 16,-86 16,-86 16,-52.5 16,-52.5 16,-46.5 22,-40.5 28,-40.5 28,-40.5 104,-40.5 104,-40.5 110,-40.5 116,-46.5 116,-52.5 116,-52.5 116,-86 116,-86 116,-92 110,-98 104,-98"/>
<text text-anchor="middle" x="66" y="-80.7" font-family="Times,serif" font-size="14.00">observed_score</text>
<text text-anchor="middle" x="66" y="-64.2" font-family="Times,serif" font-size="14.00">~</text>
<text text-anchor="middle" x="66" y="-47.7" font-family="Times,serif" font-size="14.00">ConstantData</text>
</g>
<!-- score&#45;&gt;observed_score -->
<g id="edge1" class="edge">
<title>score&#45;&gt;observed_score</title>
<path fill="none" stroke="black" d="M67.23,-133.68C67.07,-125.64 66.91,-117.21 66.75,-109.21"/>
<polygon fill="black" stroke="black" points="70.23,-109.21 66.54,-99.28 63.24,-109.34 70.23,-109.21"/>
</g>
<!-- location_idx -->
<g id="node3" class="node">
<title>location_idx</title>
<path fill="lightgrey" stroke="black" d="M100.75,-325.23C100.75,-325.23 35.25,-325.23 35.25,-325.23 29.25,-325.23 23.25,-319.23 23.25,-313.23 23.25,-313.23 23.25,-279.73 23.25,-279.73 23.25,-273.73 29.25,-267.73 35.25,-267.73 35.25,-267.73 100.75,-267.73 100.75,-267.73 106.75,-267.73 112.75,-273.73 112.75,-279.73 112.75,-279.73 112.75,-313.23 112.75,-313.23 112.75,-319.23 106.75,-325.23 100.75,-325.23"/>
<text text-anchor="middle" x="68" y="-307.93" font-family="Times,serif" font-size="14.00">location_idx</text>
<text text-anchor="middle" x="68" y="-291.43" font-family="Times,serif" font-size="14.00">~</text>
<text text-anchor="middle" x="68" y="-274.93" font-family="Times,serif" font-size="14.00">ConstantData</text>
</g>
<!-- location_idx&#45;&gt;score -->
<g id="edge5" class="edge">
<title>location_idx&#45;&gt;score</title>
<path fill="none" stroke="black" d="M68,-267.38C68,-255.04 68,-240.15 68,-226"/>
<polygon fill="black" stroke="black" points="71.5,-226.37 68,-216.37 64.5,-226.37 71.5,-226.37"/>
</g>
<!-- h_sigma -->
<g id="node4" class="node">
<title>h_sigma</title>
<ellipse fill="none" stroke="black" cx="116" cy="-413.79" rx="57.98" ry="40.66"/>
<text text-anchor="middle" x="116" y="-425.24" font-family="Times,serif" font-size="14.00">h_sigma</text>
<text text-anchor="middle" x="116" y="-408.74" font-family="Times,serif" font-size="14.00">~</text>
<text text-anchor="middle" x="116" y="-392.24" font-family="Times,serif" font-size="14.00">HalfNormal</text>
</g>
<!-- lam -->
<g id="node6" class="node">
<title>lam</title>
<ellipse fill="none" stroke="black" cx="183" cy="-296.48" rx="42.6" ry="40.66"/>
<text text-anchor="middle" x="183" y="-307.93" font-family="Times,serif" font-size="14.00">lam</text>
<text text-anchor="middle" x="183" y="-291.43" font-family="Times,serif" font-size="14.00">~</text>
<text text-anchor="middle" x="183" y="-274.93" font-family="Times,serif" font-size="14.00">Gamma</text>
</g>
<!-- h_sigma&#45;&gt;lam -->
<g id="edge2" class="edge">
<title>h_sigma&#45;&gt;lam</title>
<path fill="none" stroke="black" d="M137.57,-375.67C143.84,-364.87 150.76,-352.96 157.27,-341.76"/>
<polygon fill="black" stroke="black" points="160.61,-343.97 162.61,-333.57 154.56,-340.45 160.61,-343.97"/>
</g>
<!-- h_mu -->
<g id="node5" class="node">
<title>h_mu</title>
<ellipse fill="none" stroke="black" cx="250" cy="-413.79" rx="57.98" ry="40.66"/>
<text text-anchor="middle" x="250" y="-425.24" font-family="Times,serif" font-size="14.00">h_mu</text>
<text text-anchor="middle" x="250" y="-408.74" font-family="Times,serif" font-size="14.00">~</text>
<text text-anchor="middle" x="250" y="-392.24" font-family="Times,serif" font-size="14.00">HalfNormal</text>
</g>
<!-- h_mu&#45;&gt;lam -->
<g id="edge3" class="edge">
<title>h_mu&#45;&gt;lam</title>
<path fill="none" stroke="black" d="M228.43,-375.67C222.16,-364.87 215.24,-352.96 208.73,-341.76"/>
<polygon fill="black" stroke="black" points="211.44,-340.45 203.39,-333.57 205.39,-343.97 211.44,-340.45"/>
</g>
<!-- lam&#45;&gt;score -->
<g id="edge4" class="edge">
<title>lam&#45;&gt;score</title>
<path fill="none" stroke="black" d="M159.98,-261.74C150.69,-249.12 139.47,-235.02 128,-223.32 122.24,-217.44 115.76,-211.62 109.24,-206.17"/>
<polygon fill="black" stroke="black" points="111.99,-203.08 102.02,-199.49 107.57,-208.51 111.99,-203.08"/>
</g>
</g>
</svg>