<?xml version="1.0" encoding="UTF-8" standalone="no"?>
<!DOCTYPE svg PUBLIC "-//W3C//DTD SVG 1.1//EN"
 "http://www.w3.org/Graphics/SVG/1.1/DTD/svg11.dtd">
<!-- Generated by graphviz version 8.1.0 (0)
 -->
<!-- Pages: 1 -->
<svg width="439pt" height="247pt"
 viewBox="0.00 0.00 438.71 247.13" xmlns="http://www.w3.org/2000/svg" xmlns:xlink="http://www.w3.org/1999/xlink">
<g id="graph0" class="graph" transform="scale(1 1) rotate(0) translate(4 243.13)">
<polygon fill="white" stroke="none" points="-4,4 -4,-243.13 434.71,-243.13 434.71,4 -4,4"/>
<g id="clust1" class="cluster">
<title>cluster200 x 2</title>
<path fill="none" stroke="black" d="M111.72,-8C111.72,-8 295.72,-8 295.72,-8 301.72,-8 307.72,-14 307.72,-20 307.72,-20 307.72,-117.82 307.72,-117.82 307.72,-123.82 301.72,-129.82 295.72,-129.82 295.72,-129.82 111.72,-129.82 111.72,-129.82 105.72,-129.82 99.72,-123.82 99.72,-117.82 99.72,-117.82 99.72,-20 99.72,-20 99.72,-14 105.72,-8 111.72,-8"/>
<text text-anchor="middle" x="279.1" y="-15.2" font-family="Times,serif" font-size="14.00">200 x 2</text>
</g>
<!-- t -->
<g id="node1" class="node">
<title>t</title>
<ellipse fill="none" stroke="black" cx="44.72" cy="-198.48" rx="44.72" ry="40.66"/>
<text text-anchor="middle" x="44.72" y="-209.93" font-family="Times,serif" font-size="14.00">t</text>
<text text-anchor="middle" x="44.72" y="-193.43" font-family="Times,serif" font-size="14.00">~</text>
<text text-anchor="middle" x="44.72" y="-176.93" font-family="Times,serif" font-size="14.00">Uniform</text>
</g>
<!-- DDM -->
<g id="node5" class="node">
<title>DDM</title>
<ellipse fill="lightgrey" stroke="black" cx="203.72" cy="-81.16" rx="95.64" ry="40.66"/>
<text text-anchor="middle" x="203.72" y="-92.61" font-family="Times,serif" font-size="14.00">DDM</text>
<text text-anchor="middle" x="203.72" y="-76.11" font-family="Times,serif" font-size="14.00">~</text>
<text text-anchor="middle" x="203.72" y="-59.61" font-family="Times,serif" font-size="14.00">SSMRandomVariable</text>
</g>
<!-- t&#45;&gt;DDM -->
<g id="edge1" class="edge">
<title>t&#45;&gt;DDM</title>
<path fill="none" stroke="black" d="M78.85,-171.76C85.11,-167.1 91.6,-162.29 97.72,-157.82 113.43,-146.34 130.56,-134.02 146.38,-122.74"/>
<polygon fill="black" stroke="black" points="147.9,-125.24 154.01,-116.58 143.84,-119.54 147.9,-125.24"/>
</g>
<!-- z -->
<g id="node2" class="node">
<title>z</title>
<ellipse fill="none" stroke="black" cx="151.72" cy="-198.48" rx="44.72" ry="40.66"/>
<text text-anchor="middle" x="151.72" y="-209.93" font-family="Times,serif" font-size="14.00">z</text>
<text text-anchor="middle" x="151.72" y="-193.43" font-family="Times,serif" font-size="14.00">~</text>
<text text-anchor="middle" x="151.72" y="-176.93" font-family="Times,serif" font-size="14.00">Uniform</text>
</g>
<!-- z&#45;&gt;DDM -->
<g id="edge2" class="edge">
<title>z&#45;&gt;DDM</title>
<path fill="none" stroke="black" d="M168.46,-160.35C172.61,-151.17 177.11,-141.18 181.47,-131.51"/>
<polygon fill="black" stroke="black" points="185.02,-133.15 185.94,-122.6 178.64,-130.27 185.02,-133.15"/>
</g>
<!-- v -->
<g id="node3" class="node">
<title>v</title>
<ellipse fill="none" stroke="black" cx="255.72" cy="-198.48" rx="41.01" ry="40.66"/>
<text text-anchor="middle" x="255.72" y="-209.93" font-family="Times,serif" font-size="14.00">v</text>
<text text-anchor="middle" x="255.72" y="-193.43" font-family="Times,serif" font-size="14.00">~</text>
<text text-anchor="middle" x="255.72" y="-176.93" font-family="Times,serif" font-size="14.00">Normal</text>
</g>
<!-- v&#45;&gt;DDM -->
<g id="edge3" class="edge">
<title>v&#45;&gt;DDM</title>
<path fill="none" stroke="black" d="M239.27,-160.99C235.03,-151.59 230.4,-141.31 225.92,-131.38"/>
<polygon fill="black" stroke="black" points="228.81,-130.28 221.51,-122.6 222.43,-133.16 228.81,-130.28"/>
</g>
<!-- a -->
<g id="node4" class="node">
<title>a</title>
<ellipse fill="none" stroke="black" cx="372.72" cy="-198.48" rx="57.98" ry="40.66"/>
<text text-anchor="middle" x="372.72" y="-209.93" font-family="Times,serif" font-size="14.00">a</text>
<text text-anchor="middle" x="372.72" y="-193.43" font-family="Times,serif" font-size="14.00">~</text>
<text text-anchor="middle" x="372.72" y="-176.93" font-family="Times,serif" font-size="14.00">HalfNormal</text>
</g>
<!-- a&#45;&gt;DDM -->
<g id="edge4" class="edge">
<title>a&#45;&gt;DDM</title>
<path fill="none" stroke="black" d="M331.81,-169.56C311.03,-155.38 285.4,-137.89 262.54,-122.29"/>
<polygon fill="black" stroke="black" points="264.84,-118.94 254.61,-116.19 260.89,-124.72 264.84,-118.94"/>
</g>
</g>
</svg>