<?xml version="1.0" encoding="UTF-8" standalone="no"?>
<!DOCTYPE svg PUBLIC "-//W3C//DTD SVG 1.1//EN"
 "http://www.w3.org/Graphics/SVG/1.1/DTD/svg11.dtd">
<!-- Generated by graphviz version 8.1.0 (0)
 -->
<!-- Pages: 1 -->
<svg width="615pt" height="482pt"
 viewBox="0.00 0.00 615.04 482.36" xmlns="http://www.w3.org/2000/svg" xmlns:xlink="http://www.w3.org/1999/xlink">
<g id="graph0" class="graph" transform="scale(1 1) rotate(0) translate(4 478.36)">
<polygon fill="white" stroke="none" points="-4,4 -4,-478.36 611.04,-478.36 611.04,4 -4,4"/>
<g id="clust1" class="cluster">
<title>cluster85</title>
<path fill="none" stroke="black" d="M457.01,-255.13C457.01,-255.13 539.01,-255.13 539.01,-255.13 545.01,-255.13 551.01,-261.13 551.01,-267.13 551.01,-267.13 551.01,-341.13 551.01,-341.13 551.01,-347.13 545.01,-353.13 539.01,-353.13 539.01,-353.13 457.01,-353.13 457.01,-353.13 451.01,-353.13 445.01,-347.13 445.01,-341.13 445.01,-341.13 445.01,-267.13 445.01,-267.13 445.01,-261.13 451.01,-255.13 457.01,-255.13"/>
<text text-anchor="middle" x="536.26" y="-262.33" font-family="Times,serif" font-size="14.00">85</text>
</g>
<g id="clust2" class="cluster">
<title>clustercounty (85)</title>
<path fill="none" stroke="black" d="M210.01,-137.82C210.01,-137.82 298.01,-137.82 298.01,-137.82 304.01,-137.82 310.01,-143.82 310.01,-149.82 310.01,-149.82 310.01,-353.04 310.01,-353.04 310.01,-359.04 304.01,-365.04 298.01,-365.04 298.01,-365.04 210.01,-365.04 210.01,-365.04 204.01,-365.04 198.01,-359.04 198.01,-353.04 198.01,-353.04 198.01,-149.82 198.01,-149.82 198.01,-143.82 204.01,-137.82 210.01,-137.82"/>
<text text-anchor="middle" x="270.51" y="-145.02" font-family="Times,serif" font-size="14.00">county (85)</text>
</g>
<g id="clust3" class="cluster">
<title>cluster919</title>
<path fill="none" stroke="black" d="M108.01,-8C108.01,-8 182.01,-8 182.01,-8 188.01,-8 194.01,-14 194.01,-20 194.01,-20 194.01,-117.82 194.01,-117.82 194.01,-123.82 188.01,-129.82 182.01,-129.82 182.01,-129.82 108.01,-129.82 108.01,-129.82 102.01,-129.82 96.01,-123.82 96.01,-117.82 96.01,-117.82 96.01,-20 96.01,-20 96.01,-14 102.01,-8 108.01,-8"/>
<text text-anchor="middle" x="175.89" y="-15.2" font-family="Times,serif" font-size="14.00">919</text>
</g>
<!-- beta -->
<g id="node1" class="node">
<title>beta</title>
<ellipse fill="none" stroke="black" cx="41.01" cy="-199.07" rx="41.01" ry="40.66"/>
<text text-anchor="middle" x="41.01" y="-210.52" font-family="Times,serif" font-size="14.00">beta</text>
<text text-anchor="middle" x="41.01" y="-194.02" font-family="Times,serif" font-size="14.00">~</text>
<text text-anchor="middle" x="41.01" y="-177.52" font-family="Times,serif" font-size="14.00">Normal</text>
</g>
<!-- y_like -->
<g id="node9" class="node">
<title>y_like</title>
<ellipse fill="lightgrey" stroke="black" cx="145.01" cy="-81.16" rx="41.01" ry="40.66"/>
<text text-anchor="middle" x="145.01" y="-92.61" font-family="Times,serif" font-size="14.00">y_like</text>
<text text-anchor="middle" x="145.01" y="-76.11" font-family="Times,serif" font-size="14.00">~</text>
<text text-anchor="middle" x="145.01" y="-59.61" font-family="Times,serif" font-size="14.00">Normal</text>
</g>
<!-- beta&#45;&gt;y_like -->
<g id="edge7" class="edge">
<title>beta&#45;&gt;y_like</title>
<path fill="none" stroke="black" d="M66.25,-166.72C74.04,-157.3 82.75,-147.02 91.01,-137.82 96.7,-131.48 102.88,-124.87 108.96,-118.52"/>
<polygon fill="black" stroke="black" points="111.13,-121.27 115.55,-111.64 106.09,-116.41 111.13,-121.27"/>
</g>
<!-- gamma_0 -->
<g id="node2" class="node">
<title>gamma_0</title>
<ellipse fill="none" stroke="black" cx="439.01" cy="-433.7" rx="50.03" ry="40.66"/>
<text text-anchor="middle" x="439.01" y="-445.15" font-family="Times,serif" font-size="14.00">gamma_0</text>
<text text-anchor="middle" x="439.01" y="-428.65" font-family="Times,serif" font-size="14.00">~</text>
<text text-anchor="middle" x="439.01" y="-412.15" font-family="Times,serif" font-size="14.00">Normal</text>
</g>
<!-- mu_a -->
<g id="node6" class="node">
<title>mu_a</title>
<polygon fill="none" stroke="black" points="543.14,-345.13 452.89,-345.13 452.89,-287.63 543.14,-287.63 543.14,-345.13"/>
<text text-anchor="middle" x="498.01" y="-327.83" font-family="Times,serif" font-size="14.00">mu_a</text>
<text text-anchor="middle" x="498.01" y="-311.33" font-family="Times,serif" font-size="14.00">~</text>
<text text-anchor="middle" x="498.01" y="-294.83" font-family="Times,serif" font-size="14.00">Deterministic</text>
</g>
<!-- gamma_0&#45;&gt;mu_a -->
<g id="edge2" class="edge">
<title>gamma_0&#45;&gt;mu_a</title>
<path fill="none" stroke="black" d="M458,-395.58C464.66,-382.57 472.14,-367.95 478.81,-354.91"/>
<polygon fill="black" stroke="black" points="482.3,-356.79 483.73,-346.29 476.06,-353.6 482.3,-356.79"/>
</g>
<!-- gamma_1 -->
<g id="node3" class="node">
<title>gamma_1</title>
<ellipse fill="none" stroke="black" cx="557.01" cy="-433.7" rx="50.03" ry="40.66"/>
<text text-anchor="middle" x="557.01" y="-445.15" font-family="Times,serif" font-size="14.00">gamma_1</text>
<text text-anchor="middle" x="557.01" y="-428.65" font-family="Times,serif" font-size="14.00">~</text>
<text text-anchor="middle" x="557.01" y="-412.15" font-family="Times,serif" font-size="14.00">Normal</text>
</g>
<!-- gamma_1&#45;&gt;mu_a -->
<g id="edge1" class="edge">
<title>gamma_1&#45;&gt;mu_a</title>
<path fill="none" stroke="black" d="M538.02,-395.58C531.36,-382.57 523.88,-367.95 517.21,-354.91"/>
<polygon fill="black" stroke="black" points="519.96,-353.6 512.29,-346.29 513.73,-356.79 519.96,-353.6"/>
</g>
<!-- sigma_y -->
<g id="node4" class="node">
<title>sigma_y</title>
<ellipse fill="none" stroke="black" cx="145.01" cy="-199.07" rx="44.72" ry="40.66"/>
<text text-anchor="middle" x="145.01" y="-210.52" font-family="Times,serif" font-size="14.00">sigma_y</text>
<text text-anchor="middle" x="145.01" y="-194.02" font-family="Times,serif" font-size="14.00">~</text>
<text text-anchor="middle" x="145.01" y="-177.52" font-family="Times,serif" font-size="14.00">Uniform</text>
</g>
<!-- sigma_y&#45;&gt;y_like -->
<g id="edge6" class="edge">
<title>sigma_y&#45;&gt;y_like</title>
<path fill="none" stroke="black" d="M145.01,-158.18C145.01,-150.07 145.01,-141.44 145.01,-133.02"/>
<polygon fill="black" stroke="black" points="148.51,-133.12 145.01,-123.12 141.51,-133.12 148.51,-133.12"/>
</g>
<!-- sigma_a -->
<g id="node5" class="node">
<title>sigma_a</title>
<ellipse fill="none" stroke="black" cx="377.01" cy="-316.38" rx="57.45" ry="40.66"/>
<text text-anchor="middle" x="377.01" y="-327.83" font-family="Times,serif" font-size="14.00">sigma_a</text>
<text text-anchor="middle" x="377.01" y="-311.33" font-family="Times,serif" font-size="14.00">~</text>
<text text-anchor="middle" x="377.01" y="-294.83" font-family="Times,serif" font-size="14.00">HalfCauchy</text>
</g>
<!-- alpha -->
<g id="node7" class="node">
<title>alpha</title>
<polygon fill="none" stroke="black" points="300.14,-227.82 209.89,-227.82 209.89,-170.32 300.14,-170.32 300.14,-227.82"/>
<text text-anchor="middle" x="255.01" y="-210.52" font-family="Times,serif" font-size="14.00">alpha</text>
<text text-anchor="middle" x="255.01" y="-194.02" font-family="Times,serif" font-size="14.00">~</text>
<text text-anchor="middle" x="255.01" y="-177.52" font-family="Times,serif" font-size="14.00">Deterministic</text>
</g>
<!-- sigma_a&#45;&gt;alpha -->
<g id="edge3" class="edge">
<title>sigma_a&#45;&gt;alpha</title>
<path fill="none" stroke="black" d="M343.41,-283.1C333.92,-274.03 323.58,-264.18 314.01,-255.13 307.35,-248.84 300.24,-242.17 293.35,-235.72"/>
<polygon fill="black" stroke="black" points="296.09,-233.56 286.4,-229.29 291.32,-238.68 296.09,-233.56"/>
</g>
<!-- mu_a&#45;&gt;alpha -->
<g id="edge5" class="edge">
<title>mu_a&#45;&gt;alpha</title>
<path fill="none" stroke="black" d="M477.9,-287.3C468.46,-275.89 456.35,-263.46 443.01,-255.13 402.66,-229.95 350.29,-215.85 311.08,-208.24"/>
<polygon fill="black" stroke="black" points="311.85,-204.64 301.38,-206.26 310.58,-211.52 311.85,-204.64"/>
</g>
<!-- alpha&#45;&gt;y_like -->
<g id="edge8" class="edge">
<title>alpha&#45;&gt;y_like</title>
<path fill="none" stroke="black" d="M229.21,-170.05C219.76,-159.86 208.94,-148.28 199.01,-137.82 193.15,-131.64 186.88,-125.11 180.77,-118.79"/>
<polygon fill="black" stroke="black" points="183.63,-116.68 174.16,-111.93 178.6,-121.55 183.63,-116.68"/>
</g>
<!-- epsilon_a -->
<g id="node8" class="node">
<title>epsilon_a</title>
<ellipse fill="none" stroke="black" cx="254.01" cy="-316.38" rx="47.91" ry="40.66"/>
<text text-anchor="middle" x="254.01" y="-327.83" font-family="Times,serif" font-size="14.00">epsilon_a</text>
<text text-anchor="middle" x="254.01" y="-311.33" font-family="Times,serif" font-size="14.00">~</text>
<text text-anchor="middle" x="254.01" y="-294.83" font-family="Times,serif" font-size="14.00">Normal</text>
</g>
<!-- epsilon_a&#45;&gt;alpha -->
<g id="edge4" class="edge">
<title>epsilon_a&#45;&gt;alpha</title>
<path fill="none" stroke="black" d="M254.36,-275.38C254.46,-263.54 254.57,-250.62 254.68,-238.86"/>
<polygon fill="black" stroke="black" points="258.18,-239.06 254.77,-229.03 251.18,-239 258.18,-239.06"/>
</g>
</g>
</svg>