<?xml version="1.0" encoding="UTF-8" standalone="no"?>
<!DOCTYPE svg PUBLIC "-//W3C//DTD SVG 1.1//EN"
 "http://www.w3.org/Graphics/SVG/1.1/DTD/svg11.dtd">
<!-- Generated by graphviz version 9.0.0 (0)
 -->
<!-- Pages: 1 -->
<svg width="457pt" height="121pt"
 viewBox="0.00 0.00 456.89 121.00" xmlns="http://www.w3.org/2000/svg" xmlns:xlink="http://www.w3.org/1999/xlink">
<g id="graph0" class="graph" transform="scale(1 1) rotate(0) translate(4 117)">
<polygon fill="white" stroke="none" points="-4,4 -4,-117 452.89,-117 452.89,4 -4,4"/>
<!-- H* -->
<g id="node1" class="node">
<title>H*</title>
<ellipse fill="none" stroke="red" cx="421.89" cy="-41" rx="27" ry="18"/>
<text text-anchor="middle" x="421.89" y="-35.95" font-family="Times,serif" font-size="14.00">H*</text>
</g>
<!-- H -->
<g id="node2" class="node">
<title>H</title>
<ellipse fill="none" stroke="black" stroke-dasharray="5,2" cx="174.89" cy="-41" rx="27" ry="18"/>
<text text-anchor="middle" x="174.89" y="-35.95" font-family="Times,serif" font-size="14.00">H</text>
</g>
<!-- H&#45;&gt;H* -->
<g id="edge2" class="edge">
<title>H&#45;&gt;H*</title>
<path fill="none" stroke="red" d="M200.89,-47.02C207.06,-48.26 213.69,-49.37 219.89,-50 276.86,-55.77 343.29,-50.46 383.7,-45.89"/>
<polygon fill="red" stroke="red" points="384.1,-49.37 393.62,-44.72 383.28,-42.42 384.1,-49.37"/>
</g>
<!-- D -->
<g id="node4" class="node">
<title>D</title>
<ellipse fill="none" stroke="black" cx="330.89" cy="-18" rx="27" ry="18"/>
<text text-anchor="middle" x="330.89" y="-12.95" font-family="Times,serif" font-size="14.00">D</text>
</g>
<!-- H&#45;&gt;D -->
<g id="edge3" class="edge">
<title>H&#45;&gt;D</title>
<path fill="none" stroke="blue" d="M201.46,-36.51C207.5,-35.49 213.92,-34.43 219.89,-33.5 244.17,-29.72 271.53,-25.86 292.89,-22.94"/>
<polygon fill="blue" stroke="blue" points="293.14,-26.44 302.58,-21.63 292.2,-19.5 293.14,-26.44"/>
<text text-anchor="middle" x="252.89" y="-37.2" font-family="Times,serif" font-size="14.00" fill="blue">biasing path</text>
</g>
<!-- S -->
<g id="node3" class="node">
<title>S</title>
<ellipse fill="none" stroke="black" cx="55.45" cy="-41" rx="27" ry="18"/>
<text text-anchor="middle" x="55.45" y="-35.95" font-family="Times,serif" font-size="14.00">S</text>
</g>
<!-- S&#45;&gt;H -->
<g id="edge1" class="edge">
<title>S&#45;&gt;H</title>
<path fill="none" stroke="red" d="M82.8,-41C98.52,-41 118.73,-41 136.12,-41"/>
<polygon fill="red" stroke="red" points="136.11,-44.5 146.11,-41 136.11,-37.5 136.11,-44.5"/>
</g>
<!-- D&#45;&gt;H* -->
<g id="edge4" class="edge">
<title>D&#45;&gt;H*</title>
<path fill="none" stroke="blue" d="M356.68,-24.41C365.56,-26.7 375.74,-29.33 385.34,-31.81"/>
<polygon fill="blue" stroke="blue" points="384.21,-35.14 394.77,-34.25 385.96,-28.36 384.21,-35.14"/>
</g>
<!-- Unobserved -->
<g id="node5" class="node">
<title>Unobserved</title>
<ellipse fill="none" stroke="black" stroke-dasharray="5,2" cx="55.45" cy="-95" rx="55.45" ry="18"/>
<text text-anchor="middle" x="55.45" y="-89.95" font-family="Times,serif" font-size="14.00">Unobserved</text>
</g>
</g>
</svg>