<?xml version="1.0" encoding="UTF-8" standalone="no"?>
<!DOCTYPE svg PUBLIC "-//W3C//DTD SVG 1.1//EN"
 "http://www.w3.org/Graphics/SVG/1.1/DTD/svg11.dtd">
<!-- Generated by graphviz version 9.0.0 (0)
 -->
<!-- Pages: 1 -->
<svg width="746pt" height="462pt"
 viewBox="0.00 0.00 745.73 462.45" xmlns="http://www.w3.org/2000/svg" xmlns:xlink="http://www.w3.org/1999/xlink">
<g id="graph0" class="graph" transform="scale(1 1) rotate(0) translate(4 458.45)">
<polygon fill="white" stroke="none" points="-4,4 -4,-458.45 741.73,-458.45 741.73,4 -4,4"/>
<g id="clust1" class="cluster">
<title>clustergroup (5)</title>
<path fill="none" stroke="black" d="M237,-223.32C237,-223.32 545,-223.32 545,-223.32 551,-223.32 557,-229.32 557,-235.32 557,-235.32 557,-333.13 557,-333.13 557,-339.13 551,-345.13 545,-345.13 545,-345.13 237,-345.13 237,-345.13 231,-345.13 225,-339.13 225,-333.13 225,-333.13 225,-235.32 225,-235.32 225,-229.32 231,-223.32 237,-223.32"/>
<text text-anchor="middle" x="523.5" y="-230.52" font-family="Times,serif" font-size="14.00">group (5)</text>
</g>
<g id="clust2" class="cluster">
<title>clusterobs_id (100)</title>
<path fill="none" stroke="black" d="M20,-8C20,-8 205,-8 205,-8 211,-8 217,-14 217,-20 217,-20 217,-321.23 217,-321.23 217,-327.23 211,-333.23 205,-333.23 205,-333.23 20,-333.23 20,-333.23 14,-333.23 8,-327.23 8,-321.23 8,-321.23 8,-20 8,-20 8,-14 14,-8 20,-8"/>
<text text-anchor="middle" x="174.5" y="-15.2" font-family="Times,serif" font-size="14.00">obs_id (100)</text>
</g>
<!-- intercept_sigma -->
<g id="node1" class="node">
<title>intercept_sigma</title>
<ellipse fill="none" stroke="black" cx="234" cy="-413.79" rx="72.83" ry="40.66"/>
<text text-anchor="middle" x="234" y="-425.24" font-family="Times,serif" font-size="14.00">intercept_sigma</text>
<text text-anchor="middle" x="234" y="-408.74" font-family="Times,serif" font-size="14.00">~</text>
<text text-anchor="middle" x="234" y="-392.24" font-family="Times,serif" font-size="14.00">HalfNormal</text>
</g>
<!-- β0 -->
<g id="node6" class="node">
<title>β0</title>
<ellipse fill="none" stroke="black" cx="274" cy="-296.48" rx="41.01" ry="40.66"/>
<text text-anchor="middle" x="274" y="-307.93" font-family="Times,serif" font-size="14.00">β0</text>
<text text-anchor="middle" x="274" y="-291.43" font-family="Times,serif" font-size="14.00">~</text>
<text text-anchor="middle" x="274" y="-274.93" font-family="Times,serif" font-size="14.00">Normal</text>
</g>
<!-- intercept_sigma&#45;&gt;β0 -->
<g id="edge2" class="edge">
<title>intercept_sigma&#45;&gt;β0</title>
<path fill="none" stroke="black" d="M247.65,-373.43C250.68,-364.71 253.92,-355.37 257.06,-346.32"/>
<polygon fill="black" stroke="black" points="260.35,-347.52 260.32,-336.92 253.73,-345.22 260.35,-347.52"/>
</g>
<!-- intercept_mu -->
<g id="node2" class="node">
<title>intercept_mu</title>
<ellipse fill="none" stroke="black" cx="81" cy="-413.79" rx="62.23" ry="40.66"/>
<text text-anchor="middle" x="81" y="-425.24" font-family="Times,serif" font-size="14.00">intercept_mu</text>
<text text-anchor="middle" x="81" y="-408.74" font-family="Times,serif" font-size="14.00">~</text>
<text text-anchor="middle" x="81" y="-392.24" font-family="Times,serif" font-size="14.00">Normal</text>
</g>
<!-- intercept_mu&#45;&gt;β0 -->
<g id="edge3" class="edge">
<title>intercept_mu&#45;&gt;β0</title>
<path fill="none" stroke="black" d="M127.16,-385.93C135.34,-381.48 143.85,-377.04 152,-373.13 181.84,-358.82 192.94,-362.68 221,-345.13 226.51,-341.69 231.99,-337.65 237.22,-333.41"/>
<polygon fill="black" stroke="black" points="239.26,-336.27 244.6,-327.12 234.72,-330.94 239.26,-336.27"/>
</g>
<!-- sigma_hyperprior -->
<g id="node3" class="node">
<title>sigma_hyperprior</title>
<ellipse fill="none" stroke="black" cx="658" cy="-413.79" rx="79.73" ry="40.66"/>
<text text-anchor="middle" x="658" y="-425.24" font-family="Times,serif" font-size="14.00">sigma_hyperprior</text>
<text text-anchor="middle" x="658" y="-408.74" font-family="Times,serif" font-size="14.00">~</text>
<text text-anchor="middle" x="658" y="-392.24" font-family="Times,serif" font-size="14.00">HalfNormal</text>
</g>
<!-- sigma -->
<g id="node8" class="node">
<title>sigma</title>
<ellipse fill="none" stroke="black" cx="491" cy="-296.48" rx="57.98" ry="40.66"/>
<text text-anchor="middle" x="491" y="-307.93" font-family="Times,serif" font-size="14.00">sigma</text>
<text text-anchor="middle" x="491" y="-291.43" font-family="Times,serif" font-size="14.00">~</text>
<text text-anchor="middle" x="491" y="-274.93" font-family="Times,serif" font-size="14.00">HalfNormal</text>
</g>
<!-- sigma_hyperprior&#45;&gt;sigma -->
<g id="edge1" class="edge">
<title>sigma_hyperprior&#45;&gt;sigma</title>
<path fill="none" stroke="black" d="M611.48,-380.67C589.61,-365.57 563.5,-347.54 541.18,-332.13"/>
<polygon fill="black" stroke="black" points="543.33,-329.36 533.12,-326.56 539.36,-335.12 543.33,-329.36"/>
</g>
<!-- slope_mu -->
<g id="node4" class="node">
<title>slope_mu</title>
<ellipse fill="none" stroke="black" cx="374" cy="-413.79" rx="48.97" ry="40.66"/>
<text text-anchor="middle" x="374" y="-425.24" font-family="Times,serif" font-size="14.00">slope_mu</text>
<text text-anchor="middle" x="374" y="-408.74" font-family="Times,serif" font-size="14.00">~</text>
<text text-anchor="middle" x="374" y="-392.24" font-family="Times,serif" font-size="14.00">Normal</text>
</g>
<!-- β1 -->
<g id="node7" class="node">
<title>β1</title>
<ellipse fill="none" stroke="black" cx="374" cy="-296.48" rx="41.01" ry="40.66"/>
<text text-anchor="middle" x="374" y="-307.93" font-family="Times,serif" font-size="14.00">β1</text>
<text text-anchor="middle" x="374" y="-291.43" font-family="Times,serif" font-size="14.00">~</text>
<text text-anchor="middle" x="374" y="-274.93" font-family="Times,serif" font-size="14.00">Normal</text>
</g>
<!-- slope_mu&#45;&gt;β1 -->
<g id="edge4" class="edge">
<title>slope_mu&#45;&gt;β1</title>
<path fill="none" stroke="black" d="M374,-372.78C374,-365 374,-356.75 374,-348.66"/>
<polygon fill="black" stroke="black" points="377.5,-348.93 374,-338.93 370.5,-348.93 377.5,-348.93"/>
</g>
<!-- slope_sigma -->
<g id="node5" class="node">
<title>slope_sigma</title>
<ellipse fill="none" stroke="black" cx="501" cy="-413.79" rx="59.57" ry="40.66"/>
<text text-anchor="middle" x="501" y="-425.24" font-family="Times,serif" font-size="14.00">slope_sigma</text>
<text text-anchor="middle" x="501" y="-408.74" font-family="Times,serif" font-size="14.00">~</text>
<text text-anchor="middle" x="501" y="-392.24" font-family="Times,serif" font-size="14.00">HalfNormal</text>
</g>
<!-- slope_sigma&#45;&gt;β1 -->
<g id="edge5" class="edge">
<title>slope_sigma&#45;&gt;β1</title>
<path fill="none" stroke="black" d="M464.69,-381.43C451.75,-370.1 437.13,-357.15 424,-345.13 419.85,-341.34 415.54,-337.33 411.27,-333.32"/>
<polygon fill="black" stroke="black" points="413.93,-331.02 404.26,-326.69 409.12,-336.1 413.93,-331.02"/>
</g>
<!-- μ -->
<g id="node9" class="node">
<title>μ</title>
<polygon fill="none" stroke="black" points="209.12,-215.32 118.88,-215.32 118.88,-157.82 209.12,-157.82 209.12,-215.32"/>
<text text-anchor="middle" x="164" y="-198.02" font-family="Times,serif" font-size="14.00">μ</text>
<text text-anchor="middle" x="164" y="-181.52" font-family="Times,serif" font-size="14.00">~</text>
<text text-anchor="middle" x="164" y="-165.02" font-family="Times,serif" font-size="14.00">Deterministic</text>
</g>
<!-- β0&#45;&gt;μ -->
<g id="edge6" class="edge">
<title>β0&#45;&gt;μ</title>
<path fill="none" stroke="black" d="M252.91,-261.37C244.02,-248.56 232.96,-234.43 221,-223.32 220.1,-222.48 219.18,-221.66 218.24,-220.84"/>
<polygon fill="black" stroke="black" points="220.55,-218.2 210.55,-214.69 216.18,-223.67 220.55,-218.2"/>
</g>
<!-- β1&#45;&gt;μ -->
<g id="edge7" class="edge">
<title>β1&#45;&gt;μ</title>
<path fill="none" stroke="black" d="M356.42,-259.48C348.28,-246.26 337.4,-232.34 324,-223.32 293.58,-202.85 253.27,-193.93 220.71,-190.11"/>
<polygon fill="black" stroke="black" points="221.36,-186.66 211.06,-189.12 220.65,-193.63 221.36,-186.66"/>
</g>
<!-- y -->
<g id="node12" class="node">
<title>y</title>
<ellipse fill="lightgrey" stroke="black" cx="164" cy="-81.16" rx="41.01" ry="40.66"/>
<text text-anchor="middle" x="164" y="-92.61" font-family="Times,serif" font-size="14.00">y</text>
<text text-anchor="middle" x="164" y="-76.11" font-family="Times,serif" font-size="14.00">~</text>
<text text-anchor="middle" x="164" y="-59.61" font-family="Times,serif" font-size="14.00">Normal</text>
</g>
<!-- sigma&#45;&gt;y -->
<g id="edge12" class="edge">
<title>sigma&#45;&gt;y</title>
<path fill="none" stroke="black" d="M462.72,-260.53C451.47,-247.9 437.91,-234.11 424,-223.32 356.28,-170.77 266.37,-126.75 211.98,-102.47"/>
<polygon fill="black" stroke="black" points="213.53,-99.33 202.97,-98.49 210.7,-105.73 213.53,-99.33"/>
</g>
<!-- μ&#45;&gt;y -->
<g id="edge10" class="edge">
<title>μ&#45;&gt;y</title>
<path fill="none" stroke="black" d="M164,-157.58C164,-150.1 164,-141.77 164,-133.45"/>
<polygon fill="black" stroke="black" points="167.5,-133.71 164,-123.71 160.5,-133.71 167.5,-133.71"/>
</g>
<!-- g -->
<g id="node10" class="node">
<title>g</title>
<path fill="lightgrey" stroke="black" d="M91.62,-325.23C91.62,-325.23 28.38,-325.23 28.38,-325.23 22.38,-325.23 16.38,-319.23 16.38,-313.23 16.38,-313.23 16.38,-279.73 16.38,-279.73 16.38,-273.73 22.38,-267.73 28.38,-267.73 28.38,-267.73 91.62,-267.73 91.62,-267.73 97.62,-267.73 103.62,-273.73 103.62,-279.73 103.62,-279.73 103.62,-313.23 103.62,-313.23 103.62,-319.23 97.62,-325.23 91.62,-325.23"/>
<text text-anchor="middle" x="60" y="-307.93" font-family="Times,serif" font-size="14.00">g</text>
<text text-anchor="middle" x="60" y="-291.43" font-family="Times,serif" font-size="14.00">~</text>
<text text-anchor="middle" x="60" y="-274.93" font-family="Times,serif" font-size="14.00">MutableData</text>
</g>
<!-- g&#45;&gt;μ -->
<g id="edge8" class="edge">
<title>g&#45;&gt;μ</title>
<path fill="none" stroke="black" d="M76.99,-267.34C85.06,-255.09 95.42,-240.81 112.29,-223.75"/>
<polygon fill="black" stroke="black" points="114.72,-226.27 119.43,-216.77 109.83,-221.26 114.72,-226.27"/>
</g>
<!-- g&#45;&gt;y -->
<g id="edge11" class="edge">
<title>g&#45;&gt;y</title>
<path fill="none" stroke="black" d="M67.75,-267.38C76.17,-238.88 91.01,-193.94 110,-157.82 116.22,-146 124.06,-133.91 131.82,-122.97"/>
<polygon fill="black" stroke="black" points="134.64,-125.05 137.69,-114.91 128.98,-120.93 134.64,-125.05"/>
</g>
<!-- x -->
<g id="node11" class="node">
<title>x</title>
<path fill="lightgrey" stroke="black" d="M196.62,-325.23C196.62,-325.23 133.38,-325.23 133.38,-325.23 127.38,-325.23 121.38,-319.23 121.38,-313.23 121.38,-313.23 121.38,-279.73 121.38,-279.73 121.38,-273.73 127.38,-267.73 133.38,-267.73 133.38,-267.73 196.62,-267.73 196.62,-267.73 202.62,-267.73 208.62,-273.73 208.62,-279.73 208.62,-279.73 208.62,-313.23 208.62,-313.23 208.62,-319.23 202.62,-325.23 196.62,-325.23"/>
<text text-anchor="middle" x="165" y="-307.93" font-family="Times,serif" font-size="14.00">x</text>
<text text-anchor="middle" x="165" y="-291.43" font-family="Times,serif" font-size="14.00">~</text>
<text text-anchor="middle" x="165" y="-274.93" font-family="Times,serif" font-size="14.00">MutableData</text>
</g>
<!-- x&#45;&gt;μ -->
<g id="edge9" class="edge">
<title>x&#45;&gt;μ</title>
<path fill="none" stroke="black" d="M164.74,-267.41C164.63,-255.04 164.49,-240.3 164.36,-226.87"/>
<polygon fill="black" stroke="black" points="167.87,-226.98 164.27,-217.01 160.87,-227.04 167.87,-226.98"/>
</g>
</g>
</svg>