<?xml version="1.0" encoding="UTF-8" standalone="no"?>
<!DOCTYPE svg PUBLIC "-//W3C//DTD SVG 1.1//EN"
 "http://www.w3.org/Graphics/SVG/1.1/DTD/svg11.dtd">
<!-- Generated by graphviz version 9.0.0 (0)
 -->
<!-- Pages: 1 -->
<svg width="650pt" height="591pt"
 viewBox="0.00 0.00 650.02 591.27" xmlns="http://www.w3.org/2000/svg" xmlns:xlink="http://www.w3.org/1999/xlink">
<g id="graph0" class="graph" transform="scale(1 1) rotate(0) translate(4 587.27)">
<polygon fill="white" stroke="none" points="-4,4 -4,-587.27 646.02,-587.27 646.02,4 -4,4"/>
<g id="clust1" class="cluster">
<title>cluster5000</title>
<path fill="none" stroke="black" d="M104.01,-8C104.01,-8 304.01,-8 304.01,-8 310.01,-8 316.01,-14 316.01,-20 316.01,-20 316.01,-563.27 316.01,-563.27 316.01,-569.27 310.01,-575.27 304.01,-575.27 304.01,-575.27 104.01,-575.27 104.01,-575.27 98.01,-575.27 92.01,-569.27 92.01,-563.27 92.01,-563.27 92.01,-20 92.01,-20 92.01,-14 98.01,-8 104.01,-8"/>
<text text-anchor="middle" x="294.51" y="-15.2" font-family="Times,serif" font-size="14.00">5000</text>
</g>
<!-- Y -->
<g id="node1" class="node">
<title>Y</title>
<ellipse fill="lightgrey" stroke="black" cx="267.01" cy="-291.98" rx="41.01" ry="40.66"/>
<text text-anchor="middle" x="267.01" y="-303.43" font-family="Times,serif" font-size="14.00">Y</text>
<text text-anchor="middle" x="267.01" y="-286.93" font-family="Times,serif" font-size="14.00">~</text>
<text text-anchor="middle" x="267.01" y="-270.43" font-family="Times,serif" font-size="14.00">Normal</text>
</g>
<!-- _Y -->
<g id="node3" class="node">
<title>_Y</title>
<path fill="lightgrey" stroke="black" d="M295.64,-203.41C295.64,-203.41 232.39,-203.41 232.39,-203.41 226.39,-203.41 220.39,-197.41 220.39,-191.41 220.39,-191.41 220.39,-157.91 220.39,-157.91 220.39,-151.91 226.39,-145.91 232.39,-145.91 232.39,-145.91 295.64,-145.91 295.64,-145.91 301.64,-145.91 307.64,-151.91 307.64,-157.91 307.64,-157.91 307.64,-191.41 307.64,-191.41 307.64,-197.41 301.64,-203.41 295.64,-203.41"/>
<text text-anchor="middle" x="264.01" y="-186.11" font-family="Times,serif" font-size="14.00">_Y</text>
<text text-anchor="middle" x="264.01" y="-169.61" font-family="Times,serif" font-size="14.00">~</text>
<text text-anchor="middle" x="264.01" y="-153.11" font-family="Times,serif" font-size="14.00">MutableData</text>
</g>
<!-- Y&#45;&gt;_Y -->
<g id="edge3" class="edge">
<title>Y&#45;&gt;_Y</title>
<path fill="none" stroke="black" d="M265.97,-250.97C265.67,-239.26 265.33,-226.47 265.03,-214.82"/>
<polygon fill="black" stroke="black" points="268.54,-215.04 264.78,-205.13 261.54,-215.22 268.54,-215.04"/>
</g>
<!-- P -->
<g id="node6" class="node">
<title>P</title>
<ellipse fill="lightgrey" stroke="black" cx="161.01" cy="-174.66" rx="41.01" ry="40.66"/>
<text text-anchor="middle" x="161.01" y="-186.11" font-family="Times,serif" font-size="14.00">P</text>
<text text-anchor="middle" x="161.01" y="-169.61" font-family="Times,serif" font-size="14.00">~</text>
<text text-anchor="middle" x="161.01" y="-153.11" font-family="Times,serif" font-size="14.00">Normal</text>
</g>
<!-- Y&#45;&gt;P -->
<g id="edge14" class="edge">
<title>Y&#45;&gt;P</title>
<path fill="none" stroke="black" d="M239.71,-261.28C226.36,-246.75 210.14,-229.1 195.89,-213.61"/>
<polygon fill="black" stroke="black" points="198.59,-211.36 189.24,-206.37 193.43,-216.1 198.59,-211.36"/>
</g>
<!-- Q -->
<g id="node2" class="node">
<title>Q</title>
<ellipse fill="lightgrey" stroke="black" cx="207.01" cy="-526.61" rx="41.01" ry="40.66"/>
<text text-anchor="middle" x="207.01" y="-538.06" font-family="Times,serif" font-size="14.00">Q</text>
<text text-anchor="middle" x="207.01" y="-521.56" font-family="Times,serif" font-size="14.00">~</text>
<text text-anchor="middle" x="207.01" y="-505.06" font-family="Times,serif" font-size="14.00">Normal</text>
</g>
<!-- Q&#45;&gt;Y -->
<g id="edge9" class="edge">
<title>Q&#45;&gt;Y</title>
<path fill="none" stroke="black" d="M203.98,-485.83C202.82,-453.43 204.15,-406.95 217.01,-368.63 221.16,-356.28 227.85,-344.01 235.01,-333.06"/>
<polygon fill="black" stroke="black" points="237.73,-335.27 240.51,-325.05 231.96,-331.31 237.73,-335.27"/>
</g>
<!-- _Q -->
<g id="node7" class="node">
<title>_Q</title>
<path fill="lightgrey" stroke="black" d="M175.64,-438.04C175.64,-438.04 112.39,-438.04 112.39,-438.04 106.39,-438.04 100.39,-432.04 100.39,-426.04 100.39,-426.04 100.39,-392.54 100.39,-392.54 100.39,-386.54 106.39,-380.54 112.39,-380.54 112.39,-380.54 175.64,-380.54 175.64,-380.54 181.64,-380.54 187.64,-386.54 187.64,-392.54 187.64,-392.54 187.64,-426.04 187.64,-426.04 187.64,-432.04 181.64,-438.04 175.64,-438.04"/>
<text text-anchor="middle" x="144.01" y="-420.74" font-family="Times,serif" font-size="14.00">_Q</text>
<text text-anchor="middle" x="144.01" y="-404.24" font-family="Times,serif" font-size="14.00">~</text>
<text text-anchor="middle" x="144.01" y="-387.74" font-family="Times,serif" font-size="14.00">MutableData</text>
</g>
<!-- Q&#45;&gt;_Q -->
<g id="edge1" class="edge">
<title>Q&#45;&gt;_Q</title>
<path fill="none" stroke="black" d="M187.77,-490.38C180.5,-477.08 172.2,-461.9 164.8,-448.35"/>
<polygon fill="black" stroke="black" points="167.94,-446.79 160.07,-439.69 161.8,-450.15 167.94,-446.79"/>
</g>
<!-- X -->
<g id="node8" class="node">
<title>X</title>
<ellipse fill="lightgrey" stroke="black" cx="267.01" cy="-409.29" rx="41.01" ry="40.66"/>
<text text-anchor="middle" x="267.01" y="-420.74" font-family="Times,serif" font-size="14.00">X</text>
<text text-anchor="middle" x="267.01" y="-404.24" font-family="Times,serif" font-size="14.00">~</text>
<text text-anchor="middle" x="267.01" y="-387.74" font-family="Times,serif" font-size="14.00">Normal</text>
</g>
<!-- Q&#45;&gt;X -->
<g id="edge6" class="edge">
<title>Q&#45;&gt;X</title>
<path fill="none" stroke="black" d="M225.5,-490.07C231.09,-479.33 237.31,-467.38 243.19,-456.07"/>
<polygon fill="black" stroke="black" points="246.27,-457.74 247.78,-447.26 240.06,-454.51 246.27,-457.74"/>
</g>
<!-- _X -->
<g id="node4" class="node">
<title>_X</title>
<path fill="lightgrey" stroke="black" d="M195.64,-320.73C195.64,-320.73 132.39,-320.73 132.39,-320.73 126.39,-320.73 120.39,-314.73 120.39,-308.73 120.39,-308.73 120.39,-275.23 120.39,-275.23 120.39,-269.23 126.39,-263.23 132.39,-263.23 132.39,-263.23 195.64,-263.23 195.64,-263.23 201.64,-263.23 207.64,-269.23 207.64,-275.23 207.64,-275.23 207.64,-308.73 207.64,-308.73 207.64,-314.73 201.64,-320.73 195.64,-320.73"/>
<text text-anchor="middle" x="164.01" y="-303.43" font-family="Times,serif" font-size="14.00">_X</text>
<text text-anchor="middle" x="164.01" y="-286.93" font-family="Times,serif" font-size="14.00">~</text>
<text text-anchor="middle" x="164.01" y="-270.43" font-family="Times,serif" font-size="14.00">MutableData</text>
</g>
<!-- _P -->
<g id="node5" class="node">
<title>_P</title>
<path fill="lightgrey" stroke="black" d="M192.64,-98C192.64,-98 129.39,-98 129.39,-98 123.39,-98 117.39,-92 117.39,-86 117.39,-86 117.39,-52.5 117.39,-52.5 117.39,-46.5 123.39,-40.5 129.39,-40.5 129.39,-40.5 192.64,-40.5 192.64,-40.5 198.64,-40.5 204.64,-46.5 204.64,-52.5 204.64,-52.5 204.64,-86 204.64,-86 204.64,-92 198.64,-98 192.64,-98"/>
<text text-anchor="middle" x="161.01" y="-80.7" font-family="Times,serif" font-size="14.00">_P</text>
<text text-anchor="middle" x="161.01" y="-64.2" font-family="Times,serif" font-size="14.00">~</text>
<text text-anchor="middle" x="161.01" y="-47.7" font-family="Times,serif" font-size="14.00">MutableData</text>
</g>
<!-- P&#45;&gt;_P -->
<g id="edge4" class="edge">
<title>P&#45;&gt;_P</title>
<path fill="none" stroke="black" d="M161.01,-133.68C161.01,-125.83 161.01,-117.6 161.01,-109.76"/>
<polygon fill="black" stroke="black" points="164.51,-109.79 161.01,-99.79 157.51,-109.79 164.51,-109.79"/>
</g>
<!-- X&#45;&gt;Y -->
<g id="edge12" class="edge">
<title>X&#45;&gt;Y</title>
<path fill="none" stroke="black" d="M267.01,-368.28C267.01,-360.5 267.01,-352.25 267.01,-344.16"/>
<polygon fill="black" stroke="black" points="270.51,-344.43 267.01,-334.43 263.51,-344.43 270.51,-344.43"/>
</g>
<!-- X&#45;&gt;_X -->
<g id="edge2" class="edge">
<title>X&#45;&gt;_X</title>
<path fill="none" stroke="black" d="M240.22,-378.3C226.84,-363.32 210.55,-345.08 196.47,-329.31"/>
<polygon fill="black" stroke="black" points="199.18,-327.1 189.91,-321.97 193.96,-331.76 199.18,-327.1"/>
</g>
<!-- X&#45;&gt;P -->
<g id="edge17" class="edge">
<title>X&#45;&gt;P</title>
<path fill="none" stroke="black" d="M232.2,-387.49C221.1,-381.15 208.68,-374.35 197.01,-368.63 159.81,-350.39 133.97,-367.13 111.01,-332.63 87.43,-297.2 108.16,-249.92 129.65,-216.54"/>
<polygon fill="black" stroke="black" points="132.49,-218.59 135.16,-208.34 126.68,-214.69 132.49,-218.59"/>
</g>
<!-- yp -->
<g id="node9" class="node">
<title>yp</title>
<ellipse fill="none" stroke="black" cx="41.01" cy="-291.98" rx="41.01" ry="40.66"/>
<text text-anchor="middle" x="41.01" y="-303.43" font-family="Times,serif" font-size="14.00">yp</text>
<text text-anchor="middle" x="41.01" y="-286.93" font-family="Times,serif" font-size="14.00">~</text>
<text text-anchor="middle" x="41.01" y="-270.43" font-family="Times,serif" font-size="14.00">Normal</text>
</g>
<!-- yp&#45;&gt;P -->
<g id="edge13" class="edge">
<title>yp&#45;&gt;P</title>
<path fill="none" stroke="black" d="M70.06,-263.06C86.16,-247.59 106.34,-228.2 123.61,-211.61"/>
<polygon fill="black" stroke="black" points="125.94,-214.22 130.72,-204.77 121.09,-209.17 125.94,-214.22"/>
</g>
<!-- qy -->
<g id="node10" class="node">
<title>qy</title>
<ellipse fill="none" stroke="black" cx="367.01" cy="-409.29" rx="41.01" ry="40.66"/>
<text text-anchor="middle" x="367.01" y="-420.74" font-family="Times,serif" font-size="14.00">qy</text>
<text text-anchor="middle" x="367.01" y="-404.24" font-family="Times,serif" font-size="14.00">~</text>
<text text-anchor="middle" x="367.01" y="-387.74" font-family="Times,serif" font-size="14.00">Normal</text>
</g>
<!-- qy&#45;&gt;Y -->
<g id="edge8" class="edge">
<title>qy&#45;&gt;Y</title>
<path fill="none" stroke="black" d="M340.48,-377.69C328.29,-363.64 313.69,-346.81 300.73,-331.86"/>
<polygon fill="black" stroke="black" points="303.51,-329.72 294.32,-324.46 298.22,-334.31 303.51,-329.72"/>
</g>
<!-- sigma_x -->
<g id="node11" class="node">
<title>sigma_x</title>
<ellipse fill="none" stroke="black" cx="382.01" cy="-526.61" rx="57.98" ry="40.66"/>
<text text-anchor="middle" x="382.01" y="-538.06" font-family="Times,serif" font-size="14.00">sigma_x</text>
<text text-anchor="middle" x="382.01" y="-521.56" font-family="Times,serif" font-size="14.00">~</text>
<text text-anchor="middle" x="382.01" y="-505.06" font-family="Times,serif" font-size="14.00">HalfNormal</text>
</g>
<!-- sigma_x&#45;&gt;X -->
<g id="edge5" class="edge">
<title>sigma_x&#45;&gt;X</title>
<path fill="none" stroke="black" d="M349.37,-492.87C335.02,-478.49 318.12,-461.55 303.38,-446.76"/>
<polygon fill="black" stroke="black" points="306.05,-444.48 296.51,-439.87 301.09,-449.42 306.05,-444.48"/>
</g>
<!-- qx -->
<g id="node12" class="node">
<title>qx</title>
<ellipse fill="none" stroke="black" cx="499.01" cy="-526.61" rx="41.01" ry="40.66"/>
<text text-anchor="middle" x="499.01" y="-538.06" font-family="Times,serif" font-size="14.00">qx</text>
<text text-anchor="middle" x="499.01" y="-521.56" font-family="Times,serif" font-size="14.00">~</text>
<text text-anchor="middle" x="499.01" y="-505.06" font-family="Times,serif" font-size="14.00">Normal</text>
</g>
<!-- qx&#45;&gt;X -->
<g id="edge7" class="edge">
<title>qx&#45;&gt;X</title>
<path fill="none" stroke="black" d="M468.87,-498.57C462.61,-493.88 455.83,-489.4 449.01,-485.95 394.75,-458.5 371.27,-477.41 317.01,-449.95 313.49,-448.17 309.99,-446.12 306.56,-443.91"/>
<polygon fill="black" stroke="black" points="308.6,-441.06 298.39,-438.2 304.59,-446.8 308.6,-441.06"/>
</g>
<!-- xp -->
<g id="node13" class="node">
<title>xp</title>
<ellipse fill="none" stroke="black" cx="367.01" cy="-291.98" rx="41.01" ry="40.66"/>
<text text-anchor="middle" x="367.01" y="-303.43" font-family="Times,serif" font-size="14.00">xp</text>
<text text-anchor="middle" x="367.01" y="-286.93" font-family="Times,serif" font-size="14.00">~</text>
<text text-anchor="middle" x="367.01" y="-270.43" font-family="Times,serif" font-size="14.00">Normal</text>
</g>
<!-- xp&#45;&gt;P -->
<g id="edge15" class="edge">
<title>xp&#45;&gt;P</title>
<path fill="none" stroke="black" d="M337.42,-263.14C331.9,-258.8 325.98,-254.65 320.01,-251.32 275.48,-226.41 255.91,-239.54 211.01,-215.32 207.54,-213.45 204.07,-211.33 200.67,-209.07"/>
<polygon fill="black" stroke="black" points="202.72,-206.23 192.54,-203.29 198.66,-211.94 202.72,-206.23"/>
</g>
<!-- sigma_p -->
<g id="node14" class="node">
<title>sigma_p</title>
<ellipse fill="none" stroke="black" cx="484.01" cy="-291.98" rx="57.98" ry="40.66"/>
<text text-anchor="middle" x="484.01" y="-303.43" font-family="Times,serif" font-size="14.00">sigma_p</text>
<text text-anchor="middle" x="484.01" y="-286.93" font-family="Times,serif" font-size="14.00">~</text>
<text text-anchor="middle" x="484.01" y="-270.43" font-family="Times,serif" font-size="14.00">HalfNormal</text>
</g>
<!-- sigma_p&#45;&gt;P -->
<g id="edge16" class="edge">
<title>sigma_p&#45;&gt;P</title>
<path fill="none" stroke="black" d="M442.27,-263.17C434.15,-258.67 425.51,-254.45 417.01,-251.32 329.82,-219.12 295.81,-253.37 211.01,-215.32 207.25,-213.63 203.53,-211.6 199.91,-209.35"/>
<polygon fill="black" stroke="black" points="202.12,-206.62 191.89,-203.87 198.17,-212.4 202.12,-206.62"/>
</g>
<!-- sigma_y -->
<g id="node15" class="node">
<title>sigma_y</title>
<ellipse fill="none" stroke="black" cx="484.01" cy="-409.29" rx="57.98" ry="40.66"/>
<text text-anchor="middle" x="484.01" y="-420.74" font-family="Times,serif" font-size="14.00">sigma_y</text>
<text text-anchor="middle" x="484.01" y="-404.24" font-family="Times,serif" font-size="14.00">~</text>
<text text-anchor="middle" x="484.01" y="-387.74" font-family="Times,serif" font-size="14.00">HalfNormal</text>
</g>
<!-- sigma_y&#45;&gt;Y -->
<g id="edge10" class="edge">
<title>sigma_y&#45;&gt;Y</title>
<path fill="none" stroke="black" d="M441.41,-381.46C433.45,-376.91 425.08,-372.43 417.01,-368.63 374.27,-348.51 358.28,-355.61 317.01,-332.63 313.57,-330.72 310.12,-328.57 306.72,-326.28"/>
<polygon fill="black" stroke="black" points="308.78,-323.45 298.61,-320.47 304.7,-329.14 308.78,-323.45"/>
</g>
<!-- xy -->
<g id="node16" class="node">
<title>xy</title>
<ellipse fill="none" stroke="black" cx="601.01" cy="-409.29" rx="41.01" ry="40.66"/>
<text text-anchor="middle" x="601.01" y="-420.74" font-family="Times,serif" font-size="14.00">xy</text>
<text text-anchor="middle" x="601.01" y="-404.24" font-family="Times,serif" font-size="14.00">~</text>
<text text-anchor="middle" x="601.01" y="-387.74" font-family="Times,serif" font-size="14.00">Normal</text>
</g>
<!-- xy&#45;&gt;Y -->
<g id="edge11" class="edge">
<title>xy&#45;&gt;Y</title>
<path fill="none" stroke="black" d="M571.44,-380.82C565.08,-376.11 558.12,-371.74 551.01,-368.63 454.58,-326.54 413.45,-374.73 317.01,-332.63 313.24,-330.99 309.5,-328.98 305.88,-326.75"/>
<polygon fill="black" stroke="black" points="308.08,-324.02 297.84,-321.3 304.15,-329.81 308.08,-324.02"/>
</g>
</g>
</svg>