<?xml version="1.0" encoding="UTF-8" standalone="no"?>
<!DOCTYPE svg PUBLIC "-//W3C//DTD SVG 1.1//EN"
 "http://www.w3.org/Graphics/SVG/1.1/DTD/svg11.dtd">
<!-- Generated by graphviz version 8.1.0 (0)
 -->
<!-- Pages: 1 -->
<svg width="488pt" height="482pt"
 viewBox="0.00 0.00 488.04 482.36" xmlns="http://www.w3.org/2000/svg" xmlns:xlink="http://www.w3.org/1999/xlink">
<g id="graph0" class="graph" transform="scale(1 1) rotate(0) translate(4 478.36)">
<polygon fill="white" stroke="none" points="-4,4 -4,-478.36 484.04,-478.36 484.04,4 -4,4"/>
<g id="clust1" class="cluster">
<title>cluster85</title>
<path fill="none" stroke="black" d="M68.03,-255.13C68.03,-255.13 150.03,-255.13 150.03,-255.13 156.03,-255.13 162.03,-261.13 162.03,-267.13 162.03,-267.13 162.03,-341.13 162.03,-341.13 162.03,-347.13 156.03,-353.13 150.03,-353.13 150.03,-353.13 68.03,-353.13 68.03,-353.13 62.03,-353.13 56.03,-347.13 56.03,-341.13 56.03,-341.13 56.03,-267.13 56.03,-267.13 56.03,-261.13 62.03,-255.13 68.03,-255.13"/>
<text text-anchor="middle" x="147.28" y="-262.33" font-family="Times,serif" font-size="14.00">85</text>
</g>
<g id="clust2" class="cluster">
<title>clustercounty (85)</title>
<path fill="none" stroke="black" d="M182.03,-137.82C182.03,-137.82 270.03,-137.82 270.03,-137.82 276.03,-137.82 282.03,-143.82 282.03,-149.82 282.03,-149.82 282.03,-353.04 282.03,-353.04 282.03,-359.04 276.03,-365.04 270.03,-365.04 270.03,-365.04 182.03,-365.04 182.03,-365.04 176.03,-365.04 170.03,-359.04 170.03,-353.04 170.03,-353.04 170.03,-149.82 170.03,-149.82 170.03,-143.82 176.03,-137.82 182.03,-137.82"/>
<text text-anchor="middle" x="242.53" y="-145.02" font-family="Times,serif" font-size="14.00">county (85)</text>
</g>
<g id="clust3" class="cluster">
<title>cluster919</title>
<path fill="none" stroke="black" d="M298.03,-8C298.03,-8 372.03,-8 372.03,-8 378.03,-8 384.03,-14 384.03,-20 384.03,-20 384.03,-117.82 384.03,-117.82 384.03,-123.82 378.03,-129.82 372.03,-129.82 372.03,-129.82 298.03,-129.82 298.03,-129.82 292.03,-129.82 286.03,-123.82 286.03,-117.82 286.03,-117.82 286.03,-20 286.03,-20 286.03,-14 292.03,-8 298.03,-8"/>
<text text-anchor="middle" x="365.9" y="-15.2" font-family="Times,serif" font-size="14.00">919</text>
</g>
<!-- gamma_0 -->
<g id="node1" class="node">
<title>gamma_0</title>
<ellipse fill="none" stroke="black" cx="50.03" cy="-433.7" rx="50.03" ry="40.66"/>
<text text-anchor="middle" x="50.03" y="-445.15" font-family="Times,serif" font-size="14.00">gamma_0</text>
<text text-anchor="middle" x="50.03" y="-428.65" font-family="Times,serif" font-size="14.00">~</text>
<text text-anchor="middle" x="50.03" y="-412.15" font-family="Times,serif" font-size="14.00">Normal</text>
</g>
<!-- mu_a -->
<g id="node6" class="node">
<title>mu_a</title>
<polygon fill="none" stroke="black" points="154.15,-345.13 63.9,-345.13 63.9,-287.63 154.15,-287.63 154.15,-345.13"/>
<text text-anchor="middle" x="109.03" y="-327.83" font-family="Times,serif" font-size="14.00">mu_a</text>
<text text-anchor="middle" x="109.03" y="-311.33" font-family="Times,serif" font-size="14.00">~</text>
<text text-anchor="middle" x="109.03" y="-294.83" font-family="Times,serif" font-size="14.00">Deterministic</text>
</g>
<!-- gamma_0&#45;&gt;mu_a -->
<g id="edge1" class="edge">
<title>gamma_0&#45;&gt;mu_a</title>
<path fill="none" stroke="black" d="M69.02,-395.58C75.68,-382.57 83.16,-367.95 89.83,-354.91"/>
<polygon fill="black" stroke="black" points="93.31,-356.79 94.75,-346.29 87.08,-353.6 93.31,-356.79"/>
</g>
<!-- sigma_a -->
<g id="node2" class="node">
<title>sigma_a</title>
<ellipse fill="none" stroke="black" cx="349.03" cy="-316.38" rx="57.45" ry="40.66"/>
<text text-anchor="middle" x="349.03" y="-327.83" font-family="Times,serif" font-size="14.00">sigma_a</text>
<text text-anchor="middle" x="349.03" y="-311.33" font-family="Times,serif" font-size="14.00">~</text>
<text text-anchor="middle" x="349.03" y="-294.83" font-family="Times,serif" font-size="14.00">HalfCauchy</text>
</g>
<!-- alpha -->
<g id="node8" class="node">
<title>alpha</title>
<polygon fill="none" stroke="black" points="271.15,-227.82 180.9,-227.82 180.9,-170.32 271.15,-170.32 271.15,-227.82"/>
<text text-anchor="middle" x="226.03" y="-210.52" font-family="Times,serif" font-size="14.00">alpha</text>
<text text-anchor="middle" x="226.03" y="-194.02" font-family="Times,serif" font-size="14.00">~</text>
<text text-anchor="middle" x="226.03" y="-177.52" font-family="Times,serif" font-size="14.00">Deterministic</text>
</g>
<!-- sigma_a&#45;&gt;alpha -->
<g id="edge5" class="edge">
<title>sigma_a&#45;&gt;alpha</title>
<path fill="none" stroke="black" d="M315.47,-283.05C305.99,-273.98 295.64,-264.14 286.03,-255.13 279.28,-248.81 272.06,-242.13 265.06,-235.67"/>
<polygon fill="black" stroke="black" points="267.7,-233.43 257.97,-229.24 262.97,-238.59 267.7,-233.43"/>
</g>
<!-- sigma_y -->
<g id="node3" class="node">
<title>sigma_y</title>
<ellipse fill="none" stroke="black" cx="335.03" cy="-199.07" rx="44.72" ry="40.66"/>
<text text-anchor="middle" x="335.03" y="-210.52" font-family="Times,serif" font-size="14.00">sigma_y</text>
<text text-anchor="middle" x="335.03" y="-194.02" font-family="Times,serif" font-size="14.00">~</text>
<text text-anchor="middle" x="335.03" y="-177.52" font-family="Times,serif" font-size="14.00">Uniform</text>
</g>
<!-- y_like -->
<g id="node9" class="node">
<title>y_like</title>
<ellipse fill="lightgrey" stroke="black" cx="335.03" cy="-81.16" rx="41.01" ry="40.66"/>
<text text-anchor="middle" x="335.03" y="-92.61" font-family="Times,serif" font-size="14.00">y_like</text>
<text text-anchor="middle" x="335.03" y="-76.11" font-family="Times,serif" font-size="14.00">~</text>
<text text-anchor="middle" x="335.03" y="-59.61" font-family="Times,serif" font-size="14.00">Normal</text>
</g>
<!-- sigma_y&#45;&gt;y_like -->
<g id="edge8" class="edge">
<title>sigma_y&#45;&gt;y_like</title>
<path fill="none" stroke="black" d="M335.03,-158.18C335.03,-150.07 335.03,-141.44 335.03,-133.02"/>
<polygon fill="black" stroke="black" points="338.53,-133.12 335.03,-123.12 331.53,-133.12 338.53,-133.12"/>
</g>
<!-- beta -->
<g id="node4" class="node">
<title>beta</title>
<ellipse fill="none" stroke="black" cx="439.03" cy="-199.07" rx="41.01" ry="40.66"/>
<text text-anchor="middle" x="439.03" y="-210.52" font-family="Times,serif" font-size="14.00">beta</text>
<text text-anchor="middle" x="439.03" y="-194.02" font-family="Times,serif" font-size="14.00">~</text>
<text text-anchor="middle" x="439.03" y="-177.52" font-family="Times,serif" font-size="14.00">Normal</text>
</g>
<!-- beta&#45;&gt;y_like -->
<g id="edge7" class="edge">
<title>beta&#45;&gt;y_like</title>
<path fill="none" stroke="black" d="M413.79,-166.72C406,-157.3 397.29,-147.02 389.03,-137.82 383.34,-131.48 377.16,-124.87 371.08,-118.52"/>
<polygon fill="black" stroke="black" points="373.95,-116.41 364.49,-111.64 368.91,-121.27 373.95,-116.41"/>
</g>
<!-- gamma_1 -->
<g id="node5" class="node">
<title>gamma_1</title>
<ellipse fill="none" stroke="black" cx="168.03" cy="-433.7" rx="50.03" ry="40.66"/>
<text text-anchor="middle" x="168.03" y="-445.15" font-family="Times,serif" font-size="14.00">gamma_1</text>
<text text-anchor="middle" x="168.03" y="-428.65" font-family="Times,serif" font-size="14.00">~</text>
<text text-anchor="middle" x="168.03" y="-412.15" font-family="Times,serif" font-size="14.00">Normal</text>
</g>
<!-- gamma_1&#45;&gt;mu_a -->
<g id="edge2" class="edge">
<title>gamma_1&#45;&gt;mu_a</title>
<path fill="none" stroke="black" d="M149.04,-395.58C142.38,-382.57 134.9,-367.95 128.23,-354.91"/>
<polygon fill="black" stroke="black" points="130.98,-353.6 123.31,-346.29 124.74,-356.79 130.98,-353.6"/>
</g>
<!-- mu_a&#45;&gt;alpha -->
<g id="edge4" class="edge">
<title>mu_a&#45;&gt;alpha</title>
<path fill="none" stroke="black" d="M134.73,-287.4C144.39,-277.1 155.56,-265.44 166.03,-255.13 172.54,-248.72 179.6,-242.03 186.5,-235.61"/>
<polygon fill="black" stroke="black" points="188.52,-238.59 193.5,-229.24 183.77,-233.44 188.52,-238.59"/>
</g>
<!-- epsilon_a -->
<g id="node7" class="node">
<title>epsilon_a</title>
<ellipse fill="none" stroke="black" cx="226.03" cy="-316.38" rx="47.91" ry="40.66"/>
<text text-anchor="middle" x="226.03" y="-327.83" font-family="Times,serif" font-size="14.00">epsilon_a</text>
<text text-anchor="middle" x="226.03" y="-311.33" font-family="Times,serif" font-size="14.00">~</text>
<text text-anchor="middle" x="226.03" y="-294.83" font-family="Times,serif" font-size="14.00">Normal</text>
</g>
<!-- epsilon_a&#45;&gt;alpha -->
<g id="edge3" class="edge">
<title>epsilon_a&#45;&gt;alpha</title>
<path fill="none" stroke="black" d="M226.03,-275.38C226.03,-263.54 226.03,-250.62 226.03,-238.86"/>
<polygon fill="black" stroke="black" points="229.53,-239.03 226.03,-229.03 222.53,-239.03 229.53,-239.03"/>
</g>
<!-- alpha&#45;&gt;y_like -->
<g id="edge6" class="edge">
<title>alpha&#45;&gt;y_like</title>
<path fill="none" stroke="black" d="M251.32,-170.01C260.6,-159.81 271.22,-148.23 281.03,-137.82 286.87,-131.61 293.12,-125.08 299.22,-118.75"/>
<polygon fill="black" stroke="black" points="301.39,-121.51 305.83,-111.89 296.36,-116.64 301.39,-121.51"/>
</g>
</g>
</svg>