<?xml version="1.0" encoding="UTF-8" standalone="no"?>
<!DOCTYPE svg PUBLIC "-//W3C//DTD SVG 1.1//EN"
 "http://www.w3.org/Graphics/SVG/1.1/DTD/svg11.dtd">
<!-- Generated by graphviz version 9.0.0 (0)
 -->
<!-- Pages: 1 -->
<svg width="258pt" height="458pt"
 viewBox="0.00 0.00 257.97 457.95" xmlns="http://www.w3.org/2000/svg" xmlns:xlink="http://www.w3.org/1999/xlink">
<g id="graph0" class="graph" transform="scale(1 1) rotate(0) translate(4 453.95)">
<polygon fill="white" stroke="none" points="-4,4 -4,-453.95 253.97,-453.95 253.97,4 -4,4"/>
<g id="clust1" class="cluster">
<title>cluster150</title>
<path fill="none" stroke="black" d="M83.98,-8C83.98,-8 165.98,-8 165.98,-8 171.98,-8 177.98,-14 177.98,-20 177.98,-20 177.98,-211.32 177.98,-211.32 177.98,-217.32 171.98,-223.32 165.98,-223.32 165.98,-223.32 83.98,-223.32 83.98,-223.32 77.98,-223.32 71.98,-217.32 71.98,-211.32 71.98,-211.32 71.98,-20 71.98,-20 71.98,-14 77.98,-8 83.98,-8"/>
<text text-anchor="middle" x="159.86" y="-15.2" font-family="Times,serif" font-size="14.00">150</text>
</g>
<!-- y_obs -->
<g id="node1" class="node">
<title>y_obs</title>
<ellipse fill="lightgrey" stroke="black" cx="124.98" cy="-174.66" rx="41.01" ry="40.66"/>
<text text-anchor="middle" x="124.98" y="-186.11" font-family="Times,serif" font-size="14.00">y_obs</text>
<text text-anchor="middle" x="124.98" y="-169.61" font-family="Times,serif" font-size="14.00">~</text>
<text text-anchor="middle" x="124.98" y="-153.11" font-family="Times,serif" font-size="14.00">Poisson</text>
</g>
<!-- y_data -->
<g id="node2" class="node">
<title>y_data</title>
<path fill="lightgrey" stroke="black" d="M157.73,-98C157.73,-98 92.23,-98 92.23,-98 86.23,-98 80.23,-92 80.23,-86 80.23,-86 80.23,-52.5 80.23,-52.5 80.23,-46.5 86.23,-40.5 92.23,-40.5 92.23,-40.5 157.73,-40.5 157.73,-40.5 163.73,-40.5 169.73,-46.5 169.73,-52.5 169.73,-52.5 169.73,-86 169.73,-86 169.73,-92 163.73,-98 157.73,-98"/>
<text text-anchor="middle" x="124.98" y="-80.7" font-family="Times,serif" font-size="14.00">y_data</text>
<text text-anchor="middle" x="124.98" y="-64.2" font-family="Times,serif" font-size="14.00">~</text>
<text text-anchor="middle" x="124.98" y="-47.7" font-family="Times,serif" font-size="14.00">ConstantData</text>
</g>
<!-- y_obs&#45;&gt;y_data -->
<g id="edge1" class="edge">
<title>y_obs&#45;&gt;y_data</title>
<path fill="none" stroke="black" d="M124.98,-133.68C124.98,-125.83 124.98,-117.6 124.98,-109.76"/>
<polygon fill="black" stroke="black" points="128.48,-109.79 124.98,-99.79 121.48,-109.79 128.48,-109.79"/>
</g>
<!-- rate -->
<g id="node3" class="node">
<title>rate</title>
<ellipse fill="none" stroke="black" cx="124.98" cy="-291.98" rx="42.6" ry="40.66"/>
<text text-anchor="middle" x="124.98" y="-303.43" font-family="Times,serif" font-size="14.00">rate</text>
<text text-anchor="middle" x="124.98" y="-286.93" font-family="Times,serif" font-size="14.00">~</text>
<text text-anchor="middle" x="124.98" y="-270.43" font-family="Times,serif" font-size="14.00">Gamma</text>
</g>
<!-- rate&#45;&gt;y_obs -->
<g id="edge4" class="edge">
<title>rate&#45;&gt;y_obs</title>
<path fill="none" stroke="black" d="M124.98,-250.97C124.98,-243.19 124.98,-234.93 124.98,-226.84"/>
<polygon fill="black" stroke="black" points="128.48,-227.11 124.98,-217.11 121.48,-227.11 128.48,-227.11"/>
</g>
<!-- h_sigma -->
<g id="node4" class="node">
<title>h_sigma</title>
<ellipse fill="none" stroke="black" cx="57.98" cy="-409.29" rx="57.98" ry="40.66"/>
<text text-anchor="middle" x="57.98" y="-420.74" font-family="Times,serif" font-size="14.00">h_sigma</text>
<text text-anchor="middle" x="57.98" y="-404.24" font-family="Times,serif" font-size="14.00">~</text>
<text text-anchor="middle" x="57.98" y="-387.74" font-family="Times,serif" font-size="14.00">HalfNormal</text>
</g>
<!-- h_sigma&#45;&gt;rate -->
<g id="edge2" class="edge">
<title>h_sigma&#45;&gt;rate</title>
<path fill="none" stroke="black" d="M79.55,-371.17C85.7,-360.59 92.47,-348.94 98.86,-337.94"/>
<polygon fill="black" stroke="black" points="101.84,-339.78 103.83,-329.38 95.78,-336.26 101.84,-339.78"/>
</g>
<!-- h_mu -->
<g id="node5" class="node">
<title>h_mu</title>
<ellipse fill="none" stroke="black" cx="191.98" cy="-409.29" rx="57.98" ry="40.66"/>
<text text-anchor="middle" x="191.98" y="-420.74" font-family="Times,serif" font-size="14.00">h_mu</text>
<text text-anchor="middle" x="191.98" y="-404.24" font-family="Times,serif" font-size="14.00">~</text>
<text text-anchor="middle" x="191.98" y="-387.74" font-family="Times,serif" font-size="14.00">HalfNormal</text>
</g>
<!-- h_mu&#45;&gt;rate -->
<g id="edge3" class="edge">
<title>h_mu&#45;&gt;rate</title>
<path fill="none" stroke="black" d="M170.41,-371.17C164.26,-360.59 157.5,-348.94 151.11,-337.94"/>
<polygon fill="black" stroke="black" points="154.18,-336.26 146.13,-329.38 148.13,-339.78 154.18,-336.26"/>
</g>
</g>
</svg>