<?xml version="1.0" encoding="UTF-8" standalone="no"?>
<!DOCTYPE svg PUBLIC "-//W3C//DTD SVG 1.1//EN"
 "http://www.w3.org/Graphics/SVG/1.1/DTD/svg11.dtd">
<!-- Generated by graphviz version 9.0.0 (0)
 -->
<!-- Pages: 1 -->
<svg width="422pt" height="247pt"
 viewBox="0.00 0.00 422.46 247.13" xmlns="http://www.w3.org/2000/svg" xmlns:xlink="http://www.w3.org/1999/xlink">
<g id="graph0" class="graph" transform="scale(1 1) rotate(0) translate(4 243.13)">
<polygon fill="white" stroke="none" points="-4,4 -4,-243.13 418.46,-243.13 418.46,4 -4,4"/>
<g id="clust1" class="cluster">
<title>cluster50</title>
<path fill="none" stroke="black" d="M181.45,-8C181.45,-8 265.45,-8 265.45,-8 271.45,-8 277.45,-14 277.45,-20 277.45,-20 277.45,-117.82 277.45,-117.82 277.45,-123.82 271.45,-129.82 265.45,-129.82 265.45,-129.82 181.45,-129.82 181.45,-129.82 175.45,-129.82 169.45,-123.82 169.45,-117.82 169.45,-117.82 169.45,-20 169.45,-20 169.45,-14 175.45,-8 181.45,-8"/>
<text text-anchor="middle" x="262.7" y="-15.2" font-family="Times,serif" font-size="14.00">50</text>
</g>
<!-- sigma -->
<g id="node1" class="node">
<title>sigma</title>
<ellipse fill="none" stroke="black" cx="57.45" cy="-198.48" rx="57.45" ry="40.66"/>
<text text-anchor="middle" x="57.45" y="-209.93" font-family="Times,serif" font-size="14.00">sigma</text>
<text text-anchor="middle" x="57.45" y="-193.43" font-family="Times,serif" font-size="14.00">~</text>
<text text-anchor="middle" x="57.45" y="-176.93" font-family="Times,serif" font-size="14.00">Exponential</text>
</g>
<!-- D -->
<g id="node5" class="node">
<title>D</title>
<ellipse fill="lightgrey" stroke="black" cx="223.45" cy="-81.16" rx="46.32" ry="40.66"/>
<text text-anchor="middle" x="223.45" y="-92.61" font-family="Times,serif" font-size="14.00">D</text>
<text text-anchor="middle" x="223.45" y="-76.11" font-family="Times,serif" font-size="14.00">~</text>
<text text-anchor="middle" x="223.45" y="-59.61" font-family="Times,serif" font-size="14.00">StudentT</text>
</g>
<!-- sigma&#45;&gt;D -->
<g id="edge1" class="edge">
<title>sigma&#45;&gt;D</title>
<path fill="none" stroke="black" d="M98.06,-169.27C122.32,-152.42 153.18,-130.98 178.21,-113.59"/>
<polygon fill="black" stroke="black" points="180.04,-116.58 186.25,-108 176.04,-110.83 180.04,-116.58"/>
</g>
<!-- bA -->
<g id="node2" class="node">
<title>bA</title>
<ellipse fill="none" stroke="black" cx="173.45" cy="-198.48" rx="41.01" ry="40.66"/>
<text text-anchor="middle" x="173.45" y="-209.93" font-family="Times,serif" font-size="14.00">bA</text>
<text text-anchor="middle" x="173.45" y="-193.43" font-family="Times,serif" font-size="14.00">~</text>
<text text-anchor="middle" x="173.45" y="-176.93" font-family="Times,serif" font-size="14.00">Normal</text>
</g>
<!-- bA&#45;&gt;D -->
<g id="edge2" class="edge">
<title>bA&#45;&gt;D</title>
<path fill="none" stroke="black" d="M189.41,-160.67C193.65,-150.89 198.3,-140.18 202.75,-129.9"/>
<polygon fill="black" stroke="black" points="205.93,-131.36 206.7,-120.79 199.51,-128.58 205.93,-131.36"/>
</g>
<!-- bM -->
<g id="node3" class="node">
<title>bM</title>
<ellipse fill="none" stroke="black" cx="273.45" cy="-198.48" rx="41.01" ry="40.66"/>
<text text-anchor="middle" x="273.45" y="-209.93" font-family="Times,serif" font-size="14.00">bM</text>
<text text-anchor="middle" x="273.45" y="-193.43" font-family="Times,serif" font-size="14.00">~</text>
<text text-anchor="middle" x="273.45" y="-176.93" font-family="Times,serif" font-size="14.00">Normal</text>
</g>
<!-- bM&#45;&gt;D -->
<g id="edge3" class="edge">
<title>bM&#45;&gt;D</title>
<path fill="none" stroke="black" d="M257.49,-160.67C253.25,-150.89 248.61,-140.18 244.15,-129.9"/>
<polygon fill="black" stroke="black" points="247.39,-128.58 240.2,-120.79 240.97,-131.36 247.39,-128.58"/>
</g>
<!-- a -->
<g id="node4" class="node">
<title>a</title>
<ellipse fill="none" stroke="black" cx="373.45" cy="-198.48" rx="41.01" ry="40.66"/>
<text text-anchor="middle" x="373.45" y="-209.93" font-family="Times,serif" font-size="14.00">a</text>
<text text-anchor="middle" x="373.45" y="-193.43" font-family="Times,serif" font-size="14.00">~</text>
<text text-anchor="middle" x="373.45" y="-176.93" font-family="Times,serif" font-size="14.00">Normal</text>
</g>
<!-- a&#45;&gt;D -->
<g id="edge4" class="edge">
<title>a&#45;&gt;D</title>
<path fill="none" stroke="black" d="M341.8,-172.19C335.73,-167.39 329.41,-162.43 323.45,-157.82 305.13,-143.63 284.76,-128.15 267.21,-114.92"/>
<polygon fill="black" stroke="black" points="269.61,-112.35 259.52,-109.14 265.4,-117.95 269.61,-112.35"/>
</g>
</g>
</svg>