<?xml version="1.0" encoding="UTF-8" standalone="no"?>
<!DOCTYPE svg PUBLIC "-//W3C//DTD SVG 1.1//EN"
 "http://www.w3.org/Graphics/SVG/1.1/DTD/svg11.dtd">
<!-- Generated by graphviz version 9.0.0 (0)
 -->
<!-- Pages: 1 -->
<svg width="176pt" height="300pt"
 viewBox="0.00 0.00 175.63 300.13" xmlns="http://www.w3.org/2000/svg" xmlns:xlink="http://www.w3.org/1999/xlink">
<g id="graph0" class="graph" transform="scale(1 1) rotate(0) translate(4 296.13)">
<polygon fill="white" stroke="none" points="-4,4 -4,-296.13 171.63,-296.13 171.63,4 -4,4"/>
<!-- theta -->
<g id="node1" class="node">
<title>theta</title>
<ellipse fill="none" stroke="black" cx="29.88" cy="-251.48" rx="29.88" ry="40.66"/>
<text text-anchor="middle" x="29.88" y="-262.93" font-family="Times,serif" font-size="14.00">theta</text>
<text text-anchor="middle" x="29.88" y="-246.43" font-family="Times,serif" font-size="14.00">~</text>
<text text-anchor="middle" x="29.88" y="-229.93" font-family="Times,serif" font-size="14.00">Beta</text>
</g>
<!-- obs -->
<g id="node4" class="node">
<title>obs</title>
<ellipse fill="lightgrey" stroke="black" cx="75.88" cy="-134.16" rx="47.38" ry="40.66"/>
<text text-anchor="middle" x="75.88" y="-145.61" font-family="Times,serif" font-size="14.00">obs</text>
<text text-anchor="middle" x="75.88" y="-129.11" font-family="Times,serif" font-size="14.00">~</text>
<text text-anchor="middle" x="75.88" y="-112.61" font-family="Times,serif" font-size="14.00">Binomial</text>
</g>
<!-- theta&#45;&gt;obs -->
<g id="edge2" class="edge">
<title>theta&#45;&gt;obs</title>
<path fill="none" stroke="black" d="M43.93,-215.25C47.93,-205.22 52.36,-194.11 56.62,-183.44"/>
<polygon fill="black" stroke="black" points="59.78,-184.96 60.23,-174.38 53.27,-182.37 59.78,-184.96"/>
</g>
<!-- n_trials -->
<g id="node2" class="node">
<title>n_trials</title>
<path fill="lightgrey" stroke="black" d="M155.63,-280.23C155.63,-280.23 90.13,-280.23 90.13,-280.23 84.13,-280.23 78.13,-274.23 78.13,-268.23 78.13,-268.23 78.13,-234.73 78.13,-234.73 78.13,-228.73 84.13,-222.73 90.13,-222.73 90.13,-222.73 155.63,-222.73 155.63,-222.73 161.63,-222.73 167.63,-228.73 167.63,-234.73 167.63,-234.73 167.63,-268.23 167.63,-268.23 167.63,-274.23 161.63,-280.23 155.63,-280.23"/>
<text text-anchor="middle" x="122.88" y="-262.93" font-family="Times,serif" font-size="14.00">n_trials</text>
<text text-anchor="middle" x="122.88" y="-246.43" font-family="Times,serif" font-size="14.00">~</text>
<text text-anchor="middle" x="122.88" y="-229.93" font-family="Times,serif" font-size="14.00">ConstantData</text>
</g>
<!-- n_trials&#45;&gt;obs -->
<g id="edge3" class="edge">
<title>n_trials&#45;&gt;obs</title>
<path fill="none" stroke="black" d="M111.38,-222.27C106.62,-210.59 100.96,-196.7 95.57,-183.49"/>
<polygon fill="black" stroke="black" points="98.92,-182.43 91.91,-174.49 92.44,-185.07 98.92,-182.43"/>
</g>
<!-- y_data -->
<g id="node3" class="node">
<title>y_data</title>
<path fill="lightgrey" stroke="black" d="M108.63,-57.5C108.63,-57.5 43.13,-57.5 43.13,-57.5 37.13,-57.5 31.13,-51.5 31.13,-45.5 31.13,-45.5 31.13,-12 31.13,-12 31.13,-6 37.13,0 43.13,0 43.13,0 108.63,0 108.63,0 114.63,0 120.63,-6 120.63,-12 120.63,-12 120.63,-45.5 120.63,-45.5 120.63,-51.5 114.63,-57.5 108.63,-57.5"/>
<text text-anchor="middle" x="75.88" y="-40.2" font-family="Times,serif" font-size="14.00">y_data</text>
<text text-anchor="middle" x="75.88" y="-23.7" font-family="Times,serif" font-size="14.00">~</text>
<text text-anchor="middle" x="75.88" y="-7.2" font-family="Times,serif" font-size="14.00">ConstantData</text>
</g>
<!-- obs&#45;&gt;y_data -->
<g id="edge1" class="edge">
<title>obs&#45;&gt;y_data</title>
<path fill="none" stroke="black" d="M75.88,-93.18C75.88,-85.33 75.88,-77.1 75.88,-69.26"/>
<polygon fill="black" stroke="black" points="79.38,-69.29 75.88,-59.29 72.38,-69.29 79.38,-69.29"/>
</g>
</g>
</svg>