<?xml version="1.0" encoding="UTF-8" standalone="no"?>
<!DOCTYPE svg PUBLIC "-//W3C//DTD SVG 1.1//EN"
 "http://www.w3.org/Graphics/SVG/1.1/DTD/svg11.dtd">
<!-- Generated by graphviz version 9.0.0 (0)
 -->
<!-- Pages: 1 -->
<svg width="414pt" height="125pt"
 viewBox="0.00 0.00 413.89 125.00" xmlns="http://www.w3.org/2000/svg" xmlns:xlink="http://www.w3.org/1999/xlink">
<g id="graph0" class="graph" transform="scale(1 1) rotate(0) translate(4 121)">
<polygon fill="white" stroke="none" points="-4,4 -4,-121 409.89,-121 409.89,4 -4,4"/>
<!-- S -->
<g id="node1" class="node">
<title>S</title>
<ellipse fill="none" stroke="blue" cx="55.45" cy="-45" rx="27" ry="18"/>
<text text-anchor="middle" x="55.45" y="-39.95" font-family="Times,serif" font-size="14.00">S</text>
</g>
<!-- H -->
<g id="node2" class="node">
<title>H</title>
<ellipse fill="none" stroke="black" stroke-dasharray="5,2" cx="287.89" cy="-72" rx="27" ry="18"/>
<text text-anchor="middle" x="287.89" y="-66.95" font-family="Times,serif" font-size="14.00">H</text>
</g>
<!-- S&#45;&gt;H -->
<g id="edge1" class="edge">
<title>S&#45;&gt;H</title>
<path fill="none" stroke="red" d="M82.43,-48.04C123.34,-52.84 202.92,-62.16 249.82,-67.66"/>
<polygon fill="red" stroke="red" points="249.16,-71.1 259.5,-68.79 249.97,-64.15 249.16,-71.1"/>
</g>
<!-- D -->
<g id="node4" class="node">
<title>D</title>
<ellipse fill="none" stroke="black" cx="287.89" cy="-18" rx="27" ry="18"/>
<text text-anchor="middle" x="287.89" y="-12.95" font-family="Times,serif" font-size="14.00">D</text>
</g>
<!-- S&#45;&gt;D -->
<g id="edge4" class="edge">
<title>S&#45;&gt;D</title>
<path fill="none" stroke="blue" d="M81.85,-40.11C95.71,-37.57 113.2,-34.57 128.89,-32.5 170,-27.08 217.38,-23.02 249.46,-20.59"/>
<polygon fill="blue" stroke="blue" points="249.32,-24.11 259.03,-19.89 248.8,-17.13 249.32,-24.11"/>
<text text-anchor="middle" x="185.89" y="-36.2" font-family="Times,serif" font-size="14.00" fill="blue">possible biasing path</text>
</g>
<!-- H* -->
<g id="node3" class="node">
<title>H*</title>
<ellipse fill="none" stroke="red" cx="378.89" cy="-44" rx="27" ry="18"/>
<text text-anchor="middle" x="378.89" y="-38.95" font-family="Times,serif" font-size="14.00">H*</text>
</g>
<!-- H&#45;&gt;H* -->
<g id="edge2" class="edge">
<title>H&#45;&gt;H*</title>
<path fill="none" stroke="red" d="M312.74,-64.5C322.12,-61.55 333.07,-58.1 343.29,-54.89"/>
<polygon fill="red" stroke="red" points="344.04,-58.32 352.53,-51.98 341.94,-51.64 344.04,-58.32"/>
</g>
<!-- D&#45;&gt;H* -->
<g id="edge3" class="edge">
<title>D&#45;&gt;H*</title>
<path fill="none" stroke="blue" d="M313.21,-25.1C322.34,-27.77 332.9,-30.86 342.8,-33.75"/>
<polygon fill="blue" stroke="blue" points="341.57,-37.03 352.15,-36.48 343.53,-30.32 341.57,-37.03"/>
</g>
<!-- Unobserved -->
<g id="node5" class="node">
<title>Unobserved</title>
<ellipse fill="none" stroke="black" stroke-dasharray="5,2" cx="55.45" cy="-99" rx="55.45" ry="18"/>
<text text-anchor="middle" x="55.45" y="-93.95" font-family="Times,serif" font-size="14.00">Unobserved</text>
</g>
</g>
</svg>