<?xml version="1.0" encoding="UTF-8" standalone="no"?>
<!DOCTYPE svg PUBLIC "-//W3C//DTD SVG 1.1//EN"
 "http://www.w3.org/Graphics/SVG/1.1/DTD/svg11.dtd">
<!-- Generated by graphviz version 9.0.0 (0)
 -->
<!-- Pages: 1 -->
<svg width="344pt" height="44pt"
 viewBox="0.00 0.00 344.09 44.00" xmlns="http://www.w3.org/2000/svg" xmlns:xlink="http://www.w3.org/1999/xlink">
<g id="graph0" class="graph" transform="scale(1 1) rotate(0) translate(4 40)">
<polygon fill="white" stroke="none" points="-4,4 -4,-40 340.09,-40 340.09,4 -4,4"/>
<!-- exposure -->
<g id="node1" class="node">
<title>exposure</title>
<ellipse fill="none" stroke="black" cx="44.19" cy="-18" rx="44.19" ry="18"/>
<text text-anchor="middle" x="44.19" y="-12.95" font-family="Times,serif" font-size="14.00">exposure</text>
</g>
<!-- covariate -->
<g id="node2" class="node">
<title>covariate</title>
<ellipse fill="none" stroke="black" cx="169.07" cy="-18" rx="44.7" ry="18"/>
<text text-anchor="middle" x="169.07" y="-12.95" font-family="Times,serif" font-size="14.00">covariate</text>
</g>
<!-- exposure&#45;&gt;covariate -->
<g id="edge1" class="edge">
<title>exposure&#45;&gt;covariate</title>
<path fill="none" stroke="black" d="M88.86,-18C96.55,-18 104.65,-18 112.62,-18"/>
<polygon fill="black" stroke="black" points="112.61,-21.5 122.61,-18 112.61,-14.5 112.61,-21.5"/>
</g>
<!-- outcome -->
<g id="node3" class="node">
<title>outcome</title>
<ellipse fill="none" stroke="black" cx="292.93" cy="-18" rx="43.16" ry="18"/>
<text text-anchor="middle" x="292.93" y="-12.95" font-family="Times,serif" font-size="14.00">outcome</text>
</g>
<!-- covariate&#45;&gt;outcome -->
<g id="edge2" class="edge">
<title>covariate&#45;&gt;outcome</title>
<path fill="none" stroke="black" d="M214.06,-18C221.94,-18 230.23,-18 238.34,-18"/>
<polygon fill="black" stroke="black" points="238.12,-21.5 248.12,-18 238.12,-14.5 238.12,-21.5"/>
</g>
</g>
</svg>