<?xml version="1.0" encoding="UTF-8" standalone="no"?>
<!DOCTYPE svg PUBLIC "-//W3C//DTD SVG 1.1//EN"
 "http://www.w3.org/Graphics/SVG/1.1/DTD/svg11.dtd">
<!-- Generated by graphviz version 8.1.0 (0)
 -->
<!-- Pages: 1 -->
<svg width="582pt" height="305pt"
 viewBox="0.00 0.00 582.24 304.63" xmlns="http://www.w3.org/2000/svg" xmlns:xlink="http://www.w3.org/1999/xlink">
<g id="graph0" class="graph" transform="scale(1 1) rotate(0) translate(4 300.63)">
<polygon fill="white" stroke="none" points="-4,4 -4,-300.63 578.24,-300.63 578.24,4 -4,4"/>
<g id="clust1" class="cluster">
<title>cluster341</title>
<path fill="none" stroke="black" d="M435.11,-65.5C435.11,-65.5 537.11,-65.5 537.11,-65.5 543.11,-65.5 549.11,-71.5 549.11,-77.5 549.11,-77.5 549.11,-175.32 549.11,-175.32 549.11,-181.32 543.11,-187.32 537.11,-187.32 537.11,-187.32 435.11,-187.32 435.11,-187.32 429.11,-187.32 423.11,-181.32 423.11,-175.32 423.11,-175.32 423.11,-77.5 423.11,-77.5 423.11,-71.5 429.11,-65.5 435.11,-65.5"/>
<text text-anchor="middle" x="530.98" y="-72.7" font-family="Times,serif" font-size="14.00">341</text>
</g>
<g id="clust2" class="cluster">
<title>cluster93</title>
<path fill="none" stroke="black" d="M36.11,-65.5C36.11,-65.5 138.11,-65.5 138.11,-65.5 144.11,-65.5 150.11,-71.5 150.11,-77.5 150.11,-77.5 150.11,-175.32 150.11,-175.32 150.11,-181.32 144.11,-187.32 138.11,-187.32 138.11,-187.32 36.11,-187.32 36.11,-187.32 30.11,-187.32 24.11,-181.32 24.11,-175.32 24.11,-175.32 24.11,-77.5 24.11,-77.5 24.11,-71.5 30.11,-65.5 36.11,-65.5"/>
<text text-anchor="middle" x="135.36" y="-72.7" font-family="Times,serif" font-size="14.00">93</text>
</g>
<!-- group0_std -->
<g id="node1" class="node">
<title>group0_std</title>
<ellipse fill="none" stroke="black" cx="70.11" cy="-255.98" rx="57.45" ry="40.66"/>
<text text-anchor="middle" x="70.11" y="-267.43" font-family="Times,serif" font-size="14.00">group0_std</text>
<text text-anchor="middle" x="70.11" y="-250.93" font-family="Times,serif" font-size="14.00">~</text>
<text text-anchor="middle" x="70.11" y="-234.43" font-family="Times,serif" font-size="14.00">HalfCauchy</text>
</g>
<!-- effect size -->
<g id="node5" class="node">
<title>effect size</title>
<polygon fill="none" stroke="black" points="267.23,-57.5 176.98,-57.5 176.98,0 267.23,0 267.23,-57.5"/>
<text text-anchor="middle" x="222.11" y="-40.2" font-family="Times,serif" font-size="14.00">effect size</text>
<text text-anchor="middle" x="222.11" y="-23.7" font-family="Times,serif" font-size="14.00">~</text>
<text text-anchor="middle" x="222.11" y="-7.2" font-family="Times,serif" font-size="14.00">Deterministic</text>
</g>
<!-- group0_std&#45;&gt;effect size -->
<g id="edge9" class="edge">
<title>group0_std&#45;&gt;effect size</title>
<path fill="none" stroke="black" d="M38.97,-221.58C31.3,-211.33 24.13,-199.53 20.11,-187.32 3.17,-135.89 -14.68,-106.99 20.11,-65.5 38.41,-43.67 112.73,-35.16 165.9,-31.85"/>
<polygon fill="black" stroke="black" points="165.78,-35.31 175.56,-31.24 165.38,-28.32 165.78,-35.31"/>
</g>
<!-- difference of stds -->
<g id="node6" class="node">
<title>difference of stds</title>
<polygon fill="none" stroke="black" points="413.36,-167.41 302.86,-167.41 302.86,-109.91 413.36,-109.91 413.36,-167.41"/>
<text text-anchor="middle" x="358.11" y="-150.11" font-family="Times,serif" font-size="14.00">difference of stds</text>
<text text-anchor="middle" x="358.11" y="-133.61" font-family="Times,serif" font-size="14.00">~</text>
<text text-anchor="middle" x="358.11" y="-117.11" font-family="Times,serif" font-size="14.00">Deterministic</text>
</g>
<!-- group0_std&#45;&gt;difference of stds -->
<g id="edge7" class="edge">
<title>group0_std&#45;&gt;difference of stds</title>
<path fill="none" stroke="black" d="M111.5,-227.41C119.73,-222.82 128.49,-218.52 137.11,-215.32 203.13,-190.76 228.37,-215.08 293.11,-187.32 301.34,-183.79 309.51,-179.05 317.14,-173.92"/>
<polygon fill="black" stroke="black" points="318.69,-176.41 324.83,-167.78 314.64,-170.7 318.69,-176.41"/>
</g>
<!-- mom_hs_0 -->
<g id="node9" class="node">
<title>mom_hs_0</title>
<ellipse fill="lightgrey" stroke="black" cx="87.11" cy="-138.66" rx="54.8" ry="40.66"/>
<text text-anchor="middle" x="87.11" y="-150.11" font-family="Times,serif" font-size="14.00">mom_hs_0</text>
<text text-anchor="middle" x="87.11" y="-133.61" font-family="Times,serif" font-size="14.00">~</text>
<text text-anchor="middle" x="87.11" y="-117.11" font-family="Times,serif" font-size="14.00">Normal</text>
</g>
<!-- group0_std&#45;&gt;mom_hs_0 -->
<g id="edge3" class="edge">
<title>group0_std&#45;&gt;mom_hs_0</title>
<path fill="none" stroke="black" d="M75.96,-215.29C77.15,-207.23 78.41,-198.64 79.65,-190.26"/>
<polygon fill="black" stroke="black" points="83.25,-190.82 81.25,-180.42 76.33,-189.8 83.25,-190.82"/>
</g>
<!-- difference of means -->
<g id="node2" class="node">
<title>difference of means</title>
<polygon fill="none" stroke="black" points="284.48,-167.41 159.73,-167.41 159.73,-109.91 284.48,-109.91 284.48,-167.41"/>
<text text-anchor="middle" x="222.11" y="-150.11" font-family="Times,serif" font-size="14.00">difference of means</text>
<text text-anchor="middle" x="222.11" y="-133.61" font-family="Times,serif" font-size="14.00">~</text>
<text text-anchor="middle" x="222.11" y="-117.11" font-family="Times,serif" font-size="14.00">Deterministic</text>
</g>
<!-- difference of means&#45;&gt;effect size -->
<g id="edge11" class="edge">
<title>difference of means&#45;&gt;effect size</title>
<path fill="none" stroke="black" d="M222.11,-109.59C222.11,-97.1 222.11,-82.18 222.11,-68.65"/>
<polygon fill="black" stroke="black" points="225.61,-68.68 222.11,-58.68 218.61,-68.68 225.61,-68.68"/>
</g>
<!-- group0_mean -->
<g id="node3" class="node">
<title>group0_mean</title>
<ellipse fill="none" stroke="black" cx="210.11" cy="-255.98" rx="64.35" ry="40.66"/>
<text text-anchor="middle" x="210.11" y="-267.43" font-family="Times,serif" font-size="14.00">group0_mean</text>
<text text-anchor="middle" x="210.11" y="-250.93" font-family="Times,serif" font-size="14.00">~</text>
<text text-anchor="middle" x="210.11" y="-234.43" font-family="Times,serif" font-size="14.00">Normal</text>
</g>
<!-- group0_mean&#45;&gt;difference of means -->
<g id="edge6" class="edge">
<title>group0_mean&#45;&gt;difference of means</title>
<path fill="none" stroke="black" d="M214.27,-214.97C215.5,-203.14 216.85,-190.21 218.07,-178.45"/>
<polygon fill="black" stroke="black" points="221.65,-178.93 219.2,-168.62 214.68,-178.2 221.65,-178.93"/>
</g>
<!-- group0_mean&#45;&gt;mom_hs_0 -->
<g id="edge4" class="edge">
<title>group0_mean&#45;&gt;mom_hs_0</title>
<path fill="none" stroke="black" d="M174.53,-221.62C160.03,-208.03 143.18,-192.23 128.16,-178.15"/>
<polygon fill="black" stroke="black" points="131.19,-176.25 121.5,-171.96 126.4,-181.35 131.19,-176.25"/>
</g>
<!-- group1_mean -->
<g id="node4" class="node">
<title>group1_mean</title>
<ellipse fill="none" stroke="black" cx="357.11" cy="-255.98" rx="64.35" ry="40.66"/>
<text text-anchor="middle" x="357.11" y="-267.43" font-family="Times,serif" font-size="14.00">group1_mean</text>
<text text-anchor="middle" x="357.11" y="-250.93" font-family="Times,serif" font-size="14.00">~</text>
<text text-anchor="middle" x="357.11" y="-234.43" font-family="Times,serif" font-size="14.00">Normal</text>
</g>
<!-- group1_mean&#45;&gt;difference of means -->
<g id="edge5" class="edge">
<title>group1_mean&#45;&gt;difference of means</title>
<path fill="none" stroke="black" d="M319.5,-222.85C301.91,-207.83 280.93,-189.9 262.95,-174.54"/>
<polygon fill="black" stroke="black" points="265.8,-171.52 255.92,-167.69 261.25,-176.85 265.8,-171.52"/>
</g>
<!-- mom_hs_1 -->
<g id="node8" class="node">
<title>mom_hs_1</title>
<ellipse fill="lightgrey" stroke="black" cx="486.11" cy="-138.66" rx="54.8" ry="40.66"/>
<text text-anchor="middle" x="486.11" y="-150.11" font-family="Times,serif" font-size="14.00">mom_hs_1</text>
<text text-anchor="middle" x="486.11" y="-133.61" font-family="Times,serif" font-size="14.00">~</text>
<text text-anchor="middle" x="486.11" y="-117.11" font-family="Times,serif" font-size="14.00">Normal</text>
</g>
<!-- group1_mean&#45;&gt;mom_hs_1 -->
<g id="edge1" class="edge">
<title>group1_mean&#45;&gt;mom_hs_1</title>
<path fill="none" stroke="black" d="M393.73,-222.24C409.21,-208.4 427.34,-192.2 443.42,-177.82"/>
<polygon fill="black" stroke="black" points="445.49,-180.77 450.61,-171.5 440.83,-175.55 445.49,-180.77"/>
</g>
<!-- group1_std -->
<g id="node7" class="node">
<title>group1_std</title>
<ellipse fill="none" stroke="black" cx="497.11" cy="-255.98" rx="57.45" ry="40.66"/>
<text text-anchor="middle" x="497.11" y="-267.43" font-family="Times,serif" font-size="14.00">group1_std</text>
<text text-anchor="middle" x="497.11" y="-250.93" font-family="Times,serif" font-size="14.00">~</text>
<text text-anchor="middle" x="497.11" y="-234.43" font-family="Times,serif" font-size="14.00">HalfCauchy</text>
</g>
<!-- group1_std&#45;&gt;effect size -->
<g id="edge10" class="edge">
<title>group1_std&#45;&gt;effect size</title>
<path fill="none" stroke="black" d="M531.35,-222.81C540.16,-212.42 548.46,-200.23 553.11,-187.32 571.45,-136.38 589.28,-105.79 553.11,-65.5 535.13,-45.48 368.14,-35.67 278.46,-31.81"/>
<polygon fill="black" stroke="black" points="278.79,-28.28 268.65,-31.35 278.5,-35.27 278.79,-28.28"/>
</g>
<!-- group1_std&#45;&gt;difference of stds -->
<g id="edge8" class="edge">
<title>group1_std&#45;&gt;difference of stds</title>
<path fill="none" stroke="black" d="M460.22,-224.38C441.73,-209.03 419.25,-190.38 400.09,-174.49"/>
<polygon fill="black" stroke="black" points="402.76,-171.32 392.83,-167.63 398.29,-176.71 402.76,-171.32"/>
</g>
<!-- group1_std&#45;&gt;mom_hs_1 -->
<g id="edge2" class="edge">
<title>group1_std&#45;&gt;mom_hs_1</title>
<path fill="none" stroke="black" d="M493.29,-214.97C492.53,-207.01 491.73,-198.55 490.94,-190.29"/>
<polygon fill="black" stroke="black" points="494.35,-190.22 489.92,-180.6 487.38,-190.88 494.35,-190.22"/>
</g>
</g>
</svg>